<?xml version="1.0" encoding="UTF-8" standalone="no"?>
<svg
   xmlns:dc="http://purl.org/dc/elements/1.1/"
   xmlns:cc="http://creativecommons.org/ns#"
   xmlns:rdf="http://www.w3.org/1999/02/22-rdf-syntax-ns#"
   xmlns:svg="http://www.w3.org/2000/svg"
   xmlns="http://www.w3.org/2000/svg"
   xmlns:sodipodi="http://sodipodi.sourceforge.net/DTD/sodipodi-0.dtd"
   xmlns:inkscape="http://www.inkscape.org/namespaces/inkscape"
   width="36"
   height="36"
   preserveAspectRatio="xMidYMid meet"
   viewBox="0 0 36 36"
   style="-ms-transform: rotate(360deg); -webkit-transform: rotate(360deg); transform: rotate(360deg);"
   version="1.1"
   id="svg5888"
   sodipodi:docname="BABY_FROG_2.svg"
   inkscape:version="0.92.4 5da689c313, 2019-01-14">
  <metadata
     id="metadata5894">
    <rdf:RDF>
      <cc:Work
         rdf:about="">
        <dc:format>image/svg+xml</dc:format>
        <dc:type
           rdf:resource="http://purl.org/dc/dcmitype/StillImage" />
        <dc:title />
      </cc:Work>
    </rdf:RDF>
  </metadata>
  <defs
     id="defs5892" />
  <sodipodi:namedview
     pagecolor="#ffffff"
     bordercolor="#666666"
     borderopacity="1"
     objecttolerance="10"
     gridtolerance="10"
     guidetolerance="10"
     inkscape:pageopacity="0"
     inkscape:pageshadow="2"
     inkscape:window-width="1920"
     inkscape:window-height="1025"
     id="namedview5890"
     showgrid="false"
     inkscape:zoom="32"
     inkscape:cx="21.641655"
     inkscape:cy="21.250946"
     inkscape:window-x="0"
     inkscape:window-y="0"
     inkscape:window-maximized="1"
     inkscape:current-layer="svg5888" />
  <path
     fill="#C6E5B3"
     d="M36 22c0 7.456-8.059 12-18 12S0 29.456 0 22S8.059 7 18 7s18 7.544 18 15z"
     id="path5870" />
  <path
     d="M31.755 12.676A5.986 5.986 0 0 0 34 8a6 6 0 0 0-11.851-1.315A11.785 11.785 0 0 0 18 5.927c-1.465 0-2.861.275-4.149.758A6 6 0 0 0 2 8c0 1.891.877 3.576 2.245 4.676C1.6 15.356 0 18.685 0 22c0 7.456 8.059 1 18 1s18 6.456 18-1c0-3.315-1.6-6.644-4.245-9.324z"
     id="path5872"
     fill="#77B255" />
  <circle
     fill="#FFF"
     cx="7.5"
     cy="7.5"
     r="3.5"
     id="circle5874" />
  <circle
     fill="#292F33"
     cx="7.5"
     cy="7.5"
     r="1.5"
     id="circle5876" />
  <circle
     fill="#FFF"
     cx="28.5"
     cy="7.5"
     r="3.5"
     id="circle5878" />
  <circle
     fill="#292F33"
     cx="28.5"
     cy="7.5"
     r="1.5"
     id="circle5880" />
  <circle
     cx="14"
     cy="18.508232"
     r="1"
     id="circle5882"
     style="fill:#5c913b" />
  <circle
     cx="22"
     cy="18.508232"
     r="1"
     id="circle5884"
     style="fill:#5c913b" />
  <g
     id="g6060"
     transform="matrix(0.59963273,0,0,0.59929925,-1.1876178,-1.1693847)">
    <g
       id="g6012"
       style="fill:#ff717f">
      <path
         id="path6008"
         d="m 55.22,37.05 c -0.338,-2.473 -3.137,-3.963 -6.254,-3.328 -3.117,0.633 -5.369,3.156 -5.03,5.633 0.34,2.473 3.139,3.967 6.258,3.33 3.117,-0.637 5.367,-3.159 5.03,-5.635"
         inkscape:connector-curvature="0"
         style="opacity:0.5" />
      <path
         id="path6010"
         d="m 15.04,33.723 c -3.113,-0.635 -5.916,0.855 -6.254,3.328 -0.336,2.477 1.916,4.998 5.03,5.635 3.114,0.637 5.915,-0.857 6.253,-3.33 0.34,-2.477 -1.916,-4.997 -5.03,-5.633"
         inkscape:connector-curvature="0"
         style="opacity:0.5" />
    </g>
    <path
       id="path6028"
       d="m 46.999,42.504 c 0,9.379 -6.715,13.721 -15,13.721 -8.283,0 -15,-4.342 -15,-13.721 0,-9.375 6.756,-5.793 15.04,-5.793 8.285,0 14.961,-3.582 14.961,5.793"
       inkscape:connector-curvature="0"
       style="fill:#61c2ff" />
    <ellipse
       id="ellipse6030"
       ry="5.6599998"
       rx="6"
       cy="46.130001"
       cx="31.999001"
       style="fill:#6235a8" />
    <path
       id="path6032"
       d="m 31.999,45.563 c -5.965,0 -10.799,-0.713 -10.799,5.389 0,6.103 4.834,11.05 10.799,11.05 5.965,0 10.801,-4.945 10.801,-11.05 0,-6.101 -4.836,-5.388 -10.801,-5.388 m 0,12.703 c -4.24,0 -8.158,-2.975 -8.158,-7.314 0,-4.339 3.918,-3.283 8.158,-3.283 4.242,0 8.16,-1.057 8.16,3.283 0,4.34 -3.918,7.314 -8.16,7.314"
       inkscape:connector-curvature="0"
       style="fill:#fbbf67" />
    <path
       id="path6034"
       d="m 35.667,47.45 c 0,0.625 -0.447,1.131 -1,1.131 h -5.334 c -0.553,0 -1,-0.506 -1,-1.131 v -2.643 c 0,-0.627 0.447,-1.133 1,-1.133 h 5.334 c 0.553,0 1,0.506 1,1.133 v 2.643"
       inkscape:connector-curvature="0"
       style="fill:#42ade2" />
  </g>
  <path
     style="fill:#ffa773;fill-opacity:1;stroke-width:0.0078125"
     d="m 7.6864017,24.496928 c -0.09165,-0.0056 -0.2749332,-0.02656 -0.3909855,-0.04479 -1.2028987,-0.18891 -2.2788635,-0.870481 -2.8435874,-1.801272 -0.403054,-0.664322 -0.4966342,-1.405526 -0.259331,-2.054035 0.1905931,-0.520859 0.5888448,-0.958853 1.142743,-1.256779 0.2876227,-0.154705 0.665979,-0.278428 1.0311003,-0.337171 0.4138436,-0.06658 0.8872604,-0.06114 1.3317794,0.01532 1.1134575,0.191509 2.1264643,0.814227 2.6925075,1.655143 l 0.07035,0.104507 -0.06987,0.03748 c -0.327313,0.175556 -0.6170096,0.45342 -0.825797,0.792067 -0.2415003,0.391706 -0.407381,0.910886 -0.4918996,1.539567 -0.039717,0.295431 -0.056637,0.52883 -0.066775,0.921085 -0.0041,0.15855 -0.00871,0.289537 -0.010259,0.291082 -0.00595,0.006 -0.2170664,0.0577 -0.3121414,0.07651 -0.1211683,0.02397 -0.3010807,0.04783 -0.442748,0.05872 -0.095428,0.0073 -0.4497184,0.009 -0.555079,0.0026 z"
     id="path6198"
     inkscape:connector-curvature="0" />
  <path
     style="fill:#ffa773;fill-opacity:1;stroke-width:0.0078125"
     d="m 27.812994,24.497812 c -0.01719,-0.0016 -0.07419,-0.0067 -0.12668,-0.01125 -0.186017,-0.01613 -0.441361,-0.06127 -0.607695,-0.107436 l -0.07813,-0.02168 -0.0016,-0.136488 c -0.01655,-1.383701 -0.267047,-2.321394 -0.780259,-2.920804 -0.165271,-0.193029 -0.366224,-0.357524 -0.588299,-0.481567 -0.05725,-0.03198 -0.07871,-0.04791 -0.07556,-0.0561 0.0096,-0.02512 0.134981,-0.201629 0.210412,-0.296307 0.622183,-0.780943 1.609906,-1.322058 2.68456,-1.470711 0.216953,-0.03001 0.31174,-0.03582 0.582031,-0.03567 0.268519,1.52e-4 0.341816,0.0048 0.558594,0.03552 0.690152,0.09776 1.308316,0.393642 1.730832,0.828459 0.323065,0.33247 0.513944,0.707385 0.594118,1.166938 0.02519,0.144368 0.03392,0.392274 0.01931,0.548462 -0.05156,0.551413 -0.304488,1.103946 -0.723479,1.580444 -0.08775,0.09979 -0.294416,0.302951 -0.390316,0.383689 -0.537239,0.452303 -1.215169,0.773631 -1.933594,0.916494 -0.295284,0.05872 -0.463184,0.07552 -0.785156,0.07856 -0.141797,0.0013 -0.271875,0.0011 -0.289063,-5.46e-4 z"
     id="path6200"
     inkscape:connector-curvature="0" />
  <path
     sodipodi:nodetypes="cccsccscc"
     style="fill:#ffbc00;stroke-width:0.35931101"
     inkscape:connector-curvature="0"
     d="m 19.859657,9.568013 c 0.370437,0 0.731144,-0.02452 1.083858,-0.06242 -0.834699,-0.654621 -1.483832,-1.509492 -1.864347,-2.485849 0.95563,0.375979 2.084316,0.594433 3.295708,0.594433 0.370437,0 0.731492,-0.02378 1.084554,-0.06316 C 22.986704,7.3780138 22.667168,7.2663023 22.149,6.685 21.237989,5.975234 19.824906,5.414397 18.541582,5.414397 c -1.719787,0 -3.325594,0.429479 -4.690582,1.270603 0.723499,1.66033 3.134468,2.883006 6.008657,2.883006"
     id="path1000" />
  <circle
     style="fill:#ffffff"
     cx="57.2141"
     cy="-13.631878"
     r="7"
     id="circle1008" />
  <path
     style="fill:#ffffff"
     inkscape:connector-curvature="0"
     d="m 89.540101,-13.629878 c 0,3.865 -3.135,6.996 -7,6.996 -3.865,0 -7,-3.131 -7,-6.996 0,-3.867 3.135,-7 7,-7 3.865,0 7,3.137 7,7"
     id="path1014" />
</svg>
