<?xml version="1.0" encoding="UTF-8" standalone="no"?>
<svg
   xmlns:dc="http://purl.org/dc/elements/1.1/"
   xmlns:cc="http://creativecommons.org/ns#"
   xmlns:rdf="http://www.w3.org/1999/02/22-rdf-syntax-ns#"
   xmlns:svg="http://www.w3.org/2000/svg"
   xmlns="http://www.w3.org/2000/svg"
   xmlns:sodipodi="http://sodipodi.sourceforge.net/DTD/sodipodi-0.dtd"
   xmlns:inkscape="http://www.inkscape.org/namespaces/inkscape"
   viewBox="0 0 45 45"
   style="enable-background:new 0 0 45 45;"
   xml:space="preserve"
   version="1.1"
   id="svg2"
   sodipodi:docname="bathingfrog.svg"
   inkscape:version="0.92.4 5da689c313, 2019-01-14"
   inkscape:export-filename="/home/stefan/SSDData/git_clones/frog_emojis/svg/frog.svg.png"
   inkscape:export-xdpi="273.06699"
   inkscape:export-ydpi="273.06699"><sodipodi:namedview
     pagecolor="#ffffff"
     bordercolor="#666666"
     borderopacity="1"
     objecttolerance="10"
     gridtolerance="10"
     guidetolerance="10"
     inkscape:pageopacity="0"
     inkscape:pageshadow="2"
     inkscape:window-width="1920"
     inkscape:window-height="1030"
     id="namedview26"
     showgrid="false"
     inkscape:zoom="10.488889"
     inkscape:cx="3.2237233"
     inkscape:cy="15.554486"
     inkscape:window-x="1600"
     inkscape:window-y="50"
     inkscape:window-maximized="0"
     inkscape:current-layer="svg2" /><metadata
     id="metadata8"><rdf:RDF><cc:Work
         rdf:about=""><dc:format>image/svg+xml</dc:format><dc:type
           rdf:resource="http://purl.org/dc/dcmitype/StillImage" /><dc:title></dc:title></cc:Work></rdf:RDF></metadata><defs
     id="defs6"><clipPath
       id="clipPath16"
       clipPathUnits="userSpaceOnUse"><path
         id="path18"
         d="M 0,36 36,36 36,0 0,0 0,36 Z" /></clipPath></defs><g
     transform="matrix(0.78522536,0,0,-0.78522536,7.971294,35.666815)"
     id="g10"><g
       id="g12"><g
         clip-path="url(#clipPath16)"
         id="g14"><g
           transform="translate(36,14)"
           id="g20"><path
             id="path22"
             style="fill:#c6e5b3;fill-opacity:1;fill-rule:nonzero;stroke:none"
             d="m 0,0 c 0,-7.456 -8.059,-12 -18,-12 -9.941,0 -18,4.544 -18,12 0,7.456 8.059,15 18,15 C -8.059,15 0,7.456 0,0"
             inkscape:connector-curvature="0" /></g><g
           transform="translate(31.7549,23.3242)"
           id="g24"><path
             id="path26"
             style="fill:#77b255;fill-opacity:1;fill-rule:nonzero;stroke:none"
             d="m 0,0 c 1.368,1.1 2.245,2.785 2.245,4.676 0,3.313 -2.686,6 -6,6 -2.861,0 -5.25,-2.005 -5.85,-4.685 -1.289,0.483 -2.684,0.758 -4.15,0.758 -1.465,0 -2.861,-0.275 -4.149,-0.758 -0.601,2.68 -2.99,4.685 -5.851,4.685 -3.313,0 -6,-2.687 -6,-6 0,-1.891 0.878,-3.576 2.245,-4.676 -2.645,-2.68 -4.245,-6.009 -4.245,-9.324 0,-7.456 8.059,-1 18,-1 9.942,0 18,-6.456 18,1 C 4.245,-6.009 2.646,-2.68 0,0"
             inkscape:connector-curvature="0" /></g><g
           transform="translate(11,28.5)"
           id="g28"><path
             id="path30"
             style="fill:#ffffff;fill-opacity:1;fill-rule:nonzero;stroke:none"
             d="M 0,0 C 0,-1.933 -1.567,-3.5 -3.5,-3.5 -5.433,-3.5 -7,-1.933 -7,0 -7,1.933 -5.433,3.5 -3.5,3.5 -1.567,3.5 0,1.933 0,0"
             inkscape:connector-curvature="0" /></g><g
           transform="translate(9,28.5)"
           id="g32"><path
             id="path34"
             style="fill:#292f33;fill-opacity:1;fill-rule:nonzero;stroke:none"
             d="M 0,0 C 0,-0.829 -0.671,-1.5 -1.5,-1.5 -2.329,-1.5 -3,-0.829 -3,0 -3,0.829 -2.329,1.5 -1.5,1.5 -0.671,1.5 0,0.829 0,0"
             inkscape:connector-curvature="0" /></g><g
           transform="translate(32,28.5)"
           id="g36"><path
             id="path38"
             style="fill:#ffffff;fill-opacity:1;fill-rule:nonzero;stroke:none"
             d="M 0,0 C 0,-1.933 -1.566,-3.5 -3.5,-3.5 -5.434,-3.5 -7,-1.933 -7,0 -7,1.933 -5.434,3.5 -3.5,3.5 -1.566,3.5 0,1.933 0,0"
             inkscape:connector-curvature="0" /></g><g
           transform="translate(30,28.5)"
           id="g40"><path
             id="path42"
             style="fill:#292f33;fill-opacity:1;fill-rule:nonzero;stroke:none"
             d="M 0,0 C 0,-0.829 -0.672,-1.5 -1.5,-1.5 -2.328,-1.5 -3,-0.829 -3,0 -3,0.829 -2.328,1.5 -1.5,1.5 -0.672,1.5 0,0.829 0,0"
             inkscape:connector-curvature="0" /></g><g
           transform="translate(15,16)"
           id="g44"><path
             id="path46"
             style="fill:#5c913b;fill-opacity:1;fill-rule:nonzero;stroke:none"
             d="m 0,0 c 0,-0.553 -0.448,-1 -1,-1 -0.552,0 -1,0.447 -1,1 0,0.553 0.448,1 1,1 0.552,0 1,-0.447 1,-1"
             inkscape:connector-curvature="0" /></g><g
           transform="translate(23,16)"
           id="g48"><path
             id="path50"
             style="fill:#5c913b;fill-opacity:1;fill-rule:nonzero;stroke:none"
             d="m 0,0 c 0,-0.553 -0.447,-1 -1,-1 -0.553,0 -1,0.447 -1,1 0,0.553 0.447,1 1,1 0.553,0 1,-0.447 1,-1"
             inkscape:connector-curvature="0" /></g></g></g></g><ellipse
     style="fill:#99aab5;stroke-width:1.25"
     cx="40"
     cy="19.999998"
     rx="2.5"
     ry="1.25"
     id="ellipse2" /><path
     inkscape:connector-curvature="0"
     style="fill:#ccd6dd;stroke-width:1.25"
     d="M 41.25,26.25 C 40.55875,26.25 40,25.691251 40,25.000001 V 5 C 40,3.0224999 37.5475,2.4999999 36.25,2.4999999 34.9525,2.4999999 32.5,3.0224999 32.5,5 32.5,5.6900001 31.94125,6.2500001 31.25,6.2500001 30.55875,6.2500001 30,5.6900001 30,5 30,1.7174999 33.145,4.7683717e-7 36.25,4.7683717e-7 39.354999,4.7683717e-7 42.5,1.7174999 42.5,5 V 25.000001 C 42.5,25.691251 41.941249,26.25 41.25,26.25 Z"
     id="path4" /><path
     inkscape:connector-curvature="0"
     style="fill:#99aab5;stroke-width:1.25"
     d="m 35,7.5 c 0,1.3800001 -1.67875,1.2500001 -3.75,1.2500001 -2.07125,0 -3.750001,0.13 -3.750001,-1.2500001 C 27.499999,6.1200001 29.17875,5 31.25,5 33.32125,5 35,6.1200001 35,7.5 Z"
     id="path6" /><path
     inkscape:connector-curvature="0"
     style="fill:#ccd6dd;stroke-width:1.25"
     d="m 36.25,8.7500001 c 0,0.69 -0.558751,1.2500009 -1.25,1.2500009 H 27.499999 C 26.80875,10.000001 26.25,9.4400001 26.25,8.7500001 26.25,8.0600001 26.80875,7.5 27.499999,7.5 H 35 c 0.691249,0 1.25,0.5600001 1.25,1.2500001 z"
     id="path8" /><circle
     style="fill:#99aab5;stroke-width:1.25"
     cx="15"
     cy="42.5"
     id="circle10"
     r="2.5" /><circle
     style="fill:#99aab5;stroke-width:1.25"
     cx="35"
     cy="42.5"
     id="circle12"
     r="2.5" /><path
     inkscape:connector-curvature="0"
     style="fill:#ccd6dd;stroke-width:1.25"
     d="M 37.499999,42.500001 H 15 c -6.2499999,0 -12.4999999,-7.5 -13.7499999,-17.5 -0.31000008,-2.48 1.015,-1.25 3.77625,-1.25 0,0 16.2237499,2.499999 32.4737489,2.499999 2.500001,0 6.25,-1.511249 6.25,1.250001 0,0 -1.249999,15 -6.25,15 z"
     id="path14" /><path
     inkscape:connector-curvature="0"
     style="fill:#99aab5;stroke-width:1.25"
     d="m 45,26.25 c 0,0.691251 -0.55875,1.250001 -1.250001,1.250001 l -42.4999989,-2.5 C 0.56,25.000001 0,24.44125 0,23.750001 0,23.058751 0.56,22.5 1.2500001,22.5 L 43.749999,25.000001 C 44.44125,25.000001 45,25.558751 45,26.25 Z"
     id="path16" /></svg>