<?xml version="1.0" encoding="utf-8"?>
<!-- Generator: Adobe Illustrator 25.0.0, SVG Export Plug-In . SVG Version: 6.00 Build 0)  -->
<svg version="1.1" id="Ebene_1" xmlns="http://www.w3.org/2000/svg" xmlns:xlink="http://www.w3.org/1999/xlink" x="0px" y="0px"
	 viewBox="0 0 64.3 45.1" style="enable-background:new 0 0 64.3 45.1;" xml:space="preserve">
<style type="text/css">
	.st0{clip-path:url(#SVGID_2_);}
	.st1{fill:#003399;}
	.st2{clip-path:url(#SVGID_4_);}
	.st3{fill:#993399;}
	.st4{clip-path:url(#SVGID_6_);}
	.st5{fill:#D00169;}
	.st6{clip-path:url(#SVGID_8_);}
	.st7{clip-path:url(#SVGID_10_);}
	.st8{fill:#FFFFFF;}
	.st9{fill:#292F33;}
	.st10{clip-path:url(#SVGID_12_);}
	.st11{fill:#8945BD;}
	.st12{fill:#612061;}
	.st13{clip-path:url(#SVGID_14_);}
	.st14{clip-path:url(#SVGID_16_);}
	.st15{clip-path:url(#SVGID_18_);}
	.st16{fill:none;}
</style>
<g id="Ebene_2_1_">
	<g id="svg2">
		<g>
			<defs>
				<path id="SVGID_1_" d="M49.6,27.5c0,9.3-10,15-22.4,15s-22.4-5.7-22.4-15s10-18.7,22.4-18.7S49.6,18.2,49.6,27.5"/>
			</defs>
			<clipPath id="SVGID_2_">
				<use xlink:href="#SVGID_1_"  style="overflow:visible;"/>
			</clipPath>
			<g class="st0">
				<path id="path6" class="st1" d="M1.5,24.7h50.7l0.4,19.4l-50.1,1L1.5,24.7z"/>
			</g>
		</g>
		<g>
			<defs>
				<path id="SVGID_3_" d="M44.3,15.8c3.2-2.6,3.7-7.3,1.1-10.5C42.9,2.1,38.2,1.6,35,4.2c-1.3,1.1-2.2,2.5-2.6,4.2
					c-3.3-1.3-7-1.3-10.4,0c-0.9-4-4.9-6.6-8.9-5.7s-6.6,4.9-5.7,8.9c0.4,1.7,1.3,3.1,2.6,4.2c-3.2,3-5.1,7.2-5.3,11.7
					c0,9.3,10.1,1.2,22.5,1.2s22.5,8.1,22.5-1.2C49.5,23.1,47.6,18.9,44.3,15.8"/>
			</defs>
			<clipPath id="SVGID_4_">
				<use xlink:href="#SVGID_3_"  style="overflow:visible;"/>
			</clipPath>
			<g class="st2">
				<path id="path8" class="st3" d="M0,20.5l63.1,0.1l0.7,4.4H1.5L0,20.5z"/>
			</g>
		</g>
		<g>
			<defs>
				<path id="SVGID_5_" d="M44.3,15.8c3.2-2.6,3.7-7.3,1.1-10.5C42.9,2.1,38.2,1.6,35,4.2c-1.3,1.1-2.2,2.5-2.6,4.2
					c-3.3-1.3-7-1.3-10.4,0c-0.9-4-4.9-6.6-8.9-5.7s-6.6,4.9-5.7,8.9c0.4,1.7,1.3,3.1,2.6,4.2c-3.2,3-5.1,7.2-5.3,11.7
					c0,9.3,10.1,1.2,22.5,1.2s22.5,8.1,22.5-1.2C49.5,23.1,47.6,18.9,44.3,15.8"/>
			</defs>
			<clipPath id="SVGID_6_">
				<use xlink:href="#SVGID_5_"  style="overflow:visible;"/>
			</clipPath>
			<g class="st4">
				<path id="path12" class="st5" d="M56.9,2.5H8.4c-3.8,0-6.8,7.8-6.8,12v1.9l62.7,0l-0.6-1.8C63.7,14.6,60.7,2.5,56.9,2.5z"/>
			</g>
		</g>
		<g>
			<defs>
				<path id="SVGID_7_" d="M44.3,15.8c3.2-2.6,3.7-7.3,1.1-10.5C42.9,2.1,38.2,1.6,35,4.2c-1.3,1.1-2.2,2.5-2.6,4.2
					c-3.3-1.3-7-1.3-10.4,0c-0.9-4-4.9-6.6-8.9-5.7s-6.6,4.9-5.7,8.9c0.4,1.7,1.3,3.1,2.6,4.2c-3.2,3-5.1,7.2-5.3,11.7
					c0,9.3,10.1,1.2,22.5,1.2s22.5,8.1,22.5-1.2C49.5,23.1,47.6,18.9,44.3,15.8"/>
			</defs>
			<clipPath id="SVGID_8_">
				<use xlink:href="#SVGID_7_"  style="overflow:visible;"/>
			</clipPath>
			<g class="st6">
				<path id="path10" class="st3" d="M1.1,15.8l51,0l-0.2,4.8L0.9,20.7L1.1,15.8z"/>
			</g>
		</g>
		<g>
			<defs>
				<path id="SVGID_9_" d="M44.3,15.8c3.2-2.6,3.7-7.3,1.1-10.5C42.9,2.1,38.2,1.6,35,4.2c-1.3,1.1-2.2,2.5-2.6,4.2
					c-3.3-1.3-7-1.3-10.4,0c-0.9-4-4.9-6.6-8.9-5.7s-6.6,4.9-5.7,8.9c0.4,1.7,1.3,3.1,2.6,4.2c-3.2,3-5.1,7.2-5.3,11.7
					c0,9.3,10.1,1.2,22.5,1.2s22.5,8.1,22.5-1.2C49.5,23.1,47.6,18.9,44.3,15.8"/>
			</defs>
			<clipPath id="SVGID_10_">
				<use xlink:href="#SVGID_9_"  style="overflow:visible;"/>
			</clipPath>
			<g class="st7">
				<path id="path3970" class="st3" d="M1.5,24.7h62.3v7.8H1.5V24.7z"/>
			</g>
		</g>
		<path id="path30" class="st8" d="M18.4,9.4c0,2.4-2,4.4-4.4,4.4s-4.4-2-4.4-4.4S11.6,5,14,5c0,0,0,0,0,0C16.5,5,18.4,7,18.4,9.4"
			/>
		<path id="path34" class="st9" d="M15.9,9.4c0,1-0.8,1.9-1.9,1.9s-1.9-0.8-1.9-1.9S13,7.5,14,7.5c0,0,0,0,0,0
			C15.1,7.5,15.9,8.3,15.9,9.4"/>
		<path id="path38" class="st8" d="M44.7,9.4c0,2.4-2,4.4-4.4,4.4c-2.4,0-4.4-2-4.4-4.4s2-4.4,4.4-4.4c0,0,0,0,0,0
			C42.7,5,44.7,7,44.7,9.4"/>
		<path id="path42" class="st9" d="M42.2,9.4c0,1-0.8,1.9-1.9,1.9s-1.9-0.8-1.9-1.9s0.8-1.9,1.9-1.9c0,0,0,0,0,0
			C41.3,7.5,42.2,8.3,42.2,9.4"/>
		<g>
			<defs>
				<path id="SVGID_11_" d="M33.4,25c0,0.7-0.6,1.2-1.2,1.2c-0.7,0-1.2-0.6-1.2-1.2s0.6-1.2,1.2-1.2C32.9,23.7,33.4,24.3,33.4,25"/>
			</defs>
			<clipPath id="SVGID_12_">
				<use xlink:href="#SVGID_11_"  style="overflow:visible;"/>
			</clipPath>
			<g class="st10">
				<path id="path4000" class="st11" d="M1.5,17.2h62.3V25H1.5V17.2z"/>
			</g>
		</g>
		<path class="st12" d="M33.4,25c0,0.7-0.6,1.2-1.2,1.2c-0.7,0-1.2-0.6-1.2-1.2s0.6-1.2,1.2-1.2C32.9,23.7,33.4,24.3,33.4,25"/>
		<g>
			<defs>
				<path id="SVGID_13_" d="M33.4,25c0,0.7-0.6,1.2-1.2,1.2c-0.7,0-1.2-0.6-1.2-1.2s0.6-1.2,1.2-1.2C32.9,23.7,33.4,24.3,33.4,25"/>
			</defs>
			<clipPath id="SVGID_14_">
				<use xlink:href="#SVGID_13_"  style="overflow:visible;"/>
			</clipPath>
			<g class="st13">
				<path id="path4026" class="st12" d="M1.5,24.7h62.3v7.8H1.5V24.7z"/>
			</g>
		</g>
		<g>
			<defs>
				<path id="SVGID_15_" d="M23.4,25c0,0.7-0.6,1.2-1.2,1.2s-1.2-0.6-1.2-1.2s0.6-1.2,1.2-1.2S23.4,24.3,23.4,25"/>
			</defs>
			<clipPath id="SVGID_16_">
				<use xlink:href="#SVGID_15_"  style="overflow:visible;"/>
			</clipPath>
			<g class="st14">
				<path id="path4014" class="st11" d="M1.5,17.2h62.3V25H1.5V17.2z"/>
			</g>
		</g>
		<path class="st12" d="M23.4,25c0,0.7-0.6,1.2-1.2,1.2s-1.2-0.6-1.2-1.2s0.6-1.2,1.2-1.2S23.4,24.3,23.4,25"/>
		<g>
			<defs>
				<path id="SVGID_17_" d="M23.4,25c0,0.7-0.6,1.2-1.2,1.2s-1.2-0.6-1.2-1.2s0.6-1.2,1.2-1.2S23.4,24.3,23.4,25"/>
			</defs>
			<clipPath id="SVGID_18_">
				<use xlink:href="#SVGID_17_"  style="overflow:visible;"/>
			</clipPath>
			<g class="st15">
				<path id="path4020" class="st12" d="M1.5,24.7h62.3v7.8H1.5V24.7z"/>
			</g>
		</g>
		<rect x="4.7" y="0" class="st16" width="45" height="45"/>
	</g>
</g>
</svg>
