<?xml version="1.0" encoding="utf-8"?>
<!-- Generator: Adobe Illustrator 25.0.0, SVG Export Plug-In . SVG Version: 6.00 Build 0)  -->
<svg version="1.1" id="Ebene_1" xmlns="http://www.w3.org/2000/svg" xmlns:xlink="http://www.w3.org/1999/xlink" x="0px" y="0px"
	 viewBox="0 0 44.9 45" style="enable-background:new 0 0 44.9 45;" xml:space="preserve">
<style type="text/css">
	.st0{clip-path:url(#SVGID_2_);}
	.st1{fill:#003399;}
	.st2{clip-path:url(#SVGID_4_);}
	.st3{fill:#993399;}
	.st4{clip-path:url(#SVGID_6_);}
	.st5{fill:#D00169;}
	.st6{clip-path:url(#SVGID_8_);}
	.st7{clip-path:url(#SVGID_10_);}
	.st8{fill:#FFFFFF;}
	.st9{fill:#292F33;}
	.st10{clip-path:url(#SVGID_12_);}
	.st11{fill:#8945BD;}
	.st12{fill:#612061;}
	.st13{clip-path:url(#SVGID_14_);}
	.st14{clip-path:url(#SVGID_16_);}
	.st15{clip-path:url(#SVGID_18_);}
</style>
<g id="Ebene_2_1_">
	<g id="svg2">
		<g>
			<g>
				<defs>
					<path id="SVGID_1_" d="M44.9,27.5c0,9.3-10,15-22.4,15s-22.4-5.7-22.4-15s10-18.7,22.4-18.7S44.9,18.2,44.9,27.5"/>
				</defs>
				<clipPath id="SVGID_2_">
					<use xlink:href="#SVGID_1_"  style="overflow:visible;"/>
				</clipPath>
				<g class="st0">
					<path id="path6" class="st1" d="M-3.2,24.7h50.7l0.4,19.4l-50.1,1L-3.2,24.7z"/>
				</g>
			</g>
		</g>
		<g>
			<g>
				<defs>
					<path id="SVGID_3_" d="M39.6,15.8c3.2-2.6,3.7-7.3,1.1-10.5c-2.5-3.2-7.2-3.7-10.4-1.1c-1.3,1.1-2.2,2.5-2.6,4.2
						c-3.3-1.3-7-1.3-10.4,0c-0.9-4-4.9-6.6-8.9-5.7s-6.6,4.9-5.7,8.9c0.4,1.7,1.3,3.1,2.6,4.2C2.1,18.8,0.2,23,0,27.5
						c0,9.3,10.1,1.2,22.5,1.2S45,36.8,45,27.5C44.8,23.1,42.9,18.9,39.6,15.8"/>
				</defs>
				<clipPath id="SVGID_4_">
					<use xlink:href="#SVGID_3_"  style="overflow:visible;"/>
				</clipPath>
				<g class="st2">
					<path id="path8" class="st3" d="M-4.7,20.5l63.1,0.1l0.7,4.4H-3.2L-4.7,20.5z"/>
				</g>
			</g>
		</g>
		<g>
			<g>
				<defs>
					<path id="SVGID_5_" d="M39.6,15.8c3.2-2.6,3.7-7.3,1.1-10.5c-2.5-3.2-7.2-3.7-10.4-1.1c-1.3,1.1-2.2,2.5-2.6,4.2
						c-3.3-1.3-7-1.3-10.4,0c-0.9-4-4.9-6.6-8.9-5.7s-6.6,4.9-5.7,8.9c0.4,1.7,1.3,3.1,2.6,4.2C2.1,18.8,0.2,23,0,27.5
						c0,9.3,10.1,1.2,22.5,1.2S45,36.8,45,27.5C44.8,23.1,42.9,18.9,39.6,15.8"/>
				</defs>
				<clipPath id="SVGID_6_">
					<use xlink:href="#SVGID_5_"  style="overflow:visible;"/>
				</clipPath>
				<g class="st4">
					<path id="path12" class="st5" d="M52.2,2.5H3.7c-3.8,0-6.8,7.8-6.8,12v1.9h62.7L59,14.6C59,14.6,56,2.5,52.2,2.5z"/>
				</g>
			</g>
		</g>
		<g>
			<g>
				<defs>
					<path id="SVGID_7_" d="M39.6,15.8c3.2-2.6,3.7-7.3,1.1-10.5c-2.5-3.2-7.2-3.7-10.4-1.1c-1.3,1.1-2.2,2.5-2.6,4.2
						c-3.3-1.3-7-1.3-10.4,0c-0.9-4-4.9-6.6-8.9-5.7s-6.6,4.9-5.7,8.9c0.4,1.7,1.3,3.1,2.6,4.2C2.1,18.8,0.2,23,0,27.5
						c0,9.3,10.1,1.2,22.5,1.2S45,36.8,45,27.5C44.8,23.1,42.9,18.9,39.6,15.8"/>
				</defs>
				<clipPath id="SVGID_8_">
					<use xlink:href="#SVGID_7_"  style="overflow:visible;"/>
				</clipPath>
				<g class="st6">
					<path id="path10" class="st3" d="M-3.6,15.8h51l-0.2,4.8l-51,0.1L-3.6,15.8z"/>
				</g>
			</g>
		</g>
		<g>
			<g>
				<defs>
					<path id="SVGID_9_" d="M39.6,15.8c3.2-2.6,3.7-7.3,1.1-10.5c-2.5-3.2-7.2-3.7-10.4-1.1c-1.3,1.1-2.2,2.5-2.6,4.2
						c-3.3-1.3-7-1.3-10.4,0c-0.9-4-4.9-6.6-8.9-5.7s-6.6,4.9-5.7,8.9c0.4,1.7,1.3,3.1,2.6,4.2C2.1,18.8,0.2,23,0,27.5
						c0,9.3,10.1,1.2,22.5,1.2S45,36.8,45,27.5C44.8,23.1,42.9,18.9,39.6,15.8"/>
				</defs>
				<clipPath id="SVGID_10_">
					<use xlink:href="#SVGID_9_"  style="overflow:visible;"/>
				</clipPath>
				<g class="st7">
					<path id="path3970" class="st3" d="M-3.2,24.7h62.3v7.8H-3.2V24.7z"/>
				</g>
			</g>
		</g>
		<path id="path30" class="st8" d="M13.7,9.4c0,2.4-2,4.4-4.4,4.4s-4.4-2-4.4-4.4S6.9,5,9.3,5l0,0C11.8,5,13.7,7,13.7,9.4"/>
		<path id="path34" class="st9" d="M11.2,9.4c0,1-0.8,1.9-1.9,1.9s-1.9-0.8-1.9-1.9s0.9-1.9,1.9-1.9l0,0C10.4,7.5,11.2,8.3,11.2,9.4
			"/>
		<path id="path38" class="st8" d="M40,9.4c0,2.4-2,4.4-4.4,4.4s-4.4-2-4.4-4.4s2-4.4,4.4-4.4l0,0C38,5,40,7,40,9.4"/>
		<path id="path42" class="st9" d="M37.5,9.4c0,1-0.8,1.9-1.9,1.9s-1.9-0.8-1.9-1.9s0.8-1.9,1.9-1.9l0,0C36.6,7.5,37.5,8.3,37.5,9.4
			"/>
		<g>
			<g>
				<defs>
					<path id="SVGID_11_" d="M28.7,25c0,0.7-0.6,1.2-1.2,1.2c-0.7,0-1.2-0.6-1.2-1.2s0.6-1.2,1.2-1.2C28.2,23.7,28.7,24.3,28.7,25"
						/>
				</defs>
				<clipPath id="SVGID_12_">
					<use xlink:href="#SVGID_11_"  style="overflow:visible;"/>
				</clipPath>
				<g class="st10">
					<path id="path4000" class="st11" d="M-3.2,17.2h62.3V25H-3.2V17.2z"/>
				</g>
			</g>
		</g>
		<path class="st12" d="M28.7,25c0,0.7-0.6,1.2-1.2,1.2c-0.7,0-1.2-0.6-1.2-1.2s0.6-1.2,1.2-1.2C28.2,23.7,28.7,24.3,28.7,25"/>
		<g>
			<g>
				<defs>
					<path id="SVGID_13_" d="M28.7,25c0,0.7-0.6,1.2-1.2,1.2c-0.7,0-1.2-0.6-1.2-1.2s0.6-1.2,1.2-1.2C28.2,23.7,28.7,24.3,28.7,25"
						/>
				</defs>
				<clipPath id="SVGID_14_">
					<use xlink:href="#SVGID_13_"  style="overflow:visible;"/>
				</clipPath>
				<g class="st13">
					<path id="path4026" class="st12" d="M-3.2,24.7h62.3v7.8H-3.2V24.7z"/>
				</g>
			</g>
		</g>
		<g>
			<g>
				<defs>
					<path id="SVGID_15_" d="M18.7,25c0,0.7-0.6,1.2-1.2,1.2c-0.6,0-1.2-0.6-1.2-1.2s0.6-1.2,1.2-1.2C18.1,23.8,18.7,24.3,18.7,25"
						/>
				</defs>
				<clipPath id="SVGID_16_">
					<use xlink:href="#SVGID_15_"  style="overflow:visible;"/>
				</clipPath>
				<g class="st14">
					<path id="path4014" class="st11" d="M-3.2,17.2h62.3V25H-3.2V17.2z"/>
				</g>
			</g>
		</g>
		<path class="st12" d="M18.7,25c0,0.7-0.6,1.2-1.2,1.2c-0.6,0-1.2-0.6-1.2-1.2s0.6-1.2,1.2-1.2C18.1,23.8,18.7,24.3,18.7,25"/>
		<g>
			<g>
				<defs>
					<path id="SVGID_17_" d="M18.7,25c0,0.7-0.6,1.2-1.2,1.2c-0.6,0-1.2-0.6-1.2-1.2s0.6-1.2,1.2-1.2C18.1,23.8,18.7,24.3,18.7,25"
						/>
				</defs>
				<clipPath id="SVGID_18_">
					<use xlink:href="#SVGID_17_"  style="overflow:visible;"/>
				</clipPath>
				<g class="st15">
					<path id="path4020" class="st12" d="M-3.2,24.7h62.3v7.8H-3.2V24.7z"/>
				</g>
			</g>
		</g>
	</g>
</g>
</svg>
