<?xml version="1.0" encoding="UTF-8" standalone="no"?>
<svg
   xmlns:dc="http://purl.org/dc/elements/1.1/"
   xmlns:cc="http://creativecommons.org/ns#"
   xmlns:rdf="http://www.w3.org/1999/02/22-rdf-syntax-ns#"
   xmlns:svg="http://www.w3.org/2000/svg"
   xmlns="http://www.w3.org/2000/svg"
   xmlns:sodipodi="http://sodipodi.sourceforge.net/DTD/sodipodi-0.dtd"
   xmlns:inkscape="http://www.inkscape.org/namespaces/inkscape"
   viewBox="0 0 45 45"
   style="enable-background:new 0 0 45 45;"
   xml:space="preserve"
   version="1.1"
   id="svg2"
   sodipodi:docname="santafrog.svg"
   inkscape:version="0.92.4 5da689c313, 2019-01-14"
   inkscape:export-filename="/home/stefan/SSDData/git_clones/frog_emojis/svg/santafrog.svg.png"
   inkscape:export-xdpi="273.06668"
   inkscape:export-ydpi="273.06668"><sodipodi:namedview
     pagecolor="#ffffff"
     bordercolor="#666666"
     borderopacity="1"
     objecttolerance="10"
     gridtolerance="10"
     guidetolerance="10"
     inkscape:pageopacity="0"
     inkscape:pageshadow="2"
     inkscape:window-width="1920"
     inkscape:window-height="1054"
     id="namedview26"
     showgrid="false"
     inkscape:zoom="14.833529"
     inkscape:cx="16.367147"
     inkscape:cy="24.382115"
     inkscape:window-x="1600"
     inkscape:window-y="26"
     inkscape:window-maximized="0"
     inkscape:current-layer="svg2" /><metadata
     id="metadata8"><rdf:RDF><cc:Work
         rdf:about=""><dc:format>image/svg+xml</dc:format><dc:type
           rdf:resource="http://purl.org/dc/dcmitype/StillImage" /><dc:title></dc:title></cc:Work></rdf:RDF></metadata><defs
     id="defs6"><clipPath
       id="clipPath16"
       clipPathUnits="userSpaceOnUse"><path
         id="path18"
         d="M 0,36 36,36 36,0 0,0 0,36 Z" /></clipPath></defs><path
     style="fill:#dd2e44;stroke-width:1.12578237"
     inkscape:connector-curvature="0"
     d="m 26.978238,1.2316804e-7 c -0.280201,0 -0.537896,0.007872436832 -0.802343,0.013514346832 C 26.06674,0.01130035 25.962087,1.2316804e-7 25.852932,1.2316804e-7 14.599881,1.2316804e-7 6.7227448,5.1605215 6.7227448,10.136337 c 0,4.975815 7.1715702,4.505038 14.6289672,4.505038 4.998606,0 8.606333,0 11.214791,-0.09686 l 0.03826,0.09686 6.751831,16.893894 h 2.25061 c 0,0 0.38598,-3.440723 1.125305,-7.883817 C 43.857818,16.893894 43.332301,1.2316804e-7 26.978241,1.2316804e-7 Z"
     id="path837" /><g
     transform="matrix(1.0241883,0,0,-1.025057,2.0381206,47.050114)"
     id="g10"><g
       id="g12"><g
         clip-path="url(#clipPath16)"
         id="g14"><g
           transform="translate(36,14)"
           id="g20"><path
             id="path22"
             style="fill:#c6e5b3;fill-opacity:1;fill-rule:nonzero;stroke:none"
             d="m 0,0 c 0,-7.456 -8.059,-12 -18,-12 -9.941,0 -18,4.544 -18,12 0,7.456 8.059,15 18,15 C -8.059,15 0,7.456 0,0"
             inkscape:connector-curvature="0" /></g><g
           transform="translate(31.7549,23.3242)"
           id="g24"><path
             id="path26"
             style="fill:#77b255;fill-opacity:1;fill-rule:nonzero;stroke:none"
             d="m 0,0 c 1.368,1.1 2.245,2.785 2.245,4.676 0,3.313 -2.686,6 -6,6 -2.861,0 -5.25,-2.005 -5.85,-4.685 -1.289,0.483 -2.684,0.758 -4.15,0.758 -1.465,0 -2.861,-0.275 -4.149,-0.758 -0.601,2.68 -2.99,4.685 -5.851,4.685 -3.313,0 -6,-2.687 -6,-6 0,-1.891 0.878,-3.576 2.245,-4.676 -2.645,-2.68 -4.245,-6.009 -4.245,-9.324 0,-7.456 8.059,-1 18,-1 9.942,0 18,-6.456 18,1 C 4.245,-6.009 2.646,-2.68 0,0"
             inkscape:connector-curvature="0" /></g><g
           transform="translate(11,28.5)"
           id="g28"><path
             id="path30"
             style="fill:#ffffff;fill-opacity:1;fill-rule:nonzero;stroke:none"
             d="M 0,0 C 0,-1.933 -1.567,-3.5 -3.5,-3.5 -5.433,-3.5 -7,-1.933 -7,0 -7,1.933 -5.433,3.5 -3.5,3.5 -1.567,3.5 0,1.933 0,0"
             inkscape:connector-curvature="0" /></g><g
           transform="translate(9,28.5)"
           id="g32"><path
             id="path34"
             style="fill:#292f33;fill-opacity:1;fill-rule:nonzero;stroke:none"
             d="M 0,0 C 0,-0.829 -0.671,-1.5 -1.5,-1.5 -2.329,-1.5 -3,-0.829 -3,0 -3,0.829 -2.329,1.5 -1.5,1.5 -0.671,1.5 0,0.829 0,0"
             inkscape:connector-curvature="0" /></g><g
           transform="translate(32,28.5)"
           id="g36"><path
             id="path38"
             style="fill:#ffffff;fill-opacity:1;fill-rule:nonzero;stroke:none"
             d="M 0,0 C 0,-1.933 -1.566,-3.5 -3.5,-3.5 -5.434,-3.5 -7,-1.933 -7,0 -7,1.933 -5.434,3.5 -3.5,3.5 -1.566,3.5 0,1.933 0,0"
             inkscape:connector-curvature="0" /></g><g
           transform="translate(30,28.5)"
           id="g40"><path
             id="path42"
             style="fill:#292f33;fill-opacity:1;fill-rule:nonzero;stroke:none"
             d="M 0,0 C 0,-0.829 -0.672,-1.5 -1.5,-1.5 -2.328,-1.5 -3,-0.829 -3,0 -3,0.829 -2.328,1.5 -1.5,1.5 -0.672,1.5 0,0.829 0,0"
             inkscape:connector-curvature="0" /></g><g
           transform="translate(15,16)"
           id="g44"><path
             id="path46"
             style="fill:#5c913b;fill-opacity:1;fill-rule:nonzero;stroke:none"
             d="m 0,0 c 0,-0.553 -0.448,-1 -1,-1 -0.552,0 -1,0.447 -1,1 0,0.553 0.448,1 1,1 0.552,0 1,-0.447 1,-1"
             inkscape:connector-curvature="0" /></g><g
           transform="translate(23,16)"
           id="g48"><path
             id="path50"
             style="fill:#5c913b;fill-opacity:1;fill-rule:nonzero;stroke:none"
             d="m 0,0 c 0,-0.553 -0.447,-1 -1,-1 -0.553,0 -1,0.447 -1,1 0,0.553 0.447,1 1,1 0.553,0 1,-0.447 1,-1"
             inkscape:connector-curvature="0" /></g></g></g></g><ellipse
     style="fill:#cccccc;stroke-width:1.12578237"
     cx="40.481899"
     cy="32.66153"
     id="circle853"
     rx="4.5012207"
     ry="4.5050387" /><path
     style="fill:#cccccc;stroke-width:1.12578237"
     inkscape:connector-curvature="0"
     d="m 37.105984,13.515116 c 0,1.24339 -1.008273,2.252519 -2.25061,2.252519 l -10.131585,1.418119 -8.499739,0 -9.5013052,-1.418119 C 5.4940188,15.584241 4.4721345,14.758506 4.4721345,13.515116 v -1.12626 c 0,-1.243391 1.0082735,-2.252519 2.2506103,-2.252519 H 34.855374 c 1.242337,0 2.25061,1.009128 2.25061,2.252519 z"
     id="path855"
     sodipodi:nodetypes="ssccsssssss" /></svg>