<?xml version="1.0" encoding="UTF-8" standalone="no"?>
<svg
   xmlns:dc="http://purl.org/dc/elements/1.1/"
   xmlns:cc="http://creativecommons.org/ns#"
   xmlns:rdf="http://www.w3.org/1999/02/22-rdf-syntax-ns#"
   xmlns:svg="http://www.w3.org/2000/svg"
   xmlns="http://www.w3.org/2000/svg"
   xmlns:sodipodi="http://sodipodi.sourceforge.net/DTD/sodipodi-0.dtd"
   xmlns:inkscape="http://www.inkscape.org/namespaces/inkscape"
   viewBox="0 0 45.000126 63.427979"
   xml:space="preserve"
   version="1.1"
   id="svg2"
   sodipodi:docname="easterfrog.svg"
   inkscape:version="0.92.4 5da689c313, 2019-01-14"
   width="45.000126"
   height="63.427979"
   inkscape:export-xdpi="85.333092"
   inkscape:export-ydpi="85.333092"><sodipodi:namedview
     pagecolor="#ffffff"
     bordercolor="#666666"
     borderopacity="1"
     objecttolerance="10"
     gridtolerance="10"
     guidetolerance="10"
     inkscape:pageopacity="0"
     inkscape:pageshadow="2"
     inkscape:window-width="1920"
     inkscape:window-height="1027"
     id="namedview26"
     showgrid="false"
     inkscape:zoom="10.488889"
     inkscape:cx="11.301274"
     inkscape:cy="24.777573"
     inkscape:window-x="1600"
     inkscape:window-y="53"
     inkscape:window-maximized="0"
     inkscape:current-layer="svg2"
     fit-margin-top="0"
     fit-margin-left="0"
     fit-margin-right="0"
     fit-margin-bottom="0" /><metadata
     id="metadata8"><rdf:RDF><cc:Work
         rdf:about=""><dc:format>image/svg+xml</dc:format><dc:type
           rdf:resource="http://purl.org/dc/dcmitype/StillImage" /><dc:title></dc:title></cc:Work></rdf:RDF></metadata><defs
     id="defs6"><clipPath
       id="clipPath16"
       clipPathUnits="userSpaceOnUse"><path
         id="path18"
         d="M 0,36 H 36 V 0 H 0 Z"
         inkscape:connector-curvature="0" /></clipPath><clipPath
       id="clipPath16-3"
       clipPathUnits="userSpaceOnUse"><path
         inkscape:connector-curvature="0"
         id="path18-6"
         d="M 0,36 H 36 V 0 H 0 Z" /></clipPath></defs><path
     inkscape:connector-curvature="0"
     id="path22-6"
     style="fill:#99aab5;fill-opacity:1;fill-rule:nonzero;stroke:none;stroke-width:1.25"
     d="m 42.185369,0.00690125 c -0.58375,-0.2225 -9.9975,4.96374995 -12.46125,11.41375075 -1.4575,3.815 -2.10625,7.57125 -2.065,10.14 -3.294318,-1.339938 -7.733131,-1.41086 -10.445,0 0.0425,-2.56875 -0.6075,-6.325 -2.06375,-10.14 -2.46375,-6.4500008 -11.87875,-11.63625075 -12.4625,-11.41375075 -0.56875,0.2175 5.335,20.05375075 8.78125,26.04625075 -3.02625,3.20375 -5.2825,7.273749 -5.2825,11.232499 0,4.0425 2.04375,6.42375 5.00125,7.425 3.1625,1.0725 6.24875,-1.175 11.24875,-1.175 5,0 8.08625,2.2475 11.25,1.175 2.95625,-1.00125 5,-3.3825 5,-7.425 0,-3.9575 -2.25625,-8.028749 -5.28,-11.231249 3.44375,-5.9925 9.34875,-25.83000075 8.77875,-26.04750075"
     sodipodi:nodetypes="cccccccscscscc" /><path
     id="path22"
     style="fill:#c6e5b3;fill-opacity:1;fill-rule:nonzero;stroke:none;stroke-width:1.25"
     d="m 45.000125,48.42798 c 0,9.32 -10.07375,15 -22.5,15 -12.42625,0 -22.5,-5.68 -22.5,-15 0,-9.32 10.07375,-18.75 22.5,-18.75 12.42625,0 22.5,9.43 22.5,18.75"
     inkscape:connector-curvature="0" /><path
     id="path26"
     style="fill:#77b255;fill-opacity:1;fill-rule:nonzero;stroke:none;stroke-width:1.25"
     d="m 39.69375,36.77273 c 1.71,-1.375 2.80625,-3.48125 2.80625,-5.845 0,-4.14125 -3.3575,-7.5 -7.5,-7.5 -3.57625,0 -6.5625,2.50625 -7.3125,5.85625 -1.61125,-0.60375 -3.355,-0.9475 -5.1875,-0.9475 -1.83125,0 -3.57625,0.34375 -5.18625,0.9475 -0.75125,-3.35 -3.7375,-5.85625 -7.31375,-5.85625 -4.14125,0 -7.5,3.35875 -7.5,7.5 0,2.36375 1.0975,4.47 2.80625,5.845 C 2,40.12273 0,44.28398 0,48.42773 c 0,9.32 10.07375,1.25 22.5,1.25 12.4275,0 22.5,8.07 22.5,-1.25 0,-4.14375 -1.99875,-8.305 -5.30625,-11.655"
     inkscape:connector-curvature="0" /><path
     id="path30"
     style="fill:#ffffff;fill-opacity:1;fill-rule:nonzero;stroke:none;stroke-width:1.25"
     d="m 13.750125,30.30298 c 0,2.41625 -1.95875,4.375 -4.375,4.375 -2.41625,0 -4.375,-1.95875 -4.375,-4.375 0,-2.41625 1.95875,-4.375 4.375,-4.375 2.41625,0 4.375,1.95875 4.375,4.375"
     inkscape:connector-curvature="0" /><path
     id="path34"
     style="fill:#292f33;fill-opacity:1;fill-rule:nonzero;stroke:none;stroke-width:1.25"
     d="m 11.250125,30.30298 c 0,1.03625 -0.83875,1.875 -1.875,1.875 -1.03625,0 -1.875,-0.83875 -1.875,-1.875 0,-1.03625 0.83875,-1.875 1.875,-1.875 1.03625,0 1.875,0.83875 1.875,1.875"
     inkscape:connector-curvature="0" /><path
     id="path38"
     style="fill:#ffffff;fill-opacity:1;fill-rule:nonzero;stroke:none;stroke-width:1.25"
     d="m 40.000125,30.30298 c 0,2.41625 -1.9575,4.375 -4.375,4.375 -2.4175,0 -4.375,-1.95875 -4.375,-4.375 0,-2.41625 1.9575,-4.375 4.375,-4.375 2.4175,0 4.375,1.95875 4.375,4.375"
     inkscape:connector-curvature="0" /><path
     sodipodi:nodetypes="cccccccccc"
     d="m 42.185369,0.00690125 c -0.58375,-0.2225 -9.9975,4.96374995 -12.46125,11.41375075 -1.4575,3.815 -2.10625,7.57125 -2.065,10.14 -3.294318,-1.339938 -7.733131,-1.41086 -10.445,0 0.0425,-2.56875 -0.6075,-6.325 -2.06375,-10.14 -2.46375,-6.4500008 -11.87875,-11.63625075 -12.4625,-11.41375075 -0.56875,0.2175 5.335,20.05375075 8.78125,26.04625075 3.266123,3.894957 6.777882,3.245677 10.73445,3.65305 4.162303,-0.376278 7.925411,0.707184 11.20305,-3.6518 3.44375,-5.9925 9.34875,-25.83000075 8.77875,-26.04750075"
     style="fill:#99aab5;fill-opacity:1;fill-rule:nonzero;stroke:none;stroke-width:1.25"
     id="path1039"
     inkscape:connector-curvature="0" /><path
     id="path42"
     style="fill:#292f33;fill-opacity:1;fill-rule:nonzero;stroke:none;stroke-width:1.25"
     d="m 37.500125,30.30298 c 0,1.03625 -0.84,1.875 -1.875,1.875 -1.035,0 -1.875,-0.83875 -1.875,-1.875 0,-1.03625 0.84,-1.875 1.875,-1.875 1.035,0 1.875,0.83875 1.875,1.875"
     inkscape:connector-curvature="0" /><path
     id="path46"
     style="fill:#5c913b;fill-opacity:1;fill-rule:nonzero;stroke:none;stroke-width:1.25"
     d="m 18.750125,45.92798 c 0,0.69125 -0.56,1.25 -1.25,1.25 -0.69,0 -1.25,-0.55875 -1.25,-1.25 0,-0.69125 0.56,-1.25 1.25,-1.25 0.69,0 1.25,0.55875 1.25,1.25"
     inkscape:connector-curvature="0" /><path
     id="path50"
     style="fill:#5c913b;fill-opacity:1;fill-rule:nonzero;stroke:none;stroke-width:1.25"
     d="m 28.750125,45.92798 c 0,0.69125 -0.55875,1.25 -1.25,1.25 -0.69125,0 -1.25,-0.55875 -1.25,-1.25 0,-0.69125 0.55875,-1.25 1.25,-1.25 0.69125,0 1.25,0.55875 1.25,1.25"
     inkscape:connector-curvature="0" /><path
     inkscape:connector-curvature="0"
     id="path26-9"
     style="fill:#f4abba;fill-opacity:1;fill-rule:nonzero;stroke:none;stroke-width:1.25"
     d="m 15.801744,22.402527 c -0.2225,-1.925 -0.85,-4.4375 -1.82125,-6.98 -1.9175,-5.020001 -7.1075,-9.0562508 -7.56125,-8.8837508 -0.4,0.1525 3.28375,12.6762508 5.97875,18.5800008 1.0825,-1.03125 2.2325,-1.955 3.40375,-2.71625" /><path
     inkscape:connector-curvature="0"
     id="path30-2"
     style="fill:#f4abba;fill-opacity:1;fill-rule:nonzero;stroke:none;stroke-width:1.25"
     d="m 32.474744,25.117277 c 2.695,-5.90375 6.3775,-18.4262508 5.98,-18.5775008 -0.45375,-0.17375 -5.645,3.8637498 -7.5625,8.8825008 -0.97125,2.5425 -1.59875,5.055 -1.82125,6.98 1.17125,0.7625 2.32125,1.685 3.40375,2.715" /><path
     inkscape:connector-curvature="0"
     id="path38-3"
     style="fill:#ffffff;fill-opacity:1;fill-rule:nonzero;stroke:none;stroke-width:0.1;stroke-miterlimit:4;stroke-dasharray:none"
     d="m 26.160639,50.49767 c 0,3.4525 -0.2975,3.75 -3.75,3.75 -3.45125,0 -3.75,-0.2975 -3.75,-3.75 0,-1.25 7.5,-1.25 7.5,0" /></svg>