<?xml version="1.0" encoding="utf-8"?>
<!-- Generator: Adobe Illustrator 25.0.0, SVG Export Plug-In . SVG Version: 6.00 Build 0)  -->
<svg version="1.1"
	 id="svg2" inkscape:export-xdpi="85.333092" inkscape:export-ydpi="85.333092" inkscape:version="0.92.4 5da689c313, 2019-01-14" sodipodi:docname="easterfrog.svg" xmlns:cc="http://creativecommons.org/ns#" xmlns:dc="http://purl.org/dc/elements/1.1/" xmlns:inkscape="http://www.inkscape.org/namespaces/inkscape" xmlns:rdf="http://www.w3.org/1999/02/22-rdf-syntax-ns#" xmlns:sodipodi="http://sodipodi.sourceforge.net/DTD/sodipodi-0.dtd" xmlns:svg="http://www.w3.org/2000/svg"
	 xmlns="http://www.w3.org/2000/svg" xmlns:xlink="http://www.w3.org/1999/xlink" x="0px" y="0px" viewBox="0 0 63.4 63.4"
	 style="enable-background:new 0 0 63.4 63.4;" xml:space="preserve">
<style type="text/css">
	.st0{fill:#99AAB5;}
	.st1{fill:#C6E5B3;}
	.st2{fill:#77B255;}
	.st3{fill:#FFFFFF;}
	.st4{fill:#292F33;}
	.st5{fill:#5C913B;}
	.st6{fill:#F4ABBA;}
</style>
<g>
	<path id="path22-6" inkscape:connector-curvature="0" sodipodi:nodetypes="cccccccscscscc" class="st0" d="M51.4,0
		c-0.6-0.2-10,5-12.5,11.4c-1.5,3.8-2.1,7.6-2.1,10.1c-3.3-1.3-7.7-1.4-10.4,0c0-2.6-0.6-6.3-2.1-10.1C21.9,5,12.5-0.2,11.9,0
		c-0.6,0.2,5.3,20.1,8.8,26c-3,3.2-5.3,7.3-5.3,11.2c0,4,2,6.4,5,7.4c3.2,1.1,6.2-1.2,11.2-1.2s8.1,2.2,11.2,1.2c3-1,5-3.4,5-7.4
		c0-4-2.3-8-5.3-11.2C46.1,20.1,52,0.2,51.4,0"/>
	<path id="path22" inkscape:connector-curvature="0" class="st1" d="M54.2,48.4c0,9.3-10.1,15-22.5,15s-22.5-5.7-22.5-15
		s10.1-18.8,22.5-18.8S54.2,39.1,54.2,48.4"/>
	<path id="path26" inkscape:connector-curvature="0" class="st2" d="M48.9,36.8c1.7-1.4,2.8-3.5,2.8-5.8c0-4.1-3.4-7.5-7.5-7.5
		c-3.6,0-6.6,2.5-7.3,5.9c-1.6-0.6-3.4-0.9-5.2-0.9c-1.8,0-3.6,0.3-5.2,0.9c-0.8-3.4-3.7-5.9-7.3-5.9c-4.1,0-7.5,3.4-7.5,7.5
		c0,2.4,1.1,4.5,2.8,5.8c-3.3,3.3-5.3,7.5-5.3,11.7c0,9.3,10.1,1.2,22.5,1.2c12.4,0,22.5,8.1,22.5-1.2
		C54.2,44.3,52.2,40.1,48.9,36.8"/>
	<path id="path30" inkscape:connector-curvature="0" class="st3" d="M23,30.3c0,2.4-2,4.4-4.4,4.4c-2.4,0-4.4-2-4.4-4.4
		s2-4.4,4.4-4.4C21,25.9,23,27.9,23,30.3"/>
	<path id="path34" inkscape:connector-curvature="0" class="st4" d="M20.5,30.3c0,1-0.8,1.9-1.9,1.9c-1,0-1.9-0.8-1.9-1.9
		s0.8-1.9,1.9-1.9C19.6,28.4,20.5,29.3,20.5,30.3"/>
	<path id="path38" inkscape:connector-curvature="0" class="st3" d="M49.2,30.3c0,2.4-2,4.4-4.4,4.4s-4.4-2-4.4-4.4s2-4.4,4.4-4.4
		S49.2,27.9,49.2,30.3"/>
	<path id="path1039" inkscape:connector-curvature="0" sodipodi:nodetypes="cccccccccc" class="st0" d="M51.4,0
		c-0.6-0.2-10,5-12.5,11.4c-1.5,3.8-2.1,7.6-2.1,10.1c-3.3-1.3-7.7-1.4-10.4,0c0-2.6-0.6-6.3-2.1-10.1C21.9,5,12.5-0.2,11.9,0
		c-0.6,0.2,5.3,20.1,8.8,26c3.3,3.9,6.8,3.2,10.7,3.7c4.2-0.4,7.9,0.7,11.2-3.7C46.1,20.1,52,0.2,51.4,0"/>
	<path id="path42" inkscape:connector-curvature="0" class="st4" d="M46.7,30.3c0,1-0.8,1.9-1.9,1.9S43,31.3,43,30.3
		s0.8-1.9,1.9-1.9S46.7,29.3,46.7,30.3"/>
	<path id="path46" inkscape:connector-curvature="0" class="st5" d="M28,45.9c0,0.7-0.6,1.2-1.2,1.2s-1.2-0.6-1.2-1.2
		s0.6-1.2,1.2-1.2S28,45.2,28,45.9"/>
	<path id="path50" inkscape:connector-curvature="0" class="st5" d="M38,45.9c0,0.7-0.6,1.2-1.2,1.2s-1.2-0.6-1.2-1.2
		s0.6-1.2,1.2-1.2S38,45.2,38,45.9"/>
	<path id="path26-9" inkscape:connector-curvature="0" class="st6" d="M25,22.4c-0.2-1.9-0.9-4.4-1.8-7c-1.9-5-7.1-9.1-7.6-8.9
		c-0.4,0.2,3.3,12.7,6,18.6C22.7,24.1,23.8,23.2,25,22.4"/>
	<path id="path30-2" inkscape:connector-curvature="0" class="st6" d="M41.7,25.1c2.7-5.9,6.4-18.4,6-18.6c-0.5-0.2-5.6,3.9-7.6,8.9
		c-1,2.5-1.6,5.1-1.8,7C39.5,23.2,40.6,24.1,41.7,25.1"/>
	<path id="path38-3" inkscape:connector-curvature="0" class="st3" d="M35.4,50.5c0,3.5-0.3,3.8-3.8,3.8c-3.5,0-3.8-0.3-3.8-3.8
		C27.9,49.2,35.4,49.2,35.4,50.5"/>
</g>
</svg>
