<svg xmlns="http://www.w3.org/2000/svg" viewBox="0 0 36 36"><defs><style>.cls-1{fill:#77b255;}.cls-2{fill:none;}</style></defs><g id="Ebene_2" data-name="Ebene 2"><g id="Ebene_1-2" data-name="Ebene 1"><path class="cls-1" d="M15.86,31s2.39-.21,3.06-1.79a1.69,1.69,0,0,0-.62-2.31A2.79,2.79,0,0,0,20.92,25a2.2,2.2,0,0,0-1-2.75,3.19,3.19,0,0,0,2.41-2.29A3,3,0,0,0,21.22,17h12.2A2.44,2.44,0,0,0,36,14.46,2.39,2.39,0,0,0,33.42,12H12.92c-1,0-1-1,0-1h2.67a9.42,9.42,0,0,0,6.79-2.75,3.09,3.09,0,0,0,.74-2.82c-.42-2-1.92-1.53-3.2-1A42.13,42.13,0,0,1,10.38,7a12.06,12.06,0,0,0,1.54,24Z"/><rect class="cls-2" width="36" height="36"/></g></g></svg>