<?xml version="1.0" encoding="utf-8"?>
<!-- Generator: Adobe Illustrator 25.0.0, SVG Export Plug-In . SVG Version: 6.00 Build 0)  -->
<svg version="1.1" id="Ebene_1" xmlns="http://www.w3.org/2000/svg" xmlns:xlink="http://www.w3.org/1999/xlink" x="0px" y="0px"
	 viewBox="0 0 36 36" style="enable-background:new 0 0 36 36;" xml:space="preserve">
<style type="text/css">
	.st0{fill:#77B255;}
	.st1{fill:none;}
</style>
<g id="Ebene_2_1_">
	<g id="Ebene_1-2">
		<path class="st0" d="M20.1,31c0,0-2.4-0.2-3.1-1.8c-0.5-0.8-0.2-1.8,0.6-2.3c-1.2,0-2.2-0.8-2.6-1.9c-0.4-1,0-2.2,1-2.8
			C14.9,22,14,21.1,13.7,20c-0.2-1.1,0.2-2.3,1.1-3H2.6c-1.3,0.1-2.5-0.9-2.6-2.3c0-0.1,0-0.2,0-0.2C0,13.1,1,12,2.3,12
			c0.1,0,0.2,0,0.3,0h20.5c1,0,1-1,0-1h-2.7c-2.5,0-5-1-6.8-2.8c-0.7-0.8-1-1.8-0.7-2.8c0.4-2,1.9-1.5,3.2-1
			c3.1,1.2,6.3,2.1,9.5,2.6c6.6,0.9,11.2,7,10.3,13.6C35,26.5,30,30.9,24.1,31H20.1z"/>
		<rect y="0" class="st1" width="36" height="36"/>
	</g>
</g>
</svg>
