<svg xmlns="http://www.w3.org/2000/svg" viewBox="0 0 36 36"><defs><style>.cls-1{fill:#77b255;}.cls-2{fill:none;}</style></defs><g id="Ebene_2" data-name="Ebene 2"><g id="Ebene_1-2" data-name="Ebene 1"><path class="cls-1" d="M20.15,31s-2.44-.17-3.07-1.79a1.72,1.72,0,0,1,.62-2.31A2.8,2.8,0,0,1,15.08,25a2.2,2.2,0,0,1,1-2.75,3.2,3.2,0,0,1-2.42-2.29A3,3,0,0,1,14.78,17H2.58A2.44,2.44,0,0,1,0,14.46,2.39,2.39,0,0,1,2.58,12h20.5c1,0,1-1,0-1H20.41a9.42,9.42,0,0,1-6.79-2.75,3.09,3.09,0,0,1-.74-2.82c.42-2,1.92-1.53,3.2-1A42.26,42.26,0,0,0,25.62,7a12.06,12.06,0,0,1-1.54,24Z"/><rect class="cls-2" width="36" height="36"/></g></g></svg>