<?xml version="1.0" encoding="UTF-8" standalone="no"?>
<svg
   xmlns:dc="http://purl.org/dc/elements/1.1/"
   xmlns:cc="http://creativecommons.org/ns#"
   xmlns:rdf="http://www.w3.org/1999/02/22-rdf-syntax-ns#"
   xmlns:svg="http://www.w3.org/2000/svg"
   xmlns="http://www.w3.org/2000/svg"
   xmlns:sodipodi="http://sodipodi.sourceforge.net/DTD/sodipodi-0.dtd"
   xmlns:inkscape="http://www.inkscape.org/namespaces/inkscape"
   viewBox="0 0 45 45"
   style="enable-background:new 0 0 45 45;"
   xml:space="preserve"
   version="1.1"
   id="svg2"
   sodipodi:docname="frog_2b.svg"
   inkscape:version="0.92.4 5da689c313, 2019-01-14"><sodipodi:namedview
     pagecolor="#ffffff"
     bordercolor="#666666"
     borderopacity="1"
     objecttolerance="10"
     gridtolerance="10"
     guidetolerance="10"
     inkscape:pageopacity="0"
     inkscape:pageshadow="2"
     inkscape:window-width="1920"
     inkscape:window-height="1030"
     id="namedview1662"
     showgrid="false"
     inkscape:zoom="11.015152"
     inkscape:cx="-9.3484807"
     inkscape:cy="11.142443"
     inkscape:window-x="1600"
     inkscape:window-y="50"
     inkscape:window-maximized="0"
     inkscape:current-layer="g890"
     inkscape:pagecheckerboard="true"
     borderlayer="false" /><metadata
     id="metadata8"><rdf:RDF><cc:Work
         rdf:about=""><dc:format>image/svg+xml</dc:format><dc:type
           rdf:resource="http://purl.org/dc/dcmitype/StillImage" /><dc:title></dc:title></cc:Work></rdf:RDF></metadata><defs
     id="defs6"><clipPath
       id="clipPath16"
       clipPathUnits="userSpaceOnUse"><path
         id="path18"
         d="M 0,36 36,36 36,0 0,0 0,36 Z" /></clipPath></defs><g
     id="g20"
     transform="matrix(0.87402135,0,0,-0.87402135,37.579982,31.680216)"
     inkscape:export-xdpi="1706.67"
     inkscape:export-ydpi="1706.67"><path
       inkscape:connector-curvature="0"
       d="m 0,0 c 0,-7.456 -8.059,-12 -18,-12 -9.941,0 -18,4.544 -18,12 0,7.456 8.059,15 18,15 C -8.059,15 0,7.456 0,0"
       style="fill:#c6e5b3;fill-opacity:1;fill-rule:nonzero;stroke:none"
       id="path22" /></g><g
     id="g24"
     transform="matrix(0.87402135,0,0,-0.87402135,33.869674,23.530666)"
     inkscape:export-xdpi="1706.67"
     inkscape:export-ydpi="1706.67"><path
       inkscape:connector-curvature="0"
       d="m 0,0 c 1.368,1.1 2.245,2.785 2.245,4.676 0,3.313 -2.686,6 -6,6 -2.861,0 -5.25,-2.005 -5.85,-4.685 -1.289,0.483 -2.684,0.758 -4.15,0.758 -1.465,0 -2.861,-0.275 -4.149,-0.758 -0.601,2.68 -2.99,4.685 -5.851,4.685 -3.313,0 -6,-2.687 -6,-6 0,-1.891 0.878,-3.576 2.245,-4.676 -2.645,-2.68 -4.245,-6.009 -4.245,-9.324 0,-7.456 8.059,-1 18,-1 9.942,0 18,-6.456 18,1 C 4.245,-6.009 2.646,-2.68 0,0"
       style="fill:#77b255;fill-opacity:1;fill-rule:nonzero;stroke:none"
       id="path26" /></g><g
     id="g44"
     transform="matrix(0.87402135,0,0,-0.87402135,19.225534,29.932173)"
     inkscape:export-xdpi="1706.67"
     inkscape:export-ydpi="1706.67"><path
       inkscape:connector-curvature="0"
       d="m 0,0 c 0,-0.553 -0.448,-1 -1,-1 -0.552,0 -1,0.447 -1,1 0,0.553 0.448,1 1,1 0.552,0 1,-0.447 1,-1"
       style="fill:#5c913b;fill-opacity:1;fill-rule:nonzero;stroke:none"
       id="path46" /></g><path
     style="fill:#1a1a1a;fill-opacity:1;stroke:none;stroke-width:1px;stroke-linecap:butt;stroke-linejoin:miter;stroke-opacity:1"
     d="M 8.03125,33.3125 C 11.529949,27.976714 19.75,22.5 19.75,22.5 L 35.96875,22.3125 35.6875,11.6875 11.0625,9.3125 3,27 Z"
     id="path837"
     inkscape:connector-curvature="0"
     sodipodi:nodetypes="ccccccc"
     inkscape:export-xdpi="1706.67"
     inkscape:export-ydpi="1706.67" /><g
     id="g48"
     transform="matrix(0.87402135,0,0,-0.87402135,26.217704,29.932173)"
     inkscape:export-xdpi="1706.67"
     inkscape:export-ydpi="1706.67"><path
       inkscape:connector-curvature="0"
       d="m 0,0 c 0,-0.553 -0.447,-1 -1,-1 -0.553,0 -1,0.447 -1,1 0,0.553 0.447,1 1,1 0.553,0 1,-0.447 1,-1"
       style="fill:#5c913b;fill-opacity:1;fill-rule:nonzero;stroke:none"
       id="path50" /></g><g
     id="g900"
     inkscape:export-xdpi="1706.67"
     inkscape:export-ydpi="1706.67"><g
       inkscape:export-ydpi="1706.67"
       inkscape:export-xdpi="1706.67"
       transform="matrix(0.87402135,0,0,-0.87402135,15.729448,19.006907)"
       id="g28"><path
         id="path30"
         style="fill:#ffffff;fill-opacity:1;fill-rule:nonzero;stroke:none"
         d="M 0,0 C 0,-1.933 -1.567,-3.5 -3.5,-3.5 -5.433,-3.5 -7,-1.933 -7,0 -7,1.933 -5.433,3.5 -3.5,3.5 -1.567,3.5 0,1.933 0,0"
         inkscape:connector-curvature="0" /></g><g
       inkscape:export-ydpi="1706.67"
       inkscape:export-xdpi="1706.67"
       transform="matrix(0.87402135,0,0,-0.87402135,13.981406,19.006907)"
       id="g32"><path
         id="path34"
         style="fill:#292f33;fill-opacity:1;fill-rule:nonzero;stroke:none"
         d="M 0,0 C 0,-0.829 -0.671,-1.5 -1.5,-1.5 -2.329,-1.5 -3,-0.829 -3,0 -3,0.829 -2.329,1.5 -1.5,1.5 -0.671,1.5 0,0.829 0,0"
         inkscape:connector-curvature="0" /></g><g
       inkscape:export-ydpi="1706.67"
       inkscape:export-xdpi="1706.67"
       transform="matrix(0.87402135,0,0,-0.87402135,34.083897,19.006907)"
       id="g36"><path
         id="path38"
         style="fill:#ffffff;fill-opacity:1;fill-rule:nonzero;stroke:none"
         d="M 0,0 C 0,-1.933 -1.566,-3.5 -3.5,-3.5 -5.434,-3.5 -7,-1.933 -7,0 -7,1.933 -5.434,3.5 -3.5,3.5 -1.566,3.5 0,1.933 0,0"
         inkscape:connector-curvature="0" /></g><g
       inkscape:export-ydpi="1706.67"
       inkscape:export-xdpi="1706.67"
       transform="matrix(0.87402135,0,0,-0.87402135,32.335854,19.006907)"
       id="g40"><path
         id="path42"
         style="fill:#292f33;fill-opacity:1;fill-rule:nonzero;stroke:none"
         d="M 0,0 C 0,-0.829 -0.672,-1.5 -1.5,-1.5 -2.328,-1.5 -3,-0.829 -3,0 -3,0.829 -2.328,1.5 -1.5,1.5 -0.672,1.5 0,0.829 0,0"
         inkscape:connector-curvature="0" /></g></g><g
     id="g890"
     transform="translate(-30.375)"
     inkscape:export-xdpi="1706.67"
     inkscape:export-ydpi="1706.67"><path
       inkscape:export-ydpi="1706.67"
       inkscape:export-xdpi="1706.67"
       sodipodi:nodetypes="csccccssccssccccsscccsscccssccscccccccccssccscccccccsccccccccccsccsccccccccccsccccscscscscccsscccccscscccccccssccccsccccccsccccccccscccccccccccccccccccccccccscssccccccccccsccssscc"
       inkscape:connector-curvature="0"
       id="path150"
       d="M 36.024046,42.233643 C 33.003895,37.803745 31.339083,33.763378 30.668237,29.235521 30.460972,27.836587 30.426889,26.559592 30.375,24.699263 c 0,-14.128494 7.926614,-22.1335926 22.5,-22.1335926 15.601882,0 22.5,11.1828486 22.5,21.8834966 -0.0013,3.067719 -0.08007,4.059966 -0.477068,6.015916 -0.258471,1.273453 -0.476756,2.086516 -0.894439,3.331619 -0.979431,2.91966 -2.469397,5.771533 -4.609728,8.82327 -0.203436,0.290064 -0.271092,0.351566 -0.400948,0.364487 L 68.836596,43 69.06232,42.585665 c 0.918473,-1.685929 1.655273,-3.373651 2.245848,-5.144362 0.286163,-0.857996 0.693119,-2.445187 0.819446,-3.195962 0.05536,-0.329002 0.123996,-0.732778 0.152529,-0.897281 0.05534,-0.319046 0.147445,-1.1656 0.148881,-1.368355 0.0013,-0.18478 -0.06227,-0.0911 -0.391319,0.576581 -1.203245,2.441531 -2.709334,4.606733 -4.950923,7.117606 -0.315842,0.353783 -0.681123,0.768001 -0.811735,0.920481 -0.424494,0.495565 -0.496885,0.455304 -0.196674,-0.109383 1.008216,-1.896425 1.858382,-4.476878 2.159124,-6.55345 0.06224,-0.42974 0.03543,-0.555775 -0.08136,-0.382582 -0.55171,0.818122 -2.44217,3.302647 -3.536904,4.648356 -0.96772,1.189577 -2.342685,2.747759 -3.51773,3.986478 -0.589395,0.621333 -0.797154,0.810047 -0.891801,0.810047 -0.03089,-0.115912 0.01051,-0.146574 0.0169,-0.236783 1.949742,-2.307484 3.378452,-5.66989 4.292665,-7.439444 -0.02924,0.05454 -0.09396,0.09918 -0.143794,0.09918 -0.08171,0 -0.185787,0.0663 -0.679866,0.433115 -0.221577,0.164506 -0.507977,0.314322 -0.53992,0.282434 -0.04671,-0.04662 0.06239,-0.277366 0.192553,-0.407304 0.06747,-0.06735 0.122657,-0.141119 0.122657,-0.163942 0,-0.02282 0.09869,-0.193797 0.219319,-0.379943 0.120627,-0.186146 0.314615,-0.517717 0.431085,-0.736826 0.11647,-0.219111 0.238391,-0.432029 0.270934,-0.473154 0.115712,-0.146225 0.867668,-1.725167 0.973343,-2.043809 0.0591,-0.17821 0.128012,-0.361601 0.153132,-0.407535 0.06536,-0.119496 0.435193,-1.270054 0.493926,-1.536575 0.07311,-0.331754 0.240986,-1.329126 0.278179,-1.652691 0.04725,-0.287827 0.116821,-0.6382 0.199683,-0.969253 0.01311,-0.216656 0.03763,-0.520735 0.05448,-0.675731 0.02946,-0.271172 -0.02594,-0.490849 -0.123793,-0.490849 -0.03744,0 -0.403563,0.569943 -0.403563,0.628214 0,0.01259 -0.09037,0.182066 -0.200803,0.376626 -0.110435,0.194558 -0.238416,0.468663 -0.284388,0.60912 -0.148472,0.453621 -1.153774,2.199488 -1.266505,2.199488 -0.08529,0 -0.06682,-0.175692 0.05688,-1.162352 0.106982,-0.618718 0.133039,-1.24055 0.176839,-1.66141 0.01305,-0.419665 -0.13051,-2.477241 -0.118225,-2.532717 -0.04605,-0.37733 -0.265394,-2.205007 -0.265394,-2.205007 0,0 -0.145604,-1.360667 -0.157833,-1.703061 -0.06244,-0.188858 -0.0104,-0.319308 -0.332471,-0.566061 -0.793289,-0.607866 -1.59419,-1.228275 -1.782018,-1.396712 -0.08479,-0.07604 -0.285652,-0.250409 -0.446362,-0.387494 -0.160708,-0.137084 -0.364308,-0.319109 -0.452442,-0.404498 -0.08813,-0.08539 -0.263269,-0.229109 -0.389182,-0.319377 -0.125913,-0.09027 -0.241284,-0.19986 -0.256379,-0.243538 -0.0151,-0.04368 -0.110993,-0.141115 -0.213106,-0.216526 -0.102111,-0.0754 -0.31937,-0.249259 -0.482795,-0.386329 -0.222347,-0.170697 -0.386554,-0.298371 -0.582743,-0.449805 -0.02104,-0.01435 -0.291546,-0.272332 -0.601127,-0.573264 -0.407415,-0.396035 -0.567657,-0.523873 -0.580192,-0.462871 -0.0095,0.04636 0.01544,0.136083 0.05547,0.199396 0.04004,0.06331 0.08853,0.16765 0.107779,0.231857 0.01925,0.0642 0.143026,0.294307 0.275071,0.511334 0.154075,0.253237 0.13312,0.223085 0.214105,0.493754 0.05804,0.195624 0.230832,0.58434 0.947272,1.669715 0.234534,0.355311 0.320646,0.523414 0.268119,0.523414 -0.0659,0 -0.993578,-0.52021 -1.085257,-0.579594 -0.219178,-0.107524 -0.391895,-0.287468 -0.569092,-0.417448 -0.137441,-0.10136 -0.382186,-0.31118 -0.543878,-0.466272 -0.240295,-0.230484 -0.307163,-0.271066 -0.366139,-0.222206 -0.07183,0.05951 -0.07072,0.120255 0.01206,0.663623 0.01671,0.109671 0.04989,0.189572 0.07373,0.299094 0.07626,0.637506 0.192784,1.168154 0.281624,1.744715 0.01138,0.156206 0.117526,0.672811 0.194616,0.94713 0.03852,0.137086 0.106838,0.383838 0.151796,0.548339 0.219624,0.803484 0.44585,1.498898 0.74596,2.293053 0.06216,0.164502 0.141315,0.377607 0.175889,0.473566 0.132642,0.368148 0.56573,1.3416 0.801158,1.800769 0.271947,0.530393 0.297778,0.623157 0.151812,0.545174 -0.149257,-0.07973 -1.556767,-1.316318 -2.152923,-1.891463 -0.151054,-0.145733 -0.35891,-0.321804 -0.461904,-0.391273 -0.102997,-0.06947 -0.187258,-0.143175 -0.187258,-0.163793 0,-0.02062 -0.09527,-0.129797 -0.211712,-0.24262 -0.212269,-0.205672 -0.387515,-0.266557 -0.387515,-0.134635 0,0.136616 0.539049,1.471895 0.779602,1.931153 0.03811,0.07277 0.06931,0.156752 0.06931,0.186623 0,0.02986 0.101127,0.268903 0.22471,0.531183 0.12359,0.262279 0.22471,0.488076 0.22471,0.50177 0,0.01369 0.08752,0.208626 0.194516,0.433181 0.106982,0.224556 0.230214,0.494285 0.273846,0.599397 0.04364,0.105123 0.143312,0.250922 0.221506,0.324019 0.0782,0.07309 0.247089,0.364676 0.375316,0.64795 0.229691,0.507423 0.273217,0.656406 0.191767,0.656406 -0.08258,0 -0.516564,-0.316057 -0.777605,-0.566299 C 57.960836,28.87725 57.7142,28.663269 57.559752,28.54265 57.37504,28.378797 57.352435,28.338561 57.278937,28.251478 c -1.153103,-1.262928 -2.50725,-2.440251 -3.597588,-3.701762 -0.275855,-0.287878 -0.539108,-0.585103 -0.585008,-0.660499 -0.0459,-0.07539 -0.09886,-0.137086 -0.117676,-0.137086 -0.01883,0 -0.152726,-0.145807 -0.297566,-0.324018 -0.144842,-0.178209 -0.293836,-0.324018 -0.331099,-0.324018 -0.115945,0 -0.125591,0.131861 -0.02426,0.331648 0.05349,0.105476 0.114096,0.269542 0.134672,0.364601 0.02058,0.09506 0.05373,0.20722 0.07368,0.249246 0.01994,0.04202 0.0983,0.255865 0.174114,0.475201 0.182263,0.499395 0.373014,1.0384 0.546901,1.512703 0.03898,0.107358 0.105255,0.222041 0.147285,0.33171 0.04204,0.109671 0.144962,0.364352 0.228741,0.565965 0.08378,0.201614 0.152329,0.375462 0.152329,0.38633 0,0.202318 -1.362891,-1.054118 -2.195543,-2.024049 -0.223599,-0.260461 -0.448483,-0.519749 -0.499747,-0.576195 -0.07824,-0.08615 -0.43539,-0.532724 -0.854796,-1.068822 -0.307886,-0.393539 -1.26821,-1.770773 -1.418514,-2.034329 -0.363323,-0.602258 -0.760768,-1.251112 -1.109067,-1.819139 -0.187783,-0.326417 -0.420702,-0.813174 -0.463935,-0.901814 -0.0119,-0.02439 -0.0884,-0.197901 -0.196463,-0.379469 -0.108056,-0.181569 -0.172148,-0.339774 -0.228893,-0.476465 -0.327492,-0.692841 -0.618231,-1.30341 -0.927373,-1.953151 -0.112345,-0.267443 -0.233466,-0.575984 -0.269186,-0.685651 -0.03572,-0.109671 -0.126424,-0.351913 -0.201563,-0.538323 -0.156466,-0.38817 -0.239687,-0.41461 -0.398597,-0.126639 -0.05497,0.09962 -0.204078,0.368509 -0.33134,0.59752 -0.127261,0.229012 -0.278355,0.50968 -0.335763,0.623709 -0.05741,0.11403 -0.189231,0.306069 -0.29294,0.426755 -0.103706,0.120687 -0.276724,0.408735 -0.384479,0.640109 -0.107757,0.231372 -0.315613,0.669493 -0.461905,0.973601 -0.146291,0.304107 -0.265984,0.569719 -0.265984,0.590247 -0.163572,0.394492 -0.381918,0.968898 -0.499364,1.072165 -0.06979,-0.17105 -0.03843,-0.588573 -0.03829,-0.739451 3.48e-4,-0.332501 0.07268,-0.948736 0.113197,-1.401116 0.09867,-1.101572 0.09781,-1.146526 -0.02202,-1.146526 -0.0533,0 -0.113669,0.02705 -0.134135,0.06011 -0.05894,0.09522 -0.320172,0.837291 -0.391214,1.111346 -0.03553,0.137084 -0.08802,0.305325 -0.116639,0.373868 -0.151976,0.36404 -0.366581,1.260707 -0.387749,1.620092 -0.0064,0.109671 -0.02336,0.233043 -0.03756,0.274169 -0.03014,0.08727 -0.08067,0.792064 -0.112167,1.56435 -0.01279,0.313847 -0.06584,0.712988 -0.125852,0.947131 -0.11541,0.450246 -0.308026,1.267755 -0.424212,1.800456 -0.04187,0.191918 -0.0991,0.595695 -0.127195,0.897282 -0.0281,0.301585 -0.07481,0.604419 -0.103794,0.67296 -0.06087,0.143951 -0.109295,3.923591 -0.05136,4.008823 0.02014,0.02964 0.02536,0.199679 0.01158,0.377888 l -0.02505,0.324019 -0.137323,-0.243061 c -0.07553,-0.133684 -0.137472,-0.25706 -0.137655,-0.274169 -1.99e-4,-0.01711 -0.08856,-0.244213 -0.19641,-0.504674 -0.296474,-0.716038 -0.426482,-0.609811 -0.280484,0.229175 0.04248,0.244083 0.10085,0.578378 0.129713,0.74288 0.183628,0.841111 0.424542,1.719112 0.63346,2.442601 0.05567,0.137084 0.165283,0.417484 0.243578,0.623111 0.166005,0.435986 0.650144,1.395661 0.90439,1.792714 0.46617,0.728008 0.762854,1.158101 1.061564,1.538912 0.551142,0.702623 0.957833,1.127714 1.118527,1.279405 0.096,0.07929 0.164773,0.135255 0.277721,0.249246 0.09566,0.109671 0.567266,0.597565 1.048029,1.084216 0.542391,0.549036 0.840672,0.884818 0.785996,0.884818 -0.126417,0 -0.952576,-0.35703 -1.69145,-0.730972 -1.19227,-0.603412 -2.342549,-1.35862 -3.321063,-2.18043 -0.280604,-0.235667 -0.536894,-0.428485 -0.56953,-0.428485 -0.06764,0 -0.02919,1.177801 0.05696,1.744714 0.02708,0.17821 0.07337,0.492258 0.102864,0.697885 0.138312,0.964302 0.386628,2.010548 0.711843,2.99925 l 0.210427,0.639726 c 0,0 0.235369,0.493094 -0.475569,-0.003 -1.955617,-1.998011 -1.860959,-4.581456 -2.810878,-6.295491 -0.161777,-0.239633 -0.282118,-0.373506 -0.310388,-0.345286 -0.06312,0.06302 0.266805,1.824167 0.501069,2.674669 0.05949,0.215978 0.09471,0.406118 0.07826,0.422534 -0.06213,0.06202 -1.593054,-1.631326 -2.520177,-2.787534 -0.866737,-1.080907 -1.349484,-1.776759 -1.986227,-2.863041 -0.176781,-0.301586 -0.33039,-0.557684 -0.341355,-0.56911 -0.06843,-0.0713 -0.06029,0.107027 0.03077,0.674225 0.431849,2.689713 1.372958,5.435741 2.823065,8.237326 0.232086,0.448385 0.421973,0.824123 0.421973,0.834972 0,0.01085 -0.06636,0.01973 -0.147474,0.01973 -0.134237,0 -0.193991,-0.06823 -0.66575,-0.760197 z"
       style="display:inline;fill:#e5e5e5;stroke-width:0.04989227;enable-background:new" /><path
       inkscape:export-ydpi="1706.67"
       inkscape:export-xdpi="1706.67"
       inkscape:connector-curvature="0"
       id="path2287"
       d="m 52.650095,6.077739 c -7.815908,0 -19.923192,3.682931 -19.923192,16.182398 3.257504,-12.227745 16.407119,-13.597019 19.923192,-13.597019 3.516074,0 16.66354,1.369274 19.921044,13.597019 0,-12.499467 -12.105135,-16.182398 -19.921044,-16.182398 z"
       style="fill:#1a1a1a;fill-opacity:1;stroke:none;stroke-width:1.10358572px;stroke-linecap:butt;stroke-linejoin:miter;stroke-opacity:1" /></g></svg>