<?xml version="1.0" encoding="utf-8"?>
<!-- Generator: Adobe Illustrator 25.0.0, SVG Export Plug-In . SVG Version: 6.00 Build 0)  -->
<svg version="1.1" id="Ebene_1" xmlns="http://www.w3.org/2000/svg" xmlns:xlink="http://www.w3.org/1999/xlink" x="0px" y="0px"
	 viewBox="0 0 36 36" style="enable-background:new 0 0 36 36;" xml:space="preserve">
<style type="text/css">
	.st0{fill:#CCD6DD;}
	.st1{fill:#C6E5B3;}
	.st2{fill:#77B255;}
	.st3{fill:#F18F26;}
	.st4{fill:#FDCB58;}
	.st5{fill:#FFFFFF;}
	.st6{fill:#292F33;}
	.st7{fill:none;}
</style>
<g id="Ebene_2_1_">
	<g id="Ebene_1-2">
		<path class="st0" d="M24.2,9.7L29.9,4L32,6.2l-5.7,5.7L24.2,9.7z"/>
		<path class="st1" d="M21.5,33.8C15,38,6.4,36.1,2.2,29.6C-0.9,24.8-0.7,18.6,2.5,14c-0.9,3,5.8,4.3,10.6,9.1
			C17.5,27.6,19,33.6,21.5,33.8z"/>
		<path class="st2" d="M28,22c0,1-0.1,2-0.3,3c-0.8,3.6-3,6.8-6.1,8.8c-2.5-0.2-4-6.2-8.4-10.7C8.3,18.3,1.6,17,2.5,14
			c0.7-1,1.5-1.8,2.4-2.6c1.8-1.6,4-2.6,6.3-3.1C12.1,8.1,13.1,8,14,8c5.2,0,10.1,2.9,12.5,7.6l0,0C27.5,17.6,28,19.8,28,22z"/>
		<path class="st2" d="M19,11.3l5.7-5.7l5.7,5.7L24.7,17L19,11.3z"/>
		<circle class="st3" cx="32" cy="4" r="4"/>
		<circle class="st4" cx="32" cy="4" r="2"/>
		<circle class="st2" cx="15.6" cy="7.5" r="4.9"/>
		<circle class="st5" cx="15.6" cy="6.9" r="2.9"/>
		<circle class="st6" cx="15.6" cy="6.9" r="1.2"/>
		<circle class="st2" cx="28.5" cy="20.4" r="4.9"/>
		<circle class="st5" cx="29.1" cy="20.4" r="2.9"/>
		<circle class="st6" cx="29.1" cy="20.4" r="1.2"/>
		<rect y="0" class="st7" width="36" height="36"/>
	</g>
</g>
</svg>
