<svg xmlns="http://www.w3.org/2000/svg" viewBox="0 0 35.95 35.95"><defs><style>.cls-1{fill:#5c913b;}.cls-2{fill:#fa743e;}.cls-3{fill:#77b255;}.cls-4{fill:none;}</style></defs><g id="Ebene_2" data-name="Ebene 2"><g id="Ebene_1-2" data-name="Ebene 1"><path class="cls-1" d="M32.27,24.35c-.7-1-.31-2.47-.48-4.09a10.74,10.74,0,0,0-3.5-7.21L20.82,6.11a2,2,0,0,0-2.74,2.94L21.24,12,24,14.53s-.68.73-3.71-2.08L10,2.94a2,2,0,0,0-2.84.11,2,2,0,0,0,.1,2.84l9.67,9s-.73.7-.75.68L5.88,5.94A2,2,0,0,0,3,6a2,2,0,0,0,.1,2.84L13.49,18.5s-.66.76-.64.78L3.93,11a2,2,0,0,0-2.84.11,2,2,0,0,0,.1,2.84l9.49,8.82c.08.08-.5.91-.39,1L3.45,17.4a2,2,0,0,0-2.84.11,2,2,0,0,0,.1,2.84L11.86,30.71a10.63,10.63,0,0,0,6.08,2.93c.47.06,1.07.06,1.31.09a5.74,5.74,0,0,1,2.37.94c1.18.72,2.94,1,4-.07L29,30.91l3.19-3.41C33.23,26.42,33.05,25.48,32.27,24.35Z"/><path class="cls-2" d="M1.92,35a1,1,0,0,1-.71-.3,1,1,0,0,1,0-1.41l3.56-3.55a1,1,0,0,1,1.41,1.41L2.63,34.73A1,1,0,0,1,1.92,35ZM8.67,36a1,1,0,0,1-.33-.06,1,1,0,0,1-.62-1.27l1-2.78A1,1,0,0,1,10,31.23a1,1,0,0,1,.61,1.27l-1,2.78A1,1,0,0,1,8.67,36ZM1,28.28a1,1,0,0,1-.94-.67,1,1,0,0,1,.61-1.27l2.49-.88a1,1,0,0,1,1.28.61,1,1,0,0,1-.61,1.27l-2.5.88A1,1,0,0,1,1,28.28ZM30.46,6.51a1,1,0,0,1-.71-.29,1,1,0,0,1,0-1.41l3.56-3.55a1,1,0,0,1,1.41,1.41L31.17,6.22A1,1,0,0,1,30.46,6.51ZM26.3,4.82A1,1,0,0,1,26,4.76a1,1,0,0,1-.62-1.27l1-2.78A1,1,0,0,1,27.6.1a1,1,0,0,1,.61,1.27l-1,2.78A1,1,0,0,1,26.3,4.82Zm6.14,5.77a1,1,0,0,1-.33-1.94l2.49-.88a1,1,0,1,1,.67,1.88l-2.5.88A1,1,0,0,1,32.44,10.59Z"/><path class="cls-3" d="M35.36,23.82c-.67-1-.23-2.48-.35-4.09a10.73,10.73,0,0,0-3.25-7.33L24.53,5.21A2,2,0,1,0,21.7,8.06l3.05,3,2.65,2.63s-.71.71-3.64-2.2l-9.9-9.85a2,2,0,0,0-2.84,0,2,2,0,0,0,0,2.84l9.35,9.31s-.75.67-.76.65l-10-10A2,2,0,1,0,6.77,7.38l10,10s-.68.75-.66.77L7.49,9.51a2,2,0,0,0-2.85,0,2,2,0,0,0,0,2.84l9.18,9.14c.08.08-.53.89-.42,1L6.79,15.91a2,2,0,0,0-2.84,0,2,2,0,0,0,0,2.84L14.74,29.49a10.66,10.66,0,0,0,6,3.14c.46.08,1.06.1,1.31.14a5.72,5.72,0,0,1,2.34,1c1.15.76,2.9,1.12,3.95.07l3.58-3.58L35.2,27C36.25,25.92,36.1,25,35.36,23.82Z"/><rect class="cls-4" x="0.03" width="35.91" height="35.91"/></g></g></svg>