<?xml version="1.0" encoding="UTF-8" standalone="no"?>
<svg
   xmlns:dc="http://purl.org/dc/elements/1.1/"
   xmlns:cc="http://creativecommons.org/ns#"
   xmlns:rdf="http://www.w3.org/1999/02/22-rdf-syntax-ns#"
   xmlns:svg="http://www.w3.org/2000/svg"
   xmlns="http://www.w3.org/2000/svg"
   xmlns:xlink="http://www.w3.org/1999/xlink"
   xmlns:sodipodi="http://sodipodi.sourceforge.net/DTD/sodipodi-0.dtd"
   xmlns:inkscape="http://www.inkscape.org/namespaces/inkscape"
   viewBox="0 0 44.598064 44.545914"
   xml:space="preserve"
   version="1.1"
   id="svg2"
   sodipodi:docname="frogcoins.svg"
   inkscape:version="0.92.4 5da689c313, 2019-01-14"
   width="44.598064"
   height="44.545914"
   inkscape:export-xdpi="834.66498"
   inkscape:export-ydpi="834.66498"><sodipodi:namedview
     pagecolor="#ffffff"
     bordercolor="#666666"
     borderopacity="1"
     objecttolerance="10"
     gridtolerance="10"
     guidetolerance="10"
     inkscape:pageopacity="0"
     inkscape:pageshadow="2"
     inkscape:window-width="1920"
     inkscape:window-height="1027"
     id="namedview26"
     showgrid="false"
     inkscape:zoom="14.833529"
     inkscape:cx="1.0618427"
     inkscape:cy="18.603797"
     inkscape:window-x="1600"
     inkscape:window-y="53"
     inkscape:window-maximized="0"
     inkscape:current-layer="svg2"
     fit-margin-top="0"
     fit-margin-left="0"
     fit-margin-right="0"
     fit-margin-bottom="0" /><metadata
     id="metadata8"><rdf:RDF><cc:Work
         rdf:about=""><dc:format>image/svg+xml</dc:format><dc:type
           rdf:resource="http://purl.org/dc/dcmitype/StillImage" /><dc:title></dc:title></cc:Work></rdf:RDF></metadata><defs
     id="defs6"><clipPath
       id="clipPath16"
       clipPathUnits="userSpaceOnUse"><path
         id="path18"
         d="M 0,36 H 36 V 0 H 0 Z"
         inkscape:connector-curvature="0" /></clipPath><linearGradient
       inkscape:collect="always"
       xlink:href="#linearGradient6690"
       id="linearGradient7528"
       x1="3.8374209"
       y1="3.714"
       x2="43.202457"
       y2="42.958427"
       gradientUnits="userSpaceOnUse" /><linearGradient
       inkscape:collect="always"
       id="linearGradient6690"><stop
         style="stop-color:#f6d244;stop-opacity:1;"
         offset="0"
         id="stop6686" /><stop
         style="stop-color:#f6d244;stop-opacity:0;"
         offset="1"
         id="stop6688" /></linearGradient><filter
       inkscape:collect="always"
       style="color-interpolation-filters:sRGB"
       id="filter7846"
       x="-0.012"
       width="1.024"
       y="-0.012"
       height="1.024"><feGaussianBlur
         inkscape:collect="always"
         stdDeviation="0.20831568"
         id="feGaussianBlur7848" /></filter><linearGradient
       inkscape:collect="always"
       xlink:href="#linearGradient6690"
       id="linearGradient6684"
       x1="43.493675"
       y1="37.1092"
       x2="43.493675"
       y2="38.892567"
       gradientUnits="userSpaceOnUse" /><filter
       inkscape:collect="always"
       style="color-interpolation-filters:sRGB"
       id="filter8866"
       x="-0.78864056"
       width="2.577281"
       y="-0.7456134"
       height="2.4912269"><feGaussianBlur
         inkscape:collect="always"
         stdDeviation="13.897828"
         id="feGaussianBlur8868" /></filter><linearGradient
       inkscape:collect="always"
       xlink:href="#linearGradient6690"
       id="linearGradient1003"
       gradientUnits="userSpaceOnUse"
       x1="3.8374209"
       y1="3.714"
       x2="43.202457"
       y2="42.958427" /><linearGradient
       inkscape:collect="always"
       xlink:href="#linearGradient6690"
       id="linearGradient1005"
       gradientUnits="userSpaceOnUse"
       x1="43.493675"
       y1="37.1092"
       x2="43.493675"
       y2="38.892567" /><linearGradient
       inkscape:collect="always"
       xlink:href="#linearGradient6690"
       id="linearGradient1007"
       gradientUnits="userSpaceOnUse"
       x1="3.8374209"
       y1="3.714"
       x2="43.202457"
       y2="42.958427" /><linearGradient
       inkscape:collect="always"
       xlink:href="#linearGradient6690"
       id="linearGradient1009"
       gradientUnits="userSpaceOnUse"
       x1="43.493675"
       y1="37.1092"
       x2="43.493675"
       y2="38.892567" /><linearGradient
       inkscape:collect="always"
       xlink:href="#linearGradient6690"
       id="linearGradient1011"
       gradientUnits="userSpaceOnUse"
       x1="3.8374209"
       y1="3.714"
       x2="43.202457"
       y2="42.958427" /><linearGradient
       inkscape:collect="always"
       xlink:href="#linearGradient6690"
       id="linearGradient1013"
       gradientUnits="userSpaceOnUse"
       x1="43.493675"
       y1="37.1092"
       x2="43.493675"
       y2="38.892567" /></defs><g
     id="g949"
     transform="translate(-0.05600363,-0.09200091)" /><g
     transform="matrix(0.47454912,0,0,0.47454912,-0.04524205,1.3413292)"
     id="g903"><circle
       inkscape:export-ydpi="834.66498"
       inkscape:export-xdpi="834.66498"
       r="22.452332"
       cy="22.45233"
       cx="22.547668"
       id="path863-3"
       style="fill:#af9013;fill-opacity:0.99607843;fill-rule:nonzero;stroke:none;stroke-width:0.25268242;stroke-miterlimit:4;stroke-dasharray:none;stroke-opacity:1" /><circle
       inkscape:transform-center-y="-4.4194174"
       inkscape:transform-center-x="3.7123106"
       r="20.831568"
       inkscape:export-ydpi="834.66498"
       inkscape:export-xdpi="834.66498"
       style="opacity:1;fill:url(#linearGradient7528);fill-opacity:1;fill-rule:nonzero;stroke:none;stroke-width:0.23444207;stroke-miterlimit:4;stroke-dasharray:none;stroke-opacity:1;filter:url(#filter7846)"
       id="circle933-6"
       cx="22.547668"
       cy="22.45233" /><path
       inkscape:export-ydpi="834.66498"
       inkscape:export-xdpi="834.66498"
       inkscape:connector-curvature="0"
       d="m 40.149647,26.475085 c 0,7.231899 -7.816775,11.639322 -17.458983,11.639322 -9.642208,0 -17.4589827,-4.407423 -17.4589827,-11.639322 0,-7.231899 7.8167747,-14.549152 17.4589827,-14.549152 9.642208,0 17.458983,7.317253 17.458983,14.549152"
       style="fill:#f6d244;fill-opacity:1;fill-rule:nonzero;stroke:none;stroke-width:0.96994346"
       id="path22-7" /><path
       inkscape:export-ydpi="834.66498"
       inkscape:export-xdpi="834.66498"
       inkscape:connector-curvature="0"
       d="m 36.03214,17.431138 c 1.326882,-1.066938 2.177523,-2.701293 2.177523,-4.535456 0,-3.2134226 -2.605268,-5.8196608 -5.819661,-5.8196608 -2.775008,0 -5.092203,1.9447367 -5.67417,4.5441848 -1.250257,-0.468482 -2.603328,-0.735217 -4.025265,-0.735217 -1.420967,0 -2.775008,0.266735 -4.024296,0.735217 -0.582936,-2.5994481 -2.900131,-4.5441848 -5.675139,-4.5441848 -3.2134229,0 -5.8196607,2.6062382 -5.8196607,5.8196608 0,1.834163 0.8516104,3.468518 2.1775231,4.535456 -2.5655005,2.599448 -4.1174101,5.82839 -4.1174101,9.043753 0,7.231899 7.8167747,0.969943 17.4589827,0.969943 9.643178,0 17.458983,6.261956 17.458983,-0.969943 0,-3.215363 -1.55094,-6.444305 -4.11741,-9.043753"
       style="fill:#a68709;fill-opacity:0.99607843;fill-rule:nonzero;stroke:none;stroke-width:0.96994346"
       id="path26-5" /><path
       inkscape:export-ydpi="834.66498"
       inkscape:export-xdpi="834.66498"
       inkscape:connector-curvature="0"
       d="m 15.90106,12.410904 c 0,1.874901 -1.519902,3.394803 -3.394803,3.394803 -1.8749,0 -3.3948017,-1.519902 -3.3948017,-3.394803 0,-1.8749 1.5199017,-3.3948018 3.3948017,-3.3948018 1.874901,0 3.394803,1.5199018 3.394803,3.3948018"
       style="fill:#ffffff;fill-opacity:1;fill-rule:nonzero;stroke:none;stroke-width:0.96994346"
       id="path30-3" /><path
       inkscape:export-ydpi="834.66498"
       inkscape:export-xdpi="834.66498"
       inkscape:connector-curvature="0"
       d="m 14.211173,12.535904 c 0,0.976792 -0.748686,1.767416 -1.673666,1.767416 -0.924979,0 -1.673665,-0.790624 -1.673665,-1.767416 0,-0.976791 0.748686,-1.767415 1.673665,-1.767415 0.92498,0 1.673666,0.790624 1.673666,1.767415"
       style="fill:#735d00;fill-opacity:1;fill-rule:nonzero;stroke:none;stroke-width:1.14660096"
       id="path34-5" /><path
       inkscape:export-ydpi="834.66498"
       inkscape:export-xdpi="834.66498"
       inkscape:connector-curvature="0"
       d="m 36.269873,12.410904 c 0,1.874901 -1.518932,3.394803 -3.394802,3.394803 -1.875871,0 -3.394803,-1.519902 -3.394803,-3.394803 0,-1.8749 1.518932,-3.3948018 3.394803,-3.3948018 1.87587,0 3.394802,1.5199018 3.394802,3.3948018"
       style="fill:#ffffff;fill-opacity:1;fill-rule:nonzero;stroke:none;stroke-width:0.96994346"
       id="path38-6" /><path
       inkscape:export-ydpi="834.66498"
       inkscape:export-xdpi="834.66498"
       inkscape:connector-curvature="0"
       d="m 34.454986,12.410904 c 0,0.907709 -0.721802,1.642416 -1.611165,1.642416 -0.889364,0 -1.611166,-0.734707 -1.611166,-1.642416 0,-0.907708 0.721802,-1.642415 1.611166,-1.642415 0.889363,0 1.611165,0.734707 1.611165,1.642415"
       style="fill:#735d00;fill-opacity:1;fill-rule:nonzero;stroke:none;stroke-width:1.08447671"
       id="path42-2" /><path
       inkscape:export-ydpi="834.66498"
       inkscape:export-xdpi="834.66498"
       inkscape:connector-curvature="0"
       d="m 19.780834,24.535198 c 0,0.536379 -0.434535,0.969943 -0.969944,0.969943 -0.535409,0 -0.969943,-0.433564 -0.969943,-0.969943 0,-0.536379 0.434534,-0.969944 0.969943,-0.969944 0.535409,0 0.969944,0.433565 0.969944,0.969944"
       style="fill:#735d00;fill-opacity:1;fill-rule:nonzero;stroke:none;stroke-width:0.96994346"
       id="path46-9" /><path
       inkscape:export-ydpi="834.66498"
       inkscape:export-xdpi="834.66498"
       inkscape:connector-curvature="0"
       d="m 27.540381,24.535198 c 0,0.536379 -0.433564,0.969943 -0.969943,0.969943 -0.536379,0 -0.969944,-0.433564 -0.969944,-0.969943 0,-0.536379 0.433565,-0.969944 0.969944,-0.969944 0.536379,0 0.969943,0.433565 0.969943,0.969944"
       style="fill:#735d00;fill-opacity:1;fill-rule:nonzero;stroke:none;stroke-width:0.96994346"
       id="path50-1" /><path
       inkscape:connector-curvature="0"
       id="path3820"
       d="m 14.300485,9.4734569 c 0.950482,0.6071981 1.596794,1.6028811 1.701685,2.6215461 0.04927,0.478475 0.01267,0.737344 -0.195609,1.383813 -0.21999,0.682804 -0.324766,0.867464 -0.741103,1.306135 -0.892972,0.940878 -1.934592,1.251516 -3.262121,0.972848 C 11.122924,15.614971 10.88331,15.520678 10.477946,15.236245 9.4759801,14.533184 8.879789,13.134648 9.0632303,11.917626 9.2836213,10.455445 10.570335,9.2405371 12.128301,9.0236006 c 0.583347,-0.081228 1.704217,0.1509039 2.172184,0.4498563 z m -2.213613,1.5123941 c -0.525129,0.15265 -0.891629,0.534916 -1.041218,1.08601 -0.16511,0.608282 -0.0097,1.098151 0.479314,1.511568 1.448251,1.22418 3.420975,-0.729969 2.171844,-2.151395 -0.34093,-0.387956 -1.093116,-0.596419 -1.60994,-0.446183 z"
       style="fill:#cfad24;fill-opacity:1;stroke-width:0.09890716" /><path
       inkscape:connector-curvature="0"
       id="path3822"
       d="m 32.200491,15.774268 c -1.359404,-0.338753 -2.349264,-1.292887 -2.67962,-2.582907 -0.312369,-1.219786 0.09336,-2.517383 1.055018,-3.3741502 0.723301,-0.6444078 1.411836,-0.8741636 2.465542,-0.8227219 1.344106,0.065618 2.261509,0.6287053 2.873104,1.7634631 0.285148,0.529065 0.337656,0.733991 0.371401,1.449488 0.03213,0.681213 1.78e-4,0.936135 -0.175043,1.396689 -0.47,1.235351 -1.722747,2.13068 -3.065039,2.190561 -0.356122,0.01589 -0.736535,0.0067 -0.845363,-0.02042 z m 1.533528,-2.120794 c 1.1677,-0.789825 0.732476,-2.602354 -0.669624,-2.78871 -0.528668,-0.07026 -1.225354,0.253902 -1.503244,0.699459 -0.427769,0.685862 -0.182565,1.692979 0.514769,2.11429 0.456199,0.275624 1.230887,0.263926 1.658099,-0.02504 z"
       style="fill:#cfad24;fill-opacity:1;stroke-width:0.09848417" /><path
       inkscape:connector-curvature="0"
       id="path3832"
       d="m 12.393864,15.799293 c 0.008,-0.0032 0.0175,-0.0028 0.02118,8.73e-4 0.0037,0.0037 -0.0029,0.0063 -0.0145,0.0058 -0.01287,-5.3e-4 -0.01549,-0.0031 -0.0067,-0.0067 z"
       style="fill:#cfad24;fill-opacity:1;stroke-width:0.01104854" /><path
       transform="matrix(0.28943075,0,0,0.26923521,15.25362,14.253965)"
       inkscape:export-ydpi="834"
       inkscape:export-xdpi="834"
       sodipodi:nodetypes="ccccccccccccscccc"
       inkscape:connector-curvature="0"
       id="path3872"
       d="m 10.513394,7.5723882 c 1.515153,-4.6547434 -14.02262,1.765211 -14.02262,1.765211 l 14.542623,-6.8496451 1.260475,-3.8194353 2.960621,-1.01617 4.817365,0.130637 3.748194,1.136802 10.793924,-2.5128 -1.6575,11.4895474 1.912919,8.1807258 3.91541,14.575894 -0.518264,10.488529 c 0,0 -13.083975,-3.078428 -12.750273,-1.324695 0.410072,2.155086 -5.139552,0.47266 -13.051854,-3.005204 -0.310902,0.234446 3.30033,-1.126821 3.177371,1.375023 -0.388125,0.468909 -7.9034814,-5.161243 -7.9034814,-5.161243 z"
       style="opacity:0.57099998;fill:url(#linearGradient6684);fill-opacity:1;stroke:none;stroke-width:0.182;stroke-linecap:butt;stroke-linejoin:round;stroke-miterlimit:4;stroke-dasharray:none;stroke-opacity:1;paint-order:normal;filter:url(#filter8866);image-rendering:auto" /></g><g
     id="g941"
     transform="matrix(0.69523849,0,0,0.69523849,13.312332,1.3260622e-6)"><circle
       style="fill:#af9013;fill-opacity:0.99607843;fill-rule:nonzero;stroke:none;stroke-width:0.25268242;stroke-miterlimit:4;stroke-dasharray:none;stroke-opacity:1"
       id="circle913"
       cx="22.547668"
       cy="22.45233"
       r="22.452332"
       inkscape:export-xdpi="834.66498"
       inkscape:export-ydpi="834.66498" /><circle
       cy="22.45233"
       cx="22.547668"
       id="circle915"
       style="opacity:1;fill:url(#linearGradient1011);fill-opacity:1;fill-rule:nonzero;stroke:none;stroke-width:0.23444207;stroke-miterlimit:4;stroke-dasharray:none;stroke-opacity:1;filter:url(#filter7846)"
       inkscape:export-xdpi="834.66498"
       inkscape:export-ydpi="834.66498"
       r="20.831568"
       inkscape:transform-center-x="3.7123106"
       inkscape:transform-center-y="-4.4194174" /><path
       id="path917"
       style="fill:#f6d244;fill-opacity:1;fill-rule:nonzero;stroke:none;stroke-width:0.96994346"
       d="m 40.149647,26.475085 c 0,7.231899 -7.816775,11.639322 -17.458983,11.639322 -9.642208,0 -17.4589827,-4.407423 -17.4589827,-11.639322 0,-7.231899 7.8167747,-14.549152 17.4589827,-14.549152 9.642208,0 17.458983,7.317253 17.458983,14.549152"
       inkscape:connector-curvature="0"
       inkscape:export-xdpi="834.66498"
       inkscape:export-ydpi="834.66498" /><path
       id="path919"
       style="fill:#a68709;fill-opacity:0.99607843;fill-rule:nonzero;stroke:none;stroke-width:0.96994346"
       d="m 36.03214,17.431138 c 1.326882,-1.066938 2.177523,-2.701293 2.177523,-4.535456 0,-3.2134226 -2.605268,-5.8196608 -5.819661,-5.8196608 -2.775008,0 -5.092203,1.9447367 -5.67417,4.5441848 -1.250257,-0.468482 -2.603328,-0.735217 -4.025265,-0.735217 -1.420967,0 -2.775008,0.266735 -4.024296,0.735217 -0.582936,-2.5994481 -2.900131,-4.5441848 -5.675139,-4.5441848 -3.2134229,0 -5.8196607,2.6062382 -5.8196607,5.8196608 0,1.834163 0.8516104,3.468518 2.1775231,4.535456 -2.5655005,2.599448 -4.1174101,5.82839 -4.1174101,9.043753 0,7.231899 7.8167747,0.969943 17.4589827,0.969943 9.643178,0 17.458983,6.261956 17.458983,-0.969943 0,-3.215363 -1.55094,-6.444305 -4.11741,-9.043753"
       inkscape:connector-curvature="0"
       inkscape:export-xdpi="834.66498"
       inkscape:export-ydpi="834.66498" /><path
       id="path921"
       style="fill:#ffffff;fill-opacity:1;fill-rule:nonzero;stroke:none;stroke-width:0.96994346"
       d="m 15.90106,12.410904 c 0,1.874901 -1.519902,3.394803 -3.394803,3.394803 -1.8749,0 -3.3948017,-1.519902 -3.3948017,-3.394803 0,-1.8749 1.5199017,-3.3948018 3.3948017,-3.3948018 1.874901,0 3.394803,1.5199018 3.394803,3.3948018"
       inkscape:connector-curvature="0"
       inkscape:export-xdpi="834.66498"
       inkscape:export-ydpi="834.66498" /><path
       id="path923"
       style="fill:#735d00;fill-opacity:1;fill-rule:nonzero;stroke:none;stroke-width:1.14660096"
       d="m 14.211173,12.535904 c 0,0.976792 -0.748686,1.767416 -1.673666,1.767416 -0.924979,0 -1.673665,-0.790624 -1.673665,-1.767416 0,-0.976791 0.748686,-1.767415 1.673665,-1.767415 0.92498,0 1.673666,0.790624 1.673666,1.767415"
       inkscape:connector-curvature="0"
       inkscape:export-xdpi="834.66498"
       inkscape:export-ydpi="834.66498" /><path
       id="path925"
       style="fill:#ffffff;fill-opacity:1;fill-rule:nonzero;stroke:none;stroke-width:0.96994346"
       d="m 36.269873,12.410904 c 0,1.874901 -1.518932,3.394803 -3.394802,3.394803 -1.875871,0 -3.394803,-1.519902 -3.394803,-3.394803 0,-1.8749 1.518932,-3.3948018 3.394803,-3.3948018 1.87587,0 3.394802,1.5199018 3.394802,3.3948018"
       inkscape:connector-curvature="0"
       inkscape:export-xdpi="834.66498"
       inkscape:export-ydpi="834.66498" /><path
       id="path927"
       style="fill:#735d00;fill-opacity:1;fill-rule:nonzero;stroke:none;stroke-width:1.08447671"
       d="m 34.454986,12.410904 c 0,0.907709 -0.721802,1.642416 -1.611165,1.642416 -0.889364,0 -1.611166,-0.734707 -1.611166,-1.642416 0,-0.907708 0.721802,-1.642415 1.611166,-1.642415 0.889363,0 1.611165,0.734707 1.611165,1.642415"
       inkscape:connector-curvature="0"
       inkscape:export-xdpi="834.66498"
       inkscape:export-ydpi="834.66498" /><path
       id="path929"
       style="fill:#735d00;fill-opacity:1;fill-rule:nonzero;stroke:none;stroke-width:0.96994346"
       d="m 19.780834,24.535198 c 0,0.536379 -0.434535,0.969943 -0.969944,0.969943 -0.535409,0 -0.969943,-0.433564 -0.969943,-0.969943 0,-0.536379 0.434534,-0.969944 0.969943,-0.969944 0.535409,0 0.969944,0.433565 0.969944,0.969944"
       inkscape:connector-curvature="0"
       inkscape:export-xdpi="834.66498"
       inkscape:export-ydpi="834.66498" /><path
       id="path931"
       style="fill:#735d00;fill-opacity:1;fill-rule:nonzero;stroke:none;stroke-width:0.96994346"
       d="m 27.540381,24.535198 c 0,0.536379 -0.433564,0.969943 -0.969943,0.969943 -0.536379,0 -0.969944,-0.433564 -0.969944,-0.969943 0,-0.536379 0.433565,-0.969944 0.969944,-0.969944 0.536379,0 0.969943,0.433565 0.969943,0.969944"
       inkscape:connector-curvature="0"
       inkscape:export-xdpi="834.66498"
       inkscape:export-ydpi="834.66498" /><path
       style="fill:#cfad24;fill-opacity:1;stroke-width:0.09890716"
       d="m 14.300485,9.4734569 c 0.950482,0.6071981 1.596794,1.6028811 1.701685,2.6215461 0.04927,0.478475 0.01267,0.737344 -0.195609,1.383813 -0.21999,0.682804 -0.324766,0.867464 -0.741103,1.306135 -0.892972,0.940878 -1.934592,1.251516 -3.262121,0.972848 C 11.122924,15.614971 10.88331,15.520678 10.477946,15.236245 9.4759801,14.533184 8.879789,13.134648 9.0632303,11.917626 9.2836213,10.455445 10.570335,9.2405371 12.128301,9.0236006 c 0.583347,-0.081228 1.704217,0.1509039 2.172184,0.4498563 z m -2.213613,1.5123941 c -0.525129,0.15265 -0.891629,0.534916 -1.041218,1.08601 -0.16511,0.608282 -0.0097,1.098151 0.479314,1.511568 1.448251,1.22418 3.420975,-0.729969 2.171844,-2.151395 -0.34093,-0.387956 -1.093116,-0.596419 -1.60994,-0.446183 z"
       id="path933"
       inkscape:connector-curvature="0" /><path
       style="fill:#cfad24;fill-opacity:1;stroke-width:0.09848417"
       d="m 32.200491,15.774268 c -1.359404,-0.338753 -2.349264,-1.292887 -2.67962,-2.582907 -0.312369,-1.219786 0.09336,-2.517383 1.055018,-3.3741502 0.723301,-0.6444078 1.411836,-0.8741636 2.465542,-0.8227219 1.344106,0.065618 2.261509,0.6287053 2.873104,1.7634631 0.285148,0.529065 0.337656,0.733991 0.371401,1.449488 0.03213,0.681213 1.78e-4,0.936135 -0.175043,1.396689 -0.47,1.235351 -1.722747,2.13068 -3.065039,2.190561 -0.356122,0.01589 -0.736535,0.0067 -0.845363,-0.02042 z m 1.533528,-2.120794 c 1.1677,-0.789825 0.732476,-2.602354 -0.669624,-2.78871 -0.528668,-0.07026 -1.225354,0.253902 -1.503244,0.699459 -0.427769,0.685862 -0.182565,1.692979 0.514769,2.11429 0.456199,0.275624 1.230887,0.263926 1.658099,-0.02504 z"
       id="path935"
       inkscape:connector-curvature="0" /><path
       style="fill:#cfad24;fill-opacity:1;stroke-width:0.01104854"
       d="m 12.393864,15.799293 c 0.008,-0.0032 0.0175,-0.0028 0.02118,8.73e-4 0.0037,0.0037 -0.0029,0.0063 -0.0145,0.0058 -0.01287,-5.3e-4 -0.01549,-0.0031 -0.0067,-0.0067 z"
       id="path937"
       inkscape:connector-curvature="0" /><path
       style="opacity:0.57099998;fill:url(#linearGradient1013);fill-opacity:1;stroke:none;stroke-width:0.182;stroke-linecap:butt;stroke-linejoin:round;stroke-miterlimit:4;stroke-dasharray:none;stroke-opacity:1;paint-order:normal;filter:url(#filter8866);image-rendering:auto"
       d="m 10.513394,7.5723882 c 1.515153,-4.6547434 -14.02262,1.765211 -14.02262,1.765211 l 14.542623,-6.8496451 1.260475,-3.8194353 2.960621,-1.01617 4.817365,0.130637 3.748194,1.136802 10.793924,-2.5128 -1.6575,11.4895474 1.912919,8.1807258 3.91541,14.575894 -0.518264,10.488529 c 0,0 -13.083975,-3.078428 -12.750273,-1.324695 0.410072,2.155086 -5.139552,0.47266 -13.051854,-3.005204 -0.310902,0.234446 3.30033,-1.126821 3.177371,1.375023 -0.388125,0.468909 -7.9034814,-5.161243 -7.9034814,-5.161243 z"
       id="path939"
       inkscape:connector-curvature="0"
       sodipodi:nodetypes="ccccccccccccscccc"
       inkscape:export-xdpi="834"
       inkscape:export-ydpi="834"
       transform="matrix(0.28943075,0,0,0.26923521,15.25362,14.253965)" /></g><g
     transform="matrix(0.48655944,0,0,0.48655944,22.639981,20.48552)"
     id="g971"><circle
       inkscape:export-ydpi="834.66498"
       inkscape:export-xdpi="834.66498"
       r="22.452332"
       cy="22.45233"
       cx="22.547668"
       id="circle943"
       style="fill:#af9013;fill-opacity:0.99607843;fill-rule:nonzero;stroke:none;stroke-width:0.25268242;stroke-miterlimit:4;stroke-dasharray:none;stroke-opacity:1" /><circle
       inkscape:transform-center-y="-4.4194174"
       inkscape:transform-center-x="3.7123106"
       r="20.831568"
       inkscape:export-ydpi="834.66498"
       inkscape:export-xdpi="834.66498"
       style="opacity:1;fill:url(#linearGradient1007);fill-opacity:1;fill-rule:nonzero;stroke:none;stroke-width:0.23444207;stroke-miterlimit:4;stroke-dasharray:none;stroke-opacity:1;filter:url(#filter7846)"
       id="circle945"
       cx="22.547668"
       cy="22.45233" /><path
       inkscape:export-ydpi="834.66498"
       inkscape:export-xdpi="834.66498"
       inkscape:connector-curvature="0"
       d="m 40.149647,26.475085 c 0,7.231899 -7.816775,11.639322 -17.458983,11.639322 -9.642208,0 -17.4589827,-4.407423 -17.4589827,-11.639322 0,-7.231899 7.8167747,-14.549152 17.4589827,-14.549152 9.642208,0 17.458983,7.317253 17.458983,14.549152"
       style="fill:#f6d244;fill-opacity:1;fill-rule:nonzero;stroke:none;stroke-width:0.96994346"
       id="path947" /><path
       inkscape:export-ydpi="834.66498"
       inkscape:export-xdpi="834.66498"
       inkscape:connector-curvature="0"
       d="m 36.03214,17.431138 c 1.326882,-1.066938 2.177523,-2.701293 2.177523,-4.535456 0,-3.2134226 -2.605268,-5.8196608 -5.819661,-5.8196608 -2.775008,0 -5.092203,1.9447367 -5.67417,4.5441848 -1.250257,-0.468482 -2.603328,-0.735217 -4.025265,-0.735217 -1.420967,0 -2.775008,0.266735 -4.024296,0.735217 -0.582936,-2.5994481 -2.900131,-4.5441848 -5.675139,-4.5441848 -3.2134229,0 -5.8196607,2.6062382 -5.8196607,5.8196608 0,1.834163 0.8516104,3.468518 2.1775231,4.535456 -2.5655005,2.599448 -4.1174101,5.82839 -4.1174101,9.043753 0,7.231899 7.8167747,0.969943 17.4589827,0.969943 9.643178,0 17.458983,6.261956 17.458983,-0.969943 0,-3.215363 -1.55094,-6.444305 -4.11741,-9.043753"
       style="fill:#a68709;fill-opacity:0.99607843;fill-rule:nonzero;stroke:none;stroke-width:0.96994346"
       id="path949" /><path
       inkscape:export-ydpi="834.66498"
       inkscape:export-xdpi="834.66498"
       inkscape:connector-curvature="0"
       d="m 15.90106,12.410904 c 0,1.874901 -1.519902,3.394803 -3.394803,3.394803 -1.8749,0 -3.3948017,-1.519902 -3.3948017,-3.394803 0,-1.8749 1.5199017,-3.3948018 3.3948017,-3.3948018 1.874901,0 3.394803,1.5199018 3.394803,3.3948018"
       style="fill:#ffffff;fill-opacity:1;fill-rule:nonzero;stroke:none;stroke-width:0.96994346"
       id="path951" /><path
       inkscape:export-ydpi="834.66498"
       inkscape:export-xdpi="834.66498"
       inkscape:connector-curvature="0"
       d="m 14.211173,12.535904 c 0,0.976792 -0.748686,1.767416 -1.673666,1.767416 -0.924979,0 -1.673665,-0.790624 -1.673665,-1.767416 0,-0.976791 0.748686,-1.767415 1.673665,-1.767415 0.92498,0 1.673666,0.790624 1.673666,1.767415"
       style="fill:#735d00;fill-opacity:1;fill-rule:nonzero;stroke:none;stroke-width:1.14660096"
       id="path953" /><path
       inkscape:export-ydpi="834.66498"
       inkscape:export-xdpi="834.66498"
       inkscape:connector-curvature="0"
       d="m 36.269873,12.410904 c 0,1.874901 -1.518932,3.394803 -3.394802,3.394803 -1.875871,0 -3.394803,-1.519902 -3.394803,-3.394803 0,-1.8749 1.518932,-3.3948018 3.394803,-3.3948018 1.87587,0 3.394802,1.5199018 3.394802,3.3948018"
       style="fill:#ffffff;fill-opacity:1;fill-rule:nonzero;stroke:none;stroke-width:0.96994346"
       id="path955" /><path
       inkscape:export-ydpi="834.66498"
       inkscape:export-xdpi="834.66498"
       inkscape:connector-curvature="0"
       d="m 34.454986,12.410904 c 0,0.907709 -0.721802,1.642416 -1.611165,1.642416 -0.889364,0 -1.611166,-0.734707 -1.611166,-1.642416 0,-0.907708 0.721802,-1.642415 1.611166,-1.642415 0.889363,0 1.611165,0.734707 1.611165,1.642415"
       style="fill:#735d00;fill-opacity:1;fill-rule:nonzero;stroke:none;stroke-width:1.08447671"
       id="path957" /><path
       inkscape:export-ydpi="834.66498"
       inkscape:export-xdpi="834.66498"
       inkscape:connector-curvature="0"
       d="m 19.780834,24.535198 c 0,0.536379 -0.434535,0.969943 -0.969944,0.969943 -0.535409,0 -0.969943,-0.433564 -0.969943,-0.969943 0,-0.536379 0.434534,-0.969944 0.969943,-0.969944 0.535409,0 0.969944,0.433565 0.969944,0.969944"
       style="fill:#735d00;fill-opacity:1;fill-rule:nonzero;stroke:none;stroke-width:0.96994346"
       id="path959" /><path
       inkscape:export-ydpi="834.66498"
       inkscape:export-xdpi="834.66498"
       inkscape:connector-curvature="0"
       d="m 27.540381,24.535198 c 0,0.536379 -0.433564,0.969943 -0.969943,0.969943 -0.536379,0 -0.969944,-0.433564 -0.969944,-0.969943 0,-0.536379 0.433565,-0.969944 0.969944,-0.969944 0.536379,0 0.969943,0.433565 0.969943,0.969944"
       style="fill:#735d00;fill-opacity:1;fill-rule:nonzero;stroke:none;stroke-width:0.96994346"
       id="path961" /><path
       inkscape:connector-curvature="0"
       id="path963"
       d="m 14.300485,9.4734569 c 0.950482,0.6071981 1.596794,1.6028811 1.701685,2.6215461 0.04927,0.478475 0.01267,0.737344 -0.195609,1.383813 -0.21999,0.682804 -0.324766,0.867464 -0.741103,1.306135 -0.892972,0.940878 -1.934592,1.251516 -3.262121,0.972848 C 11.122924,15.614971 10.88331,15.520678 10.477946,15.236245 9.4759801,14.533184 8.879789,13.134648 9.0632303,11.917626 9.2836213,10.455445 10.570335,9.2405371 12.128301,9.0236006 c 0.583347,-0.081228 1.704217,0.1509039 2.172184,0.4498563 z m -2.213613,1.5123941 c -0.525129,0.15265 -0.891629,0.534916 -1.041218,1.08601 -0.16511,0.608282 -0.0097,1.098151 0.479314,1.511568 1.448251,1.22418 3.420975,-0.729969 2.171844,-2.151395 -0.34093,-0.387956 -1.093116,-0.596419 -1.60994,-0.446183 z"
       style="fill:#cfad24;fill-opacity:1;stroke-width:0.09890716" /><path
       inkscape:connector-curvature="0"
       id="path965"
       d="m 32.200491,15.774268 c -1.359404,-0.338753 -2.349264,-1.292887 -2.67962,-2.582907 -0.312369,-1.219786 0.09336,-2.517383 1.055018,-3.3741502 0.723301,-0.6444078 1.411836,-0.8741636 2.465542,-0.8227219 1.344106,0.065618 2.261509,0.6287053 2.873104,1.7634631 0.285148,0.529065 0.337656,0.733991 0.371401,1.449488 0.03213,0.681213 1.78e-4,0.936135 -0.175043,1.396689 -0.47,1.235351 -1.722747,2.13068 -3.065039,2.190561 -0.356122,0.01589 -0.736535,0.0067 -0.845363,-0.02042 z m 1.533528,-2.120794 c 1.1677,-0.789825 0.732476,-2.602354 -0.669624,-2.78871 -0.528668,-0.07026 -1.225354,0.253902 -1.503244,0.699459 -0.427769,0.685862 -0.182565,1.692979 0.514769,2.11429 0.456199,0.275624 1.230887,0.263926 1.658099,-0.02504 z"
       style="fill:#cfad24;fill-opacity:1;stroke-width:0.09848417" /><path
       inkscape:connector-curvature="0"
       id="path967"
       d="m 12.393864,15.799293 c 0.008,-0.0032 0.0175,-0.0028 0.02118,8.73e-4 0.0037,0.0037 -0.0029,0.0063 -0.0145,0.0058 -0.01287,-5.3e-4 -0.01549,-0.0031 -0.0067,-0.0067 z"
       style="fill:#cfad24;fill-opacity:1;stroke-width:0.01104854" /><path
       transform="matrix(0.28943075,0,0,0.26923521,15.25362,14.253965)"
       inkscape:export-ydpi="834"
       inkscape:export-xdpi="834"
       sodipodi:nodetypes="ccccccccccccscccc"
       inkscape:connector-curvature="0"
       id="path969"
       d="m 10.513394,7.5723882 c 1.515153,-4.6547434 -14.02262,1.765211 -14.02262,1.765211 l 14.542623,-6.8496451 1.260475,-3.8194353 2.960621,-1.01617 4.817365,0.130637 3.748194,1.136802 10.793924,-2.5128 -1.6575,11.4895474 1.912919,8.1807258 3.91541,14.575894 -0.518264,10.488529 c 0,0 -13.083975,-3.078428 -12.750273,-1.324695 0.410072,2.155086 -5.139552,0.47266 -13.051854,-3.005204 -0.310902,0.234446 3.30033,-1.126821 3.177371,1.375023 -0.388125,0.468909 -7.9034814,-5.161243 -7.9034814,-5.161243 z"
       style="opacity:0.57099998;fill:url(#linearGradient1009);fill-opacity:1;stroke:none;stroke-width:0.182;stroke-linecap:butt;stroke-linejoin:round;stroke-miterlimit:4;stroke-dasharray:none;stroke-opacity:1;paint-order:normal;filter:url(#filter8866);image-rendering:auto" /></g><g
     id="g1001"
     transform="matrix(0.53460066,0,0,0.53460066,0.93636054,20.539853)"><circle
       style="fill:#af9013;fill-opacity:0.99607843;fill-rule:nonzero;stroke:none;stroke-width:0.25268242;stroke-miterlimit:4;stroke-dasharray:none;stroke-opacity:1"
       id="circle973"
       cx="22.547668"
       cy="22.45233"
       r="22.452332"
       inkscape:export-xdpi="834.66498"
       inkscape:export-ydpi="834.66498" /><circle
       cy="22.45233"
       cx="22.547668"
       id="circle975"
       style="opacity:1;fill:url(#linearGradient1003);fill-opacity:1;fill-rule:nonzero;stroke:none;stroke-width:0.23444207;stroke-miterlimit:4;stroke-dasharray:none;stroke-opacity:1;filter:url(#filter7846)"
       inkscape:export-xdpi="834.66498"
       inkscape:export-ydpi="834.66498"
       r="20.831568"
       inkscape:transform-center-x="3.7123106"
       inkscape:transform-center-y="-4.4194174" /><path
       id="path977"
       style="fill:#f6d244;fill-opacity:1;fill-rule:nonzero;stroke:none;stroke-width:0.96994346"
       d="m 40.149647,26.475085 c 0,7.231899 -7.816775,11.639322 -17.458983,11.639322 -9.642208,0 -17.4589827,-4.407423 -17.4589827,-11.639322 0,-7.231899 7.8167747,-14.549152 17.4589827,-14.549152 9.642208,0 17.458983,7.317253 17.458983,14.549152"
       inkscape:connector-curvature="0"
       inkscape:export-xdpi="834.66498"
       inkscape:export-ydpi="834.66498" /><path
       id="path979"
       style="fill:#a68709;fill-opacity:0.99607843;fill-rule:nonzero;stroke:none;stroke-width:0.96994346"
       d="m 36.03214,17.431138 c 1.326882,-1.066938 2.177523,-2.701293 2.177523,-4.535456 0,-3.2134226 -2.605268,-5.8196608 -5.819661,-5.8196608 -2.775008,0 -5.092203,1.9447367 -5.67417,4.5441848 -1.250257,-0.468482 -2.603328,-0.735217 -4.025265,-0.735217 -1.420967,0 -2.775008,0.266735 -4.024296,0.735217 -0.582936,-2.5994481 -2.900131,-4.5441848 -5.675139,-4.5441848 -3.2134229,0 -5.8196607,2.6062382 -5.8196607,5.8196608 0,1.834163 0.8516104,3.468518 2.1775231,4.535456 -2.5655005,2.599448 -4.1174101,5.82839 -4.1174101,9.043753 0,7.231899 7.8167747,0.969943 17.4589827,0.969943 9.643178,0 17.458983,6.261956 17.458983,-0.969943 0,-3.215363 -1.55094,-6.444305 -4.11741,-9.043753"
       inkscape:connector-curvature="0"
       inkscape:export-xdpi="834.66498"
       inkscape:export-ydpi="834.66498" /><path
       id="path981"
       style="fill:#ffffff;fill-opacity:1;fill-rule:nonzero;stroke:none;stroke-width:0.96994346"
       d="m 15.90106,12.410904 c 0,1.874901 -1.519902,3.394803 -3.394803,3.394803 -1.8749,0 -3.3948017,-1.519902 -3.3948017,-3.394803 0,-1.8749 1.5199017,-3.3948018 3.3948017,-3.3948018 1.874901,0 3.394803,1.5199018 3.394803,3.3948018"
       inkscape:connector-curvature="0"
       inkscape:export-xdpi="834.66498"
       inkscape:export-ydpi="834.66498" /><path
       id="path983"
       style="fill:#735d00;fill-opacity:1;fill-rule:nonzero;stroke:none;stroke-width:1.14660096"
       d="m 14.211173,12.535904 c 0,0.976792 -0.748686,1.767416 -1.673666,1.767416 -0.924979,0 -1.673665,-0.790624 -1.673665,-1.767416 0,-0.976791 0.748686,-1.767415 1.673665,-1.767415 0.92498,0 1.673666,0.790624 1.673666,1.767415"
       inkscape:connector-curvature="0"
       inkscape:export-xdpi="834.66498"
       inkscape:export-ydpi="834.66498" /><path
       id="path985"
       style="fill:#ffffff;fill-opacity:1;fill-rule:nonzero;stroke:none;stroke-width:0.96994346"
       d="m 36.269873,12.410904 c 0,1.874901 -1.518932,3.394803 -3.394802,3.394803 -1.875871,0 -3.394803,-1.519902 -3.394803,-3.394803 0,-1.8749 1.518932,-3.3948018 3.394803,-3.3948018 1.87587,0 3.394802,1.5199018 3.394802,3.3948018"
       inkscape:connector-curvature="0"
       inkscape:export-xdpi="834.66498"
       inkscape:export-ydpi="834.66498" /><path
       id="path987"
       style="fill:#735d00;fill-opacity:1;fill-rule:nonzero;stroke:none;stroke-width:1.08447671"
       d="m 34.454986,12.410904 c 0,0.907709 -0.721802,1.642416 -1.611165,1.642416 -0.889364,0 -1.611166,-0.734707 -1.611166,-1.642416 0,-0.907708 0.721802,-1.642415 1.611166,-1.642415 0.889363,0 1.611165,0.734707 1.611165,1.642415"
       inkscape:connector-curvature="0"
       inkscape:export-xdpi="834.66498"
       inkscape:export-ydpi="834.66498" /><path
       id="path989"
       style="fill:#735d00;fill-opacity:1;fill-rule:nonzero;stroke:none;stroke-width:0.96994346"
       d="m 19.780834,24.535198 c 0,0.536379 -0.434535,0.969943 -0.969944,0.969943 -0.535409,0 -0.969943,-0.433564 -0.969943,-0.969943 0,-0.536379 0.434534,-0.969944 0.969943,-0.969944 0.535409,0 0.969944,0.433565 0.969944,0.969944"
       inkscape:connector-curvature="0"
       inkscape:export-xdpi="834.66498"
       inkscape:export-ydpi="834.66498" /><path
       id="path991"
       style="fill:#735d00;fill-opacity:1;fill-rule:nonzero;stroke:none;stroke-width:0.96994346"
       d="m 27.540381,24.535198 c 0,0.536379 -0.433564,0.969943 -0.969943,0.969943 -0.536379,0 -0.969944,-0.433564 -0.969944,-0.969943 0,-0.536379 0.433565,-0.969944 0.969944,-0.969944 0.536379,0 0.969943,0.433565 0.969943,0.969944"
       inkscape:connector-curvature="0"
       inkscape:export-xdpi="834.66498"
       inkscape:export-ydpi="834.66498" /><path
       style="fill:#cfad24;fill-opacity:1;stroke-width:0.09890716"
       d="m 14.300485,9.4734569 c 0.950482,0.6071981 1.596794,1.6028811 1.701685,2.6215461 0.04927,0.478475 0.01267,0.737344 -0.195609,1.383813 -0.21999,0.682804 -0.324766,0.867464 -0.741103,1.306135 -0.892972,0.940878 -1.934592,1.251516 -3.262121,0.972848 C 11.122924,15.614971 10.88331,15.520678 10.477946,15.236245 9.4759801,14.533184 8.879789,13.134648 9.0632303,11.917626 9.2836213,10.455445 10.570335,9.2405371 12.128301,9.0236006 c 0.583347,-0.081228 1.704217,0.1509039 2.172184,0.4498563 z m -2.213613,1.5123941 c -0.525129,0.15265 -0.891629,0.534916 -1.041218,1.08601 -0.16511,0.608282 -0.0097,1.098151 0.479314,1.511568 1.448251,1.22418 3.420975,-0.729969 2.171844,-2.151395 -0.34093,-0.387956 -1.093116,-0.596419 -1.60994,-0.446183 z"
       id="path993"
       inkscape:connector-curvature="0" /><path
       style="fill:#cfad24;fill-opacity:1;stroke-width:0.09848417"
       d="m 32.200491,15.774268 c -1.359404,-0.338753 -2.349264,-1.292887 -2.67962,-2.582907 -0.312369,-1.219786 0.09336,-2.517383 1.055018,-3.3741502 0.723301,-0.6444078 1.411836,-0.8741636 2.465542,-0.8227219 1.344106,0.065618 2.261509,0.6287053 2.873104,1.7634631 0.285148,0.529065 0.337656,0.733991 0.371401,1.449488 0.03213,0.681213 1.78e-4,0.936135 -0.175043,1.396689 -0.47,1.235351 -1.722747,2.13068 -3.065039,2.190561 -0.356122,0.01589 -0.736535,0.0067 -0.845363,-0.02042 z m 1.533528,-2.120794 c 1.1677,-0.789825 0.732476,-2.602354 -0.669624,-2.78871 -0.528668,-0.07026 -1.225354,0.253902 -1.503244,0.699459 -0.427769,0.685862 -0.182565,1.692979 0.514769,2.11429 0.456199,0.275624 1.230887,0.263926 1.658099,-0.02504 z"
       id="path995"
       inkscape:connector-curvature="0" /><path
       style="fill:#cfad24;fill-opacity:1;stroke-width:0.01104854"
       d="m 12.393864,15.799293 c 0.008,-0.0032 0.0175,-0.0028 0.02118,8.73e-4 0.0037,0.0037 -0.0029,0.0063 -0.0145,0.0058 -0.01287,-5.3e-4 -0.01549,-0.0031 -0.0067,-0.0067 z"
       id="path997"
       inkscape:connector-curvature="0" /><path
       style="opacity:0.57099998;fill:url(#linearGradient1005);fill-opacity:1;stroke:none;stroke-width:0.182;stroke-linecap:butt;stroke-linejoin:round;stroke-miterlimit:4;stroke-dasharray:none;stroke-opacity:1;paint-order:normal;filter:url(#filter8866);image-rendering:auto"
       d="m 10.513394,7.5723882 c 1.515153,-4.6547434 -14.02262,1.765211 -14.02262,1.765211 l 14.542623,-6.8496451 1.260475,-3.8194353 2.960621,-1.01617 4.817365,0.130637 3.748194,1.136802 10.793924,-2.5128 -1.6575,11.4895474 1.912919,8.1807258 3.91541,14.575894 -0.518264,10.488529 c 0,0 -13.083975,-3.078428 -12.750273,-1.324695 0.410072,2.155086 -5.139552,0.47266 -13.051854,-3.005204 -0.310902,0.234446 3.30033,-1.126821 3.177371,1.375023 -0.388125,0.468909 -7.9034814,-5.161243 -7.9034814,-5.161243 z"
       id="path999"
       inkscape:connector-curvature="0"
       sodipodi:nodetypes="ccccccccccccscccc"
       inkscape:export-xdpi="834"
       inkscape:export-ydpi="834"
       transform="matrix(0.28943075,0,0,0.26923521,15.25362,14.253965)" /></g></svg>