<svg xmlns="http://www.w3.org/2000/svg" viewBox="0 0 36 36"><defs><style>.cls-1{fill:#c6e5b3;}.cls-2,.cls-6{fill:#77b255;}.cls-3{fill:#fff;}.cls-4{fill:#292f33;}.cls-5{fill:#5c913b;}.cls-6{stroke:#3f6328;stroke-miterlimit:10;stroke-width:0.25px;}.cls-7{fill:#3f6328;}.cls-8{fill:none;}</style></defs><g id="Ebene_2" data-name="Ebene 2"><g id="Ebene_1-2" data-name="Ebene 1"><path class="cls-1" d="M36,22c0,7.46-8.06,12-18,12S0,29.46,0,22,8.06,7,18,7,36,14.54,36,22Z"/><path class="cls-2" d="M31.75,12.68a6,6,0,1,0-9.6-6,11.86,11.86,0,0,0-8.3,0,6,6,0,1,0-9.61,6A13.58,13.58,0,0,0,0,22c0,7.46,8.06,1,18,1s18,6.46,18-1A13.55,13.55,0,0,0,31.75,12.68Z"/><circle class="cls-3" cx="7.5" cy="7.5" r="3.5"/><circle class="cls-4" cx="7.5" cy="7.5" r="1.5"/><circle class="cls-3" cx="28.5" cy="7.5" r="3.5"/><circle class="cls-4" cx="28.5" cy="7.5" r="1.5"/><circle class="cls-5" cx="14" cy="20" r="1"/><circle class="cls-5" cx="22" cy="20" r="1"/><g id="Ebene_2-2" data-name="Ebene 2"><g id="Ebene_1-2-2" data-name="Ebene 1-2"><path class="cls-6" d="M8.05,34.78s1.06-.1,1.36-.8a.75.75,0,0,0-.27-1h0a1.23,1.23,0,0,0,1.16-.84,1,1,0,0,0-.44-1.22,1.42,1.42,0,0,0,1.07-1,1.34,1.34,0,0,0-.5-1.32h5.43a1.08,1.08,0,0,0,1.14-1v-.11a1.06,1.06,0,0,0-1-1.09H6.74c-.44,0-.44-.44,0-.44H7.93a4.22,4.22,0,0,0,3-1.23,1.38,1.38,0,0,0,.33-1.25c-.19-.89-.86-.68-1.42-.44a19,19,0,0,1-4.24,1.14A5.36,5.36,0,0,0,6.3,34.78Z"/></g></g><g id="Ebene_2-3" data-name="Ebene 2"><g id="Ebene_1-2-3" data-name="Ebene 1-2"><path class="cls-5" d="M28.13,34.88a5,5,0,0,1-3.35-1.16,6.35,6.35,0,0,1-2.13-4.22,1.26,1.26,0,0,1,1-1.16l.2,0a1.23,1.23,0,0,1,1.23,1A5.3,5.3,0,0,0,25.51,31a.34.34,0,0,0,.2.19l2.34,1,.11,0,1.19-.66a.33.33,0,0,0,.11-.1l1.29-2.29a.22.22,0,0,0,0-.26,15.63,15.63,0,0,0-2.69-2.62,5.18,5.18,0,0,0-1.65.61c-.07.07-.76,1-.81,1.12a1.24,1.24,0,0,1-.93.42,1.21,1.21,0,0,1-.74-.24,1.28,1.28,0,0,1-.5-.84,1.25,1.25,0,0,1,.25-.91l1-1.37a.54.54,0,0,1,.23-.18l2.63-1.14a.88.88,0,0,1,.49-.14.9.9,0,0,1,.55.17A15,15,0,0,1,30.34,25l-1.72-3.83a1.26,1.26,0,0,1,.7-1.62h0a1.31,1.31,0,0,1,.57-.66,1.26,1.26,0,0,1,1.69.49L34.19,24a22.92,22.92,0,0,1,.9,2.93,7.46,7.46,0,0,1-.71,3.53c-1.77,3.7-3.07,4-5.21,4.32A7.63,7.63,0,0,1,28.13,34.88Z"/><path class="cls-7" d="M30.53,18.84a1.13,1.13,0,0,1,1,.58l2.57,4.66A22.1,22.1,0,0,1,35,27a7.32,7.32,0,0,1-.7,3.45c-1.78,3.71-3.07,4-5.12,4.25a7.39,7.39,0,0,1-1,.07,4.91,4.91,0,0,1-3.27-1.13,6.25,6.25,0,0,1-2.09-4.13,1.14,1.14,0,0,1,.94-1l.18,0a1.13,1.13,0,0,1,1.11.94A5.28,5.28,0,0,0,25.4,31a.47.47,0,0,0,.26.26l2.34,1h.08a.23.23,0,0,0,.14,0l1.19-.66a.4.4,0,0,0,.15-.14l1.3-2.3a.34.34,0,0,0,0-.4s-2.39-2.67-2.79-2.67a5.51,5.51,0,0,0-1.71.63c-.07,0-.86,1.15-.86,1.17a1.12,1.12,0,0,1-1.71-1.43l1-1.38a.49.49,0,0,1,.18-.14l2.63-1.14a.78.78,0,0,1,.44-.13.85.85,0,0,1,.48.15,14.42,14.42,0,0,1,2.06,1.58L30.49,25l-1.76-3.92a1.13,1.13,0,0,1,.64-1.45l.09,0A1.11,1.11,0,0,1,30,19a1.17,1.17,0,0,1,.54-.14m0-.25h0a1.38,1.38,0,0,0-.66.17,1.4,1.4,0,0,0-.6.67,1.38,1.38,0,0,0-.77,1.77L30,24.55c-.41-.33-.85-.64-1.34-1A1.13,1.13,0,0,0,28,23.4a1.12,1.12,0,0,0-.58.17l-2.59,1.12a.66.66,0,0,0-.27.21l-1,1.39a1.32,1.32,0,0,0-.27,1,1.39,1.39,0,0,0,.52.91h-.15a1.39,1.39,0,0,0-1.15,1.26,6.52,6.52,0,0,0,2.17,4.34A5.18,5.18,0,0,0,28.13,35a7.71,7.71,0,0,0,1.05-.07c2.19-.29,3.51-.64,5.32-4.39a7.57,7.57,0,0,0,.72-3.6,21.85,21.85,0,0,0-.91-3L31.73,19.3a1.36,1.36,0,0,0-1.2-.71Zm-4.8,9.35c.15-.22.69-1,.77-1.05A5.17,5.17,0,0,1,28,26.33a18.69,18.69,0,0,1,2.61,2.58.09.09,0,0,1,0,.1l-1.31,2.31,0,0L28.1,32l-2.34-1a.27.27,0,0,1-.13-.13,5.12,5.12,0,0,1-.38-1.54,1.35,1.35,0,0,0-.52-.88,1.39,1.39,0,0,0,.93-.44l.07-.07v0Z"/><path class="cls-5" d="M31.25,28.08l-.76-3-1.76-3.92a1.12,1.12,0,1,1,2.09-.81l2.76,7Z"/><path class="cls-2" d="M35,27a22.1,22.1,0,0,0-.89-2.9l-2.57-4.66a1.12,1.12,0,0,0-2,1l2.37,4.24.61,2.44-1.78-1.6a14.42,14.42,0,0,0-2.19-1.7.83.83,0,0,0-.92,0L25,24.92a.49.49,0,0,0-.18.14l-1,1.38a1.12,1.12,0,0,0,1.71,1.43s.79-1.13.86-1.17a5.51,5.51,0,0,1,1.71-.63c.4,0,2.79,2.67,2.79,2.67a.34.34,0,0,1,0,.4l-1.3,2.3a.4.4,0,0,1-.15.14l-1.19.66a.28.28,0,0,1-.22,0l-2.34-1A.47.47,0,0,1,25.4,31a5.28,5.28,0,0,1-.4-1.62,1.12,1.12,0,0,0-1.29-.92,1.14,1.14,0,0,0-.94,1,6.25,6.25,0,0,0,2.09,4.13,5.23,5.23,0,0,0,4.29,1.06c2.05-.27,3.34-.54,5.12-4.25A7.32,7.32,0,0,0,35,27Z"/></g></g><rect class="cls-8" width="36" height="36"/></g></g></svg>