<?xml version="1.0" encoding="utf-8"?>
<!-- Generator: Adobe Illustrator 25.0.0, SVG Export Plug-In . SVG Version: 6.00 Build 0)  -->
<svg version="1.1" id="Ebene_1" xmlns="http://www.w3.org/2000/svg" xmlns:xlink="http://www.w3.org/1999/xlink" x="0px" y="0px"
	 viewBox="0 0 421.2 421.2" style="enable-background:new 0 0 421.2 421.2;" xml:space="preserve">
<style type="text/css">
	.st0{fill:#78B254;}
	.st1{fill:#C6DFB2;}
	.st2{fill:#8E7064;}
	.st3{fill:#5C913B;}
	.st4{fill:#FFFFFF;}
	.st5{fill:#2B3135;}
	.st6{fill:none;}
</style>
<g id="Ebene_2_1_">
	<g id="Ebene_1-2">
		<path class="st0" d="M33.8,279.4c14.1-62,62.5-114.1,122.8-133.9c32.9-11.8,69.7-18.4,103.8-7.8c39,11.6,60,50.1,75,85.1
			c5.1,8.9,1,21.5,9.2,28.4c44,30.1,70.2,101.7,19.6,138.2C265.6,324.9,148.6,297.7,33.8,279.4z"/>
		<path class="st1" d="M33.8,279.4c114.8,18.4,231.9,45.6,330.4,110c-42.9,35-128,33-181.6,31C92.8,416.2,8,387.3,33.8,279.4z"/>
		<path class="st0" d="M386.2,362.5c-5.2,10.5-12.7,19.7-22,26.8c-98.5-64.4-215.6-91.6-330.4-110c18.9-87,105.1-146.8,192-147.1
			l5.2-20.3c-3.9-0.1-7.9-0.1-11.8,0.2c-3-21.3-9.8-111.6,20.6-112.1c16.9,0.3,25,18.2,39.8,23.6c21.2,7.6,53.1-12.3,67.2,12.3
			c6.7,11.1-2.8,26.1,7.6,35.7c12.9,9.8,33.2,13.5,36.4,31.9c3.1,32.3-41.6,5.7-72.2,49.6c-3.1-3.4-5.8-7.3-9.2-10.5l-10.6,18.9
			c15.8,17.8,27.6,39.3,36.7,61.3c5.1,8.9,1,21.5,9.2,28.4C377.8,275.3,404.5,322,386.2,362.5z"/>
		<path class="st2" d="M297.8,132.7c7.7,5.9,14.7,12.7,20.7,20.3c8.2,10.1,10.2,23.6-4.9,27.9c-26.8-41.7-64.2-51.7-105-48
			c-11.5-31.8,38.9-19.9,55.3-16.1C276,120.1,287.4,125.8,297.8,132.7z"/>
		<path class="st3" d="M166.7,290.9c-0.6-14.5,23.6-15.5,23.1,0.1C190.1,306.4,166.1,305.7,166.7,290.9z"/>
		<path class="st3" d="M216.1,308.6c-0.6-14.5,23.4-15.7,23.1,0.1C239.5,323.9,215.5,323.4,216.1,308.6z"/>
		<path class="st3" d="M297.8,132.7c-6.7-4.5-13.8-8.3-21.1-11.6C306.5,77.4,319.2,84.1,297.8,132.7z"/>
		<path class="st4" d="M170,205.9c0.5,52-80.5,54.1-81,0C89.9,151.9,169.7,153.4,170,205.9z"/>
		<path class="st4" d="M333.6,337.5c-52.5-0.1-54.1-80.2,0-81C387.1,257,386.2,337.4,333.6,337.5z"/>
		<path class="st5" d="M129.4,223.3c-22.7-0.1-22.6-34.8,0.1-34.8C152.3,188.7,152.3,223.2,129.4,223.3z"/>
		<path class="st5" d="M316.2,297c0.1-22.2,34.5-23.2,34.8,0.1C350.9,319.9,316.2,319.8,316.2,297z"/>
		<rect y="0" class="st6" width="421.2" height="421.2"/>
	</g>
</g>
</svg>
