<svg xmlns="http://www.w3.org/2000/svg" viewBox="0 0 387.13 387.13"><defs><style>.cls-1{fill:#c6e5b3;}.cls-2{fill:#77b255;}.cls-3{fill:#5c913b;}.cls-4{fill:#fff;}.cls-5{fill:#292f33;}.cls-6{fill:none;}</style></defs><g id="Ebene_2" data-name="Ebene 2"><g id="Ebene_1-2" data-name="Ebene 1"><path class="cls-1" d="M164,99.65h87.13c48.16,90.46,50.75,186.48,12.52,287.48H116.52c-32.36-60.57-29.33-129.31,15.9-174.23a19.52,19.52,0,0,0,5.73-15.64C134.75,160.38,141.58,128.68,164,99.65Z"/><path class="cls-2" d="M109.21,37.57h15.92c20.6,0,38.87,20.86,38.87,62.08h87.13c-6.31-37,5.65-61.61,41.06-70.17L260.52,0H109.21Z"/><rect class="cls-3" x="109.21" width="15.65" height="37.57"/><path class="cls-3" d="M159.91,69.36c-5.13,16.13-18.45,25-35.83,30.29L117,90c16.54-10.81,27.51-24.93,26-46.47C151,49.76,156.7,58.25,159.91,69.36Z"/><circle class="cls-4" cx="174.76" cy="30.45" r="21.97"/><circle class="cls-5" cx="174.76" cy="30.45" r="9.42"/><circle class="cls-4" cx="234.69" cy="30.45" r="21.97"/><circle class="cls-5" cx="234.69" cy="30.45" r="9.42"/><rect class="cls-6" width="387.13" height="387.13"/></g></g></svg>