<?xml version="1.0" encoding="UTF-8" standalone="no"?>
<svg
   xmlns:dc="http://purl.org/dc/elements/1.1/"
   xmlns:cc="http://creativecommons.org/ns#"
   xmlns:rdf="http://www.w3.org/1999/02/22-rdf-syntax-ns#"
   xmlns:svg="http://www.w3.org/2000/svg"
   xmlns="http://www.w3.org/2000/svg"
   xmlns:sodipodi="http://sodipodi.sourceforge.net/DTD/sodipodi-0.dtd"
   xmlns:inkscape="http://www.inkscape.org/namespaces/inkscape"
   viewBox="0 0 45 45"
   style="enable-background:new 0 0 45 45;"
   xml:space="preserve"
   version="1.1"
   id="svg2"
   sodipodi:docname="frogwhisky.svg"
   inkscape:version="1.0 (4035a4fb49, 2020-05-01)"><sodipodi:namedview
     inkscape:document-rotation="0"
     pagecolor="#ffffff"
     bordercolor="#666666"
     borderopacity="1"
     objecttolerance="10"
     gridtolerance="10"
     guidetolerance="10"
     inkscape:pageopacity="0"
     inkscape:pageshadow="2"
     inkscape:window-width="1920"
     inkscape:window-height="1030"
     id="namedview879"
     showgrid="false"
     inkscape:zoom="16"
     inkscape:cx="22.463872"
     inkscape:cy="36.929895"
     inkscape:window-x="1600"
     inkscape:window-y="50"
     inkscape:window-maximized="1"
     inkscape:current-layer="g1516" /><metadata
     id="metadata8"><rdf:RDF><cc:Work
         rdf:about=""><dc:format>image/svg+xml</dc:format><dc:type
           rdf:resource="http://purl.org/dc/dcmitype/StillImage" /><dc:title /></cc:Work></rdf:RDF></metadata><defs
     id="defs6"><clipPath
       id="clipPath16"
       clipPathUnits="userSpaceOnUse"><path
         id="path18"
         d="M 0,36 36,36 36,0 0,0 0,36 Z" /></clipPath></defs><g
     transform="matrix(1.25,0,0,-1.25,0,45)"
     id="g10"><g
       id="g12"><g
         clip-path="url(#clipPath16)"
         id="g14"><g
           transform="translate(36,14)"
           id="g20"><path
             id="path22"
             style="fill:#c6e5b3;fill-opacity:1;fill-rule:nonzero;stroke:none"
             d="m 0,0 c 0,-7.456 -8.059,-12 -18,-12 -9.941,0 -18,4.544 -18,12 0,7.456 8.059,15 18,15 C -8.059,15 0,7.456 0,0" /></g><g
           transform="translate(31.7549,23.3242)"
           id="g24"><path
             id="path26"
             style="fill:#77b255;fill-opacity:1;fill-rule:nonzero;stroke:none"
             d="m 0,0 c 1.368,1.1 2.245,2.785 2.245,4.676 0,3.313 -2.686,6 -6,6 -2.861,0 -5.25,-2.005 -5.85,-4.685 -1.289,0.483 -2.684,0.758 -4.15,0.758 -1.465,0 -2.861,-0.275 -4.149,-0.758 -0.601,2.68 -2.99,4.685 -5.851,4.685 -3.313,0 -6,-2.687 -6,-6 0,-1.891 0.878,-3.576 2.245,-4.676 -2.645,-2.68 -4.245,-6.009 -4.245,-9.324 0,-7.456 8.059,-1 18,-1 9.942,0 18,-6.456 18,1 C 4.245,-6.009 2.646,-2.68 0,0" /></g><g
           transform="translate(11,28.5)"
           id="g28"><path
             id="path30"
             style="fill:#ffffff;fill-opacity:1;fill-rule:nonzero;stroke:none"
             d="M 0,0 C 0,-1.933 -1.567,-3.5 -3.5,-3.5 -5.433,-3.5 -7,-1.933 -7,0 -7,1.933 -5.433,3.5 -3.5,3.5 -1.567,3.5 0,1.933 0,0" /></g><g
           transform="translate(9,28.5)"
           id="g32"><path
             id="path34"
             style="fill:#292f33;fill-opacity:1;fill-rule:nonzero;stroke:none"
             d="M 0,0 C 0,-0.829 -0.671,-1.5 -1.5,-1.5 -2.329,-1.5 -3,-0.829 -3,0 -3,0.829 -2.329,1.5 -1.5,1.5 -0.671,1.5 0,0.829 0,0" /></g><g
           transform="translate(32,28.5)"
           id="g36"><path
             id="path38"
             style="fill:#ffffff;fill-opacity:1;fill-rule:nonzero;stroke:none"
             d="M 0,0 C 0,-1.933 -1.566,-3.5 -3.5,-3.5 -5.434,-3.5 -7,-1.933 -7,0 -7,1.933 -5.434,3.5 -3.5,3.5 -1.566,3.5 0,1.933 0,0" /></g><g
           transform="translate(30,28.5)"
           id="g40"><path
             id="path42"
             style="fill:#292f33;fill-opacity:1;fill-rule:nonzero;stroke:none"
             d="M 0,0 C 0,-0.829 -0.672,-1.5 -1.5,-1.5 -2.328,-1.5 -3,-0.829 -3,0 -3,0.829 -2.328,1.5 -1.5,1.5 -0.672,1.5 0,0.829 0,0" /></g><g
           transform="translate(15,16)"
           id="g44"><path
             id="path46"
             style="fill:#5c913b;fill-opacity:1;fill-rule:nonzero;stroke:none"
             d="m 0,0 c 0,-0.553 -0.448,-1 -1,-1 -0.552,0 -1,0.447 -1,1 0,0.553 0.448,1 1,1 0.552,0 1,-0.447 1,-1" /></g><g
           transform="translate(23,16)"
           id="g48"><path
             id="path50"
             style="fill:#5c913b;fill-opacity:1;fill-rule:nonzero;stroke:none"
             d="m 0,0 c 0,-0.553 -0.447,-1 -1,-1 -0.553,0 -1,0.447 -1,1 0,0.553 0.447,1 1,1 0.553,0 1,-0.447 1,-1" /></g></g></g></g><g
     id="g1516"
     transform="matrix(0.58741355,0,0,0.58741355,19.186122,20.218643)"><path
       style="fill:#ccd6dd;fill-opacity:0.75;stroke-width:0.799812"
       fill="#ccd6dd"
       d="m 16.5273,14.498029 2.137154,12.252287 H 38.96083 l 2.353282,-12.663942 z"
       id="path2" /><path
       transform="matrix(1.7023782,0,0,1.7023782,-32.662035,-34.419776)"
       d="M 42.425781 34.335938 C 42.427485 34.345723 42.433163 34.355389 42.433594 34.365234 C 42.433638 34.364563 42.435547 34.335938 42.435547 34.335938 L 42.425781 34.335938 z M 42.429688 34.394531 C 42.426364 34.405453 42.424265 34.416968 42.421875 34.427734 C 42.328231 34.826512 41.183404 35.172383 39.488281 35.373047 L 32.898438 35.388672 C 31.132605 35.190556 29.929538 34.834751 29.833984 34.425781 C 29.833673 34.424382 29.832418 34.423275 29.832031 34.421875 L 29.820312 34.421875 C 29.820312 34.421875 30.444634 40.810547 31.802734 40.810547 L 40.625 40.810547 C 41.992359 40.810547 42.417475 34.57681 42.429688 34.394531 z "
       style="fill:#e27e00;fill-opacity:0.835974;stroke-width:0.587414"
       id="path4" /><path
       style="fill:#ffac00;fill-opacity:0.920855;stroke-width:1.10767"
       fill="#ffb900"
       d="m 28.841453,22.086242 c -5.929808,0 -10.737206,0.94017 -10.737206,2.098691 0,0.03167 0.01734,0.06222 0.02386,0.09277 0.162669,0.726339 2.209038,1.356512 5.215153,1.708369 l 11.217621,-0.02602 c 2.88574,-0.356382 4.835592,-0.972978 4.995009,-1.681215 0.0065,-0.03055 0.02386,-0.06108 0.02386,-0.09277 -0.0011,-1.16079 -4.808488,-2.099827 -10.738299,-2.099827 z"
       id="path6" /><path
       style="fill:#8899a6;fill-opacity:0.85"
       fill="#8899a6"
       d="m 41.085735,12.635374 c -0.649,-0.048 -1.217,0.418 -1.276,1.064 l -1.478,16.255 c -0.57,3.084 -1.958,4.851 -6.334,4.851 h -6 c -4.596,0 -5.896,-1.947 -6.414,-5.324 l -1.435,-15.782 c -0.059,-0.646 -0.624,-1.12 -1.276,-1.064 -0.646,0.059 -1.122,0.63 -1.063,1.276 l 2.005,22.049 c 0.256,1.919 1.41,3.02 3.165,3.02 h 16 c 2.535,0 3.022,-1.737 3.17,-3.068 l 2,-22 c 0.058,-0.647 -0.418,-1.218 -1.064,-1.277 z"
       id="path18-3" /><path
       style="fill:#ccd6dd;fill-opacity:0.75"
       fill="#ccd6dd"
       d="m 42.197735,13.803374 c 0,1.85 -4.028,3.35 -13.2,3.35 -9.172,0 -13.2,-1.5 -13.2,-3.35 0,-1.851 4.028,-3.35 13.2,-3.35 9.172,0 13.2,1.499 13.2,3.35 z"
       id="path20" /><path
       style="fill:#ffffff;fill-opacity:0.75"
       fill="#ffffff"
       d="m 41.526735,13.908374 c -0.286,-0.471 -0.901,-0.621 -1.374,-0.336 -2.333,1.416 -8.813,1.604 -11.121,1.546 -0.008,0 -0.014,0.004 -0.022,0.004 -0.007,0 -0.014,-0.004 -0.021,-0.004 -2.3,0.057 -8.785,-0.129 -11.121,-1.546 -0.472,-0.286 -1.087,-0.137 -1.374,0.336 -0.287,0.473 -0.136,1.087 0.336,1.374 2.795,1.696 9.322,1.842 11.495,1.842 0.37,0 0.607,-0.004 0.685,-0.005 0.078,0.001 0.314,0.005 0.685,0.005 2.173,0 8.7,-0.147 11.495,-1.842 0.473,-0.288 0.623,-0.902 0.337,-1.374 z"
       id="path22-6" /></g></svg>
