<?xml version="1.0" encoding="UTF-8" standalone="no"?>
<svg
   xmlns:dc="http://purl.org/dc/elements/1.1/"
   xmlns:cc="http://creativecommons.org/ns#"
   xmlns:rdf="http://www.w3.org/1999/02/22-rdf-syntax-ns#"
   xmlns:svg="http://www.w3.org/2000/svg"
   xmlns="http://www.w3.org/2000/svg"
   xmlns:sodipodi="http://sodipodi.sourceforge.net/DTD/sodipodi-0.dtd"
   xmlns:inkscape="http://www.inkscape.org/namespaces/inkscape"
   viewBox="0 0 45 45"
   style="enable-background:new 0 0 45 45;"
   xml:space="preserve"
   version="1.1"
   id="svg2"
   sodipodi:docname="frogs.svg"
   inkscape:version="0.92.4 5da689c313, 2019-01-14"><sodipodi:namedview
     pagecolor="#ffffff"
     bordercolor="#666666"
     borderopacity="1"
     objecttolerance="10"
     gridtolerance="10"
     guidetolerance="10"
     inkscape:pageopacity="0"
     inkscape:pageshadow="2"
     inkscape:window-width="1920"
     inkscape:window-height="1030"
     id="namedview26"
     showgrid="false"
     inkscape:zoom="14.833529"
     inkscape:cx="18.192715"
     inkscape:cy="14.185278"
     inkscape:window-x="1600"
     inkscape:window-y="50"
     inkscape:window-maximized="0"
     inkscape:current-layer="svg2" /><metadata
     id="metadata8"><rdf:RDF><cc:Work
         rdf:about=""><dc:format>image/svg+xml</dc:format><dc:type
           rdf:resource="http://purl.org/dc/dcmitype/StillImage" /></cc:Work></rdf:RDF></metadata><defs
     id="defs6"><clipPath
       id="clipPath16"
       clipPathUnits="userSpaceOnUse"><path
         id="path18"
         d="M 0,36 36,36 36,0 0,0 0,36 Z" /></clipPath></defs><g
     transform="matrix(0.61798981,0,0,-0.61798981,22.010945,28.972131)"
     id="g10"><g
       id="g12"><g
         clip-path="url(#clipPath16)"
         id="g14"><g
           transform="translate(36,14)"
           id="g20"><path
             id="path22"
             style="fill:#c6e5b3;fill-opacity:1;fill-rule:nonzero;stroke:none"
             d="m 0,0 c 0,-7.456 -8.059,-12 -18,-12 -9.941,0 -18,4.544 -18,12 0,7.456 8.059,15 18,15 C -8.059,15 0,7.456 0,0"
             inkscape:connector-curvature="0" /></g><g
           transform="translate(31.7549,23.3242)"
           id="g24"><path
             id="path26"
             style="fill:#77b255;fill-opacity:1;fill-rule:nonzero;stroke:none"
             d="m 0,0 c 1.368,1.1 2.245,2.785 2.245,4.676 0,3.313 -2.686,6 -6,6 -2.861,0 -5.25,-2.005 -5.85,-4.685 -1.289,0.483 -2.684,0.758 -4.15,0.758 -1.465,0 -2.861,-0.275 -4.149,-0.758 -0.601,2.68 -2.99,4.685 -5.851,4.685 -3.313,0 -6,-2.687 -6,-6 0,-1.891 0.878,-3.576 2.245,-4.676 -2.645,-2.68 -4.245,-6.009 -4.245,-9.324 0,-7.456 8.059,-1 18,-1 9.942,0 18,-6.456 18,1 C 4.245,-6.009 2.646,-2.68 0,0"
             inkscape:connector-curvature="0" /></g><g
           transform="translate(11,28.5)"
           id="g28"><path
             id="path30"
             style="fill:#ffffff;fill-opacity:1;fill-rule:nonzero;stroke:none"
             d="M 0,0 C 0,-1.933 -1.567,-3.5 -3.5,-3.5 -5.433,-3.5 -7,-1.933 -7,0 -7,1.933 -5.433,3.5 -3.5,3.5 -1.567,3.5 0,1.933 0,0"
             inkscape:connector-curvature="0" /></g><g
           transform="translate(9,28.5)"
           id="g32"><path
             id="path34"
             style="fill:#292f33;fill-opacity:1;fill-rule:nonzero;stroke:none"
             d="M 0,0 C 0,-0.829 -0.671,-1.5 -1.5,-1.5 -2.329,-1.5 -3,-0.829 -3,0 -3,0.829 -2.329,1.5 -1.5,1.5 -0.671,1.5 0,0.829 0,0"
             inkscape:connector-curvature="0" /></g><g
           transform="translate(32,28.5)"
           id="g36"><path
             id="path38"
             style="fill:#ffffff;fill-opacity:1;fill-rule:nonzero;stroke:none"
             d="M 0,0 C 0,-1.933 -1.566,-3.5 -3.5,-3.5 -5.434,-3.5 -7,-1.933 -7,0 -7,1.933 -5.434,3.5 -3.5,3.5 -1.566,3.5 0,1.933 0,0"
             inkscape:connector-curvature="0" /></g><g
           transform="translate(30,28.5)"
           id="g40"><path
             id="path42"
             style="fill:#292f33;fill-opacity:1;fill-rule:nonzero;stroke:none"
             d="M 0,0 C 0,-0.829 -0.672,-1.5 -1.5,-1.5 -2.328,-1.5 -3,-0.829 -3,0 -3,0.829 -2.328,1.5 -1.5,1.5 -0.672,1.5 0,0.829 0,0"
             inkscape:connector-curvature="0" /></g><g
           transform="translate(15,16)"
           id="g44"><path
             id="path46"
             style="fill:#5c913b;fill-opacity:1;fill-rule:nonzero;stroke:none"
             d="m 0,0 c 0,-0.553 -0.448,-1 -1,-1 -0.552,0 -1,0.447 -1,1 0,0.553 0.448,1 1,1 0.552,0 1,-0.447 1,-1"
             inkscape:connector-curvature="0" /></g><g
           transform="translate(23,16)"
           id="g48"><path
             id="path50"
             style="fill:#5c913b;fill-opacity:1;fill-rule:nonzero;stroke:none"
             d="m 0,0 c 0,-0.553 -0.447,-1 -1,-1 -0.553,0 -1,0.447 -1,1 0,0.553 0.447,1 1,1 0.553,0 1,-0.447 1,-1"
             inkscape:connector-curvature="0" /></g></g></g></g><g
     id="g880"
     transform="matrix(0.61076139,0,0,-0.61076139,4.428906,22.727445)"><g
       id="g878"><g
         id="g876"
         clip-path="url(#clipPath16)"><g
           id="g846"
           transform="translate(36,14)"><path
             inkscape:connector-curvature="0"
             d="m 0,0 c 0,-7.456 -8.059,-12 -18,-12 -9.941,0 -18,4.544 -18,12 0,7.456 8.059,15 18,15 C -8.059,15 0,7.456 0,0"
             style="fill:#c6e5b3;fill-opacity:1;fill-rule:nonzero;stroke:none"
             id="path844" /></g><g
           id="g850"
           transform="translate(31.7549,23.3242)"><path
             inkscape:connector-curvature="0"
             d="m 0,0 c 1.368,1.1 2.245,2.785 2.245,4.676 0,3.313 -2.686,6 -6,6 -2.861,0 -5.25,-2.005 -5.85,-4.685 -1.289,0.483 -2.684,0.758 -4.15,0.758 -1.465,0 -2.861,-0.275 -4.149,-0.758 -0.601,2.68 -2.99,4.685 -5.851,4.685 -3.313,0 -6,-2.687 -6,-6 0,-1.891 0.878,-3.576 2.245,-4.676 -2.645,-2.68 -4.245,-6.009 -4.245,-9.324 0,-7.456 8.059,-1 18,-1 9.942,0 18,-6.456 18,1 C 4.245,-6.009 2.646,-2.68 0,0"
             style="fill:#77b255;fill-opacity:1;fill-rule:nonzero;stroke:none"
             id="path848" /></g><g
           id="g854"
           transform="translate(11,28.5)"><path
             inkscape:connector-curvature="0"
             d="M 0,0 C 0,-1.933 -1.567,-3.5 -3.5,-3.5 -5.433,-3.5 -7,-1.933 -7,0 -7,1.933 -5.433,3.5 -3.5,3.5 -1.567,3.5 0,1.933 0,0"
             style="fill:#ffffff;fill-opacity:1;fill-rule:nonzero;stroke:none"
             id="path852" /></g><g
           id="g858"
           transform="translate(9,28.5)"><path
             inkscape:connector-curvature="0"
             d="M 0,0 C 0,-0.829 -0.671,-1.5 -1.5,-1.5 -2.329,-1.5 -3,-0.829 -3,0 -3,0.829 -2.329,1.5 -1.5,1.5 -0.671,1.5 0,0.829 0,0"
             style="fill:#292f33;fill-opacity:1;fill-rule:nonzero;stroke:none"
             id="path856" /></g><g
           id="g862"
           transform="translate(32,28.5)"><path
             inkscape:connector-curvature="0"
             d="M 0,0 C 0,-1.933 -1.566,-3.5 -3.5,-3.5 -5.434,-3.5 -7,-1.933 -7,0 -7,1.933 -5.434,3.5 -3.5,3.5 -1.566,3.5 0,1.933 0,0"
             style="fill:#ffffff;fill-opacity:1;fill-rule:nonzero;stroke:none"
             id="path860" /></g><g
           id="g866"
           transform="translate(30,28.5)"><path
             inkscape:connector-curvature="0"
             d="M 0,0 C 0,-0.829 -0.672,-1.5 -1.5,-1.5 -2.328,-1.5 -3,-0.829 -3,0 -3,0.829 -2.328,1.5 -1.5,1.5 -0.672,1.5 0,0.829 0,0"
             style="fill:#292f33;fill-opacity:1;fill-rule:nonzero;stroke:none"
             id="path864" /></g><g
           id="g870"
           transform="translate(15,16)"><path
             inkscape:connector-curvature="0"
             d="m 0,0 c 0,-0.553 -0.448,-1 -1,-1 -0.552,0 -1,0.447 -1,1 0,0.553 0.448,1 1,1 0.552,0 1,-0.447 1,-1"
             style="fill:#5c913b;fill-opacity:1;fill-rule:nonzero;stroke:none"
             id="path868" /></g><g
           id="g874"
           transform="translate(23,16)"><path
             inkscape:connector-curvature="0"
             d="m 0,0 c 0,-0.553 -0.447,-1 -1,-1 -0.553,0 -1,0.447 -1,1 0,0.553 0.447,1 1,1 0.553,0 1,-0.447 1,-1"
             style="fill:#5c913b;fill-opacity:1;fill-rule:nonzero;stroke:none"
             id="path872" /></g></g></g></g><g
     transform="matrix(0.60812305,0,0,-0.60812305,2.0619931,37.149776)"
     id="g918"><g
       id="g916"><g
         clip-path="url(#clipPath16)"
         id="g914"><g
           transform="translate(36,14)"
           id="g884"><path
             id="path882"
             style="fill:#c6e5b3;fill-opacity:1;fill-rule:nonzero;stroke:none"
             d="m 0,0 c 0,-7.456 -8.059,-12 -18,-12 -9.941,0 -18,4.544 -18,12 0,7.456 8.059,15 18,15 C -8.059,15 0,7.456 0,0"
             inkscape:connector-curvature="0" /></g><g
           transform="translate(31.7549,23.3242)"
           id="g888"><path
             id="path886"
             style="fill:#77b255;fill-opacity:1;fill-rule:nonzero;stroke:none"
             d="m 0,0 c 1.368,1.1 2.245,2.785 2.245,4.676 0,3.313 -2.686,6 -6,6 -2.861,0 -5.25,-2.005 -5.85,-4.685 -1.289,0.483 -2.684,0.758 -4.15,0.758 -1.465,0 -2.861,-0.275 -4.149,-0.758 -0.601,2.68 -2.99,4.685 -5.851,4.685 -3.313,0 -6,-2.687 -6,-6 0,-1.891 0.878,-3.576 2.245,-4.676 -2.645,-2.68 -4.245,-6.009 -4.245,-9.324 0,-7.456 8.059,-1 18,-1 9.942,0 18,-6.456 18,1 C 4.245,-6.009 2.646,-2.68 0,0"
             inkscape:connector-curvature="0" /></g><g
           transform="translate(11,28.5)"
           id="g892"><path
             id="path890"
             style="fill:#ffffff;fill-opacity:1;fill-rule:nonzero;stroke:none"
             d="M 0,0 C 0,-1.933 -1.567,-3.5 -3.5,-3.5 -5.433,-3.5 -7,-1.933 -7,0 -7,1.933 -5.433,3.5 -3.5,3.5 -1.567,3.5 0,1.933 0,0"
             inkscape:connector-curvature="0" /></g><g
           transform="translate(9,28.5)"
           id="g896"><path
             id="path894"
             style="fill:#292f33;fill-opacity:1;fill-rule:nonzero;stroke:none"
             d="M 0,0 C 0,-0.829 -0.671,-1.5 -1.5,-1.5 -2.329,-1.5 -3,-0.829 -3,0 -3,0.829 -2.329,1.5 -1.5,1.5 -0.671,1.5 0,0.829 0,0"
             inkscape:connector-curvature="0" /></g><g
           transform="translate(32,28.5)"
           id="g900"><path
             id="path898"
             style="fill:#ffffff;fill-opacity:1;fill-rule:nonzero;stroke:none"
             d="M 0,0 C 0,-1.933 -1.566,-3.5 -3.5,-3.5 -5.434,-3.5 -7,-1.933 -7,0 -7,1.933 -5.434,3.5 -3.5,3.5 -1.566,3.5 0,1.933 0,0"
             inkscape:connector-curvature="0" /></g><g
           transform="translate(30,28.5)"
           id="g904"><path
             id="path902"
             style="fill:#292f33;fill-opacity:1;fill-rule:nonzero;stroke:none"
             d="M 0,0 C 0,-0.829 -0.672,-1.5 -1.5,-1.5 -2.328,-1.5 -3,-0.829 -3,0 -3,0.829 -2.328,1.5 -1.5,1.5 -0.672,1.5 0,0.829 0,0"
             inkscape:connector-curvature="0" /></g><g
           transform="translate(15,16)"
           id="g908"><path
             id="path906"
             style="fill:#5c913b;fill-opacity:1;fill-rule:nonzero;stroke:none"
             d="m 0,0 c 0,-0.553 -0.448,-1 -1,-1 -0.552,0 -1,0.447 -1,1 0,0.553 0.448,1 1,1 0.552,0 1,-0.447 1,-1"
             inkscape:connector-curvature="0" /></g><g
           transform="translate(23,16)"
           id="g912"><path
             id="path910"
             style="fill:#5c913b;fill-opacity:1;fill-rule:nonzero;stroke:none"
             d="m 0,0 c 0,-0.553 -0.447,-1 -1,-1 -0.553,0 -1,0.447 -1,1 0,0.553 0.447,1 1,1 0.553,0 1,-0.447 1,-1"
             inkscape:connector-curvature="0" /></g></g></g></g><g
     id="g956"
     transform="matrix(0.61061636,0,0,-0.61061636,17.456087,45.70997)"><g
       id="g954"><g
         id="g952"
         clip-path="url(#clipPath16)"><g
           id="g922"
           transform="translate(36,14)"><path
             inkscape:connector-curvature="0"
             d="m 0,0 c 0,-7.456 -8.059,-12 -18,-12 -9.941,0 -18,4.544 -18,12 0,7.456 8.059,15 18,15 C -8.059,15 0,7.456 0,0"
             style="fill:#c6e5b3;fill-opacity:1;fill-rule:nonzero;stroke:none"
             id="path920" /></g><g
           id="g926"
           transform="translate(31.7549,23.3242)"><path
             inkscape:connector-curvature="0"
             d="m 0,0 c 1.368,1.1 2.245,2.785 2.245,4.676 0,3.313 -2.686,6 -6,6 -2.861,0 -5.25,-2.005 -5.85,-4.685 -1.289,0.483 -2.684,0.758 -4.15,0.758 -1.465,0 -2.861,-0.275 -4.149,-0.758 -0.601,2.68 -2.99,4.685 -5.851,4.685 -3.313,0 -6,-2.687 -6,-6 0,-1.891 0.878,-3.576 2.245,-4.676 -2.645,-2.68 -4.245,-6.009 -4.245,-9.324 0,-7.456 8.059,-1 18,-1 9.942,0 18,-6.456 18,1 C 4.245,-6.009 2.646,-2.68 0,0"
             style="fill:#77b255;fill-opacity:1;fill-rule:nonzero;stroke:none"
             id="path924" /></g><g
           id="g930"
           transform="translate(11,28.5)"><path
             inkscape:connector-curvature="0"
             d="M 0,0 C 0,-1.933 -1.567,-3.5 -3.5,-3.5 -5.433,-3.5 -7,-1.933 -7,0 -7,1.933 -5.433,3.5 -3.5,3.5 -1.567,3.5 0,1.933 0,0"
             style="fill:#ffffff;fill-opacity:1;fill-rule:nonzero;stroke:none"
             id="path928" /></g><g
           id="g934"
           transform="translate(9,28.5)"><path
             inkscape:connector-curvature="0"
             d="M 0,0 C 0,-0.829 -0.671,-1.5 -1.5,-1.5 -2.329,-1.5 -3,-0.829 -3,0 -3,0.829 -2.329,1.5 -1.5,1.5 -0.671,1.5 0,0.829 0,0"
             style="fill:#292f33;fill-opacity:1;fill-rule:nonzero;stroke:none"
             id="path932" /></g><g
           id="g938"
           transform="translate(32,28.5)"><path
             inkscape:connector-curvature="0"
             d="M 0,0 C 0,-1.933 -1.566,-3.5 -3.5,-3.5 -5.434,-3.5 -7,-1.933 -7,0 -7,1.933 -5.434,3.5 -3.5,3.5 -1.566,3.5 0,1.933 0,0"
             style="fill:#ffffff;fill-opacity:1;fill-rule:nonzero;stroke:none"
             id="path936" /></g><g
           id="g942"
           transform="translate(30,28.5)"><path
             inkscape:connector-curvature="0"
             d="M 0,0 C 0,-0.829 -0.672,-1.5 -1.5,-1.5 -2.328,-1.5 -3,-0.829 -3,0 -3,0.829 -2.328,1.5 -1.5,1.5 -0.672,1.5 0,0.829 0,0"
             style="fill:#292f33;fill-opacity:1;fill-rule:nonzero;stroke:none"
             id="path940" /></g><g
           id="g946"
           transform="translate(15,16)"><path
             inkscape:connector-curvature="0"
             d="m 0,0 c 0,-0.553 -0.448,-1 -1,-1 -0.552,0 -1,0.447 -1,1 0,0.553 0.448,1 1,1 0.552,0 1,-0.447 1,-1"
             style="fill:#5c913b;fill-opacity:1;fill-rule:nonzero;stroke:none"
             id="path944" /></g><g
           id="g950"
           transform="translate(23,16)"><path
             inkscape:connector-curvature="0"
             d="m 0,0 c 0,-0.553 -0.447,-1 -1,-1 -0.553,0 -1,0.447 -1,1 0,0.553 0.447,1 1,1 0.553,0 1,-0.447 1,-1"
             style="fill:#5c913b;fill-opacity:1;fill-rule:nonzero;stroke:none"
             id="path948" /></g></g></g></g></svg>