<svg xmlns="http://www.w3.org/2000/svg" viewBox="0 0 45 45"><defs><style>.cls-1{fill:#c6e5b3;}.cls-2{fill:#77b255;}.cls-3{fill:#fff;}.cls-4{fill:#292f33;}.cls-5{fill:#5c913b;}.cls-6{fill:#dd2e44;}.cls-7{fill:#ffac33;}.cls-8{fill:#88c9f9;}</style></defs><g id="Ebene_2" data-name="Ebene 2"><g id="Ebene_1-2" data-name="Ebene 1"><g id="Ebene_2-2" data-name="Ebene 2"><g id="Ebene_2-2-2" data-name="Ebene 2-2"><path class="cls-1" d="M32.55,14.46c0,4.18-4.75,6.73-10.61,6.73s-10.6-2.57-10.6-6.73S16.09,6,21.94,6,32.55,10.29,32.55,14.46Z"/><path class="cls-2" d="M30.05,9.23a3.26,3.26,0,0,0,.53-4.74,3.66,3.66,0,0,0-5-.5,3.33,3.33,0,0,0-1.23,1.87,7.24,7.24,0,0,0-2.44-.42,7.49,7.49,0,0,0-2.44.42,3.55,3.55,0,0,0-4.26-2.5,3.4,3.4,0,0,0-2.72,3.25,3.34,3.34,0,0,0,1.35,2.57,7.51,7.51,0,0,0-2.53,5.28c0,4.18,4.75.56,10.6.56s10.61,3.62,10.61-.56A7.5,7.5,0,0,0,30.05,9.23Z"/><ellipse class="cls-3" cx="15.76" cy="6.33" rx="2.07" ry="1.97"/><ellipse class="cls-4" cx="15.76" cy="6.33" rx="0.88" ry="0.84"/><ellipse class="cls-3" cx="28.14" cy="6.33" rx="2.07" ry="1.97"/><ellipse class="cls-4" cx="28.14" cy="6.33" rx="0.88" ry="0.84"/><ellipse class="cls-5" cx="19.59" cy="13.33" rx="0.59" ry="0.57"/><ellipse class="cls-5" cx="24.3" cy="13.33" rx="0.59" ry="0.57"/></g><g id="Ebene_1-2-2" data-name="Ebene 1-2"><ellipse class="cls-1" cx="21.82" cy="32.14" rx="13.5" ry="12.86"/><path class="cls-6" d="M27.89,18H15.74a2,2,0,0,0-2,1.94,1.93,1.93,0,0,0,1.34,1.8v9.12a1.31,1.31,0,0,0,1.35,1.28h1.35a1.32,1.32,0,0,0,1.35-1.28v-9h8.77a1.93,1.93,0,1,0,0-3.86Z"/><path class="cls-5" d="M23.17,29.57a1.35,1.35,0,0,1-2.7,0,1.35,1.35,0,0,1,2.7,0Zm0,6.43a1.35,1.35,0,1,1-1.35-1.29A1.33,1.33,0,0,1,23.17,36Z"/><path class="cls-7" d="M11.56,24.53,6.9,22.63,6.16,19a1.37,1.37,0,0,0-1.6-1.05,1.31,1.31,0,0,0-1.1,1.53h0l.4,2-1.79-.74a1.39,1.39,0,0,0-1.78.68A1.27,1.27,0,0,0,1,23l1,.41L.65,24.8a1.25,1.25,0,0,0,0,1.82,1.39,1.39,0,0,0,.93.38,1.41,1.41,0,0,0,1-.37l2.19-2.09,5.77,2.36A1.61,1.61,0,0,0,11,27a1.33,1.33,0,0,0,1.36-1.28A1.29,1.29,0,0,0,11.56,24.53ZM42.5,20.67l-2-.66,1.16-1.1a1.25,1.25,0,0,0,0-1.82h0a1.39,1.39,0,0,0-1.9,0l-1,.91L38,15.07a1.35,1.35,0,0,0-1.6-1,1.29,1.29,0,0,0-1.05,1.52l0,.1,1.17,4.43-4.86,4.63a1.25,1.25,0,0,0,0,1.82h0a1.42,1.42,0,0,0,1.91,0L38.38,22l3.27,1a1.42,1.42,0,0,0,.42.06,1.28,1.28,0,0,0,.43-2.51Z"/><path class="cls-8" d="M11.13,1.43a.69.69,0,0,0-.93-.14L9,2.06V.64A.66.66,0,0,0,8.32,0a.67.67,0,0,0-.68.64V2L6.46,1.29a.7.7,0,0,0-1,.18.63.63,0,0,0,.19.9l1.35.88L5.7,4.14a.64.64,0,0,0-.19.9.69.69,0,0,0,.57.28.71.71,0,0,0,.38-.18l1.18-.77V5.79a.67.67,0,0,0,.68.64A.66.66,0,0,0,9,5.79V4.41l1.21.77a.69.69,0,0,0,.37.1A.67.67,0,0,0,11.13,5,.62.62,0,0,0,11,4.11h0L9.6,3.21,11,2.33a.63.63,0,0,0,.18-.9Zm-5.4,9a.69.69,0,0,0-.93-.15h0L3.59,11V9.64A.66.66,0,0,0,2.92,9a.67.67,0,0,0-.68.64V11l-1.18-.73a.68.68,0,0,0-.94.16h0a.64.64,0,0,0,.19.9l1.35.89L.3,13.13A.62.62,0,0,0,.11,14a.68.68,0,0,0,.57.3.69.69,0,0,0,.38-.17l1.18-.76v1.41a.67.67,0,0,0,.68.64.66.66,0,0,0,.67-.64V13.41l1.21.76A.69.69,0,0,0,5.72,14v0a.62.62,0,0,0-.17-.89h0l-1.42-.89,1.35-.88a.62.62,0,0,0,.26-.88Zm0,21.85a.7.7,0,0,0-.93-.14l-1.21.77V31.5a.65.65,0,0,0-.67-.64.66.66,0,0,0-.68.64v1.38l-1.18-.74a.7.7,0,0,0-.94.16h0a.64.64,0,0,0,.19.9l1.35.89L.3,35a.64.64,0,0,0-.19.9.7.7,0,0,0,.57.29A.77.77,0,0,0,1.06,36l1.18-.77v1.41a.67.67,0,0,0,.68.65.66.66,0,0,0,.67-.65V35.27L4.8,36a.68.68,0,0,0,.92-.16h0a.63.63,0,0,0-.17-.9h0l-1.42-.89,1.35-.89a.61.61,0,0,0,.26-.87ZM43.28,10.93,44.63,10a.63.63,0,0,0,.2-.89h0A.7.7,0,0,0,43.94,9l-1.2.76V8.36a.68.68,0,0,0-1.35,0V9.73L40.2,9a.69.69,0,0,0-.94.18.62.62,0,0,0,.19.9L40.8,11l-1.35.88a.64.64,0,0,0-.19.9.7.7,0,0,0,.57.29.63.63,0,0,0,.37-.12l1.19-.76V13.5a.68.68,0,0,0,1.35,0V12.12l1.2.76a.66.66,0,0,0,.38.12.72.72,0,0,0,.57-.28.64.64,0,0,0-.19-.9Zm.24,17.5a.68.68,0,0,0-.93-.18l-1.2.77V27.64a.68.68,0,0,0-1.35,0V29l-1.19-.73a.68.68,0,0,0-.94.16h0a.63.63,0,0,0,.19.9l1.35.89-1.35.89a.63.63,0,0,0-.19.9.72.72,0,0,0,.57.28.79.79,0,0,0,.37-.1L40,31.44v1.35a.68.68,0,0,0,1.35,0V31.41l1.2.76a.73.73,0,0,0,.38.11.69.69,0,0,0,.57-.28.64.64,0,0,0-.19-.9L42,30.21l1.35-.88A.64.64,0,0,0,43.52,28.43ZM37.94,4.1l-1.35-.89,1.35-.88a.62.62,0,0,0,0-.91.69.69,0,0,0-.73-.13L36,2.06V.64a.68.68,0,0,0-1.35,0V2l-1.19-.73a.69.69,0,0,0-.94.18.63.63,0,0,0,.19.9l1.35.88-1.35.89a.63.63,0,0,0-.19.9.69.69,0,0,0,.57.28.65.65,0,0,0,.37-.18l1.19-.76V5.79a.68.68,0,0,0,1.35,0V4.41l1.2.77a.75.75,0,0,0,.38.1A.69.69,0,0,0,38.13,5,.63.63,0,0,0,38,4.11Z"/></g></g></g></g></svg>