<svg xmlns="http://www.w3.org/2000/svg" viewBox="0 0 91.55 91.55"><defs><style>.cls-1{fill:#77b255;}.cls-2{fill:#c6e5b3;}.cls-3{fill:#fff;}.cls-4{fill:#292f33;}.cls-5{fill:#5c913b;}.cls-6{fill:none;}</style></defs><g id="Ebene_2" data-name="Ebene 2"><g id="Ebene_1-2" data-name="Ebene 1"><path class="cls-1" d="M75.86,42.84S57.63,70.19,53,70.19s-12.59-3.06-18.33-3.06-13.73,3.19-17,3.19-7.46-8-7.46-8l30.5-50.43a.73.73,0,0,1,1.11-.16Z"/><path class="cls-2" d="M91.28,58.05,64.05,79.87a.74.74,0,0,1-.45.15H.73a.72.72,0,0,1-.62-1.09L10.16,62.31s4.13,8,7.46,8,11.31-3.19,17.05-3.19S48.37,70.19,53,70.19,75.86,42.84,75.86,42.84L91.32,57A.73.73,0,0,1,91.28,58.05Z"/><circle class="cls-3" cx="47.23" cy="49.44" r="3.91"/><circle class="cls-4" cx="47.23" cy="49.44" r="1.67"/><circle class="cls-3" cx="23.07" cy="49.44" r="3.91"/><circle class="cls-4" cx="23.07" cy="49.44" r="1.67"/><circle class="cls-5" cx="30.53" cy="63.84" r="1"/><circle class="cls-5" cx="39.73" cy="63.84" r="1"/><rect class="cls-6" width="91.55" height="91.55"/></g></g></svg>