<?xml version="1.0" encoding="utf-8"?>
<!-- Generator: Adobe Illustrator 25.0.0, SVG Export Plug-In . SVG Version: 6.00 Build 0)  -->
<svg version="1.1"
	 id="svg2" inkscape:version="0.92.3 (2405546, 2018-03-11)" sodipodi:docname="frog_kaiser_gold3.svg" xmlns:cc="http://creativecommons.org/ns#" xmlns:dc="http://purl.org/dc/elements/1.1/" xmlns:inkscape="http://www.inkscape.org/namespaces/inkscape" xmlns:rdf="http://www.w3.org/1999/02/22-rdf-syntax-ns#" xmlns:sodipodi="http://sodipodi.sourceforge.net/DTD/sodipodi-0.dtd" xmlns:svg="http://www.w3.org/2000/svg"
	 xmlns="http://www.w3.org/2000/svg" xmlns:xlink="http://www.w3.org/1999/xlink" x="0px" y="0px" viewBox="0 0 60 60"
	 style="enable-background:new 0 0 60 60;" xml:space="preserve">
<style type="text/css">
	.st0{clip-path:url(#SVGID_2_);}
	.st1{fill:#C6E5B3;}
	.st2{fill:#77B255;}
	.st3{fill:#FFFFFF;}
	.st4{fill:#292F33;}
	.st5{fill:#5C913B;}
	.st6{fill:#C0C0C0;}
	.st7{fill:#CFB534;}
</style>
<sodipodi:namedview  bordercolor="#666666" borderopacity="1" gridtolerance="10" guidetolerance="10" id="namedview120" inkscape:current-layer="svg2" inkscape:cx="20.025167" inkscape:cy="49.918379" inkscape:measure-end="22.3753,59.906" inkscape:measure-start="0.107318,59.8298" inkscape:pageopacity="0" inkscape:pageshadow="2" inkscape:window-height="1383" inkscape:window-maximized="1" inkscape:window-width="2560" inkscape:window-x="0" inkscape:window-y="0" inkscape:zoom="37.272385" objecttolerance="10" pagecolor="#ffffff" showgrid="false">
	</sodipodi:namedview>
<g id="g10" transform="matrix(1.25,0,0,-1.25,0,62.431144)">
	<g id="g12">
		<g>
			<defs>
				<rect id="SVGID_1_" x="1.5" y="-4.5" width="45" height="45"/>
			</defs>
			<clipPath id="SVGID_2_">
				<use xlink:href="#SVGID_1_"  style="overflow:visible;"/>
			</clipPath>
			<g id="g14" class="st0">
				<g id="g20" transform="translate(36,14)">
					<path id="path22" inkscape:connector-curvature="0" class="st1" d="M6,0c0-7.5-8.1-12-18-12S-30-7.5-30,0s8.1,15,18,15
						S6,7.5,6,0"/>
				</g>
				<g id="g24" transform="translate(31.7549,23.3242)">
					<path id="path26" inkscape:connector-curvature="0" class="st2" d="M6,0c1.4,1.1,2.2,2.8,2.2,4.7c0,3.3-2.7,6-6,6
						c-2.9,0-5.2-2-5.8-4.7c-1.3,0.5-2.7,0.8-4.1,0.8c-1.5,0-2.9-0.3-4.1-0.8c-0.6,2.7-3,4.7-5.9,4.7c-3.3,0-6-2.7-6-6
						c0-1.9,0.9-3.6,2.2-4.7c-2.6-2.7-4.2-6-4.2-9.3c0-7.5,8.1-1,18-1c9.9,0,18-6.5,18,1C10.2-6,8.6-2.7,6,0"/>
				</g>
				<g id="g28" transform="translate(11,28.5)">
					<path id="path30" inkscape:connector-curvature="0" class="st3" d="M6,0c0-1.9-1.6-3.5-3.5-3.5S-1-1.9-1,0s1.6,3.5,3.5,3.5
						S6,1.9,6,0"/>
				</g>
				<g id="g32" transform="translate(9,28.5)">
					<path id="path34" inkscape:connector-curvature="0" class="st4" d="M6,0c0-0.8-0.7-1.5-1.5-1.5S3-0.8,3,0s0.7,1.5,1.5,1.5
						S6,0.8,6,0"/>
				</g>
				<g id="g36" transform="translate(32,28.5)">
					<path id="path38" inkscape:connector-curvature="0" class="st3" d="M6,0c0-1.9-1.6-3.5-3.5-3.5S-1-1.9-1,0s1.6,3.5,3.5,3.5
						S6,1.9,6,0"/>
				</g>
				<g id="g40" transform="translate(30,28.5)">
					<path id="path42" inkscape:connector-curvature="0" class="st4" d="M6,0c0-0.8-0.7-1.5-1.5-1.5S3-0.8,3,0s0.7,1.5,1.5,1.5
						S6,0.8,6,0"/>
				</g>
				<g id="g44" transform="translate(15,16)">
					<path id="path46" inkscape:connector-curvature="0" class="st5" d="M6,0c0-0.6-0.4-1-1-1S4-0.6,4,0s0.4,1,1,1S6,0.6,6,0"/>
				</g>
				<g id="g48" transform="translate(23,16)">
					<path id="path50" inkscape:connector-curvature="0" class="st5" d="M6,0c0-0.6-0.4-1-1-1S4-0.6,4,0s0.4,1,1,1S6,0.6,6,0"/>
				</g>
			</g>
		</g>
	</g>
</g>
<path id="path3825" sodipodi:cx="22.649616" sodipodi:cy="25.562862" sodipodi:end="0.00050696599" sodipodi:open="true" sodipodi:rx="20.464251" sodipodi:ry="12.184278" sodipodi:start="3.1228766" sodipodi:type="arc" class="st6" d="
	M9.5,25.8c-0.1-4.4,3.7-8.4,10.1-10.6s14.2-2.2,20.6,0s10.3,6.3,10.3,10.7"/>
<path id="path935" inkscape:connector-curvature="0" sodipodi:nodetypes="ccscc" class="st6" d="M29.7,16.4c1.7-4.6,4.1-5.7,4.1-5.7
	s-1.1,0.1-1.8-2.9C31.3,4.9,30,0.1,30,0.1L29.7,16.4z"/>
<path id="path943" inkscape:connector-curvature="0" sodipodi:nodetypes="ccscc" class="st6" d="M30.3,16.4
	c-1.7-4.6-4.1-5.7-4.1-5.7s1.1,0.1,1.8-2.9C28.7,4.9,30,0.1,30,0.1L30.3,16.4z"/>
<path id="rect170" class="st7" d="M13,20.3H47c0.9,0,1.7,0.3,1.7,0.7v0c0,0.4-0.7,0.7-1.7,0.7H13c-0.9,0-1.7-0.3-1.7-0.7v0
	C11.3,20.6,12,20.3,13,20.3z"/>
<ellipse id="path983" class="st7" cx="30" cy="17.5" rx="3.7" ry="3.6"/>
<path id="rect985" class="st7" d="M28.6,10.4h2.8c1.1,0,1.9,0.1,1.9,0.2v0.2c0,0.1-0.9,0.2-1.9,0.2h-2.8c-1.1,0-1.9-0.1-1.9-0.2
	v-0.2C26.7,10.5,27.5,10.4,28.6,10.4z"/>
<path id="rect3737" class="st7" d="M30,2.6L30,2.6c0.4,0,0.7,0.1,0.7,0.2v0.1c0,0.1-0.3,0.2-0.7,0.2l0,0c-0.4,0-0.7-0.1-0.7-0.2V2.8
	C29.3,2.7,29.6,2.6,30,2.6z"/>
</svg>
