<svg xmlns="http://www.w3.org/2000/svg" viewBox="0 0 36 36"><defs><style>.cls-1{fill:#c6e5b3;}.cls-2{fill:#77b255;}.cls-3{fill:#fff;}.cls-4{fill:#292f33;}.cls-5{fill:#5c913b;}</style></defs><g id="Ebene_2" data-name="Ebene 2"><g id="Ebene_1-2" data-name="Ebene 1"><path class="cls-1" d="M36,20c0,7.46-8.06,12-18,12S0,27.46,0,20,8.06,5,18,5,36,12.54,36,20Z"/><path class="cls-2" d="M31.75,10.68a6,6,0,1,0-9.6-6,11.71,11.71,0,0,0-8.3,0,6,6,0,1,0-9.61,6A13.6,13.6,0,0,0,0,20c0,7.46,8.06,1,18,1s18,6.46,18-1A13.57,13.57,0,0,0,31.75,10.68Z"/><circle class="cls-3" cx="7.5" cy="5.5" r="3.5"/><circle class="cls-4" cx="7.5" cy="5.5" r="1.5"/><circle class="cls-3" cx="28.5" cy="5.5" r="3.5"/><circle class="cls-4" cx="28.5" cy="5.5" r="1.5"/><circle class="cls-5" cx="14" cy="18" r="1"/><circle class="cls-5" cx="22" cy="18" r="1"/><path class="cls-5" d="M13.39,23.15l-1.54-2.22A1,1,0,1,0,10.12,22l1.76,3.38s.14.77-.92-.09c-.46-.38-.2-.17-.2-.17l-.44-.36-5.49-4.5a.87.87,0,0,0-1.36,0,.87.87,0,0,0,.22,1.34l5.2,4.26c-.12.12-.48.54-.6.67L2.73,22a.87.87,0,0,0-1.36,0,.87.87,0,0,0,.22,1.34L7.15,28l-.46.62L1.9,24.65a.87.87,0,0,0-1.36,0A.88.88,0,0,0,.76,26l5.1,4.18c-.07.18-.37.65-.41.82L1.77,28a.86.86,0,0,0-1.35,0,.87.87,0,0,0,.22,1.34l5.93,4.87L7,34.6a6.14,6.14,0,0,0,8.4-8.91A24.27,24.27,0,0,1,13.39,23.15Zm22.19,4.92a.86.86,0,0,0-1.35,0l-3.68,3c0-.17-.34-.64-.41-.82L35.24,26a.91.91,0,1,0-1.14-1.39l-4.79,3.94L28.85,28l5.56-4.56A.9.9,0,1,0,33.27,22l-5.56,4.56c-.11-.13-.47-.54-.6-.66l5.2-4.27a.9.9,0,1,0-1.14-1.38l-5.49,4.5-.44.37s1-.85-.2.16-.91.09-.91.09L25.88,22a1,1,0,1,0-1.73-1.08l-1.54,2.21a23,23,0,0,1-2,2.54A6.14,6.14,0,0,0,29,34.61l.39-.33,5.93-4.87A.87.87,0,0,0,35.58,28.07Z"/></g></g></svg>