<svg xmlns="http://www.w3.org/2000/svg" viewBox="0 0 36 36"><defs><style>.cls-1{fill:#f4900c;}.cls-2{fill:#ffac33;}.cls-3{fill:#ffcc4d;}.cls-4{fill:#5c913b;}.cls-5{fill:#77b255;}.cls-6{fill:#c6e5b3;}.cls-7{fill:#fff;}.cls-8{fill:#292f33;}.cls-9{fill:none;}</style></defs><g id="Ebene_2" data-name="Ebene 2"><g id="Ebene_1-2" data-name="Ebene 1"><ellipse class="cls-1" cx="33.5" cy="14.5" rx="2.5" ry="3.5"/><ellipse class="cls-1" cx="2.5" cy="14.5" rx="2.5" ry="3.5"/><path class="cls-2" d="M34,19a1,1,0,0,1-1,1H30a1,1,0,0,1-1-1V10a1,1,0,0,1,1-1h3a1,1,0,0,1,1,1ZM7,19a1,1,0,0,1-1,1H3a1,1,0,0,1-1-1V10A1,1,0,0,1,3,9H6a1,1,0,0,1,1,1Z"/><path class="cls-3" d="M28,5c0,2.76-4.48,4-10,4S8,7.76,8,5s4.48-5,10-5S28,2.24,28,5Z"/><path class="cls-1" d="M25,4.08C25,5.69,21.86,7,18,7s-7-1.31-7-2.92,3.13-2.91,7-2.91S25,2.47,25,4.08Z"/><path class="cls-4" d="M30,5.5C30,6.88,28.88,7,27.5,7H8.5C7.12,7,6,6.88,6,5.5A2.5,2.5,0,0,1,8.5,3h19A2.5,2.5,0,0,1,30,5.5Z"/><path class="cls-5" d="M30,6H6A2,2,0,0,0,4,8V34H32V8A2,2,0,0,0,30,6Z"/><path class="cls-6" d="M32,29v5H4V29.09c4,0,7.39-2.64,14-2.64S28,29,32,29Z"/><path class="cls-4" d="M35,33V32a2,2,0,0,0-2-2H22.07l-3.36,3.36a1,1,0,0,1-1.42,0L13.93,30H3a2,2,0,0,0-2,2v1c0,1.1-.1,2,1,2H34C35.1,35,35,34.1,35,33Z"/><circle class="cls-7" cx="11.5" cy="14.38" r="3.5"/><circle class="cls-8" cx="11.5" cy="14.38" r="1.5"/><circle class="cls-7" cx="24.5" cy="14.57" r="3.5"/><circle class="cls-8" cx="24.5" cy="14.57" r="1.5"/><rect class="cls-9" width="36" height="36"/><circle class="cls-4" cx="22" cy="23.49" r="1"/><circle class="cls-4" cx="14" cy="23.49" r="1"/></g></g></svg>