<?xml version="1.0" encoding="utf-8"?>
<!-- Generator: Adobe Illustrator 25.0.0, SVG Export Plug-In . SVG Version: 6.00 Build 0)  -->
<svg version="1.1" id="Ebene_1" xmlns="http://www.w3.org/2000/svg" xmlns:xlink="http://www.w3.org/1999/xlink" x="0px" y="0px"
	 viewBox="0 0 708.3 708.3" style="enable-background:new 0 0 708.3 708.3;" xml:space="preserve">
<style type="text/css">
	.st0{fill:#5C913B;}
	.st1{fill:#C6E5B3;}
	.st2{fill:#77B255;}
	.st3{fill:#FFFFFF;}
	.st4{fill:#292F33;}
	.st5{fill:none;}
</style>
<g id="Ebene_2_1_">
	<g id="Ebene_1-2">
		<path class="st0" d="M380.6,181.7c-5.5-66.1,43.3-94.3,43.3-94.3c-63.9,2.2-97.7,56.4-97.7,56.4c-15-26,18.9-80.1,43.3-94.2
			C305.6,51.9,296.2,92,296.2,92c-30-52-20.6-92-20.6-92c-22.4,12.9-35.3,42.2-42.8,70.1l-46.3-53.3c-4.6,20.8,3.1,63.4,11.4,99
			c-61-35.7-117.9-3-117.9-3C159,136.6,189,188.5,189,188.5S110.2,164.8,76.2,219c51.9-1.8,89.9,10,117,24.6
			c-23.2,5.8-62.8-4.7-87,27.4c0,0,63.9-2.2,76.9,21.1c-43.4,12.3-71.4,45-71.4,45c88.3-16.3,182.2,33.3,182.2,33.3l122.2-70.5
			c-20.5-92,52.8-134.4,52.8-134.4C414.5,127.6,380.6,181.7,380.6,181.7z"/>
		<path class="st0" d="M606.7,446.3C656.3,532.4,631,640,550,686.8s-186.9,14.9-236.6-71.1l-31.7-55
			C232,474.6,257.4,367,338.3,320.2s186.9-14.9,236.6,71.1L606.7,446.3z"/>
		<path class="st1" d="M502.8,397.3c-22.5,5.6-48.7,15.2-78.9,30.9c-4,2.1-8.1,4.3-12.3,6.6c-5.5,3.1-10.7,6.1-15.8,9
			c-67.9,39.7-97.7,70.9-117.4,110.4c1.1,2.1,2,4.2,3.3,6.3l31.7,55c13.2,22.8,31,42.6,52.3,58.1l4.6-10.7l39,16.5l-6.5,15.3
			c13.2,5.4,27,9.3,41.1,11.4l4.3-10.1l28,11.9c23.3-1,46.1-7,66.8-17.6l-0.3-0.1l16.5-39l23.7,10.1c10.4-10.3,19.3-22,26.6-34.7
			l-33.8-14.4l16.5-39l33.3,14.1c3.9-14.1,6-28.6,6.3-43.2l-23.1-9.8l16.5-39l1.2,0.6c-4.3-17.4-11-34.1-20-49.6l-3.7-6.4l0,0
			l-39-16.5l12.5-29.3l-1.5-2.6c-0.1-0.2-0.3-0.5-0.4-0.7c-14.4-1.1-28.9-0.7-43.2,1.2L502.8,397.3z M469.5,429.2l39,16.5L492,484.7
			l-39-16.5L469.5,429.2z M347.9,607.5l-39-16.5l16.5-39l39,16.5L347.9,607.5z M342,513l8.3-19.5l8.2-19.5l8.6,3.6l30.4,12.9
			l-16.6,39L342,513z M425.8,640.5l-39-16.5l16.5-39l39,16.6L425.8,640.5z M419.9,546.1l16.5-39l39,16.6l-16.5,39L419.9,546.1z
			 M503.8,673.7l-39-16.5l16.5-39l39,16.5L503.8,673.7z M536.8,595.7l-38.9-16.5l16.5-39l39,16.5L536.8,595.7z M569.9,517.7
			l-39-16.5l16.5-38.9l39,16.5L569.9,517.7z"/>
		<path class="st2" d="M395.8,443.9c-67.9,39.7-97.7,70.9-117.4,110.4c-4.8-9.5-10.3-19.2-12.1-27.4c-11.7-33.8-13.2-70.3-4.3-105
			c-27.8-7.2-44.6-35.6-37.4-63.5s35.6-44.6,63.5-37.4c9.7,2.5,18.5,7.8,25.3,15.1c7.6-9.2,11.8-12.7,22.8-19s23.6-12,35.4-14
			c-7.1-22.8,1.2-46.6,22.7-59c24.9-14.4,56.7-5.9,71.1,19c7.6,13.1,9.1,28.9,4.1,43.3c42.1,13,80.3,42,104.9,84.3
			c-14.4-1.1-28.9-0.7-43.2,1.2l-28.6,5.5c-22.5,5.6-48.7,15.2-78.9,30.9L395.8,443.9z"/>
		<circle class="st3" cx="269.2" cy="369.9" r="30.4"/>
		<circle class="st4" cx="269.2" cy="369.9" r="13"/>
		<circle class="st3" cx="422" cy="283.3" r="30.4"/>
		<circle class="st0" cx="368.6" cy="433.8" r="8.7"/>
		<circle class="st4" cx="422" cy="283.3" r="13"/>
		<circle class="st0" cx="426.4" cy="401.3" r="8.7"/>
		<rect y="0" class="st5" width="708.3" height="708.3"/>
	</g>
</g>
</svg>
