<svg xmlns="http://www.w3.org/2000/svg" viewBox="0 0 356.19 356.19"><defs><style>.cls-1{fill:#77b254;}.cls-2{fill:#fff;}.cls-3{fill:#2a3034;}.cls-4{fill:#5d913b;}.cls-5{fill:none;}</style></defs><g id="Ebene_2" data-name="Ebene 2"><g id="Ebene_1-2" data-name="Ebene 1"><g id="Ebene_2-2" data-name="Ebene 2"><g id="Ebene_1-2-2" data-name="Ebene 1-2"><rect class="cls-1" x="203.69" y="223.19" width="42.18" height="133" rx="21.09"/><rect class="cls-1" x="109.73" y="223.19" width="42.18" height="133" rx="21.09"/><rect class="cls-1" x="282.91" y="128.69" width="42.18" height="133" rx="21.09"/><rect class="cls-1" x="31.18" y="128.69" width="42.18" height="133" rx="21.09"/><path class="cls-1" d="M85.17,120.45H271a0,0,0,0,1,0,0V252.21a28.24,28.24,0,0,1-28.24,28.24H113.41a28.24,28.24,0,0,1-28.24-28.24V120.45A0,0,0,0,1,85.17,120.45Z"/><path class="cls-1" d="M171.1,23.69h14a84,84,0,0,1,84,84v0a0,0,0,0,1,0,0H87.1a0,0,0,0,1,0,0v0A84,84,0,0,1,171.1,23.69Z"/><circle class="cls-1" cx="126.64" cy="32.09" r="32.09"/><circle class="cls-1" cx="229.42" cy="32.09" r="32.09" transform="translate(145.48 248) rotate(-76.72)"/><circle class="cls-2" cx="123.18" cy="30.15" r="17.82"/><circle class="cls-3" cx="123.18" cy="30.15" r="7.64"/><circle class="cls-2" cx="232.42" cy="30.05" r="17.82"/><circle class="cls-3" cx="232.42" cy="30.05" r="7.64"/><circle class="cls-4" cx="157.5" cy="94.6" r="7.11"/><circle class="cls-4" cx="198.76" cy="94.6" r="7.11"/><rect class="cls-5" width="356.19" height="356.19"/></g></g></g></g></svg>