<svg xmlns="http://www.w3.org/2000/svg" xmlns:xlink="http://www.w3.org/1999/xlink" viewBox="0 0 349.28 349.28"><defs><style>.cls-1{fill:none;}.cls-2{fill:#e6ded4;}.cls-3{fill:#625b51;}.cls-4{fill:#bba989;}.cls-5{clip-path:url(#clip-path);}.cls-6{fill:#ccc3b9;}.cls-7{fill:#eee3cd;}.cls-8{fill:#635448;}</style><clipPath id="clip-path"><path class="cls-1" d="M313.58,238.23c-1.72,4-5.09,11.72-6.81,15.7-66.59,5.09-143,3.74-200.19,3.58h0q-31.44-1.22-62.84-3.57c-2.78-4.42-8.2-13.1-11-17.54C96.08,207.56,240.55,196,313.58,238.23Z"/></clipPath></defs><g id="Ebene_2" data-name="Ebene 2"><g id="Ebene_1-2" data-name="Ebene 1"><g id="Ebene_2-2" data-name="Ebene 2"><g id="Ebene_1-2-2" data-name="Ebene 1-2"><path class="cls-2" d="M349.28,213.45c0,72.34-78.19,116.43-174.64,116.43S0,285.79,0,213.45,78.19,67.92,174.64,67.92,349.28,141.11,349.28,213.45Z"/><g id="mouth"><path d="M349.28,213.45A92.4,92.4,0,0,1,344,244.53s-57.66,65.62-165.16,65.62C54,310.15,4.53,242.51,4.53,242.51A93,93,0,0,1,0,213.45c0-72.34,165.39-48.56,165.39-48.56S349.28,141.11,349.28,213.45Z"/><path class="cls-3" d="M308.53,260.45v12.74c-27.73,17.67-71.37,37-129.66,37-67.15,0-112.5-19.58-140.06-37.67V260.19Z"/><path class="cls-4" d="M41.72,260.19c0,18.34,12.8,18.35,12.82,0,0,28.24,13.67,28.26,13.69,0,0,28.25,19,28.22,19,0-.11,36,25.34,37.82,20.94.07,1.27,43.13,29,42.74,26.41,0-.05,48.6,24.51,48.63,24.55,0,0,47.78,30.92,47.59,29.55,0,0,48.53,27.78,48,25,0,1,43.33,25.83,43.62,24.55,0,1.86,40.37,23.09,40.28,21,0,.88,31.94,19.56,31.94,17.9,0,3.52,26.25,21,26.34,16.63,0,0,17.62,12,18,14.71,0"/><path class="cls-3" d="M313.58,238.23c-1.72,4-2.48,15.43-6.81,15.7-66.67,4.17-133.64,4.19-200.19,3.58h0q-31.44-1.22-62.84-3.57c-2.78-4.42-8.2-13.1-11-17.54C96.08,205.8,240.55,193.8,313.58,238.23Z"/><g class="cls-5"><path class="cls-4" d="M105,245.77a110.39,110.39,0,0,1,1.54,11.73q-20.83-.79-41.67-2.12-10.59-.66-21.17-1.45l-5.11-8.15-.19-.31c3.33-7.65,6.89-8.12,10.51.31a67.24,67.24,0,0,1,2.92,8.73,62.08,62.08,0,0,1-.26-8.73c.76-15.64,9-15.44,12.17,0a56,56,0,0,1,1,7.51c-.14-2.73-.17-5.24-.11-7.51.52-18.26,7.4-21,15.39,0,1.16,3,2.35,6.6,3.54,10.68,0-3.93.11-7.49.4-10.68C86.48,217.68,99.87,218.52,105,245.77Zm135.82,0c-2-35.37-16.16-34.12-23.3,0-.79,3.82-1.5,8-2.1,12.69q12.81-.29,25.63-.77.15-6.56-.19-11.94Zm-82.75,0q-1.06,5.94-1.82,13,16.88.19,33.74.06-.48-7.11-1.3-13.07c-5.69-42.2-23.24-41.37-30.58,0Zm-50.64,0q-.65,5.29-.89,11.73h0q12.52.5,25,.81c-.08-4.58-.35-8.77-.77-12.55-3.63-33.31-19.17-35.19-23.3,0Zm83.73,0c-.49,4-.89,8.32-1.17,13.07q12.72-.09,25.43-.39c-.16-4.6-.44-8.83-.81-12.69-3.87-40.38-18.46-40.61-23.41,0Zm52.05,0a83,83,0,0,0-2.16,11.92q10.62-.4,21.23-.94a77.23,77.23,0,0,0,1.84-11c2.21-25.11-14.12-25.52-20.87,0Zm-86.84,0c-1-39.6-16-39.33-23,0-.68,3.82-1.29,8-1.8,12.55q12.33.31,24.66.45.35-7.09.18-13Zm128.37,0a98.21,98.21,0,0,0-3.1,9.92q7.74-.48,15.48-1a82.76,82.76,0,0,0,.71-8.89c.35-16.72-6.83-16.39-13.05-.06Zm-17.46,0a90.71,90.71,0,0,0-5,11q9.68-.47,19.36-1.07a69.78,69.78,0,0,0,1.92-9.92c1.95-16.9-7.08-16.91-16.24,0Zm32.33,0a47.12,47.12,0,0,0-2.49,8.89c3.2-.22,6.41-.46,9.61-.7l3.55-8.19.13-.3c-1.68-9.12-7-8.93-10.76.27Z"/></g></g><path class="cls-6" d="M349.28,213.45c0,36.42-9.84,35.09-35.7,24.78-25.5-10.15-66.6-29-129.23-29C107,209.19,60,228,32.75,236.39,8.46,243.92,0,243.18,0,213.45,0,181.29,15.53,149,41.19,123a58.19,58.19,0,1,1,93.2-58.13,113.91,113.91,0,0,1,80.51,0A58.2,58.2,0,1,1,308.1,123C333.76,149,349.28,181.29,349.28,213.45Z"/><g id="eye"><path class="cls-3" d="M72.57,26.58c-27.65,0-44.09,36.91-44.09,51.91s10.83,40.18,34.05,40.18,51-22.57,51-42.92c0-7.82-9.66-21.13-9.66-26.87C103.87,39.1,96.83,26.58,72.57,26.58Z"/><path class="cls-7" d="M101.66,72.82c0,19.63-17.82,35.54-35.61,35.54S37.22,97.21,37.22,77.58,56.07,37.27,73.86,37.27,101.66,53.19,101.66,72.82Z"/><path class="cls-6" d="M94.61,67.49c0,15.63-13.17,31.74-26.64,31.74s-22.14-9.67-22.14-25.3S60.27,42.62,73.74,42.62,94.61,51.85,94.61,67.49Z"/><circle class="cls-2" cx="64.42" cy="54.04" r="5.72"/></g><g id="eye-2" data-name="eye"><path class="cls-3" d="M273.57,26.58c27.65,0,44.09,36.91,44.09,51.91s-10.83,40.18-34.05,40.18-51-22.57-51-42.92c0-7.82,9.65-21.13,9.65-26.87C242.26,39.1,249.31,26.58,273.57,26.58Z"/><path class="cls-7" d="M306.77,78.88c0,18.59-13.51,28.68-30.17,28.68S246.44,92.5,246.44,73.92s13.5-33.65,30.16-33.65S306.77,60.3,306.77,78.88Z"/><path class="cls-6" d="M299.66,73.86c0,15.31-6.8,27.72-20.09,27.72s-28-12.41-28-27.72,10.77-27.72,24.06-27.72S299.66,58.55,299.66,73.86Z"/><circle class="cls-2" cx="266.92" cy="61.8" r="6"/></g><g id="deco"><circle class="cls-7" cx="135.83" cy="194.05" r="9.7"/><circle class="cls-7" cx="213.45" cy="194.05" r="9.7"/><ellipse class="cls-8" cx="42.47" cy="133.74" rx="6.91" ry="5.05" transform="translate(-97.74 139.39) rotate(-74.69)"/><ellipse class="cls-3" cx="307.11" cy="134.02" rx="5.01" ry="6.59"/></g><rect class="cls-1" width="349.28" height="349.28"/></g></g></g></g></svg>