<svg xmlns="http://www.w3.org/2000/svg" viewBox="0 0 605.35 605.35"><defs><style>.cls-1{fill:#d2e0ca;}.cls-2{fill:#91aa85;}.cls-3{fill:#fff;}.cls-4{fill:#292f33;}.cls-5{fill:#627559;}.cls-6,.cls-7{fill:none;}.cls-6{stroke:#596b52;stroke-linecap:round;stroke-miterlimit:10;stroke-width:18px;}</style></defs><g id="Ebene_2" data-name="Ebene 2"><g id="Ebene_1-2" data-name="Ebene 1"><path class="cls-1" d="M605.35,369.93c0,125.38-135.52,201.79-302.68,201.79S0,495.31,0,369.93,135.51,117.71,302.67,117.71,605.35,244.56,605.35,369.93Z"/><path class="cls-2" d="M534,213.15A100.86,100.86,0,1,0,372.44,112.41a197.24,197.24,0,0,0-139.53,0A100.86,100.86,0,1,0,71.38,213.15C26.9,258.21,0,314.19,0,369.93c0,125.38,135.51,16.82,302.67,16.82s302.68,108.56,302.68-16.82C605.35,314.19,578.44,258.21,534,213.15Z"/><circle class="cls-3" cx="126.11" cy="126.11" r="58.85"/><circle class="cls-4" cx="126.11" cy="126.11" r="25.22"/><circle class="cls-3" cx="479.23" cy="126.11" r="58.85"/><circle class="cls-4" cx="479.23" cy="126.11" r="25.22"/><circle class="cls-5" cx="235.41" cy="336.3" r="16.82"/><circle class="cls-5" cx="369.93" cy="336.3" r="16.82"/><line class="cls-6" x1="153.51" y1="477.84" x2="215.47" y2="415.75"/><line class="cls-6" x1="452.99" y1="477.84" x2="391.04" y2="415.75"/><path class="cls-6" d="M168.87,263.56c88.5-29.78,178.05-27.94,269,0"/><path class="cls-6" d="M207.36,209.76c63.86-18.58,126.64-18.74,191.79,0"/><path class="cls-6" d="M87.57,200.86c27.92,18.76,53.32,18.59,81.23-.17"/><path class="cls-6" d="M437.37,200.86c28.84,18.76,54.25,18.6,81.23-.17"/><rect class="cls-7" width="605.35" height="605.35"/></g></g></svg>