<?xml version="1.0" encoding="UTF-8" standalone="no"?>
<svg
   xmlns:dc="http://purl.org/dc/elements/1.1/"
   xmlns:cc="http://creativecommons.org/ns#"
   xmlns:rdf="http://www.w3.org/1999/02/22-rdf-syntax-ns#"
   xmlns:svg="http://www.w3.org/2000/svg"
   xmlns="http://www.w3.org/2000/svg"
   xmlns:sodipodi="http://sodipodi.sourceforge.net/DTD/sodipodi-0.dtd"
   xmlns:inkscape="http://www.inkscape.org/namespaces/inkscape"
   viewBox="0 0 45 45"
   style="enable-background:new 0 0 45 45;"
   xml:space="preserve"
   version="1.1"
   id="svg2"
   sodipodi:docname="frogchampagne.svg"
   inkscape:version="1.0.1 (3bc2e813f5, 2020-09-07)"
   inkscape:export-xdpi="1092.2667"
   inkscape:export-ydpi="1092.2667"><sodipodi:namedview
     pagecolor="#ffffff"
     bordercolor="#666666"
     borderopacity="1"
     objecttolerance="10"
     gridtolerance="10"
     guidetolerance="10"
     inkscape:pageopacity="0"
     inkscape:pageshadow="2"
     inkscape:window-width="1920"
     inkscape:window-height="1030"
     id="namedview919"
     showgrid="false"
     inkscape:zoom="18.911111"
     inkscape:cx="35.386899"
     inkscape:cy="21.543018"
     inkscape:window-x="1600"
     inkscape:window-y="50"
     inkscape:window-maximized="1"
     inkscape:current-layer="svg2" /><metadata
     id="metadata8"><rdf:RDF><cc:Work
         rdf:about=""><dc:format>image/svg+xml</dc:format><dc:type
           rdf:resource="http://purl.org/dc/dcmitype/StillImage" /><dc:title></dc:title></cc:Work></rdf:RDF></metadata><defs
     id="defs6"><clipPath
       id="clipPath16"
       clipPathUnits="userSpaceOnUse"><path
         id="path18"
         d="M 0,36 36,36 36,0 0,0 0,36 Z" /></clipPath></defs><g
     transform="matrix(1.25,0,0,-1.25,0,45)"
     id="g10"><g
       id="g12"><g
         clip-path="url(#clipPath16)"
         id="g14"><g
           transform="translate(36,14)"
           id="g20"><path
             id="path22"
             style="fill:#c6e5b3;fill-opacity:1;fill-rule:nonzero;stroke:none"
             d="m 0,0 c 0,-7.456 -8.059,-12 -18,-12 -9.941,0 -18,4.544 -18,12 0,7.456 8.059,15 18,15 C -8.059,15 0,7.456 0,0" /></g><g
           transform="translate(31.7549,23.3242)"
           id="g24"><path
             id="path26"
             style="fill:#77b255;fill-opacity:1;fill-rule:nonzero;stroke:none"
             d="m 0,0 c 1.368,1.1 2.245,2.785 2.245,4.676 0,3.313 -2.686,6 -6,6 -2.861,0 -5.25,-2.005 -5.85,-4.685 -1.289,0.483 -2.684,0.758 -4.15,0.758 -1.465,0 -2.861,-0.275 -4.149,-0.758 -0.601,2.68 -2.99,4.685 -5.851,4.685 -3.313,0 -6,-2.687 -6,-6 0,-1.891 0.878,-3.576 2.245,-4.676 -2.645,-2.68 -4.245,-6.009 -4.245,-9.324 0,-7.456 8.059,-1 18,-1 9.942,0 18,-6.456 18,1 C 4.245,-6.009 2.646,-2.68 0,0" /></g><g
           transform="translate(11,28.5)"
           id="g28"><path
             id="path30"
             style="fill:#ffffff;fill-opacity:1;fill-rule:nonzero;stroke:none"
             d="M 0,0 C 0,-1.933 -1.567,-3.5 -3.5,-3.5 -5.433,-3.5 -7,-1.933 -7,0 -7,1.933 -5.433,3.5 -3.5,3.5 -1.567,3.5 0,1.933 0,0" /></g><g
           transform="translate(9,28.5)"
           id="g32"><path
             id="path34"
             style="fill:#292f33;fill-opacity:1;fill-rule:nonzero;stroke:none"
             d="M 0,0 C 0,-0.829 -0.671,-1.5 -1.5,-1.5 -2.329,-1.5 -3,-0.829 -3,0 -3,0.829 -2.329,1.5 -1.5,1.5 -0.671,1.5 0,0.829 0,0" /></g><g
           transform="translate(32,28.5)"
           id="g36"><path
             id="path38"
             style="fill:#ffffff;fill-opacity:1;fill-rule:nonzero;stroke:none"
             d="M 0,0 C 0,-1.933 -1.566,-3.5 -3.5,-3.5 -5.434,-3.5 -7,-1.933 -7,0 -7,1.933 -5.434,3.5 -3.5,3.5 -1.566,3.5 0,1.933 0,0" /></g><g
           transform="translate(30,28.5)"
           id="g40"><path
             id="path42"
             style="fill:#292f33;fill-opacity:1;fill-rule:nonzero;stroke:none"
             d="M 0,0 C 0,-0.829 -0.672,-1.5 -1.5,-1.5 -2.328,-1.5 -3,-0.829 -3,0 -3,0.829 -2.328,1.5 -1.5,1.5 -0.672,1.5 0,0.829 0,0" /></g><g
           transform="translate(15,16)"
           id="g44"><path
             id="path46"
             style="fill:#5c913b;fill-opacity:1;fill-rule:nonzero;stroke:none"
             d="m 0,0 c 0,-0.553 -0.448,-1 -1,-1 -0.552,0 -1,0.447 -1,1 0,0.553 0.448,1 1,1 0.552,0 1,-0.447 1,-1" /></g><g
           transform="translate(23,16)"
           id="g48"><path
             id="path50"
             style="fill:#5c913b;fill-opacity:1;fill-rule:nonzero;stroke:none"
             d="m 0,0 c 0,-0.553 -0.447,-1 -1,-1 -0.553,0 -1,0.447 -1,1 0,0.553 0.447,1 1,1 0.553,0 1,-0.447 1,-1" /></g></g></g></g><g
     id="g1002"
     transform="matrix(-0.77780832,0,0,0.77780832,56.340878,13.828327)"><circle
       fill="#ccd6dd"
       cx="21.25"
       cy="31.500002"
       r="1.5"
       id="circle2" /><path
       fill="#ccd6dd"
       d="m 23.67,17.234 c 0.051,-0.237 0.08,-0.482 0.08,-0.734 0,-1.933 -1.567,-3.5 -3.5,-3.5 -1.764,0 -3.208,1.308 -3.45,3.005 -0.017,0 -0.033,-0.005 -0.05,-0.005 -1.104,0 -2,0.896 -2,2 0,1.104 0.896,2 2,2 0.033,0 0.063,-0.008 0.095,-0.01 -0.058,0.16 -0.095,0.33 -0.095,0.51 0,0.46 0.212,0.867 0.539,1.143 C 16.957,22 16.75,22.474 16.75,23 c 0,1.104 0.896,2 2,2 0,0.375 0.11,0.721 0.289,1.021 -0.727,0.103 -1.289,0.723 -1.289,1.479 0,0.828 0.672,1.5 1.5,1.5 0.828,0 1.5,-0.672 1.5,-1.5 0,-0.18 -0.037,-0.35 -0.095,-0.51 0.032,0.002 0.062,0.01 0.095,0.01 1.104,0 2,-0.896 2,-2 0,-0.601 -0.27,-1.133 -0.69,-1.5 0.419,-0.367 0.69,-0.899 0.69,-1.5 0,-0.378 -0.111,-0.728 -0.294,-1.03 0.097,0.015 0.193,0.03 0.294,0.03 1.104,0 2,-0.896 2,-2 0,-0.771 -0.441,-1.432 -1.08,-1.766 z"
       id="path4" /><circle
       fill="#e4ebef"
       cx="19.75"
       cy="23.000002"
       r="1"
       id="circle6" /><path
       fill="#e4ebef"
       d="m 22.75,17 c 0,-1.105 -0.895,-2 -2,-2 -1.105,0 -2,0.895 -2,2 0,0.032 0.008,0.063 0.01,0.095 C 18.6,17.037 18.43,17 18.25,17 c -0.829,0 -1.5,0.671 -1.5,1.5 0,0.829 0.671,1.5 1.5,1.5 0.198,0 0.385,-0.04 0.558,-0.11 0.172,0.638 0.749,1.11 1.442,1.11 0.829,0 1.5,-0.671 1.5,-1.5 0,-0.248 -0.066,-0.478 -0.172,-0.684 0.69,-0.315 1.172,-1.007 1.172,-1.816 z"
       id="path8" /><path
       fill="#c1694f"
       d="m 21.362,7.076 c 0,0 -0.817,-0.798 -0.873,-0.842 0.233,-0.618 0.164,-1.2689999 -0.25,-1.6919999 -0.627,-0.616 -1.758,-0.488 -2.536,0.29 L 15.582,6.953 c -0.777,0.777 -0.906,1.909 -0.29,2.536 0.423,0.413 1.073,0.483 1.692,0.25 0.045,0.055 0.842,0.873 0.842,0.873 0.781,0.78 2.047,0.78 2.828,0 l 0.707,-0.708 c 0.781,-0.781 0.781,-2.047 10e-4,-2.828 z"
       id="path10" /><path
       fill="#a95233"
       d="m 20.788,7.985 c 0.096,-0.096 0.395,-0.412 0.703,-0.75 -0.043,-0.053 -0.08,-0.109 -0.13,-0.159 0,0 -0.817,-0.798 -0.873,-0.842 -0.112,0.298 -0.289,0.59 -0.542,0.842 l -2.119,2.121 c -0.253,0.253 -0.545,0.43 -0.843,0.542 0.045,0.055 0.842,0.873 0.842,0.873 0.049,0.049 0.106,0.086 0.159,0.13 0.291,-0.261 0.584,-0.537 0.682,-0.634 z"
       id="path12" /><path
       fill="#264612"
       d="M 48.961,27.787 43.894,22.72 C 40.23,19.056 36.572,18.58 29.536,15.775 l -3.149,3.149 c 3.231,6.61 3.236,10.739 6.9,14.403 l 5.068,5.068 c 0.993,0.993 1.787,1.81 2.782,0.816 l 8.409,-8.412 c 0.996,-0.996 0.408,-2.019 -0.585,-3.012 z"
       id="path14" /><path
       fill="#ffe8b6"
       d="m 30.266,16.164 c 0,0 1.739,0.644 -0.56,2.943 -2.122,2.122 -2.917,0.651 -2.917,0.651 l -3.447,-3.447 3.536,-3.536 z"
       id="path16" /><path
       fill="#ffd983"
       d="m 27.185,13.083 -1.014,-1.015 -3.536,3.535 1.014,1.015 c 0.994,0.993 0.819,1.055 2.644,-0.77 l 0.592,-0.593 c 1.442,-1.443 1.293,-1.179 0.3,-2.172 z"
       id="path18-3" /><path
       fill="#264612"
       d="m 26.524,11.007 c 0.586,0.586 0.586,1.536 -0.001,2.122 l -2.827,2.827 c -0.586,0.587 -1.536,0.587 -2.122,0 -0.586,-0.585 -0.586,-1.536 0,-2.122 l 2.827,-2.827 c 0.587,-0.585 1.537,-0.586 2.123,0 z"
       id="path20" /><path
       fill="#ffe8b6"
       d="m 42.434,24.089 c -0.781,-0.78 -2.048,-0.78 -2.829,0 l -4.949,4.95 c -0.781,0.78 -0.781,2.047 0,2.828 l 4.242,4.242 c 0.781,0.781 2.048,0.781 2.829,0 l 4.949,-4.949 c 0.781,-0.781 0.781,-2.048 0,-2.828 z"
       id="path22-6" /></g></svg>
