<?xml version="1.0" encoding="UTF-8" standalone="no"?>
<svg
   xmlns:dc="http://purl.org/dc/elements/1.1/"
   xmlns:cc="http://creativecommons.org/ns#"
   xmlns:rdf="http://www.w3.org/1999/02/22-rdf-syntax-ns#"
   xmlns:svg="http://www.w3.org/2000/svg"
   xmlns="http://www.w3.org/2000/svg"
   xmlns:xlink="http://www.w3.org/1999/xlink"
   xmlns:sodipodi="http://sodipodi.sourceforge.net/DTD/sodipodi-0.dtd"
   xmlns:inkscape="http://www.inkscape.org/namespaces/inkscape"
   viewBox="0 0 45 45"
   style="enable-background:new 0 0 45 45;"
   xml:space="preserve"
   version="1.1"
   id="svg2"
   sodipodi:docname="frog_signal.svg"
   inkscape:version="0.92.4 5da689c313, 2019-01-14"
   inkscape:export-filename="/home/stefan/bitmap.png"
   inkscape:export-xdpi="68.26667"
   inkscape:export-ydpi="68.26667"><sodipodi:namedview
     pagecolor="#ffffff"
     bordercolor="#666666"
     borderopacity="1"
     objecttolerance="10"
     gridtolerance="10"
     guidetolerance="10"
     inkscape:pageopacity="0"
     inkscape:pageshadow="2"
     inkscape:window-width="1920"
     inkscape:window-height="1030"
     id="namedview839"
     showgrid="false"
     inkscape:zoom="22.627417"
     inkscape:cx="10.859697"
     inkscape:cy="21.535714"
     inkscape:window-x="1600"
     inkscape:window-y="50"
     inkscape:window-maximized="0"
     inkscape:current-layer="g1429"
     inkscape:pagecheckerboard="true" /><metadata
     id="metadata8"><rdf:RDF><cc:Work
         rdf:about=""><dc:format>image/svg+xml</dc:format><dc:type
           rdf:resource="http://purl.org/dc/dcmitype/StillImage" /><dc:title /></cc:Work></rdf:RDF></metadata><defs
     id="defs6"><linearGradient
       inkscape:collect="always"
       id="linearGradient927"><stop
         id="stop921"
         offset="0"
         style="stop-color:#ffffdb;stop-opacity:0.60392159" /><stop
         id="stop923"
         offset="0.41709951"
         style="stop-color:#ffffdb;stop-opacity:0.33486235" /><stop
         style="stop-color:#ffffdb;stop-opacity:0.60392159"
         offset="1"
         id="stop925" /></linearGradient><linearGradient
       id="linearGradient903"
       inkscape:collect="always"><stop
         style="stop-color:#ffffdb;stop-opacity:0.60392159"
         offset="0"
         id="stop891" /><stop
         style="stop-color:#ffffdb;stop-opacity:0.33486235"
         offset="0.41709951"
         id="stop895" /><stop
         id="stop901"
         offset="1"
         style="stop-color:#ffffdb;stop-opacity:0.60392159" /></linearGradient><linearGradient
       inkscape:collect="always"
       id="linearGradient868"><stop
         style="stop-color:#ffffdb;stop-opacity:0.60392159"
         offset="0"
         id="stop864" /><stop
         id="stop872"
         offset="0.24621826"
         style="stop-color:#ffffdb;stop-opacity:0.21266969" /><stop
         style="stop-color:#ffffdb;stop-opacity:0.60392159"
         offset="0.34717178"
         id="stop874" /><stop
         id="stop876"
         offset="0.47977927"
         style="stop-color:#ffffdb;stop-opacity:0.21719457" /><stop
         style="stop-color:#ffffdb;stop-opacity:0.60392159"
         offset="0.60572046"
         id="stop878" /><stop
         id="stop880"
         offset="0.72591472"
         style="stop-color:#ffffdb;stop-opacity:0.11764706" /><stop
         style="stop-color:#ffffdb;stop-opacity:0.60392159"
         offset="1"
         id="stop866" /></linearGradient><clipPath
       id="clipPath16"
       clipPathUnits="userSpaceOnUse"><path
         id="path18"
         d="M 0,36 36,36 36,0 0,0 0,36 Z" /></clipPath><linearGradient
       inkscape:collect="always"
       xlink:href="#linearGradient868"
       id="linearGradient870"
       x1="21.450001"
       y1="2.5499997"
       x2="34.299999"
       y2="15.5"
       gradientUnits="userSpaceOnUse" /><linearGradient
       inkscape:collect="always"
       xlink:href="#linearGradient903"
       id="linearGradient887"
       gradientUnits="userSpaceOnUse"
       x1="24.25135"
       y1="4.5329394"
       x2="31.931192"
       y2="13.414035" /><linearGradient
       inkscape:collect="always"
       xlink:href="#linearGradient927"
       id="linearGradient919"
       gradientUnits="userSpaceOnUse"
       x1="23.65135"
       y1="5.8329396"
       x2="32.281193"
       y2="13.414035" /></defs><g
     transform="matrix(1.25,0,0,-1.25,0,45)"
     id="g10"><g
       id="g12"><g
         clip-path="url(#clipPath16)"
         id="g14"><path
           inkscape:connector-curvature="0"
           style="fill:#001b35;fill-opacity:1;stroke-width:1"
           d="M 32,36.000001 H 4.0000001 C 1.791,36.000001 0,34.209001 0,32.000001 V 10 h 36 v 22.000001 c 0,2.209 -1.791,4 -4,4 z"
           id="path2" /><path
           id="path1448"
           d="M 32,0 H 4.0000001 C 1.791,0 0,1.791 0,4 V 26.000001 H 36 V 4 C 36,1.791 34.209,0 32,0 Z"
           style="fill:#001b35;fill-opacity:1;stroke-width:1"
           inkscape:connector-curvature="0" /><g
           id="g1429"
           transform="matrix(0.88889608,0,0,0.88889608,0.55665455,3.4606763)"><path
             sodipodi:nodetypes="ccccsc"
             style="fill:url(#linearGradient919);fill-opacity:1;stroke:none;stroke-width:0.80000001px;stroke-linecap:butt;stroke-linejoin:miter;stroke-opacity:1"
             d="M 3.8794271,18.241255 34.080731,-1.7365728 39.878322,1.2324344 22.331076,30.852605 C 24.765722,26.528625 23.052084,21.444071 19.126295,18.592363 15.200506,15.740655 8.9428427,14.912113 3.8794271,18.241255 Z"
             id="path850"
             inkscape:connector-curvature="0" /><g
             transform="matrix(0.96698491,0.17834051,-0.15988982,0.81402648,3.9949117,4.3232784)"
             id="g917"><circle
               transform="scale(1,-1)"
               cy="-24"
               cx="12"
               id="circle909"
               style="opacity:1;fill:#ffffdb;fill-opacity:0.60392157;stroke:none;stroke-width:0.35738841;stroke-linecap:square;stroke-linejoin:miter;stroke-miterlimit:4;stroke-dasharray:none;stroke-opacity:1;paint-order:stroke fill markers"
               r="12" /><g
               style="fill:#001b35;fill-opacity:0.81900454"
               transform="matrix(0.52432227,0,0,0.52432227,21.238129,22.076127)"
               id="g20"><path
                 inkscape:connector-curvature="0"
                 id="path22"
                 transform="matrix(1.4047424,0,0,-1.4047424,-39.155122,26.035863)"
                 d="m 7.9414062,4.296875 c -2.3584395,0 -4.2714843,1.9130448 -4.2714843,4.2714844 0,1.3461543 0.624524,2.5450636 1.5976562,3.3281246 -0.1962563,0.198856 -0.3790333,0.40485 -0.5585937,0.613282 -0.04393,0.05095 -0.089909,0.100869 -0.1328125,0.152343 -0.1545777,0.18566 -0.2967043,0.376256 -0.4375,0.56836 C 4.0726049,13.320453 4.0043573,13.408727 3.9414062,13.5 3.8263727,13.667116 3.7195149,13.836719 3.6152344,14.007812 3.5366085,14.136484 3.461027,14.2658 3.3886719,14.396484 c -0.082145,0.148766 -0.1605766,0.298114 -0.234375,0.449219 -0.076254,0.155675 -0.1457663,0.312864 -0.2128907,0.470703 -0.060362,0.142383 -0.1210843,0.283837 -0.1738281,0.427735 -0.061661,0.167597 -0.1130449,0.336546 -0.1640625,0.505859 -0.041424,0.138029 -0.084953,0.275122 -0.1191406,0.414062 -0.04836,0.195675 -0.081672,0.392827 -0.1152344,0.589844 -0.019235,0.11345 -0.046321,0.226102 -0.060547,0.339844 -0.039386,0.313183 -0.0625,0.625511 -0.0625,0.939453 -2e-7,6.48e-4 0,0.0013 0,0.002 -10e-8,5.307735 5.7377105,8.541016 12.8144534,8.541016 7.076742,0 12.8125,-3.233281 12.8125,-8.541016 0,-7.29e-4 0,-0.0012 0,-0.002 0,-0.313942 -0.02313,-0.62627 -0.0625,-0.939453 -0.01423,-0.113742 -0.04131,-0.226394 -0.06055,-0.339844 -0.03355,-0.197017 -0.06689,-0.394169 -0.115234,-0.589844 -0.03419,-0.13894 -0.07772,-0.276033 -0.119141,-0.414062 -0.051,-0.169313 -0.102418,-0.338262 -0.164063,-0.505859 -0.05416,-0.147763 -0.115543,-0.293292 -0.177734,-0.439453 -0.06268,-0.146881 -0.128625,-0.292493 -0.199219,-0.4375 -0.08062,-0.166062 -0.16517,-0.330903 -0.255859,-0.494141 -0.06779,-0.121715 -0.13965,-0.241366 -0.212891,-0.361328 -0.100847,-0.165602 -0.203526,-0.330301 -0.314453,-0.492188 -0.07483,-0.108964 -0.155113,-0.215137 -0.234375,-0.322265 -0.133279,-0.180493 -0.266635,-0.360392 -0.412109,-0.535157 -0.04315,-0.05177 -0.09057,-0.101103 -0.134766,-0.152343 -0.179595,-0.208473 -0.362296,-0.41439 -0.558594,-0.613282 0.973845,-0.783061 1.597657,-1.9819703 1.597657,-3.3281246 0,-2.3584396 -1.912333,-4.2714844 -4.271485,-4.2714844 -2.036672,0 -3.736938,1.4261612 -4.164062,3.3339844 -0.917606,-0.3438353 -1.909517,-0.5390625 -2.953125,-0.5390625 -1.042896,0 -2.038184,0.1952272 -2.955078,0.5390625 C 11.677632,5.7230362 9.9780787,4.296875 7.9414062,4.296875 Z"
                 style="fill:#001b35;fill-opacity:0.81900454;fill-rule:nonzero;stroke:none;stroke-width:0.71187431" /></g></g></g><path
           inkscape:connector-curvature="0"
           style="fill:#485359;stroke-width:1"
           d="M 10,-20 V 9.000001 l 4,4 h 2 l 4.000001,-4 V -20 Z M 33,5.000001 c 0,1 -1,1 -1,1 h -7.000001 c 0,0 -1,0 -1,-1 V -20 H 33 Z"
           id="path4" /><path
           inkscape:connector-curvature="0"
           style="fill:#292f33;stroke-width:1"
           d="m 28,15.166649 c 0,1 -1.000001,1 -1.000001,1 h -7.999998 c -1,0 -1,-1 -1,-1 V 0 H 28 Z m -17,-2 H 6.0000001 v 5.000001 c 0,0 0,1 -1,1 H 0 L 0,4.0000001 C 0,1.791 1.791,0 4.0000001,0 H 12 v 12.166649 c 0,0 0,1 -1,1 z M 32,7.1666494 c -1,0 -1,-1 -1,-1 V 0 h 1 c 2.209,0 4,1.791 4,4.0000001 v 3.1666493 z"
           id="path6"
           sodipodi:nodetypes="scscccssccscssccssccsscs" /><path
           inkscape:connector-curvature="0"
           style="fill:#ffcc4d;stroke-width:1"
           d="m 16,7.000001 h 2.000001 v -2 H 16 Z m 0,-4 h 2.000001 v -2 H 16 Z M 14,-1 h 2 v -2 h -2 z m 15,5.000001 h 2 v -2 H 29 Z M 29,0 h 2 v -2 h -2 z"
           id="path8"
           sodipodi:nodetypes="ccccccccccccccccccccccccc" /><g
           style="fill:#5d3800;fill-opacity:0.85490196"
           transform="matrix(0.56949945,0,0,0.56949945,19.881238,26.482717)"
           id="g24" /><path
           id="path1431"
           d="M 8.0000003,3.7656106 H 10 V 1.7656105 H 8.0000003 Z m 0,7.9999994 H 10 V 9.7656104 H 8.0000003 Z M 6.0000001,7.7656104 h 2.0000002 v -2 H 6.0000001 Z M 23.999999,14.76561 h 2 v -2 h -2 z m -1.999998,-4 h 1.999998 V 8.7656104 h -1.999998 z m -2,-5.9999994 h 2 V 2.7656105 h -2 z"
           style="fill:#ffcc4d;stroke-width:1"
           inkscape:connector-curvature="0"
           sodipodi:nodetypes="cccccccccccccccccccccccccccccc" /><path
           id="path1431-3"
           d="m 2.7291424,17.760467 h 2 v -2 h -2 z m -1.99999804,-4 H 2.7291424 v -2 H 0.72914436 Z"
           style="fill:#ffcc4d;stroke-width:1"
           inkscape:connector-curvature="0"
           sodipodi:nodetypes="cccccccccc" /></g></g></g></svg>