<?xml version="1.0" encoding="UTF-8" standalone="no"?>
<svg
   viewBox="0 0 36 36"
   version="1.1"
   id="svg26"
   sodipodi:docname="frogHug.svg"
   inkscape:version="1.1.1 (3bf5ae0d25, 2021-09-20, custom)"
   xmlns:inkscape="http://www.inkscape.org/namespaces/inkscape"
   xmlns:sodipodi="http://sodipodi.sourceforge.net/DTD/sodipodi-0.dtd"
   xmlns="http://www.w3.org/2000/svg"
   xmlns:svg="http://www.w3.org/2000/svg">
  <sodipodi:namedview
     id="namedview28"
     pagecolor="#505050"
     bordercolor="#ffffff"
     borderopacity="1"
     inkscape:pageshadow="0"
     inkscape:pageopacity="0"
     inkscape:pagecheckerboard="1"
     showgrid="false"
     inkscape:zoom="17.500893"
     inkscape:cx="16.084894"
     inkscape:cy="16.484873"
     inkscape:window-width="1920"
     inkscape:window-height="1026"
     inkscape:window-x="1920"
     inkscape:window-y="54"
     inkscape:window-maximized="1"
     inkscape:current-layer="svg26" />
  <defs
     id="defs4">
    <style
       id="style2">.cls-1{fill:#c6e5b3;}.cls-2{fill:#77b255;}.cls-3{fill:#fff;}.cls-4{fill:#292f33;}.cls-5{fill:#5c913b;}</style>
  </defs>
  <g
     id="g997"
     transform="matrix(0.79999777,0,0,0.79999777,2.2294198,4.1036605)"
     style="stroke-width:1.25">
    <path
       id="path22-3"
       style="fill:#c6e5b3;fill-opacity:1;fill-rule:nonzero;stroke:none;stroke-width:1.5625"
       d="m 42.213343,22.370667 c 0,9.32 -10.073751,15 -22.500001,15 -12.4262495,0 -22.4999995,-5.68 -22.4999995,-15 H 42.213343"
       sodipodi:nodetypes="cscc" />
    <path
       id="path26-6"
       style="fill:#77b255;fill-opacity:1;fill-rule:nonzero;stroke:none;stroke-width:1.5625"
       d="m 36.906967,10.715417 c 1.710001,-1.375 2.80625,-3.48125 2.80625,-5.845 0,-4.14125 -3.3575,-7.5 -7.5,-7.5 -3.57625,0 -6.5625,2.50625 -7.3125,5.85625 -1.61125,-0.60375 -3.355,-0.9475 -5.1875,-0.9475 -1.83125,0 -3.57625,0.34375 -5.18625,0.9475 -0.75125,-3.35 -3.7375,-5.85625 -7.3137495,-5.85625 -4.14125,0 -7.5,3.35875 -7.5,7.5 0,2.36375 1.0975,4.47 2.80625,5.845 -3.30625,3.35 -5.30625,7.51125 -5.30625,11.655 0,9.32 10.07375,1.25 22.4999995,1.25 12.4275,0 22.5,8.07 22.5,-1.25 0,-4.14375 -1.998749,-8.305 -5.30625,-11.655" />
    <path
       id="path30"
       style="fill:#ffffff;fill-opacity:1;fill-rule:nonzero;stroke:none;stroke-width:1.5625"
       d="m 10.963343,4.245667 c 0,2.41625 -1.9587505,4.375 -4.3750005,4.375 -2.41625,0 -4.375,-1.95875 -4.375,-4.375 0,-2.41625 1.95875,-4.375 4.375,-4.375 2.41625,0 4.3750005,1.95875 4.3750005,4.375" />
    <path
       id="path34"
       style="fill:#292f33;fill-opacity:1;fill-rule:nonzero;stroke:none;stroke-width:1.5625"
       d="m 8.4633425,4.245667 c 0,1.03625 -0.83875,1.875 -1.875,1.875 -1.03625,0 -1.875,-0.83875 -1.875,-1.875 0,-1.03625 0.83875,-1.875 1.875,-1.875 1.03625,0 1.875,0.83875 1.875,1.875" />
    <path
       id="path38"
       style="fill:#ffffff;fill-opacity:1;fill-rule:nonzero;stroke:none;stroke-width:1.5625"
       d="m 37.213343,4.245667 c 0,2.41625 -1.9575,4.375 -4.375,4.375 -2.417501,0 -4.375001,-1.95875 -4.375001,-4.375 0,-2.41625 1.9575,-4.375 4.375001,-4.375 2.4175,0 4.375,1.95875 4.375,4.375" />
    <path
       id="path42"
       style="fill:#292f33;fill-opacity:1;fill-rule:nonzero;stroke:none;stroke-width:1.5625"
       d="m 34.713343,4.245667 c 0,1.03625 -0.840001,1.875 -1.875,1.875 -1.035,0 -1.875001,-0.83875 -1.875001,-1.875 0,-1.03625 0.840001,-1.875 1.875001,-1.875 1.034999,0 1.875,0.83875 1.875,1.875" />
    <path
       id="path46"
       style="fill:#5c913b;fill-opacity:1;fill-rule:nonzero;stroke:none;stroke-width:1.5625"
       d="m 15.963343,19.870667 c 0,0.69125 -0.560001,1.25 -1.25,1.25 -0.69,0 -1.25,-0.55875 -1.25,-1.25 0,-0.69125 0.56,-1.25 1.25,-1.25 0.689999,0 1.25,0.55875 1.25,1.25" />
    <path
       id="path50"
       style="fill:#5c913b;fill-opacity:1;fill-rule:nonzero;stroke:none;stroke-width:1.5625"
       d="m 25.963342,19.870667 c 0,0.69125 -0.55875,1.25 -1.25,1.25 -0.69125,0 -1.25,-0.55875 -1.25,-1.25 0,-0.69125 0.55875,-1.25 1.25,-1.25 0.69125,0 1.25,0.55875 1.25,1.25" />
  </g>
  <path
     class="cls-5"
     d="M 13.39,23.15 11.85,20.93 A 1.0170792,1.0170792 0 1 0 10.12,22 l 1.76,3.38 c 0,0 0.14,0.77 -0.92,-0.09 -0.46,-0.38 -0.2,-0.17 -0.2,-0.17 l -0.44,-0.36 -5.49,-4.5 a 0.87,0.87 0 0 0 -1.36,0 0.87,0.87 0 0 0 0.22,1.34 l 5.2,4.26 C 8.77,25.98 8.41,26.4 8.29,26.53 L 2.73,22 a 0.87,0.87 0 0 0 -1.36,0 0.87,0.87 0 0 0 0.22,1.34 L 7.15,28 6.69,28.62 1.9,24.65 a 0.87,0.87 0 0 0 -1.36,0 0.88,0.88 0 0 0 0.22,1.35 l 5.1,4.18 C 5.79,30.36 5.49,30.83 5.45,31 L 1.77,28 a 0.86,0.86 0 0 0 -1.35,0 0.87,0.87 0 0 0 0.22,1.34 L 6.57,34.21 7,34.6 a 6.14,6.14 0 0 0 8.4,-8.91 24.27,24.27 0 0 1 -2.01,-2.54 z m 22.19,4.92 a 0.86,0.86 0 0 0 -1.35,0 l -3.68,3 c 0,-0.17 -0.34,-0.64 -0.41,-0.82 L 35.24,26 A 0.91,0.91 0 1 0 34.1,24.61 L 29.31,28.55 28.85,28 34.41,23.44 A 0.91831367,0.91831367 0 1 0 33.27,22 l -5.56,4.56 C 27.6,26.43 27.24,26.02 27.11,25.9 l 5.2,-4.27 a 0.9,0.9 0 1 0 -1.14,-1.38 l -5.49,4.5 -0.44,0.37 c 0,0 1,-0.85 -0.2,0.16 -1.2,1.01 -0.91,0.09 -0.91,0.09 L 25.88,22 a 1.0197181,1.0197181 0 1 0 -1.73,-1.08 l -1.54,2.21 a 23,23 0 0 1 -2,2.54 6.14,6.14 0 0 0 8.39,8.94 l 0.39,-0.33 5.93,-4.87 a 0.87,0.87 0 0 0 0.26,-1.34 z"
     id="path22" />
</svg>
