<svg xmlns="http://www.w3.org/2000/svg" xmlns:xlink="http://www.w3.org/1999/xlink" viewBox="0 0 246 246"><defs><style>.cls-1{fill:url(#Unbenannter_Verlauf_64);}.cls-2{fill:url(#Unbenannter_Verlauf_63);}.cls-3{fill:url(#Unbenannter_Verlauf_3);}.cls-4{fill:#fff;}</style><linearGradient id="Unbenannter_Verlauf_64" x1="123" y1="245.89" x2="123" y2="-0.11" gradientTransform="matrix(1, 0, 0, -1, 0, 245.89)" gradientUnits="userSpaceOnUse"><stop offset="0" stop-color="#011400"/><stop offset="0.06" stop-color="#022602"/><stop offset="0.19" stop-color="#094b07"/><stop offset="0.32" stop-color="#0f6a0b"/><stop offset="0.47" stop-color="#13810e"/><stop offset="0.62" stop-color="#179211"/><stop offset="0.79" stop-color="#1a9c13"/><stop offset="1" stop-color="#199f13"/></linearGradient><linearGradient id="Unbenannter_Verlauf_63" x1="122.75" y1="2.63" x2="122.75" y2="81.64" gradientTransform="matrix(1, 0, 0, -1, 0, 245.89)" gradientUnits="userSpaceOnUse"><stop offset="0" stop-color="#5fc643"/><stop offset="1" stop-color="#a5a1aa" stop-opacity="0"/></linearGradient><linearGradient id="Unbenannter_Verlauf_3" x1="122.76" y1="244.14" x2="122.76" y2="165.14" gradientTransform="matrix(1, 0, 0, -1, 0, 245.89)" gradientUnits="userSpaceOnUse"><stop offset="0" stop-color="#fff"/><stop offset="1" stop-color="#cfcfcf" stop-opacity="0"/></linearGradient></defs><g id="Ebene_2" data-name="Ebene 2"><g id="Ebene_1-2" data-name="Ebene 1"><g id="Layer_2" data-name="Layer 2"><g id="Layer_1-2" data-name="Layer 1-2"><rect class="cls-1" width="246" height="246" rx="19.83"/><path class="cls-2" d="M5.75,164.25h234v60.63a18.38,18.38,0,0,1-18.37,18.38H24.13A18.38,18.38,0,0,1,5.75,224.88h0V164.25Z"/><path class="cls-3" d="M24.13,1.75H221.38a18.38,18.38,0,0,1,18.38,18.38h0V80.75H5.75V20.13A18.38,18.38,0,0,1,24.13,1.75Z"/><path class="cls-4" d="M123,220c-29,0-55.63-6.55-75.11-18.43C27,188.82,15.35,170.94,14.26,149.87V144.2a10,10,0,0,1,.07-1.46v-.11a11.59,11.59,0,0,1,.11-1.3,2.46,2.46,0,0,1,.06-.66,10.24,10.24,0,0,1,.12-1.23,2,2,0,0,1,.08-.68c.06-.52.13-1.06.22-1.6V137c.07-.5.16-1.06.26-1.63v-.18c.11-.62.22-1.22.35-1.84s.26-1.24.41-1.87c.43-1.83,1-3.72,1.55-5.61,3.84-12,11-23.78,20.62-34.09a37.93,37.93,0,1,1,62.1-38.82,71.75,71.75,0,0,1,45.56,0,37.94,37.94,0,1,1,62.1,38.82c9.67,10.31,16.77,22,20.61,34.09.6,1.87,1.12,3.76,1.55,5.61.15.63.28,1.25.41,1.88s.24,1.2.35,1.82v.18c.11.57.2,1.13.28,1.71v.16c.08.52.15,1.06.21,1.6a5.23,5.23,0,0,0,.08.65c0,.42.09.83.12,1.24a2.46,2.46,0,0,0,.06.66c0,.44.08.87.11,1.31s0,1,.07,1.56v5.71c-1.08,21-12.71,38.89-33.63,51.66C178.63,213.47,152,220,123,220Z"/><path d="M182.08,28.49a35.43,35.43,0,0,1,22.21,63h0c10.25,10.39,17.85,22.44,21.86,35q.85,2.7,1.5,5.42c.14.61.27,1.21.39,1.82s.23,1.17.34,1.77v.09c.11.56.2,1.13.28,1.7v.18c.08.51.14,1,.21,1.53,0,.21,0,.42.07.63.05.4.09.81.12,1.2a2.47,2.47,0,0,0,.05.61c0,.43.08.85.11,1.27s.05,1,.07,1.55v5.38c-2.18,42.19-48.91,67.78-106.24,67.78S18.93,191.93,16.76,149.74v-5.38a11.71,11.71,0,0,1,.07-1.55c.07-.55.06-.84.11-1.27a2.56,2.56,0,0,1,0-.61,8.27,8.27,0,0,1,.12-1.2,1.94,1.94,0,0,1,.07-.63c.06-.51.13-1,.21-1.53v-.18c.08-.57.17-1.14.28-1.7v-.09c.11-.59.22-1.17.34-1.77s.25-1.21.39-1.82q.63-2.72,1.5-5.42c4-12.58,11.61-24.62,21.86-35h0A35.43,35.43,0,1,1,98.49,56.16a69.38,69.38,0,0,1,49,0,35.43,35.43,0,0,1,34.57-27.67m0-5A40.44,40.44,0,0,0,144.2,49.78a74.3,74.3,0,0,0-42.41,0,40.43,40.43,0,1,0-67.15,42A92.58,92.58,0,0,0,15.12,125c-.62,2-1.16,3.9-1.6,5.81-.15.64-.29,1.29-.42,1.94s-.25,1.24-.36,1.88v.25c-.1.53-.19,1.08-.27,1.69v.18c-.09.56-.16,1.11-.22,1.67,0,.21-.06.45-.08.68-.05.39-.09.81-.12,1.27a2.76,2.76,0,0,1-.06.7c0,.45-.08.9-.11,1.34v.13a10,10,0,0,1-.07,1.46v6c1.11,22,13.19,40.5,34.78,53.7,19.86,12.12,47,18.8,76.41,18.8s56.55-6.68,76.41-18.8c21.63-13.2,33.67-31.75,34.83-53.66v-6a10,10,0,0,0-.07-1.46v-.13c0-.44-.07-.89-.11-1.34a2.76,2.76,0,0,0-.06-.7,9.62,9.62,0,0,0-.12-1.27,5.87,5.87,0,0,0-.08-.72c-.06-.52-.13-1.07-.22-1.63v-.18c-.09-.61-.18-1.17-.27-1.69v-.25c-.12-.64-.23-1.27-.37-1.91s-.26-1.27-.42-1.93c-.44-1.89-1-3.85-1.6-5.79A92.66,92.66,0,0,0,211.39,91.8a40.43,40.43,0,0,0-29.28-68.32Z"/></g></g></g></g></svg>