<?xml version="1.0" encoding="UTF-8" standalone="no"?>
<!-- Generator: Adobe Illustrator 25.0.0, SVG Export Plug-In . SVG Version: 6.00 Build 0)  -->

<svg
   version="1.1"
   id="Ebene_1"
   x="0px"
   y="0px"
   viewBox="0 0 36 36"
   style="enable-background:new 0 0 36 36;"
   xml:space="preserve"
   sodipodi:docname="frogDogCostume.svg"
   inkscape:version="1.1.1 (3bf5ae0d25, 2021-09-20, custom)"
   xmlns:inkscape="http://www.inkscape.org/namespaces/inkscape"
   xmlns:sodipodi="http://sodipodi.sourceforge.net/DTD/sodipodi-0.dtd"
   xmlns="http://www.w3.org/2000/svg"
   xmlns:svg="http://www.w3.org/2000/svg"><defs
   id="defs51">
	
	
	
	
	
</defs><sodipodi:namedview
   id="namedview49"
   pagecolor="#505050"
   bordercolor="#ffffff"
   borderopacity="1"
   inkscape:pageshadow="0"
   inkscape:pageopacity="0"
   inkscape:pagecheckerboard="1"
   showgrid="false"
   inkscape:zoom="12.375"
   inkscape:cx="22.747475"
   inkscape:cy="13.939394"
   inkscape:window-width="1920"
   inkscape:window-height="1026"
   inkscape:window-x="1920"
   inkscape:window-y="54"
   inkscape:window-maximized="1"
   inkscape:current-layer="Ebene_1" />
<style
   type="text/css"
   id="style2">
	.st0{fill:#C6E5B3;}
	.st1{fill:#77B255;}
	.st2{fill:#FFFFFF;}
	.st3{fill:#292F33;}
	.st4{fill:#D99E82;}
	.st5{fill:#F4C7B5;}
</style>
<g
   id="g905"
   transform="matrix(0.79999778,0,0,0.79999778,-18.848383,0.30390126)"
   style="stroke-width:1.25"><path
     id="path22-3"
     style="fill:#c6e5b3;fill-opacity:1;fill-rule:nonzero;stroke:none;stroke-width:1.5625"
     d="m 68.560669,26.769906 c 0,9.32 -10.07375,15 -22.5,15 -12.42625,0 -22.5,-5.68 -22.5,-15 h 45"
     sodipodi:nodetypes="cscc" /><path
     id="path26-6"
     style="fill:#77b255;fill-opacity:1;fill-rule:nonzero;stroke:none;stroke-width:1.5625"
     d="m 63.254294,15.001441 c 1.71,-1.375 2.80625,-3.48125 2.80625,-5.845 0,-4.14125 -3.3575,-7.5 -7.5,-7.5 -3.57625,0 -6.5625,2.50625 -7.3125,5.85625 -1.61125,-0.60375 -3.355,-0.9475 -5.1875,-0.9475 -1.83125,0 -3.57625,0.34375 -5.18625,0.9475 -0.75125,-3.35 -3.7375,-5.85625 -7.31375,-5.85625 -4.14125,0 -7.5,3.35875 -7.5,7.5 0,2.36375 1.0975,4.47 2.80625,5.845 -3.30625,3.35 -5.30625,7.51125 -5.30625,11.655 0,9.32 10.07375,1.25 22.5,1.25 12.4275,0 22.5,8.07 22.5,-1.25 0,-4.14375 -1.99875,-8.305 -5.30625,-11.655" /><path
     id="path30"
     style="fill:#ffffff;fill-opacity:1;fill-rule:nonzero;stroke:none;stroke-width:1.5625"
     d="m 37.310669,8.531691 c 0,2.41625 -1.95875,4.375 -4.375,4.375 -2.41625,0 -4.375,-1.95875 -4.375,-4.375 0,-2.41625 1.95875,-4.375 4.375,-4.375 2.41625,0 4.375,1.95875 4.375,4.375" /><path
     id="path34"
     style="fill:#292f33;fill-opacity:1;fill-rule:nonzero;stroke:none;stroke-width:1.5625"
     d="m 34.810669,8.531691 c 0,1.03625 -0.83875,1.875 -1.875,1.875 -1.03625,0 -1.875,-0.83875 -1.875,-1.875 0,-1.03625 0.83875,-1.875 1.875,-1.875 1.03625,0 1.875,0.83875 1.875,1.875" /><path
     id="path38"
     style="fill:#ffffff;fill-opacity:1;fill-rule:nonzero;stroke:none;stroke-width:1.5625"
     d="m 63.560669,8.531691 c 0,2.41625 -1.9575,4.375 -4.375,4.375 -2.4175,0 -4.375,-1.95875 -4.375,-4.375 0,-2.41625 1.9575,-4.375 4.375,-4.375 2.4175,0 4.375,1.95875 4.375,4.375" /><path
     id="path42"
     style="fill:#292f33;fill-opacity:1;fill-rule:nonzero;stroke:none;stroke-width:1.5625"
     d="m 61.060669,8.531691 c 0,1.03625 -0.84,1.875 -1.875,1.875 -1.035,0 -1.875,-0.83875 -1.875,-1.875 0,-1.03625 0.84,-1.875 1.875,-1.875 1.035,0 1.875,0.83875 1.875,1.875" /><path
     id="path46"
     style="fill:#5c913b;fill-opacity:1;fill-rule:nonzero;stroke:none;stroke-width:1.5625"
     d="m 42.310669,24.156691 c 0,0.69125 -0.56,1.25 -1.25,1.25 -0.69,0 -1.25,-0.55875 -1.25,-1.25 0,-0.69125 0.56,-1.25 1.25,-1.25 0.69,0 1.25,0.55875 1.25,1.25" /><path
     id="path50"
     style="fill:#5c913b;fill-opacity:1;fill-rule:nonzero;stroke:none;stroke-width:1.5625"
     d="m 52.310669,24.156691 c 0,0.69125 -0.55875,1.25 -1.25,1.25 -0.69125,0 -1.25,-0.55875 -1.25,-1.25 0,-0.69125 0.55875,-1.25 1.25,-1.25 0.69125,0 1.25,0.55875 1.25,1.25" /></g><g
   id="g44">
		<path
   class="st4"
   d="m 30,27.2 c 0,5.4 -4.3,5.4 -4.3,5.4 H 10.2 c 0,0 -4.3,0 -4.3,-5.4 0,-5.8 -1.5,-16.1 12.1,-16.1 13.6,0 12,11.1 12,16.1 z"
   id="path20" />
		<path
   class="st5"
   d="m 18,25.8 c -6,0 -8.6,3 -8.6,5.5 0,2.6 2.1,4.8 4.8,4.8 0.7,0 1.3,-0.2 1.9,-0.5 1.2,-0.7 2.8,-0.7 4,0 0.6,0.3 1.2,0.5 1.9,0.5 2.6,0 4.8,-2.1 4.8,-4.8 C 26.6,28.9 24,25.8 18,25.8 Z"
   id="path22" />
		<path
   class="st3"
   d="m 13.7,24.9 c -1,0 -1.7,-0.8 -1.7,-1.7 v -1.7 c 0,-1 0.8,-1.7 1.7,-1.7 1,0 1.7,0.8 1.7,1.7 v 1.7 c 0,1 -0.8,1.7 -1.7,1.7 z"
   id="path24" />
		<path
   class="st3"
   d="m 22.3,24.9 c -1,0 -1.7,-0.8 -1.7,-1.7 v -1.7 c 0,-1 0.8,-1.7 1.7,-1.7 1,0 1.7,0.8 1.7,1.7 v 1.7 c 0,1 -0.7,1.7 -1.7,1.7 z"
   id="path26" />
		<g
   id="g42">
			<circle
   class="st4"
   cx="22.700001"
   cy="30.5"
   r="0.40000001"
   id="circle28" />
			<circle
   class="st4"
   cx="12.4"
   cy="30.5"
   r="0.40000001"
   id="circle30" />
			<circle
   class="st4"
   cx="24.5"
   cy="32.299999"
   r="0.40000001"
   id="circle32" />
			<circle
   class="st4"
   cx="11.5"
   cy="32.299999"
   r="0.40000001"
   id="circle34" />
			<circle
   class="st4"
   cx="22.299999"
   cy="32.700001"
   r="0.89999998"
   id="circle36" />
			<circle
   class="st4"
   cx="13.7"
   cy="32.700001"
   r="0.89999998"
   id="circle38" />
			<path
   class="st3"
   d="m 15.4,28.3 c -0.9,0.9 1.7,3.5 2.6,3.5 0.9,0 3.5,-2.6 2.6,-3.5 -0.9,-0.9 -4.3,-0.9 -5.2,0 z"
   id="path40" />
		</g>
	</g>
</svg>
