<svg xmlns="http://www.w3.org/2000/svg" xmlns:xlink="http://www.w3.org/1999/xlink" viewBox="0 0 2191.92 1827.63"><defs><style>.cls-1,.cls-12{fill:none;}.cls-2{clip-path:url(#clip-path);}.cls-3{fill:#b3b3b3;}.cls-4{fill:#4289c1;}.cls-5{fill:#fee7b8;}.cls-6{fill:#ecd8b0;}.cls-7{fill:#ff7892;}.cls-8{fill:#875a39;}.cls-9{fill:#a87c4f;}.cls-10{fill:#292f33;}.cls-11,.cls-14{fill:#c31c2e;}.cls-11,.cls-12{stroke:#292f33;stroke-linecap:round;stroke-linejoin:round;stroke-width:10px;}.cls-13{fill:#bb1a34;}.cls-14{opacity:0.8;isolation:isolate;}</style><clipPath id="clip-path" transform="translate(211.99 -8.55)"><rect class="cls-1" width="1979.93" height="1979.93"/></clipPath></defs><g id="Ebene_2" data-name="Ebene 2"><g id="Ebene_1-2" data-name="Ebene 1"><g class="cls-2"><path class="cls-3" d="M1834.27,753.92c12.33-52.26,23.7-104.69-40.37-170.52-44.68-47.42-37.72-82.4-10.75-113.07,42.39-42.74-14.8-107.34-48.91-180.93,43,52.35,79.32,110.34,85.93,191.5-15,67.33,9.43,91.13,52.87,93.6C1947.42,606.75,1898.42,686.77,1834.27,753.92Z" transform="translate(211.99 -8.55)"/><g id="Ebene_1-2-2" data-name="Ebene 1-2"><circle class="cls-4" cx="1430.71" cy="153.43" r="102.25"/><circle class="cls-4" cx="1479.13" cy="360.39" r="153.39" transform="translate(390.38 1142.91) rotate(-45)"/><circle class="cls-4" cx="1429.53" cy="161.98" r="153.39" transform="translate(516.15 1049.72) rotate(-45)"/><circle class="cls-4" cx="1311.73" cy="217.79" r="127.83" transform="translate(442.19 982.77) rotate(-45)"/><circle class="cls-4" cx="1629.12" cy="314.64" r="102.25"/><circle class="cls-4" cx="339.44" cy="426.23" r="102.25"/><circle class="cls-4" cx="203.03" cy="723.85" r="153.39"/><circle class="cls-4" cx="153.43" cy="525.44" r="153.39"/><circle class="cls-4" cx="283.63" cy="519.25" r="127.83"/><circle class="cls-4" cx="240.23" cy="661.85" r="102.25"/><path class="cls-5" d="M1788,1009.27c88.45,353.83-240.09,665.07-711.85,783s-908.11-2.1-996.57-355.92S284.1,628.91,755.86,511,1699.56,655.43,1788,1009.27Z" transform="translate(211.99 -8.55)"/><path class="cls-6" d="M1476,617.15c51.87-68.43,73.5-158.8,51.06-248.54-39.3-157.22-198.69-252.86-355.91-213.55C1035.33,189,945.73,312.44,949,446.8a574,574,0,0,0-393.79,98.44C494.9,425.15,357.75,358.39,222,392.33,64.76,431.63-30.88,591,8.43,748.24c22.43,89.74,84,159.3,162,195.28C76.71,1102.08,40.27,1279,79.6,1436.36c88.46,353.82,394.31-48.16,866.07-166.09s930.8,92.83,842.35-261C1748.69,852,1633.25,713,1476,617.15Z" transform="translate(211.99 -8.55)"/><circle class="cls-7" cx="1742.22" cy="1122.08" r="221.27"/><circle class="cls-7" cx="569.07" cy="1415.36" r="221.27"/><g id="blunt_bot" data-name="blunt bot"><path class="cls-8" d="M1919.63,1424.3a76.84,76.84,0,0,1-2.38,10,40.63,40.63,0,0,1-1.59,4.58,44.07,44.07,0,0,1-2.73,6.26c-.61,1.15-1.32,2.29-2,3.44a41.09,41.09,0,0,1-2.74,4l-2.73,3.09a47.65,47.65,0,0,1-4.93,4.49,59.37,59.37,0,0,1-5.56,3.61,52,52,0,0,1-8.81,3.62l-4.76,1.23a69.08,69.08,0,0,1-7.84,1.23,104.18,104.18,0,0,1-24.76-1c-141,0-353.31-42.56-586.23-96.94-39.66-9.25-80-18.77-120.65-28.55-67.77-16.3-136.42-33.14-204.81-49.79h-1.58c-6.61-1.68-10.31-8.81-11.46-17.1h0l10.75-2.91Z" transform="translate(211.99 -8.55)"/><path class="cls-9" d="M1934.44,1402.45l-3.27,5.46c-1.14,1.94-2.46,3.88-4,6l-4.76,6.17-2.73,3.26v.8h0L935.15,1273.34l11.28-2.91A1253.77,1253.77,0,0,1,1083.21,1244h0l656.73,32.61c11.1-2.29,22-4.23,32.87-5.73,7.14-1,14.36-1.85,21.41-2.46,11.72-1.06,23.27-1.5,34.64-1.41l44.06,20,2.47,1.76,2.38,1.77h0a157.29,157.29,0,0,1,15.86,13.66c15.6,15.24,19.65,27.4,15.87,37.45h0l3,1.94c1.94,1.32,3.88,2.64,5.73,4.05C1936.2,1360.85,1948.45,1375.83,1934.44,1402.45Z" transform="translate(211.99 -8.55)"/><path class="cls-10" d="M1926.15,1338.38l-2-1.5c.53-13-6.61-26.44-21.15-40.8a160.15,160.15,0,0,0-16.66-14.46h-.44l-2.64-1.94-2.74-2-2.11-1.24-44.06-19.91a13.86,13.86,0,0,0-5.38-1.15H1826c-11,0-22.12.44-33,1.5-8.11.7-15.33,1.5-22.21,2.56-9.69,1.23-20.27,3-31.9,5.37l-578.45-29.31a1349.56,1349.56,0,0,0-214.82,35.34c-11.35,2.84-23.33,6.24-34.48,9.4a10.9,10.9,0,0,1,.13,1.57c.49,12.7,8.57,20.87,20.63,24.86l2.47.62,40.81,9.87c53.84,13.13,109.54,26.44,163.65,39.74,36.31,8.82,75.79,18.07,120.73,28.56,205.34,47.59,435.71,96.32,588.26,96.94a126.71,126.71,0,0,0,17.62,1.41,81.85,81.85,0,0,0,9.52-.53,50.93,50.93,0,0,0,9.25-1.41l4.76-1.23h.71a55.17,55.17,0,0,0,10.93-4.67,51,51,0,0,0,7.4-4.85,57.55,57.55,0,0,0,6.26-5.73v-.44c.88-1.06,1.93-2.12,2.82-3.26l.52-.62a43.72,43.72,0,0,0,3.44-5.2c.79-1.23,1.59-2.55,2.29-3.88a48.76,48.76,0,0,0,3.44-7.75,51.36,51.36,0,0,0,2.91-5.73q1.37-4.35,2.29-8.81l.79-1.06c1.59-1.94,3.26-4.14,4.85-6.26a69.91,69.91,0,0,0,4.67-7.13c1.15-1.77,2.29-3.62,3.35-5.64,5.47-10.41,7.64-19.59,7.64-27.63C1953.36,1358.28,1934.57,1344.49,1926.15,1338.38Zm8.29,64.33-3.26,5.47c-1.15,1.93-2.47,3.87-4,6l-4.76,6.17c-.79,1.05-1.67,2.2-2.64,3.26l-.09.1-.08.09a1.39,1.39,0,0,0-.21.3c-.06.09-.06.15,0,.17h0a.22.22,0,0,0,.15,0h.07c.09,0,.18,0,.18.09a76.84,76.84,0,0,1-2.38,10,40.63,40.63,0,0,1-1.59,4.58,45.09,45.09,0,0,1-2.73,6.26c-.62,1.14-1.32,2.29-2,3.43a39.45,39.45,0,0,1-2.73,4.06l-2.73,3.08a48.8,48.8,0,0,1-4.93,4.5,33.94,33.94,0,0,1-5.56,3.61,40.51,40.51,0,0,1-8.81,3.61l-1,.26-3,.77-.8.21a69.44,69.44,0,0,1-7.84,1.23,78.4,78.4,0,0,1-8.11.44,116.31,116.31,0,0,1-16.66-1.41c-141,0-353.3-42.56-586.22-96.94-39.66-9.25-80-18.77-120.65-28.55q-42.07-10.08-84.61-20.43c-40-9.71-80.16-19.53-120.2-29.28h-1.58a11.79,11.79,0,0,1-5.35-3,1,1,0,0,1-.18-.17c-3.22-3.22-5.15-8.29-5.93-13.88l10.75-2.91.37-.1,1-.25,9.92-2.56A1253.77,1253.77,0,0,1,1083,1244.52l.7.09,55.57,2.75,433.7,21.48,167.46,8.29c11.1-2.29,22-4.23,32.87-5.64,7.14-1.06,14.37-1.85,21.42-2.47,10.75-1,21.32-1.41,31.81-1.41h2.82l17.93,8.11,26.13,11.81,2.47,1.85,2.38,1.76a158.58,158.58,0,0,1,15.86,13.66q3.36,3.29,6,6.39c.14.15.26.3.38.45,8.06,9.51,11.28,17.72,10.73,24.93a20.17,20.17,0,0,1-1.06,5.14l-.12.33c0,.07,0,.15-.08.22l3,2c1.94,1.32,3.88,2.65,5.73,4.06,7.66,5.54,14.26,11.51,18.14,18.66.19.36.38.72.56,1.08s.34.7.5,1.05a22.6,22.6,0,0,1,.84,2.11,27.74,27.74,0,0,1,1.1,3.74q.22,1,.36,2.07C1941.3,1384.28,1939.73,1392.67,1934.44,1402.71Z" transform="translate(211.99 -8.55)"/><path class="cls-11" d="M1919.72,1423.33c-4.85,30.41-21.86,46-50.85,47-20.18-4.06-20.8-25-39.31-32.79-34.54-16.92-30.22-28.2-7.22-23.62,24.67,5.29,33-1.41,5.37-35.25-10.31-11.81-1.94-20.53,21.24-21,7.58-6.17-1.32-21.77-13-19.39a54.05,54.05,0,0,1-34-2.82c-28-24.06,2.2-23.18,29.08-23.88-7.31-1.85-8.28-7.58-8.81-13.57a52,52,0,0,0,25.47-22.83l25.73,11.63c32.61,23.71,41.78,41.16,36.75,54.82C1935.93,1359.18,1958.41,1377.77,1919.72,1423.33Z" transform="translate(211.99 -8.55)"/><path class="cls-12" d="M1868.08,1436.2c18.15-5.2,20.09-11,5.55-17.62" transform="translate(211.99 -8.55)"/><path class="cls-12" d="M1869.13,1383.85c10.14-11.28,20.18-3.43,15.34,13.66" transform="translate(211.99 -8.55)"/><path class="cls-12" d="M1898,1362.61c11.63,2.91,15.6,8.11,6.87,17" transform="translate(211.99 -8.55)"/><path class="cls-12" d="M1871.51,1336.79q12-14,14.54,9.7" transform="translate(211.99 -8.55)"/><line class="cls-12" x1="1351.6" y1="1238.53" x2="1269.29" y2="1314.76"/><line class="cls-12" x1="1785.28" y1="1260.03" x2="1635.29" y2="1399.62"/></g><circle class="cls-13" cx="902.49" cy="1110.63" r="178.96" transform="translate(-309.01 954.9) rotate(-45)"/><circle class="cls-14" cx="475.49" cy="650.71" r="171.21"/><circle class="cls-10" cx="475.49" cy="650.71" r="73.38"/><circle class="cls-14" cx="1472.07" cy="401.58" r="171.21"/><circle class="cls-10" cx="1260.08" cy="410.13" r="73.38" transform="translate(291.05 1002.58) rotate(-45)"/></g><path class="cls-3" d="M1910.85,1258c.44-78.7-.44-157.31-113.69-230.46-79.31-52.88-80.81-105.22-52.43-157.92,46.62-75-56.4-148.5-129.29-242.53,78.7,60.63,149,132.19,185.69,245.52.62,101.09,43.36,127,106.72,116.16C2024.27,1010.55,1980.47,1141,1910.85,1258Z" transform="translate(211.99 -8.55)"/></g></g></g></svg>