<svg xmlns="http://www.w3.org/2000/svg" viewBox="0 0 438.21 438.21"><defs><style>.cls-1{fill:#78b254;}.cls-2{fill:#c6dfb2;}.cls-3{fill:#ed6b35;}.cls-4{fill:#fff;}.cls-5{fill:#2b3135;}.cls-6{fill:#5c913b;}.cls-7{fill:none;}</style></defs><g id="Ebene_2" data-name="Ebene 2"><g id="Ebene_1-2" data-name="Ebene 1"><path class="cls-1" d="M33.23,198.5A275.5,275.5,0,0,1,86.51,105c-14.4-25.79-10.25-60,9.21-82.28,20.24-26.88,64.82-32.48,85-2.64,15.5,24.66-.18,16.18,35,10.76,31.35-5.55,64.17-3.15,94,8.17,18.95-8,41.85-9.51,58.32,5.64C381.43,56,387.85,73.87,386.45,91.17c2.51,6,8.13,10.65,11,16.7,4.22,8.82,11.07,15.88,14.69,25,5.83,14.15,8.43,29.38,10,44.52,3,33.49.86,68.12-11.56,99.62-31.22,12.48-68.62,12.72-99.93.29C318.5,218,274,182,218,204.82c-15,4.08-33.5,14-48,4.28-15.21-11.42-26.86-33.9-48.47-31.81-18.63,2.05-31.77,18-35.9,35.5C67.86,218.85,43.27,216.05,33.23,198.5Z"/><path class="cls-2" d="M310.62,277.27c31.31,12.43,68.71,12.19,99.93-.29-14.74,52.33,31,51.59,7.41,97.48a76.37,76.37,0,0,0-6.58,8.7c-63.75,69.74-265.21,67.16-345.29,26-44-21.9-53.88-46.48-52.65-94.23,1.15-39.36,5.48-79.5,19.79-116.41,10,17.55,34.63,20.35,52.36,14.29-4.12,16.51-4.26,37.39,9.15,49.78,14.48,9.46,33.44,3.49,49.43,8.61,11.92,2.71,21.53,10.84,28.77,20.4C209.91,356.79,294.57,356.75,310.62,277.27Z"/><path class="cls-3" d="M310.62,277.27c-9,52.94-59.36,78.37-105.92,49.49-19.13-11.31-26.77-33.84-43.66-47.47-25.56-22-72.4,5.62-77.36-39.88-3.39-25.68,9-58.7,37.81-62.12,21.61-2.09,33.27,20.39,48.47,31.81,22.6,14.13,56.09-15.72,88.37-12C298.57,201.73,316.91,242.65,310.62,277.27Z"/><path class="cls-4" d="M93.65,71.56c-1.33-50.62,67.63-84.34,82.25-23.19,5.95,31-19.51,71.15-53.9,64.73C103.37,109.13,93.3,89.46,93.65,71.56Z"/><path class="cls-4" d="M370.78,86.32c-.73,49.89-72.29,56.75-73.78,3.51C297.7,39.65,369.36,32.86,370.78,86.32Z"/><path class="cls-5" d="M117.4,66.34c-.05-10.32,9.92-24.4,22.45-22.53,17.86,3.53,15.91,29.65,3.1,38.3C131.08,91.59,116,81.27,117.4,66.34Z"/><path class="cls-5" d="M332.87,104.87c-17.17-.22-19.66-25.59-5-32.08C353,62.64,357.94,104,332.87,104.87Z"/><path class="cls-6" d="M165.94,185.3c-13.25.5-13.61-20.92.16-20.67C179.46,164.6,179.6,185.72,165.94,185.3Z"/><path class="cls-6" d="M209.23,191.12c-13.2.46-13.58-21,.24-20.68C222.83,170.46,222.88,191.59,209.23,191.12Z"/><rect class="cls-7" width="438.21" height="438.21"/></g></g></svg>