<svg xmlns="http://www.w3.org/2000/svg" viewBox="0 0 36 36"><defs><style>.cls-1{fill:#ffcc4d;}.cls-2{fill:#ffac33;}.cls-3{fill:#f4900c;}.cls-4{fill:#c6e5b3;}.cls-5{fill:#94c279;}.cls-6{fill:#77b255;}.cls-7{fill:#5c913b;}.cls-8{fill:#fff;}.cls-9{fill:#292f33;}.cls-10{fill:none;}</style></defs><g id="Ebene_2" data-name="Ebene 2"><g id="Ebene_1-2" data-name="Ebene 1"><path class="cls-1" d="M17.18,23H9.82s1.35,6.5,2.35,9.75S16.77,36,17.59,36C19.23,36,22,36,23,32.75S26.18,23,26.18,23Z"/><path class="cls-2" d="M18,28c3.46,0,5.83-.75,7.1-1.73.35-1.06.65-2,.85-2.56a2.61,2.61,0,0,0-.67-.71H10.72a2.41,2.41,0,0,0-.73.82c.11.5.26,1.21.45,2C11.53,27,14.06,28,18,28Z"/><path class="cls-1" d="M9,20v3c0,1.66,4,3,9,3s9-1.34,9-3V20Z"/><path class="cls-3" d="M26.18,20.5c0,1.38-3.66,2.5-8.18,2.5s-8.18-1.12-8.18-2.5S13.48,18,18,18,26.18,19.12,26.18,20.5Z"/><path class="cls-4" d="M26.9,13.91a4.79,4.79,0,0,0-2.21-5.18,3.34,3.34,0,0,0-.18-2.23A3.7,3.7,0,0,0,21.7,4.39a1.71,1.71,0,0,0,0-1.29c-.59-1.78-3-.59-4.75-3a3.39,3.39,0,0,0-1.7,3.31A12.7,12.7,0,0,0,13.14,4h0a2.21,2.21,0,0,0-.94,3.35l-.48.17h0a3.49,3.49,0,0,0-2.36,3.23,3.25,3.25,0,0,0,.5,1.7A4.74,4.74,0,0,0,7,16.75a4.8,4.8,0,0,0,4.51,4.72c2.66.82,8,.6,12.07-.1,2.37-.4,4.8-1.82,4.8-4.22A4.3,4.3,0,0,0,26.9,13.91Z"/><path class="cls-5" d="M21.82,3.84a1.66,1.66,0,0,1,0,.24A1.79,1.79,0,0,0,21.82,3.84Z"/><path class="cls-5" d="M14.75,18.21a16.75,16.75,0,0,1-7.39.32,4.9,4.9,0,0,0,4.54,3c6.14,0,12.41-4.18,12.41-4.18A5.15,5.15,0,0,0,27,12.13C24.92,15,17.09,17.55,14.75,18.21Zm-1.61-4c4.73,0,9.57-3.07,9.57-3.07a3.7,3.7,0,0,0,2-4,30.37,30.37,0,0,1-14.92,5.2A3.82,3.82,0,0,0,13.14,14.23ZM11.83,6.55A2.21,2.21,0,0,0,14,8.24,7.82,7.82,0,0,0,15.9,8c.39-.12.77-.24,1.15-.38a13.75,13.75,0,0,0,2.52-1.29,13,13,0,0,0,2.14-1.87,1.15,1.15,0,0,0-.25-1.32C19.71,4.85,14.15,6.58,11.83,6.55Z"/><path class="cls-6" d="M21.82,3.84a1.43,1.43,0,0,1-.11.58,13,13,0,0,1-2.14,1.87,13.75,13.75,0,0,1-2.52,1.29c-.38.14-.76.26-1.15.38A7.38,7.38,0,0,1,14,8.24a2.21,2.21,0,0,1-2.14-1.68h0A1.88,1.88,0,0,1,11.77,6a2.2,2.2,0,0,1,1.37-2,14,14,0,0,1,2.14-.54A3.39,3.39,0,0,1,17,.14c1.78,2.37,4.16,1.18,4.75,3A1.67,1.67,0,0,1,21.82,3.84Z"/><circle class="cls-7" cx="17.39" cy="9.91" r="0.44"/><circle class="cls-7" cx="18.79" cy="9.41" r="0.44"/><circle class="cls-8" cx="13.36" cy="6.08" r="1.44"/><circle class="cls-9" cx="13.36" cy="6.08" r="0.62"/><circle class="cls-8" cx="20.03" cy="3.63" r="1.44"/><circle class="cls-9" cx="20.03" cy="3.63" r="0.62"/><rect class="cls-10" width="36" height="36"/></g></g></svg>