<svg xmlns="http://www.w3.org/2000/svg" viewBox="0 0 118.81 118.81"><defs><style>.cls-1{fill:#78b355;}.cls-2{fill:#5d913b;}.cls-3{fill:#2a3034;}.cls-4{fill:#c7dfb3;}.cls-5{fill:#fff;}.cls-6{fill:none;}</style></defs><g id="Ebene_2" data-name="Ebene 2"><g id="Ebene_1-2" data-name="Ebene 1"><path class="cls-1" d="M112.41,62.54a4.45,4.45,0,0,0,.54-.61,25.7,25.7,0,0,0,2.63-4c.93-1.69,1.9-3.35,2.66-5.12a5.75,5.75,0,0,0,.56-2.65,1.77,1.77,0,0,0-2.09-1.73,5,5,0,0,0-1.83.61c-1.81,1-3.62,2-5.46,2.92L55.88,75.9c-.13-1.84-.3-3.67-.55-5.5a54.37,54.37,0,0,0-1.59-7.35c0-.1,0-.2-.06-.3-.26-.65-.42-1.34-.64-2-.44-1.34-.93-2.67-1.43-4-.7-1.73-1.39-3.46-2.23-5.12a31,31,0,0,0-6.69-9,25.33,25.33,0,0,0-4.51-3.32,2.39,2.39,0,0,1-.43-.27c-.61-.29-1.22-.6-1.84-.88s-1.13-.45-1.7-.67A.45.45,0,0,1,34,37.4a11.27,11.27,0,0,1-1.3-.34A23.64,23.64,0,0,0,29,36.48a1.21,1.21,0,0,1-.19,0,24,24,0,0,0-3.89.06A24.67,24.67,0,0,0,18.61,38,16.74,16.74,0,0,0,9,46.5a25.39,25.39,0,0,0-2.5,10.15,29.89,29.89,0,0,0,.55,7.61,21.91,21.91,0,0,0,5.78,11c1.83,1.87,4.44,2.18,6.75,3.4.19.1.23.18.16.39A62.93,62.93,0,0,0,17.17,88,13,13,0,0,0,17,92.1a2.77,2.77,0,0,0,2.06,2.47,28.33,28.33,0,0,0,5.7,1.12,23.5,23.5,0,0,0,5,.11,21.62,21.62,0,0,0,4.05-.93,1.79,1.79,0,0,0,1.3-1.42,8,8,0,0,0,.12-1.29,46.06,46.06,0,0,0-.66-7.69c0-.23,0-.28.24-.25,1.61.21,3.24.34,4.86.44,2.64.15,5.28.21,7.93.22,1.56,0,3.12,0,4.68,0s3.05,0,4.57-.07c.18,0,.19.06.18.19l-.12,1.35a54.83,54.83,0,0,0-.27,6.9,12.87,12.87,0,0,0,.49,3.54,1.94,1.94,0,0,0,1.48,1.39,29.62,29.62,0,0,0,3.5.55c1.39.15,2.78.12,4.18.14A23.92,23.92,0,0,0,73.51,98a14.07,14.07,0,0,0,2.19-.73,1.51,1.51,0,0,0,.92-1.34,17.09,17.09,0,0,0-.1-2.37c-.11-1.29-.23-2.58-.37-3.87s-.27-2.52-.42-3.78c-.1-.84-.2-1.68-.31-2.52,0-.14,0-.22.18-.24,1.12-.14,2.23-.31,3.35-.5a81.4,81.4,0,0,0,9.13-2.06,57.92,57.92,0,0,0,5.73-2c.31-.12.31-.12.33.21,0,.63,0,1.26.09,1.89.1,1.23,0,2.46.11,3.69a3.45,3.45,0,0,0,1.77,2.82,9.55,9.55,0,0,0,4.41,1.08,25.66,25.66,0,0,0,5.53-.46,32.48,32.48,0,0,0,4.82-1.24,2.58,2.58,0,0,0,1.76-2,5.72,5.72,0,0,0-.08-2.57c-.35-1.49-.74-3-1.1-4.45-.68-2.84-1.37-5.67-2.21-8.46l-2.13-3.93Z"/><path class="cls-2" d="M112.47,63.61a5.39,5.39,0,0,1-2.24,4.71l-.81.61c-.08,0-.17.09-.18.2a9.18,9.18,0,0,0-1.28.76,67.57,67.57,0,0,1-7.32,4,81,81,0,0,1-11.38,4.14c-2.19.62-4.39,1.21-6.62,1.67-1.21.25-2.43.44-3.66.6q-2.52.32-5,.45c-1.24.07-2.48.11-3.72.14a.53.53,0,0,0-.28,0H64.58c-.09,0-.18,0-.28,0l-4.23-.06c-.5,0-1,0-1.52,0a19.6,19.6,0,0,1-2.3-.16c-.17,0-.2-.09-.2-.23,0-1.52-.06-3-.17-4.54-.13-1.84-.3-3.67-.54-5.5a54.4,54.4,0,0,0-1.6-7.35c0-.1,0-.2-.06-.3-.26-.66-.42-1.34-.64-2-.44-1.34-.93-2.66-1.43-4-.7-1.73-1.39-3.46-2.23-5.12a31,31,0,0,0-6.69-9,24.9,24.9,0,0,0-4.51-3.33,2.14,2.14,0,0,1-.43-.26c-.61-.3-1.22-.61-1.84-.88s-1.13-.45-1.7-.68c-.07,0-.16,0-.21-.11-.45-.06-.87-.24-1.3-.34A23.64,23.64,0,0,0,29,36.48a24.53,24.53,0,0,1,1.87-2.19,48.21,48.21,0,0,1,10.33-8.5.75.75,0,0,1,.35-.16A7.38,7.38,0,0,1,42.7,25c.71-.4,1.43-.78,2.17-1.13a1.29,1.29,0,0,1,.21-.06,5.87,5.87,0,0,1,1.18-.58,38.42,38.42,0,0,1,8.57-2.56A46.81,46.81,0,0,1,61.08,20a47.89,47.89,0,0,1,6.56.2,54.68,54.68,0,0,1,12.64,2.76,66.51,66.51,0,0,1,8.23,3.33,31.67,31.67,0,0,1,7.18,4.79,3.74,3.74,0,0,1,.75.79c.26.1.36.35.53.53.89.89,1.75,1.8,2.57,2.76a33.74,33.74,0,0,1,2.17,2.73,58.82,58.82,0,0,1,7.54,13.81c0,.1,0,.23.17.28.09.47.35.89.45,1.36l.39,1.11c.39,1.2.78,2.4,1.08,3.63a10.47,10.47,0,0,1,.39,1.46c.27,1,.49,2,.68,3Z"/><path class="cls-3" d="M45.08,23.78l.63,3.89c.11.63.21,1.26.3,1.9a.51.51,0,0,0,.36.44c3.62,1.39,7.2,2.88,10.74,4.5a95,95,0,0,1,10.16,5.28c.64.4,1.27.83,1.91,1.25a.51.51,0,0,0,.36.1c1.12-.15,2.24-.3,3.36-.42s2.13-.23,3.2-.32q3-.24,6-.35c2-.07,3.93-.08,5.9,0,1.66,0,3.33.11,5,.24a.26.26,0,0,0,.29-.15,31.07,31.07,0,0,0,3-7.77c0-.16.07-.32.1-.47.26.09.36.35.53.52.89.89,1.75,1.81,2.57,2.76a38,38,0,0,1-2.81,6.56c-.16.28-.2.5,0,.74a2.69,2.69,0,0,1,.31.44,61,61,0,0,1,7.77,15.7c.16.47.16.47.51.16a20.71,20.71,0,0,0,4.16-4.88,2.08,2.08,0,0,1,.35-.54c.13.37.26.74.38,1.11.4,1.2.79,2.4,1.09,3.63-.16-.08-.2.07-.26.15-.41.52-.85,1-1.31,1.5a31,31,0,0,1-7.15,5.48,58.59,58.59,0,0,1-12.81,5.18c-2.42.7-4.9,1.15-7.38,1.62a67.41,67.41,0,0,1-9.49,1.28A26.13,26.13,0,0,1,67.35,73a13.34,13.34,0,0,1-8.87-5.32,26.07,26.07,0,0,0-3.13-3.59,13,13,0,0,0-1.67-1.38c-.26-.65-.42-1.34-.64-2-.44-1.34-.93-2.67-1.43-4a4.28,4.28,0,0,1,.44.2,32.46,32.46,0,0,1,5.56,4.13,24.26,24.26,0,0,1,3.79,4.24,9.52,9.52,0,0,0,4.92,3.56c.39.13.39.12.39-.28,0-1.28,0-2.56,0-3.84,0-3.93,0-7.87.12-11.8.06-2.86.09-5.72.14-8.58a.49.49,0,0,0-.25-.48,49.36,49.36,0,0,0-4.58-2.73,161.36,161.36,0,0,0-17.46-7.81.44.44,0,0,0-.47.05l-.91.67c-1.58,1.24-3.07,2.58-4.52,4a9.82,9.82,0,0,0-1,1c-.61-.29-1.22-.6-1.84-.88s-1.13-.45-1.7-.67A.45.45,0,0,1,34,37.4a.4.4,0,0,0,.19-.15c1.06-1.06,2.13-2.1,3.23-3.11a36.74,36.74,0,0,1,4.71-3.82.28.28,0,0,0,.15-.34c-.12-.66-.22-1.32-.32-2s-.24-1.58-.37-2.37A7.73,7.73,0,0,1,42.7,25c.71-.4,1.43-.77,2.16-1.12A.94.94,0,0,1,45.08,23.78ZM70.52,57.13h0v4.66c0,2.48,0,4.95,0,7.43,0,.24.07.31.32.32a43.73,43.73,0,0,0,6-.42c2.6-.35,5.17-.88,7.74-1.37a57.94,57.94,0,0,0,8.68-2.44,48.23,48.23,0,0,0,8.2-3.76c.26-.16.28-.29.2-.56a55.14,55.14,0,0,0-2-5.57,57.92,57.92,0,0,0-6.21-11.15.44.44,0,0,0-.38-.23c-1.77-.16-3.55-.22-5.33-.25-2.16,0-4.33,0-6.49.09-1.43.06-2.85.14-4.28.25-2,.15-4,.36-5.95.61-.2,0-.28.09-.29.31,0,1.37-.06,2.73-.09,4.09C70.59,51.81,70.56,54.47,70.52,57.13Z"/><path class="cls-4" d="M55.27,61c0,11.44-12.37,18.42-27.63,18.42S0,72.43,0,61,12.37,38,27.64,38,55.27,49.54,55.27,61Z"/><path class="cls-1" d="M48.75,46.67A9.21,9.21,0,1,0,34,37.47a18.07,18.07,0,0,0-12.74,0,9.21,9.21,0,1,0-14.75,9.2C2.46,50.78,0,55.9,0,61c0,11.44,12.37,1.53,27.64,1.53S55.27,72.43,55.27,61C55.27,55.9,52.81,50.78,48.75,46.67Z"/><circle class="cls-5" cx="11.51" cy="38.72" r="5.37"/><circle class="cls-3" cx="11.51" cy="38.72" r="2.3"/><circle class="cls-5" cx="43.76" cy="38.72" r="5.37"/><circle class="cls-3" cx="43.76" cy="38.72" r="2.3"/><circle class="cls-2" cx="21.49" cy="57.91" r="1.54"/><circle class="cls-2" cx="33.78" cy="57.91" r="1.54"/><rect class="cls-6" width="118.81" height="118.81"/></g></g></svg>