<?xml version="1.0" encoding="utf-8"?>
<!-- Generator: Adobe Illustrator 25.0.0, SVG Export Plug-In . SVG Version: 6.00 Build 0)  -->
<svg version="1.1" id="Ebene_1" xmlns="http://www.w3.org/2000/svg" xmlns:xlink="http://www.w3.org/1999/xlink" x="0px" y="0px"
	 viewBox="0 0 1864.5 1864.5" style="enable-background:new 0 0 1864.5 1864.5;" xml:space="preserve">
<style type="text/css">
	.st0{fill:#77B255;}
	.st1{fill:#FFCC4D;}
	.st2{fill:#292F33;}
	.st3{fill:#5C913B;}
	.st4{fill:#FFD671;}
	.st5{fill:none;}
</style>
<g id="Ebene_2_1_">
	<g id="Ebene_1-2">
		<g id="Ebene_2-2">
			<g id="Ebene_1-2-2">
				<path class="st0" d="M463.6,737.9c24.1-72.2,390-396.1,699.3-537.9c80.4-36.9,347.5-149.2,439.5-172.2
					c189.7-47.4,267.9-53.4,241.5,139.3c-37.3,272.2-243.1,663-458.3,1039.5c-141,221.7-222.7,338.1-545.5,176.6
					C517.4,1222,356,1060.6,463.6,737.9z"/>
				<path class="st1" d="M1150.4,746.6c200.8,198.3,236.7,487.5,80.2,646.1s-446.2,126.3-647-71.8s-236.8-487.6-80.3-646.1
					S949.6,548.3,1150.4,746.6z"/>
				<path class="st1" d="M1165.7,1192.3c-32.2,142.3-205.5,194.2-395.2,151.3s-323.8-164.4-291.6-306.6S697.4,785.5,887,828.4
					S1197.9,1050,1165.7,1192.3z"/>
				<path class="st0" d="M1125,996.1c58.2-28.4,82.4-98.7,54-156.9c-28.4-58.2-98.7-82.4-156.9-54c-23.9,11.7-43.1,31.1-54.5,55.1
					c-46.6-30.8-102.9-43.6-158.3-35.8c0.1-64.8-52.3-117.4-117.1-117.6S574.7,739.2,574.6,804c-0.1,26.6,9,52.5,25.5,73.3
					c-62,39.7-106.9,96.3-121.2,159.6c-32.2,142.3,149.4,53.9,339.1,96.8s315.6,200.9,347.8,58.6
					C1180.1,1129.1,1163.9,1058.6,1125,996.1z"/>
				<circle class="st1" cx="684.5" cy="792.6" r="68.5"/>
				<circle class="st2" cx="684.5" cy="792.6" r="29.3"/>
				<circle class="st1" cx="1085.2" cy="883.3" r="68.5"/>
				<circle class="st2" cx="1085.2" cy="883.3" r="29.3"/>
				<circle class="st3" cx="754.6" cy="1059.2" r="19.6"/>
				<circle class="st3" cx="907.3" cy="1093.7" r="19.6"/>
				<path class="st3" d="M1385.6,305.4c60,30,142.3,189.7,142.3,237.2s-47.4-47.4-142.3-142.3S1290.7,257.9,1385.6,305.4z
					 M1395.2,728c31.9,30.4,53.1,146.7,44,176.5s-20.8-39-62.3-116.8S1344.5,679.9,1395.2,728z"/>
				<path class="st0" d="M1072,1653.9c0,116.3-235.6,210.5-526.3,210.5S19.3,1759.2,19.3,1653.9c0-19.5-10.7-136.8,4.4-155.7
					c66.1-82.8,285.2-54.8,521.9-54.8c258.3,0,480.7-45.5,525.2,52.6C1076.5,1508.3,1072,1641,1072,1653.9z"/>
				<ellipse class="st4" cx="545.6" cy="1496" rx="526.3" ry="210.5"/>
				<path class="st4" d="M277.6,1365.2c70.7-60,251.6-60.6,421.8-16.3s264.9,116.7,194.2,176.7s-280.1,84.7-450.2,40.4
					S207,1425.2,277.6,1365.2z"/>
				<path class="st0" d="M261.9,1459.1c-33.8,2.8-64.8,12.4-82.7,27.6c-31.4,26.6-10.9,60.2,45.8,75c49,12.8,108.8,7.3,144.5-11.6
					c17.5,9.6,38.7,18,63.8,24.6c25.6,6.5,51.8,10.7,78.2,12.4c-15.1,24.2,6.7,51,55.7,63.8c56.7,14.8,128.1,5.1,159.5-21.5
					c17.9-15.2,18.9-32.7,5.9-47.6c70.7-9.8,129.6-29.4,161-56.1c70.7-60-128.4-44-298.5-88.2s-246.8-132.1-317.5-72.2
					C246.2,1391.9,242,1425.8,261.9,1459.1z"/>
				<ellipse class="st4" cx="627.9" cy="1608.8" rx="68.5" ry="32.2"/>
				<ellipse class="st2" cx="627.9" cy="1608.8" rx="29.3" ry="13.8"/>
				<ellipse class="st4" cx="268.5" cy="1515.3" rx="68.5" ry="32.2"/>
				<ellipse class="st2" cx="268.5" cy="1515.3" rx="29.3" ry="13.8"/>
				<ellipse class="st3" cx="635.1" cy="1479.3" rx="19.6" ry="9.2"/>
				<ellipse class="st3" cx="498.2" cy="1443.7" rx="19.6" ry="9.2"/>
				<rect y="0" class="st5" width="1864.5" height="1864.5"/>
			</g>
		</g>
	</g>
</g>
</svg>
