<svg xmlns="http://www.w3.org/2000/svg" xmlns:xlink="http://www.w3.org/1999/xlink" viewBox="0 0 36 36.25"><defs><style>.cls-1{fill:none;}.cls-2{fill:#77b255;}.cls-3{fill:#c6e5b3;}.cls-4{fill:#5c913b;}.cls-5{clip-path:url(#clip-path);}.cls-6{fill:#fff;}.cls-7{fill:#292f33;}.cls-8{clip-path:url(#clip-path-2);}</style><clipPath id="clip-path"><path class="cls-1" d="M18.56,23.81l-6.88,6.87a4.5,4.5,0,0,1-6.37-6.36h0l6.87-6.87Z"/></clipPath><clipPath id="clip-path-2"><path class="cls-1" d="M30.56,27.81l-6.88,6.87a4.5,4.5,0,1,1-6.37-6.36h0l6.87-6.87Z"/></clipPath></defs><g id="Ebene_2" data-name="Ebene 2"><g id="Ebene_1-2" data-name="Ebene 1"><path class="cls-2" d="M27,19.28a5,5,0,0,0-2.67.78v4.55H22a5,5,0,0,0,10-.33v-5Z"/><path class="cls-3" d="M23,23V7h9V23Z"/><path class="cls-2" d="M30,4H25a2,2,0,0,0-2,2V8h9V6A2,2,0,0,0,30,4ZM15,15.28a5,5,0,0,0-2.67.78v4.55H10a5,5,0,0,0,10-.33v-5Z"/><path class="cls-3" d="M11,19V3h9V19Z"/><path class="cls-2" d="M18,0H13a2,2,0,0,0-2,2V4h9V2A2,2,0,0,0,18,0Z"/><path class="cls-3" d="M30.56,27.81l-6.88,6.87a4.5,4.5,0,1,1-6.37-6.36h0l6.87-6.87Z"/><path class="cls-3" d="M18.56,23.81l-6.88,6.87a4.5,4.5,0,0,1-6.37-6.36h0l6.87-6.87Z"/><path class="cls-4" d="M23,10.07h9v2H23Zm0,4h9v2H23Zm-12-8h9v2H11Zm0,4h9v2H11Z"/><g class="cls-5"><path class="cls-3" d="M11.85,31.42c-1.48,1.54-4,.88-6.08-1.1s-2.81-4.5-1.33-6,4.64-1.48,6.68.49S13.33,29.89,11.85,31.42Z"/><path class="cls-2" d="M12.83,28.66a1.69,1.69,0,0,0,1.39-.51,1.73,1.73,0,0,0-.05-2.43A1.7,1.7,0,0,0,12,25.53a3.33,3.33,0,0,0-.7-1,3.63,3.63,0,0,0-1-.67,1.71,1.71,0,1,0-3.16-.67,3.87,3.87,0,0,0-2.73,1.07C3,25.82,5.9,26.09,8,28.06s2.42,4.9,3.9,3.36A3.87,3.87,0,0,0,12.83,28.66Z"/><circle class="cls-6" cx="8.86" cy="22.79" r="1"/><circle class="cls-7" cx="8.86" cy="22.79" r="0.43"/><circle class="cls-6" cx="13.18" cy="26.95" r="1"/><circle class="cls-7" cx="13.18" cy="26.95" r="0.43"/><circle class="cls-4" cx="7.72" cy="26.65" r="0.29"/><circle class="cls-4" cx="9.37" cy="28.24" r="0.29"/></g><g class="cls-8"><path class="cls-3" d="M23.85,35.41c-1.48,1.53-4,.87-6.08-1.11s-2.8-4.5-1.32-6,4.63-1.48,6.67.49S25.33,33.87,23.85,35.41Z"/><path class="cls-2" d="M24.83,32.64a1.69,1.69,0,0,0,1.39-.51A1.71,1.71,0,0,0,24,29.51a3.33,3.33,0,0,0-.7-1,3.49,3.49,0,0,0-1-.67,1.7,1.7,0,0,0-.27-2.12,1.72,1.72,0,0,0-2.43,0,1.74,1.74,0,0,0-.46,1.41,3.83,3.83,0,0,0-2.72,1.07C15,29.8,17.91,30.07,20,32s2.42,4.9,3.9,3.37A3.92,3.92,0,0,0,24.83,32.64Z"/><circle class="cls-6" cx="20.86" cy="26.77" r="1"/><circle class="cls-7" cx="20.86" cy="26.77" r="0.43"/><circle class="cls-6" cx="25.19" cy="30.93" r="1"/><circle class="cls-7" cx="25.19" cy="30.93" r="0.43"/><circle class="cls-4" cx="19.72" cy="30.63" r="0.29"/><circle class="cls-4" cx="21.37" cy="32.22" r="0.29"/></g><rect class="cls-1" width="36" height="36"/></g></g></svg>