<?xml version="1.0" encoding="utf-8"?>
<!-- Generator: Adobe Illustrator 25.0.0, SVG Export Plug-In . SVG Version: 6.00 Build 0)  -->
<svg version="1.1" id="Ebene_1" xmlns="http://www.w3.org/2000/svg" xmlns:xlink="http://www.w3.org/1999/xlink" x="0px" y="0px"
	 viewBox="0 0 45 45" style="enable-background:new 0 0 45 45;" xml:space="preserve">
<style type="text/css">
	.st0{fill:#C6E5B3;}
	.st1{fill:#77B255;}
	.st2{fill:#FFFFFF;}
	.st3{fill:#292F33;}
	.st4{fill:#5C913B;}
	.st5{fill:#5C913B;stroke:#3F6328;stroke-width:1.3;stroke-linecap:round;stroke-linejoin:round;}
	.st6{fill:#50A5E6;}
	.st7{fill:#1C6399;}
</style>
<g>
	<g>
		<path id="path22" class="st0" d="M45,25c0,9.3-10.1,15-22.5,15S0,34.3,0,25S10.1,6.2,22.5,6.2S45,15.7,45,25"/>
		<path id="path26" class="st1" d="M39.7,13.3c3.2-2.6,3.7-7.3,1.1-10.5c-2.6-3.2-7.3-3.7-10.5-1.1c-1.3,1.1-2.2,2.5-2.6,4.2
			c-3.3-1.3-7-1.3-10.4,0c-0.9-4-4.9-6.6-8.9-5.7S1.8,5.1,2.7,9.1c0.4,1.7,1.3,3.1,2.6,4.2C2.1,16.4,0.2,20.6,0,25
			c0,9.3,10.1,1.2,22.5,1.2S45,34.3,45,25C44.8,20.6,42.9,16.4,39.7,13.3"/>
		<path id="path30" class="st2" d="M13.8,6.9c0,2.4-2,4.4-4.4,4.4S5,9.3,5,6.9s2-4.4,4.4-4.4S13.8,4.5,13.8,6.9L13.8,6.9"/>
		<path id="path34" class="st3" d="M11.2,6.9c0,1-0.8,1.9-1.9,1.9S7.5,7.9,7.5,6.9c0-1,0.8-1.9,1.9-1.9S11.2,5.8,11.2,6.9L11.2,6.9"
			/>
		<path id="path38" class="st2" d="M40,6.9c0,2.4-2,4.4-4.4,4.4s-4.4-2-4.4-4.4s2-4.4,4.4-4.4C38,2.5,40,4.5,40,6.9
			C40,6.9,40,6.9,40,6.9"/>
		<path id="path42" class="st3" d="M37.5,6.9c0,1-0.8,1.9-1.9,1.9s-1.9-0.8-1.9-1.9S34.6,5,35.6,5S37.5,5.8,37.5,6.9
			C37.5,6.9,37.5,6.9,37.5,6.9"/>
		<path id="path46" class="st4" d="M18.8,22.5c0,0.7-0.6,1.2-1.2,1.2s-1.2-0.6-1.2-1.2s0.6-1.2,1.2-1.2S18.8,21.8,18.8,22.5"/>
		<path id="path50" class="st4" d="M28.2,22.5c0,0.7-0.6,1.2-1.2,1.2s-1.2-0.6-1.2-1.2s0.6-1.2,1.2-1.2S28.2,21.8,28.2,22.5"/>
	</g>
	<g>
		<path class="st5" d="M32.5,33.9c-2.1,1.6-4.2,5.5-4.9,8l-0.7-0.6c-2.2-0.4-4-2.1-4.5-4.3v-0.1l0,0V37c-0.5,2.2-2.3,3.9-4.5,4.3
			l-0.8,0.6c-0.7-2.5-2.8-6.4-4.9-8c1.1-0.9,2.1-1.8,3-2.8c0-2.1,0.4-4.3,1.3-6.2c0.7-3.4,1.2-9.4,1.2-9.4c0-0.4,0.1-0.9,0.4-1.2
			c0-0.5,0-0.9,0-1c0-1.2,0.9-2.1,2.1-2.1c0.1,0,0.1,0,0.2,0c1,0.1,1.8,1,1.9,2c0,0,0,0.1,0,0.1v-0.1c0-1.2,1-2.1,2.2-2.1
			s2.1,1,2.1,2.2c0,0.1,0,0.5,0,1c0.3,0.4,0.4,0.8,0.4,1.2c0,0,0.5,5.9,1.2,9.4c0.9,2,1.3,4.1,1.3,6.2C30.3,32.1,31.4,33,32.5,33.9z
			"/>
		<g>
			<path class="st6" d="M10.4,33.1c3,0,6.7,7.1,7,10c0.4,3.9-2,4-2,4h-11l-6.5-2.4l6.6-7.6C4.4,37.1,7.8,33.1,10.4,33.1z"/>
			<ellipse transform="matrix(0.866 -0.5 0.5 0.866 -18.0823 11.7052)" class="st7" cx="12.8" cy="39.6" rx="1.6" ry="5.8"/>
			<path class="st4" d="M20.4,11.1c-1.2-0.1-2.2,0.7-2.3,1.9c0,0.1,0,0.1,0,0.2c0,0.8-0.2,10.3-0.2,10.3l4.4,5.6l0.1-15.8
				C22.4,12.2,21.5,11.3,20.4,11.1z"/>
			<path class="st1" d="M21.5,15.4c0.1-1.1-0.7-2-1.8-2c-1.1-0.1-2,0.7-2,1.8c0,0.1,0,0.2,0,0.3c0,0-0.5,6-1.2,9.4
				c-0.9,2-1.3,4.1-1.3,6.2c-0.1,0.4-5.6,5-5.6,5c0.8,3.1,2.4,6,4.8,8.2l3.5-2.9c2.2-0.4,4-2.1,4.5-4.3C22.4,34,21.5,15.4,21.5,15.4
				z"/>
		</g>
		<g>
			<path class="st6" d="M34.4,33.1c-3,0-6.7,7.1-7,10c-0.4,3.9,2,4,2,4h11l6.8-2.9l-6.8-7.1C40.4,37.1,36.9,33.1,34.4,33.1z"/>
			<ellipse transform="matrix(0.5 -0.866 0.866 0.5 -18.3151 47.4665)" class="st7" cx="31.9" cy="39.6" rx="5.8" ry="1.6"/>
			<path class="st4" d="M24.5,11.1c1.2,0,2.1,1,2.1,2.1c0,0.8,0.7,10.8,0.7,10.8l-4.9,5V13.2C22.3,12.1,23.3,11.1,24.5,11.1
				C24.5,11.1,24.5,11.1,24.5,11.1z"/>
			<path class="st1" d="M23.3,15.4c0-1,0.8-1.9,1.9-1.9c1,0,1.9,0.8,1.9,1.9c0,0,0,0,0,0c0,0,0.5,6,1.2,9.4c0.9,2,1.3,4.1,1.3,6.2
				c0,0.4,5.6,5,5.6,5c-0.8,3.1-2.4,6-4.8,8.2l-3.6-2.9c-2.2-0.4-3.9-2.1-4.4-4.3C22.4,34,23.3,15.4,23.3,15.4z"/>
		</g>
		<path class="st4" d="M22.3,36.9c-0.4,0-0.8-0.3-0.8-0.8V13.9c0-0.4,0.3-0.8,0.8-0.8s0.8,0.3,0.8,0.8v22.3
			C23.1,36.6,22.8,36.9,22.3,36.9C22.3,36.9,22.3,36.9,22.3,36.9z"/>
	</g>
</g>
</svg>
