<?xml version="1.0" encoding="utf-8"?>
<!-- Generator: Adobe Illustrator 25.0.0, SVG Export Plug-In . SVG Version: 6.00 Build 0)  -->
<svg version="1.1" id="Ebene_1" xmlns="http://www.w3.org/2000/svg" xmlns:xlink="http://www.w3.org/1999/xlink" x="0px" y="0px"
	 viewBox="0 0 3031.5 3031.5" style="enable-background:new 0 0 3031.5 3031.5;" xml:space="preserve">
<style type="text/css">
	.st0{fill:#99AAB5;}
	.st1{fill:#CCD6DD;}
	.st2{fill:#F5F8FA;}
	.st3{fill:#77B255;}
	.st4{fill:#C6E5B3;}
	.st5{fill:#FFFFFF;}
	.st6{fill:#292F33;}
	.st7{fill:#5C913B;}
	.st8{fill:#B9DEA4;}
	.st9{fill:none;}
</style>
<g id="Ebene_2_1_">
	<g id="Ebene_1-2">
		<ellipse class="st0" cx="1515.7" cy="2189.4" rx="1515.7" ry="842.1"/>
		<ellipse class="st1" cx="1515.7" cy="2021" rx="1515.7" ry="842.1"/>
		<path class="st2" d="M1515.7,2610.4C256.2,2610.4,84.2,1347.4,84.2,1010.5h2863C2947.2,1179,2782.4,2610.4,1515.7,2610.4z"/>
		<path class="st1" d="M2895.4,812.2c205.6-852.4-823.6-648.9-1027.6-488.3c-116.9-13-234.4-19.6-352.1-19.7
			c-790.6,0-1431.5,271.9-1431.5,711s640.9,795.3,1431.5,795.3s1431.5-356.1,1431.5-795.2C2947.2,942.6,2928.2,875.2,2895.4,812.2z
			 M2684.7,585.5c-114.3-79-261.2-142.6-431.2-189.5C2411.3,347.5,2636.7,370,2684.7,585.5z"/>
		<path class="st3" d="M2778.8,1094.8c0,11.3-0.7,22.5-2,33.7c-3.9,32-13.2,63.4-27.6,93.9c-138.2,67.3-649.2-68.6-1146-4.2
			c-475.3,61.7-932.5,260.3-1162.5,186.1c-58.4-44.1-104.7-92-136.8-142.8c-33.3-52.9-51.2-108.8-51.2-166.7
			c0-157.9,133-301.3,349.6-407.1c79.6-38.9,170.5-72.7,270.3-100.3c188.4-52.1,408.3-82,643.1-82c135.3,0,265.6,9.9,387.7,28.3
			c186.5,28,354,75.8,491.4,137.9C2631.7,778.7,2778.8,928.7,2778.8,1094.8z"/>
		<path class="st4" d="M2749.1,1222.4c-124.9,264.2-629.7,461.8-1233.4,461.8c-454.3,0-852.6-111.9-1075.1-279.9
			c230,74.2,687.2-124.4,1162.5-186.1C2099.9,1153.7,2610.9,1289.7,2749.1,1222.4z"/>
		
			<ellipse transform="matrix(3.193413e-02 -0.9995 0.9995 3.193413e-02 82.7104 1623.0178)" class="st5" cx="879.2" cy="768.8" rx="114.6" ry="202.8"/>
		
			<ellipse transform="matrix(3.193413e-02 -0.9995 0.9995 3.193413e-02 82.7104 1623.0178)" class="st6" cx="879.2" cy="768.8" rx="49.1" ry="86.9"/>
		
			<ellipse transform="matrix(3.193413e-02 -0.9995 0.9995 3.193413e-02 1321.531 2754.0938)" class="st5" cx="2082.5" cy="694.8" rx="114.6" ry="202.8"/>
		
			<ellipse transform="matrix(3.193361e-02 -0.9995 0.9995 3.193361e-02 1321.5321 2754.094)" class="st6" cx="2082.5" cy="694.8" rx="49.1" ry="86.9"/>
		
			<ellipse transform="matrix(3.193413e-02 -0.9995 0.9995 3.193413e-02 161.3149 2472.7463)" class="st7" cx="1357.2" cy="1153.1" rx="32.7" ry="57.9"/>
		
			<ellipse transform="matrix(3.193413e-02 -0.9995 0.9995 3.193413e-02 633.262 2903.6206)" class="st7" cx="1815.6" cy="1124.9" rx="32.7" ry="57.9"/>
		<path class="st8" d="M1684.2,1431.6c-22.3,0-43.8-8.9-59.5-24.7c-196.8-196.8-200.1-411.3-10.5-695.7
			c62.2-93.4,75.8-189.1,40.2-284.4c-38.8-104.1-121.1-168.1-145.8-174.9c-46.6,0-80.7-37.3-80.7-83.9s41.3-83.8,87.8-83.8
			c84,0,201.7,97.1,268,221c87.1,162.8,76.6,340.1-29.6,499.2c-165.1,247.7-128.9,364.8-10.5,483.2c32.9,33,32.8,86.3-0.1,119.2
			C1727.7,1422.6,1706.4,1431.5,1684.2,1431.6L1684.2,1431.6z M1178.9,1263.2c-22.3,0-43.8-8.9-59.5-24.7
			c-196.8-196.8-200.1-411.3-10.5-695.7c61.2-91.9,75.2-175.4,41.6-248.2c-37.4-80.9-120.5-123.7-141.8-126.2
			c-46.5,0-83.3-37.6-83.3-84.2S963.9,0,1010.5,0c84,0,217.7,82,282.9,204c40.5,75.7,88.6,232.5-44.5,432.1
			c-165.1,247.7-128.9,364.8-10.5,483.2c32.9,33,32.8,86.4-0.3,119.3C1222.4,1254.2,1201.1,1263.1,1178.9,1263.2L1178.9,1263.2z"/>
		<rect y="0" class="st9" width="3031.5" height="3031.5"/>
	</g>
</g>
</svg>
