<svg xmlns="http://www.w3.org/2000/svg" viewBox="0 0 2671.45 2671.45"><defs><style>.cls-1{fill:#c6e5b3;}.cls-2{fill:#77b255;}.cls-3{fill:#fff;}.cls-4{fill:#292f33;}.cls-5{fill:#5c913b;}.cls-6{fill:#fff75f;}.cls-7{fill:#ffac33;}.cls-8{fill:none;}</style></defs><g id="Ebene_2" data-name="Ebene 2"><g id="Ebene_1-2" data-name="Ebene 1"><path class="cls-1" d="M2331.89,2007.18c0,412.74-446.11,664.27-996.41,664.27s-996.41-251.53-996.41-664.27,446.12-830.34,996.41-830.34S2331.89,1594.45,2331.89,2007.18Z"/><path class="cls-2" d="M2096.9,1491c75.73-60.89,124.28-154.16,124.28-258.84,0-183.4-148.74-332.14-332.14-332.14-158.37,0-290.62,110.94-323.89,259.35a649.53,649.53,0,0,0-459.34,0C1072.54,1011,940.3,900.06,781.92,900.06c-183.39,0-332.13,148.74-332.13,332.14,0,104.68,48.54,198,124.27,258.84-146.42,148.36-235,332.64-235,516.14,0,412.74,446.12,55.36,996.41,55.36s996.41,357.38,996.41-55.36C2331.89,1823.68,2243.32,1639.4,2096.9,1491Z"/><circle class="cls-3" cx="754.24" cy="1204.52" r="193.75"/><circle class="cls-4" cx="754.24" cy="1204.52" r="83.03"/><circle class="cls-3" cx="1916.72" cy="1204.52" r="193.75"/><circle class="cls-4" cx="1916.72" cy="1204.52" r="83.03"/><circle class="cls-5" cx="1114.06" cy="1896.47" r="55.36"/><circle class="cls-5" cx="1556.91" cy="1896.47" r="55.36"/><path class="cls-6" d="M2402.06,977.47c-266.59-177.72-89.58-370.46-266.59-622C1969,118.81,1691.17,0,1335.55,0,891.42,0,702.51,118.81,536,355.44,359,607,536,799.75,269.4,977.47,104,1087.65,802.56,1183,1335.73,1183s1231.69-95.35,1066.33-205.53"/><path class="cls-7" d="M1158,1021.9V7.82c-31.11,2.84-60.7,6.58-88.87,11V932.42c-185.71-4.45-455.32-35.19-680.05-75.8C373.63,883,352.66,909,324.23,934.55c258.58,50.29,586.12,87.35,789.35,87.35Zm1142.3-138c-253.52,27-518.86,45.94-698,48.78V26c-28.7-5.87-58.65-10-88.86-13.78V1021.9h44.43c179.32,0,515-23.19,825.43-58.38C2347.58,937.3,2320.39,910.82,2300.31,883.9Z"/><rect class="cls-8" width="2671.45" height="2671.45"/></g></g></svg>