<svg xmlns="http://www.w3.org/2000/svg" viewBox="0 0 224.59 224.59"><defs><style>.cls-1{fill:#c6e5b3;}.cls-2{fill:#875a39;}.cls-3{fill:#a87c4f;}.cls-4{fill:#292f33;}.cls-10,.cls-5{fill:#c31c2e;}.cls-5,.cls-6,.cls-7{stroke:#292f33;stroke-linecap:round;stroke-linejoin:round;}.cls-5,.cls-7{stroke-width:1.5px;}.cls-13,.cls-6,.cls-7{fill:none;}.cls-8{fill:#77b255;}.cls-9{fill:#fff;}.cls-10{opacity:0.8;}.cls-11{fill:#5c913b;}.cls-12{fill:#b3b3b3;}</style></defs><g id="Ebene_2" data-name="Ebene 2"><g id="Ebene_1-2" data-name="Ebene 1"><g id="Ebene_2-2" data-name="Ebene 2"><path class="cls-1" d="M202.9,114.19c10.1,40.12-27.11,75.47-80.59,88.93S19.31,203,9.22,162.93s23-91.61,76.54-105.07S192.81,74.08,202.9,114.19Z"/><path class="cls-2" d="M217.85,161.39a8.67,8.67,0,0,1-.27,1.14,4.56,4.56,0,0,1-.18.52,5.07,5.07,0,0,1-.31.71c-.07.13-.15.26-.23.39a4.63,4.63,0,0,1-.31.46l-.31.35a5.37,5.37,0,0,1-.56.51,6.81,6.81,0,0,1-.63.41,5.9,5.9,0,0,1-1,.41l-.54.14a7.89,7.89,0,0,1-.89.14,11.9,11.9,0,0,1-2.81-.11c-16,0-40.09-4.83-66.52-11-4.5-1.05-9.08-2.13-13.69-3.24-7.69-1.85-15.48-3.76-23.24-5.65l-.18,0c-.75-.19-1.17-1-1.3-1.94,0,0,0,0,0,0l1.22-.33Z"/><path class="cls-3" d="M219.53,158.91l-.37.62c-.13.22-.28.44-.45.68l-.54.7-.31.37s0,.07,0,.09v0L106.14,144.26l1.28-.33a142.14,142.14,0,0,1,15.52-3h0l74.52,3.7c1.26-.26,2.5-.48,3.73-.65.81-.12,1.63-.21,2.43-.28,1.33-.12,2.64-.17,3.93-.16l5,2.27.28.2.27.2h0a17.92,17.92,0,0,1,1.8,1.55c1.77,1.73,2.23,3.11,1.8,4.25h0l.34.22c.22.15.44.3.65.46C219.73,154.19,221.12,155.89,219.53,158.91Z"/><path class="cls-4" d="M123,141l74.52,3.69c1.26-.26,2.5-.48,3.73-.64.81-.12,1.63-.21,2.43-.28,1.22-.11,2.42-.16,3.61-.16h.32l5,2.26.28.21.27.2h0a17.92,17.92,0,0,1,1.8,1.55c1.77,1.73,2.23,3.11,1.8,4.25l.34.23c.22.15.44.3.65.46,2,1.45,3.37,3.15,1.78,6.17l-.37.62c-.13.22-.28.44-.45.68l-.54.7c-.09.12-.19.25-.3.37s0,.06,0,.09v0a8.67,8.67,0,0,1-.27,1.14,4.56,4.56,0,0,1-.18.52,5.07,5.07,0,0,1-.31.71c-.07.13-.15.26-.23.39a4.63,4.63,0,0,1-.31.46l-.31.35a5.37,5.37,0,0,1-.56.51,3.78,3.78,0,0,1-.63.41,4.63,4.63,0,0,1-1,.41l-.54.14a7.89,7.89,0,0,1-.89.14,9,9,0,0,1-.92.05,13.14,13.14,0,0,1-1.89-.16c-16,0-40.09-4.83-66.52-11-4.5-1.05-9.08-2.13-13.69-3.24-7.68-1.84-15.48-3.75-23.24-5.64l-.18,0c-.75-.19-1.17-1-1.3-1.94a.11.11,0,0,0,0,0h0l1.22-.33,1.28-.33a142.14,142.14,0,0,1,15.52-3h0m0-1.5h-.21a147.26,147.26,0,0,0-15.68,3l-.66.17-.63.17-.63.17-.59.15a1.53,1.53,0,0,0-.91.67,1.51,1.51,0,0,0-.2,1.07,3.46,3.46,0,0,0,2.37,3.15l.28.07,4.63,1.12c6.11,1.49,12.43,3,18.57,4.51,4.12,1,8.6,2.05,13.7,3.24,23.3,5.4,49.44,10.93,66.75,11a14.5,14.5,0,0,0,2,.16,9.38,9.38,0,0,0,1.08-.06c.33,0,.69-.09,1.05-.16l.54-.14.08,0h0a6.17,6.17,0,0,0,1.24-.53,5.78,5.78,0,0,0,.84-.55,6.45,6.45,0,0,0,.71-.65l0-.05c.1-.12.22-.24.32-.37l.06-.07a5,5,0,0,0,.39-.59c.09-.14.18-.29.26-.44a5.63,5.63,0,0,0,.39-.88A5.93,5.93,0,0,0,219,163a10.33,10.33,0,0,0,.26-1l.09-.12c.18-.22.37-.47.55-.71a8.09,8.09,0,0,0,.53-.81c.13-.2.26-.41.38-.64l0,0c2.45-4.66-.94-7.15-2.22-8.08l-.23-.17c.06-1.47-.75-3-2.4-4.63a18.27,18.27,0,0,0-1.89-1.64l-.05,0-.3-.22-.31-.23-.24-.14-5-2.26a1.59,1.59,0,0,0-.61-.13h-.33c-1.25,0-2.51.05-3.74.17-.92.08-1.74.17-2.52.29-1.1.14-2.3.34-3.62.61L123,139.46Z"/><path class="cls-5" d="M217.86,161.28c-.55,3.45-2.48,5.22-5.77,5.33-2.29-.46-2.36-2.84-4.46-3.72-3.92-1.92-3.43-3.2-.82-2.68,2.8.6,3.75-.16.61-4-1.17-1.34-.22-2.33,2.41-2.38.86-.7-.15-2.47-1.48-2.2a6.13,6.13,0,0,1-3.86-.32c-3.18-2.73.25-2.63,3.3-2.71-.83-.21-.94-.86-1-1.54a5.89,5.89,0,0,0,2.89-2.59l2.92,1.32c3.7,2.69,4.74,4.67,4.17,6.22C219.7,154,222.25,156.11,217.86,161.28Z"/><path class="cls-6" d="M212,162.74c2.06-.59,2.28-1.25.63-2"/><path class="cls-6" d="M212.12,156.8c1.15-1.28,2.29-.39,1.74,1.55"/><path class="cls-6" d="M215.4,154.39c1.32.33,1.77.92.78,1.93"/><path class="cls-6" d="M212.39,151.46c.91-1.06,1.46-.69,1.65,1.1"/><line class="cls-7" x1="129.34" y1="141.28" x2="120" y2="149.93"/><line class="cls-7" x1="178.55" y1="143.72" x2="161.53" y2="159.56"/><g id="Ebene_1-2-2" data-name="Ebene 1-2"><path class="cls-8" d="M167.44,69.78a33.27,33.27,0,1,0-59.79-19.23A65.06,65.06,0,0,0,63,61.79,33.28,33.28,0,1,0,19.44,107C8.84,125,4.74,145.1,9.22,162.93c10.1,40.11,44.72-5.53,98.2-19S213,154.3,202.9,114.18C198.41,96.36,185.3,80.62,167.44,69.78Z"/><circle class="cls-9" cx="29.94" cy="74.77" r="19.42"/><circle class="cls-10" cx="29.94" cy="74.77" r="19.42"/><circle class="cls-4" cx="29.94" cy="74.77" r="8.32"/><circle class="cls-9" cx="142.92" cy="46.34" r="19.42"/><circle class="cls-10" cx="142.92" cy="46.34" r="19.42"/><circle class="cls-4" cx="142.92" cy="46.34" r="8.32"/><circle class="cls-11" cx="81.84" cy="133.22" r="5.55"/><circle class="cls-11" cx="124.88" cy="122.39" r="5.55"/></g></g><path class="cls-12" d="M216.75,142.41c.05-8.93-.05-17.85-12.9-26.15-9-6-9.17-11.94-5.95-17.92,5.29-8.51-6.4-16.85-14.67-27.52,8.93,6.88,16.91,15,21.07,27.86.07,11.47,4.92,14.41,12.11,13.18C229.62,114.33,224.65,129.13,216.75,142.41Z"/><path class="cls-12" d="M208.06,85.21c1.4-5.93,2.69-11.88-4.58-19.35-5.07-5.38-4.28-9.35-1.22-12.83,4.81-4.85-1.68-12.18-5.55-20.53,4.88,5.94,9,12.52,9.75,21.73-1.7,7.64,1.07,10.34,6,10.62C220.9,68.51,215.34,77.59,208.06,85.21Z"/><rect class="cls-13" width="224.59" height="224.59"/></g></g></svg>