<svg xmlns="http://www.w3.org/2000/svg" viewBox="0 0 43.75 43.75"><defs><style>.cls-1{fill:#c6e5b3;}.cls-2{fill:#77b255;}.cls-3{fill:#fff;}.cls-4{fill:#292f33;}.cls-5{fill:#5c913b;}</style></defs><g id="Ebene_2" data-name="Ebene 2"><g id="Ebene_1-2" data-name="Ebene 1"><path class="cls-1" d="M32,36.51l-7.11-3.39a7.39,7.39,0,0,0-5.71,0l-7.08,3.46c-1.57.75-2.67,0-2.45-1.77l1-7.84a7.29,7.29,0,0,0-.51-3.3c1.38,2.41,6.27-1.53,11.86-1.53s10,5.05,11.75,1.51a6.94,6.94,0,0,0-.45,3.23l1.08,7.83C34.62,36.46,33.53,37.26,32,36.51Z"/><path class="cls-2" d="M40.47,15.7l-5.42,5.74A5.86,5.86,0,0,0,34,23.1s0,0,0,0a4.73,4.73,0,0,0-.2.47s0,0,0,.05C32,27.2,27.71,22.15,22,22.15s-10.48,3.94-11.86,1.53a5.38,5.38,0,0,0-.24-.55v0a5.78,5.78,0,0,0-1-1.57L3.39,15.85c-1.2-1.27-.79-2.57.92-2.89l7.75-1.44a7.52,7.52,0,0,0,4.6-3.39l3.71-7c.82-1.54,2.17-1.55,3,0l3.77,6.94a7.5,7.5,0,0,0,4.63,3.36l7.75,1.38C41.23,13.13,41.66,14.42,40.47,15.7Z"/><path class="cls-1" d="M11.89,2.65c1.24,1.72,3,6,2.09,6.62S9.59,7,8.35,5.23,7.21,2,8.19,1.27,10.64.93,11.89,2.65ZM35.4,5.23c-1.24,1.72-4.74,4.68-5.63,4s.85-4.9,2.09-6.62,2.72-2.09,3.7-1.38S36.64,3.51,35.4,5.23ZM20.2,40.46c0-2.12,1.09-6.59,2.19-6.59s2.19,4.47,2.19,6.59-1,3.29-2.19,3.29S20.2,42.58,20.2,40.46ZM39.86,29.2c-2-.65-5.9-3.08-5.56-4.13s4.91-.7,6.92,0S44,27,43.66,28.13,41.88,29.86,39.86,29.2ZM2.53,25c2-.66,6.58-1,6.92,0S5.89,28.55,3.88,29.2.46,29.29.09,28.13.52,25.68,2.53,25Z"/><circle class="cls-3" cx="15.59" cy="14.13" r="2.16"/><circle class="cls-4" cx="15.59" cy="14.13" r="0.93"/><circle class="cls-3" cx="28.57" cy="14.13" r="2.16"/><circle class="cls-4" cx="28.57" cy="14.13" r="0.93"/><circle class="cls-5" cx="19.61" cy="20.95" r="0.62"/><circle class="cls-5" cx="24.55" cy="20.95" r="0.62"/></g></g></svg>