<svg xmlns="http://www.w3.org/2000/svg" viewBox="0 0 35.99 35.99"><defs><style>.cls-1{fill:#77b255;}.cls-2{fill:#fff;}.cls-3{fill:#292f33;}.cls-4{fill:#5c913b;}.cls-5{fill:#c6e5b3;}.cls-6{fill:none;}</style></defs><g id="Ebene_2" data-name="Ebene 2"><g id="Ebene_1-2" data-name="Ebene 1"><path class="cls-1" d="M34.77,6.39a9.28,9.28,0,0,1-1,3,11.86,11.86,0,0,1-2.16,2.9L12.69,31.17C8.9,35,4.41,35,2.85,33.44S1.33,27.38,5.12,23.6L24,4.67A12,12,0,0,1,26.78,2.6a9.26,9.26,0,0,1,3.15-1.09,4.71,4.71,0,0,1,4,.89A4.73,4.73,0,0,1,34.77,6.39Z"/><path class="cls-2" d="M30.46,4.14A2,2,0,0,1,26.78,2.6a9.26,9.26,0,0,1,3.15-1.09A2,2,0,0,1,30.46,4.14Z"/><circle class="cls-3" cx="28.72" cy="3.12" r="0.86"/><path class="cls-2" d="M34.77,6.39a9.28,9.28,0,0,1-1,3,2,2,0,1,1,1-2.95Z"/><circle class="cls-3" cx="33.06" cy="7.46" r="0.86"/><path class="cls-4" d="M24.31,8c1.57,1.57,2.76,2.92,3.6,2.08a1.27,1.27,0,0,0,.3-.56.37.37,0,0,1,0-.14C28,8.2,25.76,5.71,24.09,4.63l-.05,0L22.57,6.14C23,6.68,23.63,7.29,24.31,8Zm-4.54,4.54c1.57,1.57,2.76,2.92,3.6,2.08a1.27,1.27,0,0,0,.3-.56.37.37,0,0,1,0-.14c-.13-1.15-2.42-3.64-4.09-4.72L18,10.69A25,25,0,0,0,19.77,12.51Zm-4.54,4.54C16.8,18.62,18,20,18.82,19.13a1.18,1.18,0,0,0,.3-.56s0-.09,0-.14C19,17.28,16.67,14.79,15,13.71l-1.52,1.52C13.92,15.77,14.55,16.37,15.23,17.05Zm-4.54,4.54c1.56,1.57,2.76,2.92,3.59,2.09a1.31,1.31,0,0,0,.3-.57l0-.13c-.13-1.15-2.41-3.65-4.08-4.73L8.94,19.77C9.38,20.31,10,20.92,10.69,21.59ZM6.14,26.14c1.57,1.56,2.76,2.92,3.6,2.08a1.25,1.25,0,0,0,.3-.57.5.5,0,0,1,0-.13c-.13-1.15-2.41-3.65-4.08-4.72l-.8.8c-.25.24-.48.49-.7.74C4.86,24.88,5.48,25.47,6.14,26.14Z"/><path class="cls-5" d="M24.85,3.93c-.13.11-.64.57-.76.7C25.76,5.71,28,8.2,28.17,9.35a.28.28,0,0,0,0,.13.49.49,0,0,0,.45.31h.06a.5.5,0,0,0,.44-.55C29,7.79,26.78,5.24,24.85,3.93ZM20.27,8.45l-.73.72c1.67,1.08,4,3.57,4.08,4.72a.78.78,0,0,0,.05.14.49.49,0,0,0,.45.31h.06a.5.5,0,0,0,.44-.55C24.46,12.32,22.21,9.74,20.27,8.45ZM15.72,13l-.72.72c1.67,1.08,4,3.57,4.08,4.72a.78.78,0,0,0,.05.14.49.49,0,0,0,.45.31h.06a.5.5,0,0,0,.44-.55C19.91,16.86,17.67,14.28,15.72,13Zm-4.54,4.54-.72.72c1.67,1.08,3.95,3.58,4.08,4.72a.57.57,0,0,0,0,.14.5.5,0,0,0,.46.31h.05a.51.51,0,0,0,.45-.56C15.37,21.4,13.12,18.82,11.18,17.53ZM6.64,22.07l-.72.72c1.67,1.08,3.95,3.58,4.08,4.73a.28.28,0,0,0,0,.13.5.5,0,0,0,.46.31h.05A.5.5,0,0,0,11,27.4C10.83,25.94,8.58,23.37,6.64,22.07Z"/><rect class="cls-6" width="35.99" height="35.99"/></g></g></svg>