<svg xmlns="http://www.w3.org/2000/svg" xmlns:xlink="http://www.w3.org/1999/xlink" viewBox="0 0 502.08 438.84"><defs><style>.cls-1{fill:none;}.cls-2{clip-path:url(#clip-path);}.cls-3{fill:#c6e5b3;}.cls-4{fill:#77b255;}.cls-5{fill:#fff;}.cls-6{fill:#292f33;}.cls-7{fill:#5c913b;}.cls-8{fill:#3b642e;stroke:#3b642e;stroke-width:14px;}.cls-10,.cls-8{stroke-miterlimit:10;}.cls-9{clip-path:url(#clip-path-2);}.cls-10{fill:#3e3a39;stroke:#3e3a39;stroke-width:7px;}.cls-11{fill:#ba713a;}.cls-12{fill:#9c9c9c;}.cls-13{fill:#231815;}</style><clipPath id="clip-path" transform="translate(-9.78 -36.42)"><rect class="cls-1" width="512" height="512"/></clipPath><clipPath id="clip-path-2" transform="translate(-9.78 -36.42)"><path class="cls-1" d="M122.17,245.43,155,432.48,319.43,438l33.19-115c39.86,18.95,63.8,1.19,76-39.64L322.52,111.85H184Z"/></clipPath></defs><g id="Ebene_2" data-name="Ebene 2"><g id="Ebene_1-2" data-name="Ebene 1"><g class="cls-2"><path class="cls-3" d="M503.47,310.7C503.47,413,393,475.26,256.62,475.26S9.78,413,9.78,310.7,120.3,105,256.62,105,503.47,208.45,503.47,310.7Z" transform="translate(-9.78 -36.42)"/><path class="cls-4" d="M445.26,182.83a82.26,82.26,0,1,0-131.74-82.16,161,161,0,0,0-113.79,0A82.26,82.26,0,1,0,68,182.83C31.72,219.58,9.78,265.24,9.78,310.7c0,102.25,110.52,13.71,246.84,13.71S503.47,413,503.47,310.7C503.47,265.24,481.53,219.58,445.26,182.83Z" transform="translate(-9.78 -36.42)"/><circle class="cls-5" cx="102.85" cy="75.43" r="48"/><circle class="cls-6" cx="102.85" cy="75.43" r="20.57"/><circle class="cls-5" cx="390.84" cy="75.43" r="48"/><circle class="cls-6" cx="390.84" cy="75.43" r="20.57"/><circle class="cls-7" cx="191.99" cy="246.85" r="13.71"/><circle class="cls-7" cx="301.7" cy="246.85" r="13.71"/><path class="cls-8" d="M357.54,332.62a13.58,13.58,0,0,0-6.24,9.22l-4.92,28.85a13.73,13.73,0,0,0,1.95,10.2l19.8,27.54c4.3,6,14.73,8.67,20.72,4.38l.2-.14c2.42-1.73,3.43-5.08,4.28-7.77l27.54,34.61c.65.82,2.21,2.92,4.08,5.46a20.75,20.75,0,0,0,26.27,6.08l47-23.56a18.18,18.18,0,0,0,4.22-23L453.05,306a18.29,18.29,0,0,0-23.61-7.53l-8.77,4.23a13.38,13.38,0,0,0-8.07,1.9Z" transform="translate(-9.78 -36.42)"/><path class="cls-4" d="M357.54,332.62a13.58,13.58,0,0,0-6.24,9.22l-4.92,28.85a13.73,13.73,0,0,0,1.95,10.2l19.8,27.54c4.3,6,14.73,8.67,20.72,4.38l.2-.14c2.42-1.73,3.43-5.08,4.28-7.77l27.54,34.61c.65.82,2.21,2.92,4.08,5.46a20.75,20.75,0,0,0,26.27,6.08l47-23.56a18.18,18.18,0,0,0,4.22-23L453.05,306a18.29,18.29,0,0,0-23.61-7.53l-8.77,4.23a13.38,13.38,0,0,0-8.07,1.9Z" transform="translate(-9.78 -36.42)"/><path class="cls-7" d="M421.1,439a4.64,4.64,0,0,1,2.22-6.19l48.57-22.93a4.65,4.65,0,1,1,4,8.41l-48.57,22.93a4.66,4.66,0,0,1-5.78-1.49A3.51,3.51,0,0,1,421.1,439Zm-16.58-22.95a4.64,4.64,0,0,1,1.57-6.39l53.58-32.41a4.66,4.66,0,1,1,4.84,8l-53.59,32.41a4.67,4.67,0,0,1-6.2-1.26A3.28,3.28,0,0,1,404.52,416.06Zm-24.27-27.53a5,5,0,0,1,2-3.13,4.29,4.29,0,0,1,1.3-.65c7.41-4.24,54.28-33.19,60.09-37.35A4.66,4.66,0,1,1,449.1,355c-3.53,2.52-19.62,12.59-33.49,21.16-14.9,9.21-22.85,14.12-27.38,16.36a5.39,5.39,0,0,1-.56.5l-.13-.16c-4.55,2.14-5.23,1.2-6.62-.72A4.87,4.87,0,0,1,380.25,388.53Z" transform="translate(-9.78 -36.42)"/><path class="cls-7" d="M372.57,351l48.68-34.8a4.66,4.66,0,1,1,5.44,7.56L378,358.6a12.3,12.3,0,0,0-2.84,17.17l18.11,25.17a4.67,4.67,0,0,1-7.59,5.43l-18.1-25.18A21.58,21.58,0,0,1,372.57,351Z" transform="translate(-9.78 -36.42)"/><g class="cls-9"><path class="cls-10" d="M424.6,400.89l-5,2.74,6.11,11.08,32.55-17.91-6.11-11.09-3.53,1.94-46.73-83.36L406,302,399.93,291l-10.67,5.87S356.37,238,340.33,212.89s-42.43-83.81-89.88-85.43c-28.15-1-45.62,21.16-46.06,34.19-1.15,33.64,24.07,49.19,40.51,67.16,23.91,26.14,75,52.16,72.9,97.37-2,44.43-20.58,82.7-68.55,81.06S187.44,360,187.89,346.8c1.05-30.89,22.62-54.82,51-53.85s43.67,22.63,43.11,38.87c-.66,19.35-11.25,35.24-28.59,34.65s-36-16.31-18.18-29.5L228,324.05s-7.4,8.8-7.47,19.75,6.84,28.82,30.89,29.65,36.14-20.79,36.86-42-18.26-44-49.35-45.05S183,312.76,180.65,346.55s35.85,65.94,68.48,67.05,74.44-24.38,76.55-86.08c1.73-53.71-47.12-74.7-76.6-106.26s-37.46-41.88-36.89-58.69,26.12-26.39,37.43-26c35.82,2.14,68.26,56.87,82.52,82.69s46.19,83.58,46.19,83.58l-10.95,6L373.47,320l4.4-2.42Z" transform="translate(-9.78 -36.42)"/><polygon class="cls-11" points="368.05 281.04 414.82 364.46 438.94 351.3 392.16 267.87 368.05 281.04"/><rect class="cls-12" x="368.12" y="299.12" width="37.16" height="12.66" transform="translate(862.98 350.16) rotate(151.17)"/><rect class="cls-12" x="420.4" y="393.88" width="37.16" height="12.66" transform="translate(1006.76 502.74) rotate(151.17)"/><path class="cls-13" d="M389.26,296.82S356.37,238,340.33,212.89s-42.43-83.8-89.88-85.43c-28.16-1-45.62,21.16-46.06,34.19-1.15,33.63,24.07,49.19,40.51,67.16,23.91,26.14,75,52.16,72.89,97.37-2,44.44-20.57,82.7-68.54,81.06S187.43,360,187.88,346.8c1.06-30.89,22.63-54.82,51-53.85s43.67,22.63,43.11,38.86c-.66,19.36-11.25,35.25-28.59,34.65s-36-16.3-18.18-29.49L228,324s-7.4,8.81-7.48,19.77,6.85,28.81,30.9,29.63,36.14-20.79,36.86-42-18.26-44-49.35-45.05S183,312.77,180.65,346.56s35.86,65.92,68.48,67,74.44-24.38,76.55-86.07c1.73-53.71-47.12-74.71-76.6-106.28s-37.47-41.86-36.89-58.68,26.12-26.38,37.43-26c35.82,2.14,68.26,56.87,82.53,82.69l46.17,83.57" transform="translate(-9.78 -36.42)"/></g></g></g></g></svg>