<?xml version="1.0" encoding="utf-8"?>
<!-- Generator: Adobe Illustrator 25.0.0, SVG Export Plug-In . SVG Version: 6.00 Build 0)  -->
<svg version="1.1" id="Ebene_1" xmlns="http://www.w3.org/2000/svg" xmlns:xlink="http://www.w3.org/1999/xlink" x="0px" y="0px"
	 viewBox="0 0 164.5 164.5" style="enable-background:new 0 0 164.5 164.5;" xml:space="preserve">
<style type="text/css">
	.st0{fill:#83CF53;}
	.st1{fill:#4C9426;}
	.st2{clip-path:url(#SVGID_2_);}
	.st3{fill:#24421A;}
	.st4{fill:#C5DEB1;}
	.st5{fill:#77B154;}
	.st6{fill:#2A2F33;}
	.st7{fill:#F4900C;}
	.st8{fill:#FFCC4D;}
	.st9{fill:#5C903A;}
	.st10{fill:#A0A0A0;}
	.st11{fill:#767676;}
	.st12{fill:none;stroke:#2A2F33;stroke-width:0.5;stroke-miterlimit:10;}
</style>
<g id="Ebene_2_1_">
	<g id="Ebene_1-2">
		<g id="Ebene_2-2">
			<g id="Ebene_1-2-2">
				<g id="hat">
					<path id="left" class="st0" d="M82.2,14.6v85.9h-16c-6.8-2.2-13.5-6.7-16.5-13.2c1,6.3,2.8,14.6,6.7,18.9l3.6,39.8
						C8.6,148.8,31.4,119.3,0,102l25.4-70.7C40.4,19.9,59.2,14,82.2,14.6z"/>
					<path id="right" class="st1" d="M164.5,102.1c-31.4,17.2-8.6,46.7-60.1,44l3.6-39.8c3.9-4.3,5.7-12.6,6.7-18.9
						c-3,6.5-9.7,11-16.5,13.2h-16V14.6c23.1-0.6,41.8,5.3,56.9,16.8L164.5,102.1z"/>
				</g>
				<g id="stripes">
					<g>
						<defs>
							<path id="SVGID_1_" d="M66.2,100.5c-6.8-2.2-13.5-6.7-16.5-13.2c1,6.3,2.8,14.6,6.7,18.9l3.6,39.8
								c-51.5,2.7-28.7-26.7-60.1-44l25.4-70.7C40.4,19.9,59.2,14,82.2,14.6c23.1-0.6,41.8,5.3,56.9,16.8l25.4,70.7
								c-31.4,17.2-8.6,46.7-60.1,44l3.6-39.8c3.9-4.3,5.7-12.6,6.7-18.9c-3,6.5-9.7,11-16.5,13.2L66.2,100.5z"/>
						</defs>
						<clipPath id="SVGID_2_">
							<use xlink:href="#SVGID_1_"  style="overflow:visible;"/>
						</clipPath>
						<g class="st2">
							<polygon class="st3" points="59.9,124.7 60.2,130.7 18.7,130.7 18.7,124.7 							"/>
							<polygon class="st3" points="148.5,124.7 148.5,130.7 103.8,130.7 103.8,124.7 							"/>
							<polygon class="st3" points="59.1,108.7 59.4,114.8 7.2,114.8 7.2,108.7 							"/>
							<polygon class="st3" points="155.9,108.7 155.9,114.8 103.8,114.8 103.7,108.7 							"/>
							<rect x="1.4" y="91.8" class="st3" width="163.1" height="6.3"/>
							<rect x="4.9" y="75.3" class="st3" width="151.8" height="5.1"/>
							<rect x="13.4" y="57.6" class="st3" width="140.8" height="7.1"/>
							<rect x="16.4" y="42.5" class="st3" width="129.2" height="7.2"/>
							<path class="st3" d="M41.8,21.7l23.3,22.7l-5.6,4.2L35.4,24.9C37.6,23.7,39.7,22.6,41.8,21.7z"/>
							<path class="st3" d="M54,17.5l17.7,33.6h7.5L59.9,16.2C57.8,16.6,55.9,17.1,54,17.5z"/>
							<path class="st3" d="M121.3,21.2L97.8,44.1l5.6,4.2l24.5-24C125.7,23.1,123.5,22.1,121.3,21.2z"/>
							<path class="st3" d="M108.9,17.2L91.2,50.8h-7.5l19.3-34.9C105.1,16.3,107.1,16.7,108.9,17.2z"/>
						</g>
					</g>
				</g>
				<g id="frog">
					<path class="st4" d="M122.3,74.7c0,17.2-18,27.7-40.1,27.7S42.1,92,42.1,74.7s18-34.7,40.1-34.7S122.3,57.5,122.3,74.7z"/>
					<path class="st5" d="M112.9,53.2c3.2-2.7,5-6.6,5-10.8c-0.1-2.5-0.9-4.9-2.3-7c-2.4-4-6.2-6.9-11-6.9
						c-6.3,0.1-11.8,4.6-13,10.8C85.6,37,79,37,73.1,39.3c-1.3-6.2-6.7-10.8-13.1-10.8c-4.8,0-8.8,3-11.1,6.9
						c-1.4,2.1-2.2,4.5-2.2,7c0,4.2,1.8,8.1,5,10.8c-5.9,6.2-9.5,13.9-9.5,21.5c0,17.2,18,2.3,40.1,2.3s40.1,14.9,40.1-2.3
						C122.3,67.1,118.8,59.4,112.9,53.2z"/>
					<ellipse class="st6" cx="58.8" cy="41.2" rx="7.8" ry="8.1"/>
					<path class="st7" d="M62.9,40.6c0-0.5-0.1-0.9-0.2-1.4c-0.1,1.3-0.8,1.9-1.5,1.6s-0.2-1.4-0.2-1.9c0.2-1.2-0.5-2.4-1.6-2.8
						c0.7,1.3,0.1,2.1-0.5,2.2s-1.3-0.6-1.1-1.7c-0.6,0.5-0.9,1.4-0.5,2.1c0.2,0.6,0,1.2-0.6,1.2s-1-0.7-0.7-2
						c-1.4,1.7-1.1,4.3,0.6,5.7s4.3,1.1,5.7-0.6C62.6,42.4,62.9,41.5,62.9,40.6L62.9,40.6z"/>
					<path class="st8" d="M61.3,41.8c0.1,0.4-0.2,0.8-0.7,0.9c-0.1,0-0.2,0-0.3,0c-0.5-0.2-0.4-0.5-0.5-1.3
						c-0.1-0.7-0.7-1.3-1.4-1.5c0.5,1.5-0.3,2-0.7,2.2s-0.9,0-0.9-0.9c-0.5,0.5-0.8,1.2-0.8,2v0.3c1.6,1.6,4.1,1.6,5.7,0
						c0,0,0,0,0,0l0,0v-0.3C61.7,42.7,61.5,42.2,61.3,41.8z"/>
					<ellipse class="st6" cx="105.6" cy="41.2" rx="7.8" ry="8.1"/>
					<path class="st7" d="M109.7,40.6c0-0.5-0.1-0.9-0.2-1.4c-0.1,1.3-0.8,1.9-1.5,1.6s-0.2-1.4-0.2-1.9c0.2-1.2-0.5-2.4-1.6-2.8
						c0.7,1.3,0.1,2.1-0.6,2.2s-1.3-0.6-1.1-1.7c-0.6,0.5-0.9,1.4-0.6,2.1c0.2,0.6,0,1.2-0.6,1.2s-1-0.7-0.7-2
						c-1.4,1.7-1.2,4.2,0.5,5.6c1.7,1.4,4.2,1.2,5.6-0.5c0,0,0,0,0,0C109.3,42.4,109.6,41.5,109.7,40.6L109.7,40.6z"/>
					<path class="st8" d="M108.1,41.8c0.1,0.4-0.2,0.8-0.6,0.9c-0.1,0-0.2,0-0.4,0c-0.5-0.2-0.4-0.5-0.5-1.3
						c-0.1-0.7-0.6-1.3-1.3-1.5c0.5,1.5-0.3,2-0.7,2.2s-0.9,0-0.9-0.9c-0.5,0.5-0.8,1.2-0.8,2v0.3c1.6,1.6,4.1,1.6,5.7,0v-0.3
						C108.5,42.7,108.3,42.2,108.1,41.8z"/>
					<ellipse class="st9" cx="73.3" cy="70.1" rx="2.2" ry="2.3"/>
					<ellipse class="st9" cx="91.2" cy="70.1" rx="2.2" ry="2.3"/>
				</g>
				<g id="beard">
					<polygon id="left-2" class="st0" points="82.2,88.5 82.2,140.6 66.5,140.6 60.8,126 66.2,91.1 					"/>
					<polygon id="leftFront" class="st1" points="82.2,120 82.2,140.6 66.5,140.6 61.7,128.4 					"/>
					<polygon id="right-2" class="st1" points="103.6,126 98,140.6 82.2,140.6 82.2,88.5 98.3,91.1 					"/>
					<polygon id="rightFront" class="st0" points="102.7,128.4 98,140.6 82.2,140.6 82.2,120 					"/>
					<g id="stripes-2">
						<polygon class="st3" points="61.7,120.7 82.2,118.5 102.9,121.1 102.2,116.7 82.3,114.5 62.2,116.9 						"/>
						<polygon class="st3" points="63,112.3 82.3,109.8 101.4,111.6 100.9,108.3 82.3,106.3 63.5,108.9 						"/>
						<polygon class="st3" points="64.2,104 82.3,101.7 100.2,103.9 99.8,100.9 82.3,98.1 64.7,100.7 						"/>
						<polygon class="st3" points="65.6,94.8 82.2,92.4 98.9,95.1 98.6,93.1 82.2,90.2 66,92.6 						"/>
					</g>
				</g>
				<path class="st10" d="M82.3,18.2v27.4l0,0c-3.8,0-6.9-3.1-6.9-6.9V25.1C75.3,21.3,78.4,18.2,82.3,18.2z"/>
				<path class="st11" d="M89.2,25.1v13.6c0,3.8-3.1,6.9-6.9,6.9V18.2C86.1,18.3,89.1,21.3,89.2,25.1z"/>
				<circle class="st12" cx="82.2" cy="38.5" r="2.8"/>
				<line class="st12" x1="82.2" y1="35.7" x2="82.2" y2="41.3"/>
				<circle class="st12" cx="82.2" cy="24.9" r="2.8"/>
				<line class="st12" x1="79.5" y1="24.9" x2="85" y2="24.9"/>
			</g>
		</g>
	</g>
</g>
</svg>
