<?xml version="1.0" encoding="utf-8"?>
<!-- Generator: Adobe Illustrator 25.0.0, SVG Export Plug-In . SVG Version: 6.00 Build 0)  -->
<svg version="1.1"
	 id="svg38" inkscape:version="1.1.1 (3bf5ae0d25, 2021-09-20, custom)" sodipodi:docname="frogPirate.svg" xmlns:inkscape="http://www.inkscape.org/namespaces/inkscape" xmlns:sodipodi="http://sodipodi.sourceforge.net/DTD/sodipodi-0.dtd" xmlns:svg="http://www.w3.org/2000/svg"
	 xmlns="http://www.w3.org/2000/svg" xmlns:xlink="http://www.w3.org/1999/xlink" x="0px" y="0px" viewBox="0 0 45.8 45.8"
	 style="enable-background:new 0 0 45.8 45.8;" xml:space="preserve">
<style type="text/css">
	.st0{fill:#C6E5B3;}
	.st1{fill:#77B255;}
	.st2{fill:#FFFFFF;}
	.st3{fill:#292F33;}
	.st4{fill:#5C913B;}
	.st5{fill:#292F33;stroke:#292F33;stroke-width:1;}
	.st6{fill:#292F33;stroke:#292F33;stroke-width:1.4;}
	.st7{fill:#31373D;}
	.st8{fill:#E6E7E8;}
</style>
<g id="g1566" transform="translate(-41.249062)">
	<path id="path22-3" sodipodi:nodetypes="cscc" class="st0" d="M82.1,32.9c0,7.5-8.1,12-18,12s-18-4.5-18-12H82.1"/>
	<path id="path26-6" class="st1" d="M77.9,23.5c1.4-1.1,2.2-2.8,2.2-4.7c0-3.3-2.7-6-6-6c-2.9,0-5.3,2-5.9,4.7
		c-1.3-0.5-2.7-0.8-4.2-0.8c-1.5,0-2.9,0.3-4.2,0.8c-0.6-2.7-3-4.7-5.9-4.7c-3.3,0-6,2.7-6,6c0,1.9,0.9,3.6,2.2,4.7
		c-2.6,2.7-4.2,6-4.2,9.3c0,7.5,8.1,1,18,1c9.9,0,18,6.5,18-1C82.1,29.5,80.5,26.2,77.9,23.5"/>
	<path id="path30-7" class="st2" d="M57.1,18.4c0,1.9-1.6,3.5-3.5,3.5c-1.9,0-3.5-1.6-3.5-3.5s1.6-3.5,3.5-3.5S57.1,16.4,57.1,18.4"
		/>
	<path id="path34" class="st3" d="M55.1,18.4c0,0.8-0.7,1.5-1.5,1.5s-1.5-0.7-1.5-1.5s0.7-1.5,1.5-1.5S55.1,17.5,55.1,18.4"/>
	<path id="path38" class="st2" d="M78.1,18.4c0,1.9-1.6,3.5-3.5,3.5c-1.9,0-3.5-1.6-3.5-3.5s1.6-3.5,3.5-3.5
		C76.5,14.9,78.1,16.4,78.1,18.4"/>
	<path id="path42" class="st3" d="M76.1,18.4c0,0.8-0.7,1.5-1.5,1.5s-1.5-0.7-1.5-1.5s0.7-1.5,1.5-1.5S76.1,17.5,76.1,18.4"/>
	<path id="path46" class="st4" d="M61.1,30.9c0,0.6-0.4,1-1,1s-1-0.4-1-1s0.4-1,1-1S61.1,30.3,61.1,30.9"/>
	<path id="path50" class="st4" d="M69.1,30.9c0,0.6-0.4,1-1,1c-0.6,0-1-0.4-1-1s0.4-1,1-1C68.7,29.9,69.1,30.3,69.1,30.9"/>
</g>
<g id="g4855" transform="translate(-0.001106)">
	<path id="path925" sodipodi:nodetypes="cccc" class="st5" d="M8.1,16.8l9.6-1.4c0,0-1.8,6-5.8,6.7C8.3,22.8,8.1,16.8,8.1,16.8z"/>
	<path id="path2333" sodipodi:nodetypes="cc" class="st6" d="M6.6,18.6c1.4-0.3,2.2-0.5,3-1"/>
</g>
<g id="g4847" transform="translate(0,0.23342273)">
	<path id="path24" class="st7" d="M45.3,11.5c-1.4,2.3-5.6,5.9-22.3,5.9c-17.7,0-21.3-4-22.6-6.2c7.8,6,16.4,0.5,22.6,0.5
		S34.1,16.6,45.3,11.5z"/>
	<path id="path26" class="st3" d="M45.2,11.6c-11.2,5-16,0.3-22.2,0.3S8.3,17.4,0.5,11.5C0.2,11,0,10.5,0,9.9c0.2-2,7.2,0,10.9-3.7
		c3.2-3.2,7.5-5,12.1-4.9c4.6,0,7.7,1.3,11.8,4.7c5.3,4.4,10.4,1.6,11,3.9C45.8,10.5,45.6,11.1,45.2,11.6z"/>
	<path id="path28" class="st8" d="M27.5,9.7C27.3,9.7,27.1,9.8,27,10l-2.9-1L27,7.9c0.1,0.2,0.3,0.3,0.5,0.3l0,0
		c0.2-0.1,0.3-0.3,0.2-0.5c-0.1-0.2-0.3-0.3-0.5-0.2l0,0c0.2-0.1,0.3-0.3,0.2-0.5c-0.1-0.2-0.3-0.3-0.5-0.3s-0.3,0.3-0.3,0.5
		c0,0,0,0,0,0l-3.8,1.4l-3.8-1.4c0.1-0.2,0-0.5-0.2-0.5s-0.5,0-0.5,0.3c-0.1,0.2,0,0.5,0.2,0.5c-0.2-0.1-0.4,0-0.5,0.2
		c-0.1,0.2,0.1,0.4,0.3,0.5c0.2,0.1,0.4,0,0.5-0.2l2.9,1l-2.9,1c-0.1-0.2-0.3-0.3-0.5-0.3c0,0,0,0,0,0l0,0c-0.2,0.1-0.3,0.3-0.3,0.5
		c0,0,0,0,0,0l0,0c0.1,0.2,0.3,0.3,0.5,0.2c-0.2,0.1-0.3,0.3-0.3,0.5c0,0,0,0,0,0l0,0c0.1,0.2,0.3,0.3,0.5,0.3c0,0,0,0,0,0l0,0
		c0.2-0.1,0.3-0.3,0.3-0.5c0,0,0,0,0,0l0,0l3.8-1.4l3.8,1.4c-0.1,0.2,0,0.4,0.2,0.5c0,0,0,0,0,0l0,0c0.2,0.1,0.5,0,0.5-0.2
		c0,0,0,0,0,0l0,0c0.1-0.2,0-0.5-0.3-0.5c0.2,0.1,0.5-0.1,0.5-0.3C27.8,10,27.7,9.8,27.5,9.7C27.5,9.8,27.5,9.8,27.5,9.7z"/>
	<path id="path30" class="st8" d="M22.9,2.3c-1.4,0-2.5,1.1-2.5,2.4v0.1c0,0.5,0.3,1,0.8,1.2v0.8c0,0.2,0.2,0.4,0.4,0.4
		c0.2,0,0.3-0.1,0.4-0.2c0,0,0-0.1,0-0.1V6.4l0.4,0.1v0.4c0,0.2,0.2,0.4,0.4,0.4s0.4-0.2,0.4-0.4V6.4l0.4-0.1v0.5
		c0,0.2,0.1,0.4,0.3,0.5c0.2,0,0.4-0.1,0.5-0.3c0,0,0,0,0,0c0,0,0-0.1,0-0.1V6c0.5-0.2,0.8-0.7,0.8-1.3C25.4,3.4,24.3,2.3,22.9,2.3
		L22.9,2.3z M21.8,5.2c-0.3,0-0.6,0-0.6-0.6c0-0.3,0.3-0.6,0.6-0.6c0.6,0,0.6,0.3,0.6,0.6C22.4,4.9,22.2,5.2,21.8,5.2z M22.9,6
		c-0.2,0-0.4-0.1-0.4-0.2s0.2-0.2,0.4-0.2s0.4,0.1,0.4,0.2S23.1,6,22.9,6z M23.9,5.2c-0.3,0-0.6-0.3-0.6-0.6c0-0.3,0-0.6,0.6-0.6
		c0.3,0,0.6,0.3,0.6,0.6C24.5,5.2,24.3,5.2,23.9,5.2L23.9,5.2z"/>
</g>
</svg>
