<svg xmlns="http://www.w3.org/2000/svg" viewBox="0 0 4099.34 4099.34"><defs><style>.cls-1{fill:#77b255;}.cls-2{fill:#c6e5b3;}.cls-3{fill:#fff;}.cls-4{fill:#292f33;}.cls-5{fill:#5c913b;}.cls-6{fill:none;}</style></defs><g id="Ebene_2" data-name="Ebene 2"><g id="Ebene_1-2" data-name="Ebene 1"><path class="cls-1" d="M3273.88,3988.05c0,39.06-25.93,76.46-71.22,111.29H896.58c-45.19-34.83-71.12-72.23-71.12-111.29,0-54,48.08-104.84,131.44-149.91-71.34-73-131.44-175.95-131.44-317.4,0-350.46,405.66-751.56,556.46-1090.78,148.35-333.87,234.16-653.84,9.24-744.32-7-2.78-12.58-5.45-18.81-8.12-64.44-24.26-101.72-52.31-101.72-82.24,0-51.2,107.95-97,277.56-127.66q504.78,150.27,1003,0c169.61,30.61,277.57,76.46,277.57,127.66,0,29.93-37.29,58-101.61,82.24l-18.92,8.12c-224.92,90.48-139.12,410.45,9.23,744.32,150.8,339.22,556.46,740.32,556.46,1090.78,0,141.45-60.09,244.39-131.43,317.4C3225.81,3883.21,3273.88,3934.07,3273.88,3988.05Z"/><path class="cls-2" d="M2551.15,1467.62q-498.18,150.27-1003,0c-422.35-428.47-277.56-356.58-277.56-595.74a782.46,782.46,0,0,1,16.93-162.3l1536.81,79.54a785.65,785.65,0,0,1,4.35,82.76C2828.72,1111,2962.62,1061.45,2551.15,1467.62Z"/><path class="cls-1" d="M2824.37,789.12,1287.56,709.58c74.67-352.36,387.52-616.74,762.11-616.74C2452,92.84,2783.05,397.77,2824.37,789.12Z"/><path class="cls-2" d="M2885.93,928.39c0,346.1-374.09,557-835.55,557s-835.55-210.93-835.55-557,374.1-666.29,835.55-666.29S2885.93,582.29,2885.93,928.39Z"/><path class="cls-1" d="M2688.88,495.57c63.5-51.06,104.21-129.27,104.21-217C2793.09,124.73,2668.36,0,2514.58,0,2381.77,0,2270.87,93,2243,217.47a544.75,544.75,0,0,0-385.18,0C1829.89,93,1719,0,1586.19,0c-153.79,0-278.52,124.73-278.52,278.52,0,87.78,40.71,166,104.21,217.05C1289.1,620,1214.83,774.51,1214.83,928.39c0,346.1,374.1,46.42,835.55,46.42s835.55,299.68,835.55-46.42C2885.93,774.51,2811.66,620,2688.88,495.57Z"/><circle class="cls-3" cx="1562.98" cy="255.31" r="162.47"/><circle class="cls-4" cx="1562.98" cy="255.31" r="69.63"/><circle class="cls-3" cx="2537.78" cy="255.31" r="162.47"/><circle class="cls-4" cx="2537.78" cy="255.31" r="69.63"/><circle class="cls-5" cx="1864.7" cy="835.55" r="46.42"/><circle class="cls-5" cx="2236.06" cy="835.55" r="46.42"/><path class="cls-5" d="M2494.84,1650.92a56.22,56.22,0,0,1-24.93-5.89c-.44-.12-109.95-49.75-420.24-49.75s-419.79,49.63-420.9,50.08a55.68,55.68,0,0,1-49.08-99.94c12.58-6.23,132.66-61.43,470-61.43s457.41,55.2,470.1,61.54a55.61,55.61,0,0,1-24.93,105.39ZM1159.34,3932.41a55.62,55.62,0,0,1-5.45-111c5.45-.67,563-56,895.78-56s890.23,55.31,895.9,56a55.44,55.44,0,0,1,49.75,60.88c-3,30.49-30.6,53.3-60.88,49.74-5.56-.55-557.57-55.31-884.77-55.31s-879.2,54.76-884.77,55.31Z"/><rect class="cls-6" width="4099.34" height="4099.34"/></g></g></svg>