<svg xmlns="http://www.w3.org/2000/svg" viewBox="0 0 36 36"><defs><style>.cls-1{fill:#939598;}.cls-2{fill:#f1f2f2;}.cls-3{fill:#5c913b;}.cls-4{fill:#77b255;}.cls-5{fill:#c6e5b3;}.cls-6{fill:#fff;}.cls-7{fill:#292f33;}.cls-8{fill:none;}</style></defs><g id="Ebene_2" data-name="Ebene 2"><g id="Ebene_1-2" data-name="Ebene 1"><ellipse class="cls-1" cx="18" cy="23" rx="18" ry="10"/><ellipse class="cls-2" cx="18" cy="21" rx="18" ry="10"/><path class="cls-3" d="M31,20c0,4-5.82,7.22-13,7.22S5,24,5,20s5.82-7.22,13-7.22S31,16,31,20Z"/><ellipse class="cls-4" cx="18" cy="20" rx="11" ry="5.56"/><path class="cls-5" d="M18,24c-5.76,0-10.58-2.94-10.19-5.76.27,3.62,4.73.19,10.19.19s9.89,3.4,10.2-.15C28.53,21.09,23.73,24,18,24Z"/><path class="cls-4" d="M28.2,18.28c-.31,3.55-4.76.15-10.2.15s-9.92,3.43-10.19-.19a2,2,0,0,1,0-.24c.34-1.39.64-2.57.92-3.59h0c.27-1,.52-1.83.77-2.52C10.34,9.74,11.05,9,12.08,9c.73,0,1.52-.75,2.8-1.33h0A7.46,7.46,0,0,1,18,7a7.29,7.29,0,0,1,3.12.67C22.4,8.25,23.19,9,23.92,9c1,0,1.74.74,2.53,2.88.25.69.5,1.52.77,2.52h0c.28,1,.58,2.2.92,3.59A2.33,2.33,0,0,1,28.2,18.28Z"/><path class="cls-4" d="M25.61,11c0,2.21-3.41,4-7.61,4s-7.61-1.79-7.61-4S13.8,7,18,7,25.61,8.79,25.61,11Z"/><circle class="cls-4" cx="12.11" cy="7" r="3.18"/><circle class="cls-6" cx="11.85" cy="6.74" r="1.85"/><circle class="cls-7" cx="11.85" cy="6.74" r="0.79"/><circle class="cls-4" cx="23.89" cy="7" r="3.18"/><circle class="cls-6" cx="24.15" cy="6.74" r="1.85"/><circle class="cls-7" cx="24.15" cy="6.74" r="0.79"/><rect class="cls-8" width="36" height="36"/></g></g></svg>