<?xml version="1.0" encoding="utf-8"?>
<!-- Generator: Adobe Illustrator 25.0.0, SVG Export Plug-In . SVG Version: 6.00 Build 0)  -->
<svg version="1.1" id="Ebene_1" xmlns="http://www.w3.org/2000/svg" xmlns:xlink="http://www.w3.org/1999/xlink" x="0px" y="0px"
	 viewBox="0 0 36 36" style="enable-background:new 0 0 36 36;" xml:space="preserve">
<style type="text/css">
	.st0{fill:#292F33;}
	.st1{fill:#546170;}
	.st2{fill:#66757F;}
	.st3{fill:#C6E5B3;}
	.st4{fill:#DFE7EC;}
	.st5{fill:#77B255;}
	.st6{fill:#FFFFFF;}
	.st7{fill:#5C913B;}
	.st8{fill:#F4F7F9;}
	.st9{fill:none;}
	.st10{fill:#67757F;}
	.st11{fill:#BDDDF4;}
</style>
<g id="Ebene_2_1_">
	<g id="Ebene_1-2">
		<path class="st0" d="M32,36v-3c-0.1-3.8-3.2-6.9-7-7H11c-3.8,0.1-6.9,3.2-7,7v3H32z"/>
		<path class="st1" d="M22.5,30l4.3-0.9L24.9,26h-2.4V30z"/>
		<path class="st2" d="M20.6,36h2.8l4.4-7.7l-2.9,0.9L23.1,27L20.6,36z"/>
		<path class="st1" d="M13.5,30l-4.3-0.9l1.9-3.1h2.4V30z"/>
		<path class="st2" d="M15.4,36h-2.8l-4.4-7.7l2.9,0.9l1.7-2.2L15.4,36z"/>
		<path class="st3" d="M31.5,18.3c0,5.5-6,8.9-13.3,8.9S4.8,23.8,4.8,18.3s6-11.1,13.4-11.1S31.5,12.8,31.5,18.3z"/>
		<path class="st4" d="M20.8,36l2.9-10H12.3l2.9,10H20.8z"/>
		<circle class="st0" cx="18" cy="31.8" r="0.7"/>
		<circle class="st0" cx="18" cy="34.7" r="0.7"/>
		<g>
			<path class="st5" d="M28.3,11.4c1.9-1.5,2.2-4.3,0.7-6.3c-1.5-1.9-4.3-2.2-6.3-0.7C22,5.1,21.4,6,21.2,6.9c-2-0.8-4.2-0.8-6.1,0
				c-0.6-2.4-3-3.9-5.4-3.3S5.8,6.6,6.4,9c0.2,1,0.8,1.8,1.5,2.4c-1.9,1.8-3,4.3-3.2,6.9c0,5.5,6,0.7,13.4,0.7s13.3,4.8,13.3-0.7
				C31.4,15.7,30.2,13.2,28.3,11.4z"/>
			<circle class="st5" cx="10.7" cy="7.9" r="4.4"/>
			<circle class="st6" cx="10.3" cy="7.5" r="2.6"/>
			<circle class="st0" cx="10.3" cy="7.5" r="1.1"/>
			<circle class="st6" cx="25.9" cy="7.5" r="2.6"/>
			<circle class="st0" cx="25.9" cy="7.5" r="1.1"/>
			<circle class="st7" cx="15.2" cy="16.8" r="0.7"/>
			<circle class="st7" cx="21.1" cy="16.8" r="0.7"/>
			<path class="st3" d="M14,26.3l4,1.8l4-1.8v-4h-8V26.3z"/>
		</g>
		<path class="st8" d="M13.9,24.7l4.1,2.9l-2.7,2.8l-3-4.5L13.9,24.7z M22.1,24.7L18,27.6l2.7,2.8l3-4.5L22.1,24.7z"/>
		<path class="st0" d="M21,26.6c-0.1,0-0.2,0-0.2,0L18,28.2l-2.8-1.5c-0.1,0-0.2,0-0.2,0c-0.1,0-0.1,0.1-0.1,0.2v3.2
			c0,0.1,0,0.2,0.1,0.2c0,0,0.1,0,0.1,0h0.1l2.8-1.5l2.8,1.5c0,0,0.1,0,0.1,0c0,0,0.1,0,0.1,0c0.1,0,0.1-0.1,0.1-0.2v-3.2
			C21.2,26.8,21.1,26.7,21,26.6z"/>
		<rect y="0" class="st9" width="36" height="36"/>
		<circle class="st8" cx="25.7" cy="7.3" r="3"/>
		<path class="st0" d="M29.2,16.8c-0.3,0-0.5-0.2-0.5-0.5V7.5c0-0.3,0.2-0.5,0.5-0.5c0.3,0,0.5,0.2,0.5,0.5l0,0v8.9
			C29.7,16.6,29.4,16.8,29.2,16.8L29.2,16.8z"/>
		<path class="st10" d="M29.2,6.6L29.2,6.6c-0.5-1.9-2.3-3.1-4.2-2.7S21.9,6.1,22.2,8s2.2,3.1,4.1,2.7c1.2-0.2,2.2-1.1,2.6-2.3h0.2
			c0.5,0.1,1-0.3,1-0.8c0.1-0.5-0.3-1-0.8-1C29.3,6.5,29.3,6.5,29.2,6.6L29.2,6.6z M25.7,9.8c-1.4,0-2.6-1.2-2.6-2.6
			s1.2-2.6,2.6-2.6c1.4,0,2.6,1.2,2.6,2.6v0C28.3,8.7,27.1,9.8,25.7,9.8z"/>
		<path class="st11" d="M27.1,5.1c-1.2-0.8-2.8-0.5-3.5,0.7c-0.6,0.9-0.6,2,0,2.8L27.1,5.1z M24.6,9.6c1.3,0.6,2.8,0.1,3.4-1.2
			c0.2-0.3,0.2-0.7,0.2-1.1c0-0.4-0.1-0.8-0.3-1.1L24.6,9.6z"/>
		<path class="st0" d="M25.2,18.7L22,17.8c-2.6-0.4-5.2-0.4-7.8,0l-3.2,1c-0.5,0.2-0.8,0.7-0.7,1.2c0,0,0,0,0,0.1
			c0.1,0.4,0.5,0.7,0.9,0.7c0.1,0,0.2,0,0.3,0l1.9-0.5c-0.2,0.3-0.2,0.7-0.1,1c0.2,0.5,0.8,0.7,1.3,0.5l1.5-0.8
			c0,0.4,0.2,0.7,0.5,0.9c0.1,0.1,0.3,0.1,0.4,0.1c0.4,0,0.7-0.3,0.9-0.6l0.1-0.2l0.1,0.2c0.1,0.4,0.5,0.6,0.9,0.6
			c0.2,0,0.3,0,0.4-0.1c0.3-0.2,0.5-0.5,0.5-0.9l1.5,0.8c0.1,0.1,0.3,0.1,0.4,0.1c0.4,0,0.7-0.2,0.9-0.6c0.1-0.3,0.1-0.7-0.1-1
			l1.9,0.5c0.1,0,0.2,0,0.3,0c0.4,0,0.8-0.3,0.9-0.7C26.1,19.5,25.8,18.9,25.2,18.7C25.2,18.7,25.2,18.7,25.2,18.7z"/>
	</g>
</g>
</svg>
