<svg xmlns="http://www.w3.org/2000/svg" viewBox="0 0 36 36"><defs><style>.cls-1{fill:#c6e5b3;}.cls-2{fill:#77b255;}.cls-3{fill:#fff;}.cls-4{fill:#292f33;}.cls-5{fill:#5c913b;}.cls-6{fill:#ffcc4d;}.cls-7{fill:#fee7b8;}.cls-8{fill:#67757f;}.cls-9{fill:#e75a70;}.cls-10{fill:#f18f26;}.cls-11{fill:none;}</style></defs><g id="Ebene_2" data-name="Ebene 2"><g id="Ebene_1-2" data-name="Ebene 1"><path class="cls-1" d="M36,21.83c0,7.46-8.06,12-18,12s-18-4.54-18-12,8.06-15,18-15S36,14.38,36,21.83Z"/><path class="cls-2" d="M31.75,12.51a6,6,0,1,0-9.6-6,11.71,11.71,0,0,0-8.3,0,6,6,0,1,0-9.61,6A13.6,13.6,0,0,0,0,21.83c0,7.46,8.06,1,18,1s18,6.46,18-1A13.57,13.57,0,0,0,31.75,12.51Z"/><circle class="cls-3" cx="7.5" cy="7.33" r="3.5"/><circle class="cls-4" cx="7.5" cy="7.33" r="1.5"/><circle class="cls-3" cx="28.5" cy="7.33" r="3.5"/><circle class="cls-4" cx="28.5" cy="7.33" r="1.5"/><circle class="cls-5" cx="14" cy="19.83" r="1"/><circle class="cls-5" cx="22" cy="19.83" r="1"/><path class="cls-6" d="M22.41,10.36A15.9,15.9,0,0,0,18,9.64a15.9,15.9,0,0,0-4.41.72C10,11.5,7.33,13.28,6,15.84a18.87,18.87,0,0,0-1.3,6,10.62,10.62,0,0,0,.55,5.1A16.75,16.75,0,0,0,9,30.53a18.41,18.41,0,0,0,9,2.88,18.41,18.41,0,0,0,9-2.88,16.75,16.75,0,0,0,3.76-3.6,10.62,10.62,0,0,0,.55-5.1,18.87,18.87,0,0,0-1.3-6A11.93,11.93,0,0,0,22.41,10.36Z"/><path class="cls-4" d="M14.65,20.86A1.67,1.67,0,1,1,13,19.19,1.68,1.68,0,0,1,14.65,20.86Zm10,0A1.67,1.67,0,1,1,23,19.19,1.68,1.68,0,0,1,24.69,20.86Z"/><path class="cls-7" d="M4.78,29.61a.41.41,0,0,1-.33-.16.41.41,0,0,1,.07-.58,13.25,13.25,0,0,1,8.91-2.18.42.42,0,0,1,.39.45.41.41,0,0,1-.45.38,12.71,12.71,0,0,0-8.33,2A.43.43,0,0,1,4.78,29.61Zm7.42-3.9a.25.25,0,0,1-.12,0,13.83,13.83,0,0,0-7.35-.28.42.42,0,0,1-.24-.8,14.54,14.54,0,0,1,7.83.28.42.42,0,0,1-.12.82Zm19,3.9a.41.41,0,0,0,.33-.16.41.41,0,0,0-.07-.58,13.25,13.25,0,0,0-8.91-2.18.42.42,0,0,0-.39.45.41.41,0,0,0,.45.38,12.71,12.71,0,0,1,8.33,2A.43.43,0,0,0,31.22,29.61Zm-7.42-3.9a.25.25,0,0,0,.12,0,13.83,13.83,0,0,1,7.35-.28.42.42,0,1,0,.24-.8,14.54,14.54,0,0,0-7.83.28.42.42,0,0,0,.12.82Z"/><path class="cls-8" d="M23.64,30a.41.41,0,0,0-.54-.24,3.81,3.81,0,0,1-1.31.26,2.33,2.33,0,0,1-1.7-.56,2.9,2.9,0,0,0-1.66-.67V26.82a.42.42,0,1,0-.84,0v2a3.63,3.63,0,0,0-1.52.62,2.73,2.73,0,0,1-1.74.58A3.85,3.85,0,0,1,13,29.74a.41.41,0,0,0-.53.24.42.42,0,0,0,.24.54,4.53,4.53,0,0,0,1.6.31,3.64,3.64,0,0,0,2.2-.7,2.52,2.52,0,0,1,1.54-.54,2.17,2.17,0,0,1,1.52.52,3.12,3.12,0,0,0,2.2.72,4.53,4.53,0,0,0,1.6-.31A.42.42,0,0,0,23.64,30Z"/><path class="cls-9" d="M19.17,24.88H16.83a1,1,0,0,0,0,1.95H17v.29a1,1,0,1,0,1.94,0v-.29h.2a1,1,0,0,0,0-1.95Z"/><path class="cls-10" d="M18,18.48a.42.42,0,0,1-.42-.42V11.13a.42.42,0,0,1,.84,0v6.93A.42.42,0,0,1,18,18.48Zm2.49-1.32a.42.42,0,0,1-.42-.42,10.17,10.17,0,0,1,1.08-4.44.41.41,0,1,1,.73.39,9.68,9.68,0,0,0-1,4A.42.42,0,0,1,20.51,17.16Zm-5,0a.42.42,0,0,1-.42-.42,9.6,9.6,0,0,0-1-4,.42.42,0,0,1,.18-.56.41.41,0,0,1,.56.17,10.17,10.17,0,0,1,1.08,4.44A.42.42,0,0,1,15.49,17.16Z"/><rect class="cls-11" width="36" height="36"/></g></g></svg>