<svg xmlns="http://www.w3.org/2000/svg" viewBox="0 0 36 36"><defs><style>.cls-1{fill:none;}.cls-2{fill:#c6e5b3;}.cls-3{fill:#77b255;}.cls-4{fill:#fff;}.cls-5{fill:#292f33;}.cls-6{fill:#5c913b;}</style></defs><g id="Ebene_2" data-name="Ebene 2"><g id="Ebene_1-2" data-name="Ebene 1"><rect class="cls-1" width="36" height="35.81"/><path class="cls-2" d="M36,28.67A7.33,7.33,0,0,1,28.67,36c-5.2,0-8.65-.62-10.89-1.67A31.28,31.28,0,0,1,8.24,36,8.12,8.12,0,0,1,0,28a7.54,7.54,0,0,1,.72-3.25C2.88,27.39,9.8,23,18,23c7.88,0,14.58,4.06,17,2A7.17,7.17,0,0,1,36,28.67Z"/><path class="cls-3" d="M35,25c-2.44,2-9.14-2-17-2C9.8,23,2.88,27.39.72,24.75a8.15,8.15,0,0,1,4.07-4,5.47,5.47,0,0,1,.3-6.2A6.32,6.32,0,0,1,8,12.44l.69-.26a3.68,3.68,0,0,1,1.49-5.75h0a20.94,20.94,0,0,1,3.35-.85l.45-.08A5.7,5.7,0,0,1,16.81,0c2.38,3.18,5.39,2.57,7,3.69a2.43,2.43,0,0,1,1,1.31,2.91,2.91,0,0,1,0,2.17,6.26,6.26,0,0,1,4.71,3.56,5.59,5.59,0,0,1,.32,3.75,8.14,8.14,0,0,1,3.73,8.72A7.21,7.21,0,0,1,35,25Z"/><circle class="cls-4" cx="11.35" cy="9.82" r="3.5"/><circle class="cls-5" cx="11.35" cy="9.82" r="1.5"/><circle class="cls-4" cx="24.58" cy="10.66" r="3.5"/><circle class="cls-5" cx="24.58" cy="10.66" r="1.5"/><circle class="cls-6" cx="14" cy="20" r="1"/><circle class="cls-6" cx="22" cy="20" r="1"/></g></g></svg>