<svg xmlns="http://www.w3.org/2000/svg" viewBox="0 0 59.29 59.29"><defs><style>.cls-1{fill:#c6e5b3;}.cls-2{fill:#77b255;}.cls-3{fill:#fff;}.cls-4{fill:#292f33;}.cls-5{fill:#5c913b;}.cls-6{fill:#f4900c;}.cls-7{fill:#ffcc4d;}.cls-8{fill:#981ceb;}.cls-9{fill:#dd2e44;}.cls-10{fill:#ffac33;}.cls-11{fill:none;}</style></defs><g id="Ebene_2" data-name="Ebene 2"><g id="Ebene_1-2" data-name="Ebene 1"><path class="cls-1" d="M47.64,47.29c0,7.45-8.06,12-18,12s-18-4.55-18-12,8.06-15,18-15S47.64,39.83,47.64,47.29Z"/><path class="cls-2" d="M43.4,38a6,6,0,0,0,2.24-4.67,5.74,5.74,0,0,0-1-3,5.86,5.86,0,0,0-5-3A6,6,0,0,0,33.79,32a11.71,11.71,0,0,0-8.3,0,5.87,5.87,0,0,0-10.85-1.71,5.59,5.59,0,0,0-1,3A6,6,0,0,0,15.89,38a13.57,13.57,0,0,0-4.25,9.33c0,7.45,8.06,1,18,1s18,6.45,18-1A13.6,13.6,0,0,0,43.4,38Z"/><circle class="cls-3" cx="19.14" cy="32.79" r="3.5"/><circle class="cls-4" cx="19.14" cy="32.79" r="1.5"/><circle class="cls-3" cx="40.14" cy="32.79" r="3.5"/><circle class="cls-4" cx="40.14" cy="32.79" r="1.5"/><circle class="cls-5" cx="25.64" cy="45.29" r="1"/><circle class="cls-5" cx="33.64" cy="45.29" r="1"/><path class="cls-6" d="M25.82,15.34,18.39,5.86l-3.72,9.48Z"/><path class="cls-6" d="M29.58,3.8,23,16.18H36.14Z"/><path class="cls-6" d="M33.47,15.34l7.42-9.48,3.73,9.48Z"/><path class="cls-7" d="M40.31,13.45,35.53,1.78,29.65,13.45h0L23.76,1.78,19,13.45a56,56,0,0,0-6-7.15,214.72,214.72,0,0,1,1.72,25h30a214.72,214.72,0,0,1,1.72-25A57,57,0,0,0,40.31,13.45Z"/><circle class="cls-5" cx="29.6" cy="20.26" r="3.69"/><circle class="cls-8" cx="38.11" cy="20.26" r="2.41"/><circle class="cls-9" cx="44.5" cy="20.26" r="1.99"/><circle class="cls-8" cx="21.09" cy="20.26" r="2.41"/><circle class="cls-9" cx="14.7" cy="20.26" r="1.99"/><path class="cls-10" d="M44.64,32.26h-30a1,1,0,0,1,0-2h30a1,1,0,1,1,0,2Zm0-3.48h-30a1,1,0,0,1,0-2h30a1,1,0,0,1,0,2Z"/><circle class="cls-7" cx="13.09" cy="6.3" r="1.41"/><circle class="cls-6" cx="18.39" cy="5.86" r="1.19"/><circle class="cls-7" cx="23.76" cy="1.78" r="1.78"/><circle class="cls-7" cx="46.2" cy="6.3" r="1.41"/><circle class="cls-6" cx="40.89" cy="5.86" r="1.19"/><circle class="cls-7" cx="35.53" cy="1.78" r="1.78"/><circle class="cls-6" cx="29.58" cy="3.8" r="1.78"/><rect class="cls-11" width="59.29" height="59.29"/></g></g></svg>