<?xml version="1.0" encoding="utf-8"?>
<!-- Generator: Adobe Illustrator 25.0.0, SVG Export Plug-In . SVG Version: 6.00 Build 0)  -->
<svg version="1.1" id="Ebene_1" xmlns="http://www.w3.org/2000/svg" xmlns:xlink="http://www.w3.org/1999/xlink" x="0px" y="0px"
	 viewBox="0 0 2000.7 2000.7" style="enable-background:new 0 0 2000.7 2000.7;" xml:space="preserve">
<style type="text/css">
	.st0{fill:#C6E5B3;}
	.st1{fill:#77B255;}
	.st2{fill:#5C913B;}
	.st3{fill:#466E2D;}
	.st4{fill:#77604F;}
	.st5{fill:#F8C09C;}
	.st6{fill:#FFFFFF;}
	.st7{fill:#292F33;}
	.st8{fill:#D2D7D6;}
</style>
<g id="Ebene_2_1_">
	<g id="Ebene_1-2">
		<path class="st0" d="M1870.1,1794.5H128.6c-95.9-7-163.2-110.3-109.6-210.9l73.3-106.2l0,0c150.5,0,369.8-135.2,907.3-135.2
			s760.2,134.4,907.3,134.4l63.3,91.6C2038.5,1661.5,1986.5,1782,1870.1,1794.5z"/>
		<path class="st1" d="M1907,1476.5c-147.1,0-369.8-134.3-907.3-134.3s-756.8,135.2-907.3,135.2l299.2-433.2
			c47.2-68.1,105.5-125.5,207.1-140.3h723.7c112.1-13.5,203.6,27.3,274.4,123.7L1907,1476.5z"/>
		<path class="st1" d="M1550.7,622.4l-309.8-138.9H758.4L448.9,622.4c3.4-40.5,14.9-81.5,35-123.1l212.1-319.7
			C862.1-14.1,1130.3-9,1292.7,167.1l208.5,308.3C1530,522.3,1546.8,571.3,1550.7,622.4z"/>
		<path class="st2" d="M1524.7,779.1l-215.6,431.1H691L478,785.7c-23.6-53.5-33.9-107.9-29.1-163.3l309.5-138.9h482.5l309.8,138.9
			C1554.6,672.5,1546.1,724.7,1524.7,779.1z"/>
		<circle class="st3" cx="747.8" cy="1126.2" r="62.9"/>
		<circle class="st3" cx="1252.4" cy="1126.2" r="62.9"/>
		<path class="st4" d="M1240.9,483.5v172.6c0,0-77.2,53.2-129.4,53.2s-64.7-33.1-111.5-33.1s-63.8,33.1-115,33.1
			s-126.7-53.2-126.7-53.2V483.5H1240.9z"/>
		<path class="st5" d="M1240.9,656.1v167.8c0,78.5-63.6,142.1-142.1,142.1c0,0,0,0,0,0H900.5c-78.5,0-142.1-63.6-142.1-142.1
			c0,0,0,0,0,0V656.1c0,0,75.5,53.2,126.7,53.2s68.2-33.1,115-33.1c46.8,0,59.3,33.1,111.5,33.1S1240.9,656.1,1240.9,656.1z"/>
		<circle class="st6" cx="763" cy="279.1" r="130.5"/>
		<circle class="st7" cx="763" cy="279.1" r="55.9"/>
		<circle class="st6" cx="1236.8" cy="279.1" r="130.5"/>
		<circle class="st7" cx="1236.8" cy="279.1" r="55.9"/>
		<rect x="448.8" y="1207.6" class="st8" width="1103.5" height="758.5"/>
	</g>
</g>
</svg>
