<?xml version="1.0" encoding="UTF-8" standalone="no"?>
<svg
   xmlns:dc="http://purl.org/dc/elements/1.1/"
   xmlns:cc="http://creativecommons.org/ns#"
   xmlns:rdf="http://www.w3.org/1999/02/22-rdf-syntax-ns#"
   xmlns:svg="http://www.w3.org/2000/svg"
   xmlns="http://www.w3.org/2000/svg"
   xmlns:sodipodi="http://sodipodi.sourceforge.net/DTD/sodipodi-0.dtd"
   xmlns:inkscape="http://www.inkscape.org/namespaces/inkscape"
   viewBox="0 0 45 45"
   style="enable-background:new 0 0 45 45;"
   xml:space="preserve"
   version="1.1"
   id="svg2"
   sodipodi:docname="frog_uwu.svg"
   inkscape:version="0.92.4 5da689c313, 2019-01-14"
   inkscape:export-xdpi="1919.99"
   inkscape:export-ydpi="1919.99"><sodipodi:namedview
     pagecolor="#ffffff"
     bordercolor="#666666"
     borderopacity="1"
     objecttolerance="10"
     gridtolerance="10"
     guidetolerance="10"
     inkscape:pageopacity="0"
     inkscape:pageshadow="2"
     inkscape:window-width="1920"
     inkscape:window-height="1027"
     id="namedview26"
     showgrid="false"
     inkscape:zoom="10.488889"
     inkscape:cx="14.074056"
     inkscape:cy="5.8860804"
     inkscape:window-x="1600"
     inkscape:window-y="53"
     inkscape:window-maximized="0"
     inkscape:current-layer="svg2" /><metadata
     id="metadata8"><rdf:RDF><cc:Work
         rdf:about=""><dc:format>image/svg+xml</dc:format><dc:type
           rdf:resource="http://purl.org/dc/dcmitype/StillImage" /><dc:title /></cc:Work></rdf:RDF></metadata><defs
     id="defs6"><inkscape:perspective
       sodipodi:type="inkscape:persp3d"
       inkscape:vp_x="0 : 22.5 : 1"
       inkscape:vp_y="0 : 1000 : 0"
       inkscape:vp_z="45 : 22.5 : 1"
       inkscape:persp3d-origin="22.5 : 15 : 1"
       id="perspective852" /><clipPath
       id="clipPath16"
       clipPathUnits="userSpaceOnUse"><path
         id="path18"
         d="M 0,36 36,36 36,0 0,0 0,36 Z" /></clipPath></defs><g
     transform="matrix(1.25,0,0,-1.25,0,45)"
     id="g10"><g
       transform="translate(36,14)"
       id="g20"><path
         id="path22"
         style="fill:#c6e5b3;fill-opacity:1;fill-rule:nonzero;stroke:none"
         d="m 0,0 c 0,-7.456 -8.059,-12 -18,-12 -9.941,0 -18,4.544 -18,12 0,7.456 8.059,15 18,15 C -8.059,15 0,7.456 0,0"
         inkscape:connector-curvature="0" /></g><g
       transform="translate(31.7549,23.3242)"
       id="g24"><path
         id="path26"
         style="fill:#77b255;fill-opacity:1;fill-rule:nonzero;stroke:none"
         d="m 0,0 c 1.368,1.1 2.245,2.785 2.245,4.676 0,3.313 -2.686,6 -6,6 -2.861,0 -5.25,-2.005 -5.85,-4.685 -1.289,0.483 -2.684,0.758 -4.15,0.758 -1.465,0 -2.861,-0.275 -4.149,-0.758 -0.601,2.68 -2.99,4.685 -5.851,4.685 -3.313,0 -6,-2.687 -6,-6 0,-1.891 0.878,-3.576 2.245,-4.676 -2.645,-2.68 -4.245,-6.009 -4.245,-9.324 0,-7.456 8.059,-1 18,-1 9.942,0 18,-6.456 18,1 C 4.245,-6.009 2.646,-2.68 0,0"
         inkscape:connector-curvature="0" /></g><g
       transform="translate(11,28.5)"
       id="g28"><path
         id="path30"
         style="fill:#ffffff;fill-opacity:1;fill-rule:nonzero;stroke:none"
         d="M 0,0 C 0,-1.933 -1.567,-3.5 -3.5,-3.5 -5.433,-3.5 -7,-1.933 -7,0 -7,1.933 -5.433,3.5 -3.5,3.5 -1.567,3.5 0,1.933 0,0"
         inkscape:connector-curvature="0" /></g><g
       transform="translate(9,28.5)"
       id="g32"><path
         id="path34"
         style="fill:#292f33;fill-opacity:1;fill-rule:nonzero;stroke:none"
         d="M 0,0 C 0,-0.829 -0.671,-1.5 -1.5,-1.5 -2.329,-1.5 -3,-0.829 -3,0 -3,0.829 -2.329,1.5 -1.5,1.5 -0.671,1.5 0,0.829 0,0"
         inkscape:connector-curvature="0" /></g><g
       transform="translate(32,28.5)"
       id="g36"><path
         id="path38"
         style="fill:#ffffff;fill-opacity:1;fill-rule:nonzero;stroke:none"
         d="M 0,0 C 0,-1.933 -1.566,-3.5 -3.5,-3.5 -5.434,-3.5 -7,-1.933 -7,0 -7,1.933 -5.434,3.5 -3.5,3.5 -1.566,3.5 0,1.933 0,0"
         inkscape:connector-curvature="0" /></g><g
       transform="translate(30,28.5)"
       id="g40"><path
         id="path42"
         style="fill:#292f33;fill-opacity:1;fill-rule:nonzero;stroke:none"
         d="M 0,0 C 0,-0.829 -0.672,-1.5 -1.5,-1.5 -2.328,-1.5 -3,-0.829 -3,0 -3,0.829 -2.328,1.5 -1.5,1.5 -0.672,1.5 0,0.829 0,0"
         inkscape:connector-curvature="0" /></g><g
       transform="translate(15,16)"
       id="g44"><path
         id="path46"
         style="fill:#5c913b;fill-opacity:1;fill-rule:nonzero;stroke:none"
         d="m 0,0 c 0,-0.553 -0.448,-1 -1,-1 -0.552,0 -1,0.447 -1,1 0,0.553 0.448,1 1,1 0.552,0 1,-0.447 1,-1"
         inkscape:connector-curvature="0" /></g><g
       transform="translate(23,16)"
       id="g48"><path
         id="path50"
         style="fill:#5c913b;fill-opacity:1;fill-rule:nonzero;stroke:none"
         d="m 0,0 c 0,-0.553 -0.447,-1 -1,-1 -0.553,0 -1,0.447 -1,1 0,0.553 0.447,1 1,1 0.553,0 1,-0.447 1,-1"
         inkscape:connector-curvature="0" /></g></g><path
     style="fill:#ff83ff;fill-opacity:1;stroke-width:2;stroke-miterlimit:4;stroke-dasharray:none"
     id="path1187"
     d="m 11.375629,24.747662 c -0.13917,0.02026 -0.276001,0.05331 -0.411218,0.09143 -0.07724,0.0331 -0.165436,0.04698 -0.238914,0.08665 -0.0921,0.05564 -0.196944,0.0889 -0.299595,0.11998 -0.120147,0.0029 -0.218434,0.05924 -0.325246,0.10453 -0.1168443,0.04517 -0.241526,0.06038 -0.3636929,0.08425 -0.1112737,0.02805 -0.2262633,0.02725 -0.3390721,0.04193 -0.1219411,0.0081 -0.2339398,0.0409 -0.3483355,0.08104 -0.086477,0.03438 -0.1833788,0.03656 -0.2652845,0.08098 -0.073967,0.0413 -0.1463193,0.08731 -0.2238411,0.121827 -0.082706,0.0375 -0.1662513,0.0744 -0.2516002,0.105716 -0.071034,0.02506 -0.1476987,0.02287 -0.2160449,0.05497 -0.066398,0.02883 -0.1324708,0.06156 -0.2015276,0.08383 -0.08992,0.03878 -0.1824812,0.07224 -0.2764801,0.09981 -0.1047242,0.02588 -0.1988041,0.0848 -0.2969522,0.128792 -0.1197397,0.05631 -0.2256577,0.136249 -0.3404865,0.200618 -0.08152,0.04604 -0.1663488,0.0841 -0.2488239,0.127788 -0.073718,0.02661 -0.1343472,0.07095 -0.1923567,0.122621 -0.074235,0.06751 -0.1627053,0.113399 -0.2487749,0.163186 -0.081751,0.04299 -0.1658643,0.08438 -0.2336443,0.147942 -0.064119,0.05159 -0.1273426,0.102782 -0.1900064,0.15616 -0.05774,0.03476 -0.09806,0.08594 -0.1444424,0.133072 -0.051039,0.04638 -0.089268,0.103844 -0.1389918,0.15174 -0.072445,0.05916 -0.1656996,0.07602 -0.2513343,0.107906 -0.091749,0.0271 -0.175023,0.06355 -0.2545464,0.115958 -0.1089046,0.05762 -0.2261623,0.09553 -0.3354916,0.152365 -0.084074,0.04195 -0.1649782,0.08995 -0.2454814,0.138219 -0.069229,0.07761 -0.151141,0.138352 -0.2371999,0.196314 -0.068075,0.04779 -0.1334229,0.09782 -0.2084559,0.134462 -0.086421,0.04099 -0.1556284,0.107429 -0.2303792,0.165357 -0.053358,0.04034 -0.028151,0.02124 -0.075633,0.0573 0,0 -1.4023548,-0.912569 -1.4023548,-0.912569 v 0 c 0.052134,-0.02044 0.025474,-0.0089 0.079786,-0.03506 0.056285,-0.03453 0.068302,-0.05779 0.113116,-0.10447 0.035629,-0.03711 0.036842,-0.02697 0.075697,-0.05362 0.013747,-0.0094 0.026346,-0.02043 0.039519,-0.03065 0.0319,-0.01907 0.071129,-0.02754 0.1009131,-0.04882 0.036702,-0.02622 0.070164,-0.05632 0.1095443,-0.07937 0.093599,-0.04518 0.1756825,-0.0931 0.2332423,-0.183415 0.082083,-0.0629 0.1728681,-0.111223 0.264097,-0.159144 0.1078872,-0.04537 0.2177638,-0.08791 0.3214264,-0.141662 0.049059,-0.026 0.08787,-0.06365 0.1351925,-0.0911 0.040464,-0.02347 0.092827,-0.0356 0.1370105,-0.04988 0.07003,-0.0257 0.1346993,-0.06667 0.2094165,-0.07354 0.061497,-0.02769 0.082479,-0.105084 0.1347817,-0.145411 0.032618,-0.01916 0.043571,-0.04431 0.068311,-0.07309 0.039396,-0.04584 0.017015,-0.01567 0.055781,-0.04496 0.010866,-0.0082 0.020466,-0.01797 0.030699,-0.02696 0.037079,-0.01864 0.055285,-0.0441 0.086668,-0.07104 0.047579,-0.04084 0.02177,-0.01347 0.068245,-0.03893 0.011232,-0.0062 0.021217,-0.01435 0.031826,-0.02152 0.027059,-0.02513 0.049918,-0.05489 0.078952,-0.07771 0.0543,-0.04267 0.1265941,-0.06068 0.181904,-0.102178 0.042902,-0.02196 0.078494,-0.0528 0.1208534,-0.07518 0.036974,-0.01953 0.076645,-0.02967 0.1040607,-0.06506 0.072477,-0.05589 0.1311378,-0.127385 0.2145431,-0.167206 0.042914,-0.01215 0.078708,-0.035 0.1201436,-0.05088 0.047792,-0.01832 0.099052,-0.02818 0.1419771,-0.05864 0.057813,-0.02173 0.1015259,-0.05197 0.1543978,-0.08334 0.091758,-0.05444 0.032441,-0.01395 0.1263375,-0.06178 0.021443,-0.01092 0.041716,-0.024 0.062575,-0.03601 0.095603,-0.07276 0.2050735,-0.120139 0.306865,-0.183443 0.085414,-0.01366 0.16095,-0.04587 0.2413254,-0.07538 0.061713,-0.03852 0.1335936,-0.06108 0.2021207,-0.08424 0.077152,-0.04043 0.1490539,-0.08087 0.2397458,-0.07775 0.080211,-0.01356 0.1491109,-0.0516 0.2258489,-0.07597 0.071722,-0.04487 0.1550862,-0.06996 0.2295845,-0.110639 0.032884,-0.02143 0.062263,-0.04861 0.097278,-0.06634 0.060881,-0.03083 0.1349532,-0.02964 0.2001406,-0.04386 0.06092,-0.01457 0.1191463,-0.0319 0.1774874,-0.05501 0.022839,-0.009 0.04433,-0.02184 0.068,-0.02842 0.037438,-0.0104 0.078441,-0.0024 0.1156188,-0.01485 0.039323,-0.0074 0.077693,-0.0198 0.1173245,-0.02525 0.073132,-0.01005 0.1499033,0.0034 0.2227847,-0.01314 0.1152419,-0.01728 0.2279983,-0.04484 0.3434907,-0.06041 0.1131208,-0.03491 0.2106555,-0.117856 0.3318879,-0.126117 0.091412,-0.01438 0.1784949,-0.04338 0.2619812,-0.08209 0.030017,-0.01981 0.056256,-0.04602 0.088873,-0.06117 0.012861,-0.006 0.02806,-0.0042 0.041921,-0.0072 0.053293,-0.01151 0.1040646,-0.03158 0.1555523,-0.04902 0.1305844,-0.02478 0.2622371,-0.05509 0.3875462,-0.09816 0,0 1.3798164,0.944973 1.3798164,0.944973 z"
     inkscape:connector-curvature="0" /><path
     style="fill:#ff83ff;fill-opacity:1;stroke-width:2;stroke-miterlimit:4;stroke-dasharray:none"
     id="path1191"
     d="m 9.5216058,21.740856 c -0.1378138,0.03533 -0.2664882,0.09863 -0.3970425,0.154043 -0.1137796,0.0474 -0.2339893,0.07726 -0.3538581,0.104801 -0.017783,0.0028 -0.036264,0.0027 -0.053349,0.0083 -0.022609,0.0075 -0.042526,0.02155 -0.064511,0.03071 -0.08418,0.03506 -0.1746176,0.05852 -0.2617005,0.08533 -0.086533,0.02797 -0.1598698,0.09009 -0.2334474,0.142833 -0.08683,0.05625 -0.1915511,0.07503 -0.2807124,0.125468 -0.086771,0.06081 -0.1808027,0.101719 -0.2818347,0.132163 -0.048085,0.01167 -0.088129,0.04565 -0.1393475,0.04605 -0.00716,5.5e-5 -0.012152,-0.0111 -0.019179,-0.0097 -0.038726,0.0077 -0.070064,0.03645 -0.104579,0.05562 -0.1180978,0.06056 -0.2370369,0.119058 -0.358151,0.173349 -0.1058971,0.04407 -0.2110789,0.0881 -0.3223061,0.116734 -0.094549,0.04049 -0.1863306,0.08719 -0.2732041,0.142263 -0.078334,0.0488 -0.1570577,0.09014 -0.2272843,0.150881 -0.071481,0.05244 -0.1405394,0.107792 -0.2068201,0.166724 -0.072996,0.07703 -0.1751889,0.104032 -0.2712222,0.139982 -0.082158,0.03083 -0.1459519,0.08769 -0.2101146,0.145459 -0.069311,0.07637 -0.1572187,0.129024 -0.2472476,0.177262 -0.09138,0.03129 -0.110442,0.04136 -0.1715302,0.115019 -0.058416,0.05999 -0.1198469,0.117418 -0.1895713,0.163787 -0.071146,0.02951 -0.1380086,0.04983 -0.1866391,0.111485 -0.071238,0.07688 -0.1477671,0.148372 -0.2193063,0.22492 -0.067492,0.07475 -0.1573268,0.119286 -0.2423113,0.169988 -0.084523,0.04548 -0.1588438,0.109226 -0.2349002,0.167787 -0.083493,0.07076 -0.1919283,0.09343 -0.2860917,0.143063 -0.070958,0.04565 -0.1340272,0.102953 -0.2091644,0.141695 -0.053078,0.0078 -0.08562,0.04408 -0.1332952,0.06981 -0.069045,0.01717 -0.1314171,0.04123 -0.1939223,0.07525 -0.062977,0.03355 -0.1344878,0.04126 -0.1986515,0.0715 -0.057691,0.03791 -0.1138434,0.07665 -0.1690521,0.117673 -0.062689,0.04257 -0.1374139,0.06252 -0.1991178,0.105792 -0.00864,-0.0059 -0.015461,-0.01809 -0.025928,-0.01775 -0.051479,0.0017 -0.1933681,0.100414 -0.2429842,0.130122 -0.039668,0.02123 -0.08072,0.0392 -0.1207567,0.05967 0,0 -1.39363414,-0.924035 -1.39363414,-0.924035 v 0 c 0.0418413,-0.01683 0.0802283,-0.04133 0.12521592,-0.04906 0.10578342,-0.04244 0.21160672,-0.103616 0.28558922,-0.190819 0.0042,0.0068 0.00503,0.01784 0.012599,0.02031 0.029051,0.0095 0.1175716,-0.02647 0.139263,-0.04984 0.030196,-0.01415 0.013605,-0.0047 0.048143,-0.03093 0.00808,-0.004 0.018484,-0.0012 0.026489,-0.0054 0.033888,-0.0175 0.064618,-0.04527 0.09881,-0.06296 0.062077,-0.05752 0.1306046,-0.093 0.2154629,-0.101467 0.068031,-0.02357 0.1216585,-0.08211 0.1950618,-0.08839 0.00929,-3.48e-4 0.020459,0.0061 0.027896,4.92e-4 0.010032,-0.0075 0.015403,-0.02028 0.025603,-0.02758 0.00574,-0.0041 0.014554,-0.0016 0.020492,-0.0054 0.096161,-0.06198 -0.017649,-0.0072 0.071747,-0.04709 0.00866,9.54e-4 0.041683,0.0059 0.050655,0.0017 0.013847,-0.0065 0.023555,-0.01961 0.036533,-0.02767 0.038647,-0.024 0.082512,-0.04001 0.1142305,-0.07523 0.034321,-0.01915 0.065504,-0.04437 0.1017461,-0.05956 0.057362,-0.02405 0.1267535,-0.01769 0.1724002,-0.06996 0.086971,-0.05286 0.1653194,-0.118306 0.2418317,-0.18506 0.076399,-0.03671 0.1495034,-0.07945 0.2217732,-0.123062 0.069265,-0.06819 0.1300382,-0.143355 0.2039852,-0.207105 0.023224,-0.03389 0.041027,-0.0719 0.068389,-0.102548 0.00887,-0.0099 0.022758,-0.0139 0.033687,-0.02152 0.03758,-0.02621 0.070425,-0.05586 0.1189678,-0.05734 0.064298,-0.01347 0.098541,-0.08193 0.1555093,-0.111354 0.064427,-0.06786 0.1142438,-0.164387 0.216549,-0.174417 0.083911,-0.0249 0.1640052,-0.06812 0.2251483,-0.130918 0.077687,-0.06289 0.1337187,-0.154859 0.2326541,-0.188078 0.080869,-0.04063 0.165409,-0.0522 0.2393459,-0.09762 0.045197,-0.04173 0.096872,-0.07592 0.1417629,-0.117836 0.013959,-0.01303 0.024198,-0.02991 0.039018,-0.04196 0.00923,-0.0075 0.02133,-0.01051 0.031995,-0.01577 0.078343,-0.0573 0.1473708,-0.126019 0.2387639,-0.16121 0.093828,-0.06395 0.1994864,-0.108713 0.2981557,-0.16443 0.075502,-0.03963 0.08726,-0.03051 0.1620665,-0.05362 0.080625,-0.0249 0.026296,-0.01168 0.1082549,-0.04336 0.01707,-0.0066 0.034815,-0.0113 0.052222,-0.01695 0.059314,-0.02435 0.1215195,-0.03847 0.1799359,-0.06486 0.1150846,-0.05199 0.00205,-0.0066 0.1182652,-0.07011 0.016598,-0.0091 0.035001,-0.01436 0.052501,-0.02153 0.056351,-0.03243 0.040236,-0.01953 0.090895,-0.06409 0.020405,-0.01795 0.036176,-0.0424 0.060349,-0.05481 0.025084,-0.01288 0.1018175,0.03939 0.1214897,-0.0047 0.046936,-0.01697 0.095275,-0.02202 0.1417076,-0.0389 0.046398,-0.01687 0.030705,-0.01876 0.077446,-0.04655 0.012833,-0.0076 0.026959,-0.01284 0.040439,-0.01926 0.033256,-0.02041 0.063156,-0.04672 0.098515,-0.06323 0.014709,-0.0069 0.031759,-0.0069 0.047339,-0.01141 0.044536,-0.01301 0.083184,-0.03747 0.1282489,-0.0483 0.096862,-0.05406 0.1831802,-0.122297 0.2789239,-0.177338 0.065764,-0.01238 0.1269225,-0.03089 0.1912523,-0.04861 0.033711,-0.0093 0.08966,-0.01689 0.120955,-0.03439 0.025637,-0.01434 0.047097,-0.03512 0.070646,-0.05267 0.116689,-0.01432 0.227316,-0.04878 0.3415348,-0.07481 0.1287627,-0.04432 0.2580052,-0.08962 0.3743173,-0.161819 0,0 1.38999,0.926313 1.38999,0.926313 z"
     inkscape:connector-curvature="0" /><path
     style="fill:#ff83ff;fill-opacity:1;stroke-width:2;stroke-miterlimit:4;stroke-dasharray:none"
     id="path1212"
     d="m 12.931545,27.026466 c -0.310129,0.03161 -0.599559,0.139554 -0.893273,0.234756 -0.204673,0.06402 -0.4118,0.124423 -0.613386,0.197669 -0.180531,0.09884 -0.374349,0.157132 -0.573906,0.201762 -0.193642,0.05021 -0.381086,0.119176 -0.574033,0.172143 -0.16725,0.08506 -0.3453874,0.142445 -0.519484,0.211422 -0.1496951,0.04608 -0.2858048,0.122011 -0.4202665,0.200563 -0.1310293,0.09139 -0.2848737,0.137464 -0.4250564,0.211591 -0.126478,0.09408 -0.2796144,0.126423 -0.4245965,0.17879 -0.1499862,0.04254 -0.2857785,0.119777 -0.4271669,0.183228 -0.1773683,0.0818 -0.3403993,0.191705 -0.5040271,0.297637 -0.2489681,0.145824 -0.4698085,0.329481 -0.7376613,0.439379 -0.2173783,0.0929 -0.4246736,0.206964 -0.6303586,0.322977 -0.1626132,0.08937 -0.3349296,0.16586 -0.5116538,0.223256 -0.1362526,0.04025 -0.2647904,0.103243 -0.3770817,0.19019 -0.058667,0.05384 -0.1246167,0.09862 -0.1882076,0.146263 0,0 -1.4969445,-0.942854 -1.4969445,-0.942854 v 0 c 0.060471,-0.04879 0.125756,-0.08605 0.1843987,-0.137002 0.1221091,-0.1164 0.2659528,-0.197793 0.4248174,-0.253993 0.172411,-0.03774 0.3322332,-0.111685 0.4917254,-0.184665 0.2154432,-0.12112 0.4472939,-0.213231 0.6638859,-0.333129 0.2637656,-0.08802 0.4825243,-0.261715 0.7237211,-0.397008 0.1626712,-0.12217 0.2976902,-0.273957 0.4911911,-0.351832 0.1478208,-0.05364 0.2739251,-0.151907 0.4261971,-0.19264 0.049219,-0.01775 0.096129,-0.04195 0.1461975,-0.05714 0.088077,-0.02672 0.182695,-0.0289 0.2575476,-0.09209 0.133466,-0.0908 0.2880582,-0.126685 0.4273555,-0.205638 0.1364459,-0.09499 0.283649,-0.182788 0.4445701,-0.228324 0.1798143,-0.06605 0.3654913,-0.115993 0.5298764,-0.217517 0.19025,-0.06626 0.3896767,-0.10771 0.5784605,-0.179045 0.1847709,-0.05509 0.3836483,-0.06594 0.5498831,-0.175422 0.1947705,-0.11403 0.4427995,-0.129679 0.6556965,-0.202886 0.292202,-0.08385 0.575324,-0.196201 0.87348,-0.259284 0,0 1.448099,0.998841 1.448099,0.998841 z"
     inkscape:connector-curvature="0" /><path
     style="fill:#ff83ff;fill-opacity:1;stroke-width:2;stroke-miterlimit:4;stroke-dasharray:none"
     id="path1187-7"
     d="m 33.864358,24.388474 c 0.13917,0.02026 0.276001,0.05331 0.411218,0.09143 0.07724,0.0331 0.165436,0.04698 0.238915,0.08665 0.0921,0.05564 0.196944,0.0889 0.299595,0.11998 0.120147,0.0029 0.218434,0.05924 0.325246,0.10453 0.116844,0.04517 0.241526,0.06038 0.363693,0.08425 0.111273,0.02805 0.226263,0.02725 0.339072,0.04193 0.121941,0.0081 0.233939,0.0409 0.348335,0.08104 0.08648,0.03438 0.183379,0.03656 0.265285,0.08098 0.07397,0.0413 0.146319,0.08731 0.223841,0.121827 0.08271,0.0375 0.166251,0.0744 0.2516,0.105716 0.07103,0.02506 0.147699,0.02287 0.216045,0.05497 0.0664,0.02883 0.132471,0.06156 0.201527,0.08383 0.08992,0.03878 0.182482,0.07224 0.276481,0.09981 0.104724,0.02588 0.198804,0.0848 0.296952,0.128792 0.119739,0.05631 0.225657,0.136249 0.340486,0.200618 0.08152,0.04604 0.166349,0.0841 0.248824,0.127788 0.07372,0.02661 0.134347,0.07095 0.192357,0.122621 0.07423,0.06751 0.162705,0.113399 0.248775,0.163186 0.08175,0.04299 0.165864,0.08438 0.233644,0.147942 0.06412,0.05159 0.127343,0.102782 0.190006,0.15616 0.05774,0.03476 0.09806,0.08594 0.144443,0.133072 0.05104,0.04638 0.08927,0.103844 0.138992,0.15174 0.07245,0.05916 0.165699,0.07602 0.251334,0.107906 0.09175,0.0271 0.175023,0.06355 0.254546,0.115958 0.108905,0.05762 0.226163,0.09553 0.335492,0.152365 0.08407,0.04195 0.164978,0.08995 0.245481,0.138219 0.06923,0.07761 0.151141,0.138352 0.2372,0.196314 0.06808,0.04779 0.133423,0.09782 0.208456,0.134462 0.08642,0.04099 0.155629,0.107429 0.230379,0.165357 0.05336,0.04034 0.02815,0.02124 0.07563,0.0573 0,0 1.402355,-0.912569 1.402355,-0.912569 v 0 c -0.05213,-0.02044 -0.02547,-0.0089 -0.07979,-0.03506 -0.05629,-0.03453 -0.0683,-0.05779 -0.113116,-0.10447 -0.03563,-0.03711 -0.03684,-0.02697 -0.0757,-0.05362 -0.01375,-0.0094 -0.02635,-0.02043 -0.03952,-0.03065 -0.0319,-0.01907 -0.07113,-0.02754 -0.100913,-0.04882 -0.0367,-0.02622 -0.07016,-0.05632 -0.109544,-0.07937 -0.0936,-0.04518 -0.175683,-0.0931 -0.233243,-0.183415 -0.08208,-0.0629 -0.172868,-0.111223 -0.264097,-0.159144 -0.107887,-0.04537 -0.217763,-0.08791 -0.321426,-0.141662 -0.04906,-0.026 -0.08787,-0.06365 -0.135192,-0.0911 -0.04046,-0.02347 -0.09283,-0.0356 -0.137011,-0.04988 -0.07003,-0.0257 -0.134699,-0.06667 -0.209416,-0.07354 -0.0615,-0.02769 -0.08248,-0.105084 -0.134782,-0.145411 -0.03262,-0.01916 -0.04357,-0.04431 -0.06831,-0.07309 -0.0394,-0.04584 -0.01702,-0.01567 -0.05578,-0.04496 -0.01087,-0.0082 -0.02047,-0.01797 -0.0307,-0.02696 -0.03708,-0.01864 -0.05529,-0.0441 -0.08667,-0.07104 -0.04758,-0.04084 -0.02177,-0.01347 -0.06824,-0.03893 -0.01123,-0.0062 -0.02122,-0.01435 -0.03183,-0.02152 -0.02706,-0.02513 -0.04992,-0.05489 -0.07895,-0.07771 -0.0543,-0.04267 -0.126594,-0.06068 -0.181904,-0.102178 -0.0429,-0.02196 -0.07849,-0.0528 -0.120854,-0.07518 -0.03697,-0.01953 -0.07664,-0.02967 -0.10406,-0.06506 -0.07248,-0.05589 -0.131138,-0.127385 -0.214543,-0.167206 -0.04291,-0.01215 -0.07871,-0.035 -0.120144,-0.05088 -0.04779,-0.01832 -0.09905,-0.02818 -0.141977,-0.05864 -0.05781,-0.02173 -0.101526,-0.05197 -0.154398,-0.08334 -0.09176,-0.05444 -0.03244,-0.01395 -0.126337,-0.06178 -0.02144,-0.01092 -0.04172,-0.024 -0.06257,-0.03601 -0.0956,-0.07276 -0.205074,-0.120139 -0.306865,-0.183443 -0.08541,-0.01366 -0.16095,-0.04587 -0.241326,-0.07538 -0.06171,-0.03852 -0.133593,-0.06108 -0.20212,-0.08424 -0.07715,-0.04043 -0.149054,-0.08087 -0.239746,-0.07775 -0.08021,-0.01356 -0.149111,-0.0516 -0.225849,-0.07597 -0.07172,-0.04487 -0.155086,-0.06996 -0.229585,-0.110639 -0.03288,-0.02143 -0.06226,-0.04861 -0.09728,-0.06634 -0.06088,-0.03083 -0.134953,-0.02964 -0.20014,-0.04386 -0.06092,-0.01457 -0.119147,-0.0319 -0.177488,-0.05501 -0.02284,-0.009 -0.04433,-0.02184 -0.068,-0.02842 -0.03744,-0.0104 -0.07844,-0.0024 -0.115618,-0.01485 -0.03932,-0.0074 -0.07769,-0.0198 -0.117325,-0.02525 -0.07313,-0.01005 -0.149903,0.0034 -0.222785,-0.01314 -0.115242,-0.01728 -0.227998,-0.04484 -0.34349,-0.06041 -0.113121,-0.03491 -0.210656,-0.117856 -0.331888,-0.126117 -0.09141,-0.01438 -0.178495,-0.04338 -0.261981,-0.08209 -0.03002,-0.01981 -0.05626,-0.04602 -0.08887,-0.06117 -0.01286,-0.006 -0.02806,-0.0042 -0.04192,-0.0072 -0.05329,-0.01151 -0.104065,-0.03158 -0.155553,-0.04902 -0.130584,-0.02478 -0.262237,-0.05509 -0.387546,-0.09816 0,0 -1.379817,0.944973 -1.379817,0.944973 z"
     inkscape:connector-curvature="0" /><path
     style="fill:#ff83ff;fill-opacity:1;stroke-width:2;stroke-miterlimit:4;stroke-dasharray:none"
     id="path1191-5"
     d="m 35.718382,21.381668 c 0.137814,0.03533 0.266488,0.09863 0.397042,0.154043 0.11378,0.0474 0.23399,0.07726 0.353858,0.104801 0.01778,0.0028 0.03626,0.0027 0.05335,0.0083 0.02261,0.0075 0.04253,0.02155 0.06451,0.03071 0.08418,0.03506 0.174618,0.05852 0.261701,0.08533 0.08653,0.02797 0.15987,0.09009 0.233447,0.142833 0.08683,0.05625 0.191551,0.07503 0.280713,0.125468 0.08677,0.06081 0.180802,0.101719 0.281834,0.132163 0.04809,0.01167 0.08813,0.04565 0.139348,0.04605 0.0072,5.5e-5 0.01215,-0.0111 0.01918,-0.0097 0.03873,0.0077 0.07006,0.03645 0.104579,0.05562 0.118098,0.06056 0.237037,0.119058 0.358151,0.173349 0.105897,0.04407 0.211079,0.0881 0.322306,0.116734 0.09455,0.04049 0.186331,0.08719 0.273204,0.142263 0.07833,0.0488 0.157058,0.09014 0.227284,0.150881 0.07148,0.05244 0.14054,0.107792 0.206821,0.166724 0.073,0.07703 0.175188,0.104032 0.271222,0.139982 0.08216,0.03083 0.145952,0.08769 0.210114,0.145459 0.06931,0.07637 0.157219,0.129024 0.247248,0.177262 0.09138,0.03129 0.110442,0.04136 0.17153,0.115019 0.05842,0.05999 0.119847,0.117418 0.189571,0.163787 0.07115,0.02951 0.138009,0.04983 0.18664,0.111485 0.07124,0.07688 0.147767,0.148372 0.219306,0.22492 0.06749,0.07475 0.157327,0.119286 0.242311,0.169988 0.08452,0.04548 0.158844,0.109226 0.2349,0.167787 0.08349,0.07076 0.191929,0.09343 0.286092,0.143063 0.07096,0.04565 0.134027,0.102953 0.209164,0.141695 0.05308,0.0078 0.08562,0.04408 0.133296,0.06981 0.06904,0.01717 0.131417,0.04123 0.193922,0.07525 0.06298,0.03355 0.134488,0.04126 0.198651,0.0715 0.05769,0.03791 0.113844,0.07665 0.169053,0.117673 0.06269,0.04257 0.137413,0.06252 0.199117,0.105792 0.0086,-0.0059 0.01546,-0.01809 0.02593,-0.01775 0.05148,0.0017 0.193368,0.100414 0.242985,0.130122 0.03967,0.02123 0.08072,0.0392 0.120756,0.05967 0,0 1.393634,-0.924035 1.393634,-0.924035 v 0 c -0.04184,-0.01683 -0.08023,-0.04133 -0.125216,-0.04906 -0.105783,-0.04244 -0.211607,-0.103616 -0.285589,-0.190819 -0.0042,0.0068 -0.005,0.01784 -0.0126,0.02031 -0.02905,0.0095 -0.117572,-0.02647 -0.139263,-0.04984 -0.0302,-0.01415 -0.0136,-0.0047 -0.04814,-0.03093 -0.0081,-0.004 -0.01848,-0.0012 -0.02649,-0.0054 -0.03389,-0.0175 -0.06462,-0.04527 -0.09881,-0.06296 -0.06208,-0.05752 -0.130604,-0.093 -0.215463,-0.101467 -0.06803,-0.02357 -0.121658,-0.08211 -0.195061,-0.08839 -0.0093,-3.48e-4 -0.02046,0.0061 -0.0279,4.92e-4 -0.01003,-0.0075 -0.0154,-0.02028 -0.0256,-0.02758 -0.0057,-0.0041 -0.01455,-0.0016 -0.02049,-0.0054 -0.09616,-0.06198 0.01765,-0.0072 -0.07175,-0.04709 -0.0087,9.54e-4 -0.04168,0.0059 -0.05066,0.0017 -0.01385,-0.0065 -0.02355,-0.01961 -0.03653,-0.02767 -0.03865,-0.024 -0.08251,-0.04001 -0.11423,-0.07523 -0.03432,-0.01915 -0.0655,-0.04437 -0.101746,-0.05956 -0.05736,-0.02405 -0.126754,-0.01769 -0.1724,-0.06996 -0.08697,-0.05286 -0.16532,-0.118306 -0.241832,-0.18506 -0.0764,-0.03671 -0.149503,-0.07945 -0.221773,-0.123062 -0.06927,-0.06819 -0.130038,-0.143355 -0.203985,-0.207105 -0.02322,-0.03389 -0.04103,-0.0719 -0.06839,-0.102548 -0.0089,-0.0099 -0.02276,-0.0139 -0.03369,-0.02152 -0.03758,-0.02621 -0.07043,-0.05586 -0.118968,-0.05734 -0.0643,-0.01347 -0.09854,-0.08193 -0.155509,-0.111354 -0.06443,-0.06786 -0.114244,-0.164387 -0.216549,-0.174417 -0.08391,-0.0249 -0.164006,-0.06812 -0.225149,-0.130918 -0.07769,-0.06289 -0.133718,-0.154859 -0.232654,-0.188078 -0.08087,-0.04063 -0.165409,-0.0522 -0.239346,-0.09762 -0.0452,-0.04173 -0.09687,-0.07592 -0.141762,-0.117836 -0.01396,-0.01303 -0.0242,-0.02991 -0.03902,-0.04196 -0.0092,-0.0075 -0.02133,-0.01051 -0.032,-0.01577 -0.07834,-0.0573 -0.14737,-0.126019 -0.238764,-0.16121 -0.09383,-0.06395 -0.199486,-0.108713 -0.298155,-0.16443 -0.0755,-0.03963 -0.08726,-0.03051 -0.162067,-0.05362 -0.08062,-0.0249 -0.0263,-0.01168 -0.108255,-0.04336 -0.01707,-0.0066 -0.03482,-0.0113 -0.05222,-0.01695 -0.05931,-0.02435 -0.121519,-0.03847 -0.179936,-0.06486 -0.115084,-0.05199 -0.0021,-0.0066 -0.118265,-0.07011 -0.0166,-0.0091 -0.035,-0.01436 -0.0525,-0.02153 -0.05635,-0.03243 -0.04024,-0.01953 -0.0909,-0.06409 -0.0204,-0.01795 -0.03618,-0.0424 -0.06035,-0.05481 -0.02508,-0.01288 -0.101817,0.03939 -0.121489,-0.0047 -0.04694,-0.01697 -0.09528,-0.02202 -0.141708,-0.0389 -0.0464,-0.01687 -0.0307,-0.01876 -0.07745,-0.04655 -0.01283,-0.0076 -0.02696,-0.01284 -0.04044,-0.01926 -0.03326,-0.02041 -0.06316,-0.04672 -0.09852,-0.06323 -0.01471,-0.0069 -0.03176,-0.0069 -0.04734,-0.01141 -0.04454,-0.01301 -0.08318,-0.03747 -0.128249,-0.0483 -0.09686,-0.05406 -0.18318,-0.122297 -0.278924,-0.177338 -0.06576,-0.01238 -0.126922,-0.03089 -0.191252,-0.04861 -0.03371,-0.0093 -0.08966,-0.01689 -0.120955,-0.03439 -0.02564,-0.01434 -0.0471,-0.03512 -0.07065,-0.05267 -0.116689,-0.01432 -0.227316,-0.04878 -0.341535,-0.07481 -0.128763,-0.04432 -0.258005,-0.08962 -0.374317,-0.161819 0,0 -1.38999,0.926313 -1.38999,0.926313 z"
     inkscape:connector-curvature="0" /><path
     style="fill:#ff83ff;fill-opacity:1;stroke-width:2;stroke-miterlimit:4;stroke-dasharray:none"
     id="path1212-3"
     d="m 32.308442,26.667278 c 0.310129,0.03161 0.599559,0.139554 0.893273,0.234756 0.204673,0.06402 0.4118,0.124423 0.613386,0.197669 0.180531,0.09884 0.374349,0.157132 0.573906,0.201762 0.193643,0.05021 0.381087,0.119176 0.574034,0.172143 0.16725,0.08506 0.345387,0.142445 0.519484,0.211422 0.149695,0.04608 0.285804,0.122011 0.420266,0.200563 0.131029,0.09139 0.284874,0.137464 0.425057,0.211591 0.126478,0.09408 0.279614,0.126423 0.424596,0.17879 0.149986,0.04254 0.285779,0.119777 0.427167,0.183228 0.177368,0.0818 0.340399,0.191705 0.504027,0.297637 0.248968,0.145824 0.469809,0.329481 0.737661,0.439379 0.217379,0.0929 0.424674,0.206964 0.630359,0.322977 0.162613,0.08937 0.33493,0.16586 0.511654,0.223256 0.136252,0.04025 0.26479,0.103243 0.377081,0.19019 0.05867,0.05384 0.124617,0.09862 0.188208,0.146263 0,0 1.496945,-0.942854 1.496945,-0.942854 v 0 C 41.565075,29.08726 41.49979,29.05 41.441147,28.999048 c -0.122109,-0.1164 -0.265953,-0.197793 -0.424818,-0.253993 -0.172411,-0.03774 -0.332233,-0.111685 -0.491725,-0.184665 -0.215443,-0.12112 -0.447294,-0.213231 -0.663886,-0.333129 -0.263765,-0.08802 -0.482524,-0.261715 -0.723721,-0.397008 -0.162671,-0.12217 -0.29769,-0.273957 -0.491191,-0.351832 -0.147821,-0.05364 -0.273925,-0.151907 -0.426197,-0.19264 -0.04922,-0.01775 -0.09613,-0.04195 -0.146198,-0.05714 -0.08808,-0.02672 -0.182695,-0.0289 -0.257547,-0.09209 -0.133466,-0.0908 -0.288058,-0.126685 -0.427356,-0.205638 -0.136446,-0.09499 -0.283649,-0.182788 -0.44457,-0.228324 -0.179814,-0.06605 -0.365491,-0.115993 -0.529876,-0.217517 -0.19025,-0.06626 -0.389677,-0.10771 -0.578461,-0.179045 -0.184771,-0.05509 -0.383648,-0.06594 -0.549883,-0.175422 -0.19477,-0.11403 -0.442799,-0.129679 -0.655696,-0.202886 -0.292203,-0.08385 -0.575325,-0.196201 -0.873481,-0.259284 0,0 -1.448099,0.998841 -1.448099,0.998841 z"
     inkscape:connector-curvature="0" /></svg>