<?xml version="1.0" encoding="UTF-8" standalone="no"?>
<svg
   xmlns:dc="http://purl.org/dc/elements/1.1/"
   xmlns:cc="http://creativecommons.org/ns#"
   xmlns:rdf="http://www.w3.org/1999/02/22-rdf-syntax-ns#"
   xmlns:svg="http://www.w3.org/2000/svg"
   xmlns="http://www.w3.org/2000/svg"
   xmlns:sodipodi="http://sodipodi.sourceforge.net/DTD/sodipodi-0.dtd"
   xmlns:inkscape="http://www.inkscape.org/namespaces/inkscape"
   viewBox="0 0 45 45"
   style="enable-background:new 0 0 45 45;"
   xml:space="preserve"
   version="1.1"
   id="svg2"
   sodipodi:docname="frog_mask.svg"
   inkscape:version="0.92.4 5da689c313, 2019-01-14"
   inkscape:export-filename="/home/stefan/bitmap.png"
   inkscape:export-xdpi="1092.2897"
   inkscape:export-ydpi="1092.2897"><sodipodi:namedview
     pagecolor="#ffffff"
     bordercolor="#666666"
     borderopacity="1"
     objecttolerance="10"
     gridtolerance="10"
     guidetolerance="10"
     inkscape:pageopacity="0"
     inkscape:pageshadow="2"
     inkscape:window-width="1920"
     inkscape:window-height="1030"
     id="namedview4606"
     showgrid="false"
     inkscape:zoom="11.313709"
     inkscape:cx="5.2978686"
     inkscape:cy="9.2211393"
     inkscape:window-x="0"
     inkscape:window-y="50"
     inkscape:window-maximized="0"
     inkscape:current-layer="svg2"
     inkscape:pagecheckerboard="true" /><metadata
     id="metadata8"><rdf:RDF><cc:Work
         rdf:about=""><dc:format>image/svg+xml</dc:format><dc:type
           rdf:resource="http://purl.org/dc/dcmitype/StillImage" /><dc:title></dc:title></cc:Work></rdf:RDF></metadata><defs
     id="defs6"><clipPath
       id="clipPath16"
       clipPathUnits="userSpaceOnUse"><path
         id="path18"
         d="M 0,36 36,36 36,0 0,0 0,36 Z" /></clipPath></defs><g
     transform="matrix(1.25,0,0,-1.25,0,45)"
     id="g10"><g
       id="g12"><g
         clip-path="url(#clipPath16)"
         id="g14"><g
           transform="translate(36,14)"
           id="g20"><path
             id="path22"
             style="fill:#c6e5b3;fill-opacity:1;fill-rule:nonzero;stroke:none"
             d="m 0,0 c 0,-7.456 -8.059,-12 -18,-12 -9.941,0 -18,4.544 -18,12 0,7.456 8.059,15 18,15 C -8.059,15 0,7.456 0,0" /></g><g
           transform="translate(31.7549,23.3242)"
           id="g24"><path
             id="path26"
             style="fill:#77b255;fill-opacity:1;fill-rule:nonzero;stroke:none"
             d="m 0,0 c 1.368,1.1 2.245,2.785 2.245,4.676 0,3.313 -2.686,6 -6,6 -2.861,0 -5.25,-2.005 -5.85,-4.685 -1.289,0.483 -2.684,0.758 -4.15,0.758 -1.465,0 -2.861,-0.275 -4.149,-0.758 -0.601,2.68 -2.99,4.685 -5.851,4.685 -3.313,0 -6,-2.687 -6,-6 0,-1.891 0.878,-3.576 2.245,-4.676 -2.645,-2.68 -4.245,-6.009 -4.245,-9.324 0,-7.456 8.059,-1 18,-1 9.942,0 18,-6.456 18,1 C 4.245,-6.009 2.646,-2.68 0,0" /></g><g
           transform="translate(11,28.5)"
           id="g28"><path
             id="path30"
             style="fill:#ffffff;fill-opacity:1;fill-rule:nonzero;stroke:none"
             d="M 0,0 C 0,-1.933 -1.567,-3.5 -3.5,-3.5 -5.433,-3.5 -7,-1.933 -7,0 -7,1.933 -5.433,3.5 -3.5,3.5 -1.567,3.5 0,1.933 0,0" /></g><g
           transform="translate(9,28.5)"
           id="g32"><path
             id="path34"
             style="fill:#292f33;fill-opacity:1;fill-rule:nonzero;stroke:none"
             d="M 0,0 C 0,-0.829 -0.671,-1.5 -1.5,-1.5 -2.329,-1.5 -3,-0.829 -3,0 -3,0.829 -2.329,1.5 -1.5,1.5 -0.671,1.5 0,0.829 0,0" /></g><g
           transform="translate(32,28.5)"
           id="g36"><path
             id="path38"
             style="fill:#ffffff;fill-opacity:1;fill-rule:nonzero;stroke:none"
             d="M 0,0 C 0,-1.933 -1.566,-3.5 -3.5,-3.5 -5.434,-3.5 -7,-1.933 -7,0 -7,1.933 -5.434,3.5 -3.5,3.5 -1.566,3.5 0,1.933 0,0" /></g><g
           transform="translate(30,28.5)"
           id="g40"><path
             id="path42"
             style="fill:#292f33;fill-opacity:1;fill-rule:nonzero;stroke:none"
             d="M 0,0 C 0,-0.829 -0.672,-1.5 -1.5,-1.5 -2.328,-1.5 -3,-0.829 -3,0 -3,0.829 -2.328,1.5 -1.5,1.5 -0.672,1.5 0,0.829 0,0" /></g><g
           transform="translate(15,16)"
           id="g44"><path
             id="path46"
             style="fill:#5c913b;fill-opacity:1;fill-rule:nonzero;stroke:none"
             d="m 0,0 c 0,-0.553 -0.448,-1 -1,-1 -0.552,0 -1,0.447 -1,1 0,0.553 0.448,1 1,1 0.552,0 1,-0.447 1,-1" /></g><g
           transform="translate(23,16)"
           id="g48"><path
             id="path50"
             style="fill:#5c913b;fill-opacity:1;fill-rule:nonzero;stroke:none"
             d="m 0,0 c 0,-0.553 -0.447,-1 -1,-1 -0.553,0 -1,0.447 -1,1 0,0.553 0.447,1 1,1 0.553,0 1,-0.447 1,-1" /></g></g></g></g><g
     transform="matrix(1.25,0,0,-1.25,45,27.588388)"
     id="g4668"><path
       style="fill:#87d6f6;fill-opacity:1;fill-rule:nonzero;stroke:none;stroke-width:1.00250936"
       d="M -0.94536213,4.6050467 -8.966092,0.96924742 V 2.0612385 c 0,0.5526914 -0.2247814,1.0533803 -0.5881452,1.4158346 -0.3633638,0.3624534 -0.8653108,0.5866708 -1.4193898,0.5866708 h -14.052746 c -0.554079,0 -1.056026,-0.2242174 -1.41939,-0.5866708 -0.363363,-0.3624543 -0.588145,-0.8631432 -0.588145,-1.4158346 V 0.96924742 l -8.02073,3.63579928 c -0.005,-0.011542 -0.01071,-0.022869 -0.01568,-0.034419 -0.114055,-0.2659311 -0.229621,-0.5313656 -0.324657,-0.8010021 -0.01255,-0.035492 -0.02542,-0.070833 -0.03764,-0.1063835 -0.08913,-0.260244 -0.157925,-0.5229367 -0.228984,-0.785357 l 8.627695,-3.911143 V -5.585829 l -8.009751,1.4533816 c 0.398107,-0.8168067 0.899715,-1.578527 1.519766,-2.2794151 l 6.489985,-1.1764719 v -1.3642068 c 0,-0.5526915 0.224782,-1.0533808 0.588145,-1.4158338 0.363364,-0.362453 0.865311,-0.586672 1.41939,-0.586672 h 14.052746 c 0.554079,0 1.056026,0.224219 1.4193898,0.586672 0.3633638,0.362453 0.5881452,0.8631423 0.5881452,1.4158338 v 1.3642068 l 6.4915527,1.1796015 c 0.6195052,0.7007046 1.1220258,1.4613427 1.51976666,2.2778499 L -8.966092,-5.5858291 v 4.5525711 l 8.62769606,3.9111438 c -0.0710587,0.2624203 -0.13985774,0.525113 -0.22898507,0.785357 -0.0123745,0.036013 -0.0249176,0.071994 -0.0376373,0.1079478 -0.0920784,0.2611484 -0.20375036,0.5182885 -0.31367737,0.7759709 -0.008327,0.019464 -0.0182686,0.038448 -0.0266601,0.057888 z"
       id="path4783"
       inkscape:connector-curvature="0" /><rect
       style="opacity:0.98999999;fill:#43bdea;fill-opacity:1;stroke-width:0.55359137"
       id="rect4793"
       width="13.6"
       height="2.3333328"
       x="-24.799999"
       y="-0.17904297"
       transform="scale(1,-1)"
       rx="1.2"
       ry="1.2" /><rect
       ry="1.2"
       rx="1.2"
       transform="scale(1,-1)"
       y="4.3709569"
       x="-24.799999"
       height="2.3333328"
       width="13.6"
       id="rect4795"
       style="opacity:0.98999999;fill:#43bdea;fill-opacity:1;stroke-width:0.55359137" /></g><g
     transform="matrix(1.25,0,0,-1.25,39.693625,15.84475)"
     id="g4672" /><path
     style="fill:#1089bb;fill-opacity:1;fill-rule:nonzero;stroke:none;stroke-width:0.087242"
     d="M 30.265625 37.548828 C 29.976593 37.548828 29.742188 37.783234 29.742188 38.072266 C 29.742188 38.237241 29.818241 38.384503 29.9375 38.480469 C 29.92824 38.489851 29.924979 38.502158 29.916016 38.511719 C 29.817248 38.617025 29.735837 38.72992 29.677734 38.851562 C 29.67015 38.867325 29.665026 38.882496 29.658203 38.898438 C 29.60351 39.026966 29.568359 39.161265 29.568359 39.294922 C 29.568359 39.945398 30.271399 40.341797 31.138672 40.341797 C 32.005945 40.341797 32.708984 39.945398 32.708984 39.294922 C 32.708984 39.161265 32.671881 39.026966 32.617188 38.898438 C 32.61037 38.882505 32.605235 38.867316 32.597656 38.851562 C 32.539553 38.72992 32.458142 38.617025 32.359375 38.511719 C 32.350409 38.502158 32.347154 38.489851 32.337891 38.480469 C 32.457238 38.384499 32.533203 38.237241 32.533203 38.072266 C 32.533203 37.783234 32.298886 37.548828 32.009766 37.548828 C 31.760167 37.548828 31.552345 37.725176 31.5 37.958984 C 31.387545 37.916844 31.266569 37.892578 31.138672 37.892578 C 31.010863 37.892578 30.887759 37.916844 30.775391 37.958984 C 30.722961 37.725176 30.515225 37.548828 30.265625 37.548828 z "
     id="path4799" /></svg>