<?xml version="1.0" encoding="utf-8"?>
<!-- Generator: Adobe Illustrator 25.0.0, SVG Export Plug-In . SVG Version: 6.00 Build 0)  -->
<svg version="1.1" id="Ebene_1" xmlns="http://www.w3.org/2000/svg" xmlns:xlink="http://www.w3.org/1999/xlink" x="0px" y="0px"
	 viewBox="0 0 36 36" style="enable-background:new 0 0 36 36;" xml:space="preserve">
<style type="text/css">
	.st0{fill:#C6E5B3;}
	.st1{fill:#77B255;}
	.st2{fill:#FFFFFF;}
	.st3{fill:#292F33;}
	.st4{fill:#D99E82;}
	.st5{fill:#F4C7B5;}
</style>
<g>
	<path class="st0" d="M36,21.8c0,7.5-8.1,12-18,12s-18-4.5-18-12s8.1-15,18-15S36,14.4,36,21.8z"/>
	<path class="st1" d="M31.8,12.5c2.6-2.1,3-5.8,0.9-8.4c-2.1-2.6-5.8-3-8.4-0.9c-1.1,0.9-1.8,2-2.1,3.4c-2.7-1-5.6-1-8.3,0
		c-0.6-3.3-3.8-5.4-7-4.8s-5.4,3.8-4.8,7c0,0.1,0.1,0.2,0.1,0.4c0.3,1.3,1,2.5,2.1,3.4c-2.6,2.4-4.1,5.8-4.2,9.3c0,7.5,8.1,1,18,1
		s18,6.5,18-1C35.9,18.3,34.3,14.9,31.8,12.5z"/>
	<g>
		<circle class="st2" cx="7.5" cy="7.3" r="3.5"/>
		<circle class="st3" cx="7.5" cy="7.3" r="1.5"/>
	</g>
	<g>
		<circle class="st2" cx="28.5" cy="7.3" r="3.5"/>
		<circle class="st3" cx="28.5" cy="7.3" r="1.5"/>
	</g>
	<g>
		<path class="st4" d="M30,27.2c0,5.4-4.3,5.4-4.3,5.4H10.2c0,0-4.3,0-4.3-5.4c0-5.8-1.5-16.1,12.1-16.1S30,22.2,30,27.2z"/>
		<path class="st5" d="M18,25.8c-6,0-8.6,3-8.6,5.5c0,2.6,2.1,4.8,4.8,4.8c0.7,0,1.3-0.2,1.9-0.5c1.2-0.7,2.8-0.7,4,0
			c0.6,0.3,1.2,0.5,1.9,0.5c2.6,0,4.8-2.1,4.8-4.8C26.6,28.9,24,25.8,18,25.8z"/>
		<path class="st3" d="M13.7,24.9c-1,0-1.7-0.8-1.7-1.7v-1.7c0-1,0.8-1.7,1.7-1.7c1,0,1.7,0.8,1.7,1.7v1.7
			C15.4,24.2,14.6,24.9,13.7,24.9z"/>
		<path class="st3" d="M22.3,24.9c-1,0-1.7-0.8-1.7-1.7v-1.7c0-1,0.8-1.7,1.7-1.7c1,0,1.7,0.8,1.7,1.7v1.7
			C24,24.2,23.3,24.9,22.3,24.9z"/>
		<g>
			<circle class="st4" cx="22.7" cy="30.5" r="0.4"/>
			<circle class="st4" cx="12.4" cy="30.5" r="0.4"/>
			<circle class="st4" cx="24.5" cy="32.3" r="0.4"/>
			<circle class="st4" cx="11.5" cy="32.3" r="0.4"/>
			<circle class="st4" cx="22.3" cy="32.7" r="0.9"/>
			<circle class="st4" cx="13.7" cy="32.7" r="0.9"/>
			<path class="st3" d="M15.4,28.3c-0.9,0.9,1.7,3.5,2.6,3.5s3.5-2.6,2.6-3.5S16.3,27.4,15.4,28.3z"/>
		</g>
	</g>
</g>
</svg>
