<?xml version="1.0" encoding="utf-8"?>
<!-- Generator: Adobe Illustrator 25.0.0, SVG Export Plug-In . SVG Version: 6.00 Build 0)  -->
<svg version="1.1" id="Ebene_1" xmlns="http://www.w3.org/2000/svg" xmlns:xlink="http://www.w3.org/1999/xlink" x="0px" y="0px"
	 viewBox="0 0 36 36" style="enable-background:new 0 0 36 36;" xml:space="preserve">
<style type="text/css">
	.st0{fill:#77B255;}
	.st1{fill:#C6E5B3;}
	.st2{fill:#5C913B;}
	.st3{fill:#FFFFFF;}
	.st4{fill:#292F33;}
	.st5{fill:none;}
</style>
<g id="Ebene_2_1_">
	<g id="Ebene_1-2">
		<path class="st0" d="M36,11.5v8.6c0,6.6-8.1,0-18,0s-18,6.2-18,0v-8.6c0-2.2,1.8-4,4-4h28C34.2,7.5,36,9.3,36,11.5z"/>
		<path class="st1" d="M36,20.1v9.4c0,2.2-1.8,4-4,4H4c-2.2,0-4-1.8-4-4v-9.4c0,6.2,8.1,0,18,0S36,26.7,36,20.1z"/>
		<circle class="st2" cx="12.4" cy="20.4" r="1.4"/>
		<circle class="st2" cx="23.6" cy="20.4" r="1.4"/>
		<ellipse class="st0" cx="27.9" cy="6.4" rx="3.9" ry="3.9"/>
		<circle class="st3" cx="27.6" cy="6.1" r="2.3"/>
		<circle class="st4" cx="27.6" cy="6.1" r="1"/>
		<ellipse class="st0" cx="8.1" cy="6.4" rx="3.9" ry="3.9"/>
		<circle class="st3" cx="8.4" cy="6.1" r="2.3"/>
		<circle class="st4" cx="8.4" cy="6.1" r="1"/>
		<rect y="0" class="st5" width="36" height="36"/>
	</g>
</g>
</svg>
