<svg xmlns="http://www.w3.org/2000/svg" viewBox="0 0 373.43 373.43"><defs><style>.cls-1{fill:#c6e5b3;}.cls-2{fill:#77b255;}.cls-3{fill:#fff;}.cls-4,.cls-8{fill:#292f33;}.cls-5,.cls-7,.cls-9{fill:none;}.cls-5{stroke:#c6e5b3;}.cls-5,.cls-7,.cls-8{stroke-linecap:round;}.cls-5,.cls-7{stroke-miterlimit:10;}.cls-5,.cls-8{stroke-width:7px;}.cls-6{fill:#5c913b;}.cls-7,.cls-8{stroke:#5c913b;}.cls-7{stroke-width:8px;}.cls-8{stroke-linejoin:round;}</style></defs><g id="Ebene_2" data-name="Ebene 2"><g id="Ebene_1-2" data-name="Ebene 1"><path class="cls-1" d="M373.43,228.21c0,77.34-83.6,124.47-186.72,124.47S0,305.55,0,228.21,83.6,72.61,186.71,72.61,373.43,150.87,373.43,228.21Z"/><path class="cls-2" d="M329.4,131.49a62.22,62.22,0,1,0-99.65-62.15,121.74,121.74,0,0,0-86.07,0A62.22,62.22,0,1,0,44,131.49C16.6,159.29,0,193.82,0,228.21c0,71.66,60.11,14.86,186.71,14.86,124.22,0,186.72,59.14,186.72-14.86C373.43,193.82,356.83,159.29,329.4,131.49Z"/><path class="cls-3" d="M297.78,41.49a36.31,36.31,0,0,1,36.3,36.31c0,20-7.6,22.31-27.65,22.31s-45-2.26-45-22.31A36.31,36.31,0,0,1,297.78,41.49Z"/><circle class="cls-4" cx="314.81" cy="77.8" r="15.56"/><path class="cls-5" d="M309.2,32.72c-30.52-5.2-48.93,7.92-58.14,39"/><path class="cls-3" d="M79.82,41.49A36.31,36.31,0,0,1,116.13,77.8c0,20-7.6,22.31-27.65,22.31s-45-2.26-45-22.31A36.31,36.31,0,0,1,79.82,41.49Z"/><circle class="cls-4" cx="96.85" cy="77.8" r="15.56"/><path class="cls-5" d="M94.74,33.19C62.47,28.16,28.93,43.82,36,88.43"/><circle class="cls-6" cx="191.01" cy="207.46" r="10.37"/><circle class="cls-6" cx="230.95" cy="207.46" r="10.37"/><path class="cls-7" d="M211.15,119.48c-.69,27.15,5.1,49.85,25.43,62.6"/><line class="cls-7" x1="163.02" y1="192.65" x2="137.98" y2="222"/><path class="cls-8" d="M150.5,244.61c54.52,28.64,63.25,74.12,107.61,73.65,31.69-.34,61.24-33.85,29.34-52.05C336.37,200.28,194.58,244.74,150.5,244.61Z"/><line class="cls-8" x1="264.37" y1="214.95" x2="294.16" y2="236.23"/><rect class="cls-9" width="373.43" height="373.43"/></g></g></svg>