<?xml version="1.0" encoding="utf-8"?>
<!-- Generator: Adobe Illustrator 25.0.0, SVG Export Plug-In . SVG Version: 6.00 Build 0)  -->
<svg version="1.1" id="Ebene_1" xmlns="http://www.w3.org/2000/svg" xmlns:xlink="http://www.w3.org/1999/xlink" x="0px" y="0px"
	 viewBox="0 0 271.9 271.9" style="enable-background:new 0 0 271.9 271.9;" xml:space="preserve">
<style type="text/css">
	.st0{fill:#C6E5B3;}
	.st1{fill:#77B255;}
	.st2{fill:#FFFFFF;}
	.st3{fill:#292F33;}
	.st4{fill:#5C913B;}
	.st5{fill:#DD2E44;}
	.st6{fill:#EA596E;}
	.st7{fill:#3B88C3;}
	.st8{fill:#88C9F9;}
	.st9{fill:#226699;}
	.st10{fill:#55ACEE;}
	.st11{fill:none;}
</style>
<g id="Ebene_2_1_">
	<g id="Ebene_1-2">
		<path class="st0" d="M240.4,174.8c10.1,40.1-27.1,75.5-80.6,88.9s-103-0.1-113.1-40.2s23-91.6,76.5-105.1S230.3,134.6,240.4,174.8
			z"/>
		<path class="st1" d="M204.9,130.3c11.1-14.7,8.2-35.5-6.5-46.6c-14.7-11.1-35.5-8.2-46.6,6.5c-4.5,6-6.9,13.4-6.7,20.9
			c-15.8-1.8-31.6,2.2-44.6,11.2c-8.3-16.4-28.3-23-44.7-14.8s-23,28.3-14.8,44.7c3.4,6.8,9,12.2,15.9,15.3
			c-10.6,18-14.7,38.1-10.2,55.9c10.1,40.1,44.7-5.5,98.2-19s105.6,10.4,95.5-29.8C235.9,156.9,222.8,141.2,204.9,130.3z"/>
		<circle class="st2" cx="67.4" cy="135.3" r="19.4"/>
		<circle class="st3" cx="67.4" cy="135.3" r="8.3"/>
		<circle class="st2" cx="180.4" cy="106.9" r="19.4"/>
		<circle class="st3" cx="180.4" cy="106.9" r="8.3"/>
		<circle class="st4" cx="119.3" cy="193.8" r="5.6"/>
		<circle class="st4" cx="162.4" cy="182.9" r="5.6"/>
		<path class="st5" d="M209.4,81.8c-0.2-0.6-0.5-1-1-1.4c0,0-105.6-82.3-113-80.5S34.7,124.7,34.7,124.7c-0.3,0.5-0.4,1.1-0.3,1.7
			c1.9,7.3,42.5,3.2,90.8-9.1S211.2,89.2,209.4,81.8z"/>
		<path class="st6" d="M95,0.3c-0.3,0.2-0.5,0.5-0.7,0.8C90.3,11.8,59,100.4,52.7,130c13.6-0.5,28.4-3,46.1-6.5
			C98.2,98.4,101.4,2.5,95,0.3z"/>
		<path class="st7" d="M216.6,204.1l-2.5,14.5l-58.9-5.3c-5.6-0.3-14.8-0.1-16.7-6.9c2.1-0.6,4.2-1.2,6.4-1.8
			c13.7-3.4,27.3-4.4,39.7-4.7L216.6,204.1z"/>
		<path class="st8" d="M216.6,204.1l-23.6-3.2c-2.8-0.4-5.1,3.8-5,8.1c0,4.8,1.5,7.2,4.3,7.7l23.1,2.1L216.6,204.1z"/>
		<path class="st7" d="M241.4,201.6l-14.1,13.8L200.4,188l14.1-13.9c7.4-7.2,19.1-7.1,26.4,0.2l0.8,0.8
			C248.8,182.5,248.7,194.3,241.4,201.6z"/>
		
			<ellipse transform="matrix(0.7134 -0.7008 0.7008 0.7134 -80.0657 207.6584)" class="st8" cx="213.8" cy="201.7" rx="15.4" ry="19.2"/>
		
			<ellipse transform="matrix(0.7134 -0.7008 0.7008 0.7134 -80.0657 207.6584)" class="st9" cx="213.8" cy="201.7" rx="7.7" ry="11.5"/>
		<circle class="st10" cx="52.2" cy="263.6" r="8.3"/>
		<circle class="st10" cx="226.9" cy="94.3" r="11.1"/>
		<path class="st6" d="M41.9,201.1l-13-31.1l-11.7,33.5L41.9,201.1z M188.8,264l-22.2,5.5l5.5-22.2L188.8,264z"/>
		<path class="st0" d="M221.3,145.8l33.4-12.1l-8.4-18.2L221.3,145.8z"/>
		<rect y="0" class="st11" width="271.9" height="271.9"/>
	</g>
</g>
</svg>
