<svg xmlns="http://www.w3.org/2000/svg" xmlns:xlink="http://www.w3.org/1999/xlink" viewBox="0 0 49.35 47.11"><defs><style>.cls-1{fill:none;}.cls-2{clip-path:url(#clip-path);}.cls-3{fill:#c6e5b3;}.cls-4{fill:#77b255;}.cls-5{fill:#fff;}.cls-6{fill:#292f33;}.cls-7,.cls-8{fill:#5c913b;}.cls-8{stroke:#3f6328;stroke-linecap:round;stroke-linejoin:round;stroke-width:1.3px;}.cls-9{fill:#50a5e6;}.cls-10{fill:#1c6399;}</style><clipPath id="clip-path" transform="translate(2.02 0)"><rect class="cls-1" width="45" height="45"/></clipPath></defs><g id="Ebene_2" data-name="Ebene 2"><g id="svg2"><g class="cls-2"><path id="path22" class="cls-3" d="M45,25c0,9.32-10.07,15-22.5,15S0,34.32,0,25,10.07,6.25,22.5,6.25,45,15.68,45,25" transform="translate(2.02 0)"/><path id="path26" class="cls-4" d="M39.69,13.34a7.49,7.49,0,1,0-12-7.48,14.65,14.65,0,0,0-10.38,0,7.49,7.49,0,1,0-12,7.48A17,17,0,0,0,0,25c0,9.32,10.07,1.25,22.5,1.25S45,34.32,45,25a17,17,0,0,0-5.31-11.66" transform="translate(2.02 0)"/><path id="path30" class="cls-5" d="M13.75,6.88A4.38,4.38,0,1,1,9.37,2.5a4.38,4.38,0,0,1,4.38,4.38" transform="translate(2.02 0)"/><path id="path34" class="cls-6" d="M11.25,6.88A1.88,1.88,0,1,1,9.37,5a1.88,1.88,0,0,1,1.88,1.88" transform="translate(2.02 0)"/><path id="path38" class="cls-5" d="M40,6.88A4.38,4.38,0,1,1,35.62,2.5,4.38,4.38,0,0,1,40,6.88" transform="translate(2.02 0)"/><path id="path42" class="cls-6" d="M37.5,6.88A1.88,1.88,0,1,1,35.62,5,1.88,1.88,0,0,1,37.5,6.88" transform="translate(2.02 0)"/><path id="path46" class="cls-7" d="M18.75,22.5a1.25,1.25,0,1,1-1.25-1.25,1.25,1.25,0,0,1,1.25,1.25" transform="translate(2.02 0)"/><path id="path50" class="cls-7" d="M28.75,22.5a1.25,1.25,0,1,1-1.25-1.25,1.25,1.25,0,0,1,1.25,1.25" transform="translate(2.02 0)"/><path class="cls-8" d="M32.66,33.87c-2.13,1.62-4.19,5.5-4.92,8.05L27,41.29A5.59,5.59,0,0,1,22.52,37v-.1h0V37A5.58,5.58,0,0,1,18,41.29l-.76.63c-.73-2.55-2.79-6.43-4.92-8.05a24.16,24.16,0,0,0,3-2.82,15,15,0,0,1,1.26-6.25c.66-3.42,1.19-9.37,1.19-9.37a2,2,0,0,1,.39-1.2c0-.51,0-.87,0-1a2.12,2.12,0,0,1,2.33-2.11,2.17,2.17,0,0,1,1.88,2,.16.16,0,0,1,0,.1v-.1a2.14,2.14,0,0,1,4.28.1c0,.12,0,.47,0,1a2,2,0,0,1,.41,1.22s.54,5.95,1.2,9.37a15.35,15.35,0,0,1,1.26,6.25A23.74,23.74,0,0,0,32.66,33.87Z" transform="translate(2.02 0)"/><path class="cls-9" d="M34.55,33.11c-3,0-6.69,7.1-7,10-.42,3.92,2,4,2,4h11l6.79-2.94-6.79-7.06S37.11,33.11,34.55,33.11Z" transform="translate(2.02 0)"/><ellipse class="cls-10" cx="32.13" cy="39.6" rx="5.85" ry="1.64" transform="translate(-16.22 47.62) rotate(-60)"/><path class="cls-7" d="M24.64,11.11a2.14,2.14,0,0,1,2.14,2.14c0,.79.66,10.82.66,10.82l-4.94,5V13.25A2.14,2.14,0,0,1,24.64,11.11Z" transform="translate(2.02 0)"/><path class="cls-4" d="M23.43,15.43a1.9,1.9,0,1,1,3.8,0s.54,5.95,1.2,9.37a15.35,15.35,0,0,1,1.26,6.25c0,.4,5.62,5,5.62,5a16.55,16.55,0,0,1-4.76,8.16L27,41.29A5.59,5.59,0,0,1,22.57,37C22.57,34.05,23.43,15.43,23.43,15.43Z" transform="translate(2.02 0)"/><path class="cls-9" d="M10.55,33.11c3,0,6.69,7.1,7,10,.42,3.92-2,4-2,4h-11L-2,44.73l6.57-7.62S8,33.11,10.55,33.11Z" transform="translate(2.02 0)"/><ellipse class="cls-10" cx="12.98" cy="39.6" rx="1.64" ry="5.85" transform="translate(-16.05 11.79) rotate(-30)"/><path class="cls-7" d="M20.61,11.12a2.12,2.12,0,0,0-2.33,2.11c0,.78-.18,10.31-.18,10.31l4.35,5.57.06-15.76A2.2,2.2,0,0,0,20.61,11.12Z" transform="translate(2.02 0)"/><path class="cls-4" d="M21.68,15.43a1.91,1.91,0,1,0-3.81,0s-.53,5.95-1.19,9.37a15,15,0,0,0-1.26,6.25c-.06.4-5.63,5-5.63,5a16.55,16.55,0,0,0,4.76,8.16l3.52-2.93A5.58,5.58,0,0,0,22.53,37C22.53,34.05,21.68,15.43,21.68,15.43Z" transform="translate(2.02 0)"/><path class="cls-7" d="M22.51,36.93a.75.75,0,0,1-.75-.75V13.9a.75.75,0,0,1,1.5,0V36.19A.74.74,0,0,1,22.51,36.93Z" transform="translate(2.02 0)"/></g></g></g></svg>