<svg xmlns="http://www.w3.org/2000/svg" viewBox="0 0 38.14 38.14"><defs><style>.cls-1{fill:#c6e5b3;}.cls-2{fill:#662113;}.cls-3{fill:#ffcc4d;}.cls-4{fill:#77b255;}.cls-5{fill:#dd2e44;}.cls-6{fill:#5c913b;}.cls-7{fill:#fff;}.cls-8{fill:#292f33;}.cls-9{fill:none;}</style></defs><g id="Ebene_2" data-name="Ebene 2"><g id="Ebene_1-2" data-name="Ebene 1"><path class="cls-1" d="M19,23.55c-9.37,0-17-.22-17,6.43s7.6,8.16,17,8.16S36,36.63,36,30,28.37,23.55,19,23.55Z"/><path class="cls-2" d="M35.47,24.06A164.44,164.44,0,0,0,19,23a164.44,164.44,0,0,0-16.47,1C1.71,30.53,8.46,33.2,19,33.2S36.28,30.53,35.47,24.06Z"/><path class="cls-3" d="M34.88,21.47,3,22.11c-1.1,0-2,2.23-.86,2.82,8.71,2.7,15.71,5.44,15.71,5.44a1.78,1.78,0,0,0,2.25,0S29.8,26.51,36,24.88C36.89,24.65,36,21.47,34.88,21.47Z"/><path class="cls-4" d="M35.72,21.55c-1.9-1.75-1.79-.82-3.24-1.23C31.92,20.17,28,15.05,19,15.05h0c-9,0-13,5.12-13.53,5.27-1.46.41-1.35-.52-3.25,1.23C1.28,22.36,1,22.77,2,23c1.39.32,1.26,1.15,2.26,1.45,1.2.35,1.69-.3,3.63,0,1.65.22,1.76,2.37,3.43,2.37S13,26,14.61,26s2.66,2.14,4.33,2.14S21.59,26,23.26,26s1.66.8,3.33.8S28.37,24.62,30,24.4c1.94-.26,2.43.38,3.63,0,1-.3.87-1.13,2.26-1.45C36.83,22.78,36.59,22.36,35.72,21.55Z"/><path class="cls-5" d="M35.07,19.66c0,3-7.19,4.39-16.07,4.39S2.92,22.64,2.92,19.66c0-5.4,1-5.4,16.08-5.4S35.07,14.26,35.07,19.66Z"/><path class="cls-4" d="M34.79,10.45A8.24,8.24,0,0,1,36,14.71c0,6.12-7.59,6.37-17,6.37S2,20.83,2,14.71a8.31,8.31,0,0,1,1.21-4.33,5.64,5.64,0,1,1,8.59-5.77,26.34,26.34,0,0,1,7.17-1,26,26,0,0,1,7.31,1,5.64,5.64,0,1,1,8.48,5.8Z"/><path class="cls-6" d="M11.78,6.84a1.07,1.07,0,0,0-1.48.32,1.08,1.08,0,0,0,.33,1.48c.5.32,1.76.55,2.08.06S12.28,7.15,11.78,6.84Zm9.73-1C21,6,20,6.81,20.15,7.37s1.46.65,2,.46a1.06,1.06,0,0,0,.69-1.34A1.08,1.08,0,0,0,21.51,5.8Zm10.91,7c-.45-.38-1.58.22-2,.67a1.07,1.07,0,0,0,1.64,1.38C32.48,14.44,32.88,13.22,32.42,12.84Zm-3.64-5a1.07,1.07,0,1,0-1.15,1.8c.5.32,1.76.56,2.08.06S29.28,8.15,28.78,7.84Zm-15,7a1.07,1.07,0,1,0-1.15,1.8c.5.32,1.76.56,2.08.06S14.28,15.15,13.78,14.84Zm3-4.81c-.34.48-.62,1.74-.14,2.07s1.56-.37,1.9-.86a1.08,1.08,0,0,0-.28-1.49A1.06,1.06,0,0,0,16.83,10Zm8,4.81a1.07,1.07,0,1,0-1.15,1.8c.5.32,1.76.56,2.08.06S25.28,15.15,24.78,14.84ZM5.94,11c-.39.44-.83,1.65-.39,2s1.59-.17,2-.61a1.09,1.09,0,0,0-.09-1.52A1.07,1.07,0,0,0,5.94,11Z"/><circle class="cls-7" cx="5.69" cy="5.12" r="3.32"/><circle class="cls-8" cx="5.69" cy="5.12" r="1.38"/><circle class="cls-7" cx="32.42" cy="5.12" r="3.32"/><circle class="cls-8" cx="32.42" cy="5.12" r="1.38"/><rect class="cls-9" width="38.14" height="38.14"/></g></g></svg>