<svg xmlns="http://www.w3.org/2000/svg" viewBox="0 0 1982.25 1982.25"><defs><style>.cls-1{fill:#4289c1;}.cls-2{fill:#fee7b8;}.cls-3{fill:#ecd8b0;}.cls-4{fill:#fff;}.cls-5{fill:#292f33;}.cls-6{fill:#ff7892;}.cls-7{fill:#bb1a34;}.cls-8{fill:none;}</style></defs><g id="Ebene_2" data-name="Ebene 2"><g id="Ebene_1-2" data-name="Ebene 1"><circle class="cls-1" cx="1596.81" cy="213.16" r="110.12"/><circle class="cls-1" cx="1817.06" cy="488.47" r="165.19"/><circle class="cls-1" cx="1817.06" cy="268.22" r="165.19"/><circle class="cls-1" cx="385.44" cy="213.16" r="110.12"/><circle class="cls-1" cx="165.19" cy="488.47" r="165.19"/><circle class="cls-1" cx="165.19" cy="268.22" r="165.19"/><circle class="cls-1" cx="1679.41" cy="295.76" r="137.66"/><circle class="cls-1" cx="1762" cy="433.41" r="110.12"/><circle class="cls-1" cx="302.84" cy="295.76" r="137.66"/><circle class="cls-1" cx="220.25" cy="433.41" r="110.12"/><path class="cls-2" d="M1970.3,1247.07c0,392.77-424.54,632.14-948.22,632.14S73.86,1639.84,73.86,1247.07,498.4,456.89,1022.08,456.89,1970.3,854.29,1970.3,1247.07Z"/><path class="cls-3" d="M1746.68,755.89c72.06-57.95,118.26-146.71,118.26-246.33,0-174.52-141.55-316.07-316.07-316.07-150.71,0-276.56,105.57-308.22,246.8a618.15,618.15,0,0,0-437.13,0C771.86,299.06,646,193.49,495.29,193.49c-174.52,0-316.07,141.55-316.07,316.07,0,99.62,46.2,188.38,118.26,246.33C158.15,897.07,73.86,1072.44,73.86,1247.07c0,392.77,424.54,52.68,948.22,52.68s948.22,340.09,948.22-52.68C1970.3,1072.44,1886,897.07,1746.68,755.89Z"/><circle class="cls-4" cx="468.95" cy="483.22" r="184.38"/><circle class="cls-5" cx="468.95" cy="483.22" r="79.02"/><circle class="cls-4" cx="1575.21" cy="483.22" r="184.38"/><circle class="cls-5" cx="1575.21" cy="483.22" r="79.02"/><circle class="cls-6" cx="1669.27" cy="1306.54" r="238.29"/><circle class="cls-6" cx="367.01" cy="1306.54" r="238.29"/><circle class="cls-7" cx="1018.66" cy="1121.69" r="192.72"/><rect class="cls-8" width="1982.25" height="1982.25"/></g></g></svg>