<?xml version="1.0" encoding="utf-8"?>
<!-- Generator: Adobe Illustrator 25.0.0, SVG Export Plug-In . SVG Version: 6.00 Build 0)  -->
<svg version="1.1" id="Ebene_1" xmlns="http://www.w3.org/2000/svg" xmlns:xlink="http://www.w3.org/1999/xlink" x="0px" y="0px"
	 viewBox="0 0 45 45" style="enable-background:new 0 0 45 45;" xml:space="preserve">
<style type="text/css">
	.st0{fill:#C6E5B3;}
	.st1{fill:#77B255;}
	.st2{fill:#FFFFFF;}
	.st3{fill:#292F33;}
	.st4{fill:#5C913B;}
	.st5{fill:#DD2E44;}
	.st6{fill:#FFAC33;}
	.st7{fill:#88C9F9;}
</style>
<g id="Ebene_2-2">
	<g id="Ebene_2-2-2">
		<path class="st0" d="M32.5,14.5c0,4.2-4.8,6.7-10.6,6.7s-10.6-2.6-10.6-6.7S16.1,6,21.9,6S32.5,10.3,32.5,14.5z"/>
		<path class="st1" d="M30,9.2c1.4-1.1,1.7-3.1,0.7-4.6c0-0.1-0.1-0.1-0.1-0.2c-1.3-1.5-3.5-1.7-5-0.5c-0.6,0.5-1,1.1-1.2,1.9
			c-0.8-0.3-1.6-0.4-2.4-0.4c-0.8,0-1.7,0.1-2.4,0.4c-0.5-1.8-2.4-3-4.3-2.5c-1.6,0.3-2.7,1.7-2.7,3.2c0,1,0.5,2,1.4,2.6
			c-1.5,1.3-2.4,3.3-2.5,5.3c0,4.2,4.8,0.6,10.6,0.6s10.6,3.6,10.6-0.6C32.4,12.5,31.5,10.6,30,9.2z"/>
		<ellipse class="st2" cx="15.8" cy="6.3" rx="2.1" ry="2"/>
		<ellipse class="st3" cx="15.8" cy="6.3" rx="0.9" ry="0.8"/>
		<ellipse class="st2" cx="28.1" cy="6.3" rx="2.1" ry="2"/>
		<ellipse class="st3" cx="28.1" cy="6.3" rx="0.9" ry="0.8"/>
		<ellipse class="st4" cx="19.6" cy="13.3" rx="0.6" ry="0.6"/>
		<ellipse class="st4" cx="24.3" cy="13.3" rx="0.6" ry="0.6"/>
	</g>
	<g id="Ebene_1-2-2">
		<ellipse class="st0" cx="21.8" cy="32.1" rx="13.5" ry="12.9"/>
		<path class="st5" d="M27.9,18H15.7c-1.1,0-2,0.9-2,1.9c0,0.8,0.6,1.5,1.3,1.8v9.1c0,0.7,0.6,1.3,1.3,1.3c0,0,0,0,0,0h1.4
			c0.7,0,1.3-0.6,1.4-1.3v-9h8.8c1.1,0,1.9-0.9,1.9-1.9S29,18,27.9,18L27.9,18z"/>
		<path class="st4" d="M23.2,29.6c0,0.7-0.6,1.4-1.4,1.4s-1.4-0.6-1.4-1.4s0.6-1.4,1.4-1.4S23.2,28.8,23.2,29.6z M23.2,36
			c0,0.7-0.5,1.4-1.3,1.4c-0.7,0-1.4-0.5-1.4-1.3c0-0.7,0.5-1.4,1.3-1.4c0,0,0,0,0.1,0C22.5,34.7,23.1,35.3,23.2,36z"/>
		<path class="st6" d="M11.6,24.5l-4.7-1.9L6.2,19c-0.2-0.7-0.9-1.2-1.6-1c-0.7,0.1-1.2,0.8-1.1,1.5c0,0,0,0,0,0l0,0l0.4,2l-1.8-0.7
			c-0.7-0.3-1.5,0-1.8,0.7C0.1,22.1,0.4,22.7,1,23l1,0.4l-1.4,1.4c-0.5,0.5-0.5,1.3-0.1,1.8c0,0,0,0,0.1,0.1C0.9,26.9,1.2,27,1.6,27
			c0.4,0,0.7-0.1,1-0.4l2.2-2.1l5.8,2.4C10.7,27,10.8,27,11,27c0.7,0,1.3-0.6,1.4-1.3C12.4,25.2,12,24.7,11.6,24.5z M42.5,20.7
			l-2-0.7l1.2-1.1c0.5-0.5,0.5-1.3,0.1-1.8c0,0,0,0-0.1-0.1l0,0c-0.5-0.5-1.4-0.5-1.9,0l-1,0.9L38,15.1c-0.2-0.7-0.9-1.2-1.6-1
			c-0.7,0.1-1.2,0.8-1.1,1.5c0,0,0,0,0,0v0.1l1.2,4.4l-4.9,4.6c-0.5,0.5-0.5,1.3-0.1,1.8c0,0,0,0,0.1,0.1l0,0c0.5,0.5,1.4,0.5,1.9,0
			l4.8-4.6l3.3,1c0.1,0,0.3,0.1,0.4,0.1c0.7,0,1.3-0.5,1.4-1.2c0-0.6-0.3-1.2-0.9-1.3V20.7z"/>
		<path class="st7" d="M11.1,1.4c-0.2-0.3-0.6-0.3-0.9-0.1L9,2.1V0.6C9,0.3,8.7,0,8.3,0c0,0,0,0,0,0C8,0,7.7,0.3,7.6,0.6V2L6.5,1.3
			c-0.3-0.2-0.7-0.2-1,0.1c0,0,0,0,0,0C5.3,1.8,5.3,2.1,5.6,2.3c0,0,0,0,0,0L7,3.2L5.7,4.1C5.4,4.3,5.3,4.7,5.5,5c0,0,0,0,0,0
			c0.1,0.2,0.3,0.3,0.6,0.3c0.1,0,0.3-0.1,0.4-0.2l1.2-0.8v1.4c0,0.4,0.3,0.6,0.7,0.6C8.7,6.4,9,6.2,9,5.8c0,0,0,0,0,0V4.4l1.2,0.8
			c0.1,0.1,0.2,0.1,0.4,0.1c0.2,0,0.4-0.1,0.6-0.3c0.2-0.3,0.2-0.7-0.1-0.9c0,0,0,0,0,0l0,0L9.6,3.2L11,2.3
			C11.3,2.1,11.4,1.8,11.1,1.4C11.2,1.5,11.2,1.4,11.1,1.4L11.1,1.4z M5.7,10.4c-0.2-0.3-0.6-0.4-0.9-0.1l0,0L3.6,11V9.6
			C3.6,9.3,3.3,9,2.9,9C2.6,9,2.3,9.3,2.2,9.6V11l-1.2-0.7c-0.3-0.2-0.7-0.1-0.9,0.2l0,0c-0.2,0.3-0.1,0.7,0.2,0.9c0,0,0,0,0,0
			l1.4,0.9l-1.4,0.9C0,13.3-0.1,13.7,0.1,14c0,0,0,0,0,0c0.1,0.2,0.3,0.3,0.6,0.3c0.1,0,0.3-0.1,0.4-0.2l1.2-0.8v1.4
			c0,0.4,0.3,0.6,0.7,0.6c0.4,0,0.7-0.3,0.7-0.6v-1.4l1.2,0.8c0.3,0.2,0.7,0.1,0.9-0.2l0,0c0.2-0.3,0.1-0.7-0.1-0.9c0,0,0,0,0,0l0,0
			l-1.4-0.9l1.3-0.9C5.8,11.2,5.9,10.8,5.7,10.4C5.8,10.5,5.8,10.5,5.7,10.4L5.7,10.4z M5.7,32.3c-0.2-0.3-0.6-0.3-0.9-0.1l-1.2,0.8
			v-1.4c0-0.4-0.3-0.6-0.7-0.6c0,0,0,0,0,0c-0.4,0-0.7,0.3-0.7,0.6c0,0,0,0,0,0v1.4l-1.2-0.7c-0.3-0.2-0.7-0.1-0.9,0.2l0,0
			C-0.1,32.6,0,33,0.3,33.2c0,0,0,0,0,0l1.4,0.9L0.3,35c-0.3,0.2-0.4,0.6-0.2,0.9c0,0,0,0,0,0c0.1,0.2,0.3,0.3,0.6,0.3
			c0.1,0,0.3-0.1,0.4-0.2l1.2-0.8v1.4c0,0.4,0.3,0.7,0.7,0.7c0.4,0,0.7-0.3,0.7-0.6c0,0,0,0,0,0v-1.4L4.8,36
			c0.3,0.2,0.7,0.1,0.9-0.2l0,0c0.2-0.3,0.1-0.7-0.1-0.9c0,0,0,0,0,0l0,0L4.1,34l1.3-0.9C5.8,33,5.9,32.7,5.7,32.3
			C5.8,32.3,5.8,32.3,5.7,32.3L5.7,32.3z M43.3,10.9l1.4-0.9c0.3-0.2,0.4-0.6,0.2-0.9c0,0,0,0,0,0l0,0c-0.2-0.2-0.6-0.3-0.9-0.1
			l-1.2,0.8V8.4c0-0.4-0.4-0.6-0.8-0.6c-0.3,0-0.6,0.3-0.6,0.6v1.4L40.2,9c-0.3-0.2-0.7-0.1-0.9,0.2c-0.2,0.3-0.1,0.7,0.1,0.9
			c0,0,0,0,0.1,0l1.3,0.9l-1.3,0.9c-0.3,0.2-0.4,0.6-0.2,0.9c0,0,0,0,0,0c0.1,0.2,0.3,0.3,0.6,0.3c0.1,0,0.3,0,0.4-0.1l1.2-0.8v1.3
			c0,0.4,0.4,0.6,0.8,0.6c0.3,0,0.6-0.3,0.6-0.6v-1.4l1.2,0.8c0.1,0.1,0.2,0.1,0.4,0.1c0.2,0,0.4-0.1,0.6-0.3
			c0.2-0.3,0.1-0.7-0.2-0.9c0,0,0,0,0,0L43.3,10.9z M43.5,28.4c-0.2-0.3-0.6-0.4-0.9-0.2L41.4,29v-1.4c0-0.4-0.4-0.6-0.8-0.6
			c-0.3,0-0.6,0.3-0.6,0.6V29l-1.2-0.7c-0.3-0.2-0.7-0.1-0.9,0.2l0,0c-0.2,0.3-0.1,0.7,0.2,0.9c0,0,0,0,0,0l1.3,0.9l-1.3,0.9
			c-0.3,0.2-0.4,0.6-0.2,0.9c0,0,0,0,0,0c0.1,0.2,0.3,0.3,0.6,0.3c0.1,0,0.3,0,0.4-0.1l1.1-0.7v1.4c0,0.4,0.4,0.6,0.8,0.6
			c0.3,0,0.6-0.3,0.6-0.6v-1.4l1.2,0.8c0.1,0.1,0.2,0.1,0.4,0.1c0.2,0,0.4-0.1,0.6-0.3c0.2-0.3,0.1-0.7-0.2-0.9c0,0,0,0,0,0L42,30.2
			l1.3-0.9C43.6,29.1,43.7,28.7,43.5,28.4C43.5,28.4,43.5,28.4,43.5,28.4z M37.9,4.1l-1.3-0.9l1.3-0.9c0.3-0.2,0.3-0.6,0-0.9
			c0,0,0,0,0,0c-0.2-0.2-0.5-0.2-0.7-0.1L36,2.1V0.6C36,0.3,35.6,0,35.2,0c-0.3,0-0.6,0.3-0.6,0.6V2l-1.2-0.7
			c-0.3-0.2-0.7-0.1-0.9,0.2c-0.2,0.3-0.1,0.7,0.2,0.9c0,0,0,0,0,0l1.3,0.9l-1.3,0.9c-0.3,0.2-0.4,0.6-0.2,0.9c0,0,0,0,0,0
			c0.1,0.2,0.3,0.3,0.6,0.3c0.1,0,0.3-0.1,0.4-0.2l1.2-0.8v1.4c0,0.4,0.4,0.6,0.8,0.6c0.3,0,0.6-0.3,0.6-0.6V4.4l1.2,0.8
			c0.1,0.1,0.2,0.1,0.4,0.1c0.2,0,0.4-0.1,0.5-0.3C38.3,4.7,38.3,4.3,37.9,4.1C38,4.1,38,4.1,37.9,4.1L37.9,4.1z"/>
	</g>
</g>
</svg>
