<svg xmlns="http://www.w3.org/2000/svg" viewBox="0 0 166.15 166.17"><defs><style>.cls-1{fill:#c6e5b3;}.cls-2{fill:#77b255;}.cls-3{fill:#fff;}.cls-4{fill:#292f33;}.cls-5{fill:#5c913b;}</style></defs><g id="Ebene_2" data-name="Ebene 2"><g id="Ebene_4" data-name="Ebene 4"><path class="cls-1" d="M82.79,96.9c-9.88.12-17.83,12.75-18.23,29l0,.85A47.68,47.68,0,0,0,65.78,138C46.75,141.59,26.33,151,0,166.17c12.82-23,23.16-41.86,31.62-57.54C44.49,121.5,60.56,97.28,82.79,96.9Z"/><path class="cls-1" d="M102.21,129.08c.42-16.87-7.66-31.27-18.06-32.15-.29,0-.78,0-1.07,0h.24c22.29,0,39.41,24.21,51.83,11.79l0-.05c3.39,6.37,7.07,13.26,11.08,20.73-5.62-3.37-12.82-6.38-22.88-9,14.64,7.51,21.81,14.45,28.69,19.78,4.36,8.1,8.94,16.6,14.06,26-26-15-46.18-24.35-65-28A46.55,46.55,0,0,0,102.21,129.08Z"/><path class="cls-2" d="M135.2,108.63l0,.05c-12.42,12.42-34.54-11.79-51.83-11.79h-.53c-22.23.38-38.3,24.6-51.17,11.73,13.65-25.28,22.43-42.42,28.94-56,5.51,4.64,12.89,9.11,23.71,13.56A130.08,130.08,0,0,1,63,47.58C71.2,30,75.66,18.13,83.05,0,96.9,32.48,101.14,44.51,135.2,108.63Z"/><circle class="cls-3" cx="49.26" cy="49.84" r="11.42"/><circle class="cls-4" cx="49.26" cy="49.84" r="4.89"/><circle class="cls-3" cx="117.77" cy="49.84" r="11.42"/><circle class="cls-4" cx="117.77" cy="49.84" r="4.89"/><circle class="cls-5" cx="94.79" cy="89.97" r="3.26"/><circle class="cls-5" cx="70.79" cy="89.97" r="3.26"/></g></g></svg>