<svg xmlns="http://www.w3.org/2000/svg" xmlns:xlink="http://www.w3.org/1999/xlink" viewBox="0 0 36 34.25"><defs><style>.cls-1{fill:none;}.cls-2{clip-path:url(#clip-path);}.cls-3{fill:#5c913b;}.cls-4{fill:#c6e5b3;}.cls-5{fill:#77b255;}.cls-6{fill:#fff;}.cls-7{fill:#292f33;}.cls-8{fill:#d99e82;}.cls-9{fill:#f4c7b5;}</style><clipPath id="clip-path" transform="translate(0 -1.82)"><rect class="cls-1" width="36" height="36"/></clipPath></defs><g id="Ebene_2" data-name="Ebene 2"><g id="Ebene_1-2" data-name="Ebene 1"><g id="Ebene_1-2-2" data-name="Ebene 1-2"><g class="cls-2"><circle class="cls-3" cx="22" cy="18.01" r="1"/><path class="cls-4" d="M36,21.83c0,7.46-8.06,12-18,12s-18-4.54-18-12,8.06-15,18-15S36,14.38,36,21.83Z" transform="translate(0 -1.82)"/><path class="cls-5" d="M31.75,12.51a6,6,0,1,0-9.6-6,11.75,11.75,0,0,0-8.3,0A6,6,0,1,0,2.15,9.15a5.92,5.92,0,0,0,2.09,3.36A13.64,13.64,0,0,0,0,21.83c0,7.46,8.06,1,18,1s18,6.46,18-1A13.55,13.55,0,0,0,31.75,12.51Z" transform="translate(0 -1.82)"/><circle class="cls-6" cx="7.5" cy="5.51" r="3.5"/><circle class="cls-7" cx="7.5" cy="5.51" r="1.5"/><circle class="cls-6" cx="28.5" cy="5.51" r="3.5"/><circle class="cls-7" cx="28.5" cy="5.51" r="1.5"/><circle class="cls-3" cx="14" cy="18.01" r="1"/><path class="cls-8" d="M30.05,27.2c0,5.42-4.32,5.42-4.32,5.42H10.18s-4.32,0-4.32-5.42C5.86,21.39,4.4,11.11,18,11.11S30.05,22.25,30.05,27.2Z" transform="translate(0 -1.82)"/><path class="cls-9" d="M18,25.8c-6,0-8.64,3.05-8.64,5.52a4.76,4.76,0,0,0,4.75,4.76A3.67,3.67,0,0,0,16,35.6a3.84,3.84,0,0,1,4,0,3.67,3.67,0,0,0,1.89.48,4.76,4.76,0,0,0,4.75-4.76C26.63,28.85,24,25.8,18,25.8Z" transform="translate(0 -1.82)"/><path class="cls-7" d="M15.4,28.3c-.86.86,1.73,3.46,2.59,3.46s3.46-2.6,2.59-3.46S16.26,27.44,15.4,28.3Zm-1.73-3.37a1.73,1.73,0,0,1-1.73-1.72V21.48a1.73,1.73,0,0,1,3.46,0v1.73A1.73,1.73,0,0,1,13.67,24.93Zm8.64,0a1.73,1.73,0,0,1-1.73-1.72V21.48a1.73,1.73,0,0,1,3.46,0v1.73A1.73,1.73,0,0,1,22.31,24.93Z" transform="translate(0 -1.82)"/><circle class="cls-8" cx="22.74" cy="28.73" r="0.43"/><circle class="cls-8" cx="12.38" cy="28.73" r="0.43"/><circle class="cls-8" cx="24.47" cy="30.46" r="0.43"/><circle class="cls-8" cx="11.51" cy="30.46" r="0.43"/><circle class="cls-8" cx="22.31" cy="30.89" r="0.86"/><circle class="cls-8" cx="13.67" cy="30.89" r="0.86"/></g></g></g></g></svg>