<svg xmlns="http://www.w3.org/2000/svg" viewBox="0 0 36 36"><defs><style>.cls-1{fill:none;}.cls-2{fill:#77b255;}.cls-3{fill:#5c913b;}.cls-4{fill:#c6e5b3;}.cls-5{fill:#fff;}.cls-6{fill:#292f33;}</style></defs><g id="Ebene_2" data-name="Ebene 2"><g id="Ebene_1-2" data-name="Ebene 1"><rect class="cls-1" width="36" height="36"/><path class="cls-2" d="M23,24.32l-5.54-5.54-5.55-5.55S12.38,24.41.74,27.32a16.79,16.79,0,0,0,8.18,8.19C11.83,23.87,23,24.32,23,24.32Z"/><path class="cls-3" d="M13.83,16.59c-.73,3.64-5.09,9.46-5.09,9.46l8.73-8.73C20.38,14.41,13.83,16.59,13.83,16.59Zm12.36,6.55S15.28,23.87,8.74,29c8-8,11.64-8.73,11.64-8.73Z"/><path class="cls-4" d="M30.16,28.21a2.39,2.39,0,0,1-4.09,1.84,2.36,2.36,0,0,1-.62-1.12,1.94,1.94,0,0,1-.23.27,2.39,2.39,0,0,1-4.08-1.86,2.37,2.37,0,0,1-1.86-.68l-.2-.25a2.39,2.39,0,0,1-2.34-.6,2.47,2.47,0,0,1-.66-1.24,2.4,2.4,0,0,1-2.74-3.85,2,2,0,0,1,.28-.23,2.36,2.36,0,0,1-1.12-.62,2.32,2.32,0,0,1-.66-1.24,2.39,2.39,0,0,1-3.19-3.2,2.37,2.37,0,0,1-1.25-.65,2.42,2.42,0,0,1,0-3.4l.28-.22A2.4,2.4,0,0,1,7.8,6.48c-1.1,3.06,6.06,5,11.47,10.44C25,22.71,26.75,30.42,30.16,28.21Z"/><path class="cls-2" d="M34.56,18.17A2.35,2.35,0,0,1,35.25,20a2.32,2.32,0,0,1-.69,1.52,2.37,2.37,0,0,1-1.08.62,2.63,2.63,0,0,1-.39.81h0a2.85,2.85,0,0,1-.23.26,2.38,2.38,0,0,1-1.12.63,2.88,2.88,0,0,1,.27.22,2.38,2.38,0,0,1,0,3.39,2.35,2.35,0,0,1-1.83.69h0v0c-3.41,2.21-5.16-5.5-10.89-11.29C13.86,11.46,6.7,9.54,7.8,6.48a2.38,2.38,0,0,1,.45-2.73,2.41,2.41,0,0,1,3.15-.22l.25.22a2.88,2.88,0,0,1,.22.27,2.26,2.26,0,0,1,.32-.73,2.31,2.31,0,0,1,.31-.39,2.39,2.39,0,0,1,2.73-.46A2.38,2.38,0,0,1,16.29.88a2.4,2.4,0,0,1,3,.32,2.34,2.34,0,0,1,.65,1.24,2.4,2.4,0,0,1,2.74.46,2.38,2.38,0,0,1,3.09-.25,1.81,1.81,0,0,1,.3.25,2.36,2.36,0,0,1,.69,1.85,2.4,2.4,0,0,1,1.86.69,2.43,2.43,0,0,1,.66,1.24,2.39,2.39,0,0,1,2.8,3.78l-.07.07a1.94,1.94,0,0,1-.27.23,2.36,2.36,0,0,1,1.12.62,2.4,2.4,0,0,1,.46,2.74,2.29,2.29,0,0,1,1.24.66A2.39,2.39,0,0,1,34.56,18.17Z"/><circle class="cls-3" cx="10.92" cy="5.68" r="1.54"/><circle class="cls-3" cx="15.28" cy="5.68" r="1.54"/><circle class="cls-3" cx="18.19" cy="2.77" r="1.54"/><circle class="cls-3" cx="21.83" cy="4.96" r="1.54"/><circle class="cls-3" cx="25.47" cy="7.14" r="1.54"/><circle class="cls-3" cx="27.65" cy="7.86" r="1.54"/><circle class="cls-3" cx="30.56" cy="9.32" r="1.54"/><circle class="cls-3" cx="29.83" cy="11.5" r="1.54"/><circle class="cls-3" cx="32.01" cy="15.14" r="1.54"/><circle class="cls-3" cx="32.74" cy="18.78" r="1.54"/><circle class="cls-3" cx="26.92" cy="11.5" r="1.54"/><circle class="cls-3" cx="24.01" cy="8.59" r="1.54"/><circle class="cls-3" cx="20.38" cy="6.41" r="1.54"/><circle class="cls-3" cx="16.01" cy="7.86" r="1.54"/><circle class="cls-3" cx="17.47" cy="6.41" r="1.54"/><circle class="cls-3" cx="13.1" cy="9.32" r="1.54"/><circle class="cls-3" cx="20.38" cy="10.77" r="1.54"/><circle class="cls-3" cx="25.47" cy="15.87" r="1.54"/><circle class="cls-3" cx="26.92" cy="20.23" r="1.54"/><circle class="cls-3" cx="24.01" cy="5.26" r="1.54"/><circle class="cls-5" cx="21.05" cy="4.32" r="1.76"/><circle class="cls-6" cx="21.05" cy="4.32" r="0.75"/><circle class="cls-5" cx="33.07" cy="16.35" r="1.76"/><circle class="cls-6" cx="33.07" cy="16.35" r="0.75"/><circle class="cls-3" cx="23.71" cy="9.4" r="0.5"/><circle class="cls-3" cx="26.44" cy="12.36" r="0.5"/></g></g></svg>