<?xml version="1.0" encoding="UTF-8" standalone="no"?>
<svg
   viewBox="0 0 45.78 45.74"
   version="1.1"
   id="svg38"
   sodipodi:docname="frogPirate.svg"
   inkscape:version="1.1.1 (3bf5ae0d25, 2021-09-20, custom)"
   xmlns:inkscape="http://www.inkscape.org/namespaces/inkscape"
   xmlns:sodipodi="http://sodipodi.sourceforge.net/DTD/sodipodi-0.dtd"
   xmlns="http://www.w3.org/2000/svg"
   xmlns:svg="http://www.w3.org/2000/svg">
  <sodipodi:namedview
     id="namedview40"
     pagecolor="#505050"
     bordercolor="#ffffff"
     borderopacity="1"
     inkscape:pageshadow="0"
     inkscape:pageopacity="0"
     inkscape:pagecheckerboard="1"
     showgrid="false"
     inkscape:zoom="22.627417"
     inkscape:cx="20.70497"
     inkscape:cy="22.229669"
     inkscape:window-width="1920"
     inkscape:window-height="1027"
     inkscape:window-x="1920"
     inkscape:window-y="53"
     inkscape:window-maximized="1"
     inkscape:current-layer="g1566" />
  <defs
     id="defs4">
    <style
       id="style2">.cls-1{fill:#c6e5b3;}.cls-2{fill:#77b255;}.cls-3{fill:#fff;}.cls-4{fill:#292f33;}.cls-5{fill:#5c913b;}.cls-6{fill:#31373d;}.cls-7{fill:#e6e7e8;}.cls-8{fill:none;}</style>
    <clipPath
       clipPathUnits="userSpaceOnUse"
       id="clipPath3978">
      <g
         id="g3982"
         transform="translate(-41.249062)"
         style="fill:#ffffff;fill-opacity:1">
        <path
           id="path3980"
           style="fill:#ffffff;fill-opacity:1;fill-rule:nonzero;stroke:none;stroke-width:1.25"
           d="m 59.957718,17.520682 c -0.601332,-2.681482 -2.991652,-4.68759 -5.854234,-4.68759 -3.314831,0 -6.003316,2.688485 -6.003316,6.003317 0,1.892045 0.878485,3.577976 2.246241,4.678584"
           sodipodi:nodetypes="cssc" />
      </g>
    </clipPath>
  </defs>
  <g
     id="g1566"
     transform="translate(-41.249062)">
    <path
       id="path22-3"
       style="fill:#c6e5b3;fill-opacity:1;fill-rule:nonzero;stroke:none;stroke-width:1.25"
       d="m 82.119062,32.844348 c 0,7.460121 -8.063455,12.006633 -18.00995,12.006633 -9.946495,0 -18.00995,-4.546512 -18.00995,-12.006633 h 36.0199"
       sodipodi:nodetypes="cscc" />
    <path
       id="path26-6"
       style="fill:#77b255;fill-opacity:1;fill-rule:nonzero;stroke:none;stroke-width:1.25"
       d="m 77.871615,23.514993 c 1.368757,-1.100608 2.246241,-2.786539 2.246241,-4.678584 0,-3.314832 -2.687484,-6.003317 -6.003316,-6.003317 -2.862582,0 -5.252902,2.006108 -5.853234,4.68759 -1.289713,-0.483267 -2.685484,-0.758419 -4.152294,-0.758419 -1.46581,0 -2.862582,0.275152 -4.151294,0.758419 -0.601332,-2.681482 -2.991652,-4.68759 -5.854234,-4.68759 -3.314831,0 -6.003316,2.688485 -6.003316,6.003317 0,1.892045 0.878485,3.577976 2.246241,4.678584 -2.646463,2.681482 -4.247347,6.012322 -4.247347,9.329155 0,7.460121 8.063455,1.000552 18.00995,1.000552 9.947496,0 18.00995,6.459569 18.00995,-1.000552 0,-3.316833 -1.599884,-6.647673 -4.247347,-9.329155" />
    <path
       id="path30-7"
       style="fill:#ffffff;fill-opacity:1;fill-rule:nonzero;stroke:none;stroke-width:1.25"
       d="m 57.105243,18.336332 c 0,1.934069 -1.567867,3.501935 -3.501935,3.501935 -1.934069,0 -3.501935,-1.567866 -3.501935,-3.501935 0,-1.934068 1.567866,-3.501934 3.501935,-3.501934 1.934068,0 3.501935,1.567866 3.501935,3.501934" />
    <path
       id="path34"
       style="fill:#292f33;fill-opacity:1;fill-rule:nonzero;stroke:none;stroke-width:1.25"
       d="m 55.104137,18.336332 c 0,0.829459 -0.671371,1.50083 -1.500829,1.50083 -0.829458,0 -1.500829,-0.671371 -1.500829,-1.50083 0,-0.829458 0.671371,-1.500829 1.500829,-1.500829 0.829458,0 1.500829,0.671371 1.500829,1.500829" />
    <path
       id="path38"
       style="fill:#ffffff;fill-opacity:1;fill-rule:nonzero;stroke:none;stroke-width:1.25"
       d="m 78.116851,18.336332 c 0,1.934069 -1.566866,3.501935 -3.501935,3.501935 -1.935069,0 -3.501935,-1.567866 -3.501935,-3.501935 0,-1.934068 1.566866,-3.501934 3.501935,-3.501934 1.935069,0 3.501935,1.567866 3.501935,3.501934" />
    <path
       id="path42"
       style="fill:#292f33;fill-opacity:1;fill-rule:nonzero;stroke:none;stroke-width:1.25"
       d="m 76.115745,18.336332 c 0,0.829459 -0.672371,1.50083 -1.500829,1.50083 -0.828458,0 -1.500829,-0.671371 -1.500829,-1.50083 0,-0.829458 0.672371,-1.500829 1.500829,-1.500829 0.828458,0 1.500829,0.671371 1.500829,1.500829" />
    <path
       id="path46"
       style="fill:#5c913b;fill-opacity:1;fill-rule:nonzero;stroke:none;stroke-width:1.25"
       d="m 61.107454,30.843242 c 0,0.553306 -0.448248,1.000553 -1.000553,1.000553 -0.552305,0 -1.000553,-0.447247 -1.000553,-1.000553 0,-0.553306 0.448248,-1.000553 1.000553,-1.000553 0.552305,0 1.000553,0.447247 1.000553,1.000553" />
    <path
       id="path50"
       style="fill:#5c913b;fill-opacity:1;fill-rule:nonzero;stroke:none;stroke-width:1.25"
       d="m 69.111876,30.843242 c 0,0.553306 -0.447247,1.000553 -1.000553,1.000553 -0.553306,0 -1.000553,-0.447247 -1.000553,-1.000553 0,-0.553306 0.447247,-1.000553 1.000553,-1.000553 0.553306,0 1.000553,0.447247 1.000553,1.000553" />
  </g>
  <g
     id="g4855"
     style="fill:#292f33;fill-opacity:1;stroke:#292f33;stroke-opacity:1"
     transform="translate(-0.001106)">
    <path
       style="fill:#292f33;fill-opacity:1;stroke:#292f33;stroke-width:0.999998px;stroke-linecap:butt;stroke-linejoin:miter;stroke-opacity:1"
       d="m 8.1286399,16.824321 9.6092321,-1.412934 c 0,0 -1.797652,6.001168 -5.768889,6.671008 -3.6296555,0.687426 -3.8403431,-5.258074 -3.8403431,-5.258074 z"
       id="path925"
       sodipodi:nodetypes="cccc" />
    <path
       style="fill:#292f33;fill-opacity:1;stroke:#292f33;stroke-width:1.4;stroke-linecap:butt;stroke-linejoin:miter;stroke-miterlimit:4;stroke-dasharray:none;stroke-opacity:1"
       d="M 6.5696113,18.57894 C 7.9360301,18.320023 8.7523037,18.085425 9.6069404,17.606514"
       id="path2333"
       clip-path="url(#clipPath3978)"
       sodipodi:nodetypes="cc" />
  </g>
  <g
     id="g4847"
     transform="translate(0,0.23342273)">
    <path
       class="cls-6"
       d="m 45.26,11.51 c -1.42,2.28 -5.58,5.94 -22.31,5.94 -17.71,0 -21.27,-4 -22.58,-6.18 7.8,5.95 16.38,0.48 22.58,0.48 6.2,0 11.14,4.79 22.31,-0.24 z"
       id="path24" />
    <path
       class="cls-4"
       d="m 45.17,11.63 c -11.16,5 -16,0.3 -22.22,0.3 -6.22,0 -14.67,5.47 -22.47,-0.48 A 3,3 0 0 1 0,9.91 c 0.19,-2 7.21,0 10.93,-3.73 A 16.6,16.6 0 0 1 23,1.29 c 4.6,0 7.72,1.33 11.78,4.7 5.33,4.43 10.41,1.63 11,3.87 a 3,3 0 0 1 -0.61,1.77 z"
       id="path26" />
    <path
       class="cls-7"
       d="M 27.48,9.73 A 0.4,0.4 0 0 0 27,10 L 24.14,9 27,7.9 a 0.4,0.4 0 0 0 0.5,0.26 v 0 A 0.41436699,0.41436699 0 0 0 27.22,7.38 v 0 A 0.44,0.44 0 0 0 27.47,6.84 0.4207731,0.4207731 0 1 0 26.68,7.13 L 22.87,8.5 19.08,7.12 a 0.4207731,0.4207731 0 1 0 -0.79,-0.29 0.44,0.44 0 0 0 0.25,0.54 0.41,0.41 0 0 0 -0.52,0.25 0.41,0.41 0 0 0 0.77,0.28 l 2.86,1 -2.86,1 A 0.4,0.4 0 0 0 18.27,9.65 v 0 a 0.42,0.42 0 0 0 -0.25,0.54 v 0 a 0.43,0.43 0 0 0 0.53,0.25 0.4,0.4 0 0 0 -0.25,0.52 v 0 a 0.42,0.42 0 0 0 0.54,0.25 v 0 a 0.4,0.4 0 0 0 0.25,-0.52 v 0 l 3.79,-1.38 3.79,1.38 a 0.41,0.41 0 0 0 0.24,0.53 v 0 a 0.42,0.42 0 0 0 0.54,-0.25 v 0 A 0.42,0.42 0 0 0 27.2,10.44 0.43,0.43 0 0 0 27.72,10.15 0.33,0.33 0 0 0 27.48,9.73 Z"
       id="path28" />
    <path
       class="cls-7"
       d="M 22.87,2.24 A 2.48,2.48 0 0 0 20.36,4.67 V 4.76 A 1.42,1.42 0 0 0 21.2,6 V 6.82 A 0.42,0.42 0 0 0 22,7 0.29,0.29 0 0 0 22,6.87 V 6.34 l 0.42,0.07 v 0.44 a 0.42,0.42 0 1 0 0.84,0 V 6.41 l 0.42,-0.07 v 0.51 a 0.42005952,0.42005952 0 1 0 0.83,0.13 0.29,0.29 0 0 0 0,-0.13 V 6 A 1.43,1.43 0 0 0 25.35,4.73 2.48,2.48 0 0 0 22.9,2.24 Z m -1.05,2.93 c -0.34,0 -0.62,0 -0.62,-0.62 a 0.64,0.64 0 0 1 0.62,-0.63 c 0.63,0 0.63,0.28 0.63,0.63 A 0.64,0.64 0 0 1 21.82,5.17 Z M 22.87,6 c -0.23,0 -0.42,-0.09 -0.42,-0.21 0,-0.12 0.19,-0.21 0.42,-0.21 0.23,0 0.42,0.1 0.42,0.21 C 23.29,5.9 23.1,6 22.87,6 Z M 23.92,5.16 A 0.64,0.64 0 0 1 23.29,4.54 c 0,-0.35 0,-0.63 0.63,-0.63 a 0.64,0.64 0 0 1 0.62,0.63 c 0,0.63 -0.28,0.63 -0.62,0.63 z"
       id="path30" />
  </g>
</svg>
