<svg xmlns="http://www.w3.org/2000/svg" xmlns:xlink="http://www.w3.org/1999/xlink" viewBox="0 0 727.86 727.86"><defs><style>.cls-1{fill:#5c913b;}.cls-2{fill:url(#Unbenannter_Verlauf_388);}.cls-3{fill:#fff;}.cls-4{fill:#292f33;}.cls-5{fill:none;}</style><linearGradient id="Unbenannter_Verlauf_388" x1="363.89" y1="-1304.16" x2="363.89" y2="-1688.69" gradientTransform="matrix(1, 0, 0, -1, 0, -1177.66)" gradientUnits="userSpaceOnUse"><stop offset="0" stop-color="#c6e5b3"/><stop offset="0.02" stop-color="#bfe1ab"/><stop offset="0.09" stop-color="#a9d290"/><stop offset="0.17" stop-color="#96c67a"/><stop offset="0.26" stop-color="#88bd69"/><stop offset="0.38" stop-color="#7eb75e"/><stop offset="0.54" stop-color="#79b357"/><stop offset="1" stop-color="#77b255"/></linearGradient></defs><g id="Ebene_2" data-name="Ebene 2"><g id="Ebene_1-2" data-name="Ebene 1"><circle class="cls-1" cx="49.25" cy="271.58" r="18.28"/><path class="cls-1" d="M727.42,546.74c-2.42-8.11-17.52-57.05-42.95-104C651,381,622.16,336.76,574.16,291.88c-15.44-14.44-30.07-27.34-45.29-38.92h0l-.33-.24-.85-.64c-5.68-4.39-29.62-24.56-21.1-46.83,2.85-7.46,9.74-13.67,17.94-18.68l44.1-.36V169.86h0s-25.82-8.78-71-5.88c-42.41,2.72-80.51,27.52-87.63,31-22.84-6.54-48.9-12.31-79.38-17.48C225.2,159.63,136,188.14,91.22,219.21c-58.68,40.73-57.06,78.67-61.89,97.65-3,11.76-29.65,33.5-29.33,48.76v16.05l5.51,5.68,20.75-7.06,2.48-8.65c8.54-3.06,17.89-7.3,26.38-10.79,21.19-8.72,22.82-13.46,80.72-22.1,26.64-4,54.68-5.11,75.55-5.29,8.12,17.15,28.32,52.41,63.31,69.32,22.75,11,48.24,16.63,68.55,19.52l-2.67,13.39,40.4,6V425.34l0,0h0s-33.91-14.09-54.78-34.95c-14.2-14.2-17.6-35.77-18.32-48.1H308c34.18,6.5,64,11.18,135.46,38.53,13.2,5.06,25.52,10.61,36.75,16.21l-2.11,1.19,32.19,26L548.72,456V439.65l-.12-.12c-.57-.71-44.36-54.95-117.93-91.24-60.81-30-110.74-44.81-179.91-48.16-75.61-3.67-131.33,6-131.33,6s1.56-33.6,58.64-60.37c49.64-23.29,127.73-27.18,217.35-4.32,126.61,32.3,169.79,87.3,224.25,144.14C654.23,421.68,686,472.41,706,507.52L702.64,506,713,532.8l14.84,31.66V548l-.44-1.28Z"/><path class="cls-2" d="M684.49,459.08c-33.5-61.81-62.32-106-110.32-150.88-15.44-14.44-30.07-27.34-45.29-38.92h0l-.34-.24-.82-.63c-5.66-4.36-29.65-24.55-21.12-46.84,9.35-24.46,62-35.39,62-35.39s-25.82-8.77-71-5.87c-42.41,2.72-80.51,27.51-87.63,31-22.84-6.54-48.9-12.3-79.38-17.47C225.21,176,136,204.46,91.23,235.53c-58.68,40.73-57.06,78.68-61.89,97.66C25.86,346.84-9.54,374,2.49,388.76,10,398,35,385.46,55.13,377.17c21.19-8.72,22.82-13.46,80.72-22.1,26.64-4,54.68-5.11,75.55-5.29,8.12,17.16,28.32,52.41,63.31,69.32C322,441.93,381,441.65,381,441.65s-33.91-14.09-54.78-35c-14.2-14.2-17.6-35.77-18.32-48.1H308c34.18,6.5,64,11.19,135.46,38.54,62.48,23.93,105.16,58.73,105.16,58.73s-43.88-54.73-117.94-91.25c-60.81-30-110.74-44.81-179.91-48.17-75.61-3.67-131.33,6-131.33,6s1.56-33.6,58.64-60.37c49.64-23.29,127.73-27.18,217.35-4.32C522,290.1,565.22,345.1,619.68,401.94c58,60.49,108.1,162.3,108.1,162.3s-15.46-53.79-43.29-105.15Z"/><circle class="cls-3" cx="51.01" cy="279.68" r="18.28"/><circle class="cls-4" cx="50.55" cy="279.68" r="7.84"/><rect class="cls-5" width="727.86" height="727.86"/></g></g></svg>