<svg xmlns="http://www.w3.org/2000/svg" viewBox="0 0 1864.46 1864.46"><defs><style>.cls-1{fill:#77b255;}.cls-2{fill:#ffcc4d;}.cls-3{fill:#c6e5b3;}.cls-4{fill:#fff;}.cls-5{fill:#292f33;}.cls-6{fill:#5c913b;}.cls-7{fill:#ffd671;}.cls-8{fill:none;}</style></defs><g id="Ebene_2" data-name="Ebene 2"><g id="Ebene_1-2" data-name="Ebene 1"><path class="cls-1" d="M463.58,737.88c24.1-72.21,390-396.06,699.26-537.9,80.42-36.9,347.48-149.16,439.48-172.16C1792-19.6,1870.21-25.55,1843.84,167.08c-37.26,272.16-243.1,662.95-458.26,1039.53-141,221.74-222.74,338.06-545.53,176.64C517.42,1222,356.05,1060.61,463.58,737.88Z"/><path class="cls-2" d="M1150.42,746.56c200.84,198.32,236.74,487.53,80.21,646.11S784.47,1519,583.58,1320.83c-200.85-198.32-236.79-487.59-80.27-646.11S949.58,548.35,1150.42,746.56Z"/><path class="cls-3" d="M1165.74,1192.3c-32.17,142.26-205.55,194.17-395.22,151.27s-323.83-164.38-291.65-306.64S697.37,785.51,887,828.41,1197.92,1050,1165.74,1192.3Z"/><path class="cls-1" d="M1125,996.08A117.33,117.33,0,1,0,967.56,840.31,229.49,229.49,0,0,0,809.24,804.5,117.34,117.34,0,1,0,600.1,877.35c-62,39.72-106.93,96.33-121.23,159.58-32.18,142.26,149.45,53.86,339.12,96.76s315.58,200.87,347.75,58.61C1180.05,1129.05,1163.89,1058.62,1125,996.08Z"/><circle class="cls-4" cx="684.55" cy="792.64" r="68.47"/><circle class="cls-5" cx="684.55" cy="792.64" r="29.34"/><circle class="cls-4" cx="1085.22" cy="883.27" r="68.47"/><circle class="cls-5" cx="1085.22" cy="883.27" r="29.34"/><circle class="cls-6" cx="754.62" cy="1059.19" r="19.56"/><circle class="cls-6" cx="907.26" cy="1093.72" r="19.56"/><path class="cls-6" d="M1385.63,305.35c60,30,142.27,189.74,142.27,237.16s-47.43-47.42-142.27-142.32S1290.74,257.93,1385.63,305.35ZM1395.16,728c31.95,30.42,53.1,146.69,44,176.53s-20.79-39-62.27-116.84S1344.53,679.93,1395.16,728Z"/><path class="cls-1" d="M1072,1653.93c0,116.27-235.64,210.53-526.32,210.53S19.31,1759.2,19.31,1653.93c0-19.52-10.68-136.84,4.42-155.68,66.11-82.79,285.16-54.84,521.9-54.84,258.31,0,480.68-45.53,525.21,52.63C1076.47,1508.3,1072,1641,1072,1653.93Z"/><ellipse class="cls-7" cx="545.63" cy="1496.04" rx="526.32" ry="210.53"/><path class="cls-3" d="M277.65,1365.23c70.68-60,251.65-60.6,421.76-16.31s264.93,116.74,194.25,176.71-280.09,84.73-450.2,40.43S207,1425.19,277.65,1365.23Z"/><path class="cls-1" d="M261.9,1459.13c-33.84,2.75-64.82,12.4-82.74,27.61-31.41,26.64-10.9,60.22,45.79,75,48.95,12.75,108.83,7.28,144.53-11.61,17.46,9.63,38.72,18.05,63.81,24.58a430.19,430.19,0,0,0,78.18,12.39c-15.13,24.24,6.75,51,55.71,63.75,56.69,14.76,128.14,5.12,159.55-21.52,17.92-15.21,18.89-32.67,5.91-47.61,70.66-9.77,129.6-29.41,161-56.07,70.68-60-128.42-44-298.52-88.24s-246.81-132.12-317.49-72.16C246.22,1391.89,242,1425.79,261.9,1459.13Z"/><ellipse class="cls-4" cx="627.87" cy="1608.82" rx="68.47" ry="32.18"/><ellipse class="cls-5" cx="627.87" cy="1608.82" rx="29.34" ry="13.79"/><ellipse class="cls-4" cx="268.53" cy="1515.26" rx="68.47" ry="32.18"/><ellipse class="cls-5" cx="268.53" cy="1515.26" rx="29.34" ry="13.79"/><ellipse class="cls-6" cx="635.14" cy="1479.33" rx="19.56" ry="9.19"/><ellipse class="cls-6" cx="498.25" cy="1443.69" rx="19.56" ry="9.19"/><rect class="cls-8" width="1864.46" height="1864.46"/></g></g></svg>