<?xml version="1.0" encoding="UTF-8" standalone="no"?>
<svg
   viewBox="0 0 36 36"
   version="1.1"
   id="svg40"
   sodipodi:docname="frog_astronaut.svg"
   inkscape:version="1.1.1 (3bf5ae0d25, 2021-09-20, custom)"
   xmlns:inkscape="http://www.inkscape.org/namespaces/inkscape"
   xmlns:sodipodi="http://sodipodi.sourceforge.net/DTD/sodipodi-0.dtd"
   xmlns="http://www.w3.org/2000/svg"
   xmlns:svg="http://www.w3.org/2000/svg">
  <defs
     id="defs44" />
  <sodipodi:namedview
     id="namedview42"
     pagecolor="#505050"
     bordercolor="#eeeeee"
     borderopacity="1"
     inkscape:pageshadow="0"
     inkscape:pageopacity="0"
     inkscape:pagecheckerboard="0"
     showgrid="false"
     inkscape:zoom="16"
     inkscape:cx="30.3125"
     inkscape:cy="21.03125"
     inkscape:window-width="1920"
     inkscape:window-height="1080"
     inkscape:window-x="1280"
     inkscape:window-y="0"
     inkscape:window-maximized="1"
     inkscape:current-layer="layer1" />
  <path
     fill="#E1E8ED"
     d="M36 36v-2c0-3.313-2.687-6-6-6H14c-3.313 0-6 2.687-6 6v2h28z"
     id="path2" />
  <path
     fill="#EA596E"
     d="M29.799 28.127c0 1.36-3.491 2.434-7.799 2.434-4.307 0-7.799-1.06-7.799-2.42 0-.062.015-.141.029-.141h-.734l-.705.099.006 1.017c.114 2.405 4.186 3.392 9.203 3.392 4.996 0 9.054-1.009 9.2-3.414l.014-.974c0 .002-1.415-.055-1.415.007z"
     id="path4" />
  <ellipse
     fill="#BE1931"
     cx="22"
     cy="28.07"
     rx="9.214"
     ry="3.439"
     id="ellipse6" />
  <path
     fill="#292F33"
     d="M22 30.533c-4.307 0-7.799-1.103-7.799-2.463s3.492-2.463 7.799-2.463 7.799 1.103 7.799 2.463-3.492 2.463-7.799 2.463z"
     id="path8" />
  <path
     fill="#55ACEE"
     d="M33 33v3h3v-2c0-.341-.035-.674-.09-1H33z"
     id="path24" />
  <path
     fill="#FFCC4D"
     d="m 34,34 h 2 v 2 h -2 z"
     id="path26"
     style="fill:#91cf78;fill-opacity:1" />
  <g
     id="g1420"
     transform="matrix(0.66897439,0,0,0.65941305,10.087,7.2014562)"
     style="stroke-width:0.99973424;stroke-miterlimit:4;stroke-dasharray:none">
    <path
       fill="#c6e5b3"
       d="M 36,22 C 36,29.456 27.941,34 18,34 8.059,34 0,29.456 0,22 0,14.544 8.059,7 18,7 c 9.941,0 18,7.544 18,15 z"
       id="path1390"
       style="stroke-width:0.99973424;stroke-miterlimit:4;stroke-dasharray:none" />
    <path
       fill="#77b255"
       d="M 31.755,12.676 C 33.123,11.576 34,9.891 34,8 34,4.687 31.313,2 28,2 25.139,2 22.75,4.004 22.149,6.685 20.861,6.202 19.466,5.927 18,5.927 16.535,5.927 15.139,6.202 13.851,6.685 13.25,4.004 10.861,2 8,2 4.687,2 2,4.687 2,8 2,9.891 2.877,11.576 4.245,12.676 1.6,15.356 0,18.685 0,22 c 0,7.456 8.059,1 18,1 9.941,0 18,6.456 18,-1 0,-3.315 -1.6,-6.644 -4.245,-9.324 z"
       id="path1392"
       style="stroke-width:0.99973424;stroke-miterlimit:4;stroke-dasharray:none" />
    <circle
       fill="#ffffff"
       cx="7.5"
       cy="7.5"
       r="3.5"
       id="circle1394"
       style="stroke-width:0.99973424;stroke-miterlimit:4;stroke-dasharray:none" />
    <circle
       fill="#292f33"
       cx="7.5"
       cy="7.5"
       r="1.5"
       id="circle1396"
       style="stroke-width:0.99973424;stroke-miterlimit:4;stroke-dasharray:none" />
    <circle
       fill="#ffffff"
       cx="28.5"
       cy="7.5"
       r="3.5"
       id="circle1398"
       style="stroke-width:0.99973424;stroke-miterlimit:4;stroke-dasharray:none" />
    <circle
       fill="#292f33"
       cx="28.5"
       cy="7.5"
       r="1.5"
       id="circle1400"
       style="stroke-width:0.99973424;stroke-miterlimit:4;stroke-dasharray:none" />
    <circle
       fill="#5c913b"
       cx="14"
       cy="20"
       r="1"
       id="circle1402"
       style="stroke-width:0.99973424;stroke-miterlimit:4;stroke-dasharray:none" />
    <circle
       fill="#5c913b"
       cx="22"
       cy="20"
       r="1"
       id="circle1404"
       style="stroke-width:0.99973424;stroke-miterlimit:4;stroke-dasharray:none" />
  </g>
  <g
     inkscape:groupmode="layer"
     id="layer5"
     inkscape:label="Layer 4">
    <path
       fill="#e1e8ed"
       d="M 23.974357,36 C 22.779352,30.854 17.941477,27 12.147,27 6.3525225,27 1.5146475,30.854 0.3196425,36 Z"
       id="path28"
       style="stroke-width:0.998754" />
  </g>
  <g
     inkscape:groupmode="layer"
     id="layer4"
     inkscape:label="Layer 3">
    <path
       fill="#292f33"
       d="M 22.642695,36 C 21.472628,31.536 17.224275,28.222 12.147,28.222 7.069725,28.222 2.8213725,31.536 1.651305,36 Z"
       id="path30"
       style="stroke-width:0.998754" />
  </g>
  <g
     inkscape:groupmode="layer"
     id="layer3"
     inkscape:label="Layer 2">
    <path
       fill="#ffac33"
       d="M 21.613275,36 C 20.468145,32.063 16.669665,29.167 12.147,29.167 7.624335,29.167 3.825855,32.063 2.680725,36 Z"
       id="path32"
       style="fill:#6ea24d;fill-opacity:1;stroke-width:0.998754" />
  </g>
  <g
     inkscape:groupmode="layer"
     id="layer1"
     inkscape:label="Layer 1"
     style="display:inline">
    <path
       fill="#ffdc5d"
       d="m 18.189944,35.048 0.102742,-0.063 c 0.767078,-0.468 0.92568,-1.538 0.300248,-2.182 -0.46683,-0.48 -0.990518,-0.909 -1.562085,-1.267 -0.5586,-0.35 -1.156103,-0.621 -1.780538,-0.827 -0.82593,-0.273 -1.706722,0.233 -1.861335,1.091 -0.118702,0.661 0.22344,1.346 0.852863,1.578 0.862837,0.318 1.622932,0.828 2.225422,1.474 0.441893,0.472 1.171065,0.533 1.722683,0.196 z"
       id="path34"
       style="fill:#b3dd9a;fill-opacity:1;stroke-width:0.998754" />
  </g>
  <path
     fill="#5dadec"
     d="M 11.28,4.634 8.67,3.668 7.704,1.058 C 7.543,0.625 7.131,0.338 6.669,0.338 c -0.462,0 -0.874,0.287 -1.035,0.72 l -0.966,2.61 -2.61,0.966 c -0.433,0.161 -0.72,0.5729998 -0.72,1.0349998 0,0.462 0.287,0.875 0.72,1.035 l 2.61,0.966 0.966,2.6099992 c 0.16,0.433 0.573,0.72 1.035,0.72 0.462,0 0.875,-0.287 1.035,-0.72 l 0.966,-2.6099992 2.61,-0.966 c 0.433,-0.161 0.72,-0.573 0.72,-1.035 C 12,5.2069998 11.713,4.794 11.28,4.634 Z"
     id="path4439"
     style="fill:#ffac33;fill-opacity:1" />
  <path
     fill="#9266cc"
     d="m 6.344,14.262 -1.542,-0.571 -0.6,-2.2 C 4.123,11.201 3.859,11 3.559,11 3.258,11 2.995,11.201 2.916,11.492 l -0.6,2.2 -1.542,0.571 c -0.262,0.096 -0.435,0.346 -0.435,0.625 0,0.279 0.173,0.529 0.435,0.625 l 1.534,0.568 0.604,2.415 C 2.986,18.792 3.253,19 3.559,19 3.865,19 4.131,18.792 4.206,18.495 L 4.81,16.08 6.344,15.512 c 0.262,-0.096 0.435,-0.346 0.435,-0.625 0,-0.278 -0.173,-0.528 -0.435,-0.625 z"
     id="path4437"
     style="fill:#e5da60;fill-opacity:1" />
</svg>
