<svg xmlns="http://www.w3.org/2000/svg" viewBox="0 0 271.91 271.91"><defs><style>.cls-1{fill:#c6e5b3;}.cls-2{fill:#77b255;}.cls-3{fill:#fff;}.cls-4{fill:#292f33;}.cls-5{fill:#5c913b;}.cls-6{fill:#dd2e44;}.cls-7{fill:#ea596e;}.cls-8{fill:#3b88c3;}.cls-9{fill:#88c9f9;}.cls-10{fill:#269;}.cls-11{fill:#55acee;}.cls-12{fill:none;}</style></defs><g id="Ebene_2" data-name="Ebene 2"><g id="Ebene_1-2" data-name="Ebene 1"><path class="cls-1" d="M240.4,174.75c10.1,40.12-27.11,75.47-80.59,88.93s-103-.08-113.09-40.19,23-91.61,76.54-105.07S230.31,134.64,240.4,174.75Z"/><path class="cls-2" d="M204.94,130.34a33.27,33.27,0,1,0-59.79-19.23,65.05,65.05,0,0,0-44.64,11.24,33.28,33.28,0,1,0-43.57,45.23c-10.6,18-14.7,38.08-10.22,55.91,10.1,40.11,44.72-5.53,98.2-19s105.58,10.37,95.48-29.75C235.91,156.92,222.8,141.18,204.94,130.34Z"/><circle class="cls-3" cx="67.44" cy="135.33" r="19.42"/><circle class="cls-4" cx="67.44" cy="135.33" r="8.32"/><circle class="cls-3" cx="180.42" cy="106.9" r="19.42"/><circle class="cls-4" cx="180.42" cy="106.9" r="8.32"/><circle class="cls-5" cx="119.34" cy="193.78" r="5.55"/><circle class="cls-5" cx="162.38" cy="182.95" r="5.55"/><path class="cls-6" d="M209.36,81.85a2.7,2.7,0,0,0-1-1.38S102.75-1.83,95.39,0,34.71,124.7,34.71,124.7a2.69,2.69,0,0,0-.26,1.72c1.86,7.3,42.52,3.23,90.82-9.07S211.22,89.16,209.36,81.85Z"/><path class="cls-7" d="M95,.34a4.49,4.49,0,0,0-.74.76c-4,10.68-35.3,99.35-41.58,128.86,13.58-.48,28.42-3,46.14-6.5C98.15,98.39,101.38,2.48,95,.34Z"/><path class="cls-8" d="M216.56,204.05l-2.46,14.46-58.86-5.29c-5.56-.32-14.82-.11-16.72-6.94,2.1-.64,4.24-1.24,6.4-1.78,13.68-3.45,27.26-4.44,39.74-4.7Z"/><path class="cls-9" d="M216.55,204.05,193,200.81c-2.75-.41-5.06,3.75-5,8.08,0,4.8,1.5,7.19,4.28,7.66l23.07,2.08Z"/><path class="cls-8" d="M241.38,201.58l-14.09,13.84L200.37,188l14.09-13.85a18.71,18.71,0,0,1,26.38.24l.78.79A18.72,18.72,0,0,1,241.38,201.58Z"/><ellipse class="cls-9" cx="213.82" cy="201.73" rx="15.37" ry="19.21" transform="translate(-80.08 207.64) rotate(-44.49)"/><ellipse class="cls-10" cx="213.82" cy="201.73" rx="7.68" ry="11.52" transform="translate(-80.08 207.64) rotate(-44.49)"/><circle class="cls-11" cx="52.16" cy="263.59" r="8.32"/><circle class="cls-11" cx="226.91" cy="94.27" r="11.1"/><path class="cls-7" d="M41.9,201.12,28.93,170,17.2,203.5ZM188.75,264l-22.19,5.54,5.54-22.19Z"/><path class="cls-1" d="M221.29,145.81l33.42-12.08-8.41-18.15Z"/><rect class="cls-12" width="271.91" height="271.91"/></g></g></svg>