<?xml version="1.0" encoding="utf-8"?>
<!-- Generator: Adobe Illustrator 25.0.0, SVG Export Plug-In . SVG Version: 6.00 Build 0)  -->
<svg version="1.1" id="Ebene_1" xmlns="http://www.w3.org/2000/svg" xmlns:xlink="http://www.w3.org/1999/xlink" x="0px" y="0px"
	 viewBox="0 0 34.2 34.2" style="enable-background:new 0 0 34.2 34.2;" xml:space="preserve">
<style type="text/css">
	.st0{fill:#3F6328;}
	.st1{fill:#5C913B;}
	.st2{fill:#77B255;}
	.st3{fill:none;}
</style>
<g id="Ebene_2_1_">
	<g id="Ebene_1-2">
		<path class="st0" d="M16,16.9c0,0-6,5.3-7.7,6.8c-1.3,1.2,0.9,3.5,2.1,2.5c2.1-1.7,4.3-3.3,6.5-4.9l0.4,0.5
			c-2.3,1.3-4.4,2.8-6.4,4.4c-1.3,1.2,0.8,3.6,2.1,2.4c1.8-1.6,6-4.6,6-4.6l0.4,0.4c-1.8,1.2-3.5,2.5-5,4c-1.3,1.2,0.6,2.4,1.7,1.5
			c3.1-2.6,3.2-4.4,6.7-5.9C27.9,21.9,16,16.9,16,16.9z"/>
		<path class="st1" d="M29,7.7c0.9-0.4,1.6,0.2,2.1,1.1s2.5,5,3,5.9c0.4,0.9,0.1,2-0.7,2.6c-1.3,0.5-2.3,1.4-3.1,2.5
			c-0.5,0.8-2.4,2.9-7.6,5.1c-2.6,1.2-5.1,2.9-7.3,4.8c-0.9,0.7-2.7-0.6-1.4-1.9c1.6-1.5,3.2-2.8,5-4l-0.4-0.4c0,0-4.4,3.1-6.2,4.6
			c-1.3,1.1-2.9-1-1.6-2.1c1.9-1.7,4-3.3,6.2-4.7l-0.4-0.5c-2.3,1.5-4.6,3.2-6.8,5c-1.1,0.9-2.8-1.2-1.5-2.4c2.2-2,4.6-3.9,7.1-5.5
			l-0.2-0.6c-2.2,1.3-4.2,2.8-6,4.5c-1,1-3-0.8-1.5-2.3c3.5-3.5,8-5.6,9.1-6.4c1.6-1.1,2.5-1.8,1.6-2.1c-1.8-1-3.2-2.5-4.2-4.2
			c-1.1-2.1,0.4-3.8,2.1-2.1c1,1,3.1,3.2,5.3,3.2c2.8,0,3.3,1.1,5.3,1.1C27.7,8.6,28.4,8.3,29,7.7"/>
		<path class="st0" d="M24,14c-0.9-0.1-1.8-0.3-2.7-0.7c-1-0.5-1.9-1.3-2.6-2.1c0,0.2-0.1,0.4-0.3,0.6c0.7,0.9,1.6,1.6,2.7,2.1
			c0.9,0.5,1.9,0.7,2.9,0.8C24.6,14.6,24.4,14,24,14z M26.2,22.6c-2.3-1-4.1-1.9-1-0.7c1.3,0.5,3.2-2.1,1.3-2.9
			C22.8,17.3,11,10.9,11,10.9s-6.4,7.4-5.6,7.9s1.1,3.9,5.7,6.8c2.6,1.7,5.2,3.2,8,4.5c2.1,1,3.5-1.7,1.8-2.4
			c-2.8-1.3-2.7-1.3,1.4,0.4c1.5,0.6,2.8-2.2,1.2-3c-2.4-1.1-2.6-1.2,1.2,0.5C26.2,26.3,27.8,23.4,26.2,22.6L26.2,22.6z"/>
		<path class="st2" d="M6.1,8.1c-0.9-0.5-2-0.2-2.5,0.6l-3.3,5.5c-0.5,0.9-0.3,2,0.5,2.6l3.2,2c0.8,0.5,4,4.5,8.7,7.3
			c2.3,1.5,4.8,2.8,7.4,3.7c1,0.4,2.4-1.7,0.8-2.4c-2.1-0.9-4-2-5.9-3.3l0.3-0.6c2.2,1.5,4.5,2.8,7,3.8c1.5,0.6,2.8-1.8,1.2-2.5
			c-2.3-1.1-4.5-2.3-6.6-3.8l0.3-0.6c2.5,1.6,5.1,3,7.8,4.2c1.4,0.6,2.6-1.8,1-2.5c-2.5-1.3-5-2.7-7.4-4.3l0.3-0.5
			c2.1,1.5,4.4,2.8,6.7,3.8c0.8,0.2,1.5-0.3,1.7-1.1c0.1-0.7-0.2-1.3-0.8-1.6c-3.2-1.6-6.3-3.4-9.2-5.6c-0.9-0.7-1.2-2.4,1-3.2
			c3.2-1.1,4.2-3.2,4.2-4.2c0-1.5-1.4-2.2-2.1-1.1c-2.1,3.2-3.2,2.1-5.3,3.2C12.8,9,9.8,10.4,8.1,9.3L6.1,8.1"/>
		<path class="st1" d="M18,10.6l5.4-2.7c-0.6-0.1-1.2-0.2-1.8-0.2c-2.1,0-4.2-2.1-5.3-3.2c-1.7-1.7-3.2,0-2.1,2.1
			C15.2,8.2,16.5,9.6,18,10.6z"/>
		<rect y="0" class="st3" width="34.2" height="34.2"/>
	</g>
</g>
</svg>
