<?xml version="1.0" encoding="utf-8"?>
<!-- Generator: Adobe Illustrator 25.0.0, SVG Export Plug-In . SVG Version: 6.00 Build 0)  -->
<svg version="1.1" id="Ebene_1" xmlns="http://www.w3.org/2000/svg" xmlns:xlink="http://www.w3.org/1999/xlink" x="0px" y="0px"
	 viewBox="0 0 4099.3 4099.3" style="enable-background:new 0 0 4099.3 4099.3;" xml:space="preserve">
<style type="text/css">
	.st0{fill:#77B255;}
	.st1{fill:#C6E5B3;}
	.st2{fill:#FFFFFF;}
	.st3{fill:#292F33;}
	.st4{fill:#5C913B;}
	.st5{fill:none;}
</style>
<g id="Ebene_2_1_">
	<g id="Ebene_1-2">
		<path class="st0" d="M3273.9,3988.1c0,39.1-25.9,76.5-71.2,111.3H896.6c-45.2-34.8-71.1-72.2-71.1-111.3
			c0-54,48.1-104.8,131.4-149.9c-71.3-73-131.4-175.9-131.4-317.4c0-350.5,405.7-751.6,556.5-1090.8
			c148.3-333.9,234.2-653.8,9.2-744.3c-7-2.8-12.6-5.4-18.8-8.1c-64.4-24.3-101.7-52.3-101.7-82.2c0-51.2,107.9-97,277.6-127.7
			c336.5,100.2,670.9,100.2,1003,0c169.6,30.6,277.6,76.5,277.6,127.7c0,29.9-37.3,58-101.6,82.2l-18.9,8.1
			c-224.9,90.5-139.1,410.4,9.2,744.3c150.8,339.2,556.5,740.3,556.5,1090.8c0,141.4-60.1,244.4-131.4,317.4
			C3225.8,3883.2,3273.9,3934.1,3273.9,3988.1z"/>
		<path class="st1" d="M2551.1,1467.6c-332.1,100.2-666.5,100.2-1003,0c-422.3-428.5-277.6-356.6-277.6-595.7
			c0-54.5,5.6-108.9,16.9-162.3l1536.8,79.5c2.9,27.5,4.4,55.1,4.4,82.8C2828.7,1111,2962.6,1061.4,2551.1,1467.6z"/>
		<path class="st0" d="M2824.4,789.1l-1536.8-79.5c74.7-352.4,387.5-616.7,762.1-616.7C2452,92.8,2783.1,397.8,2824.4,789.1z"/>
		<path class="st1" d="M2885.9,928.4c0,346.1-374.1,557-835.6,557s-835.6-210.9-835.6-557s374.1-666.3,835.6-666.3
			S2885.9,582.3,2885.9,928.4z"/>
		<path class="st0" d="M2688.9,495.6c63.5-51.1,104.2-129.3,104.2-217C2793.1,124.7,2668.4,0,2514.6,0
			c-132.8,0-243.7,93-271.6,217.5c-124.1-46.9-261.1-46.9-385.2,0C1829.9,93,1719,0,1586.2,0c-153.8,0-278.5,124.7-278.5,278.5
			c0,87.8,40.7,166,104.2,217.1c-122.8,124.4-197,278.9-197,432.8c0,346.1,374.1,46.4,835.5,46.4s835.6,299.7,835.6-46.4
			C2885.9,774.5,2811.7,620,2688.9,495.6z"/>
		<circle class="st2" cx="1563" cy="255.3" r="162.5"/>
		<circle class="st3" cx="1563" cy="255.3" r="69.6"/>
		<circle class="st2" cx="2537.8" cy="255.3" r="162.5"/>
		<circle class="st3" cx="2537.8" cy="255.3" r="69.6"/>
		<circle class="st4" cx="1864.7" cy="835.5" r="46.4"/>
		<circle class="st4" cx="2236.1" cy="835.5" r="46.4"/>
		<path class="st4" d="M2494.8,1650.9c-8.7,0-17.2-2-24.9-5.9c-0.4-0.1-109.9-49.8-420.2-49.8s-419.8,49.6-420.9,50.1
			c-27.8,13-61,1-74-26.8c-12.7-27.1-1.7-59.4,25-73.1c12.6-6.2,132.7-61.4,470-61.4s457.4,55.2,470.1,61.5
			c27.5,13.7,38.7,47.1,25,74.6C2535.4,1639,2516,1651,2494.8,1650.9L2494.8,1650.9z M1159.3,3932.4c-30.7,0.2-55.8-24.6-55.9-55.3
			c-0.2-28.8,21.8-53,50.5-55.7c5.4-0.7,563-56,895.8-56s890.2,55.3,895.9,56c30.5,3,52.8,30.1,49.8,60.6c0,0.1,0,0.2,0,0.3
			c-3,30.5-30.6,53.3-60.9,49.7c-5.6-0.6-557.6-55.3-884.8-55.3s-879.2,54.8-884.8,55.3L1159.3,3932.4z"/>
		<rect y="0" class="st5" width="4099.3" height="4099.3"/>
	</g>
</g>
</svg>
