<?xml version="1.0" encoding="UTF-8" standalone="no"?>
<svg
   viewBox="0 0 36 36"
   version="1.1"
   id="svg34"
   sodipodi:docname="frogForMe.svg"
   inkscape:version="1.1.1 (3bf5ae0d25, 2021-09-20, custom)"
   xmlns:inkscape="http://www.inkscape.org/namespaces/inkscape"
   xmlns:sodipodi="http://sodipodi.sourceforge.net/DTD/sodipodi-0.dtd"
   xmlns="http://www.w3.org/2000/svg"
   xmlns:svg="http://www.w3.org/2000/svg">
  <sodipodi:namedview
     id="namedview36"
     pagecolor="#505050"
     bordercolor="#ffffff"
     borderopacity="1"
     inkscape:pageshadow="0"
     inkscape:pageopacity="0"
     inkscape:pagecheckerboard="1"
     showgrid="false"
     inkscape:zoom="12.375"
     inkscape:cx="13.050505"
     inkscape:cy="9.2525252"
     inkscape:window-width="1920"
     inkscape:window-height="1026"
     inkscape:window-x="1920"
     inkscape:window-y="54"
     inkscape:window-maximized="1"
     inkscape:current-layer="svg34" />
  <defs
     id="defs4">
    <style
       id="style2">.cls-1{fill:#c6e5b3;}.cls-2,.cls-6{fill:#77b255;}.cls-3{fill:#fff;}.cls-4{fill:#292f33;}.cls-5{fill:#5c913b;}.cls-6{stroke:#3f6328;stroke-miterlimit:10;stroke-width:0.25px;}.cls-7{fill:none;}</style>
  </defs>
  <g
     id="g997"
     transform="matrix(0.79999777,0,0,0.79999777,2.2294198,4.1036605)"
     style="stroke-width:1.25">
    <path
       id="path22-3"
       style="fill:#c6e5b3;fill-opacity:1;fill-rule:nonzero;stroke:none;stroke-width:1.5625"
       d="m 42.213343,22.370667 c 0,9.32 -10.073751,15 -22.500001,15 -12.4262495,0 -22.4999995,-5.68 -22.4999995,-15 H 42.213343"
       sodipodi:nodetypes="cscc" />
    <path
       id="path26-6"
       style="fill:#77b255;fill-opacity:1;fill-rule:nonzero;stroke:none;stroke-width:1.5625"
       d="m 36.906967,10.715417 c 1.710001,-1.375 2.80625,-3.48125 2.80625,-5.845 0,-4.14125 -3.3575,-7.5 -7.5,-7.5 -3.57625,0 -6.5625,2.50625 -7.3125,5.85625 -1.61125,-0.60375 -3.355,-0.9475 -5.1875,-0.9475 -1.83125,0 -3.57625,0.34375 -5.18625,0.9475 -0.75125,-3.35 -3.7375,-5.85625 -7.3137495,-5.85625 -4.14125,0 -7.5,3.35875 -7.5,7.5 0,2.36375 1.0975,4.47 2.80625,5.845 -3.30625,3.35 -5.30625,7.51125 -5.30625,11.655 0,9.32 10.07375,1.25 22.4999995,1.25 12.4275,0 22.5,8.07 22.5,-1.25 0,-4.14375 -1.998749,-8.305 -5.30625,-11.655" />
    <path
       id="path30"
       style="fill:#ffffff;fill-opacity:1;fill-rule:nonzero;stroke:none;stroke-width:1.5625"
       d="m 10.963343,4.245667 c 0,2.41625 -1.9587505,4.375 -4.3750005,4.375 -2.41625,0 -4.375,-1.95875 -4.375,-4.375 0,-2.41625 1.95875,-4.375 4.375,-4.375 2.41625,0 4.3750005,1.95875 4.3750005,4.375" />
    <path
       id="path34"
       style="fill:#292f33;fill-opacity:1;fill-rule:nonzero;stroke:none;stroke-width:1.5625"
       d="m 8.4633425,4.245667 c 0,1.03625 -0.83875,1.875 -1.875,1.875 -1.03625,0 -1.875,-0.83875 -1.875,-1.875 0,-1.03625 0.83875,-1.875 1.875,-1.875 1.03625,0 1.875,0.83875 1.875,1.875" />
    <path
       id="path38"
       style="fill:#ffffff;fill-opacity:1;fill-rule:nonzero;stroke:none;stroke-width:1.5625"
       d="m 37.213343,4.245667 c 0,2.41625 -1.9575,4.375 -4.375,4.375 -2.417501,0 -4.375001,-1.95875 -4.375001,-4.375 0,-2.41625 1.9575,-4.375 4.375001,-4.375 2.4175,0 4.375,1.95875 4.375,4.375" />
    <path
       id="path42"
       style="fill:#292f33;fill-opacity:1;fill-rule:nonzero;stroke:none;stroke-width:1.5625"
       d="m 34.713343,4.245667 c 0,1.03625 -0.840001,1.875 -1.875,1.875 -1.035,0 -1.875001,-0.83875 -1.875001,-1.875 0,-1.03625 0.840001,-1.875 1.875001,-1.875 1.034999,0 1.875,0.83875 1.875,1.875" />
    <path
       id="path46"
       style="fill:#5c913b;fill-opacity:1;fill-rule:nonzero;stroke:none;stroke-width:1.5625"
       d="m 15.963343,19.870667 c 0,0.69125 -0.560001,1.25 -1.25,1.25 -0.69,0 -1.25,-0.55875 -1.25,-1.25 0,-0.69125 0.56,-1.25 1.25,-1.25 0.689999,0 1.25,0.55875 1.25,1.25" />
    <path
       id="path50"
       style="fill:#5c913b;fill-opacity:1;fill-rule:nonzero;stroke:none;stroke-width:1.5625"
       d="m 25.963342,19.870667 c 0,0.69125 -0.55875,1.25 -1.25,1.25 -0.69125,0 -1.25,-0.55875 -1.25,-1.25 0,-0.69125 0.55875,-1.25 1.25,-1.25 0.69125,0 1.25,0.55875 1.25,1.25" />
  </g>
  <g
     id="Ebene_2-2"
     data-name="Ebene 2">
    <g
       id="Ebene_1-2-2"
       data-name="Ebene 1-2">
      <path
         class="cls-6"
         d="m 8.05,35 c 0,0 1.06,-0.09 1.36,-0.79 a 0.76,0.76 0 0 0 -0.28,-1 v 0 a 1.24,1.24 0 0 0 1.17,-0.84 1,1 0 0 0 -0.45,-1.22 1.44,1.44 0 0 0 1.07,-1 1.34,1.34 0 0 0 -0.49,-1.32 h 5.42 a 1.09,1.09 0 0 0 1.15,-1 V 27.72 A 1.06,1.06 0 0 0 16,26.63 H 6.74 c -0.44,0 -0.44,-0.44 0,-0.44 h 1.19 a 4.19,4.19 0 0 0 3,-1.23 1.33,1.33 0 0 0 0.33,-1.25 C 11.08,22.82 10.41,23.03 9.84,23.27 A 19.39,19.39 0 0 1 5.6,24.41 5.36,5.36 0 0 0 6.3,35 Z"
         id="path22" />
    </g>
  </g>
  <g
     id="Ebene_2-3"
     data-name="Ebene 2">
    <g
       id="Ebene_1-2-3"
       data-name="Ebene 1-2">
      <path
         class="cls-6"
         d="m 28,35 c 0,0 -1.09,-0.07 -1.37,-0.79 a 0.77,0.77 0 0 1 0.28,-1 1.24,1.24 0 0 1 -1.17,-0.84 1,1 0 0 1 0.45,-1.22 1.45,1.45 0 0 1 -1.08,-1 1.36,1.36 0 0 1 0.5,-1.32 h -5.46 a 1.09,1.09 0 0 1 -1.15,-1 v -0.11 a 1.06,1.06 0 0 1 1,-1.09 h 9.23 c 0.44,0 0.44,-0.44 0,-0.44 h -1.16 a 4.19,4.19 0 0 1 -3,-1.23 1.33,1.33 0 0 1 -0.33,-1.25 c 0.18,-0.89 0.85,-0.68 1.42,-0.44 A 19.39,19.39 0 0 0 30.4,24.41 5.36,5.36 0 0 1 29.7,35 Z"
         id="path26" />
    </g>
  </g>
  <rect
     class="cls-7"
     width="36"
     height="36"
     id="rect30"
     x="0"
     y="0" />
</svg>
