<?xml version="1.0" encoding="UTF-8" standalone="no"?>
<svg
   viewBox="0 0 36 36"
   version="1.1"
   id="svg70"
   sodipodi:docname="frogBroccoli.svg"
   inkscape:version="1.1.1 (3bf5ae0d25, 2021-09-20, custom)"
   xmlns:inkscape="http://www.inkscape.org/namespaces/inkscape"
   xmlns:sodipodi="http://sodipodi.sourceforge.net/DTD/sodipodi-0.dtd"
   xmlns="http://www.w3.org/2000/svg"
   xmlns:svg="http://www.w3.org/2000/svg">
  <sodipodi:namedview
     id="namedview72"
     pagecolor="#505050"
     bordercolor="#ffffff"
     borderopacity="1"
     inkscape:pageshadow="0"
     inkscape:pageopacity="0"
     inkscape:pagecheckerboard="1"
     showgrid="false"
     inkscape:zoom="11.313709"
     inkscape:cx="6.5849319"
     inkscape:cy="17.987029"
     inkscape:window-width="1920"
     inkscape:window-height="1026"
     inkscape:window-x="1920"
     inkscape:window-y="54"
     inkscape:window-maximized="1"
     inkscape:current-layer="Ebene_1-2" />
  <defs
     id="defs4">
    <style
       id="style2">.cls-1{fill:none;}.cls-2{fill:#77b255;}.cls-3{fill:#5c913b;}.cls-4{fill:#c6e5b3;}.cls-5{fill:#fff;}.cls-6{fill:#292f33;}</style>
  </defs>
  <g
     id="Ebene_2"
     data-name="Ebene 2">
    <g
       id="Ebene_1-2"
       data-name="Ebene 1">
      <rect
         class="cls-1"
         width="36"
         height="36"
         id="rect6" />
      <path
         class="cls-2"
         d="M23,24.32l-5.54-5.54-5.55-5.55S12.38,24.41.74,27.32a16.79,16.79,0,0,0,8.18,8.19C11.83,23.87,23,24.32,23,24.32Z"
         id="path8" />
      <path
         class="cls-3"
         d="M13.83,16.59c-.73,3.64-5.09,9.46-5.09,9.46l8.73-8.73C20.38,14.41,13.83,16.59,13.83,16.59Zm12.36,6.55S15.28,23.87,8.74,29c8-8,11.64-8.73,11.64-8.73Z"
         id="path10" />
      <path
         class="cls-4"
         d="m 30.18,28.14 c 0.154238,2.216016 -2.554057,3.49542 -4.11,1.91 -0.305909,-0.30908 -0.52047,-0.696674 -0.62,-1.12 -0.06826,0.09683 -0.14525,0.187212 -0.23,0.27 -1.563777,1.575965 -4.244038,0.354081 -4.08,-1.86 -0.689529,0.05565 -1.368954,-0.192742 -1.86,-0.68 l -0.2,-0.25 c -0.831109,0.237923 -1.725918,0.0085 -2.34,-0.6 -0.335373,-0.340746 -0.564646,-0.771502 -0.66,-1.24 -2.422268,1.14652 -4.616746,-1.936962 -2.74,-3.85 0.08618,-0.08498 0.1799,-0.161964 0.28,-0.23 C 13.196674,20.39047 12.80908,20.175909 12.5,19.87 12.157147,19.5348 11.926576,19.101605 11.84,18.63 9.7963318,19.620926 7.6526825,17.470557 8.65,15.43 8.1770767,15.345055 7.7411429,15.118369 7.4,14.78 6.4697653,13.83755 6.4697653,12.32245 7.4,11.38 L 7.68,11.16 C 5.2018292,10.5318 5.2928915,6.9803724 7.8,6.48 c 0,0 6.350294,4.735477 11.760294,10.175477 C 25.290294,22.445477 30.18,28.14 30.18,28.14 Z"
         id="path12"
         sodipodi:nodetypes="cccccccccccccccccccc" />
      <path
         class="cls-2"
         d="M34.56,18.17A2.35,2.35,0,0,1,35.25,20a2.32,2.32,0,0,1-.69,1.52,2.37,2.37,0,0,1-1.08.62,2.63,2.63,0,0,1-.39.81h0a2.85,2.85,0,0,1-.23.26,2.38,2.38,0,0,1-1.12.63,2.88,2.88,0,0,1,.27.22,2.38,2.38,0,0,1,0,3.39,2.35,2.35,0,0,1-1.83.69h0v0c-3.41,2.21-5.16-5.5-10.89-11.29C13.86,11.46,6.7,9.54,7.8,6.48a2.38,2.38,0,0,1,.45-2.73,2.41,2.41,0,0,1,3.15-.22l.25.22a2.88,2.88,0,0,1,.22.27,2.26,2.26,0,0,1,.32-.73,2.31,2.31,0,0,1,.31-.39,2.39,2.39,0,0,1,2.73-.46A2.38,2.38,0,0,1,16.29.88a2.4,2.4,0,0,1,3,.32,2.34,2.34,0,0,1,.65,1.24,2.4,2.4,0,0,1,2.74.46,2.38,2.38,0,0,1,3.09-.25,1.81,1.81,0,0,1,.3.25,2.36,2.36,0,0,1,.69,1.85,2.4,2.4,0,0,1,1.86.69,2.43,2.43,0,0,1,.66,1.24,2.39,2.39,0,0,1,2.8,3.78l-.07.07a1.94,1.94,0,0,1-.27.23,2.36,2.36,0,0,1,1.12.62,2.4,2.4,0,0,1,.46,2.74,2.29,2.29,0,0,1,1.24.66A2.39,2.39,0,0,1,34.56,18.17Z"
         id="path14" />
      <circle
         class="cls-3"
         cx="10.92"
         cy="5.68"
         r="1.54"
         id="circle16" />
      <circle
         class="cls-3"
         cx="15.28"
         cy="5.68"
         r="1.54"
         id="circle18" />
      <circle
         class="cls-3"
         cx="18.19"
         cy="2.77"
         r="1.54"
         id="circle20" />
      <circle
         class="cls-3"
         cx="21.83"
         cy="4.96"
         r="1.54"
         id="circle22" />
      <circle
         class="cls-3"
         cx="25.47"
         cy="7.14"
         r="1.54"
         id="circle24" />
      <circle
         class="cls-3"
         cx="27.65"
         cy="7.86"
         r="1.54"
         id="circle26" />
      <circle
         class="cls-3"
         cx="30.56"
         cy="9.32"
         r="1.54"
         id="circle28" />
      <circle
         class="cls-3"
         cx="29.83"
         cy="11.5"
         r="1.54"
         id="circle30" />
      <circle
         class="cls-3"
         cx="32.01"
         cy="15.14"
         r="1.54"
         id="circle32" />
      <circle
         class="cls-3"
         cx="32.74"
         cy="18.78"
         r="1.54"
         id="circle34" />
      <circle
         class="cls-3"
         cx="26.92"
         cy="11.5"
         r="1.54"
         id="circle36" />
      <circle
         class="cls-3"
         cx="24.01"
         cy="8.59"
         r="1.54"
         id="circle38" />
      <circle
         class="cls-3"
         cx="20.38"
         cy="6.41"
         r="1.54"
         id="circle40" />
      <circle
         class="cls-3"
         cx="16.01"
         cy="7.86"
         r="1.54"
         id="circle42" />
      <circle
         class="cls-3"
         cx="17.47"
         cy="6.41"
         r="1.54"
         id="circle44" />
      <circle
         class="cls-3"
         cx="13.1"
         cy="9.32"
         r="1.54"
         id="circle46" />
      <circle
         class="cls-3"
         cx="20.38"
         cy="10.77"
         r="1.54"
         id="circle48" />
      <circle
         class="cls-3"
         cx="25.47"
         cy="15.87"
         r="1.54"
         id="circle50" />
      <circle
         class="cls-3"
         cx="26.92"
         cy="20.23"
         r="1.54"
         id="circle52" />
      <circle
         class="cls-3"
         cx="24.01"
         cy="5.26"
         r="1.54"
         id="circle54" />
      <circle
         class="cls-5"
         cx="21.05"
         cy="4.32"
         r="1.76"
         id="circle56" />
      <circle
         class="cls-6"
         cx="21.05"
         cy="4.32"
         r="0.75"
         id="circle58" />
      <circle
         class="cls-5"
         cx="33.07"
         cy="16.35"
         r="1.76"
         id="circle60" />
      <circle
         class="cls-6"
         cx="33.07"
         cy="16.35"
         r="0.75"
         id="circle62" />
      <circle
         class="cls-3"
         cx="23.71"
         cy="9.4"
         r="0.5"
         id="circle64" />
      <circle
         class="cls-3"
         cx="26.44"
         cy="12.36"
         r="0.5"
         id="circle66" />
    </g>
  </g>
</svg>
