<svg xmlns="http://www.w3.org/2000/svg" viewBox="0 0 2400 2400"><defs><style>.cls-1{fill:#c6e5b3;}.cls-2{fill:#a2bc92;}.cls-3{fill:#77b255;}.cls-4{fill:#fff;}.cls-5{fill:#292f33;}.cls-6{fill:none;}</style></defs><g id="Ebene_2" data-name="Ebene 2"><g id="Ebene_1-2" data-name="Ebene 1"><path class="cls-1" d="M2392.37,2314,1316.14,1009.43s-377.3,247.12-514.65,647.65c0,0,312.38,354.21,655.28,550.52,426.23,244,779.24,191.1,917.19,160A33.23,33.23,0,0,0,2392.37,2314Z"/><path class="cls-2" d="M1200.68,868.33,930.61,1106.55c4.41,1.87,21.15,30.12,11.64,74.09-26.9,124.83-157,287-199.06,341.23-13,16.73-15,46.25,1.74,67.4l56.56,67.81c121.89-265.33,438.82-581.92,514.65-647.65Z"/><path class="cls-3" d="M1200.68,868.33S978.46,586.14,815,400.73,540.52,108.84,434.56,40.7C326.47-28.78,211,11.58,123.72,88.49S-57.2,338,43.81,452.54c55.28,62.72,186.41,5.22,253.74,81.59,45.72,51.81,69,91.37,231.86,258.3,251.6,258,401.2,314.05,401.2,314.05s83.73-69.74,129.31-110.31C1105.57,955.75,1200.68,868.33,1200.68,868.33Z"/><circle class="cls-4" cx="386.24" cy="309.3" r="149.8"/><circle class="cls-4" cx="768.76" cy="703.54" r="149.8"/><circle class="cls-5" cx="768.76" cy="703.54" r="72.2"/><circle class="cls-5" cx="386.24" cy="309.3" r="72.2"/><rect class="cls-6" width="2400" height="2400"/></g></g></svg>