<?xml version="1.0" encoding="utf-8"?>
<!-- Generator: Adobe Illustrator 25.0.0, SVG Export Plug-In . SVG Version: 6.00 Build 0)  -->
<svg version="1.1"
	 id="svg2" inkscape:export-xdpi="834.66498" inkscape:export-ydpi="834.66498" inkscape:version="0.92.4 5da689c313, 2019-01-14" sodipodi:docname="stalker.svg" xmlns:cc="http://creativecommons.org/ns#" xmlns:dc="http://purl.org/dc/elements/1.1/" xmlns:inkscape="http://www.inkscape.org/namespaces/inkscape" xmlns:rdf="http://www.w3.org/1999/02/22-rdf-syntax-ns#" xmlns:sodipodi="http://sodipodi.sourceforge.net/DTD/sodipodi-0.dtd" xmlns:svg="http://www.w3.org/2000/svg"
	 xmlns="http://www.w3.org/2000/svg" xmlns:xlink="http://www.w3.org/1999/xlink" x="0px" y="0px" viewBox="0 0 42.9 42.9"
	 style="enable-background:new 0 0 42.9 42.9;" xml:space="preserve">
<style type="text/css">
	.st0{fill:#52ADFF;}
	.st1{fill:#FFFFFF;}
	.st2{fill:#009622;}
	.st3{fill:#E5DDB3;}
	.st4{fill:#0E7325;}
	.st5{fill:#196C2C;}
	.st6{fill:#D4B816;}
	.st7{fill:#292F33;}
	.st8{fill:#CD9002;}
	.st9{fill:#4D4D4D;}
	.st10{fill:#DEDEDE;}
</style>
<g>
	<rect id="rect981" x="-1" y="1.7" class="st0" width="45.2" height="26"/>
	<g>
		<ellipse id="path928-7" class="st1" cx="7.8" cy="4.9" rx="3.6" ry="1.4"/>
		<ellipse id="path928-7-5" class="st1" cx="21.5" cy="7.2" rx="5.1" ry="2"/>
		<ellipse id="path928-7-3" class="st1" cx="44" cy="2.5" rx="10.7" ry="4.7"/>
	</g>
	<g>
		<ellipse id="path928" class="st2" cx="8.3" cy="21.6" rx="10" ry="5.6"/>
		<ellipse id="path928-6" class="st2" cx="28.1" cy="21.6" rx="17.1" ry="7.9"/>
	</g>
	<path id="path22" inkscape:connector-curvature="0" class="st3" d="M44.1,50.3c0,9.3-10.1,15-22.5,15s-22.5-5.7-22.5-15
		S9.2,31.5,21.6,31.5S44.1,41,44.1,50.3"/>
	<g>
		<ellipse id="path928-6-1" class="st4" cx="20.5" cy="40.4" rx="27" ry="16.4"/>
		<ellipse id="path928-6-2" class="st5" cx="4.7" cy="29.7" rx="17.1" ry="7.9"/>
		<ellipse id="path928-6-2-7" class="st5" cx="43.6" cy="30.2" rx="17.1" ry="7.9"/>
	</g>
</g>
<g>
	<path id="path26" inkscape:connector-curvature="0" class="st6" d="M38.8,38.6c1.7-1.4,2.8-3.5,2.8-5.8c0-4.1-3.4-7.5-7.5-7.5
		c-3.6,0-6.6,2.5-7.3,5.9c-1.6-0.6-3.4-0.9-5.2-0.9c-1.8,0-3.6,0.3-5.2,0.9c-0.8-3.4-3.7-5.9-7.3-5.9c-4.1,0-7.5,3.4-7.5,7.5
		c0,2.4,1.1,4.5,2.8,5.8C1.1,42-0.9,46.1-0.9,50.3c0,9.3,10.1,1.2,22.5,1.2c12.4,0,22.5,8.1,22.5-1.2C44.1,46.1,42.1,42,38.8,38.6"
		/>
	<path id="path30" inkscape:connector-curvature="0" class="st1" d="M12.8,32.2c0,2.4-2,4.4-4.4,4.4s-4.4-2-4.4-4.4s2-4.4,4.4-4.4
		S12.8,29.7,12.8,32.2"/>
	<path id="path34" inkscape:connector-curvature="0" class="st7" d="M10.3,32.2c0,1-0.8,1.9-1.9,1.9s-1.9-0.8-1.9-1.9
		c0-1,0.8-1.9,1.9-1.9S10.3,31.1,10.3,32.2"/>
	<path id="path38" inkscape:connector-curvature="0" class="st1" d="M39.1,32.2c0,2.4-2,4.4-4.4,4.4s-4.4-2-4.4-4.4s2-4.4,4.4-4.4
		S39.1,29.7,39.1,32.2"/>
	<path id="path42" inkscape:connector-curvature="0" class="st7" d="M36.6,32.2c0,1-0.8,1.9-1.9,1.9s-1.9-0.8-1.9-1.9
		c0-1,0.8-1.9,1.9-1.9S36.6,31.1,36.6,32.2"/>
	<path id="path46" inkscape:connector-curvature="0" class="st8" d="M17.8,47.8c0,0.7-0.6,1.2-1.2,1.2c-0.7,0-1.2-0.6-1.2-1.2
		s0.6-1.2,1.2-1.2C17.3,46.5,17.8,47.1,17.8,47.8"/>
	<path id="path50" inkscape:connector-curvature="0" class="st8" d="M27.8,47.8c0,0.7-0.6,1.2-1.2,1.2s-1.2-0.6-1.2-1.2
		s0.6-1.2,1.2-1.2S27.8,47.1,27.8,47.8"/>
</g>
<g>
	<rect id="rect892" x="-1" y="16.4" class="st9" width="45.3" height="1.3"/>
	<rect id="rect892-3" x="21.2" y="1.6" class="st9" width="1.3" height="66.2"/>
	<rect id="rect983" x="-14.4" y="-3.5" class="st10" width="74.8" height="5.6"/>
	<rect id="rect983-5" x="-14" y="41" class="st10" width="74.8" height="6.9"/>
	<rect id="rect983-6" x="40.7" y="-18.4" class="st10" width="4.6" height="74.8"/>
	<rect id="rect983-6-9" x="-2.5" y="-16.7" class="st10" width="4.6" height="74.8"/>
</g>
</svg>
