<svg xmlns="http://www.w3.org/2000/svg" viewBox="0 0 356.19 356.19"><defs><style>.cls-1{fill:#77b254;}.cls-2{fill:#fff;}.cls-3{fill:#2a3034;}.cls-4{fill:#5d913b;}.cls-5{fill:none;}</style></defs><g id="Ebene_2" data-name="Ebene 2"><g id="Ebene_1-2" data-name="Ebene 1"><g id="a"><path id="c" class="cls-1" d="M304,128.69h0c-11.65,0-21.09,10.75-21.09,24v85c0,13.26,9.44,24,21.09,24h0c11.65,0,21.09-10.74,21.09-24v-85C325.08,139.44,315.64,128.69,304,128.69Z"/><path id="c-2" data-name="c" class="cls-1" d="M224.77,223.19h0c-11.19,0-20.26,10.75-20.26,24v85c0,13.26,9.07,24,20.26,24h0c11.2,0,20.27-10.74,20.27-24v-85C245,233.94,236,223.19,224.77,223.19Z"/></g><g id="a-2" data-name="a"><path id="c-3" data-name="c" class="cls-1" d="M52.27,128.69h0c11.68,0,21.15,10.75,21.15,24v85c0,13.26-9.47,24-21.15,24h0c-11.69,0-21.16-10.74-21.16-24v-85C31.11,139.44,40.58,128.69,52.27,128.69Z"/><path id="c-4" data-name="c" class="cls-1" d="M131.86,220.62h0c11.38,0,20.6,10.74,20.6,24v85c0,13.25-9.22,24-20.6,24h0c-11.38,0-20.6-10.75-20.6-24v-85C111.26,231.36,120.48,220.62,131.86,220.62Z"/></g><g id="b"><path class="cls-1" d="M87.1,107.69c0-46.39,40.74-84,91-84s91,37.61,91,84Z"/><path class="cls-1" d="M271,120.45v138a22.24,22.24,0,0,1-22.47,22H107.63a22.24,22.24,0,0,1-22.46-22v-138Z"/></g><circle class="cls-1" cx="126.64" cy="32.09" r="32.09"/><circle class="cls-1" cx="229.42" cy="32.09" r="32.09"/><circle class="cls-2" cx="123.18" cy="30.15" r="17.82"/><circle class="cls-3" cx="123.18" cy="30.15" r="7.64"/><circle class="cls-2" cx="232.42" cy="30.05" r="17.82"/><circle class="cls-3" cx="232.42" cy="30.05" r="7.64"/><circle class="cls-4" cx="157.5" cy="94.6" r="7.11"/><circle class="cls-4" cx="198.76" cy="94.6" r="7.11"/><rect class="cls-5" width="356.19" height="356.19"/></g></g></svg>