<?xml version="1.0" encoding="UTF-8" standalone="no"?>
<svg
   viewBox="0 0 43.75 43.75"
   version="1.1"
   id="svg26"
   sodipodi:docname="frogstargreen.svg"
   inkscape:version="1.1.1 (3bf5ae0d25, 2021-09-20, custom)"
   xmlns:inkscape="http://www.inkscape.org/namespaces/inkscape"
   xmlns:sodipodi="http://sodipodi.sourceforge.net/DTD/sodipodi-0.dtd"
   xmlns="http://www.w3.org/2000/svg"
   xmlns:svg="http://www.w3.org/2000/svg">
  <sodipodi:namedview
     id="namedview28"
     pagecolor="#505050"
     bordercolor="#ffffff"
     borderopacity="1"
     inkscape:pageshadow="0"
     inkscape:pageopacity="0"
     inkscape:pagecheckerboard="1"
     showgrid="false"
     inkscape:zoom="16"
     inkscape:cx="21.03125"
     inkscape:cy="27.09375"
     inkscape:window-width="1920"
     inkscape:window-height="1026"
     inkscape:window-x="1920"
     inkscape:window-y="54"
     inkscape:window-maximized="1"
     inkscape:current-layer="Ebene_1-2" />
  <defs
     id="defs4">
    <style
       id="style2">.cls-1{fill:#c6e5b3;}.cls-2{fill:#77b255;}.cls-3{fill:#fff;}.cls-4{fill:#292f33;}.cls-5{fill:#5c913b;}</style>
  </defs>
  <g
     id="Ebene_2"
     data-name="Ebene 2">
    <g
       id="Ebene_1-2"
       data-name="Ebene 1">
      <path
         class="cls-1"
         d="m 32,36.51 -7.11,-3.39 c -1.826461,-0.765018 -3.883539,-0.765018 -5.71,0 l -7.08,3.46 c -1.57,0.75 -2.67,0 -2.45,-1.77 l 1,-7.84 c 0.08761,-1.124643 -0.08697,-2.254274 -0.51,-3.3 0,0 6.27,-3.981625 11.86,-3.981625 5.59,0 11.85,3.851625 11.8,3.881625 -0.404432,1.025639 -0.60869,2.212874 -0.5,3.31 l 1.08,7.83 c 0.24,1.75 -0.85,2.55 -2.38,1.8 z"
         id="path6"
         sodipodi:nodetypes="cccccccscccc" />
      <path
         class="cls-2"
         d="m 40.47,15.7 -5.42,5.74 C 34.609097,21.930317 34.254111,22.491532 34,23.1 v 0 c -0.07508,0.15295 -0.141847,0.309845 -0.2,0.47 -2.977946,3.204711 -8.06787,-1.304267 -11.8,-1.42 -5.71,0 -10.48,3.94 -11.86,1.53 -0.06971,-0.187656 -0.1498299,-0.371275 -0.24,-0.55 v 0 C 9.6536779,22.556077 9.3159662,22.02587 8.9,21.56 L 3.39,15.85 C 2.19,14.58 2.6,13.28 4.31,12.96 l 7.75,-1.44 c 1.919653,-0.480725 3.572444,-1.6987597 4.6,-3.39 l 3.71,-7 c 0.82,-1.54 2.17,-1.55 3,0 l 3.77,6.94 c 1.038796,1.6877264 2.703359,2.895703 4.63,3.36 l 7.75,1.38 c 1.71,0.32 2.14,1.61 0.95,2.89 z"
         id="path8"
         sodipodi:nodetypes="ccsscccssccccccccccc" />
      <path
         class="cls-1"
         d="m 11.89,2.65 c 1.24,1.72 3,6 2.09,6.62 C 13.07,9.89 9.59,7 8.35,5.23 7.11,3.46 7.21,2 8.19,1.27 9.17,0.54 10.64,0.93 11.89,2.65 Z M 35.4,5.23 c -1.24,1.72 -4.74,4.68 -5.63,4 -0.89,-0.68 0.85,-4.9 2.09,-6.62 1.24,-1.72 2.72,-2.09 3.7,-1.38 0.98,0.71 1.08,2.28 -0.16,4 z M 20.2,40.46 c 0,-2.12 1.09,-6.59 2.19,-6.59 1.1,0 2.19,4.47 2.19,6.59 0,2.12 -1,3.29 -2.19,3.29 -1.19,0 -2.19,-1.17 -2.19,-3.29 z M 39.86,29.2 c -2,-0.65 -5.9,-3.08 -5.56,-4.13 0.34,-1.05 4.91,-0.7 6.92,0 2.01,0.7 2.78,1.93 2.44,3.06 -0.34,1.13 -1.78,1.73 -3.8,1.07 z M 2.53,25 c 2,-0.66 6.58,-1 6.92,0 0.34,1 -3.56,3.55 -5.57,4.2 C 1.87,29.85 0.46,29.29 0.09,28.13 -0.28,26.97 0.52,25.68 2.53,25 Z"
         id="path10" />
      <circle
         class="cls-3"
         cx="15.59"
         cy="14.13"
         r="2.1600001"
         id="circle12" />
      <circle
         class="cls-4"
         cx="15.59"
         cy="14.13"
         r="0.93000001"
         id="circle14" />
      <circle
         class="cls-3"
         cx="28.57"
         cy="14.13"
         r="2.1600001"
         id="circle16" />
      <circle
         class="cls-4"
         cx="28.57"
         cy="14.13"
         r="0.93000001"
         id="circle18" />
      <circle
         class="cls-5"
         cx="19.610001"
         cy="20.950001"
         r="0.62"
         id="circle20" />
      <circle
         class="cls-5"
         cx="24.549999"
         cy="20.950001"
         r="0.62"
         id="circle22" />
    </g>
  </g>
</svg>
