<svg xmlns="http://www.w3.org/2000/svg" viewBox="0 0 247.5 247.5"><defs><style>.cls-1{fill:#c6e5b3;}.cls-2{fill:#fff;}.cls-3{fill:#292f33;}.cls-4{fill:#77b255;}.cls-5{fill:none;}</style></defs><g id="Ebene_2" data-name="Ebene 2"><g id="Ebene_1-2" data-name="Ebene 1"><path class="cls-1" d="M86.11,22.11a22.36,22.36,0,0,1-.26,3.39c-1.48.47-2.95,1-4.39,1.57l-.28.11c-1.61.61-3.19,1.27-4.75,2q-2.59,1.18-5.07,2.55c-1.29.7-2.55,1.44-3.8,2.21-.94.6-1.94,1.23-2.94,1.88-.65.44-1.28.88-1.91,1.33a82.83,82.83,0,0,0-7.11,5.66,21.39,21.39,0,0,1-6.08-3.52,22.08,22.08,0,0,1-8-17.18A21.85,21.85,0,0,1,63.51,0a22.45,22.45,0,0,1,22.3,18.54A21,21,0,0,1,86.11,22.11Z"/><path class="cls-1" d="M111.14,14.67a91.56,91.56,0,0,0-13.83,1.2c-.9.14-1.8.3-2.69.48-2.4.45-4.76,1-7.09,1.67l-.55.16-1.08.35-5.18,1.71c-2,.72-3.92,1.5-5.84,2.36Q72.42,23.68,70,24.91c-.57.29-1.13.59-1.69.89-.93.52-1.86,1-2.77,1.59s-2.11,1.26-3.14,1.93c-.6.38-1.2.78-1.79,1.18s-1.29.88-1.93,1.34c-.43.31-.86.62-1.28.94q-3.63,2.69-7,5.72l-.85.78q-2.8,2.59-5.37,5.42a93.62,93.62,0,0,0-6.83,8.44L33.77,58.6a92,92,0,0,0,78.44,140V14.66Zm-5.59,177A85.27,85.27,0,0,1,39.92,61.42c1.21-1.94,2.51-3.82,3.88-5.65a85.07,85.07,0,0,1,11.89-13,82.83,82.83,0,0,1,7.11-5.66c.63-.45,1.26-.89,1.91-1.33,1-.65,2-1.28,2.94-1.88,1.25-.77,2.51-1.51,3.8-2.21q2.47-1.37,5.07-2.55c1.56-.73,3.14-1.39,4.75-2l.28-.11c1.44-.58,2.91-1.1,4.39-1.57l.67-.21L88,24.85a84.8,84.8,0,0,1,17.52-3.24Z"/><path class="cls-2" d="M75,20.53a14.21,14.21,0,0,1-.16,2.07Q72.42,23.68,70,24.91c-.57.29-1.13.59-1.69.89-.93.52-1.86,1-2.77,1.59s-2.11,1.26-3.14,1.93c-.6.38-1.2.78-1.79,1.18s-1.29.88-1.93,1.34c-.43.31-.86.62-1.28.94A13.07,13.07,0,1,1,75,20.53Z"/><circle class="cls-3" cx="61.98" cy="20.52" r="5.6"/><path class="cls-1" d="M112.47,12a94.5,94.5,0,0,0-14.24,1.23c-.92.15-1.85.31-2.77.5q-3.7.69-7.3,1.72l-.56.16-1.11.36-5.34,1.76c-2,.74-4,1.55-6,2.43-1.69.74-3.36,1.54-5,2.38-.59.3-1.17.61-1.74.92-1,.53-1.92,1-2.85,1.63-1.1.64-2.18,1.3-3.24,2-.62.39-1.23.8-1.84,1.22s-1.33.9-2,1.38l-1.32,1Q53.44,33.36,50,36.48l-.88.81Q46.24,40,43.59,42.87a97.75,97.75,0,0,0-7,8.69l-3.74,5.62a94.72,94.72,0,0,0,80.75,144.14V11.94Zm-5.75,182.23A87.79,87.79,0,0,1,39.15,60.08c1.24-2,2.58-3.93,4-5.82A88.09,88.09,0,0,1,55.38,40.91a85.81,85.81,0,0,1,7.32-5.83l2-1.37c1-.67,2.06-1.31,3-1.93C69,31,70.28,30.22,71.61,29.5c1.7-.93,3.44-1.81,5.22-2.62,1.61-.75,3.23-1.43,4.89-2.06L82,24.7q2.22-.89,4.52-1.61l.69-.22,1.46-.44a87.72,87.72,0,0,1,18-3.34Z"/><path class="cls-4" d="M161.38,68.06a22.36,22.36,0,0,0,.26,3.39c1.48.47,3,1,4.39,1.57l.28.11c1.61.61,3.19,1.27,4.75,2q2.59,1.19,5.07,2.55c1.29.7,2.55,1.44,3.8,2.21.94.6,1.94,1.23,2.94,1.88.65.44,1.28.88,1.91,1.33a82.83,82.83,0,0,1,7.11,5.66A21.39,21.39,0,0,0,198,85.24a22.08,22.08,0,0,0,8-17.18A21.85,21.85,0,0,0,184,46a22.45,22.45,0,0,0-22.3,18.54A21,21,0,0,0,161.38,68.06Z"/><path class="cls-4" d="M213.68,104.67,210,99.1a89.53,89.53,0,0,0-6.84-8.45q-3-3.24-6.22-6.2a88.33,88.33,0,0,0-7-5.71c-.42-.32-.85-.63-1.28-.94-.64-.46-1.29-.92-1.94-1.35s-1.19-.8-1.79-1.18c-1-.66-2.07-1.31-3.12-1.93s-1.85-1.07-2.79-1.58c-.56-.3-1.12-.6-1.69-.89-1.56-.82-3.15-1.58-4.77-2.3-1.94-.87-3.92-1.67-5.92-2.39l-6.26-2-.51-.14q-3.48-1-7.06-1.66c-.9-.19-1.8-.35-2.71-.49a90.42,90.42,0,0,0-13.84-1.2h-1.08v184a92,92,0,0,0,78.45-140ZM141.87,237.61v-170a83.28,83.28,0,0,1,17.51,3.24c.48.13,1,.28,1.43.43,1.71.54,3.39,1.12,5.05,1.76l.28.11q2.43,1,4.78,2,2.58,1.19,5.07,2.55c1.28.7,2.55,1.44,3.79,2.2,1,.61,2,1.24,2.93,1.89.65.43,1.29.87,1.92,1.33a85.62,85.62,0,0,1,19,18.62c1.38,1.82,2.67,3.71,3.88,5.65a85.26,85.26,0,0,1-65.64,130.26Z"/><path class="cls-2" d="M198.56,66.47A13.06,13.06,0,0,1,190,78.74c-.42-.32-.85-.63-1.28-.94-.64-.46-1.29-.92-1.94-1.35s-1.19-.8-1.79-1.18c-1-.66-2.07-1.31-3.12-1.93s-1.85-1.07-2.79-1.58c-.56-.3-1.12-.6-1.69-.89-1.56-.82-3.15-1.58-4.77-2.3a13.06,13.06,0,1,1,25.95-2.1Z"/><circle class="cls-3" cx="185.5" cy="66.47" r="5.6"/><path class="cls-4" d="M214.68,103.19l-3.78-5.74a90.63,90.63,0,0,0-7.05-8.71q-3.09-3.34-6.41-6.39a92.08,92.08,0,0,0-7.18-5.89c-.43-.33-.87-.64-1.31-1-.66-.48-1.33-1-2-1.4s-1.23-.82-1.85-1.21c-1-.68-2.13-1.35-3.22-2S180,69.8,179,69.27l-1.74-.92q-2.42-1.26-4.92-2.37c-2-.89-4-1.72-6.1-2.46l-6.45-2.08-.53-.15A74,74,0,0,0,152,59.58c-.92-.19-1.85-.36-2.79-.5a92.15,92.15,0,0,0-14.27-1.24h-1.11V247.5a94.83,94.83,0,0,0,80.86-144.31Zm-74,137V65a86.28,86.28,0,0,1,18,3.34c.5.13,1,.29,1.48.44,1.76.56,3.49,1.16,5.2,1.82l.29.11q2.5,1,4.93,2.06c1.77.82,3.51,1.69,5.22,2.63,1.32.72,2.63,1.49,3.91,2.27,1,.63,2.06,1.28,3,1.95.67.44,1.33.89,2,1.37a88.24,88.24,0,0,1,19.58,19.19q2.15,2.82,4,5.82a87.89,87.89,0,0,1-67.65,134.27Z"/><rect class="cls-5" width="247.5" height="247.5"/></g></g></svg>