<?xml version="1.0" encoding="utf-8"?>
<!-- Generator: Adobe Illustrator 25.0.0, SVG Export Plug-In . SVG Version: 6.00 Build 0)  -->
<svg version="1.1" id="Ebene_1" xmlns="http://www.w3.org/2000/svg" xmlns:xlink="http://www.w3.org/1999/xlink" x="0px" y="0px"
	 viewBox="0 0 1982.2 1982.2" style="enable-background:new 0 0 1982.2 1982.2;" xml:space="preserve">
<style type="text/css">
	.st0{fill:#4289C1;}
	.st1{fill:#FEE7B8;}
	.st2{fill:#ECD8B0;}
	.st3{fill:#FFFFFF;}
	.st4{fill:#292F33;}
	.st5{fill:#FF7892;}
	.st6{fill:#BB1A34;}
	.st7{fill:none;}
</style>
<g id="Ebene_2_1_">
	<g id="Ebene_1-2">
		<circle class="st0" cx="1596.8" cy="213.2" r="110.1"/>
		<circle class="st0" cx="1817.1" cy="488.5" r="165.2"/>
		<circle class="st0" cx="1817.1" cy="268.2" r="165.2"/>
		<circle class="st0" cx="385.4" cy="213.2" r="110.1"/>
		<circle class="st0" cx="165.2" cy="488.5" r="165.2"/>
		<circle class="st0" cx="165.2" cy="268.2" r="165.2"/>
		<circle class="st0" cx="1679.4" cy="295.8" r="137.7"/>
		<circle class="st0" cx="1762" cy="433.4" r="110.1"/>
		<circle class="st0" cx="302.8" cy="295.8" r="137.7"/>
		<circle class="st0" cx="220.2" cy="433.4" r="110.1"/>
		<path class="st1" d="M1970.3,1247.1c0,392.8-424.5,632.1-948.2,632.1S73.9,1639.8,73.9,1247.1s424.5-790.2,948.2-790.2
			S1970.3,854.3,1970.3,1247.1z"/>
		<path class="st2" d="M1746.7,755.9c72.1-58,118.3-146.7,118.3-246.3c0-174.5-141.6-316.1-316.1-316.1
			c-150.7,0-276.6,105.6-308.2,246.8c-140.8-53.2-296.3-53.2-437.1,0C771.9,299.1,646,193.5,495.3,193.5
			c-174.5,0-316.1,141.6-316.1,316.1c0,99.6,46.2,188.4,118.3,246.3C158.1,897.1,73.9,1072.4,73.9,1247.1
			c0,392.8,424.5,52.7,948.2,52.7s948.2,340.1,948.2-52.7C1970.3,1072.4,1886,897.1,1746.7,755.9z"/>
		<circle class="st3" cx="469" cy="483.2" r="184.4"/>
		<circle class="st4" cx="469" cy="483.2" r="79"/>
		<circle class="st3" cx="1575.2" cy="483.2" r="184.4"/>
		<circle class="st4" cx="1575.2" cy="483.2" r="79"/>
		<circle class="st5" cx="1669.3" cy="1306.5" r="238.3"/>
		<circle class="st5" cx="367" cy="1306.5" r="238.3"/>
		<circle class="st6" cx="1018.7" cy="1121.7" r="192.7"/>
		<rect y="0" class="st7" width="1982.2" height="1982.2"/>
	</g>
</g>
</svg>
