<svg xmlns="http://www.w3.org/2000/svg" viewBox="0 0 43.24 41.76"><defs><style>.cls-1{fill:#c6e5b3;}.cls-2{fill:#77b255;}.cls-3{fill:#fff;}.cls-4{fill:#292f33;}.cls-5{fill:#5c913b;}.cls-6{fill:#dd2e44;}.cls-7{fill:#ffac33;}</style></defs><g id="Ebene_2" data-name="Ebene 2"><g id="Ebene_1-2" data-name="Ebene 1"><g id="Ebene_2-2" data-name="Ebene 2"><g id="Ebene_2-2-2" data-name="Ebene 2-2"><path class="cls-1" d="M32.37,11.22c0,4.18-4.76,6.73-10.61,6.73s-10.6-2.57-10.6-6.73S15.91,2.8,21.76,2.8,32.37,7,32.37,11.22Z"/><path class="cls-2" d="M29.87,6a3.26,3.26,0,0,0,.53-4.74,3.66,3.66,0,0,0-5-.5A3.33,3.33,0,0,0,24.2,2.62a7.33,7.33,0,0,0-4.89,0A3.54,3.54,0,0,0,15.06.12a3.41,3.41,0,0,0-2.73,3.25,3.39,3.39,0,0,0,1.35,2.57,7.48,7.48,0,0,0-2.52,5.28c0,4.18,4.75.56,10.6.56s10.61,3.62,10.61-.56A7.54,7.54,0,0,0,29.87,6Z"/><ellipse class="cls-3" cx="15.57" cy="3.08" rx="2.07" ry="1.97"/><ellipse class="cls-4" cx="15.57" cy="3.08" rx="0.88" ry="0.84"/><ellipse class="cls-3" cx="27.95" cy="3.08" rx="2.07" ry="1.97"/><ellipse class="cls-4" cx="27.95" cy="3.08" rx="0.88" ry="0.84"/><ellipse class="cls-5" cx="19.41" cy="10.09" rx="0.59" ry="0.57"/><ellipse class="cls-5" cx="24.12" cy="10.09" rx="0.59" ry="0.57"/></g><g id="Ebene_1-2-2" data-name="Ebene 1-2"><ellipse class="cls-1" cx="21.63" cy="28.9" rx="13.5" ry="12.86"/><path class="cls-6" d="M27.71,14.76H15.56a2,2,0,0,0-2,1.94,1.94,1.94,0,0,0,1.33,1.8v9.12a1.32,1.32,0,0,0,1.35,1.28h1.35a1.31,1.31,0,0,0,1.35-1.28v-9h8.78a1.93,1.93,0,1,0,0-3.86Z"/><path class="cls-5" d="M23,26.33A1.35,1.35,0,1,1,21.63,25,1.32,1.32,0,0,1,23,26.33Zm0,6.43a1.35,1.35,0,0,1-2.7,0,1.35,1.35,0,0,1,2.7,0Z"/><path class="cls-7" d="M11.37,21.29l-4.65-1.9L6,15.71a1.38,1.38,0,0,0-1.6-1.05,1.31,1.31,0,0,0-1.1,1.53h0l.4,2-1.79-.74a1.38,1.38,0,0,0-1.78.68A1.27,1.27,0,0,0,.82,19.8l1,.41L.47,21.56a1.24,1.24,0,0,0,0,1.82,1.42,1.42,0,0,0,.93.38,1.38,1.38,0,0,0,1-.37L4.53,21.3l5.78,2.36a1.55,1.55,0,0,0,.52.1,1.34,1.34,0,0,0,1.37-1.28A1.28,1.28,0,0,0,11.37,21.29Zm30.94-3.86-2-.67,1.16-1.09a1.25,1.25,0,0,0,0-1.82h0a1.4,1.4,0,0,0-1.91,0l-1,.91-.77-2.93a1.34,1.34,0,0,0-1.59-1,1.29,1.29,0,0,0-1.05,1.52s0,.06,0,.09l1.18,4.44-4.86,4.63a1.25,1.25,0,0,0,0,1.82h0a1.39,1.39,0,0,0,1.9,0l4.81-4.59,3.26,1.05a1.52,1.52,0,0,0,.42.06,1.31,1.31,0,0,0,1.36-1.28,1.3,1.3,0,0,0-.93-1.23Z"/></g></g></g></g></svg>