<?xml version="1.0" encoding="utf-8"?>
<!-- Generator: Adobe Illustrator 25.0.0, SVG Export Plug-In . SVG Version: 6.00 Build 0)  -->
<svg version="1.1" id="Ebene_1" xmlns="http://www.w3.org/2000/svg" xmlns:xlink="http://www.w3.org/1999/xlink" x="0px" y="0px"
	 viewBox="0 0 36 36" style="enable-background:new 0 0 36 36;" xml:space="preserve">
<style type="text/css">
	.st0{fill:#FFCC4D;}
	.st1{fill:#FFAC33;}
	.st2{fill:#F4900C;}
	.st3{fill:#C6E5B3;}
	.st4{fill:#94C279;}
	.st5{fill:#77B255;}
	.st6{fill:#5C913B;}
	.st7{fill:#FFFFFF;}
	.st8{fill:#292F33;}
	.st9{fill:none;}
</style>
<g id="Ebene_2_1_">
	<g id="Ebene_1-2">
		<path class="st0" d="M17.2,23H9.8c0,0,1.4,6.5,2.4,9.8s4.6,3.2,5.4,3.2c1.6,0,4.4,0,5.4-3.2s3.2-9.8,3.2-9.8H17.2z"/>
		<path class="st1" d="M18,28c3.5,0,5.8-0.8,7.1-1.7c0.4-1.1,0.6-2,0.9-2.6c-0.2-0.3-0.4-0.5-0.7-0.7H10.7c-0.3,0.2-0.6,0.5-0.7,0.8
			c0.1,0.5,0.3,1.2,0.4,2C11.5,27,14.1,28,18,28z"/>
		<path class="st0" d="M9,20v3c0,1.7,4,3,9,3s9-1.3,9-3v-3H9z"/>
		<path class="st2" d="M26.2,20.5c0,1.4-3.7,2.5-8.2,2.5s-8.2-1.1-8.2-2.5S13.5,18,18,18S26.2,19.1,26.2,20.5z"/>
		<path class="st3" d="M26.9,13.9c0.5-2-0.4-4.1-2.2-5.2c0.2-0.7,0.1-1.5-0.2-2.2c-0.5-1.1-1.6-1.9-2.8-2.1c0.2-0.4,0.2-0.9,0-1.3
			c-0.6-1.8-3-0.6-4.8-3c-1.2,0.7-1.8,2-1.7,3.3c-0.7,0.1-1.4,0.3-2.1,0.6l0,0c-1.1,0.5-1.7,1.8-1.2,2.9c0.1,0.2,0.2,0.3,0.3,0.5
			l-0.5,0.2l0,0C10.3,8,9.4,9.3,9.4,10.7c0,0.6,0.2,1.2,0.5,1.7C8.1,13.2,7,14.9,7,16.7c0,2.5,2,4.6,4.5,4.7c2.7,0.8,8,0.6,12.1-0.1
			c2.4-0.4,4.8-1.8,4.8-4.2C28.4,15.9,27.8,14.7,26.9,13.9z"/>
		<path class="st4" d="M21.8,3.8c0,0.1,0,0.2,0,0.2C21.8,4,21.8,3.9,21.8,3.8z"/>
		<path class="st4" d="M14.8,18.2c-2.4,0.7-4.9,0.8-7.4,0.3c0.8,1.8,2.6,3,4.5,3c6.1,0,12.4-4.2,12.4-4.2c1.9-1,3-3.1,2.7-5.2
			C24.9,15,17.1,17.5,14.8,18.2z M13.1,14.2c4.7,0,9.6-3.1,9.6-3.1c1.5-0.7,2.3-2.4,2-4c-4.4,3-9.6,4.8-14.9,5.2
			C10.5,13.5,11.8,14.2,13.1,14.2L13.1,14.2z M11.8,6.5c0.2,1,1.1,1.7,2.2,1.7c0.6,0,1.3-0.1,1.9-0.2c0.4-0.1,0.8-0.2,1.1-0.4
			c0.9-0.3,1.7-0.8,2.5-1.3c0.8-0.5,1.5-1.2,2.1-1.9c0.2-0.4,0.1-1-0.2-1.3C19.7,4.8,14.1,6.6,11.8,6.5z"/>
		<path class="st5" d="M21.8,3.8c0,0.2,0,0.4-0.1,0.6c-0.6,0.7-1.4,1.3-2.1,1.9c-0.8,0.5-1.6,0.9-2.5,1.3c-0.4,0.1-0.8,0.3-1.1,0.4
			c-0.6,0.2-1.3,0.3-1.9,0.3c-1,0-1.9-0.7-2.1-1.7l0,0c-0.1-0.2-0.1-0.4-0.1-0.6c0-0.9,0.6-1.7,1.4-2c0.7-0.2,1.4-0.4,2.1-0.5
			c-0.1-1.4,0.5-2.7,1.7-3.3c1.8,2.4,4.2,1.2,4.8,3C21.8,3.4,21.8,3.6,21.8,3.8z"/>
		<circle class="st6" cx="17.4" cy="9.9" r="0.4"/>
		<circle class="st6" cx="18.8" cy="9.4" r="0.4"/>
		<circle class="st7" cx="13.4" cy="6.1" r="1.4"/>
		<circle class="st8" cx="13.4" cy="6.1" r="0.6"/>
		<circle class="st7" cx="20" cy="3.6" r="1.4"/>
		<circle class="st8" cx="20" cy="3.6" r="0.6"/>
		<rect y="0" class="st9" width="36" height="36"/>
	</g>
</g>
</svg>
