<?xml version="1.0" encoding="UTF-8" standalone="no"?>
<svg
   xmlns:dc="http://purl.org/dc/elements/1.1/"
   xmlns:cc="http://creativecommons.org/ns#"
   xmlns:rdf="http://www.w3.org/1999/02/22-rdf-syntax-ns#"
   xmlns:svg="http://www.w3.org/2000/svg"
   xmlns="http://www.w3.org/2000/svg"
   xmlns:sodipodi="http://sodipodi.sourceforge.net/DTD/sodipodi-0.dtd"
   xmlns:inkscape="http://www.inkscape.org/namespaces/inkscape"
   viewBox="0 0 45 60"
   xml:space="preserve"
   version="1.1"
   id="svg2"
   sodipodi:docname="frog_kaiser_gold3.svg"
   inkscape:version="0.92.3 (2405546, 2018-03-11)"
   width="45"
   height="60"><sodipodi:namedview
     pagecolor="#ffffff"
     bordercolor="#666666"
     borderopacity="1"
     objecttolerance="10"
     gridtolerance="10"
     guidetolerance="10"
     inkscape:pageopacity="0"
     inkscape:pageshadow="2"
     inkscape:window-width="2560"
     inkscape:window-height="1383"
     id="namedview120"
     showgrid="false"
     inkscape:zoom="37.272385"
     inkscape:cx="20.025167"
     inkscape:cy="49.918379"
     inkscape:window-x="0"
     inkscape:window-y="0"
     inkscape:window-maximized="1"
     inkscape:current-layer="svg2"
     inkscape:measure-start="0.107318,59.8298"
     inkscape:measure-end="22.3753,59.906" /><metadata
     id="metadata8"><rdf:RDF><cc:Work
         rdf:about=""><dc:format>image/svg+xml</dc:format><dc:type
           rdf:resource="http://purl.org/dc/dcmitype/StillImage" /><dc:title></dc:title></cc:Work></rdf:RDF></metadata><defs
     id="defs6"><clipPath
       id="clipPath16"
       clipPathUnits="userSpaceOnUse"><path
         id="path18"
         d="M 0,36 H 36 V 0 H 0 Z"
         inkscape:connector-curvature="0" /></clipPath></defs><g
     transform="matrix(1.25,0,0,-1.25,0,62.431144)"
     id="g10"><g
       id="g12"><g
         clip-path="url(#clipPath16)"
         id="g14"><g
           transform="translate(36,14)"
           id="g20"><path
             id="path22"
             style="fill:#c6e5b3;fill-opacity:1;fill-rule:nonzero;stroke:none"
             d="m 0,0 c 0,-7.456 -8.059,-12 -18,-12 -9.941,0 -18,4.544 -18,12 0,7.456 8.059,15 18,15 C -8.059,15 0,7.456 0,0"
             inkscape:connector-curvature="0" /></g><g
           transform="translate(31.7549,23.3242)"
           id="g24"><path
             id="path26"
             style="fill:#77b255;fill-opacity:1;fill-rule:nonzero;stroke:none"
             d="m 0,0 c 1.368,1.1 2.245,2.785 2.245,4.676 0,3.313 -2.686,6 -6,6 -2.861,0 -5.25,-2.005 -5.85,-4.685 -1.289,0.483 -2.684,0.758 -4.15,0.758 -1.465,0 -2.861,-0.275 -4.149,-0.758 -0.601,2.68 -2.99,4.685 -5.851,4.685 -3.313,0 -6,-2.687 -6,-6 0,-1.891 0.878,-3.576 2.245,-4.676 -2.645,-2.68 -4.245,-6.009 -4.245,-9.324 0,-7.456 8.059,-1 18,-1 9.942,0 18,-6.456 18,1 C 4.245,-6.009 2.646,-2.68 0,0"
             inkscape:connector-curvature="0" /></g><g
           transform="translate(11,28.5)"
           id="g28"><path
             id="path30"
             style="fill:#ffffff;fill-opacity:1;fill-rule:nonzero;stroke:none"
             d="M 0,0 C 0,-1.933 -1.567,-3.5 -3.5,-3.5 -5.433,-3.5 -7,-1.933 -7,0 -7,1.933 -5.433,3.5 -3.5,3.5 -1.567,3.5 0,1.933 0,0"
             inkscape:connector-curvature="0" /></g><g
           transform="translate(9,28.5)"
           id="g32"><path
             id="path34"
             style="fill:#292f33;fill-opacity:1;fill-rule:nonzero;stroke:none"
             d="M 0,0 C 0,-0.829 -0.671,-1.5 -1.5,-1.5 -2.329,-1.5 -3,-0.829 -3,0 -3,0.829 -2.329,1.5 -1.5,1.5 -0.671,1.5 0,0.829 0,0"
             inkscape:connector-curvature="0" /></g><g
           transform="translate(32,28.5)"
           id="g36"><path
             id="path38"
             style="fill:#ffffff;fill-opacity:1;fill-rule:nonzero;stroke:none"
             d="M 0,0 C 0,-1.933 -1.566,-3.5 -3.5,-3.5 -5.434,-3.5 -7,-1.933 -7,0 -7,1.933 -5.434,3.5 -3.5,3.5 -1.566,3.5 0,1.933 0,0"
             inkscape:connector-curvature="0" /></g><g
           transform="translate(30,28.5)"
           id="g40"><path
             id="path42"
             style="fill:#292f33;fill-opacity:1;fill-rule:nonzero;stroke:none"
             d="M 0,0 C 0,-0.829 -0.672,-1.5 -1.5,-1.5 -2.328,-1.5 -3,-0.829 -3,0 -3,0.829 -2.328,1.5 -1.5,1.5 -0.672,1.5 0,0.829 0,0"
             inkscape:connector-curvature="0" /></g><g
           transform="translate(15,16)"
           id="g44"><path
             id="path46"
             style="fill:#5c913b;fill-opacity:1;fill-rule:nonzero;stroke:none"
             d="m 0,0 c 0,-0.553 -0.448,-1 -1,-1 -0.552,0 -1,0.447 -1,1 0,0.553 0.448,1 1,1 0.552,0 1,-0.447 1,-1"
             inkscape:connector-curvature="0" /></g><g
           transform="translate(23,16)"
           id="g48"><path
             id="path50"
             style="fill:#5c913b;fill-opacity:1;fill-rule:nonzero;stroke:none"
             d="m 0,0 c 0,-0.553 -0.447,-1 -1,-1 -0.553,0 -1,0.447 -1,1 0,0.553 0.447,1 1,1 0.553,0 1,-0.447 1,-1"
             inkscape:connector-curvature="0" /></g></g></g></g><path
     id="path3825"
     sodipodi:type="arc"
     sodipodi:cx="22.649616"
     sodipodi:cy="25.562862"
     sodipodi:rx="20.464251"
     sodipodi:ry="12.184278"
     sodipodi:start="3.1228766"
     sodipodi:end="0.00050696599"
     d="M 2.1889498,25.790891 A 20.464251,12.184278 0 0 1 12.200136,15.08675 20.464251,12.184278 0 0 1 32.776988,14.975205 20.464251,12.184278 0 0 1 43.113864,25.569039"
     style="fill:#c0c0c0;fill-opacity:1;stroke:none;stroke-width:1.5633775;stroke-opacity:1"
     transform="matrix(0.99998392,0.00567037,-0.00583863,0.99998296,0,0)"
     sodipodi:open="true" /><path
     sodipodi:nodetypes="ccscc"
     inkscape:connector-curvature="0"
     id="path935"
     d="m 22.19646,16.417236 c 1.669477,-4.581707 4.059865,-5.699196 4.059865,-5.699196 0,0 -1.133223,0.109973 -1.821248,-2.942723 C 23.788063,4.904583 22.5,0.10188752 22.5,0.10188752 Z"
     style="fill:#c0c0c0;fill-opacity:1;stroke:none;stroke-width:0.99082547px;stroke-linecap:butt;stroke-linejoin:miter;stroke-opacity:1" /><path
     style="fill:#c0c0c0;fill-opacity:1;stroke:none;stroke-width:0.99082547px;stroke-linecap:butt;stroke-linejoin:miter;stroke-opacity:1"
     d="m 22.80354,16.417236 c -1.669477,-4.581707 -4.059865,-5.699196 -4.059865,-5.699196 0,0 1.133223,0.109973 1.821248,-2.942723 C 21.211937,4.904583 22.5,0.10188752 22.5,0.10188752 Z"
     id="path943"
     inkscape:connector-curvature="0"
     sodipodi:nodetypes="ccscc" /><rect
     id="rect170"
     width="37.407658"
     height="1.498735"
     x="3.7961709"
     y="20.291653"
     style="fill:#cfb534;fill-opacity:1;stroke-width:0.99143863"
     ry="0.74936748"
     rx="1.6614416" /><ellipse
     style="fill:#cfb534;fill-opacity:1;stroke-width:1.27676594"
     id="path983"
     cx="22.5"
     cy="17.503588"
     rx="3.724169"
     ry="3.5881147" /><rect
     style="fill:#cfb534;fill-opacity:1;stroke-width:1.07056236"
     id="rect985"
     width="6.6968803"
     height="0.68296796"
     x="19.151562"
     y="10.435767"
     rx="1.9372135"
     ry="0.22765601" /><rect
     style="fill:#cfb534;fill-opacity:1;stroke-width:0.81917804"
     id="rect3737"
     width="1.3683053"
     height="0.48293129"
     x="21.815849"
     y="2.6116679"
     rx="1.5123378"
     ry="0.17074201" /></svg>