<?xml version="1.0" encoding="UTF-8" standalone="no"?>
<svg
   xmlns:dc="http://purl.org/dc/elements/1.1/"
   xmlns:cc="http://creativecommons.org/ns#"
   xmlns:rdf="http://www.w3.org/1999/02/22-rdf-syntax-ns#"
   xmlns:svg="http://www.w3.org/2000/svg"
   xmlns="http://www.w3.org/2000/svg"
   xmlns:sodipodi="http://sodipodi.sourceforge.net/DTD/sodipodi-0.dtd"
   xmlns:inkscape="http://www.inkscape.org/namespaces/inkscape"
   viewBox="0 0 45 45"
   style="enable-background:new 0 0 45 45;"
   xml:space="preserve"
   version="1.1"
   id="svg2"
   sodipodi:docname="frogpalm.svg"
   inkscape:version="0.92.4 5da689c313, 2019-01-14"
   inkscape:export-xdpi="273.06699"
   inkscape:export-ydpi="273.06699"><sodipodi:namedview
     pagecolor="#ffffff"
     bordercolor="#666666"
     borderopacity="1"
     objecttolerance="10"
     gridtolerance="10"
     guidetolerance="10"
     inkscape:pageopacity="0"
     inkscape:pageshadow="2"
     inkscape:window-width="1920"
     inkscape:window-height="1030"
     id="namedview847"
     showgrid="false"
     inkscape:zoom="11.313709"
     inkscape:cx="17.921081"
     inkscape:cy="21.799241"
     inkscape:window-x="1600"
     inkscape:window-y="50"
     inkscape:window-maximized="0"
     inkscape:current-layer="g1439" /><metadata
     id="metadata8"><rdf:RDF><cc:Work
         rdf:about=""><dc:format>image/svg+xml</dc:format><dc:type
           rdf:resource="http://purl.org/dc/dcmitype/StillImage" /><dc:title></dc:title></cc:Work></rdf:RDF></metadata><defs
     id="defs6"><clipPath
       id="clipPath16"
       clipPathUnits="userSpaceOnUse"><path
         id="path18"
         d="M 0,36 36,36 36,0 0,0 0,36 Z" /></clipPath></defs><g
     transform="matrix(1.25,0,0,-1.25,0,45)"
     id="g10"
     inkscape:export-xdpi="273.06699"
     inkscape:export-ydpi="273.06699"><g
       transform="translate(36,14)"
       id="g20"
       style="fill:#ffad56;fill-opacity:1"><path
         id="path22"
         style="fill:#ffad56;fill-opacity:1;fill-rule:nonzero;stroke:none"
         d="m 0,0 c 0,-7.456 -8.059,-12 -18,-12 -9.941,0 -18,4.544 -18,12 0,7.456 8.059,15 18,15 C -8.059,15 0,7.456 0,0"
         inkscape:connector-curvature="0" /></g><g
       transform="translate(31.7549,23.3242)"
       id="g24"
       style="fill:#ff8300;fill-opacity:1"><path
         id="path26"
         style="fill:#ff8300;fill-opacity:1;fill-rule:nonzero;stroke:none"
         d="m 0,0 c 1.368,1.1 2.245,2.785 2.245,4.676 0,3.313 -2.686,6 -6,6 -2.861,0 -5.25,-2.005 -5.85,-4.685 -1.289,0.483 -2.684,0.758 -4.15,0.758 -1.465,0 -2.861,-0.275 -4.149,-0.758 -0.601,2.68 -2.99,4.685 -5.851,4.685 -3.313,0 -6,-2.687 -6,-6 0,-1.891 0.878,-3.576 2.245,-4.676 -2.645,-2.68 -4.245,-6.009 -4.245,-9.324 0,-7.456 8.059,-1 18,-1 9.942,0 18,-6.456 18,1 C 4.245,-6.009 2.646,-2.68 0,0"
         inkscape:connector-curvature="0" /></g><g
       transform="translate(11,28.5)"
       id="g28"><path
         id="path30"
         style="fill:#ffffff;fill-opacity:1;fill-rule:nonzero;stroke:none"
         d="M 0,0 C 0,-1.933 -1.567,-3.5 -3.5,-3.5 -5.433,-3.5 -7,-1.933 -7,0 -7,1.933 -5.433,3.5 -3.5,3.5 -1.567,3.5 0,1.933 0,0"
         inkscape:connector-curvature="0" /></g><g
       transform="translate(9,28.5)"
       id="g32"><path
         id="path34"
         style="fill:#292f33;fill-opacity:1;fill-rule:nonzero;stroke:none"
         d="M 0,0 C 0,-0.829 -0.671,-1.5 -1.5,-1.5 -2.329,-1.5 -3,-0.829 -3,0 -3,0.829 -2.329,1.5 -1.5,1.5 -0.671,1.5 0,0.829 0,0"
         inkscape:connector-curvature="0" /></g><g
       transform="translate(32,28.5)"
       id="g36"><path
         id="path38"
         style="fill:#ffffff;fill-opacity:1;fill-rule:nonzero;stroke:none"
         d="M 0,0 C 0,-1.933 -1.566,-3.5 -3.5,-3.5 -5.434,-3.5 -7,-1.933 -7,0 -7,1.933 -5.434,3.5 -3.5,3.5 -1.566,3.5 0,1.933 0,0"
         inkscape:connector-curvature="0" /></g><g
       transform="translate(30,28.5)"
       id="g40"><path
         id="path42"
         style="fill:#292f33;fill-opacity:1;fill-rule:nonzero;stroke:none"
         d="M 0,0 C 0,-0.829 -0.672,-1.5 -1.5,-1.5 -2.328,-1.5 -3,-0.829 -3,0 -3,0.829 -2.328,1.5 -1.5,1.5 -0.672,1.5 0,0.829 0,0"
         inkscape:connector-curvature="0" /></g><g
       transform="translate(15,16)"
       id="g44"
       style="fill:#ac5800;fill-opacity:1"><path
         id="path46"
         style="fill:#ac5800;fill-opacity:1;fill-rule:nonzero;stroke:none"
         d="m 0,0 c 0,-0.553 -0.448,-1 -1,-1 -0.552,0 -1,0.447 -1,1 0,0.553 0.448,1 1,1 0.552,0 1,-0.447 1,-1"
         inkscape:connector-curvature="0" /></g><g
       transform="translate(23,16)"
       id="g48"
       style="fill:#ac5800;fill-opacity:1"><path
         id="path50"
         style="fill:#ac5800;fill-opacity:1;fill-rule:nonzero;stroke:none"
         d="m 0,0 c 0,-0.553 -0.447,-1 -1,-1 -0.553,0 -1,0.447 -1,1 0,0.553 0.447,1 1,1 0.553,0 1,-0.447 1,-1"
         inkscape:connector-curvature="0" /></g></g><g
     id="g1439"
     transform="matrix(1.2272749,0,0,1.2272749,84.098821,-0.78207144)"><path
       id="path2"
       d="m -45.880712,21.267972 c -0.054,-0.804 -0.137,-1.582 -0.247,-2.325 -0.133,-0.89 -0.299,-1.728 -0.485,-2.513 -0.171,-0.723 -0.356,-1.397 -0.548,-2.017 -0.288,-0.931 -0.584,-1.738 -0.852,-2.4 -0.527,-1.299 -0.943,-2.0430004 -0.943,-2.0430004 l -3.613,0.4660004 c 0,0 0.417,0.87 0.868,2.575 0.183,0.692 0.371,1.524 0.54,2.495 0.086,0.49 0.166,1.012 0.238,1.573 0.1,0.781 0.183,1.632 0.242,2.549 0.034,0.518 0.058,1.058 0.074,1.619 0.006,0.204 0.015,0.401 0.018,0.611 0.01,0.656 -0.036,1.323 -0.118,1.989 -0.074,0.6 -0.182,1.197 -0.311,1.789 -0.185,0.848 -0.413,1.681 -0.67,2.475 -0.208,0.643 -0.431,1.261 -0.655,1.84 -0.344,0.891 -0.69,1.692 -0.989,2.359 -0.502,1.119 -0.871,1.863 -0.871,2.018 0,0.49 0.35,1.408 2.797,2.02 3.827,0.956 4.196,-0.621 4.196,-0.621 0,0 0.243,-0.738 0.526,-2.192 0.14,-0.718 0.289,-1.605 0.424,-2.678 0.081,-0.642 0.156,-1.348 0.222,-2.116 0.068,-0.8 0.125,-1.667 0.165,-2.605 0.03,-0.71 0.047,-1.47 0.055,-2.259 0.002,-0.246 0.008,-0.484 0.008,-0.737 0,-0.64 -0.03,-1.261 -0.071,-1.872 z"
       style="fill:#c1694f"
       inkscape:connector-curvature="0" /><path
       id="path4"
       d="m -49.552712,30.911972 c -1.403,-0.244 -2.298,-0.653 -2.789,-0.959 -0.344,0.891 -0.69,1.692 -0.989,2.359 0.916,0.499 2.079,0.895 3.341,1.114 0.729,0.127 1.452,0.191 2.131,0.191 0.414,0 0.803,-0.033 1.176,-0.08 0.14,-0.718 0.289,-1.605 0.424,-2.678 -0.444,0.157 -1.548,0.357 -3.294,0.053 z m 1.06,-4.673 c -1.093,-0.108 -1.934,-0.348 -2.525,-0.602 -0.185,0.848 -0.413,1.681 -0.67,2.475 0.864,0.326 1.881,0.561 2.945,0.666 0.429,0.042 0.855,0.064 1.27,0.064 0.502,0 0.978,-0.039 1.435,-0.099 0.068,-0.8 0.125,-1.667 0.165,-2.605 -0.628,0.135 -1.509,0.21 -2.62,0.101 z m 0.309,-2.133 c 0.822,0 1.63,-0.083 2.366,-0.228 0.002,-0.246 0.008,-0.484 0.008,-0.737 0,-0.641 -0.029,-1.262 -0.071,-1.873 -0.529,0.138 -1.285,0.272 -2.352,0.286 -1.084,-0.005 -1.847,-0.155 -2.374,-0.306 0.006,0.204 0.015,0.401 0.018,0.611 0.01,0.656 -0.036,1.323 -0.118,1.989 0.763,0.161 1.605,0.253 2.461,0.257 z m -0.249,-4.577 c 0.825,-0.119 1.59,-0.333 2.304,-0.585 -0.133,-0.89 -0.299,-1.728 -0.485,-2.513 -0.496,0.204 -1.199,0.431 -2.181,0.572 -0.91,0.132 -1.605,0.124 -2.129,0.077 0.1,0.781 0.183,1.632 0.242,2.549 0.152,0.006 0.29,0.029 0.446,0.029 0.588,10e-4 1.2,-0.043 1.803,-0.129 z m 1.271,-5.116 c -0.288,-0.931 -0.584,-1.738 -0.852,-2.4 -0.443,0.222 -1.004,0.456 -1.737,0.659 -0.795,0.221 -1.437,0.309 -1.951,0.339 0.183,0.692 0.371,1.524 0.54,2.495 0.681,-0.068 1.383,-0.179 2.094,-0.376 0.679,-0.188 1.31,-0.44 1.906,-0.717 z"
       style="fill:#d99e82"
       inkscape:connector-curvature="0" /><path
       id="path6"
       d="m -33.952352,6.1212417 c -0.044,-0.061 -4.08389,-4.1934998 -9.8739,-2.8138399 -1.75277,0.3747799 -5.90346,1.5255698 -6.50746,3.9865698 -1.125,-1.568 -2.835,-4.0774202 -5.093001,-4.4804202 -6.199,-1.106 -11.317715,6.4427707 -11.354715,6.5127707 -0.054,0.102 -0.031,0.229 0.056,0.305 0.087,0.076 0.217,0.081 0.311,0.015 0.028,-0.02 4.337485,-3.147213 9.034485,-2.311213 4.801001,0.8540004 8.068231,3.6858629 8.102231,3.6938629 0.02,0.005 0.041,0.007 0.061,0.007 0.069,0 0.136,-0.028 0.184,-0.08 0.032,-0.035 2.1397,-2.7758103 7.48537,-4.7149804 4.48304,-1.3488299 7.26199,0.2412501 7.28999,0.2542501 0.104,0.046 0.227,0.018 0.298,-0.07 0.072,-0.087 0.075,-0.213 0.007,-0.304 z"
       style="fill:#3e721d"
       inkscape:connector-curvature="0"
       sodipodi:nodetypes="cccccscccsccccc" /><path
       id="path8"
       d="m -39.974712,10.274472 c -4.405,-2.3280002 -7.849,-2.9935004 -9.995,-1.5805004 -2.575,-0.487 -7.334001,-0.459 -11.364001,4.7070004 -4.983,6.387 -0.618,14.342 -0.573,14.422 0.067,0.119 0.193,0.191 0.327,0.191 0.015,0 0.031,-10e-4 0.046,-0.003 0.151,-0.019 0.276,-0.127 0.316,-0.274 0.015,-0.054 1.527,-5.52 5.35,-10.118 2.074001,-2.496 4.550001,-4.806 6.308001,-6.34 1.762,0.298 4.327,0.947 6.846,2.354 4.958,2.773 7.234,7.466 7.257,7.513 0.068,0.144 0.211,0.226 0.379,0.212 0.158,-0.018 0.289,-0.133 0.325,-0.287 0.02,-0.088 1.968,-6.9995 -5.222,-10.7965 z"
       style="fill:#5c913b"
       inkscape:connector-curvature="0"
       sodipodi:nodetypes="ccccsccccccccc" /></g></svg>