<?xml version="1.0" encoding="UTF-8" standalone="no"?>
<svg
   xmlns:dc="http://purl.org/dc/elements/1.1/"
   xmlns:cc="http://creativecommons.org/ns#"
   xmlns:rdf="http://www.w3.org/1999/02/22-rdf-syntax-ns#"
   xmlns:svg="http://www.w3.org/2000/svg"
   xmlns="http://www.w3.org/2000/svg"
   xmlns:xlink="http://www.w3.org/1999/xlink"
   xmlns:sodipodi="http://sodipodi.sourceforge.net/DTD/sodipodi-0.dtd"
   xmlns:inkscape="http://www.inkscape.org/namespaces/inkscape"
   viewBox="0 0 45 45"
   style="enable-background:new 0 0 45 45;"
   xml:space="preserve"
   version="1.1"
   id="svg2"
   sodipodi:docname="frogdonut.svg"
   inkscape:version="0.92.4 5da689c313, 2019-01-14"
   inkscape:export-filename="/home/stefan/SSDData/git_clones/frog_emojis/svg/frog.svg.png"
   inkscape:export-xdpi="273.06699"
   inkscape:export-ydpi="273.06699"><sodipodi:namedview
     pagecolor="#ffffff"
     bordercolor="#666666"
     borderopacity="1"
     objecttolerance="10"
     gridtolerance="10"
     guidetolerance="10"
     inkscape:pageopacity="0"
     inkscape:pageshadow="2"
     inkscape:window-width="1920"
     inkscape:window-height="1030"
     id="namedview1498"
     showgrid="false"
     inkscape:zoom="16"
     inkscape:cx="42.079306"
     inkscape:cy="19.026029"
     inkscape:window-x="1600"
     inkscape:window-y="50"
     inkscape:window-maximized="0"
     inkscape:current-layer="svg2" /><metadata
     id="metadata8"><rdf:RDF><cc:Work
         rdf:about=""><dc:format>image/svg+xml</dc:format><dc:type
           rdf:resource="http://purl.org/dc/dcmitype/StillImage" /><dc:title></dc:title></cc:Work></rdf:RDF></metadata><defs
     id="defs6"><linearGradient
       id="linearGradient3914"
       inkscape:collect="always"><stop
         id="stop3908"
         offset="0"
         style="stop-color:#164f0a;stop-opacity:0.99215686" /><stop
         style="stop-color:#46b238;stop-opacity:0.60199004"
         offset="0.75070935"
         id="stop3910" /><stop
         id="stop3912"
         offset="1"
         style="stop-color:#46b238;stop-opacity:0" /></linearGradient><linearGradient
       id="linearGradient3886"
       inkscape:collect="always"><stop
         id="stop3882"
         offset="0"
         style="stop-color:#ffffff;stop-opacity:1" /><stop
         id="stop3884"
         offset="1"
         style="stop-color:#e1e1e1;stop-opacity:0" /></linearGradient><linearGradient
       id="linearGradient3880"
       inkscape:collect="always"><stop
         id="stop3876"
         offset="0"
         style="stop-color:#ffffff;stop-opacity:1" /><stop
         id="stop3878"
         offset="1"
         style="stop-color:#ffffff;stop-opacity:0" /></linearGradient><linearGradient
       inkscape:collect="always"
       id="linearGradient3862"><stop
         style="stop-color:#ffffff;stop-opacity:1"
         offset="0"
         id="stop3858" /><stop
         style="stop-color:#c8b1b1;stop-opacity:0"
         offset="1"
         id="stop3860" /></linearGradient><linearGradient
       inkscape:collect="always"
       id="linearGradient3846"><stop
         style="stop-color:#f0f8ef;stop-opacity:1"
         offset="0"
         id="stop3842" /><stop
         style="stop-color:#ffffff;stop-opacity:0"
         offset="1"
         id="stop3844" /></linearGradient><linearGradient
       inkscape:collect="always"
       id="linearGradient3828"><stop
         style="stop-color:#ffffff;stop-opacity:1"
         offset="0"
         id="stop3824" /><stop
         style="stop-color:#f2f2f2;stop-opacity:0"
         offset="1"
         id="stop3826" /></linearGradient><linearGradient
       inkscape:collect="always"
       id="linearGradient2322"><stop
         style="stop-color:#46b238;stop-opacity:1"
         offset="0"
         id="stop2318" /><stop
         id="stop2328"
         offset="0.60355639"
         style="stop-color:#ececec;stop-opacity:0.49411765;" /><stop
         style="stop-color:#45ab39;stop-opacity:1"
         offset="1"
         id="stop2320" /></linearGradient><linearGradient
       inkscape:collect="always"
       id="linearGradient2286"><stop
         style="stop-color:#ececec;stop-opacity:1;"
         offset="0"
         id="stop2282" /><stop
         style="stop-color:#ececec;stop-opacity:0;"
         offset="1"
         id="stop2284" /></linearGradient><linearGradient
       inkscape:collect="always"
       id="linearGradient2266"><stop
         style="stop-color:#7f3331;stop-opacity:1;"
         offset="0"
         id="stop2262" /><stop
         style="stop-color:#b08a65;stop-opacity:1"
         offset="1"
         id="stop2264" /></linearGradient><linearGradient
       inkscape:collect="always"
       id="linearGradient2253"><stop
         style="stop-color:#23541a;stop-opacity:1"
         offset="0"
         id="stop2249" /><stop
         id="stop3896"
         offset="0.55533797"
         style="stop-color:#428a3f;stop-opacity:1;" /><stop
         style="stop-color:#46b238;stop-opacity:1"
         offset="1"
         id="stop2251" /></linearGradient><clipPath
       id="clipPath16"
       clipPathUnits="userSpaceOnUse"><path
         id="path18"
         d="M 0,36 36,36 36,0 0,0 0,36 Z" /></clipPath><linearGradient
       inkscape:collect="always"
       xlink:href="#linearGradient2266"
       id="linearGradient2268"
       x1="15.736214"
       y1="35.232536"
       x2="8.048811"
       y2="40.393391"
       gradientUnits="userSpaceOnUse"
       gradientTransform="matrix(1.0146516,0,0,1.0146516,-8.0743268e-4,-0.60077282)" /><radialGradient
       inkscape:collect="always"
       xlink:href="#linearGradient2286"
       id="radialGradient2288"
       cx="29.022091"
       cy="15.101518"
       fx="29.022091"
       fy="15.101518"
       r="1.5842488"
       gradientUnits="userSpaceOnUse"
       gradientTransform="matrix(1.0961597,0.84002625,-0.790709,1.031805,-23.923526,-6.6879273)" /><linearGradient
       inkscape:collect="always"
       xlink:href="#linearGradient2322"
       id="linearGradient2326"
       x1="4.8797503"
       y1="27.265034"
       x2="8.338438"
       y2="23.615669"
       gradientUnits="userSpaceOnUse"
       gradientTransform="translate(47.764831,-1.5730932)" /><radialGradient
       inkscape:collect="always"
       xlink:href="#linearGradient3828"
       id="radialGradient3830"
       cx="54.86171"
       cy="23.808548"
       fx="54.86171"
       fy="23.808548"
       r="4.5657976"
       gradientTransform="matrix(0.69217356,0.75589929,-0.1895425,0.17356321,-27.109865,-23.449113)"
       gradientUnits="userSpaceOnUse" /><radialGradient
       inkscape:collect="always"
       xlink:href="#linearGradient3846"
       id="radialGradient3854"
       cx="8.9238195"
       cy="23.87072"
       fx="8.9238195"
       fy="23.87072"
       r="3.9472769"
       gradientTransform="matrix(0.52953255,0.20876494,-0.08798185,0.22316603,6.7380524,17.257645)"
       gradientUnits="userSpaceOnUse" /><radialGradient
       inkscape:collect="always"
       xlink:href="#linearGradient3862"
       id="radialGradient3864"
       cx="8.3402491"
       cy="24.079399"
       fx="8.3402491"
       fy="24.079399"
       r="2.0703125"
       gradientTransform="matrix(0.29387038,-0.31816762,0.69521392,0.64212293,-11.22868,10.803806)"
       gradientUnits="userSpaceOnUse" /><radialGradient
       inkscape:collect="always"
       xlink:href="#linearGradient3886"
       id="radialGradient3872"
       gradientUnits="userSpaceOnUse"
       gradientTransform="matrix(0.19987367,-0.34358413,0.78911163,0.45905089,-11.939021,15.986104)"
       cx="8.6212626"
       cy="24.101433"
       fx="8.6212626"
       fy="24.101433"
       r="2.0703125" /><radialGradient
       inkscape:collect="always"
       xlink:href="#linearGradient3880"
       id="radialGradient3874"
       gradientUnits="userSpaceOnUse"
       gradientTransform="matrix(0.23260838,-0.31433875,0.78023367,0.57736709,-12.764964,12.331154)"
       cx="8.3402491"
       cy="24.079399"
       fx="8.3402491"
       fy="24.079399"
       r="2.0703125" /><linearGradient
       inkscape:collect="always"
       xlink:href="#linearGradient2253"
       id="linearGradient3890"
       x1="41.5266"
       y1="29.334892"
       x2="31.377863"
       y2="23.477436"
       gradientUnits="userSpaceOnUse" /><radialGradient
       inkscape:collect="always"
       xlink:href="#linearGradient3914"
       id="radialGradient3906"
       cx="18.760023"
       cy="15.888932"
       fx="18.760023"
       fy="15.888932"
       r="22.4998"
       gradientTransform="matrix(0.38954795,0.258041,-0.17689343,0.26704467,13.358081,8.1709168)"
       gradientUnits="userSpaceOnUse" /></defs><path
     style="fill:url(#linearGradient2268);fill-opacity:1;stroke:none;stroke-width:0.3043955;stroke-linecap:butt;stroke-linejoin:miter;stroke-miterlimit:4;stroke-dasharray:none;stroke-opacity:1"
     d="m 1.6757454,22.997803 c 0,0 -0.032044,3.293991 0.9111312,6.002595 6.6482973,14.861503 32.7851954,15.012816 39.1720884,4.532317 1.470656,-1.949474 2.202789,-5.922027 3.02362,-9.855174 L 24.473363,30.3547 11.921887,28.371614 Z"
     id="path2236"
     inkscape:connector-curvature="0"
     sodipodi:nodetypes="ccccccc" /><path
     style="fill:url(#linearGradient3890);fill-opacity:1;stroke:none;stroke-width:0.304;stroke-linecap:butt;stroke-linejoin:miter;stroke-miterlimit:1;stroke-dasharray:none;stroke-opacity:1"
     d="m 35.821151,4.0642464 c -0.196273,-0.00448 -0.394584,1.504e-4 -0.594523,0.015854 -2.76174,0.2169124 -4.917237,2.3337341 -5.293232,4.966244 C 23.500462,7.8855141 15.183866,8.2074295 11.701375,9.0780522 10.791882,6.7566351 8.2371984,5.280617 5.6788634,5.4039037 c -0.1705556,0.00822 -0.3421482,0.027154 -0.513271,0.053507 -3.1705318,0.4882611 -5.3791989,3.1809485 -4.89093777,6.3514813 0.27868994,1.809682 1.36554237,3.292589 2.83587187,4.143821 0,0 -1.2139341,2.596417 -1.5041416,4.240927 -0.072552,0.967358 -0.1482942,0.409952 0.069361,2.804163 0.779894,1.160194 5.7299629,9.485018 15.1127591,11.498064 2.934952,0.629684 5.478555,-0.04281 9.189336,-0.648029 2.418397,-0.386943 6.555288,-0.295742 9.448943,-1.089958 2.64614,-0.726282 3.766819,0.03049 5.215943,-0.590559 1.795569,-0.769529 3.583627,-7.26849 4.139858,-8.489781 0.338576,-1.535681 -0.134118,-3.928891 -0.441929,-4.783923 -1.350951,-2.342789 -4.633311,-5.095057 -4.633311,-5.095057 1.237139,-1.165554 1.956663,-2.859444 1.813293,-4.6848363 -0.235482,-2.9981794 -2.755417,-4.982207 -5.699487,-5.0494773 z m -15.7638,12.1974886 c 0.974736,-0.06841 3.14358,-0.09342 5.794957,0.591106 1.611931,0.416162 3.426934,0.815142 4.072909,2.348839 0.703453,1.670165 -0.47906,3.249399 -1.299891,3.694015 -2.90711,0.718227 -6.326084,0.06814 -6.326084,0.06814 -2.667701,-0.376214 -4.394962,-0.904709 -5.557806,-1.45193 -0.136805,-1.744266 -0.01692,-2.600029 0.444795,-3.420859 0.687272,-1.114142 1.674075,-1.709609 2.87112,-1.829314 z"
     id="path2075"
     inkscape:connector-curvature="0"
     sodipodi:nodetypes="ssccccscccscsccccsscssccccc" /><path
     sodipodi:nodetypes="ssccccscccscsccccsscssccccc"
     inkscape:connector-curvature="0"
     id="path3898"
     d="m 35.821151,4.0642464 c -0.196273,-0.00448 -0.394584,1.504e-4 -0.594523,0.015854 -2.76174,0.2169124 -4.917237,2.3337341 -5.293232,4.966244 C 23.500462,7.8855141 15.183866,8.2074295 11.701375,9.0780522 10.791882,6.7566351 8.2371984,5.280617 5.6788634,5.4039037 c -0.1705556,0.00822 -0.3421482,0.027154 -0.513271,0.053507 -3.1705318,0.4882611 -5.3791989,3.1809485 -4.89093777,6.3514813 0.27868994,1.809682 1.36554237,3.292589 2.83587187,4.143821 0,0 -1.2139341,2.596417 -1.5041416,4.240927 -0.072552,0.967358 -0.1482942,0.409952 0.069361,2.804163 0.779894,1.160194 5.7299629,9.485018 15.1127591,11.498064 2.934952,0.629684 5.478555,-0.04281 9.189336,-0.648029 2.418397,-0.386943 6.555288,-0.295742 9.448943,-1.089958 2.64614,-0.726282 3.766819,0.03049 5.215943,-0.590559 1.795569,-0.769529 3.583627,-7.26849 4.139858,-8.489781 0.338576,-1.535681 -0.134118,-3.928891 -0.441929,-4.783923 -1.350951,-2.342789 -4.633311,-5.095057 -4.633311,-5.095057 1.237139,-1.165554 1.956663,-2.859444 1.813293,-4.6848363 -0.235482,-2.9981794 -2.755417,-4.982207 -5.699487,-5.0494773 z m -15.7638,12.1974886 c 0.974736,-0.06841 3.14358,-0.09342 5.794957,0.591106 1.611931,0.416162 3.426934,0.815142 4.072909,2.348839 0.703453,1.670165 -0.47906,3.249399 -1.299891,3.694015 -2.90711,0.718227 -6.326084,0.06814 -6.326084,0.06814 -2.667701,-0.376214 -4.394962,-0.904709 -5.557806,-1.45193 -0.136805,-1.744266 -0.01692,-2.600029 0.444795,-3.420859 0.687272,-1.114142 1.674075,-1.709609 2.87112,-1.829314 z"
     style="fill:url(#radialGradient3906);fill-opacity:1;stroke:none;stroke-width:0.304;stroke-linecap:butt;stroke-linejoin:miter;stroke-miterlimit:1;stroke-dasharray:none;stroke-opacity:1" /><path
     inkscape:connector-curvature="0"
     d="m 18.875971,30.735987 c 0,0.701378 -0.568205,1.268314 -1.268315,1.268314 -0.700109,0 -1.268314,-0.566936 -1.268314,-1.268314 0,-0.701378 0.568205,-1.268315 1.268314,-1.268315 0.70011,0 1.268315,0.566937 1.268315,1.268315"
     style="fill:#205909;fill-opacity:1;fill-rule:nonzero;stroke:none;stroke-width:1.26831448"
     id="path2142" /><path
     inkscape:connector-curvature="0"
     d="m 31.75859,30.530779 c 0,0.701378 -0.566936,1.268314 -1.268314,1.268314 -0.701378,0 -1.268315,-0.566936 -1.268315,-1.268314 0,-0.701378 0.566937,-1.268315 1.268315,-1.268315 0.701378,0 1.268314,0.566937 1.268314,1.268315"
     style="fill:#205909;fill-opacity:1;fill-rule:nonzero;stroke:none;stroke-width:1.26831448"
     id="path2144" /><g
     id="g2175"
     transform="matrix(0.77462295,0,0,0.77462295,35.860732,-9.8835284)"><path
       inkscape:connector-curvature="0"
       d="m -34.916867,25.674435 c 0.367766,2.388098 -1.27003,4.622159 -3.658128,4.989925 -2.388098,0.367767 -4.622159,-1.270029 -4.989925,-3.658127 -0.367766,-2.388098 1.27003,-4.622159 3.658128,-4.989925 2.388098,-0.367767 4.622158,1.270029 4.989925,3.658127"
       style="fill:#ffffff;fill-opacity:1;fill-rule:nonzero;stroke:none;stroke-width:1.25"
       id="path30"
       sodipodi:nodetypes="csssc" /><path
       inkscape:connector-curvature="0"
       d="m -37.387739,26.054949 c 0.157722,1.024176 -0.543593,1.980816 -1.56777,2.138539 -1.024176,0.157723 -1.980816,-0.543592 -2.138539,-1.567769 -0.157723,-1.024176 0.543593,-1.980816 1.567769,-2.138539 1.024177,-0.157723 1.980817,0.543592 2.13854,1.567769"
       style="fill:#292f33;fill-opacity:1;fill-rule:nonzero;stroke:none;stroke-width:1.25"
       id="path34"
       sodipodi:nodetypes="csssc" /></g><g
     id="g2217"
     transform="matrix(1.0146516,0,0,1.0146516,32.011774,9.0537873)"><path
       id="path2183"
       style="fill:#ffffff;fill-opacity:1;fill-rule:nonzero;stroke:none;stroke-width:0.95429671"
       d="M 7.4308798,-0.26614119 C 7.5753177,1.5728508 6.2025669,3.1806575 4.3626234,3.3251701 2.52268,3.4696827 0.91574996,2.0959057 0.77131212,0.25691372 0.62687422,-1.5820783 1.9996252,-3.189885 3.8395685,-3.3343976 5.679512,-3.4789102 7.286442,-2.1051333 7.4308798,-0.26614119"
       inkscape:connector-curvature="0" /><path
       id="path2185"
       style="fill:#292f33;fill-opacity:1;fill-rule:nonzero;stroke:none;stroke-width:0.95429671"
       d="M 5.5281462,-0.11669693 C 5.5900908,0.67198613 5.0009109,1.3605665 4.2131791,1.4224364 3.4254474,1.4843064 2.7359904,0.8961525 2.6740458,0.10746946 2.6121012,-0.68121366 3.201281,-1.3697941 3.9890128,-1.4316639 c 0.7877317,-0.06187 1.4771888,0.52628389 1.5391334,1.31496697"
       inkscape:connector-curvature="0" /></g><circle
     style="opacity:0.728;fill:url(#radialGradient2288);fill-opacity:1;stroke:none;stroke-width:0.41430533;stroke-linecap:butt;stroke-linejoin:round;stroke-miterlimit:4;stroke-dasharray:none;stroke-opacity:1;paint-order:markers fill stroke"
     id="path2272"
     cx="-4.0515862"
     cy="33.273216"
     r="2.1878757"
     transform="rotate(-70.99006)" /><path
     style="fill:url(#radialGradient3830);fill-opacity:1;stroke:#000000;stroke-width:0;stroke-linecap:butt;stroke-linejoin:miter;stroke-miterlimit:4;stroke-dasharray:none;stroke-opacity:1"
     d="m 6.041715,24.321849 c 1.26101,1.516538 5.446408,1.730542 6.02783,1.354328 0.581422,-0.376214 0.475047,-0.949233 0.166175,-1.338681 -1.544358,-1.047478 -2.040119,-0.185648 -3.5615666,-2.107718 -0.9937619,-1.598076 -1.2554142,-1.830751 -2.2223173,-2.582787 0,0 -1.5095885,-1.000534 -2.4047131,-0.988263 -0.4935062,0.0068 -0.6728368,0.129852 -0.708861,0.3995 -0.057429,0.477191 0.029567,0.748088 0.513019,1.782137 1.1210663,2.010452 1.5939964,2.701387 2.190434,3.481484 z"
     id="path2330"
     inkscape:connector-curvature="0"
     sodipodi:nodetypes="cccccsccc" /><path
     style="fill:url(#radialGradient3854);fill-opacity:1;stroke:#000000;stroke-width:0;stroke-linecap:butt;stroke-linejoin:miter;stroke-miterlimit:4;stroke-dasharray:none;stroke-opacity:1"
     d="m 6.2964868,24.672084 1.8125549,1.013798 c 0,0 3.1819963,0.427629 3.6259063,0.300798 0.44391,-0.126832 0.706747,-0.356094 0.706747,-0.356094 l 0.05446,-0.899964 c 0,0 -0.246573,-1.291998 -0.658775,-1.291998 -0.412202,0 -2.8209697,-1.15749 -2.8209697,-1.15749 0,0 -2.1362571,-0.0986 -2.4216279,0.09164 -0.2853707,0.190247 -0.8982178,0.681776 -0.8982178,0.681776 z"
     id="path3832"
     inkscape:connector-curvature="0"
     sodipodi:nodetypes="ccsccscscc" /><rect
     style="opacity:1;fill:url(#radialGradient3864);fill-opacity:1;stroke:none;stroke-width:0;stroke-linecap:butt;stroke-linejoin:round;stroke-miterlimit:4;stroke-dasharray:none;stroke-opacity:1;paint-order:markers fill stroke"
     id="rect3856"
     width="4.2012916"
     height="3.7494547"
     x="5.5480685"
     y="21.737415" /><rect
     y="21.737415"
     x="5.5480685"
     height="3.7494547"
     width="4.2012916"
     id="rect3866"
     style="opacity:0.631;fill:url(#radialGradient3874);fill-opacity:1;stroke:none;stroke-width:0;stroke-linecap:butt;stroke-linejoin:round;stroke-miterlimit:4;stroke-dasharray:none;stroke-opacity:1;paint-order:markers fill stroke" /><rect
     style="opacity:1;fill:url(#radialGradient3872);fill-opacity:1;stroke:none;stroke-width:0;stroke-linecap:butt;stroke-linejoin:round;stroke-miterlimit:4;stroke-dasharray:none;stroke-opacity:1;paint-order:markers fill stroke"
     id="rect3870"
     width="4.2012916"
     height="3.7494547"
     x="6.3090572"
     y="22.308157" /></svg>