<?xml version="1.0" encoding="utf-8"?>
<!-- Generator: Adobe Illustrator 25.0.0, SVG Export Plug-In . SVG Version: 6.00 Build 0)  -->
<svg version="1.1" id="Ebene_1" xmlns="http://www.w3.org/2000/svg" xmlns:xlink="http://www.w3.org/1999/xlink" x="0px" y="0px"
	 viewBox="0 0 36 36" style="enable-background:new 0 0 36 36;" xml:space="preserve">
<style type="text/css">
	.st0{fill:#C6E5B3;}
	.st1{fill:#FFFFFF;}
	.st2{fill:#77B255;}
	.st3{fill:#292F33;}
	.st4{fill:#5C913B;}
</style>
<g>
	<path class="st0" d="M36,22c0,7.5-8.1,12-18,12S0,29.5,0,22S8.1,7,18,7S36,14.5,36,22z"/>
	<path class="st1" d="M22,22.3c-0.8,0.2-1.6,0.4-2.5,0.5c-0.4,0-0.7,0.1-1.1,0.1v4.5H20c1.1,0,2-0.9,2-2V22.3z M14,22.3
		c0.8,0.2,1.6,0.4,2.5,0.5c0.4,0,0.7,0.1,1.1,0.1v4.5H16c-1.1,0-2-0.9-2-2V22.3z"/>
	<path class="st2" d="M31.8,12.7c2.6-2.1,3-5.8,0.9-8.4c-2.1-2.6-5.8-3-8.4-0.9c-1.1,0.9-1.8,2-2.1,3.4c-2.7-1-5.6-1-8.3,0
		c-0.7-3.2-3.9-5.3-7.2-4.5S1.4,6.1,2.2,9.3c0.3,1.3,1,2.5,2.1,3.4C1.7,15.1,0.2,18.5,0,22c0,7.5,8.1,1,18,1s18,6.5,18-1
		C35.9,18.5,34.3,15.1,31.8,12.7z"/>
	<circle class="st1" cx="7.5" cy="7.5" r="3.5"/>
	<circle class="st3" cx="7.5" cy="7.5" r="1.5"/>
	<circle class="st1" cx="28.5" cy="7.5" r="3.5"/>
	<circle class="st3" cx="28.5" cy="7.5" r="1.5"/>
	<circle class="st4" cx="14" cy="20" r="1"/>
	<circle class="st4" cx="22" cy="20" r="1"/>
</g>
<path class="st3" d="M36.8,3.1c-0.2-0.2-1.3,0.3-2.4-0.3c-2.3-1.2-8.1-2.3-11.8,0.4c-0.4,0.3-4.1,0.3-4.6,0.3s-4.2,0-4.6-0.3
	C9.7,0.5,4,1.7,1.7,2.8C0.6,3.4-0.5,3-0.7,3.1c-0.2,0.4-0.2,1,0,1.4C-0.5,4.8,0.8,5.1,1,5.8s0.2,5,2.2,6.4s6.1,1.8,8.9,0.2
	c2.4-1.4,2.3-4.2,2.7-5.9c0.1-0.4,2.6-0.6,3.3-0.6s3.1,0.2,3.3,0.6c0.4,1.7,0.4,4.5,2.7,5.9c2.7,1.5,7,1.1,8.8-0.2
	c1.8-1.4,2-5.7,2.2-6.4s1.5-1,1.7-1.2C37.1,4.1,37.1,3.6,36.8,3.1z M12.6,6.8c-0.1,1.1-0.3,3.2-1.6,4c-0.9,0.5-2,0.8-3,0.7h0
	c-1.2,0-2.5-0.3-3.6-0.8C3.6,10,3.3,7.5,3.2,6.5C3.1,5.9,2.9,4.4,3.6,4.2c1.3-0.4,2.7-0.6,4.1-0.6c0.7,0,3,0,4.2,0.7
	C12.5,4.9,12.9,5.9,12.6,6.8z M32.9,6.5c-0.1,1-0.4,3.5-1.3,4.1c-1.1,0.6-2.3,0.9-3.6,0.8l0,0c-1,0-2.1-0.2-3-0.7
	c-1.3-0.8-1.5-2.9-1.6-4c0-0.6-0.2-1.8,0.8-2.5c1.3-0.5,2.7-0.8,4.1-0.7c1.4,0,2.7,0.2,4,0.6C33.2,4.4,33,5.9,32.9,6.5z"/>
</svg>
