<svg xmlns="http://www.w3.org/2000/svg" viewBox="0 0 865.22 865.22"><defs><style>.cls-1{fill:#406429;}.cls-2{fill:#5d913b;}.cls-3{fill:#78b355;}.cls-4{fill:#c7dfb3;}.cls-5{fill:#fff;}.cls-6{fill:#2a3034;}.cls-7{fill:none;}</style></defs><g id="Ebene_2" data-name="Ebene 2"><g id="Ebene_1-2" data-name="Ebene 1"><path class="cls-1" d="M723,586.66s164.87,105.7,139.56,182.91S451.19,812.36,446.26,745.4"/><ellipse class="cls-2" cx="796.98" cy="688.76" rx="22.95" ry="36.28" transform="translate(-235.63 896.78) rotate(-52.22)"/><path class="cls-1" d="M142.21,586.66S-22.66,692.36,2.64,769.57,414,812.36,419,745.4"/><ellipse class="cls-2" cx="68.25" cy="688.76" rx="36.28" ry="22.95" transform="translate(-407.61 186.16) rotate(-37.78)"/><circle class="cls-3" cx="431.22" cy="398.62" r="347.1"/><path class="cls-4" d="M735.2,566.28c-59.13,107-173.09,179.43-304,179.43-131.6,0-246.1-73.24-305-181.18,51.44,23,169.43-43.35,306.75-43.35C566.42,521.18,681.57,583.77,735.2,566.28Z"/><path class="cls-3" d="M714.67,558.27C856.06,616.7,891,437.75,771.27,328.65"/><polygon class="cls-3" points="770.35 332.56 766.98 329.61 769.03 340.83 770.35 332.56"/><path class="cls-3" d="M91.12,328.65C-28.63,437.75,6.33,616.7,147.72,558.27"/><polygon class="cls-3" points="92.03 332.56 95.41 329.61 93.36 340.83 92.03 332.56"/><circle class="cls-2" cx="379.29" cy="484.05" r="17.01"/><circle class="cls-2" cx="485.97" cy="484.05" r="17.01"/><circle class="cls-5" cx="298.6" cy="283.33" r="65"/><circle class="cls-6" cx="298.6" cy="283.33" r="27.86"/><circle class="cls-5" cx="567.46" cy="283.33" r="65"/><circle class="cls-6" cx="567.46" cy="283.33" r="27.86"/><rect class="cls-7" width="865.22" height="865.22"/></g></g></svg>