<svg xmlns="http://www.w3.org/2000/svg" xmlns:xlink="http://www.w3.org/1999/xlink" viewBox="0 0 45 45"><defs><style>.cls-1,.cls-8{fill:none;}.cls-2{clip-path:url(#clip-path);}.cls-3{fill:#c6e5b3;}.cls-4{fill:#77b255;}.cls-5{fill:#fff;}.cls-6{fill:#292f33;}.cls-7{fill:#5c913b;}.cls-8{stroke:#3f6328;stroke-miterlimit:10;}</style><clipPath id="clip-path" transform="translate(0 0)"><rect class="cls-1" width="45" height="45"/></clipPath></defs><g id="Ebene_2" data-name="Ebene 2"><g id="Ebene_1-2" data-name="Ebene 1"><g id="Ebene_2-2" data-name="Ebene 2"><g id="svg2"><g id="g10"><g id="g12"><g class="cls-2"><g id="g14"><g id="g20"><path id="path22" class="cls-3" d="M45,27.5c0,9.32-10.07,15-22.5,15S0,36.82,0,27.5,10.07,8.75,22.5,8.75,45,18.18,45,27.5" transform="translate(0 0)"/></g><g id="g24"><path id="path26" class="cls-4" d="M39.69,15.84a7.49,7.49,0,1,0-12-7.48,14.62,14.62,0,0,0-10.38,0,7.49,7.49,0,1,0-12,7.48A17,17,0,0,0,0,27.5c0,9.32,10.07,1.25,22.5,1.25S45,36.82,45,27.5a17,17,0,0,0-5.31-11.66" transform="translate(0 0)"/></g><g id="g28"><path id="path30" class="cls-5" d="M13.75,9.38A4.38,4.38,0,1,1,9.37,5h0a4.37,4.37,0,0,1,4.37,4.37h0" transform="translate(0 0)"/></g><g id="g32"><path id="path34" class="cls-6" d="M11.25,9.38A1.88,1.88,0,1,1,9.37,7.5h0a1.87,1.87,0,0,1,1.87,1.87h0" transform="translate(0 0)"/></g><g id="g36"><path id="path38" class="cls-5" d="M40,9.38A4.38,4.38,0,1,1,35.62,5,4.38,4.38,0,0,1,40,9.38h0" transform="translate(0 0)"/></g><g id="g40"><path id="path42" class="cls-6" d="M37.5,9.38A1.88,1.88,0,1,1,35.62,7.5,1.88,1.88,0,0,1,37.5,9.38h0" transform="translate(0 0)"/></g><g id="g44"><path id="path46" class="cls-7" d="M18.75,25a1.25,1.25,0,1,1-1.25-1.25A1.25,1.25,0,0,1,18.75,25" transform="translate(0 0)"/></g><g id="g48"><path id="path50" class="cls-7" d="M28.75,25a1.25,1.25,0,1,1-1.25-1.25A1.25,1.25,0,0,1,28.75,25" transform="translate(0 0)"/></g></g></g></g></g><path class="cls-8" d="M39.62,19.41a2.06,2.06,0,0,0-1.92,1.44V19.57A1.55,1.55,0,0,0,36,17.9c-1,0-2.1,2.59-2.1,2.59a1.74,1.74,0,0,0-1.69-1.87,1.86,1.86,0,0,0-1.89,1.82L30,33.94l6.19,7.45,5.21-7.13,0-12.94A1.87,1.87,0,0,0,39.62,19.41Z" transform="translate(0 0)"/><path class="cls-8" d="M44.38,23.6a1.5,1.5,0,1,0-3,0l-.08,7a7.13,7.13,0,0,0-.74-.3l.1-9.65a1.5,1.5,0,0,0-3,0l-.1,9.08q-.36,0-.75-.06L36.94,19a1.5,1.5,0,0,0-3,0l-.11,10.51c-.26,0-.5,0-.75.06l.1-9.83a1.5,1.5,0,1,0-3,0L30.09,30.1v1.58a7.5,7.5,0,0,1,7.4,7.56.72.72,0,0,1-.75.74,7.08,7.08,0,0,0-7.41-7.56l-2.14-5.15a1.49,1.49,0,1,0-2.84.93l1,3.81a31.68,31.68,0,0,1,1,4.6,9,9,0,0,0,17.9-1Z" transform="translate(0 0)"/><path class="cls-7" d="M39.62,19.41a2.06,2.06,0,0,0-1.92,1.44V19.57A1.55,1.55,0,0,0,36,17.9c-1,0-2.1,2.59-2.1,2.59a1.74,1.74,0,0,0-1.69-1.87,1.86,1.86,0,0,0-1.89,1.82L30,33.94l6.19,7.45,5.21-7.13,0-12.94A1.87,1.87,0,0,0,39.62,19.41Z" transform="translate(0 0)"/><path class="cls-4" d="M44.38,23.6a1.5,1.5,0,1,0-3,0l-.08,7a7.13,7.13,0,0,0-.74-.3l.1-9.65a1.5,1.5,0,0,0-3,0l-.1,9.08q-.36,0-.75-.06L36.94,19a1.5,1.5,0,0,0-3,0l-.11,10.51c-.26,0-.5,0-.75.06l.1-9.83a1.5,1.5,0,1,0-3,0L30.09,30.1v1.58a7.5,7.5,0,0,1,7.4,7.56.72.72,0,0,1-.75.74,7.08,7.08,0,0,0-7.41-7.56l-2.14-5.15a1.49,1.49,0,1,0-2.84.93l1,3.81a31.68,31.68,0,0,1,1,4.6,9,9,0,0,0,17.9-1Z" transform="translate(0 0)"/><path id="path932" class="cls-6" d="M40.56,7.05a1.15,1.15,0,0,0,.51-.49,1,1,0,0,0-.46-1.42,12,12,0,0,0-9.93-.24,1.1,1.1,0,0,0-.54,1.44,1.1,1.1,0,0,0,1.48.45,9.68,9.68,0,0,1,7.94.29A1.2,1.2,0,0,0,40.56,7.05Z" transform="translate(0 0)"/><path id="path932-2" data-name="path932" class="cls-6" d="M4.43,7.05a1.15,1.15,0,0,1-.51-.49,1,1,0,0,1,.46-1.42,12,12,0,0,1,9.93-.24,1.1,1.1,0,0,1,.54,1.44,1.1,1.1,0,0,1-1.48.45,9.68,9.68,0,0,0-7.94.29A1.2,1.2,0,0,1,4.43,7.05Z" transform="translate(0 0)"/></g></g><rect class="cls-1" width="45" height="45"/></g></g></svg>