<?xml version="1.0" encoding="utf-8"?>
<!-- Generator: Adobe Illustrator 25.0.0, SVG Export Plug-In . SVG Version: 6.00 Build 0)  -->
<svg version="1.1" id="Ebene_1" xmlns="http://www.w3.org/2000/svg" xmlns:xlink="http://www.w3.org/1999/xlink" x="0px" y="0px"
	 viewBox="0 0 605.3 605.3" style="enable-background:new 0 0 605.3 605.3;" xml:space="preserve">
<style type="text/css">
	.st0{fill:#D2E0CA;}
	.st1{fill:#91AA85;}
	.st2{fill:#FFFFFF;}
	.st3{fill:#292F33;}
	.st4{fill:#627559;}
	.st5{fill:none;stroke:#596B52;stroke-width:18;stroke-linecap:round;stroke-miterlimit:10;}
	.st6{fill:none;}
</style>
<g id="Ebene_2_1_">
	<g id="Ebene_1-2">
		<path class="st0" d="M605.3,369.9c0,125.4-135.5,201.8-302.7,201.8S0,495.3,0,369.9s135.5-252.2,302.7-252.2
			S605.3,244.6,605.3,369.9z"/>
		<path class="st1" d="M534,213.1c43.4-34.9,50.4-98.4,15.5-141.8C514.6,27.9,451.1,21,407.7,55.9c-17.8,14.3-30.3,34.2-35.3,56.5
			c-45-17-94.6-17-139.5,0c-12.2-54.4-66.1-88.5-120.5-76.3s-88.5,66.1-76.3,120.5c5,22.3,17.5,42.3,35.3,56.6
			C26.9,258.2,0,314.2,0,369.9c0,125.4,135.5,16.8,302.7,16.8s302.7,108.6,302.7-16.8C605.3,314.2,578.4,258.2,534,213.1z"/>
		<circle class="st2" cx="126.1" cy="126.1" r="58.8"/>
		<circle class="st3" cx="126.1" cy="126.1" r="25.2"/>
		<circle class="st2" cx="479.2" cy="126.1" r="58.8"/>
		<circle class="st3" cx="479.2" cy="126.1" r="25.2"/>
		<circle class="st4" cx="235.4" cy="336.3" r="16.8"/>
		<circle class="st4" cx="369.9" cy="336.3" r="16.8"/>
		<line class="st5" x1="153.5" y1="477.8" x2="215.5" y2="415.8"/>
		<line class="st5" x1="453" y1="477.8" x2="391" y2="415.8"/>
		<path class="st5" d="M168.9,263.6c88.5-29.8,178-27.9,269,0"/>
		<path class="st5" d="M207.4,209.8c63.9-18.6,126.6-18.7,191.8,0"/>
		<path class="st5" d="M87.6,200.9c27.9,18.8,53.3,18.6,81.2-0.2"/>
		<path class="st5" d="M437.4,200.9c28.8,18.8,54.2,18.6,81.2-0.2"/>
		<rect y="0" class="st6" width="605.3" height="605.3"/>
	</g>
</g>
</svg>
