<svg xmlns="http://www.w3.org/2000/svg" xmlns:xlink="http://www.w3.org/1999/xlink" viewBox="0 0 248 248"><defs><style>.cls-1{fill:url(#Unbenannter_Verlauf_137);}.cls-2{fill:url(#Unbenannter_Verlauf_144);}.cls-3{fill:url(#Unbenannter_Verlauf_144-2);}.cls-4{fill:url(#Unbenannter_Verlauf_153);}.cls-5{fill:none;stroke-linecap:round;stroke-linejoin:round;stroke-width:5px;stroke:url(#Unbenannter_Verlauf_5);}.cls-6{fill:#fff;}.cls-7{fill:#2a3034;}</style><linearGradient id="Unbenannter_Verlauf_137" x1="124" y1="502.98" x2="124" y2="750.98" gradientTransform="matrix(1, 0, 0, -1, 0, 750.98)" gradientUnits="userSpaceOnUse"><stop offset="0" stop-color="#76b157"/><stop offset="0.11" stop-color="#76b157"/><stop offset="0.3" stop-color="#76b157"/><stop offset="0.65" stop-color="#4d833a"/><stop offset="0.83" stop-color="#3d712e"/><stop offset="1" stop-color="#3d712e"/></linearGradient><linearGradient id="Unbenannter_Verlauf_144" x1="67.59" y1="71.76" x2="180.86" y2="185.03" gradientUnits="userSpaceOnUse"><stop offset="0" stop-color="#c7dfb3"/><stop offset="1" stop-color="#fff" stop-opacity="0"/></linearGradient><linearGradient id="Unbenannter_Verlauf_144-2" x1="224.7" y1="600.51" x2="272.67" y2="552.54" gradientTransform="matrix(1, 0, 0, -1, -212.8, 696.78)" xlink:href="#Unbenannter_Verlauf_144"/><linearGradient id="Unbenannter_Verlauf_153" x1="400.93" y1="544.04" x2="448.9" y2="592.01" gradientTransform="matrix(1, 0, 0, -1, -212.8, 696.78)" gradientUnits="userSpaceOnUse"><stop offset="0" stop-color="#3d712e"/><stop offset="1" stop-color="#fff" stop-opacity="0"/></linearGradient><linearGradient id="Unbenannter_Verlauf_5" x1="92.5" y1="704.98" x2="214.5" y2="704.98" gradientTransform="matrix(1, 0, 0, -1, 0, 750.98)" gradientUnits="userSpaceOnUse"><stop offset="0" stop-color="#fff"/><stop offset="1" stop-color="#fff" stop-opacity="0"/></linearGradient></defs><g id="Ebene_2" data-name="Ebene 2"><g id="Ebene_1-2" data-name="Ebene 1"><circle class="cls-1" cx="124" cy="124" r="124"/><path class="cls-2" d="M199.2,95.6v68.1a7.2,7.2,0,0,1-7.2,7.2H56.4a7.2,7.2,0,0,1-7.2-7.2V95.6a7.18,7.18,0,0,1,7.07-7.19h0a13.31,13.31,0,0,1,26.61,0h82.74a13.31,13.31,0,0,1,26.61,0h0A7.19,7.19,0,0,1,199.2,95.6Z"/><path class="cls-3" d="M41.7,78.1v84.3h0a28.1,28.1,0,0,1-28.1-28.1h0V106.2A28.1,28.1,0,0,1,41.7,78.1Z"/><path class="cls-4" d="M206.3,86.6v84.3h0a28.1,28.1,0,0,0,28.1-28.1h0V114.7a28.1,28.1,0,0,0-28.1-28.1Z"/><path class="cls-5" d="M95,59c44.7-31.9,88.7-38,107-20,3.7,3.7,8.7,10.6,10,24"/><circle class="cls-6" cx="68.56" cy="87.38" r="7.65"/><circle class="cls-7" cx="68.56" cy="87.38" r="3.28"/><circle class="cls-6" cx="179.94" cy="87.38" r="7.65"/><circle class="cls-7" cx="179.94" cy="87.38" r="3.28"/><path class="cls-6" d="M93.9,68.13c0,2.86-3.09,4.61-6.9,4.61S80.1,71,80.1,68.13s3.09-5.75,6.9-5.75S93.9,65.28,93.9,68.13Z"/><path class="cls-6" d="M92.27,64.56a2.29,2.29,0,0,0,.87-1.79,2.3,2.3,0,0,0-4.55-.51,4.5,4.5,0,0,0-3.18,0,2.3,2.3,0,1,0-3.68,2.3,5.18,5.18,0,0,0-1.63,3.57c0,2.86,3.09.39,6.9.39s6.9,2.47,6.9-.39A5.18,5.18,0,0,0,92.27,64.56Z"/><circle class="cls-6" cx="82.97" cy="62.57" r="1.34"/><circle class="cls-6" cx="82.97" cy="62.57" r="0.58"/><circle class="cls-6" cx="91.03" cy="62.57" r="1.34"/><circle class="cls-6" cx="91.03" cy="62.57" r="0.58"/><circle class="cls-6" cx="85.47" cy="67.37" r="0.38"/><circle class="cls-6" cx="88.53" cy="67.37" r="0.38"/></g></g></svg>