<?xml version="1.0" encoding="utf-8"?>
<!-- Generator: Adobe Illustrator 25.0.0, SVG Export Plug-In . SVG Version: 6.00 Build 0)  -->
<svg version="1.1" id="Ebene_1" xmlns="http://www.w3.org/2000/svg" xmlns:xlink="http://www.w3.org/1999/xlink" x="0px" y="0px"
	 viewBox="0 0 441.7 441.7" style="enable-background:new 0 0 441.7 441.7;" xml:space="preserve">
<style type="text/css">
	.st0{fill:url(#SVGID_1_);stroke:#000000;stroke-width:5;stroke-miterlimit:10;}
	.st1{stroke:#000000;stroke-width:5;stroke-linecap:round;stroke-miterlimit:10;}
	.st2{fill:#C6E5B3;}
	.st3{fill:#77B255;}
	.st4{fill:#FFFFFF;}
	.st5{fill:#292F33;}
	.st6{fill:#5C913B;}
	.st7{fill:#F9F8F7;stroke:#000000;stroke-width:5;stroke-linejoin:round;}
	.st8{fill:none;stroke:#000000;stroke-width:5;stroke-linecap:round;stroke-miterlimit:10;}
	.st9{fill:none;stroke:#000000;stroke-width:5;stroke-miterlimit:10;}
	.st10{fill:none;}
</style>
<g id="Ebene_2_1_">
	<g id="Ebene_1-2">
		
			<linearGradient id="SVGID_1_" gradientUnits="userSpaceOnUse" x1="241.5173" y1="23.6991" x2="142.1273" y2="415.0091" gradientTransform="matrix(1 0 0 -1 0 441.8898)">
			<stop  offset="0" style="stop-color:#3D585B"/>
			<stop  offset="0.39" style="stop-color:#567A7E"/>
			<stop  offset="0.78" style="stop-color:#6B969B"/>
			<stop  offset="1" style="stop-color:#73A1A6"/>
		</linearGradient>
		<path class="st0" d="M220.3,3C54.8,3,40.2,399,40.2,399c25.2,30.9,68.8,20.4,118.4-3.6c148.7,30.2,260.1,3.6,247.8-62.1
			C406.5,333.2,379.5,3,220.3,3z"/>
		<ellipse class="st1" cx="187" cy="132.7" rx="91.7" ry="95.3"/>
		<path class="st2" d="M277,161.6c0,43.6-43.5,70.1-97.1,70.1s-97.1-26.6-97.1-70.1s43.5-87.7,97.1-87.7S277,118,277,161.6z"/>
		<path class="st3" d="M254.1,107.1c7.8-6.9,12.2-16.9,12.1-27.3c0-19.4-14.5-35.1-32.4-35.1c-15.4,0-28.3,11.7-31.6,27.4
			c-14.3-5.9-30.4-5.9-44.8,0c-3.2-15.7-16.1-27.4-31.6-27.4c-17.9,0-32.4,15.7-32.4,35.1c-0.1,10.4,4.3,20.4,12.1,27.3
			c-14.3,15.7-22.9,35.1-22.9,54.5c0,43.6,43.5,5.8,97.1,5.8s97.2,37.8,97.2-5.8C277,142.2,268.4,122.8,254.1,107.1z"/>
		<ellipse class="st3" cx="125.9" cy="79.8" rx="32.4" ry="35.1"/>
		<ellipse class="st4" cx="123.2" cy="76.9" rx="18.9" ry="20.5"/>
		<ellipse class="st5" cx="123.2" cy="76.9" rx="8.1" ry="8.8"/>
		<ellipse class="st4" cx="236.5" cy="76.9" rx="18.9" ry="20.5"/>
		<ellipse class="st5" cx="236.5" cy="76.9" rx="8.1" ry="8.8"/>
		<ellipse class="st6" cx="158.3" cy="149.9" rx="5.4" ry="5.9"/>
		<ellipse class="st6" cx="201.4" cy="149.9" rx="5.4" ry="5.9"/>
		<path class="st7" d="M271.2,130.9c0,51.6-69.2,93.1-96.5,93.1c-20.9,0-79.4-45.9-79.4-97.5c0-43.9,42.4-89,85.8-89
			S271.2,79.3,271.2,130.9z M43.8,349.6c0,0-26.2,6.9-26.2,22.6s21.2,69,64.9,64.6s70.4-29.3,70.4-29.3
			c7.2,17.8,45.4,31.3,91.6,31.3c158.9,0,213.6-110,158.8-132.4c0,0,14.9,95.6-130.6,95.6c-59.5,0-93.5-27.8-93.5-72
			c0-70.1,126.4-88.4,126.4-194.1c0-82.6-84.8-124.7-124.5-124.7c-51.6,0-111,50.4-111,127.9s67.3,121.7,67.3,121.7
			c-22.6,53.2-27.9,96.8-3.9,124c0,0-17.6,21.5-50.9,21.5C28.7,406.3,43.8,349.6,43.8,349.6z"/>
		<path class="st8" d="M333,205.5c-9,41.5-28.6,77.1-28.6,77.1"/>
		<path class="st8" d="M369.4,268.1c-34.4,43.8-63,49.3-63,49.3"/>
		<path class="st8" d="M201.1,282.6c28.9,42.5,58.7,91.6,80.6,79"/>
		<path class="st8" d="M281.8,274c-11.7-13.3-29.4-19.1-55.4-14.3"/>
		<path class="st8" d="M111.2,253.1c-10.3,9-23.3,12.9-38.3,12.9"/>
		<path class="st8" d="M117.8,268.1c-6.7,26.1-22.3,39.9-45,43.9"/>
		<line class="st9" x1="178.3" y1="223.8" x2="137.4" y2="260.7"/>
		<rect y="0" class="st10" width="441.7" height="441.7"/>
	</g>
</g>
</svg>
