<?xml version="1.0" encoding="UTF-8" standalone="no"?>
<svg
   viewBox="0 0 45 45"
   version="1.1"
   id="svg37"
   sodipodi:docname="frogsnowman_green_without_snow.svg"
   inkscape:version="1.1.1 (3bf5ae0d25, 2021-09-20, custom)"
   xmlns:inkscape="http://www.inkscape.org/namespaces/inkscape"
   xmlns:sodipodi="http://sodipodi.sourceforge.net/DTD/sodipodi-0.dtd"
   xmlns="http://www.w3.org/2000/svg"
   xmlns:svg="http://www.w3.org/2000/svg">
  <sodipodi:namedview
     id="namedview39"
     pagecolor="#505050"
     bordercolor="#ffffff"
     borderopacity="1"
     inkscape:pageshadow="0"
     inkscape:pageopacity="0"
     inkscape:pagecheckerboard="1"
     showgrid="false"
     inkscape:zoom="7.0003571"
     inkscape:cx="-1.3570736"
     inkscape:cy="47.783276"
     inkscape:window-width="1920"
     inkscape:window-height="1026"
     inkscape:window-x="1920"
     inkscape:window-y="54"
     inkscape:window-maximized="1"
     inkscape:current-layer="Ebene_1-2-2" />
  <defs
     id="defs4">
    <style
       id="style2">.cls-1{fill:#c6e5b3;}.cls-2{fill:#77b255;}.cls-3{fill:#fff;}.cls-4{fill:#292f33;}.cls-5{fill:#5c913b;}.cls-6{fill:#dd2e44;}.cls-7{fill:#ffac33;}.cls-8{fill:#88c9f9;}</style>
  </defs>
  <g
     id="Ebene_2"
     data-name="Ebene 2">
    <g
       id="Ebene_1-2"
       data-name="Ebene 1">
      <g
         id="Ebene_2-2"
         data-name="Ebene 2">
        <g
           id="Ebene_2-2-2"
           data-name="Ebene 2-2">
          <path
             class="cls-1"
             d="m 32.55,14.46 c 0,4.18 -4.75,6.73 -10.61,6.73 -5.86,0 -10.6,-2.57 -10.6,-6.73 0,-4.16 4.75,-8.46 10.6,-8.46 5.85,0 10.61,4.29 10.61,8.46 z"
             id="path6" />
          <path
             class="cls-2"
             d="m 30.05,9.23 a 3.26,3.26 0 0 0 0.53,-4.74 3.66,3.66 0 0 0 -5,-0.5 3.33,3.33 0 0 0 -1.23,1.87 7.24,7.24 0 0 0 -2.44,-0.42 7.49,7.49 0 0 0 -2.44,0.42 3.55,3.55 0 0 0 -4.26,-2.5 3.4,3.4 0 0 0 -2.72,3.25 3.34,3.34 0 0 0 1.35,2.57 7.51,7.51 0 0 0 -2.53,5.28 c 0,4.18 4.75,0.56 10.6,0.56 5.85,0 10.61,3.62 10.61,-0.56 A 7.5,7.5 0 0 0 30.05,9.23 Z"
             id="path8" />
          <ellipse
             class="cls-3"
             cx="15.76"
             cy="6.3299999"
             rx="2.0699999"
             ry="1.97"
             id="ellipse10" />
          <ellipse
             class="cls-4"
             cx="15.76"
             cy="6.3299999"
             rx="0.88"
             ry="0.83999997"
             id="ellipse12" />
          <ellipse
             class="cls-3"
             cx="28.139999"
             cy="6.3299999"
             rx="2.0699999"
             ry="1.97"
             id="ellipse14" />
          <ellipse
             class="cls-4"
             cx="28.139999"
             cy="6.3299999"
             rx="0.88"
             ry="0.83999997"
             id="ellipse16" />
          <ellipse
             class="cls-5"
             cx="19.59"
             cy="13.33"
             rx="0.58999997"
             ry="0.56999999"
             id="ellipse18" />
          <ellipse
             class="cls-5"
             cx="24.299999"
             cy="13.33"
             rx="0.58999997"
             ry="0.56999999"
             id="ellipse20" />
        </g>
        <g
           id="Ebene_1-2-2"
           data-name="Ebene 1-2">
          <ellipse
             class="cls-1"
             cx="21.82"
             cy="32.139999"
             rx="13.5"
             ry="12.86"
             id="ellipse23" />
          <path
             class="cls-6"
             d="M 27.89,18 H 15.74 a 2,2 0 0 0 -2,1.94 1.93,1.93 0 0 0 1.34,1.8 v 9.12 a 1.31,1.31 0 0 0 1.35,1.28 h 1.35 a 1.32,1.32 0 0 0 1.35,-1.28 v -9 h 8.77 a 1.93,1.93 0 1 0 0,-3.86 z"
             id="path25" />
          <path
             class="cls-5"
             d="m 23.17,29.57 a 1.35,1.35 0 0 1 -2.7,0 1.35,1.35 0 0 1 2.7,0 z m 0,6.43 A 1.35,1.35 0 1 1 21.82,34.71 1.33,1.33 0 0 1 23.17,36 Z"
             id="path27" />
          <path
             class="cls-7"
             d="M 11.56,24.53 6.9,22.63 6.16,19 a 1.37,1.37 0 0 0 -1.6,-1.05 1.31,1.31 0 0 0 -1.1,1.53 v 0 l 0.4,2 -1.79,-0.74 A 1.39,1.39 0 0 0 0.29,21.42 1.27,1.27 0 0 0 1,23 l 1,0.41 -1.35,1.39 a 1.25,1.25 0 0 0 0,1.82 1.39,1.39 0 0 0 0.93,0.38 1.41,1.41 0 0 0 1,-0.37 l 2.19,-2.09 5.77,2.36 A 1.61,1.61 0 0 0 11,27 a 1.33,1.33 0 0 0 1.36,-1.28 1.29,1.29 0 0 0 -0.8,-1.19 z m 30.94,-3.86 -2,-0.66 1.16,-1.1 a 1.25,1.25 0 0 0 0,-1.82 v 0 a 1.39,1.39 0 0 0 -1.9,0 L 38.76,18 38,15.07 a 1.35,1.35 0 0 0 -1.6,-1 1.29,1.29 0 0 0 -1.05,1.52 v 0.1 l 1.17,4.43 -4.86,4.63 a 1.25,1.25 0 0 0 0,1.82 v 0 a 1.42,1.42 0 0 0 1.91,0 l 4.81,-4.57 3.27,1 a 1.42,1.42 0 0 0 0.42,0.06 1.28,1.28 0 0 0 0.43,-2.51 z"
             id="path29" />
        </g>
      </g>
    </g>
  </g>
</svg>
