<svg xmlns="http://www.w3.org/2000/svg" viewBox="0 0 36 36"><defs><style>.cls-1{fill:#ccd6dd;}.cls-2{fill:#c6e5b3;}.cls-3{fill:#77b255;}.cls-4{fill:#f18f26;}.cls-5{fill:#fdcb58;}.cls-6{fill:#fff;}.cls-7{fill:#292f33;}.cls-8{fill:none;}</style></defs><g id="Ebene_2" data-name="Ebene 2"><g id="Ebene_1-2" data-name="Ebene 1"><path class="cls-1" d="M24.19,9.66,29.85,4,32,6.16l-5.66,5.66Z"/><path class="cls-2" d="M21.54,33.79A14,14,0,0,1,2.5,14c-.93,3,5.78,4.3,10.59,9.11C17.53,27.56,19,33.64,21.54,33.79Z"/><path class="cls-3" d="M28,22a13.73,13.73,0,0,1-.33,3,13.94,13.94,0,0,1-6.13,8.76c-2.54-.15-4-6.23-8.45-10.67C8.28,18.31,1.57,17,2.5,14A13.68,13.68,0,0,1,4.87,11.4a14,14,0,0,1,6.35-3.13A15,15,0,0,1,14,8a14,14,0,0,1,12.45,7.61h0A14,14,0,0,1,28,22Z"/><path class="cls-3" d="M19,11.34l5.66-5.66,5.66,5.66L24.66,17Z"/><circle class="cls-4" cx="32" cy="4" r="4"/><circle class="cls-5" cx="32" cy="4" r="2"/><circle class="cls-3" cx="15.63" cy="7.5" r="4.89"/><circle class="cls-6" cx="15.62" cy="6.92" r="2.86"/><circle class="cls-7" cx="15.62" cy="6.92" r="1.22"/><circle class="cls-3" cx="28.51" cy="20.38" r="4.89"/><circle class="cls-6" cx="29.09" cy="20.39" r="2.86"/><circle class="cls-7" cx="29.09" cy="20.39" r="1.22"/><rect class="cls-8" width="36" height="36"/></g></g></svg>