<svg xmlns="http://www.w3.org/2000/svg" xmlns:xlink="http://www.w3.org/1999/xlink" viewBox="0 0 415.56 434.59"><defs><style>.cls-1{fill:none;}.cls-2{clip-path:url(#clip-path);}.cls-3{fill:#c7dfb3;}.cls-4{fill:#78b355;}.cls-5{fill:#fff;}.cls-6{fill:#2a3034;}.cls-7{fill:#5d913b;}.cls-8{fill:#7ea046;}.cls-9{fill:#98c154;}.cls-10{fill:#88ad4c;}</style><clipPath id="clip-path" transform="translate(0.06)"><rect class="cls-1" width="415.5" height="415.5"/></clipPath></defs><g id="Ebene_2" data-name="Ebene 2"><g id="Ebene_1-2" data-name="Ebene 1"><g class="cls-2"><path class="cls-3" d="M415,261.47c-8.23,85.84-106,129.27-220.48,118.3S-7.75,307.6.47,221.76,109.8,58,224.26,68.92,423.17,175.63,415,261.47Z" transform="translate(0.06)"/><path class="cls-4" d="M376.36,149.44a69.37,69.37,0,1,0-104-79.57,135.66,135.66,0,0,0-95.53-9.16A69.38,69.38,0,1,0,59.63,119.09C26.22,147,4.13,183.59.47,221.76c-8.22,85.84,91.69,20.4,206.14,31.37S406.72,347.31,415,261.47C418.6,223.3,403.85,183.21,376.36,149.44Z" transform="translate(0.06)"/><circle class="cls-5" cx="102.88" cy="63.09" r="40.48"/><circle class="cls-6" cx="98.38" cy="62.09" r="17.35"/><circle class="cls-5" cx="344.65" cy="86.26" r="40.48"/><circle class="cls-6" cx="340.29" cy="84.32" r="17.35"/><circle class="cls-7" cx="148.27" cy="207.75" r="11.57"/><circle class="cls-7" cx="245" cy="222.45" r="11.57"/><path class="cls-1" d="M222.46,376.22l32.64-64.76,5.14-23C244.52,222.6,158.33,211.71,132,244.78L78.58,349.1c-41.25,65.42,93.78,109.41,121.55,71.4l12-23.75Z" transform="translate(0.06)"/><path class="cls-8" d="M78.59,349.11c-41.26,65.41,93.77,109.4,121.54,71.39C212.2,359.52,128.21,300.89,78.59,349.11Z" transform="translate(0.06)"/><path class="cls-9" d="M132,244.78,78.59,349.11C116.72,332.72,206.93,370,200.13,420.5L262,297.88C252.52,223.69,159.53,210.2,132,244.78Z" transform="translate(0.06)"/><path class="cls-9" d="M246.76,289.91l3.14,21.46c93.78,0-2.09,84.61-37.2,61.16l-2.88,23.75C321.67,420.5,362.77,271.81,246.76,289.91Z" transform="translate(0.06)"/><path class="cls-10" d="M213.16,380.47l2.07-6.48c36.92,18.12,126.28-62.62,34.67-62.62l-1.63-6.5C342.58,302.62,278.4,393.4,213.16,380.47Z" transform="translate(0.06)"/><polygon class="cls-10" points="248.33 304.87 212.29 380.26 213.22 380.47 222.52 376.22 255.16 311.46 257.09 306.09 248.33 304.87"/><path class="cls-10" d="M199.64,406.84l6.09-12.8c2.19,1.42,4.36,2.7,6.37,2.71l-12.47,28.44C200.08,421.18,201.22,414.63,199.64,406.84Z" transform="translate(0.06)"/><polygon class="cls-10" points="258.79 283 256.02 288.79 260.3 288.5 258.79 283"/></g></g></g></svg>