<svg xmlns="http://www.w3.org/2000/svg" xmlns:xlink="http://www.w3.org/1999/xlink" viewBox="0 0 441.72 441.72"><defs><style>.cls-1,.cls-10,.cls-2,.cls-8,.cls-9{stroke:#000;stroke-width:5px;}.cls-1,.cls-10,.cls-2,.cls-9{stroke-miterlimit:10;}.cls-1{fill:url(#Unbenannter_Verlauf_13);}.cls-2,.cls-9{stroke-linecap:round;}.cls-3{fill:#c6e5b3;}.cls-4{fill:#77b255;}.cls-5{fill:#fff;}.cls-6{fill:#292f33;}.cls-7{fill:#5c913b;}.cls-10,.cls-8{fill:#f9f8f7;}.cls-8{stroke-linejoin:round;}.cls-11,.cls-9{fill:none;}</style><linearGradient id="Unbenannter_Verlauf_13" x1="241.52" y1="418.19" x2="142.13" y2="26.88" gradientUnits="userSpaceOnUse"><stop offset="0" stop-color="#3d585b"/><stop offset="0.39" stop-color="#567a7e"/><stop offset="0.78" stop-color="#6b969b"/><stop offset="1" stop-color="#73a1a6"/></linearGradient></defs><g id="Ebene_2" data-name="Ebene 2"><g id="Ebene_1-2" data-name="Ebene 1"><path class="cls-1" d="M220.31,3C54.82,3,40.21,399,40.21,399c25.25,30.87,68.85,20.36,118.43-3.65,148.72,30.16,260.12,3.65,247.83-62.09C406.47,333.23,379.54,3,220.31,3Z"/><ellipse class="cls-2" cx="186.98" cy="132.74" rx="91.66" ry="95.27"/><path class="cls-3" d="M277,161.63c0,43.59-43.49,70.15-97.13,70.15s-97.12-26.56-97.12-70.15,43.48-87.69,97.12-87.69S277,118,277,161.63Z"/><path class="cls-4" d="M254.07,107.12a36.12,36.12,0,0,0,12.12-27.34c0-19.37-14.5-35.07-32.38-35.07-15.44,0-28.33,11.71-31.57,27.39a58.65,58.65,0,0,0-44.77,0c-3.25-15.68-16.14-27.39-31.57-27.39-17.88,0-32.38,15.7-32.38,35.07a36.15,36.15,0,0,0,12.11,27.34c-14.27,15.67-22.9,35.13-22.9,54.51,0,43.59,43.48,5.84,97.12,5.84S277,205.22,277,161.63C277,142.25,268.35,122.79,254.07,107.12Z"/><ellipse class="cls-4" cx="125.89" cy="79.78" rx="32.37" ry="35.07"/><ellipse class="cls-5" cx="123.2" cy="76.86" rx="18.89" ry="20.46"/><ellipse class="cls-6" cx="123.2" cy="76.86" rx="8.09" ry="8.77"/><ellipse class="cls-5" cx="236.51" cy="76.86" rx="18.89" ry="20.46"/><ellipse class="cls-6" cx="236.51" cy="76.86" rx="8.09" ry="8.77"/><ellipse class="cls-7" cx="158.27" cy="149.94" rx="5.4" ry="5.85"/><ellipse class="cls-7" cx="201.44" cy="149.94" rx="5.4" ry="5.85"/><path class="cls-8" d="M271.21,130.9c0,51.59-69.24,93.09-96.5,93.09-20.89,0-79.39-45.91-79.39-97.5,0-43.94,42.36-89,85.8-89S271.21,79.31,271.21,130.9ZM43.81,349.6s-26.17,6.85-26.17,22.63,21.16,69,64.91,64.56S153,407.45,153,407.45c7.16,17.84,45.39,31.3,91.57,31.3,158.87,0,213.65-110,158.82-132.41,0,0,14.92,95.63-130.65,95.63-59.48,0-93.52-27.79-93.52-72,0-70.05,126.39-88.44,126.39-194.09,0-82.56-84.78-124.74-124.52-124.74-51.57,0-111,50.39-111,127.87s67.3,121.7,67.3,121.7c-22.55,53.17-27.87,96.75-3.91,124,0,0-17.55,21.52-50.92,21.52C28.71,406.27,43.81,349.6,43.81,349.6Z"/><path class="cls-9" d="M333,205.53c-9,41.48-28.56,77.09-28.56,77.09"/><path class="cls-9" d="M369.42,268.14c-34.43,43.83-63,49.31-63,49.31"/><path class="cls-9" d="M201.14,282.62c28.93,42.54,58.7,91.65,80.63,79"/><path class="cls-9" d="M281.77,274c-11.73-13.34-29.45-19.1-55.45-14.34"/><path class="cls-9" d="M111.16,253.15C100.9,262.19,87.88,266,72.82,266"/><path class="cls-9" d="M117.82,268.14C111.1,294.2,95.49,308,72.82,312"/><line class="cls-10" x1="178.3" y1="223.78" x2="137.38" y2="260.71"/><rect class="cls-11" width="441.72" height="441.72"/></g></g></svg>