<svg xmlns="http://www.w3.org/2000/svg" xmlns:xlink="http://www.w3.org/1999/xlink" viewBox="0 0 37.91 32.44"><defs><style>.cls-1{fill:none;}.cls-2{clip-path:url(#clip-path);}.cls-3{fill:#c6e5b3;}.cls-4{fill:#fff;}.cls-5{fill:#77b255;}.cls-6{fill:#292f33;}.cls-7{fill:#5c913b;}</style><clipPath id="clip-path" transform="translate(0.91 -1.56)"><rect class="cls-1" x="0.01" width="35.97" height="36"/></clipPath></defs><g id="Ebene_2" data-name="Ebene 2"><g id="Ebene_1-2" data-name="Ebene 1"><g class="cls-2"><path class="cls-3" d="M36,22c0,7.46-8.06,12-18,12S0,29.46,0,22,8.06,7,18,7,36,14.54,36,22Z" transform="translate(0.91 -1.56)"/><path class="cls-4" d="M22,22.28a20.47,20.47,0,0,1-2.45.49q-.54.06-1.11.09v4.51H20a2,2,0,0,0,2-2Zm-8,0a20.47,20.47,0,0,0,2.45.49q.54.06,1.11.09v4.51H16a2,2,0,0,1-2-2Z" transform="translate(0.91 -1.56)"/><path class="cls-5" d="M31.75,12.68a6,6,0,1,0-9.6-6,11.86,11.86,0,0,0-8.3,0,6,6,0,1,0-9.61,6A13.58,13.58,0,0,0,0,22c0,7.46,8.06,1,18,1s18,6.46,18-1A13.55,13.55,0,0,0,31.75,12.68Z" transform="translate(0.91 -1.56)"/><circle class="cls-4" cx="8.41" cy="5.94" r="3.5"/><circle class="cls-6" cx="8.41" cy="5.94" r="1.5"/><circle class="cls-4" cx="29.41" cy="5.94" r="3.5"/><circle class="cls-6" cx="29.41" cy="5.94" r="1.5"/><circle class="cls-7" cx="14.91" cy="18.44" r="1"/><circle class="cls-7" cx="22.91" cy="18.44" r="1"/><path class="cls-6" d="M36.81,3.12c-.17-.17-1.27.27-2.38-.29C32.14,1.66,26.36.54,22.6,3.2c-.4.29-4.09.34-4.56.32s-4.16,0-4.56-.32C9.72.54,3.94,1.66,1.65,2.83.54,3.39-.56,3-.73,3.12a1.51,1.51,0,0,0,0,1.43C-.48,4.79.75,5.07,1,5.79s.24,5,2.21,6.42,6.13,1.78,8.85.24c2.37-1.35,2.29-4.19,2.72-5.88.09-.45,2.59-.64,3.26-.64s3.1.23,3.26.64c.44,1.69.35,4.53,2.73,5.88,2.71,1.54,7,1.13,8.84-.24s2-5.71,2.22-6.42,1.47-1,1.72-1.24A1.46,1.46,0,0,0,36.81,3.12ZM12.61,6.77c-.07,1.1-.27,3.22-1.59,4a6.14,6.14,0,0,1-3,.74H8a7.58,7.58,0,0,1-3.59-.84C3.62,10,3.31,7.48,3.19,6.53c-.08-.61-.28-2.09.39-2.32a13.17,13.17,0,0,1,4.05-.64c.69,0,3,0,4.15.74A2.41,2.41,0,0,1,12.61,6.77Zm20.28-.26c-.12,1-.43,3.52-1.26,4.14a7.55,7.55,0,0,1-3.59.84h0a6.17,6.17,0,0,1-3-.74c-1.32-.75-1.52-2.86-1.59-4,0-.61-.18-1.85.83-2.47a9.86,9.86,0,0,1,4.15-.74,12.88,12.88,0,0,1,4.05.64C33.17,4.43,33,5.91,32.89,6.51Z" transform="translate(0.91 -1.56)"/></g></g></g></svg>