<svg xmlns="http://www.w3.org/2000/svg" xmlns:xlink="http://www.w3.org/1999/xlink" viewBox="0 0 415.56 434.59"><defs><style>.cls-1{fill:none;}.cls-2{clip-path:url(#clip-path);}.cls-3{fill:#c7dfb3;}.cls-4{fill:#78b355;}.cls-5{fill:#fff;}.cls-6{fill:#2a3034;}.cls-7{fill:#5d913b;}.cls-8{fill:#7ea046;}.cls-9{fill:#98c154;}.cls-10{fill:#88ad4c;}</style><clipPath id="clip-path" transform="translate(0.06)"><rect class="cls-1" width="415.5" height="415.5"/></clipPath></defs><g id="Ebene_2" data-name="Ebene 2"><g id="Ebene_1-2" data-name="Ebene 1"><g class="cls-2"><path class="cls-3" d="M415,261.47c-8.23,85.84-106,129.27-220.48,118.3S-7.75,307.6.47,221.76,109.8,58,224.26,68.92,423.17,175.63,415,261.47Z" transform="translate(0.06)"/><path class="cls-4" d="M376.36,149.44a69.37,69.37,0,1,0-104-79.57,135.66,135.66,0,0,0-95.53-9.16A69.38,69.38,0,1,0,59.63,119.09C26.22,147,4.13,183.59.47,221.76c-8.22,85.84,91.69,20.4,206.14,31.37S406.72,347.31,415,261.47C418.6,223.3,403.85,183.21,376.36,149.44Z" transform="translate(0.06)"/><circle class="cls-5" cx="102.88" cy="63.09" r="40.48"/><circle class="cls-6" cx="98.38" cy="62.09" r="17.35"/><circle class="cls-5" cx="344.65" cy="86.26" r="40.48"/><circle class="cls-6" cx="340.29" cy="84.32" r="17.35"/><circle class="cls-7" cx="148.27" cy="207.75" r="11.57"/><circle class="cls-7" cx="245" cy="222.45" r="11.57"/><path class="cls-1" d="M222.46,376.22l32.64-64.76,5.14-23C244.52,222.6,158.33,211.71,132,244.78L78.58,349.1c-41.25,65.42,93.78,109.41,121.55,71.4l12-23.75Z" transform="translate(0.06)"/><path class="cls-8" d="M78.59,349.11c-41.26,65.41,93.77,109.4,121.54,71.39C212.2,359.52,128.21,300.89,78.59,349.11Z" transform="translate(0.06)"/><path class="cls-9" d="M132,244.78,78.59,349.11C116.72,332.72,206.93,370,200.13,420.5L262,297.88C252.52,223.69,159.53,210.2,132,244.78Z" transform="translate(0.06)"/><path class="cls-9" d="M246.76,289.91l3.14,21.46c93.78,0-2.09,84.61-37.2,61.16l-2.88,23.75C321.67,420.5,362.77,271.81,246.76,289.91Z" transform="translate(0.06)"/><path class="cls-10" d="M213.16,380.47l2.07-6.48c36.92,18.12,126.28-62.62,34.67-62.62l-1.63-6.5C342.58,302.62,278.4,393.4,213.16,380.47Z" transform="translate(0.06)"/><polygon class="cls-10" points="248.33 304.87 212.29 380.26 213.22 380.47 222.52 376.22 255.16 311.46 257.09 306.09 248.33 304.87"/><path class="cls-10" d="M199.64,406.84l6.09-12.8c2.19,1.42,4.36,2.7,6.37,2.71l-12.47,28.44C200.08,421.18,201.22,414.63,199.64,406.84Z" transform="translate(0.06)"/><polygon class="cls-10" points="258.79 283 256.02 288.79 260.3 288.5 258.79 283"/><path class="cls-4" d="M309,283.79a10.39,10.39,0,0,0-8.5-1.85l-21.82,5.15a10,10,0,0,0-6.52,4.57L259.3,314.89c-2.81,5.05-1.28,13.66,3.68,16.83l.17.1c2,1.28,4.68,1,6.84.83l-6.75,11.22c-.36.74-1.58,2.59-2.75,4.76a17.65,17.65,0,0,0,4.31,21.5l31.84,27.93a13.31,13.31,0,0,0,17.5-3.88l44.65-47.13c4.26-6.05,3.21-14.73-2.42-20l-5.83-5.26a11.48,11.48,0,0,0-4-5.45Z" transform="translate(0.06)"/><path class="cls-7" d="M265.82,344.42a3.43,3.43,0,0,1,5-.79h0L311,373.78a4,4,0,0,1,1,5.29,3.45,3.45,0,0,1-5,.78h0l-40.2-30.15a4,4,0,0,1-1.14-5,2.4,2.4,0,0,1,.18-.26Zm11.39-26.56a3.74,3.74,0,0,1,2.84.54,3.39,3.39,0,0,1,.88.77c5.39,4.24,41,30.43,45.78,33.5a4,4,0,0,1,1.38,5.21,3.44,3.44,0,0,1-4.93,1.2c-2.92-1.87-15.23-10.82-25.76-18.57-11.31-8.32-17.35-12.76-20.4-15.46a5.28,5.28,0,0,1-.53-.27l.07-.14c-3-2.75-2.55-3.55-1.65-5.17a3.51,3.51,0,0,1,2.31-1.61Z" transform="translate(0.06)"/><path class="cls-7" d="M301,300.64l40.27,25.75a4,4,0,0,1,1.56,5.14,3.43,3.43,0,0,1-4.86,1.39l-.22-.15L297.44,307a9,9,0,0,0-12.95,3.12h0l-11.73,21.24a3.44,3.44,0,0,1-5,1,4,4,0,0,1-1.31-5l11.74-21.23a15.85,15.85,0,0,1,22.71-5.56Z" transform="translate(0.06)"/></g></g></g></svg>