<?xml version="1.0" encoding="UTF-8" standalone="no"?>
<svg
   viewBox="0 0 36 36"
   version="1.1"
   id="svg38"
   sodipodi:docname="frogCatCostume.svg"
   inkscape:version="1.1.1 (3bf5ae0d25, 2021-09-20, custom)"
   xmlns:inkscape="http://www.inkscape.org/namespaces/inkscape"
   xmlns:sodipodi="http://sodipodi.sourceforge.net/DTD/sodipodi-0.dtd"
   xmlns="http://www.w3.org/2000/svg"
   xmlns:svg="http://www.w3.org/2000/svg">
  <sodipodi:namedview
     id="namedview40"
     pagecolor="#505050"
     bordercolor="#ffffff"
     borderopacity="1"
     inkscape:pageshadow="0"
     inkscape:pageopacity="0"
     inkscape:pagecheckerboard="1"
     showgrid="false"
     inkscape:zoom="17.500893"
     inkscape:cx="16.142034"
     inkscape:cy="35.112494"
     inkscape:window-width="1920"
     inkscape:window-height="1026"
     inkscape:window-x="1920"
     inkscape:window-y="54"
     inkscape:window-maximized="1"
     inkscape:current-layer="svg38" />
  <defs
     id="defs4">
    <style
       id="style2">.cls-1{fill:#c6e5b3;}.cls-2{fill:#77b255;}.cls-3{fill:#fff;}.cls-4{fill:#292f33;}.cls-5{fill:#5c913b;}.cls-6{fill:#ffcc4d;}.cls-7{fill:#fee7b8;}.cls-8{fill:#67757f;}.cls-9{fill:#e75a70;}.cls-10{fill:#f18f26;}.cls-11{fill:none;}</style>
  </defs>
  <g
     id="g894"
     transform="matrix(0.79999777,0,0,0.79999777,-2.8484269,-0.76275119)"
     style="stroke-width:1.25">
    <path
       id="path22-3"
       style="fill:#c6e5b3;fill-opacity:1;fill-rule:nonzero;stroke:none;stroke-width:1.5625"
       d="m 48.560669,28.232448 c 0,9.32 -10.07375,15 -22.5,15 -12.42625,0 -22.5000004,-5.68 -22.5000004,-15 H 48.560669"
       sodipodi:nodetypes="cscc" />
    <path
       id="path26-6"
       style="fill:#77b255;fill-opacity:1;fill-rule:nonzero;stroke:none;stroke-width:1.5625"
       d="m 43.254294,16.577198 c 1.71,-1.375 2.80625,-3.48125 2.80625,-5.845 0,-4.14125 -3.3575,-7.5 -7.5,-7.5 -3.57625,0 -6.5625,2.50625 -7.3125,5.85625 -1.61125,-0.60375 -3.355,-0.9475 -5.1875,-0.9475 -1.83125,0 -3.57625,0.34375 -5.18625,0.9475 -0.75125,-3.35 -3.7375,-5.85625 -7.31375,-5.85625 -4.1412504,0 -7.5000004,3.35875 -7.5000004,7.5 0,2.36375 1.0975,4.47 2.80625,5.845 -3.30625,3.35 -5.30625,7.51125 -5.30625,11.655 0,9.32 10.0737504,1.25 22.5000004,1.25 12.4275,0 22.5,8.07 22.5,-1.25 0,-4.14375 -1.99875,-8.305 -5.30625,-11.655" />
    <path
       id="path30-7"
       style="fill:#ffffff;fill-opacity:1;fill-rule:nonzero;stroke:none;stroke-width:1.5625"
       d="m 17.310669,10.107448 c 0,2.41625 -1.95875,4.375 -4.375,4.375 -2.41625,0 -4.3750004,-1.95875 -4.3750004,-4.375 0,-2.41625 1.9587504,-4.375 4.3750004,-4.375 2.41625,0 4.375,1.95875 4.375,4.375" />
    <path
       id="path34"
       style="fill:#292f33;fill-opacity:1;fill-rule:nonzero;stroke:none;stroke-width:1.5625"
       d="m 14.810669,10.107448 c 0,1.03625 -0.83875,1.875 -1.875,1.875 -1.03625,0 -1.875,-0.83875 -1.875,-1.875 0,-1.03625 0.83875,-1.875 1.875,-1.875 1.03625,0 1.875,0.83875 1.875,1.875" />
    <path
       id="path38"
       style="fill:#ffffff;fill-opacity:1;fill-rule:nonzero;stroke:none;stroke-width:1.5625"
       d="m 43.560669,10.107448 c 0,2.41625 -1.9575,4.375 -4.375,4.375 -2.4175,0 -4.375,-1.95875 -4.375,-4.375 0,-2.41625 1.9575,-4.375 4.375,-4.375 2.4175,0 4.375,1.95875 4.375,4.375" />
    <path
       id="path42"
       style="fill:#292f33;fill-opacity:1;fill-rule:nonzero;stroke:none;stroke-width:1.5625"
       d="m 41.060669,10.107448 c 0,1.03625 -0.84,1.875 -1.875,1.875 -1.035,0 -1.875,-0.83875 -1.875,-1.875 0,-1.03625 0.84,-1.875 1.875,-1.875 1.035,0 1.875,0.83875 1.875,1.875" />
    <path
       id="path46"
       style="fill:#5c913b;fill-opacity:1;fill-rule:nonzero;stroke:none;stroke-width:1.5625"
       d="m 22.310669,25.732448 c 0,0.69125 -0.56,1.25 -1.25,1.25 -0.69,0 -1.25,-0.55875 -1.25,-1.25 0,-0.69125 0.56,-1.25 1.25,-1.25 0.69,0 1.25,0.55875 1.25,1.25" />
    <path
       id="path50"
       style="fill:#5c913b;fill-opacity:1;fill-rule:nonzero;stroke:none;stroke-width:1.5625"
       d="m 32.310669,25.732448 c 0,0.69125 -0.55875,1.25 -1.25,1.25 -0.69125,0 -1.25,-0.55875 -1.25,-1.25 0,-0.69125 0.55875,-1.25 1.25,-1.25 0.69125,0 1.25,0.55875 1.25,1.25" />
  </g>
  <path
     class="cls-6"
     d="M 22.41,10.36 A 15.9,15.9 0 0 0 18,9.64 15.9,15.9 0 0 0 13.59,10.36 C 10,11.5 7.33,13.28 6,15.84 a 18.87,18.87 0 0 0 -1.3,6 10.62,10.62 0 0 0 0.55,5.1 16.75,16.75 0 0 0 3.75,3.59 18.41,18.41 0 0 0 9,2.88 18.41,18.41 0 0 0 9,-2.88 16.75,16.75 0 0 0 3.76,-3.6 10.62,10.62 0 0 0 0.55,-5.1 18.87,18.87 0 0 0 -1.3,-6 11.93,11.93 0 0 0 -7.6,-5.47 z"
     id="path22" />
  <path
     class="cls-4"
     d="M 14.65,20.86 A 1.67,1.67 0 1 1 13,19.19 a 1.68,1.68 0 0 1 1.65,1.67 z m 10,0 A 1.67,1.67 0 1 1 23,19.19 a 1.68,1.68 0 0 1 1.69,1.67 z"
     id="path24" />
  <path
     class="cls-7"
     d="m 4.78,29.61 a 0.41,0.41 0 0 1 -0.33,-0.16 0.41,0.41 0 0 1 0.07,-0.58 13.25,13.25 0 0 1 8.91,-2.18 0.42,0.42 0 0 1 0.39,0.45 0.41,0.41 0 0 1 -0.45,0.38 12.71,12.71 0 0 0 -8.33,2 0.43,0.43 0 0 1 -0.26,0.09 z m 7.42,-3.9 a 0.25,0.25 0 0 1 -0.12,0 13.83,13.83 0 0 0 -7.35,-0.28 0.42,0.42 0 0 1 -0.24,-0.8 14.54,14.54 0 0 1 7.83,0.28 0.42,0.42 0 0 1 -0.12,0.82 z m 19,3.9 a 0.41,0.41 0 0 0 0.33,-0.16 0.41,0.41 0 0 0 -0.07,-0.58 13.25,13.25 0 0 0 -8.91,-2.18 0.42,0.42 0 0 0 -0.39,0.45 0.41,0.41 0 0 0 0.45,0.38 12.71,12.71 0 0 1 8.33,2 0.43,0.43 0 0 0 0.28,0.09 z m -7.42,-3.9 a 0.25,0.25 0 0 0 0.12,0 13.83,13.83 0 0 1 7.35,-0.28 0.42,0.42 0 1 0 0.24,-0.8 14.54,14.54 0 0 0 -7.83,0.28 0.42,0.42 0 0 0 0.12,0.82 z"
     id="path26" />
  <path
     class="cls-8"
     d="m 23.64,30 a 0.41,0.41 0 0 0 -0.54,-0.24 3.81,3.81 0 0 1 -1.31,0.26 2.33,2.33 0 0 1 -1.7,-0.56 2.9,2.9 0 0 0 -1.66,-0.67 v -1.97 a 0.42,0.42 0 1 0 -0.84,0 v 2 a 3.63,3.63 0 0 0 -1.52,0.62 2.73,2.73 0 0 1 -1.74,0.58 3.85,3.85 0 0 1 -1.33,-0.28 0.41,0.41 0 0 0 -0.53,0.24 0.42,0.42 0 0 0 0.24,0.54 4.53,4.53 0 0 0 1.6,0.31 3.64,3.64 0 0 0 2.2,-0.7 2.52,2.52 0 0 1 1.54,-0.54 2.17,2.17 0 0 1 1.52,0.52 3.12,3.12 0 0 0 2.2,0.72 4.53,4.53 0 0 0 1.6,-0.31 0.42,0.42 0 0 0 0.27,-0.52 z"
     id="path28" />
  <path
     class="cls-9"
     d="m 19.17,24.88 h -2.34 a 1,1 0 0 0 0,1.95 H 17 v 0.29 a 1,1 0 1 0 1.94,0 v -0.29 h 0.2 a 1,1 0 0 0 0,-1.95 z"
     id="path30" />
  <path
     class="cls-10"
     d="m 18,18.48 a 0.42,0.42 0 0 1 -0.42,-0.42 v -6.93 a 0.42,0.42 0 0 1 0.84,0 v 6.93 A 0.42,0.42 0 0 1 18,18.48 Z m 2.49,-1.32 a 0.42,0.42 0 0 1 -0.42,-0.42 10.17,10.17 0 0 1 1.08,-4.44 0.41382363,0.41382363 0 1 1 0.73,0.39 9.68,9.68 0 0 0 -1,4 0.42,0.42 0 0 1 -0.37,0.47 z m -5,0 a 0.42,0.42 0 0 1 -0.42,-0.42 9.6,9.6 0 0 0 -1,-4 0.42,0.42 0 0 1 0.18,-0.56 0.41,0.41 0 0 1 0.56,0.17 10.17,10.17 0 0 1 1.08,4.44 0.42,0.42 0 0 1 -0.4,0.37 z"
     id="path32" />
  <rect
     class="cls-11"
     width="36"
     height="36"
     id="rect34"
     x="0"
     y="0" />
</svg>
