<svg xmlns="http://www.w3.org/2000/svg" viewBox="0 0 36 36"><defs><style>.cls-1{fill:#5c913b;}.cls-2{fill:#77b255;}.cls-3{fill:none;}</style></defs><g id="Ebene_2" data-name="Ebene 2"><g id="Ebene_1-2" data-name="Ebene 1"><path class="cls-1" d="M16,9.36h3.79a.78.78,0,0,0,.05-.67L16,4V9.36Z"/><path class="cls-2" d="M12.8,22.28a8.46,8.46,0,0,0-.2-1c-.62-2.22-1.14-3.16-.92-5.49.29-1.58.27-4.76,4.48-4.27,1.11.13,2.85.93,3.84.91.56,0,1-1.16,1-1.54s-.86-1.42-1.24-1.55-2-.63-2.69-.83c-1-.3-1-1.7-1-2.2a.59.59,0,0,1,.3-.59c.21-.13.37,0,.58.12l.88.65c.5.43-.87,1.24-.5,1.38a21.13,21.13,0,0,0,2.51.79c.41.08,1.83-1.53,1.91-2.47.07-.74-3.4-4.08-5.86-5.38A4,4,0,0,0,13.9.14c-.69,0-.9.3-1.75,1C8.3,4.46,4.57,11.58,4,13.15,1.77,19.61,1.42,23,1.34,24.94c-.05.59-.07,1.18-.07,1.76.06,0-1,5,0,6s5.32,1,5.32,1c10,4,28.57,2.95,28.57-7.24C35.16,14.29,16.35,15.91,12.8,22.28Z"/><path class="cls-1" d="M20.63,32.08a14.58,14.58,0,0,1-5.77-2,1,1,0,0,1,1.08-1.69s4,2.49,7.84,1.47A8.44,8.44,0,0,0,29,25.29a1,1,0,0,1,1.77.93,10.3,10.3,0,0,1-6.45,5.6A10,10,0,0,1,20.63,32.08Z"/><rect class="cls-3" width="36" height="36"/></g></g></svg>