<svg xmlns="http://www.w3.org/2000/svg" viewBox="0 0 36 36"><defs><style>.cls-1{fill:#77b255;}.cls-2{fill:#c6e5b3;}.cls-3{fill:#5c913b;}.cls-4{fill:#fff;}.cls-5{fill:#292f33;}.cls-6{fill:none;}</style></defs><g id="Ebene_2" data-name="Ebene 2"><g id="Ebene_1-2" data-name="Ebene 1"><path class="cls-1" d="M36,11.5v8.6c0,6.59-8.08,0-18,0s-18,6.2-18,0V11.5a4,4,0,0,1,4-4H32A4,4,0,0,1,36,11.5Z"/><path class="cls-2" d="M36,20.1v9.4a4,4,0,0,1-4,4H4a4,4,0,0,1-4-4V20.1c0,6.2,8.08,0,18,0S36,26.69,36,20.1Z"/><circle class="cls-3" cx="12.38" cy="20.36" r="1.4"/><circle class="cls-3" cx="23.62" cy="20.36" r="1.4"/><ellipse class="cls-1" cx="27.92" cy="6.43" rx="3.94" ry="3.93"/><circle class="cls-4" cx="27.59" cy="6.11" r="2.3"/><circle class="cls-5" cx="27.59" cy="6.11" r="0.99"/><ellipse class="cls-1" cx="8.08" cy="6.43" rx="3.94" ry="3.93"/><circle class="cls-4" cx="8.41" cy="6.11" r="2.3"/><circle class="cls-5" cx="8.41" cy="6.11" r="0.99"/><rect class="cls-6" width="36" height="36"/></g></g></svg>