<?xml version="1.0" encoding="utf-8"?>
<!-- Generator: Adobe Illustrator 25.0.0, SVG Export Plug-In . SVG Version: 6.00 Build 0)  -->
<svg version="1.1"
	 id="svg2" inkscape:version="0.92.4 5da689c313, 2019-01-14" sodipodi:docname="frog_ru.svg" xmlns:cc="http://creativecommons.org/ns#" xmlns:dc="http://purl.org/dc/elements/1.1/" xmlns:inkscape="http://www.inkscape.org/namespaces/inkscape" xmlns:rdf="http://www.w3.org/1999/02/22-rdf-syntax-ns#" xmlns:sodipodi="http://sodipodi.sourceforge.net/DTD/sodipodi-0.dtd" xmlns:svg="http://www.w3.org/2000/svg"
	 xmlns="http://www.w3.org/2000/svg" xmlns:xlink="http://www.w3.org/1999/xlink" x="0px" y="0px" viewBox="0 0 51.5 51.5"
	 style="enable-background:new 0 0 51.5 51.5;" xml:space="preserve">
<style type="text/css">
	.st0{fill:#FF5555;}
	.st1{fill:#800000;}
	.st2{fill:#FFFFFF;}
	.st3{fill:#550000;}
	.st4{fill:#4D4D4D;stroke:#000000;stroke-width:0.723;}
	.st5{fill:#EF0000;}
	.st6{fill:#FFFF00;}
</style>
<g>
	
		<path id="path22" inkscape:connector-curvature="0" inkscape:export-xdpi="1919.99" inkscape:export-ydpi="1919.99" class="st0" d="
		M48.2,36.5c0,9.3-10.1,15-22.5,15s-22.5-5.7-22.5-15s10.1-18.8,22.5-18.8S48.2,27.1,48.2,36.5"/>
	
		<path id="path26" inkscape:connector-curvature="0" inkscape:export-xdpi="1919.99" inkscape:export-ydpi="1919.99" class="st1" d="
		M42.9,24.8c1.7-1.4,2.8-3.5,2.8-5.8c0-4.1-3.4-7.5-7.5-7.5c-3.6,0-6.6,2.5-7.3,5.9c-1.6-0.6-3.4-0.9-5.2-0.9
		c-1.8,0-3.6,0.3-5.2,0.9c-0.8-3.3-3.7-5.9-7.3-5.9c-4.1,0-7.5,3.4-7.5,7.5c0,2.4,1.1,4.5,2.8,5.8c-3.3,3.3-5.3,7.5-5.3,11.7
		c0,9.3,10.1,1.2,22.5,1.2c12.4,0,22.5,8.1,22.5-1.2C48.2,32.3,46.2,28.2,42.9,24.8"/>
	
		<path id="path30" inkscape:connector-curvature="0" inkscape:export-xdpi="1919.99" inkscape:export-ydpi="1919.99" class="st2" d="
		M17,18.3c0,2.4-2,4.4-4.4,4.4s-4.4-2-4.4-4.4s2-4.4,4.4-4.4S17,15.9,17,18.3"/>
	<path id="path34" inkscape:connector-curvature="0" inkscape:export-xdpi="1919.99" inkscape:export-ydpi="1919.99" d="M14.5,18.3
		c0,1-0.8,1.9-1.9,1.9s-1.9-0.8-1.9-1.9s0.8-1.9,1.9-1.9S14.5,17.3,14.5,18.3"/>
	
		<path id="path38" inkscape:connector-curvature="0" inkscape:export-xdpi="1919.99" inkscape:export-ydpi="1919.99" class="st2" d="
		M43.2,18.3c0,2.4-2,4.4-4.4,4.4s-4.4-2-4.4-4.4s2-4.4,4.4-4.4S43.2,15.9,43.2,18.3"/>
	<path id="path42" inkscape:connector-curvature="0" inkscape:export-xdpi="1919.99" inkscape:export-ydpi="1919.99" d="M40.7,18.3
		c0,1-0.8,1.9-1.9,1.9S37,19.4,37,18.3s0.8-1.9,1.9-1.9S40.7,17.3,40.7,18.3"/>
	
		<path id="path46" inkscape:connector-curvature="0" inkscape:export-xdpi="1919.99" inkscape:export-ydpi="1919.99" class="st3" d="
		M22,34c0,0.7-0.6,1.2-1.2,1.2s-1.2-0.6-1.2-1.2s0.6-1.2,1.2-1.2S22,33.3,22,34"/>
	
		<path id="path50" inkscape:connector-curvature="0" inkscape:export-xdpi="1919.99" inkscape:export-ydpi="1919.99" class="st3" d="
		M32,34c0,0.7-0.6,1.2-1.2,1.2s-1.2-0.6-1.2-1.2s0.6-1.2,1.2-1.2S32,33.3,32,34"/>
</g>
<g>
	<path id="rect833" inkscape:export-xdpi="1919.99" inkscape:export-ydpi="1919.99" class="st4" d="M10.2,0.4h30.6c2.7,0,5,2.2,5,5
		v7.1c0,2.7-2.2,5-5,5H10.2c-2.7,0-5-2.2-5-5V5.3C5.3,2.6,7.5,0.4,10.2,0.4z"/>
	
		<path id="path838" inkscape:export-xdpi="1919.99" inkscape:export-ydpi="1919.99" inkscape:flatsided="false" inkscape:randomized="0" inkscape:rounded="0" inkscape:transform-center-x="-0.023051818" inkscape:transform-center-y="-0.75141396" sodipodi:arg1="0.91170628" sodipodi:arg2="1.5400248" sodipodi:cx="22.356993" sodipodi:cy="25.619705" sodipodi:r1="4.2812405" sodipodi:r2="2.1406202" sodipodi:sides="5" sodipodi:type="star" class="st5" d="
		M30.2,15.7l-4.7-2.5l-4.8,2.5l1-5.3l-3.8-3.8l5.3-0.7L25.5,1l2.3,4.8l5.3,0.8l-3.9,3.7L30.2,15.7z"/>
	
		<g id="g961" transform="matrix(0.51951588,-0.52054474,0.52054474,0.51951588,50.307702,-28.192891)" inkscape:export-xdpi="1919.99" inkscape:export-ydpi="1919.99">
		<g id="g945">
			<path id="path939" inkscape:connector-curvature="0" class="st6" d="M-62,10.2V8.6h3.2l1.3,1.6L-62,10.2z"/>
			<path id="path941" inkscape:connector-curvature="0" sodipodi:nodetypes="cccccccc" class="st6" d="M-60.4,10.2l-0.2,7.7l0.2,0.3
				l0.4,0.2l0.4-0.1l0.2-0.3l-0.2-7.7L-60.4,10.2z"/>
		</g>
		<g id="g953">
			<path id="path947" inkscape:connector-curvature="0" sodipodi:nodetypes="ccscccsccc" class="st6" d="M-56.5,8.6
				c0.7,5.4-2.9,5.8-2.9,5.8s-0.9,0-1.7-0.5c-1.1-0.7-1.1-2.2-1.1-2.2l-0.7-0.1l-0.1,0.6c0,0,0,3.4,2.9,3.6s3.9-2.7,3.9-2.7
				S-55.2,11-56.5,8.6z"/>
			<path id="path949" inkscape:connector-curvature="0" class="st6" d="M-62.5,11.7l-0.2-0.2l-0.2,0l-0.3-0.1l-0.8,0.2l-1.4-0.3
				l-0.7,0.2l-0.4,0.4l0.5,0.5l0.6,0.2l1.3-0.3l0.9,0.1l0.5-0.1L-62.5,11.7z"/>
		</g>
	</g>
</g>
</svg>
