<svg xmlns="http://www.w3.org/2000/svg" viewBox="0 0 1895.91 1895.91"><defs><style>.cls-1{fill:#c6e5b3;}.cls-2{fill:#77b255;}.cls-3{fill:#fff;}.cls-4{fill:#292f33;}.cls-5{fill:#5c913b;}.cls-6{fill:#66757f;}.cls-7{fill:#31373d;}.cls-8{fill:#55acee;}.cls-9{fill:none;}</style></defs><g id="Ebene_2" data-name="Ebene 2"><g id="Ebene_1-2" data-name="Ebene 1"><path class="cls-1" d="M1649.5,1333.94c0,288.55-311.88,464.4-696.59,464.4s-696.6-175.85-696.6-464.4,311.88-580.49,696.6-580.49S1649.5,1045.4,1649.5,1333.94Z"/><path class="cls-2" d="M1485.22,973.11a231.66,231.66,0,0,0,86.88-181c0-128.22-104-232.2-232.2-232.2-110.72,0-203.17,77.55-226.43,181.31a454,454,0,0,0-321.13,0C769.08,637.5,676.63,560,565.91,560c-128.22,0-232.2,104-232.2,232.2a231.66,231.66,0,0,0,86.88,181c-102.36,103.71-164.28,232.54-164.28,360.83,0,288.55,311.88,38.7,696.6,38.7s696.59,249.85,696.59-38.7C1649.5,1205.65,1587.58,1076.82,1485.22,973.11Z"/><circle class="cls-3" cx="546.56" cy="772.8" r="135.45"/><circle class="cls-4" cx="546.56" cy="772.8" r="58.05"/><circle class="cls-3" cx="1359.25" cy="772.8" r="135.45"/><circle class="cls-4" cx="1359.25" cy="772.8" r="58.05"/><circle class="cls-5" cx="798.11" cy="1256.55" r="38.7"/><circle class="cls-5" cx="1107.71" cy="1256.55" r="38.7"/><path class="cls-6" d="M948,125.37c-436.27,0-790,353.69-790,790v474H316v-474c0-368.65,277.48-641.87,632-641.87s632,273.22,632,641.87V1442l158-52.66v-474C1737.92,479.06,1384.23,125.37,948,125.37Z"/><path class="cls-7" d="M316,1547.3a105.37,105.37,0,0,1-105.33,105.33H105.33A105.37,105.37,0,0,1,0,1547.3v-474A105.36,105.36,0,0,1,105.33,968H210.66A105.36,105.36,0,0,1,316,1073.32Zm1579.92,0a105.36,105.36,0,0,1-105.32,105.33H1685.26a105.37,105.37,0,0,1-105.33-105.33v-474A105.36,105.36,0,0,1,1685.26,968h105.33a105.35,105.35,0,0,1,105.32,105.32Z"/><path class="cls-8" d="M1047.13,97.92,914.45,125.3c-9.38,1.94-17.05,11.34-17.05,20.93V483.67a129.71,129.71,0,0,0-43.51-7.51c-58.07,0-105.12,36.59-105.12,81.77s47.07,79.79,105.12,79.79c57,0,104.43-39.76,106.05-81.45V230.81l87.65-18.18c9.36-1.94,16.6-11.36,16.6-20.93V111.81C1064.19,102.26,1056.52,96,1047.13,97.92Zm166.8,65.7-89.59,18c-9.38,1.94-18.45,11.34-18.45,20.91V440.35c0-3.17-18.31-5-29.19-5-42.2,0-75.75,26.6-75.75,59.46s34.57,59.44,76.79,59.44,76.66-26.62,76.66-59.44l-.29-235.3L1213.93,247c9.38-1.93,17-11.34,17-20.91V177.54C1231,168,1223.31,161.7,1213.93,163.62Z"/><rect class="cls-9" width="1895.91" height="1895.91"/></g></g></svg>