<svg xmlns="http://www.w3.org/2000/svg" viewBox="0 0 34.24 34.24"><defs><style>.cls-1{fill:#3f6328;}.cls-2{fill:#5c913b;}.cls-3{fill:#77b255;}.cls-4{fill:none;}</style></defs><g id="Ebene_2" data-name="Ebene 2"><g id="Ebene_1-2" data-name="Ebene 1"><path class="cls-1" d="M16,16.88s-6,5.27-7.74,6.83c-1.32,1.2.88,3.5,2.13,2.45a79.79,79.79,0,0,1,6.5-4.85l.36.53a51.21,51.21,0,0,0-6.44,4.43c-1.33,1.19.76,3.56,2.09,2.37,1.82-1.63,6-4.57,6-4.57l.37.39a37.52,37.52,0,0,0-5,4C12.94,29.63,14.9,30.9,16,30c3.12-2.59,3.23-4.38,6.66-5.85C27.93,21.86,16,16.88,16,16.88Z"/><path class="cls-2" d="M29,7.71c.88-.44,1.65.15,2.1,1.06s2.54,5,3,5.86a2,2,0,0,1-.72,2.56,6.51,6.51,0,0,0-3.09,2.51c-.47.79-2.4,2.89-7.63,5.13a30.88,30.88,0,0,0-7.26,4.8c-.89.7-2.68-.64-1.35-1.85a38.1,38.1,0,0,1,5-4l-.37-.39s-4.38,3.06-6.24,4.65c-1.26,1.09-2.94-.95-1.61-2.14A57,57,0,0,1,17,21.2l-.37-.53a79,79,0,0,0-6.76,5c-1.11.93-2.85-1.16-1.53-2.36a50.61,50.61,0,0,1,7.1-5.5l-.2-.61a32.57,32.57,0,0,0-6,4.49c-1,1-3-.82-1.53-2.29,3.46-3.52,8-5.61,9.15-6.41,1.61-1.08,2.46-1.76,1.61-2.14a11.16,11.16,0,0,1-4.21-4.21c-1.05-2.1.44-3.77,2.11-2.1,1,1.05,3.15,3.15,5.26,3.15,2.83,0,3.26,1.06,5.26,1.06A3.66,3.66,0,0,0,29,7.71"/><path class="cls-1" d="M24.05,14a7.64,7.64,0,0,1-2.69-.72,8.73,8.73,0,0,1-2.59-2.14c0,.16-.07.35-.29.58a9.29,9.29,0,0,0,2.66,2.14,7.31,7.31,0,0,0,2.87.77C24.58,14.65,24.39,14.05,24.05,14Zm2.16,8.58c-2.26-1.05-4.06-1.93-1-.66,1.28.53,3.19-2.06,1.32-2.91C22.77,17.32,11,10.88,11,10.88s-6.37,7.43-5.58,7.91,1.12,3.85,5.66,6.82a65.8,65.8,0,0,0,8,4.52c2.1,1.05,3.47-1.68,1.83-2.42-2.83-1.26-2.74-1.34,1.42.39,1.53.64,2.83-2.25,1.2-3-2.42-1.09-2.64-1.23,1.24.52C26.2,26.29,27.83,23.38,26.21,22.62Z"/><path class="cls-3" d="M6.09,8.15a1.83,1.83,0,0,0-2.49.62L.29,14.27a1.93,1.93,0,0,0,.5,2.6l3.24,2c.79.47,4,4.47,8.66,7.27a36.42,36.42,0,0,0,7.41,3.7c1,.41,2.44-1.68.79-2.41A33,33,0,0,1,15,24.18l.31-.58a35.72,35.72,0,0,0,7,3.84c1.54.64,2.79-1.75,1.17-2.48a46.5,46.5,0,0,1-6.65-3.79l.34-.57A74.74,74.74,0,0,0,25,24.84c1.43.64,2.63-1.79,1-2.54A63.15,63.15,0,0,1,18.65,18l.33-.5a42,42,0,0,0,6.71,3.82,1.44,1.44,0,0,0,.9-2.72A54.14,54.14,0,0,1,17.4,13c-.92-.74-1.18-2.42,1.05-3.16,3.16-1.05,4.21-3.16,4.21-4.21,0-1.49-1.37-2.15-2.1-1.06-2.11,3.16-3.17,2.09-5.26,3.16C12.78,9,9.83,10.37,8.12,9.34l-2-1.19"/><path class="cls-2" d="M18,10.6l5.42-2.71a7.68,7.68,0,0,0-1.76-.18c-2.1,0-4.21-2.1-5.26-3.15-1.67-1.67-3.16,0-2.11,2.1A11.79,11.79,0,0,0,18,10.6Z"/><rect class="cls-4" width="34.24" height="34.24"/></g></g></svg>