<svg xmlns="http://www.w3.org/2000/svg" viewBox="0 0 36 36"><defs><style>.cls-1{fill:#292f33;}.cls-2{fill:#c6e5b3;}.cls-3{fill:#77b255;}.cls-4{fill:#bbddf5;}.cls-5{fill:#5c913b;}.cls-6{fill:#fff;}.cls-7{fill:none;}</style></defs><g id="Ebene_2" data-name="Ebene 2"><g id="Ebene_1-2" data-name="Ebene 1"><path class="cls-1" d="M34,33a2,2,0,0,1-2,2H29a2,2,0,0,1-2-2V25a2,2,0,0,1,2-2h3a2,2,0,0,1,2,2ZM9,33a2,2,0,0,1-2,2H4a2,2,0,0,1-2-2V25a2,2,0,0,1,2-2H7a2,2,0,0,1,2,2Z"/><path class="cls-2" d="M33.81,28.84A4.92,4.92,0,0,1,30,32c-4,1-7,1-12,1s-8,0-12-1a4.92,4.92,0,0,1-3.81-3.16C3.82,32,10.28,27.64,18,27.64S32.18,32,33.81,28.84Z"/><path class="cls-3" d="M34,20v8a3.14,3.14,0,0,1-.17.81l0,0C32.18,32,25.72,27.64,18,27.64S3.82,32,2.19,28.84l0,0A3.14,3.14,0,0,1,2,28V20s0-3.9,1.93-4H4a33.44,33.44,0,0,1,1.23-5.74C6,7.83,7.21,5.45,9,5c4-1,14-1,18,0,1.79.45,3,2.83,3.77,5.26A33.44,33.44,0,0,1,32,16h.07C32.43,16.05,34,16.45,34,20Z"/><path class="cls-4" d="M18,15c3.91,0,8.62.2,12,.56L29,10c-1-3-7-3-11-3S8,7,7,10L6,15.56C9.38,15.2,14.1,15,18,15Z"/><path class="cls-3" d="M5,15.5A1.5,1.5,0,0,1,3.5,17h-2a1.5,1.5,0,0,1,0-3h2A1.5,1.5,0,0,1,5,15.5Zm26,0A1.5,1.5,0,0,0,32.5,17h2a1.5,1.5,0,0,0,0-3h-2A1.5,1.5,0,0,0,31,15.5Z"/><path class="cls-5" d="M12,22a1,1,0,0,1-.83-.45C9.43,18.94,4.85,18,4.8,18a1,1,0,1,1,.4-2c.22,0,5.43,1.12,7.63,4.43a1,1,0,0,1-.27,1.38A1.07,1.07,0,0,1,12,22Zm12,0a1.07,1.07,0,0,1-.56-.17,1,1,0,0,1-.27-1.39c2.2-3.3,7.41-4.38,7.63-4.42a1,1,0,0,1,.4,2c-.05,0-4.62,1-6.37,3.57A1,1,0,0,1,24,22Z"/><circle class="cls-6" cx="7.5" cy="22.99" r="3.03"/><circle class="cls-1" cx="7.5" cy="22.99" r="1.3"/><circle class="cls-6" cx="28.5" cy="22.99" r="3.03"/><circle class="cls-1" cx="28.5" cy="22.99" r="1.3"/><circle class="cls-5" cx="13.39" cy="26.44" r="0.85"/><circle class="cls-5" cx="22.7" cy="26.44" r="0.85"/><rect class="cls-7" width="36" height="36"/></g></g></svg>