<svg xmlns="http://www.w3.org/2000/svg" viewBox="0 0 36 36"><defs><style>.cls-1{fill:#5d9040;}.cls-2{fill:#3f7123;}.cls-3{fill:#77b255;}.cls-4{fill:#5c913b;}.cls-5{fill:#fff;}.cls-6{fill:#292f33;}.cls-7{fill:none;}</style></defs><g id="Ebene_2" data-name="Ebene 2"><g id="Ebene_1-2" data-name="Ebene 1"><path class="cls-1" d="M11.26,35.41C9,34.78,5.9,31.3,4.4,28.08c-.18-.39-1.1-.67-1.27-1.08C.64,20.77.33,12.54,6,6.83A19.6,19.6,0,0,1,26.51,1.76c.45.14.83,1.11,1.28,1.2,5.92,1.11,8.32,7.54,5.76,6.81a10.7,10.7,0,0,0-3.81-.43c-.44.05-1,.9-1.55,1-.76.11-2.64.21-3.56.3-9.16.92-12.4,7-12.81,14.26-.05.8-.62.62-.73,1.28-.35,2,1.09,4.88,1.77,6.94C13.45,34.88,13.48,36,11.26,35.41Z"/><path class="cls-2" d="M3.82,9.65a16.35,16.35,0,0,0-2.34,7.51c2.62-1.5,6.34-2.65,12.4-.18A11.52,11.52,0,0,1,17,13.35a7.28,7.28,0,0,0-2.74-1.82C11.78,10.94,7.09,9.32,3.82,9.65ZM3.57,27.42c.32.22.72.42.83.66l.1.21a12.93,12.93,0,0,1,6.55-1.64,4,4,0,0,1,0-.5c.09-.55.5-.52.66-1C6.87,24.13,5,26,3.57,27.42Zm25-24.26a6.68,6.68,0,0,0-.8-.2,1,1,0,0,1-.49-.38c.92,2.12,1.9,5,1,7.68.46-.17,1-.87,1.41-.91H30A11.45,11.45,0,0,0,28.59,3.16Z"/><path class="cls-3" d="M1.73,14.91C.77,11.66,2.11,2.29,14.35,0c2.13,0,10.13,1.27,6.53,16.26-.56,2.32-1.8,2.74-3.57,1.6C13.19,15.21,5.71,10.76,1.73,14.91Z"/><circle class="cls-4" cx="15.45" cy="15.43" r="0.71"/><circle class="cls-4" cx="20.55" cy="13.02" r="0.71"/><circle class="cls-5" cx="6.46" cy="9.23" r="2.78"/><circle class="cls-6" cx="6.46" cy="9.23" r="1.19"/><circle class="cls-5" cx="14.98" cy="3.19" r="2.78"/><circle class="cls-6" cx="14.98" cy="3.19" r="1.19"/><rect class="cls-7" width="36" height="36"/></g></g></svg>