<svg xmlns="http://www.w3.org/2000/svg" viewBox="0 0 1830.61 1830.61"><defs><style>.cls-1{fill:#55acee;}.cls-2{fill:#3b88c3;}.cls-3{fill:#c6e5b3;}.cls-4{fill:#77b255;}.cls-5{fill:#5c913b;}.cls-6{fill:#fff;}.cls-7{fill:#292f33;}.cls-8{fill:none;}</style></defs><g id="Ebene_2" data-name="Ebene 2"><g id="Ebene_1-2" data-name="Ebene 1"><path class="cls-1" d="M849,1140H165.93s118.46,376.57,304.8,557.74C597.62,1821.07,811,1830.61,887,1830.61c151.77,0,345.16-10.12,472.06-133.53,221.21-214.89,324.87-557,324.87-557Z"/><path class="cls-2" d="M1603.75,1339.38a1704.36,1704.36,0,0,0,67.82-162.73c-7.12-12.64-17.71-24.87-31-36.62H209.25c-13.23,11.75-23.82,23.92-30.94,36.57,12.49,35.41,34.36,93.59,63.93,160.25,110,79.41,338.41,143.07,682.73,143.07C1265.49,1479.92,1492.4,1417.58,1603.75,1339.38Z"/><path class="cls-1" d="M70.76,876.55V1111.2c0,122.15,382.1,221.22,843.14,221.22S1757,1233.35,1757,1111.2V876.55Z"/><path class="cls-3" d="M168.62,996.85c47.48,17.45,352.69,125.58,737.69,125.58,433.48,0,751.13-94.22,823.85-146.44s70-505.62-261.11-680.31C1186.34,146.5,1178.44,0,909,0,505.14.05-208.32,858.21,168.62,996.85Z"/><path class="cls-4" d="M589.71,600.89c153.35,205.52,499.72,92.54,647.8-51.37,120.62-117.31,272.91-86.06,445.39-41.32C1635.89,424.78,1567,348,1468.47,296,1185.87,146.92,1178,.47,908.63.47,695.26.47,395.53,240.14,215.89,486.6,315.69,454.08,468.93,439.06,589.71,600.89Z"/><circle class="cls-5" cx="798.43" cy="561.84" r="52.43"/><circle class="cls-5" cx="993.06" cy="543.71" r="52.43"/><circle class="cls-6" cx="656.24" cy="232.27" r="124.92"/><circle class="cls-7" cx="656.24" cy="232.27" r="53.54"/><circle class="cls-6" cx="1162.26" cy="245.02" r="124.92"/><circle class="cls-7" cx="1162.26" cy="245.02" r="53.54"/><rect class="cls-8" width="1830.61" height="1830.61"/></g></g></svg>