<?xml version="1.0" encoding="utf-8"?>
<!-- Generator: Adobe Illustrator 25.0.0, SVG Export Plug-In . SVG Version: 6.00 Build 0)  -->
<svg version="1.1" id="Ebene_1" xmlns="http://www.w3.org/2000/svg" xmlns:xlink="http://www.w3.org/1999/xlink" x="0px" y="0px"
	 viewBox="0 0 1999.9 1999.9" style="enable-background:new 0 0 1999.9 1999.9;" xml:space="preserve">
<style type="text/css">
	.st0{fill:#9AAAB4;}
	.st1{fill:#66757F;}
	.st2{fill:#CCD6DD;}
	.st3{fill:#D99E82;}
	.st4{fill:#3F7123;}
	.st5{fill:#5D9040;}
	.st6{fill:#78B159;}
	.st7{fill:#FFFFFF;}
	.st8{fill:#2E2E2E;}
	.st9{fill:none;}
</style>
<g id="Ebene_2_1_">
	<g id="Ebene_1-2">
		<path class="st0" d="M277.8,444.4h1444.4v1500H277.8V444.4z"/>
		<ellipse class="st0" cx="1000" cy="444.4" rx="722.2" ry="444.4"/>
		<ellipse class="st1" cx="1000" cy="444.4" rx="611.1" ry="333.3"/>
		<path class="st2" d="M388.9,500h1222.2v1444.4H388.9V500z"/>
		<ellipse class="st2" cx="1000" cy="500" rx="611.1" ry="333.3"/>
		<path class="st1" d="M1194.4,1500H805.5c-15.3,0-27.7-12.5-27.8-27.8v-55.6c0-15.3,12.5-27.7,27.8-27.8h388.9
			c15.3,0,27.7,12.5,27.8,27.8v55.6C1222.1,1487.5,1209.7,1500,1194.4,1500z M1361.1,1722.2H638.9c-15.3,0-27.7-12.5-27.8-27.8
			v-55.6c0-15.3,12.5-27.7,27.8-27.8h722.2c15.3,0,27.7,12.5,27.8,27.8v55.6C1388.8,1709.7,1376.4,1722.1,1361.1,1722.2
			L1361.1,1722.2z"/>
		<path class="st0" d="M1194.4,1500H805.5c-15.3,0.3-28-11.9-28.3-27.2s11.9-28,27.2-28.3c0.4,0,0.7,0,1.1,0h388.9
			c15.3,0.3,27.5,13,27.2,28.3C1221.4,1487.7,1209.3,1499.7,1194.4,1500z M1361.1,1722.2H638.9c-15.3,0-27.8-12.4-27.8-27.8
			s12.4-27.8,27.8-27.8h722.2c15.3,0,27.8,12.4,27.8,27.8S1376.4,1722.2,1361.1,1722.2z"/>
		<path class="st3" d="M0,1999.9h1999.9c0,0-222.2-111.1-1000-111.1S0,1999.9,0,1999.9z"/>
		<path class="st4" d="M335.8,1888.8c52.1-86.9-167.9-233.7-335.8-186.9C10.3,1880.7,251.9,2029,335.8,1888.8z"/>
		<path class="st5" d="M314.5,1935.9c-153.7,33.9-240.9-272-152.3-491.5C326.9,1470.7,510.4,1892.6,314.5,1935.9z"/>
		<path class="st6" d="M335.9,1930.4c108.5,14,224.9-174.5,179.9-349C380.8,1581.4,176.5,1909.8,335.9,1930.4z"/>
		<path class="st0" d="M1581.9,942.5c0,241.1-260.5,388-582,388s-582-146.9-582-388s260.6-485,582-485S1581.9,701.5,1581.9,942.5z"
			/>
		<path class="st1" d="M1444.7,641.1c45.9-36.7,72.6-92.4,72.6-151.2c0-107.1-86.9-194-194-194c-92.5,0-169.7,64.8-189.2,151.5
			c-86.4-32.7-181.8-32.7-268.3,0c-19.4-86.7-96.7-151.5-189.2-151.5c-107.1,0-194,86.9-194,194c0,58.8,26.7,114.4,72.6,151.2
			C469.7,727.8,418,835.4,418,942.5c0,241.1,260.6,32.3,582,32.3s582,208.7,582-32.3C1581.9,835.4,1530.2,727.8,1444.7,641.1z"/>
		<circle class="st7" cx="660.5" cy="473.8" r="113.2"/>
		<circle class="st8" cx="660.5" cy="473.8" r="48.5"/>
		<circle class="st7" cx="1339.4" cy="473.8" r="113.2"/>
		<circle class="st8" cx="1339.4" cy="473.8" r="48.5"/>
		<circle class="st8" cx="870.6" cy="877.9" r="32.3"/>
		<circle class="st8" cx="1129.3" cy="877.9" r="32.3"/>
		<rect y="0" class="st9" width="1999.9" height="1999.9"/>
	</g>
</g>
</svg>
