<svg xmlns="http://www.w3.org/2000/svg" viewBox="0 0 36 36"><defs><style>.cls-1{fill:#ffcc4d;}.cls-2{fill:#ffac33;}.cls-3{fill:#58595b;}.cls-4{fill:#dd2e44;}.cls-5{fill:#e6e7e8;}.cls-6{fill:#c6e5b3;}.cls-7{fill:#77b255;}.cls-8{fill:#fff;}.cls-9{fill:#292f33;}.cls-10{fill:#5c913b;}.cls-11{fill:#414042;}</style></defs><g id="Ebene_2" data-name="Ebene 2"><g id="Ebene_1-2" data-name="Ebene 1"><path class="cls-1" d="M20,6a2,2,0,1,1-4,0V2a2,2,0,1,1,4,0Z"/><path class="cls-2" d="M9.18,36a1.5,1.5,0,0,1-.67-.16,1.52,1.52,0,0,1-.66-2l8.94-18.12a1.47,1.47,0,0,1,2.66,0l8.94,18.12a1.52,1.52,0,0,1-.66,2,1.49,1.49,0,0,1-2-.67L18.12,19.74,10.51,35.17A1.49,1.49,0,0,1,9.18,36Z"/><path class="cls-3" d="M18.12,20.39a1,1,0,0,1-.7-.29L3.51,6a1,1,0,0,1,0-1.43,1,1,0,0,1,1.41,0L18.12,18,31.32,4.57a1,1,0,0,1,1.41,0,1,1,0,0,1,0,1.43L18.82,20.1A1,1,0,0,1,18.12,20.39Z"/><path class="cls-4" d="M34,19.39A16,16,0,0,1,18.12,35.5,16,16,0,0,1,2.23,19.39,16,16,0,0,1,18.12,3.27,16,16,0,0,1,34,19.39Z"/><path class="cls-5" d="M30,19.39A11.92,11.92,0,1,1,18.12,7.3,12,12,0,0,1,30,19.39Z"/><path class="cls-1" d="M30,1.26A5.86,5.86,0,0,0,25.83,3l8.43,8.54A6.08,6.08,0,0,0,36,7.3,6,6,0,0,0,30,1.26ZM6,1.26A5.84,5.84,0,0,1,10.17,3L1.75,11.57A6.05,6.05,0,0,1,6,1.26Z"/><path class="cls-6" d="M28.29,22.24c0,4.35-4.71,7-10.51,7s-10.5-2.65-10.5-7,4.7-8.76,10.5-8.76S28.29,17.89,28.29,22.24Z"/><path class="cls-7" d="M25.81,16.8a3.5,3.5,0,1,0-5.61-3.5,6.87,6.87,0,0,0-4.84,0,3.5,3.5,0,0,0-6.92.77A3.54,3.54,0,0,0,9.75,16.8a7.91,7.91,0,0,0-2.47,5.44c0,4.35,4.7.58,10.5.58s10.51,3.77,10.51-.58A7.93,7.93,0,0,0,25.81,16.8Z"/><circle class="cls-8" cx="11.65" cy="13.77" r="2.04"/><circle class="cls-9" cx="11.65" cy="13.77" r="0.88"/><circle class="cls-8" cx="23.91" cy="13.77" r="2.04"/><circle class="cls-9" cx="23.91" cy="13.77" r="0.88"/><circle class="cls-10" cx="15.45" cy="21.07" r="0.58"/><circle class="cls-10" cx="20.12" cy="21.07" r="0.58"/><path class="cls-11" d="M23,20H18a1,1,0,0,1-1-1V10a1,1,0,0,1,2,0v8h4a1,1,0,0,1,0,2Z"/></g></g></svg>