<?xml version="1.0" encoding="utf-8"?>
<!-- Generator: Adobe Illustrator 25.0.0, SVG Export Plug-In . SVG Version: 6.00 Build 0)  -->
<svg version="1.1" id="Ebene_1" xmlns="http://www.w3.org/2000/svg" xmlns:xlink="http://www.w3.org/1999/xlink" x="0px" y="0px"
	 viewBox="0 0 36 36" style="enable-background:new 0 0 36 36;" xml:space="preserve">
<style type="text/css">
	.st0{fill:#E1E8ED;}
	.st1{fill:#9AAAB4;}
	.st2{fill:#FFFFFF;}
	.st3{fill:#292F33;}
</style>
<g id="Ebene_1-2">
	<path class="st0" d="M30.6,17.1v14.1c0,0-0.4,1.4-2.7,1.4c-2.3,0-1.9-1.8-4.6-1.8s-1.9,2-5.3,2s-2.6-2-5.3-2s-2.3,1.8-4.6,1.8
		c-2.3,0-2.7-1.4-2.7-1.4V17.1c0-1.7,0.5-3.2,1.4-4.6c0.2-0.4,0.5-0.7,0.8-1.1C10.2,8.3,14,6.6,18,6.6s7.8,1.7,10.4,4.8
		c0.3,0.4,0.6,0.7,0.8,1.1C30.1,13.9,30.6,15.4,30.6,17.1z"/>
	<g>
		<path class="st0" d="M27.5,10.6c1.8-1.4,2.1-4.1,0.6-5.9c-1.4-1.8-4.1-2.1-5.9-0.6c-0.7,0.6-1.3,1.4-1.5,2.3
			c-0.9-0.3-1.8-0.5-2.7-0.5c-0.9,0-1.8,0.2-2.7,0.5c-0.2-0.9-0.8-1.7-1.5-2.3C12,2.6,9.3,2.9,7.9,4.7c-1.5,1.8-1.2,4.5,0.6,5.9
			c-1.8,1.7-2.9,4-3.1,6.4c0,5.2,5.6,0.7,12.6,0.7s12.6,4.5,12.6-0.7C30.4,14.6,29.3,12.3,27.5,10.6z"/>
		<circle class="st1" cx="15.3" cy="15.7" r="0.7"/>
		<path class="st2" d="M13.1,6.9c0,1.3-1.1,2.4-2.4,2.4c-1.3,0-2.4-1.1-2.4-2.4c0-1.3,1.1-2.4,2.4-2.4C12,4.5,13.1,5.6,13.1,6.9z"/>
		<circle class="st3" cx="10.7" cy="6.9" r="1"/>
		<path class="st1" d="M21.4,15.7c0,0.4-0.3,0.7-0.7,0.7c-0.4,0-0.7-0.3-0.7-0.7s0.3-0.7,0.7-0.7C21.1,15,21.4,15.3,21.4,15.7z"/>
		<circle class="st2" cx="25.3" cy="6.9" r="2.4"/>
		<circle class="st3" cx="25.3" cy="6.9" r="1"/>
	</g>
</g>
</svg>
