<?xml version="1.0" encoding="utf-8"?>
<!-- Generator: Adobe Illustrator 25.0.0, SVG Export Plug-In . SVG Version: 6.00 Build 0)  -->
<svg version="1.1" id="Ebene_1" xmlns="http://www.w3.org/2000/svg" xmlns:xlink="http://www.w3.org/1999/xlink" x="0px" y="0px"
	 viewBox="0 0 45 45" style="enable-background:new 0 0 45 45;" xml:space="preserve">
<style type="text/css">
	.st0{fill:#C6E5B3;}
	.st1{fill:#77B255;}
	.st2{fill:#FFFFFF;}
	.st3{fill:#292F33;}
	.st4{fill:#5C913B;}
	.st5{fill:#DD2E44;}
	.st6{fill:#FFAC33;}
</style>
<g id="Ebene_2-2">
	<g id="Ebene_2-2-2">
		<path class="st0" d="M33.3,14.5c0,4.2-4.8,6.7-10.6,6.7S12,18.6,12,14.5s4.8-8.4,10.6-8.4S33.3,10.3,33.3,14.5z"/>
		<path class="st1" d="M30.8,9.3c1.4-1.1,1.7-3.1,0.7-4.6c0-0.1-0.1-0.1-0.1-0.2C30,3,27.8,2.8,26.3,4c-0.6,0.5-1,1.1-1.2,1.9
			c-1.6-0.6-3.3-0.6-4.9,0c-0.5-1.8-2.4-3-4.2-2.5c-1.6,0.3-2.7,1.7-2.7,3.2c0,1,0.5,2,1.4,2.6c-1.5,1.3-2.4,3.3-2.5,5.3
			c0,4.2,4.7,0.6,10.6,0.6s10.6,3.6,10.6-0.6C33.2,12.5,32.3,10.6,30.8,9.3z"/>
		<ellipse class="st2" cx="16.5" cy="6.3" rx="2.1" ry="2"/>
		<ellipse class="st3" cx="16.5" cy="6.3" rx="0.9" ry="0.8"/>
		<ellipse class="st2" cx="28.8" cy="6.3" rx="2.1" ry="2"/>
		<ellipse class="st3" cx="28.8" cy="6.3" rx="0.9" ry="0.8"/>
		<ellipse class="st4" cx="20.3" cy="13.3" rx="0.6" ry="0.6"/>
		<ellipse class="st4" cx="25" cy="13.3" rx="0.6" ry="0.6"/>
	</g>
	<g id="Ebene_1-2-2">
		<ellipse class="st0" cx="22.5" cy="32.2" rx="13.5" ry="12.9"/>
		<path class="st5" d="M28.6,18H16.4c-1.1,0-2,0.9-2,1.9c0,0.8,0.6,1.5,1.3,1.8v9.1c0,0.7,0.6,1.3,1.3,1.3h1.4
			c0.7,0,1.3-0.5,1.3-1.3c0,0,0,0,0,0v-9h8.8c1.1,0,1.9-0.9,1.9-1.9C30.5,18.9,29.7,18,28.6,18C28.6,18,28.6,18,28.6,18L28.6,18z"/>
		<path class="st4" d="M23.9,29.6c0,0.7-0.6,1.4-1.3,1.4c-0.7,0-1.4-0.6-1.4-1.3c0-0.7,0.6-1.4,1.3-1.4
			C23.2,28.2,23.9,28.8,23.9,29.6C23.9,29.5,23.9,29.6,23.9,29.6z M23.9,36c0,0.7-0.6,1.4-1.4,1.4s-1.4-0.6-1.4-1.4s0.6-1.3,1.4-1.3
			S23.9,35.3,23.9,36z"/>
		<path class="st6" d="M12.3,24.5l-4.7-1.9L6.9,19c-0.2-0.7-0.9-1.2-1.6-1c-0.7,0.1-1.2,0.8-1.1,1.5c0,0,0,0,0,0l0,0l0.4,2l-1.8-0.7
			c-0.7-0.3-1.5,0-1.8,0.7C0.7,22,1,22.8,1.7,23c0,0,0,0,0,0l1,0.4l-1.3,1.4c-0.5,0.5-0.5,1.2-0.1,1.8c0,0,0,0,0.1,0.1
			C1.6,26.9,1.9,27,2.3,27c0.4,0,0.7-0.1,1-0.4l2.1-2.1l5.8,2.4c0.2,0.1,0.3,0.1,0.5,0.1c0.7,0,1.3-0.6,1.4-1.3
			C13.1,25.2,12.8,24.7,12.3,24.5z M43.2,20.7l-2-0.7l1.2-1.1c0.5-0.5,0.5-1.3,0.1-1.8c0,0,0,0-0.1-0.1l0,0c-0.5-0.5-1.4-0.5-1.9,0
			l-1,0.9l-0.8-2.9c-0.2-0.7-0.9-1.2-1.6-1c-0.7,0.1-1.2,0.8-1.1,1.5c0,0,0,0,0,0c0,0,0,0.1,0,0.1l1.2,4.4l-4.9,4.6
			c-0.5,0.5-0.5,1.3-0.1,1.8c0,0,0,0,0.1,0.1l0,0c0.5,0.5,1.4,0.5,1.9,0l4.8-4.6l3.3,1c0.1,0,0.3,0.1,0.4,0.1c0.7,0,1.3-0.5,1.4-1.3
			c0,0,0,0,0,0C44.1,21.3,43.7,20.8,43.2,20.7L43.2,20.7z"/>
	</g>
</g>
</svg>
