<svg xmlns="http://www.w3.org/2000/svg" viewBox="0 0 36 36"><defs><style>.cls-1{fill:#f4900c;}.cls-2{fill:#ffcc4d;}.cls-3{fill:#ffe8b6;}.cls-4{fill:#ffac33;}.cls-5{fill:#292f33;}.cls-6{fill:none;}</style></defs><g id="Ebene_2" data-name="Ebene 2"><g id="Ebene_1-2" data-name="Ebene 1"><circle class="cls-1" cx="18" cy="19" r="17"/><circle class="cls-2" cx="18" cy="17" r="17"/><circle class="cls-3" cx="18" cy="18" r="14"/><circle class="cls-4" cx="18" cy="17" r="14"/><path class="cls-1" d="M28.8,20.17c0,4.47-4.83,7.2-10.8,7.2S7.2,24.64,7.2,20.17s4.83-9,10.8-9S28.8,15.69,28.8,20.17Z"/><path class="cls-1" d="M26.25,14.57a3.56,3.56,0,0,0,1.35-2.8A3.6,3.6,0,0,0,20.49,11a7,7,0,0,0-5,0,3.6,3.6,0,1,0-5.76,3.59,8.16,8.16,0,0,0-2.55,5.6c0,4.47,4.83.6,10.8.6s10.8,3.87,10.8-.6A8.16,8.16,0,0,0,26.25,14.57Z"/><path class="cls-3" d="M28.8,19.4c0,4.48-4.83,7.2-10.8,7.2S7.2,23.88,7.2,19.4s4.83-9,10.8-9S28.8,14.93,28.8,19.4Z"/><path class="cls-2" d="M26.25,13.8A3.56,3.56,0,0,0,27.6,11a3.6,3.6,0,0,0-7.11-.79,7,7,0,0,0-5,0A3.6,3.6,0,1,0,9.75,13.8,8.16,8.16,0,0,0,7.2,19.4c0,4.48,4.83.6,10.8.6s10.8,3.88,10.8-.6A8.16,8.16,0,0,0,26.25,13.8Z"/><circle class="cls-3" cx="11.7" cy="10.7" r="2.1"/><circle class="cls-5" cx="11.7" cy="10.7" r="0.9"/><circle class="cls-3" cx="24.3" cy="10.7" r="2.1"/><circle class="cls-5" cx="24.3" cy="10.7" r="0.9"/><circle class="cls-4" cx="15.6" cy="18.2" r="0.6"/><circle class="cls-4" cx="20.4" cy="18.2" r="0.6"/><rect class="cls-6" width="36" height="36"/></g></g></svg>