<svg xmlns="http://www.w3.org/2000/svg" xmlns:xlink="http://www.w3.org/1999/xlink" viewBox="0 0 2245.61 2343.67"><defs><style>.cls-1{fill:none;}.cls-2{clip-path:url(#clip-path);}.cls-3{fill:#c4e7b6;}.cls-4{fill:#72b45d;}.cls-5{fill:#387428;}.cls-6{fill:#fff;}.cls-7{fill:#292f33;}</style><clipPath id="clip-path" transform="translate(-127 -56.19)"><rect class="cls-1" width="2500" height="2500"/></clipPath></defs><g id="Ebene_2" data-name="Ebene 2"><g id="Ebene_1-2" data-name="Ebene 1"><g class="cls-2"><path class="cls-3" d="M1646.09,2082.31v153.43c0,218.82-792.57,218.82-792.57,0v-107c0,175.2,158.13,28.56,401.94,28.56,209.32,0,389.32,141.16,389.32-28.56C1644.78,2113.26,1645.4,2097.75,1646.09,2082.31Z" transform="translate(-127 -56.19)"/><path class="cls-4" d="M2306.56,584.56v726.52c0,145.9-125.23,255.94-232.55,317.82-76.49,44.17-286.15,97.62-417.86,107.57q-5.12.38-10.06.68v345.16c-.69,15.44-1.31,31-1.31,46.45,0,169.72-180,28.56-389.32,28.56-243.81,0-401.94,146.64-401.94-28.56V2002.14c-6.89-.19-14.1-.54-21.58-1-128.43-8.71-338.35-63.2-416-108-107.33-61.88-222.91-171.92-222.91-317.82V1112.94c0-145.9,118.29-264.19,264.19-264.19S721.42,967,721.42,1112.94v338.49c0,71.67,53.18,129,122.77,161.25q4.62,2.14,9.33,4.14V452.47q0-7.83.3-15.6a395.81,395.81,0,0,1,10.9-78.3,171.31,171.31,0,0,1,205.64-259.5,396.83,396.83,0,0,1,368.15,4.87,171.26,171.26,0,0,1,200.32,272.65q3.14,16.14,4.93,32.73a399.32,399.32,0,0,1,2.33,43.15v896.46c73.51-32.23,132.09-90,132.09-161.69V584.56q0-5.85.25-11.63c6.09-140.5,121.94-252.56,263.94-252.56C2188.27,320.37,2306.56,438.67,2306.56,584.56Z" transform="translate(-127 -56.19)"/><circle class="cls-5" cx="726.52" cy="396.28" r="66.05"/><circle class="cls-5" cx="1320.94" cy="594.42" r="66.05"/><circle class="cls-5" cx="858.61" cy="1056.75" r="66.05"/><circle class="cls-5" cx="1254.9" cy="1320.94" r="66.05"/><circle class="cls-5" cx="792.57" cy="1717.22" r="66.05"/><circle class="cls-5" cx="264.19" cy="1783.27" r="66.05"/><circle class="cls-5" cx="528.38" cy="1320.94" r="66.05"/><circle class="cls-5" cx="66.05" cy="1188.85" r="66.05"/><circle class="cls-5" cx="2179.56" cy="528.37" r="66.05"/><circle class="cls-5" cx="1783.28" cy="726.52" r="66.05"/><circle class="cls-5" cx="2047.46" cy="1056.75" r="66.05"/><circle class="cls-5" cx="1849.32" cy="1585.13" r="66.05"/><circle class="cls-5" cx="1386.99" cy="1981.41" r="66.05"/><circle class="cls-6" cx="860.74" cy="185.72" r="99.94"/><circle class="cls-7" cx="860.74" cy="185.72" r="42.83"/><circle class="cls-6" cx="1404.35" cy="185.72" r="99.94"/><circle class="cls-7" cx="1404.35" cy="185.72" r="42.83"/></g></g></g></svg>