<?xml version="1.0" encoding="utf-8"?>
<!-- Generator: Adobe Illustrator 25.0.0, SVG Export Plug-In . SVG Version: 6.00 Build 0)  -->
<svg version="1.1" id="Ebene_1" xmlns="http://www.w3.org/2000/svg" xmlns:xlink="http://www.w3.org/1999/xlink" x="0px" y="0px"
	 viewBox="0 0 45 45" style="enable-background:new 0 0 45 45;" xml:space="preserve">
<style type="text/css">
	.st0{fill:#C6E5B3;}
	.st1{fill:#77B255;}
	.st2{fill:#FFFFFF;}
	.st3{fill:#292F33;}
	.st4{fill:#5C913B;}
	.st5{fill:#DD2E44;}
	.st6{fill:#FFAC33;}
</style>
<g id="Ebene_2-2-2_1_">
	<path class="st0" d="M32.5,14.5c0,4.2-4.8,6.7-10.6,6.7s-10.6-2.6-10.6-6.7S16.1,6,21.9,6S32.5,10.3,32.5,14.5z"/>
	<path class="st1" d="M30,9.2c1.4-1.1,1.7-3.1,0.7-4.6c0-0.1-0.1-0.1-0.1-0.2c-1.3-1.5-3.5-1.7-5-0.5c-0.6,0.5-1,1.1-1.2,1.9
		c-0.8-0.3-1.6-0.4-2.4-0.4c-0.8,0-1.7,0.1-2.4,0.4c-0.5-1.8-2.4-3-4.3-2.5c-1.6,0.3-2.7,1.7-2.7,3.2c0,1,0.5,2,1.4,2.6
		c-1.5,1.3-2.4,3.3-2.5,5.3c0,4.2,4.8,0.6,10.6,0.6s10.6,3.6,10.6-0.6C32.4,12.5,31.5,10.6,30,9.2z"/>
	<ellipse class="st2" cx="15.8" cy="6.3" rx="2.1" ry="2"/>
	<ellipse class="st3" cx="15.8" cy="6.3" rx="0.9" ry="0.8"/>
	<ellipse class="st2" cx="28.1" cy="6.3" rx="2.1" ry="2"/>
	<ellipse class="st3" cx="28.1" cy="6.3" rx="0.9" ry="0.8"/>
	<ellipse class="st4" cx="19.6" cy="13.3" rx="0.6" ry="0.6"/>
	<ellipse class="st4" cx="24.3" cy="13.3" rx="0.6" ry="0.6"/>
</g>
<g id="Ebene_1-2-2_1_">
	<ellipse class="st0" cx="21.8" cy="32.1" rx="13.5" ry="12.9"/>
	<path class="st5" d="M27.9,18H15.7c-1.1,0-2,0.9-2,1.9c0,0.8,0.6,1.5,1.3,1.8v9.1c0,0.7,0.6,1.3,1.3,1.3c0,0,0,0,0,0h1.4
		c0.7,0,1.3-0.6,1.4-1.3v-9h8.8c1.1,0,1.9-0.9,1.9-1.9S29,18,27.9,18L27.9,18z"/>
	<path class="st4" d="M23.2,29.6c0,0.7-0.6,1.4-1.4,1.4s-1.4-0.6-1.4-1.4s0.6-1.4,1.4-1.4S23.2,28.8,23.2,29.6z M23.2,36
		c0,0.7-0.5,1.4-1.3,1.4c-0.7,0-1.4-0.5-1.4-1.3c0-0.7,0.5-1.4,1.3-1.4c0,0,0,0,0.1,0C22.5,34.7,23.1,35.3,23.2,36z"/>
	<path class="st6" d="M11.6,24.5l-4.7-1.9L6.2,19c-0.2-0.7-0.9-1.2-1.6-1c-0.7,0.1-1.2,0.8-1.1,1.5c0,0,0,0,0,0l0,0l0.4,2l-1.8-0.7
		c-0.7-0.3-1.5,0-1.8,0.7C0.1,22.1,0.4,22.7,1,23l1,0.4l-1.4,1.4c-0.5,0.5-0.5,1.3-0.1,1.8c0,0,0,0,0.1,0.1C0.9,26.9,1.2,27,1.6,27
		c0.4,0,0.7-0.1,1-0.4l2.2-2.1l5.8,2.4C10.7,27,10.8,27,11,27c0.7,0,1.3-0.6,1.4-1.3C12.4,25.2,12,24.7,11.6,24.5z M42.5,20.7
		l-2-0.7l1.2-1.1c0.5-0.5,0.5-1.3,0.1-1.8c0,0,0,0-0.1-0.1l0,0c-0.5-0.5-1.4-0.5-1.9,0l-1,0.9L38,15.1c-0.2-0.7-0.9-1.2-1.6-1
		c-0.7,0.1-1.2,0.8-1.1,1.5c0,0,0,0,0,0v0.1l1.2,4.4l-4.9,4.6c-0.5,0.5-0.5,1.3-0.1,1.8c0,0,0,0,0.1,0.1l0,0c0.5,0.5,1.4,0.5,1.9,0
		l4.8-4.6l3.3,1c0.1,0,0.3,0.1,0.4,0.1c0.7,0,1.3-0.5,1.4-1.2c0-0.6-0.3-1.2-0.9-1.3V20.7z"/>
</g>
</svg>
