<svg xmlns="http://www.w3.org/2000/svg" viewBox="0 0 36 36"><defs><style>.cls-1{fill:#c6e5b3;}.cls-2,.cls-6{fill:#77b255;}.cls-3{fill:#fff;}.cls-4{fill:#292f33;}.cls-5{fill:#5c913b;}.cls-6{stroke:#3f6328;stroke-miterlimit:10;stroke-width:0.25px;}.cls-7{fill:none;}</style></defs><g id="Ebene_2" data-name="Ebene 2"><g id="Ebene_1-2" data-name="Ebene 1"><path class="cls-1" d="M36,22c0,7.46-8.06,12-18,12S0,29.46,0,22,8.06,7,18,7,36,14.54,36,22Z"/><path class="cls-2" d="M31.75,12.68a6,6,0,1,0-9.6-6,11.86,11.86,0,0,0-8.3,0,6,6,0,1,0-9.61,6A13.58,13.58,0,0,0,0,22c0,7.46,8.06,1,18,1s18,6.46,18-1A13.55,13.55,0,0,0,31.75,12.68Z"/><circle class="cls-3" cx="7.5" cy="7.5" r="3.5"/><circle class="cls-4" cx="7.5" cy="7.5" r="1.5"/><circle class="cls-3" cx="28.5" cy="7.5" r="3.5"/><circle class="cls-4" cx="28.5" cy="7.5" r="1.5"/><circle class="cls-5" cx="14" cy="20" r="1"/><circle class="cls-5" cx="22" cy="20" r="1"/><g id="Ebene_2-2" data-name="Ebene 2"><g id="Ebene_1-2-2" data-name="Ebene 1-2"><path class="cls-6" d="M8.05,35s1.06-.09,1.36-.79a.76.76,0,0,0-.28-1h0a1.24,1.24,0,0,0,1.17-.84,1,1,0,0,0-.45-1.22,1.44,1.44,0,0,0,1.07-1,1.34,1.34,0,0,0-.49-1.32h5.42a1.09,1.09,0,0,0,1.15-1v-.11a1.06,1.06,0,0,0-1-1.09H6.74c-.44,0-.44-.44,0-.44H7.93a4.19,4.19,0,0,0,3-1.23,1.33,1.33,0,0,0,.33-1.25c-.18-.89-.85-.68-1.42-.44a19.39,19.39,0,0,1-4.24,1.14A5.36,5.36,0,0,0,6.3,35Z"/></g></g><g id="Ebene_2-3" data-name="Ebene 2"><g id="Ebene_1-2-3" data-name="Ebene 1-2"><path class="cls-6" d="M28,35s-1.09-.07-1.37-.79a.77.77,0,0,1,.28-1,1.24,1.24,0,0,1-1.17-.84,1,1,0,0,1,.45-1.22,1.45,1.45,0,0,1-1.08-1,1.36,1.36,0,0,1,.5-1.32H20.15a1.09,1.09,0,0,1-1.15-1v-.11a1.06,1.06,0,0,1,1-1.09h9.23c.44,0,.44-.44,0-.44H28.07a4.19,4.19,0,0,1-3-1.23,1.33,1.33,0,0,1-.33-1.25c.18-.89.85-.68,1.42-.44a19.39,19.39,0,0,0,4.24,1.14A5.36,5.36,0,0,1,29.7,35Z"/></g></g><rect class="cls-7" width="36" height="36"/></g></g></svg>