<svg xmlns="http://www.w3.org/2000/svg" viewBox="0 0 3031.47 3031.47"><defs><style>.cls-1{fill:#99aab5;}.cls-2{fill:#ccd6dd;}.cls-3{fill:#f5f8fa;}.cls-4{fill:#77b255;}.cls-5{fill:#c6e5b3;}.cls-6{fill:#fff;}.cls-7{fill:#292f33;}.cls-8{fill:#5c913b;}.cls-9{fill:#b9dea4;}.cls-10{fill:none;}</style></defs><g id="Ebene_2" data-name="Ebene 2"><g id="Ebene_1-2" data-name="Ebene 1"><ellipse class="cls-1" cx="1515.74" cy="2189.42" rx="1515.69" ry="842.05"/><ellipse class="cls-2" cx="1515.74" cy="2021.01" rx="1515.69" ry="842.05"/><path class="cls-3" d="M1515.74,2610.45c-1259.55,0-1431.49-1263.08-1431.49-1599.9h2863C2947.23,1179,2782.35,2610.45,1515.74,2610.45Z"/><path class="cls-2" d="M2895.44,812.16C3101.07-40.25,2071.83,163.27,1867.8,323.85a3205.83,3205.83,0,0,0-352.06-19.7c-790.61,0-1431.49,271.9-1431.49,711S725.13,1810.5,1515.74,1810.5s1431.49-356.11,1431.49-795.24C2947.23,942.59,2928.2,875.15,2895.44,812.16ZM2684.67,585.48c-114.26-79-261.2-142.64-431.21-189.46C2411.34,347.52,2636.68,370,2684.67,585.48Z"/><path class="cls-4" d="M2778.82,1094.75a280.49,280.49,0,0,1-2,33.71c-3.87,32-13.23,63.42-27.65,93.9-138.25,67.3-649.22-68.62-1146-4.16-475.33,61.69-932.55,260.28-1162.54,186.08-58.41-44.08-104.72-92-136.75-142.83-33.34-52.86-51.22-108.8-51.22-166.7,0-157.88,133-301.27,349.62-407.08,79.62-38.9,170.55-72.73,270.32-100.32,188.38-52.11,408.27-82,643.14-82,135.26,0,265.55,9.92,387.71,28.29,186.49,28,354,75.76,491.43,137.93C2631.66,778.67,2778.82,928.69,2778.82,1094.75Z"/><path class="cls-5" d="M2749.14,1222.36c-124.95,264.19-629.72,461.83-1233.4,461.83-454.29,0-852.56-111.92-1075.11-279.91,230,74.2,687.21-124.39,1162.54-186.08C2099.92,1153.74,2610.89,1289.66,2749.14,1222.36Z"/><ellipse class="cls-6" cx="879.26" cy="768.86" rx="114.56" ry="202.8" transform="translate(82.66 1623.07) rotate(-88.17)"/><ellipse class="cls-7" cx="879.26" cy="768.86" rx="49.1" ry="86.91" transform="translate(82.66 1623.07) rotate(-88.17)"/><ellipse class="cls-6" cx="2082.62" cy="694.88" rx="114.56" ry="202.8" transform="translate(1321.48 2754.2) rotate(-88.17)"/><ellipse class="cls-7" cx="2082.62" cy="694.88" rx="49.1" ry="86.91" transform="translate(1321.48 2754.2) rotate(-88.17)"/><ellipse class="cls-8" cx="1357.24" cy="1153.16" rx="32.73" ry="57.94" transform="translate(161.25 2472.82) rotate(-88.17)"/><ellipse class="cls-8" cx="1815.67" cy="1124.98" rx="32.73" ry="57.94" transform="translate(633.18 2903.72) rotate(-88.17)"/><path class="cls-9" d="M1684.15,1431.57a84,84,0,0,1-59.54-24.67c-196.78-196.79-200.07-411.34-10.52-695.7,62.23-93.39,75.78-189.13,40.25-284.36-38.82-104.08-121.09-168.08-145.76-174.9-46.57,0-80.67-37.3-80.67-83.87s41.35-83.78,87.83-83.78c84,0,201.67,97.09,268,221,87.07,162.77,76.63,340.1-29.55,499.25-165.13,247.73-128.92,364.78-10.53,483.17a84.29,84.29,0,0,1-59.53,143.82Zm-505.23-168.41a84,84,0,0,1-59.54-24.67c-196.79-196.79-200.07-411.34-10.52-695.7,61.21-91.87,75.19-175.4,41.59-248.16-37.38-80.92-120.49-123.69-141.8-126.22-46.48,0-83.28-37.64-83.28-84.2S963.94,0,1010.51,0c84,0,217.67,82,282.92,204,40.51,75.7,88.59,232.49-44.46,432.06-165.12,247.73-128.91,364.77-10.52,483.17a84.37,84.37,0,0,1-59.53,143.9Z"/><rect class="cls-10" width="3031.47" height="3031.47"/></g></g></svg>