<?xml version="1.0" encoding="utf-8"?>
<!-- Generator: Adobe Illustrator 25.0.0, SVG Export Plug-In . SVG Version: 6.00 Build 0)  -->
<svg version="1.1" id="Ebene_1" xmlns="http://www.w3.org/2000/svg" xmlns:xlink="http://www.w3.org/1999/xlink" x="0px" y="0px"
	 viewBox="0 0 2270.9 2270.9" style="enable-background:new 0 0 2270.9 2270.9;" xml:space="preserve">
<style type="text/css">
	.st0{fill:#C6E5B3;}
	.st1{fill:#77B255;}
	.st2{fill:#FFFFFF;}
	.st3{fill:#292F33;}
	.st4{fill:#5C913B;}
	.st5{fill:#3F6328;}
</style>
<g id="Ebene_2_1_">
	<g id="Ebene_1-2">
		<path class="st0" d="M2270.9,1436.9c0,470.3-508.4,757-1135.5,757S0,1907.2,0,1436.9s508.4-946.2,1135.4-946.2
			S2270.9,966.5,2270.9,1436.9z"/>
		<path class="st1" d="M2003.1,848.7c86.3-69.4,141.6-175.7,141.6-295c0-209-169.5-378.5-378.5-378.5
			c-180.5,0-331.2,126.4-369.1,295.5c-168.7-63.8-354.8-63.8-523.5,0c-37.9-169.1-188.6-295.5-369.1-295.5
			c-209,0-378.5,169.5-378.5,378.5c0,119.3,55.3,225.6,141.6,295C100.9,1017.8,0,1227.8,0,1436.9c0,470.3,508.4,63.1,1135.4,63.1
			s1135.5,407.2,1135.5-63.1C2270.9,1227.8,2170,1017.8,2003.1,848.7z"/>
		<path class="st2" d="M693.9,522.2C693.9,644.1,595,743,473.1,743s-220.8-98.9-220.8-220.8l437.2-43.7
			C692.4,492.8,693.9,507.5,693.9,522.2z"/>
		<circle class="st3" cx="573.4" cy="518.2" r="120.5"/>
		<path class="st4" d="M693.4,507.6l-441.1,14.6c0-121.9,98.8-220.8,220.8-220.8C580.1,301.4,685,382.2,693.4,507.6z"/>
		<path class="st2" d="M2018.6,522.2c0,121.9-98.8,220.8-220.8,220.8S1577,644.1,1577,522.2c0-15.2,1.6-30.4,4.7-45.3l436.5,32.5
			C2018.5,513.6,2018.6,517.9,2018.6,522.2z"/>
		<circle class="st3" cx="1898.8" cy="519.8" r="119.8"/>
		<path class="st4" d="M2018.2,509.4l-436.5-32.5c20.9-100.2,109.7-175.5,216.1-175.5C1915.5,301.4,2011.6,393.4,2018.2,509.4z"/>
		<circle class="st4" cx="883.1" cy="1310.7" r="63.1"/>
		<circle class="st4" cx="1387.8" cy="1310.7" r="63.1"/>
		<path class="st5" d="M513.9,1494.9c23.8,13.3,47.4,26,71.3,37.6s47.8,22.3,72,32c48,19.2,97.2,35.2,147.3,48
			c49.7,12.7,100,22.5,150.8,29.4c50.7,6.9,101.6,11.2,152.8,12.8c51.1,1.6,102.1,0.6,153.1-2.8c6.3-0.5,12.7-0.8,19.1-1.4
			s12.7-1,19.1-1.6l9.5-0.9c3.2-0.3,6.4-0.5,9.5-0.9c6.3-0.7,12.7-1.3,19-2.1c25.4-2.9,50.6-6.6,75.8-10.8s50.2-9.3,75.2-15.2
			s49.7-12.4,74.3-20s49.1-16,73.3-25.8c6-2.5,12.2-4.8,18.1-7.5l9.1-3.9l9-4.1c6.1-2.6,12-5.6,18.1-8.4c3.1-1.4,6-2.9,9-4.4
			s6-3,9.1-4.4l0.8-0.4c8.3-3.9,18.2-0.2,22.1,8.1c2.6,5.5,1.9,12-1.7,16.9c-8.6,11.6-17.9,22.6-27.8,33.1c-2.5,2.6-5,5.2-7.5,7.8
			l-7.8,7.6c-5.2,5.1-10.6,9.8-16,14.7c-21.9,19-45.3,36.2-70,51.5c-24.6,15.3-50.2,29-76.6,41c-26.3,12-53.3,22.5-80.8,31.4
			c-27.4,9-55.4,16.4-83.5,22.7c-7,1.5-14.1,2.9-21.2,4.3s-14.2,2.6-21.3,3.9s-14.2,2.2-21.3,3.3c-3.6,0.6-7.1,1-10.7,1.5l-10.7,1.4
			c-57.1,6.9-114.7,8.8-172.2,5.8c-57.4-2.9-114.5-10.7-170.7-23.3c-56.2-12.6-111-30.5-163.9-53.4c-52.7-23-103.1-51.4-149.2-85.4
			c-23-16.9-44.8-35.4-65.3-55.2c-20.5-19.7-39.2-41-56-63.8c-4.2-5.8-2.9-13.9,2.9-18.2C503.9,1492.7,509.4,1492.4,513.9,1494.9
			L513.9,1494.9z"/>
		<path class="st5" d="M1591.5,1504.3c1.7,16.4,147.9-22.1,184,7.8c32.1,26.6-49.7,174.5-31.7,183.1
			c41.5,19.8,136.2-209.2,91.5-237.6C1785.7,1426.1,1587.6,1466,1591.5,1504.3z"/>
		<path class="st3" d="M220.7,110.3c22.1-18.1,46.7-32.8,72.2-45.6c25.6-12.5,52.4-22.5,79.9-30c27.4-7.5,55.4-12.6,83.7-15.3
			l5.3-0.5c1.8-0.2,3.5-0.4,5.3-0.4l10.6-0.6l5.3-0.3c1.8-0.1,3.5-0.2,5.3-0.2c3.5-0.1,7.1-0.1,10.6-0.2l5.3-0.1c1.8,0,3.5,0,5.3,0
			l10.6,0.2l5.3,0.1c1.8,0,3.5,0.1,5.3,0.2l10.6,0.6c56.3,3.6,111.8,16,164.3,36.8c26,10.4,51.2,22.8,75.2,37.3
			c23.8,14.6,46.5,30.8,67.1,49.3c17.8,16.1,19.1,43.5,3.1,61.2c-13.1,14.5-34.2,18.4-51.7,9.6l-0.8-0.4
			c-21.1-10.7-42.2-20.9-63.8-29.5c-21.4-8.7-43.2-16.3-65.4-22.6c-44-12.7-89.2-20.2-134.9-22.6c-5.7-0.2-11.3-0.6-17-0.6l-8.5-0.2
			c-1.4-0.1-2.8,0-4.3,0l-4.2,0.1c-2.8,0-5.7,0.1-8.5,0.1c-1.4,0-2.8,0-4.3,0.1l-4.2,0.2l-8.5,0.3c-1.4,0-2.8,0.2-4.2,0.3l-4.2,0.3
			c-22.6,1.5-45.1,4.3-67.3,8.5c-22.2,4.2-44.1,9.8-65.6,16.7c-21.6,6.7-42.6,15.3-63.5,24.6l-1.1,0.5c-23.3,10.4-50.6-0.1-61-23.4
			C199.3,145.8,204.6,123.4,220.7,110.3L220.7,110.3z"/>
		<path class="st3" d="M1525.8,141.9c20.1,10.9,40.3,21.2,61.3,29.7c20.9,8.7,42.2,16,64,22.1c21.8,6,43.9,10.8,66.2,14.2l4.2,0.7
			c1.4,0.2,2.8,0.5,4.2,0.6l8.4,1.1l4.2,0.5c1.4,0.2,2.8,0.4,4.2,0.5c2.8,0.2,5.6,0.6,8.5,0.8l4.2,0.4c1.4,0.1,2.8,0.3,4.2,0.4
			l8.5,0.6c5.7,0.4,11.3,0.6,17,0.9c45.7,1.6,91.4-2,136.2-10.7c22.7-4.4,45.1-9.9,67.1-16.7l8.3-2.6l4.2-1.3
			c1.4-0.4,2.7-0.9,4.1-1.4l8.2-2.9c2.7-1,5.6-1.8,8.3-2.9c5.5-2.1,11-4,16.5-6.1s10.9-4.4,16.5-6.4l2.2-0.8
			c22.4-8.2,47.3,3.3,55.5,25.7c6.6,17.9,0.6,38.1-14.7,49.5c-22.2,16.6-46.3,30.7-71.3,43c-25.2,12.3-51.3,22.5-78.1,30.5
			c-54.1,16.1-110.3,23.6-166.7,22.3l-10.6-0.3c-1.8,0-3.5-0.1-5.3-0.3l-5.3-0.4l-10.6-0.7c-1.8-0.1-3.5-0.3-5.3-0.5l-5.3-0.5
			c-3.5-0.4-7-0.7-10.5-1.1c-1.8-0.2-3.5-0.4-5.3-0.7l-5.2-0.8l-10.5-1.5c-1.8-0.2-3.5-0.6-5.2-0.9l-5.2-1
			c-27.9-5.1-55.3-12.6-82-22.4c-26.8-9.8-52.5-22-77-36.6c-24.3-14.8-47.6-31.6-68.1-51.4c-18.3-17.7-18.8-46.9-1.1-65.3
			c14.4-14.9,36.9-18.4,55.1-8.5L1525.8,141.9z"/>
	</g>
</g>
</svg>
