<svg xmlns="http://www.w3.org/2000/svg" viewBox="0 0 45.74 45.74"><defs><style>.cls-1{fill:#c6e5b3;}.cls-2{fill:#77b255;}.cls-3{fill:#fff;}.cls-4{fill:#292f33;}.cls-5{fill:#5c913b;}.cls-6{fill:#31373d;}.cls-7{fill:#e6e7e8;}.cls-8{fill:none;}</style></defs><g id="Ebene_2" data-name="Ebene 2"><g id="Ebene_1-2" data-name="Ebene 1"><path class="cls-1" d="M40.87,32.45c0,7.45-8.06,12-18,12s-18-4.55-18-12,8.06-15,18-15S40.87,25,40.87,32.45Z"/><path class="cls-2" d="M36.62,23.12a6,6,0,1,0-9.6-6,11.71,11.71,0,0,0-8.3,0,6,6,0,1,0-9.61,6,13.6,13.6,0,0,0-4.24,9.33c0,7.45,8.06,1,18,1s18,6.45,18-1A13.57,13.57,0,0,0,36.62,23.12Z"/><circle class="cls-3" cx="12.37" cy="17.95" r="3.5"/><circle class="cls-4" cx="12.37" cy="17.95" r="1.5"/><circle class="cls-3" cx="33.37" cy="17.95" r="3.5"/><circle class="cls-4" cx="33.37" cy="17.95" r="1.5"/><circle class="cls-5" cx="18.87" cy="30.45" r="1"/><circle class="cls-5" cx="26.87" cy="30.45" r="1"/><path class="cls-6" d="M45.17,11.63c-1.42,2.28-5.49,5.82-22.22,5.82-17.71,0-21.16-3.8-22.47-6,7.8,5.95,16.27.48,22.47.48S34,16.66,45.17,11.63Z"/><path class="cls-4" d="M45.17,11.63c-11.16,5-16,.3-22.22.3S8.28,17.4.48,11.45A3,3,0,0,1,0,9.91c.19-2,7.21,0,10.93-3.73A16.59,16.59,0,0,1,23,1.29c4.6,0,7.72,1.33,11.78,4.7,5.33,4.43,10.41,1.63,11,3.87A3,3,0,0,1,45.17,11.63Z"/><path class="cls-7" d="M27.48,9.73A.4.4,0,0,0,27,10l-2.86-1L27,7.9a.4.4,0,0,0,.53.25.41.41,0,0,0-.28-.78.43.43,0,0,0,.25-.54.42.42,0,1,0-.79.29L22.87,8.5,19.08,7.12a.42.42,0,1,0-.79-.29.43.43,0,0,0,.25.54.41.41,0,1,0,.25.53l2.86,1-2.86,1a.41.41,0,0,0-.53-.25.42.42,0,0,0-.25.54.43.43,0,0,0,.53.25.41.41,0,0,0-.25.53.42.42,0,0,0,.54.25.41.41,0,0,0,.25-.53l3.79-1.38,3.79,1.38a.41.41,0,0,0,.25.53.42.42,0,0,0,.54-.25.42.42,0,0,0-.25-.53.42.42,0,0,0,.28-.79Z"/><path class="cls-7" d="M22.87,2.24a2.47,2.47,0,0,0-2.51,2.52A1.42,1.42,0,0,0,21.2,6v.82a.42.42,0,1,0,.83,0V6.34l.42.07v.44a.42.42,0,1,0,.84,0V6.41l.42-.07v.51a.42.42,0,1,0,.83,0V6a1.44,1.44,0,0,0,.84-1.27A2.47,2.47,0,0,0,22.87,2.24ZM21.82,5.17c-.34,0-.62,0-.62-.62a.63.63,0,0,1,.62-.63c.63,0,.63.28.63.63A.63.63,0,0,1,21.82,5.17ZM22.87,6c-.23,0-.42-.09-.42-.21s.19-.21.42-.21.42.1.42.21S23.1,6,22.87,6Zm1.05-.84a.63.63,0,0,1-.63-.62c0-.35,0-.63.63-.63a.63.63,0,0,1,.62.63C24.54,5.17,24.26,5.17,23.92,5.17Z"/><rect class="cls-8" width="45.74" height="45.74"/></g></g></svg>