<svg xmlns="http://www.w3.org/2000/svg" viewBox="0 0 1999.93 1999.93"><defs><style>.cls-1{fill:#9aaab4;}.cls-2{fill:#66757f;}.cls-3{fill:#ccd6dd;}.cls-4{fill:#d99e82;}.cls-5{fill:#3f7123;}.cls-6{fill:#5d9040;}.cls-7{fill:#78b159;}.cls-8{fill:#fff;}.cls-9{fill:#2e2e2e;}.cls-10{fill:none;}</style></defs><g id="Ebene_2" data-name="Ebene 2"><g id="Ebene_1-2" data-name="Ebene 1"><path class="cls-1" d="M277.77,444.43h1444.4v1500H277.77Z"/><ellipse class="cls-1" cx="999.97" cy="444.43" rx="722.2" ry="444.43"/><ellipse class="cls-2" cx="999.97" cy="444.43" rx="611.09" ry="333.32"/><path class="cls-3" d="M388.88,500H1611.06v1444.4H388.88Z"/><ellipse class="cls-3" cx="999.97" cy="499.98" rx="611.09" ry="333.32"/><path class="cls-2" d="M1194.41,1500H805.53a27.86,27.86,0,0,1-27.78-27.78v-55.55a27.86,27.86,0,0,1,27.78-27.78h388.88a27.86,27.86,0,0,1,27.77,27.78v55.55A27.86,27.86,0,0,1,1194.41,1500Zm166.66,222.22H638.87a27.86,27.86,0,0,1-27.78-27.78v-55.55a27.86,27.86,0,0,1,27.78-27.78h722.2a27.86,27.86,0,0,1,27.77,27.78v55.55A27.86,27.86,0,0,1,1361.07,1722.17Z"/><path class="cls-1" d="M1194.41,1500H805.53a27.78,27.78,0,1,1,0-55.55h388.88a27.78,27.78,0,0,1,0,55.55Zm166.66,222.22H638.87a27.78,27.78,0,1,1,0-55.56h722.2a27.78,27.78,0,0,1,0,55.56Z"/><path class="cls-4" d="M0,1999.93H1999.93s-222.21-111.1-1000-111.1S0,1999.93,0,1999.93Z"/><path class="cls-5" d="M335.82,1888.77C387.93,1801.83,167.94,1655.11,0,1701.83,10.28,1880.72,251.88,2029,335.82,1888.77Z"/><path class="cls-6" d="M314.49,1935.88c-153.66,33.89-240.88-272-152.27-491.48C326.93,1470.67,510.43,1892.6,314.49,1935.88Z"/><path class="cls-7" d="M335.88,1930.38c108.55,14,224.88-174.49,179.94-349C380.82,1581.39,176.49,1909.77,335.88,1930.38Z"/><path class="cls-1" d="M1581.92,942.55c0,241.06-260.55,388-581.95,388s-582-146.91-582-388,260.56-485,582-485S1581.92,701.49,1581.92,942.55Z"/><path class="cls-2" d="M1444.68,641.1a193.53,193.53,0,0,0,72.58-151.18c0-107.11-86.87-194-194-194-92.5,0-169.74,64.79-189.17,151.47a379.47,379.47,0,0,0-268.28,0c-19.43-86.68-96.67-151.47-189.17-151.47-107.11,0-194,86.88-194,194A193.56,193.56,0,0,0,555.25,641.1C469.74,727.75,418,835.38,418,942.55c0,241.06,260.56,32.33,582,32.33s582,208.73,582-32.33C1581.92,835.38,1530.2,727.75,1444.68,641.1Z"/><circle class="cls-8" cx="660.49" cy="473.75" r="113.16"/><circle class="cls-9" cx="660.49" cy="473.75" r="48.5"/><circle class="cls-8" cx="1339.44" cy="473.75" r="113.16"/><circle class="cls-9" cx="1339.44" cy="473.75" r="48.5"/><circle class="cls-9" cx="870.64" cy="877.89" r="32.33"/><circle class="cls-9" cx="1129.29" cy="877.89" r="32.33"/><rect class="cls-10" width="1999.93" height="1999.93"/></g></g></svg>