<?xml version="1.0" encoding="UTF-8" standalone="no"?>
<svg
   viewBox="0 0 495.00001 495"
   version="1.1"
   id="svg52"
   sodipodi:docname="frogwhip.svg"
   width="495"
   height="495"
   inkscape:version="1.1.1 (3bf5ae0d25, 2021-09-20, custom)"
   xmlns:inkscape="http://www.inkscape.org/namespaces/inkscape"
   xmlns:sodipodi="http://sodipodi.sourceforge.net/DTD/sodipodi-0.dtd"
   xmlns="http://www.w3.org/2000/svg"
   xmlns:svg="http://www.w3.org/2000/svg">
  <sodipodi:namedview
     id="namedview54"
     pagecolor="#505050"
     bordercolor="#ffffff"
     borderopacity="1"
     inkscape:pageshadow="0"
     inkscape:pageopacity="0"
     inkscape:pagecheckerboard="1"
     showgrid="false"
     height="502px"
     inkscape:zoom="1.4356762"
     inkscape:cx="260.85268"
     inkscape:cy="341.65085"
     inkscape:window-width="1920"
     inkscape:window-height="1026"
     inkscape:window-x="0"
     inkscape:window-y="54"
     inkscape:window-maximized="1"
     inkscape:current-layer="svg52" />
  <defs
     id="defs10">
    <style
       id="style2">.cls-1{fill:none;}.cls-2{clip-path:url(#clip-path);}.cls-3{fill:#c6e5b3;}.cls-4{fill:#77b255;}.cls-5{fill:#fff;}.cls-6{fill:#292f33;}.cls-7{fill:#5c913b;}.cls-8{fill:#3b642e;stroke:#3b642e;stroke-width:14px;}.cls-10,.cls-8{stroke-miterlimit:10;}.cls-9{clip-path:url(#clip-path-2);}.cls-10{fill:#3e3a39;stroke:#3e3a39;stroke-width:7px;}.cls-11{fill:#ba713a;}.cls-12{fill:#9c9c9c;}.cls-13{fill:#231815;}</style>
    <clipPath
       clipPathUnits="userSpaceOnUse"
       id="clipPath1241">
      <path
         class="cls-1"
         d="m 111.69061,208.23452 32.83,187.05 164.43,5.52 33.19,-115 c 39.86,18.95 63.8,1.19 76,-39.64 l -106.1,-171.510001 h -138.52 z"
         id="path1243"
         style="fill:#e6e6e6" />
    </clipPath>
    <mask
       maskUnits="userSpaceOnUse"
       id="mask963">
      <path
         class="cls-1"
         d="m 108.83281,210.04046 32.83,187.05 164.43,5.52 33.19,-115 c 39.86,18.95 63.8,1.19 76,-39.64 l -106.1,-171.510001 h -138.52 z"
         id="path965"
         style="fill:#ffffff;fill-opacity:1" />
    </mask>
  </defs>
  <g
     id="g994"
     transform="matrix(10.999968,0,0,10.999931,-4089.1197,-1346.1641)"
     style="stroke-width:0.0909096">
    <path
       id="path22"
       style="fill:#c6e5b3;fill-opacity:1;fill-rule:nonzero;stroke:none;stroke-width:0.113637"
       d="m 416.73937,149.87959 c 0,9.32 -10.07375,15 -22.5,15 -12.42625,0 -22.5,-5.68 -22.5,-15 h 45"
       sodipodi:nodetypes="cscc" />
    <path
       id="path26"
       style="fill:#77b255;fill-opacity:1;fill-rule:nonzero;stroke:none;stroke-width:0.113637"
       d="m 411.43299,138.22434 c 1.71001,-1.375 2.80625,-3.48125 2.80625,-5.845 0,-4.14125 -3.35749,-7.5 -7.5,-7.5 -3.57624,0 -6.5625,2.50625 -7.3125,5.85625 -1.61125,-0.60375 -3.35499,-0.9475 -5.1875,-0.9475 -1.83124,0 -3.57624,0.34375 -5.18625,0.9475 -0.75125,-3.35 -3.7375,-5.85625 -7.31375,-5.85625 -4.14124,0 -7.5,3.35875 -7.5,7.5 0,2.36375 1.0975,4.47 2.80626,5.845 -3.30626,3.35 -5.30626,7.51125 -5.30626,11.655 0,9.32 10.07375,1.25 22.5,1.25 12.4275,0 22.5,8.07 22.5,-1.25 0,-4.14375 -1.99875,-8.305 -5.30625,-11.655" />
    <path
       id="path30-3"
       style="fill:#ffffff;fill-opacity:1;fill-rule:nonzero;stroke:none;stroke-width:0.113637"
       d="m 385.48937,131.75459 c 0,2.41625 -1.95875,4.375 -4.375,4.375 -2.41625,0 -4.375,-1.95875 -4.375,-4.375 0,-2.41625 1.95875,-4.375 4.375,-4.375 2.41625,0 4.375,1.95875 4.375,4.375" />
    <path
       id="path34-6"
       style="fill:#292f33;fill-opacity:1;fill-rule:nonzero;stroke:none;stroke-width:0.113637"
       d="m 382.98937,131.75459 c 0,1.03625 -0.83875,1.875 -1.875,1.875 -1.03625,0 -1.875,-0.83875 -1.875,-1.875 0,-1.03625 0.83875,-1.875 1.875,-1.875 1.03625,0 1.875,0.83875 1.875,1.875" />
    <path
       id="path38"
       style="fill:#ffffff;fill-opacity:1;fill-rule:nonzero;stroke:none;stroke-width:0.113637"
       d="m 411.73937,131.75459 c 0,2.41625 -1.9575,4.375 -4.375,4.375 -2.4175,0 -4.375,-1.95875 -4.375,-4.375 0,-2.41625 1.9575,-4.375 4.375,-4.375 2.4175,0 4.375,1.95875 4.375,4.375" />
    <path
       id="path42"
       style="fill:#292f33;fill-opacity:1;fill-rule:nonzero;stroke:none;stroke-width:0.113637"
       d="m 409.23937,131.75459 c 0,1.03625 -0.84,1.875 -1.875,1.875 -1.035,0 -1.875,-0.83875 -1.875,-1.875 0,-1.03625 0.84,-1.875 1.875,-1.875 1.035,0 1.875,0.83875 1.875,1.875" />
    <path
       id="path46"
       style="fill:#5c913b;fill-opacity:1;fill-rule:nonzero;stroke:none;stroke-width:0.113637"
       d="m 390.48937,147.37959 c 0,0.69125 -0.56,1.25 -1.25,1.25 -0.69,0 -1.25,-0.55875 -1.25,-1.25 0,-0.69125 0.56,-1.25 1.25,-1.25 0.69,0 1.25,0.55875 1.25,1.25" />
    <path
       id="path50"
       style="fill:#5c913b;fill-opacity:1;fill-rule:nonzero;stroke:none;stroke-width:0.113637"
       d="m 400.48937,147.37959 c 0,0.69125 -0.55875,1.25 -1.25,1.25 -0.69125,0 -1.25,-0.55875 -1.25,-1.25 0,-0.69125 0.55875,-1.25 1.25,-1.25 0.69125,0 1.25,0.55875 1.25,1.25" />
  </g>
  <g
     id="g858"
     transform="matrix(0.99999884,0,0,1.0000007,-7.0184395,11.83897)">
    <g
       id="g984">
      <path
         class="cls-8"
         d="m 357.54,332.62 a 13.58,13.58 0 0 0 -6.24,9.22 l -4.92,28.85 a 13.73,13.73 0 0 0 1.95,10.2 l 19.8,27.54 c 4.3,6 14.73,8.67 20.72,4.38 l 0.2,-0.14 c 2.42,-1.73 3.43,-5.08 4.28,-7.77 l 27.54,34.61 c 0.65,0.82 2.21,2.92 4.08,5.46 a 20.75,20.75 0 0 0 26.27,6.08 l 47,-23.56 a 18.18,18.18 0 0 0 4.22,-23 L 453.05,306 a 18.29,18.29 0 0 0 -23.61,-7.53 l -8.77,4.23 a 13.38,13.38 0 0 0 -8.07,1.9 z"
         transform="translate(-9.78,-36.42)"
         id="path28" />
      <path
         class="cls-4"
         d="m 357.54,332.62 a 13.58,13.58 0 0 0 -6.24,9.22 l -4.92,28.85 a 13.73,13.73 0 0 0 1.95,10.2 l 19.8,27.54 c 4.3,6 14.73,8.67 20.72,4.38 l 0.2,-0.14 c 2.42,-1.73 3.43,-5.08 4.28,-7.77 l 27.54,34.61 c 0.65,0.82 2.21,2.92 4.08,5.46 a 20.75,20.75 0 0 0 26.27,6.08 l 47,-23.56 a 18.18,18.18 0 0 0 4.22,-23 L 453.05,306 a 18.29,18.29 0 0 0 -23.61,-7.53 l -8.77,4.23 a 13.38,13.38 0 0 0 -8.07,1.9 z"
         transform="translate(-9.78,-36.42)"
         id="path30" />
      <path
         class="cls-7"
         d="m 421.1,439 a 4.64,4.64 0 0 1 2.22,-6.19 l 48.57,-22.93 a 4.6563961,4.6563961 0 1 1 4,8.41 l -48.57,22.93 a 4.66,4.66 0 0 1 -5.78,-1.49 3.51,3.51 0 0 1 -0.44,-0.73 z m -16.58,-22.95 a 4.64,4.64 0 0 1 1.57,-6.39 l 53.58,-32.41 a 4.6750829,4.6750829 0 1 1 4.84,8 l -53.59,32.41 a 4.67,4.67 0 0 1 -6.2,-1.26 3.28,3.28 0 0 1 -0.2,-0.34 z m -24.27,-27.53 a 5,5 0 0 1 2,-3.13 4.29,4.29 0 0 1 1.3,-0.65 c 7.41,-4.24 54.28,-33.19 60.09,-37.35 a 4.6830466,4.6830466 0 1 1 5.46,7.61 c -3.53,2.52 -19.62,12.59 -33.49,21.16 -14.9,9.21 -22.85,14.12 -27.38,16.36 a 5.39,5.39 0 0 1 -0.56,0.5 l -0.13,-0.16 c -4.55,2.14 -5.23,1.2 -6.62,-0.72 a 4.87,4.87 0 0 1 -0.67,-3.61 z"
         transform="translate(-9.78,-36.42)"
         id="path32" />
      <path
         class="cls-7"
         d="m 372.57,351 48.68,-34.8 a 4.66,4.66 0 1 1 5.44,7.56 L 378,358.6 a 12.3,12.3 0 0 0 -2.84,17.17 l 18.11,25.17 a 4.67,4.67 0 0 1 -7.59,5.43 l -18.1,-25.18 A 21.58,21.58 0 0 1 372.57,351 Z"
         transform="translate(-9.78,-36.42)"
         id="path34" />
    </g>
    <g
       class="cls-9"
       clip-path="url(#clip-path-2)"
       id="g46"
       mask="url(#mask963)">
      <g
         id="g1168">
        <path
           class="cls-10"
           d="m 424.6,400.89 -5,2.74 6.11,11.08 32.55,-17.91 -6.11,-11.09 -3.53,1.94 -46.73,-83.36 4.11,-2.29 -6.07,-11 -10.67,5.87 c 0,0 -32.89,-58.87 -48.93,-83.98 -16.04,-25.11 -42.43,-83.81 -89.88,-85.43 -28.15,-1 -45.62,21.16 -46.06,34.19 -1.15,33.64 24.07,49.19 40.51,67.16 23.91,26.14 75,52.16 72.9,97.37 -2,44.43 -20.58,82.7 -68.55,81.06 -47.97,-1.64 -61.81,-47.24 -61.36,-60.44 1.05,-30.89 22.62,-54.82 51,-53.85 28.38,0.97 43.67,22.63 43.11,38.87 -0.66,19.35 -11.25,35.24 -28.59,34.65 -17.34,-0.59 -36,-16.31 -18.18,-29.5 L 228,324.05 c 0,0 -7.4,8.8 -7.47,19.75 -0.07,10.95 6.84,28.82 30.89,29.65 24.05,0.83 36.14,-20.79 36.86,-42 0.72,-21.21 -18.26,-44 -49.35,-45.05 -31.09,-1.05 -55.93,26.36 -58.28,60.15 -2.35,33.79 35.85,65.94 68.48,67.05 32.63,1.11 74.44,-24.38 76.55,-86.08 1.73,-53.71 -47.12,-74.7 -76.6,-106.26 -29.48,-31.56 -37.46,-41.88 -36.89,-58.69 0.57,-16.81 26.12,-26.39 37.43,-26 35.82,2.14 68.26,56.87 82.52,82.69 14.26,25.82 46.19,83.58 46.19,83.58 l -10.95,6 6.09,11.16 4.4,-2.42 z"
           transform="translate(-9.78,-36.42)"
           id="path36" />
        <polygon
           class="cls-11"
           points="438.94,351.3 392.16,267.87 368.05,281.04 414.82,364.46 "
           id="polygon38" />
        <rect
           class="cls-12"
           x="368.12"
           y="299.12"
           width="37.16"
           height="12.66"
           transform="rotate(151.17,386.48824,285.98822)"
           id="rect40" />
        <rect
           class="cls-12"
           x="420.39999"
           y="393.88"
           width="37.16"
           height="12.66"
           transform="rotate(151.17,438.769,380.7565)"
           id="rect42" />
        <path
           class="cls-13"
           d="m 389.26,296.82 c 0,0 -32.89,-58.82 -48.93,-83.93 -16.04,-25.11 -42.43,-83.8 -89.88,-85.43 -28.16,-1 -45.62,21.16 -46.06,34.19 -1.15,33.63 24.07,49.19 40.51,67.16 23.91,26.14 75,52.16 72.89,97.37 -2,44.44 -20.57,82.7 -68.54,81.06 -47.97,-1.64 -61.82,-47.24 -61.37,-60.44 1.06,-30.89 22.63,-54.82 51,-53.85 28.37,0.97 43.67,22.63 43.11,38.86 -0.66,19.36 -11.25,35.25 -28.59,34.65 -17.34,-0.6 -36,-16.3 -18.18,-29.49 L 228,324 c 0,0 -7.4,8.81 -7.48,19.77 -0.08,10.96 6.85,28.81 30.9,29.63 24.05,0.82 36.14,-20.79 36.86,-42 0.72,-21.21 -18.26,-44 -49.35,-45.05 -31.09,-1.05 -55.93,26.42 -58.28,60.21 -2.35,33.79 35.86,65.92 68.48,67 32.62,1.08 74.44,-24.38 76.55,-86.07 1.73,-53.71 -47.12,-74.71 -76.6,-106.28 -29.48,-31.57 -37.47,-41.86 -36.89,-58.68 0.58,-16.82 26.12,-26.38 37.43,-26 35.82,2.14 68.26,56.87 82.53,82.69 l 46.17,83.57"
           transform="translate(-9.78,-36.42)"
           id="path44" />
      </g>
    </g>
  </g>
</svg>
