<svg xmlns="http://www.w3.org/2000/svg" viewBox="0 0 36 36"><defs><style>.cls-1{fill:#77b255;}.cls-2{fill:#c6e5b3;}.cls-3{fill:#5c913b;}.cls-4{fill:#3d6028;}.cls-5{fill:#99aab5;}.cls-6{fill:#292f33;}.cls-7{fill:#fff;}.cls-8{fill:none;}</style></defs><g id="Ebene_2" data-name="Ebene 2"><g id="Ebene_1-2" data-name="Ebene 1"><path class="cls-1" d="M3,9,7.79,32.18S10,35,18,35s10.21-2.82,10.21-2.82L33,9Z"/><path class="cls-2" d="M27.88,32.51C27,33.25,24.31,35,18,35s-9-1.75-9.88-2.49c0,0,3.21-1.89,9.79-1.89S27.88,32.51,27.88,32.51Z"/><path class="cls-3" d="M2,5H34V9H2Z"/><ellipse class="cls-3" cx="18" cy="9.04" rx="16" ry="3.96"/><ellipse class="cls-1" cx="18" cy="5" rx="16" ry="4"/><ellipse class="cls-4" cx="18" cy="4.62" rx="15" ry="3.38"/><path class="cls-5" d="M18,26.41A17.55,17.55,0,0,1,.6,8.75a1,1,0,0,1,2,0A15.55,15.55,0,0,0,18,24.41,15.55,15.55,0,0,0,33.4,8.75a1,1,0,0,1,2,0A17.55,17.55,0,0,1,18,26.41Z"/><path class="cls-6" d="M25.41,23.83C25.41,25.58,22.09,27,18,27s-7.41-1.42-7.41-3.17,2.12,0,7.41,0S25.41,22.07,25.41,23.83Z"/><circle class="cls-3" cx="21.22" cy="28.14" r="0.85"/><circle class="cls-3" cx="14.86" cy="28.14" r="0.85"/><circle class="cls-7" cx="26.39" cy="18.16" r="2.96"/><circle class="cls-6" cx="26.39" cy="18.16" r="1.27"/><circle class="cls-7" cx="9.59" cy="18.16" r="2.96"/><circle class="cls-6" cx="9.59" cy="18.16" r="1.27"/><rect class="cls-8" width="36" height="36"/></g></g></svg>