<svg xmlns="http://www.w3.org/2000/svg" viewBox="0 0 665.32 665.32"><defs><style>.cls-1{fill:#5c913b;}.cls-2{fill:#c6e5b3;}.cls-3{fill:#77b255;}.cls-4{fill:#fff;}.cls-5{fill:#292f33;}.cls-6{fill:none;}</style></defs><g id="Ebene_2" data-name="Ebene 2"><g id="Ebene_1-2" data-name="Ebene 1"><path class="cls-1" d="M665.32,233.81c0-84.22-81.76-152.75-184.34-156.66v-.39H184.34v.39C81.75,81.06,0,149.59,0,233.81c0,34.38,13.77,66.07,36.87,91.93V557.15a73.9,73.9,0,0,0,73.9,73.9H554.55a73.9,73.9,0,0,0,73.9-73.9V325.74C651.55,299.88,665.32,268.19,665.32,233.81Z"/><path class="cls-2" d="M351.3,325.93H628.45v28H351.3Z"/><path class="cls-2" d="M351.31,520.86v17.47a55.43,55.43,0,0,1-55.43,55.43H129.59a55.43,55.43,0,0,1-55.43-55.43V522.12c18.67,18.57,73.39-15.32,138-15.32C278.15,506.8,333.83,542.15,351.31,520.86Z"/><path class="cls-3" d="M388.26,233.5c0,29.43-14,56.31-36.95,77.21V520.86c-17.48,21.29-73.16-14.06-139.15-14.06-64.61,0-119.33,33.89-138,15.32V310.8c-23-20.89-36.95-47.83-36.95-77.3,0-66.32,70.32-158.54,157-158.54,3.1,0,43.14.07,46.19.2C322.89,78.82,388.26,169.56,388.26,233.5Z"/><circle class="cls-3" cx="114.15" cy="95.63" r="61.36"/><circle class="cls-4" cx="109.22" cy="90.36" r="35.69"/><circle class="cls-5" cx="109.22" cy="90.36" r="15.3"/><circle class="cls-3" cx="309.95" cy="95.53" r="61.36"/><circle class="cls-4" cx="314.88" cy="90.26" r="35.69"/><circle class="cls-5" cx="314.88" cy="90.26" r="15.3"/><rect class="cls-6" width="665.32" height="665.32"/></g></g></svg>