<svg xmlns="http://www.w3.org/2000/svg" xmlns:xlink="http://www.w3.org/1999/xlink" viewBox="0 0 45 42.46"><defs><style>.cls-1,.cls-8{fill:none;}.cls-2{clip-path:url(#clip-path);}.cls-3{fill:#c6e5b3;}.cls-4{fill:#77b255;}.cls-5{fill:#fff;}.cls-6{fill:#292f33;}.cls-7{fill:#5c913b;}.cls-8{stroke:#3f6328;stroke-miterlimit:10;}.cls-9{fill:#5dadec;}</style><clipPath id="clip-path" transform="translate(0 -2.51)"><rect class="cls-1" width="45" height="45"/></clipPath></defs><g id="Ebene_2" data-name="Ebene 2"><g id="Ebene_1-2" data-name="Ebene 1"><g id="Ebene_2-2" data-name="Ebene 2"><g id="svg2"><g class="cls-2"><g id="g10"><g id="g12"><g class="cls-2"><g id="g14"><g id="g20"><path id="path22" class="cls-3" d="M45,27.5c0,9.32-10.07,15-22.5,15S0,36.82,0,27.5,10.07,8.75,22.5,8.75,45,18.18,45,27.5" transform="translate(0 -2.51)"/></g><g id="g24"><path id="path26" class="cls-4" d="M39.69,15.84a7.49,7.49,0,1,0-12-7.48,14.62,14.62,0,0,0-10.38,0,7.49,7.49,0,1,0-12,7.48A17,17,0,0,0,0,27.5c0,9.32,10.07,1.25,22.5,1.25S45,36.82,45,27.5a17,17,0,0,0-5.31-11.66" transform="translate(0 -2.51)"/></g><g id="g28"><path id="path30" class="cls-5" d="M13.75,9.38A4.38,4.38,0,1,1,9.37,5h0a4.37,4.37,0,0,1,4.37,4.37h0" transform="translate(0 -2.51)"/></g><g id="g32"><path id="path34" class="cls-6" d="M11.25,9.38A1.88,1.88,0,1,1,9.37,7.5h0a1.87,1.87,0,0,1,1.87,1.87h0" transform="translate(0 -2.51)"/></g><g id="g36"><path id="path38" class="cls-5" d="M40,9.38A4.38,4.38,0,1,1,35.62,5,4.38,4.38,0,0,1,40,9.38h0" transform="translate(0 -2.51)"/></g><g id="g40"><path id="path42" class="cls-6" d="M37.5,9.38A1.88,1.88,0,1,1,35.62,7.5,1.88,1.88,0,0,1,37.5,9.38h0" transform="translate(0 -2.51)"/></g><g id="g44"><path id="path46" class="cls-7" d="M18.75,25a1.25,1.25,0,1,1-1.25-1.25A1.25,1.25,0,0,1,18.75,25" transform="translate(0 -2.51)"/></g><g id="g48"><path id="path50" class="cls-7" d="M28.75,25a1.25,1.25,0,1,1-1.25-1.25A1.25,1.25,0,0,1,28.75,25" transform="translate(0 -2.51)"/></g></g></g></g></g><path class="cls-8" d="M41.09,24.56a2.09,2.09,0,0,0-2.4.12l.73-1.05A1.57,1.57,0,0,0,39,21.31c-.83-.58-3.19,1-3.19,1a1.74,1.74,0,0,0-.36-2.5,1.87,1.87,0,0,0-2.59.46l-7.8,11,1,9.64,8.3-3,7.24-10.73A1.87,1.87,0,0,0,41.09,24.56Z" transform="translate(0 -2.51)"/><path class="cls-8" d="M42.71,30.69A1.5,1.5,0,0,0,40.24,29l-3.93,5.74a7.13,7.13,0,0,0-.45-.67l5.46-8a1.5,1.5,0,1,0-2.47-1.69l-5.13,7.48-.59-.46,5.95-8.68a1.5,1.5,0,0,0-2.47-1.69l-5.95,8.67L30,29.36l5.56-8.11a1.5,1.5,0,0,0-2.47-1.69l-5.88,8.57-.89,1.31a7.5,7.5,0,0,1,1.94,10.4.73.73,0,0,1-1,.2,7.09,7.09,0,0,0-1.94-10.41l1.09-5.47a1.5,1.5,0,1,0-2.88-.81l-1.26,3.74a33.7,33.7,0,0,1-1.74,4.37,9,9,0,0,0,15.44,9.11Z" transform="translate(0 -2.51)"/><path class="cls-7" d="M41.09,24.56a2.09,2.09,0,0,0-2.4.12l.73-1.05A1.57,1.57,0,0,0,39,21.31c-.83-.58-3.19,1-3.19,1a1.74,1.74,0,0,0-.36-2.5,1.87,1.87,0,0,0-2.59.46l-7.8,11,1,9.64,8.3-3,7.24-10.73A1.87,1.87,0,0,0,41.09,24.56Z" transform="translate(0 -2.51)"/><path class="cls-4" d="M42.71,30.69A1.5,1.5,0,0,0,40.24,29l-3.93,5.74a7.13,7.13,0,0,0-.45-.67l5.46-8a1.5,1.5,0,1,0-2.47-1.69l-5.13,7.48-.59-.46,5.95-8.68a1.5,1.5,0,0,0-2.47-1.69l-5.95,8.67L30,29.36l5.56-8.11a1.5,1.5,0,0,0-2.47-1.69l-5.88,8.57-.89,1.31a7.5,7.5,0,0,1,1.94,10.4.73.73,0,0,1-1,.2,7.09,7.09,0,0,0-1.94-10.41l1.09-5.47a1.5,1.5,0,1,0-2.88-.81l-1.26,3.74a33.7,33.7,0,0,1-1.74,4.37,9,9,0,0,0,15.44,9.11Z" transform="translate(0 -2.51)"/><path class="cls-9" d="M35.74,41.7a6.5,6.5,0,0,0,6-6,.72.72,0,0,1,.72-.75.77.77,0,0,1,.78.75,7.11,7.11,0,0,1-7.52,7.51.77.77,0,0,1-.74-.78A.71.71,0,0,1,35.74,41.7Z" transform="translate(0 -2.51)"/><path class="cls-9" d="M39.49,43.16a3.54,3.54,0,0,0,3.74-3.74.75.75,0,0,1,1.5,0,5.12,5.12,0,0,1-5.24,5.24.75.75,0,0,1,0-1.5ZM26.76,19.21a.75.75,0,0,1,0,1.5,6.2,6.2,0,0,0-6,6,.75.75,0,1,1-1.49,0A7.27,7.27,0,0,1,26.76,19.21Z" transform="translate(0 -2.51)"/><path class="cls-9" d="M23,17.74a.73.73,0,0,1,.75.72.78.78,0,0,1-.75.78A3.59,3.59,0,0,0,19.31,23a.78.78,0,0,1-.78.75.73.73,0,0,1-.72-.75A5.14,5.14,0,0,1,23,17.74Z" transform="translate(0 -2.51)"/></g></g></g></g></g></svg>