<svg xmlns="http://www.w3.org/2000/svg" viewBox="0 0 36 36"><defs><style>.cls-1{fill:#77b255;}.cls-2{fill:#ccd6dd;}.cls-3{fill:#5c913b;}.cls-4{fill:#99aab5;}.cls-5{fill:#fff;}.cls-6{fill:#292f33;}.cls-7{fill:none;}</style></defs><g id="Ebene_2" data-name="Ebene 2"><g id="Ebene_1-2" data-name="Ebene 1"><path class="cls-1" d="M29,11.06c0,6.44-5,7.44-5,13.44,0,3.1-3.12,3.36-5.5,3.36-2.05,0-6.59-.78-6.59-3.36,0-6-4.91-7-4.91-13.44A11.21,11.21,0,0,1,18.08.14,11.07,11.07,0,0,1,29,11.06Z"/><path class="cls-2" d="M22.17,32.5c0,.83-2.24,2.5-4.17,2.5s-4.17-1.67-4.17-2.5S16.07,32,18,32,22.17,31.67,22.17,32.5Z"/><path class="cls-3" d="M22.71,10.29a1,1,0,0,0-1.42,0L18,13.59l-3.29-3.3a1,1,0,0,0-1.42,1.42L17,15.41V26a1,1,0,0,0,2,0V15.41l3.71-3.7A1,1,0,0,0,22.71,10.29Z"/><path class="cls-4" d="M24,31a2,2,0,0,1-2,2H14a2,2,0,0,1-2-2V25H24Z"/><path class="cls-2" d="M12,32a1,1,0,0,1-.16-2l12-2a1,1,0,0,1,.32,2l-12,2Zm0-4a1,1,0,0,1-.16-2l12-2a1,1,0,0,1,.32,2l-12,2Z"/><circle class="cls-1" cx="7.86" cy="5.03" r="4.44"/><circle class="cls-5" cx="7.49" cy="4.66" r="2.59"/><circle class="cls-6" cx="7.49" cy="4.66" r="1.11"/><circle class="cls-1" cx="28.15" cy="5.03" r="4.44"/><circle class="cls-5" cx="28.52" cy="4.66" r="2.59"/><circle class="cls-6" cx="28.52" cy="4.66" r="1.11"/><rect class="cls-7" width="36" height="36"/></g></g></svg>