<?xml version="1.0" encoding="utf-8"?>
<!-- Generator: Adobe Illustrator 25.0.0, SVG Export Plug-In . SVG Version: 6.00 Build 0)  -->
<svg version="1.1"
	 id="svg2" inkscape:version="0.92.3 (2405546, 2018-03-11)" sodipodi:docname="frog_kaiser_gold3.svg" xmlns:cc="http://creativecommons.org/ns#" xmlns:dc="http://purl.org/dc/elements/1.1/" xmlns:inkscape="http://www.inkscape.org/namespaces/inkscape" xmlns:rdf="http://www.w3.org/1999/02/22-rdf-syntax-ns#" xmlns:sodipodi="http://sodipodi.sourceforge.net/DTD/sodipodi-0.dtd" xmlns:svg="http://www.w3.org/2000/svg"
	 xmlns="http://www.w3.org/2000/svg" xmlns:xlink="http://www.w3.org/1999/xlink" x="0px" y="0px" viewBox="0 0 60 60"
	 style="enable-background:new 0 0 60 60;" xml:space="preserve">
<style type="text/css">
	.st0{fill:#C6E5B3;}
	.st1{fill:#77B255;}
	.st2{fill:#FFFFFF;}
	.st3{fill:#292F33;}
	.st4{fill:#5C913B;}
	.st5{fill:#C0C0C0;}
	.st6{fill:#CFB534;}
</style>
<g id="g14">
	<g id="g20" transform="translate(36,14)">
		<path id="path22" inkscape:connector-curvature="0" class="st0" d="M16.5,30.9c0,9.3-10.1,15-22.5,15s-22.5-5.7-22.5-15
			S-18.4,12.2-6,12.2S16.5,21.6,16.5,30.9"/>
	</g>
	<g id="g24" transform="translate(31.7549,23.3242)">
		<path id="path26" inkscape:connector-curvature="0" class="st1" d="M15.4,10c1.7-1.4,2.8-3.5,2.8-5.8c0-4.1-3.4-7.5-7.5-7.5
			c-3.6,0-6.6,2.5-7.3,5.9C1.8,1.9,0.1,1.5-1.8,1.5c-1.8,0-3.6,0.3-5.2,0.9c-0.8-3.3-3.7-5.9-7.3-5.9c-4.1,0-7.5,3.4-7.5,7.5
			c0,2.4,1.1,4.5,2.8,5.8c-3.3,3.4-5.3,7.5-5.3,11.7c0,9.3,10.1,1.2,22.5,1.2c12.4,0,22.5,8.1,22.5-1.2C20.7,17.5,18.7,13.3,15.4,10
			"/>
	</g>
	<g id="g28" transform="translate(11,28.5)">
		<path id="path30" inkscape:connector-curvature="0" class="st2" d="M10.3-1.7c0,2.4-2,4.4-4.4,4.4s-4.4-2-4.4-4.4s2-4.4,4.4-4.4
			S10.3-4.1,10.3-1.7"/>
	</g>
	<g id="g32" transform="translate(9,28.5)">
		<path id="path34" inkscape:connector-curvature="0" class="st3" d="M9.8-1.7c0,1-0.8,1.9-1.9,1.9S6-0.7,6-1.7s0.8-1.9,1.9-1.9
			S9.8-2.7,9.8-1.7"/>
	</g>
	<g id="g36" transform="translate(32,28.5)">
		<path id="path38" inkscape:connector-curvature="0" class="st2" d="M15.5-1.7c0,2.4-2,4.4-4.4,4.4s-4.4-2-4.4-4.4s2-4.4,4.4-4.4
			S15.5-4.1,15.5-1.7"/>
	</g>
	<g id="g40" transform="translate(30,28.5)">
		<path id="path42" inkscape:connector-curvature="0" class="st3" d="M15-1.7c0,1-0.8,1.9-1.9,1.9s-1.9-0.8-1.9-1.9s0.8-1.9,1.9-1.9
			S15-2.7,15-1.7"/>
	</g>
	<g id="g44" transform="translate(15,16)">
		<path id="path46" inkscape:connector-curvature="0" class="st4" d="M11.3,26.4c0,0.7-0.6,1.2-1.2,1.2c-0.7,0-1.2-0.6-1.2-1.2
			s0.6-1.2,1.2-1.2C10.7,25.2,11.3,25.7,11.3,26.4"/>
	</g>
	<g id="g48" transform="translate(23,16)">
		<path id="path50" inkscape:connector-curvature="0" class="st4" d="M13.3,26.4c0,0.7-0.6,1.2-1.2,1.2c-0.7,0-1.2-0.6-1.2-1.2
			s0.6-1.2,1.2-1.2C12.7,25.2,13.3,25.7,13.3,26.4"/>
	</g>
</g>
<g>
	
		<path id="path3825" sodipodi:cx="22.649616" sodipodi:cy="25.562862" sodipodi:end="0.00050696599" sodipodi:open="true" sodipodi:rx="20.464251" sodipodi:ry="12.184278" sodipodi:start="3.1228766" sodipodi:type="arc" class="st5" d="
		M9.5,25.8c-0.1-4.4,3.7-8.4,10.1-10.6s14.2-2.2,20.6,0s10.3,6.3,10.3,10.7L9.5,25.8z"/>
	<path id="path935" inkscape:connector-curvature="0" sodipodi:nodetypes="ccscc" class="st5" d="M29.7,16.4
		c1.7-4.6,4.1-5.7,4.1-5.7s-1.1,0.1-1.8-2.9C31.3,4.9,30,0.1,30,0.1L29.7,16.4z"/>
	<path id="path943" inkscape:connector-curvature="0" sodipodi:nodetypes="ccscc" class="st5" d="M30.3,16.4
		c-1.7-4.6-4.1-5.7-4.1-5.7s1.1,0.1,1.8-2.9C28.7,4.9,30,0.1,30,0.1L30.3,16.4z"/>
	<path id="rect170" class="st6" d="M13,20.3H47c0.9,0,1.7,0.3,1.7,0.7v0c0,0.4-0.7,0.7-1.7,0.7H13c-0.9,0-1.7-0.3-1.7-0.7v0
		C11.3,20.6,12,20.3,13,20.3z"/>
	<ellipse id="path983" class="st6" cx="30" cy="17.5" rx="3.7" ry="3.6"/>
	<path id="rect985" class="st6" d="M28.6,10.4h2.8c1.1,0,1.9,0.1,1.9,0.2v0.2c0,0.1-0.9,0.2-1.9,0.2h-2.8c-1.1,0-1.9-0.1-1.9-0.2
		v-0.2C26.7,10.5,27.5,10.4,28.6,10.4z"/>
	<path id="rect3737" class="st6" d="M30,2.6L30,2.6c0.4,0,0.7,0.1,0.7,0.2v0.1c0,0.1-0.3,0.2-0.7,0.2l0,0c-0.4,0-0.7-0.1-0.7-0.2
		V2.8C29.3,2.7,29.6,2.6,30,2.6z"/>
</g>
</svg>
