<svg xmlns="http://www.w3.org/2000/svg" viewBox="0 0 708.33 708.33"><defs><style>.cls-1{fill:#5c913b;}.cls-2{fill:#c6e5b3;}.cls-3{fill:#77b255;}.cls-4{fill:#fff;}.cls-5{fill:#292f33;}.cls-6{fill:none;}</style></defs><g id="Ebene_2" data-name="Ebene 2"><g id="Ebene_1-2" data-name="Ebene 1"><path class="cls-1" d="M380.6,181.74c-5.53-66.05,43.34-94.26,43.34-94.26-63.89,2.25-97.74,56.43-97.74,56.43-15-26,18.89-80.12,43.32-94.24C305.65,51.93,296.22,92,296.22,92c-30-51.95-20.57-92-20.57-92-22.38,12.92-35.29,42.2-42.76,70.14L186.6,16.82c-4.59,20.85,3.14,63.39,11.44,99-61-35.74-117.89-3-117.89-3C159,136.59,189,188.51,189,188.51S110.15,164.8,76.24,219c51.86-1.84,89.87,10,117,24.56-23.23,5.77-62.81-4.71-87,27.38,0,0,63.86-2.25,76.91,21.07-43.38,12.27-71.4,45-71.4,45,88.31-16.34,182.2,33.33,182.2,33.33l122.2-70.54c-20.55-92,52.77-134.35,52.77-134.35C414.5,127.56,380.6,181.74,380.6,181.74Z"/><path class="cls-1" d="M606.66,446.3C656.35,532.36,631,640,550,686.78s-186.91,14.9-236.58-71.14l-31.73-55C232,474.58,257.38,367,338.34,320.2s186.92-14.92,236.59,71.14Z"/><path class="cls-2" d="M502.78,397.32c-22.51,5.64-48.7,15.22-78.85,30.93q-6.06,3.17-12.33,6.65-8.21,4.58-15.76,9c-67.9,39.72-97.66,70.93-117.37,110.44,1.1,2.09,2,4.23,3.26,6.29l31.73,55a188.07,188.07,0,0,0,52.29,58.1L370.32,663l39,16.54-6.47,15.26A175.66,175.66,0,0,0,444,706.17l4.3-10.12,28,11.88a160,160,0,0,0,66.76-17.64l-.34-.14,16.54-39L583,661.25a164,164,0,0,0,26.64-34.67L575.83,612.2l16.53-39,33.3,14.12A178.35,178.35,0,0,0,632,544.08L608.9,534.3l16.54-39,1.23.58a189.45,189.45,0,0,0-20-49.61L603,439.85v0l-39-16.54L576.45,394l-1.5-2.62c-.14-.24-.27-.48-.42-.71a206.26,206.26,0,0,0-43.17,1.21Zm-33.26,31.89,39,16.53L492,484.69l-39-16.52ZM347.85,607.47l-39-16.51,16.53-39,39,16.54ZM342,513l8.3-19.53L358.52,474l8.56,3.63,30.4,12.89-16.56,39Zm83.8,127.53L386.82,624l16.53-39,38.95,16.56Zm-5.87-94.46,16.54-39,39,16.56-16.54,39Zm83.82,127.58-39-16.54,16.53-39,39,16.53Zm33.09-78-38.94-16.52,16.53-39,39,16.53Zm33.08-77.91-39-16.54,16.54-38.94,39,16.52Z"/><path class="cls-3" d="M395.84,443.89c-67.9,39.72-97.66,70.93-117.37,110.44-4.79-9.45-10.29-19.2-12.08-27.42a182.33,182.33,0,0,1-4.28-105,52.08,52.08,0,1,1,51.33-85.72c7.59-9.23,11.8-12.67,22.81-19s23.6-12,35.38-14c-7.14-22.76,1.21-46.57,22.72-59a52.06,52.06,0,0,1,75.24,62.22c42.11,13,80.33,42,104.94,84.29a206.26,206.26,0,0,0-43.17,1.21l-28.58,5.48c-22.51,5.64-48.7,15.22-78.85,30.93Z"/><circle class="cls-4" cx="269.25" cy="369.88" r="30.39"/><circle class="cls-5" cx="269.25" cy="369.88" r="13.02"/><circle class="cls-4" cx="422.01" cy="283.29" r="30.39"/><circle class="cls-1" cx="368.65" cy="433.75" r="8.68"/><circle class="cls-5" cx="422.01" cy="283.29" r="13.02"/><circle class="cls-1" cx="426.35" cy="401.33" r="8.68"/><rect class="cls-6" width="708.33" height="708.33"/></g></g></svg>