<svg xmlns="http://www.w3.org/2000/svg" viewBox="0 0 36 36"><defs><style>.cls-1{fill:#c6e5b3;}.cls-2{fill:#77b255;}.cls-3{fill:#fff;}.cls-4{fill:#292f33;}.cls-5{fill:#5c913b;}.cls-6{fill:#3b642e;}.cls-7{fill:none;}</style></defs><g id="Ebene_2" data-name="Ebene 2"><g id="Ebene_1-2" data-name="Ebene 1"><path class="cls-1" d="M36,22c0,7.46-8.06,12-18,12S0,29.46,0,22,8.06,7,18,7,36,14.54,36,22Z"/><path class="cls-2" d="M31.75,12.68a6,6,0,1,0-9.6-6,11.86,11.86,0,0,0-8.3,0,6,6,0,1,0-9.61,6A13.58,13.58,0,0,0,0,22c0,7.46,8.06,1,18,1s18,6.46,18-1A13.55,13.55,0,0,0,31.75,12.68Z"/><circle class="cls-3" cx="7.5" cy="7.5" r="3.5"/><circle class="cls-4" cx="7.5" cy="7.5" r="1.5"/><circle class="cls-3" cx="28.5" cy="7.5" r="3.5"/><circle class="cls-4" cx="28.5" cy="7.5" r="1.5"/><circle class="cls-5" cx="14" cy="20" r="1"/><circle class="cls-5" cx="22" cy="20" r="1"/><path class="cls-6" d="M28,13.33a1.51,1.51,0,0,1,1.51,1.5v8a1.58,1.58,0,0,1,1.19-.56,2,2,0,0,1,.59.11A1.66,1.66,0,0,1,32.46,24a1,1,0,0,1,.87-.48,1.43,1.43,0,0,1,.53.11,2,2,0,0,1,1.07,1.85v2.37c0,4-2.4,7.17-7.29,7.17a5.1,5.1,0,0,1-4.3-2.12,10.17,10.17,0,0,1-2.77-5.42,9.07,9.07,0,0,1,.6-2.63c.4-1.61.71-1.89,1.69-1.89h.62a.71.71,0,0,0,0-.23v-1A1.43,1.43,0,0,1,25,20.2a1.48,1.48,0,0,1,1.53,1.55V14.83a1.5,1.5,0,0,1,1.5-1.5m0-.7a2.2,2.2,0,0,0-2.2,2.2v4.81A2.45,2.45,0,0,0,25,19.5a2.12,2.12,0,0,0-2.17,2.25v.5c-1.47,0-1.92.8-2.32,2.42-.08.31-.17.57-.25.82a5.63,5.63,0,0,0-.37,2c0,1.34,1.18,4,2.94,5.88a5.8,5.8,0,0,0,4.83,2.36c4.85,0,8-3.09,8-7.87V25.47A2.56,2.56,0,0,0,34.11,23a2.24,2.24,0,0,0-.78-.15,1.63,1.63,0,0,0-.45.06,2.58,2.58,0,0,0-2.17-1.26,1.93,1.93,0,0,0-.49.06V14.83A2.21,2.21,0,0,0,28,12.63Z"/><path class="cls-2" d="M34.93,25.47a2,2,0,0,0-1.07-1.85,1,1,0,0,0-1.39.38,1.69,1.69,0,0,0-1.17-1.58,1.61,1.61,0,0,0-1.8.46,1.55,1.55,0,0,0-1.23-1.34,1.83,1.83,0,0,0-1.76.7v-.49A1.47,1.47,0,0,0,25,20.2a1.44,1.44,0,0,0-1.48,1.55v1c0,.8-.57.12-1,.49-.95.86-1.37,3.87-.72,6.32.79,3,2.45,5.48,5.84,5.48,4.89,0,7.29-3.19,7.29-7.18Z"/><path class="cls-2" d="M29.51,24.45a1.51,1.51,0,1,1-3,0V14.83a1.51,1.51,0,1,1,3,0ZM24.25,23H22.86c-1,0-1.29.28-1.69,1.88a8.82,8.82,0,0,0-.6,2.64c0,1.75,2.77,7.43,6.84,7.46Z"/><path class="cls-5" d="M22.89,28.68a.3.3,0,0,0,.28.29h0a.29.29,0,0,0,.28-.28V23h-.59Z"/><rect class="cls-7" width="36" height="36"/></g></g></svg>