<svg xmlns="http://www.w3.org/2000/svg" xmlns:xlink="http://www.w3.org/1999/xlink" viewBox="0 0 46.39 46.27"><defs><style>.cls-1{fill:none;}.cls-2{fill:#c7dfb3;}.cls-3{fill:#78b355;}.cls-4{fill:#fff;}.cls-5,.cls-8{fill:#292f33;}.cls-6{fill:#5d913b;}.cls-7{clip-path:url(#clip-path);}.cls-8{fill-rule:evenodd;}</style><clipPath id="clip-path" transform="translate(0.01)"><rect class="cls-1" y="3.13" width="46.27" height="32.81"/></clipPath></defs><g id="Ebene_2" data-name="Ebene 2"><g id="Ebene_1-2" data-name="Ebene 1"><g id="Ebene_2-2" data-name="Ebene 2"><g id="svg2"><path id="path22" class="cls-2" d="M45.41,28.13c0,9.32-10.07,15-22.5,15S.41,37.45.41,28.13,10.49,9.38,22.91,9.38s22.5,9.43,22.5,18.75" transform="translate(0.01)"/><path id="path26" class="cls-3" d="M40.11,16.48A7.5,7.5,0,1,0,28.1,9,14.59,14.59,0,0,0,17.73,9a7.5,7.5,0,1,0-12,7.49A17,17,0,0,0,.41,28.13c0,9.32,10.08,1.25,22.5,1.25s22.5,8.07,22.5-1.25a17,17,0,0,0-5.3-11.65" transform="translate(0.01)"/><path id="path30" class="cls-4" d="M14.16,10A4.38,4.38,0,1,1,9.77,5.63h0A4.37,4.37,0,0,1,14.16,10" transform="translate(0.01)"/><path id="path34" class="cls-5" d="M11.66,10A1.88,1.88,0,1,1,9.77,8.13h0A1.87,1.87,0,0,1,11.66,10" transform="translate(0.01)"/><path id="path38" class="cls-4" d="M40.41,10A4.38,4.38,0,1,1,36,5.63,4.38,4.38,0,0,1,40.41,10v0" transform="translate(0.01)"/><path id="path42" class="cls-5" d="M37.91,10A1.88,1.88,0,1,1,36,8.13,1.88,1.88,0,0,1,37.91,10v0" transform="translate(0.01)"/><path id="path46" class="cls-6" d="M19.16,25.63a1.25,1.25,0,1,1-1.25-1.25,1.25,1.25,0,0,1,1.25,1.25" transform="translate(0.01)"/><path id="path50" class="cls-6" d="M29.16,25.63a1.25,1.25,0,1,1-1.25-1.25,1.25,1.25,0,0,1,1.25,1.25" transform="translate(0.01)"/><g id="g10"><g id="g12"><g class="cls-7"><g id="g14"><g id="g20"><path id="path22-7" class="cls-8" d="M.24,7.29c.33.33,2,1.31,2.3,2.29s1,7.25,2.94,8.88,9.67,1.06,11.13.33c3.27-1.63,3.68-6.9,4.26-9.21.32-1.31,2.29-1.31,2.29-1.31s2,0,2.29,1.31c.58,2.31,1,7.59,4.25,9.22,1.47.73,9.11,1.36,11.13-.32s2.62-7.92,3-8.9,2-2,2.29-2.29a2,2,0,0,0,0-2c-.66-.65-8.38-1.23-16.7-.33a28.18,28.18,0,0,1-6.21.66A29.31,29.31,0,0,1,16.94,5C8.62,4.1.9,4.68.24,5.33a2.14,2.14,0,0,0,0,2" transform="translate(0.01)"/></g></g></g></g></g><rect class="cls-1" x="0.01" width="46.27" height="46.27"/></g></g></g></g></svg>