<svg xmlns="http://www.w3.org/2000/svg" viewBox="0 0 405.78 405.78"><defs><style>.cls-1{fill:#77b255;}.cls-2{fill:#fff;}.cls-3{fill:#292f33;}.cls-4{fill:none;}</style></defs><g id="Ebene_2" data-name="Ebene 2"><g id="Ebene_1-2" data-name="Ebene 1"><path class="cls-1" d="M234.72,214.39c-6.73.09,1.27,3.46,10.05,4.81,2.42-1.89,4.62-3.81,6.58-5.67a50.18,50.18,0,0,1-16.63.86"/><path class="cls-1" d="M209.22,5.23c3.59.65,7.75,1.14,7.17,2,3.92-.86,4.82-1.65-7.17-2"/><path class="cls-1" d="M216.39,7.23l-2.54.52,2.36-.21.18-.31"/><path class="cls-1" d="M328.28,175.32c.4,10.87-3.18,16.15-6.41,25.49l-5.81,2.9c-4.75,9.24.46,5.87-2.94,13.21-7.43,6.6-22.53,20.65-27.37,21.94-3.53-.08,2.39-4.17,3.17-5.77-9.94,6.83-8,10.25-23.17,14.39l-.45-1c-37.48,17.63-89.55-17.32-88.87-65-.4,3-1.14,2.27-2,3.49-1.93-24.53,11.33-49.17,33.71-59.24,21.88-10.83,47.53-6.38,63.2,8.22-8.61-11.27-25.74-23.23-46.05-22.11-19.9.32-38.51,13-44.72,26.68-10.19,6.42-11.37,24.74-15.82,28.09-6,43.92,11.24,62.89,40.37,85.21,4.58,3.09,1.29,3.56,1.91,5.91A78.94,78.94,0,0,1,181.24,238c3.86,5.66,8,11.16,13.43,15.48-9.13-3.09-21.31-22.11-24.87-22.88,15.72,28.15,63.8,49.38,89,38.85-11.65.43-26.45.24-39.54-4.6-5.5-2.83-13-8.69-11.64-9.79C242,267.91,277.45,264.8,307.18,241c7.56-5.88,15.82-15.9,18.21-16-3.6,5.4.61,2.6-2.15,7.37,7.54-12.15-3.27-4.94,7.79-21l4.09,5.63c-1.52-10.09,12.52-22.34,11.1-38.29,3.22-4.88,3.59,5.25.17,16.47,4.75-12.45,1.25-14.45,2.47-24.72,1.32,3.45,3.05,7.12,3.94,10.76-3.09-12,3.17-20.26,4.72-27.25-1.53-.68-4.77,5.32-5.51-8.9.11-6.17,1.71-3.23,2.34-4.75-1.22-.7-4.4-5.43-6.33-14.51,1.4-2.13,3.75,5.53,5.66,5.84-1.23-7.21-3.35-12.72-3.43-18.26-5.58-11.65-2,1.56-6.5-5-5.93-18.51,4.93-4.29,5.66-12.7,9,13,14.13,33.23,16.48,41.59a171.07,171.07,0,0,0-8.24-29.64c2.73,1.15-4.4-21,3.55-6.33-8.5-31.25-36.35-60.45-62-74.15,3.13,2.87,7.09,6.47,5.67,7-12.74-7.59-10.5-8.18-12.33-11.39-10.38-4.22-11.06.34-17.94,0C255.05,12.37,251.28,13.47,233.27,7l.82,3.83c-13-4.32-15.1,1.64-29.12,0-.85-.66,4.49-2.41,8.89-3.05-12.53,1.66-12-2.47-24.21.46,3-2.12,6.22-3.52,9.44-5.33-10.22.62-24.4,5.95-20,1.11-16.68,7.43-46.29,17.88-62.91,33.46L115.64,34C108,43.11,82.44,61.27,80.4,73.11l-2,.47c-4,6.71-6.52,14.31-9.67,21.22-5.18,8.83-7.59,3.39-6.85,4.78-10.2,20.66-15.26,38-19.63,52.27,3.11,4.66.07,28,1.25,46.76C38.34,291,108.33,380.79,184.84,401.51c11.21,4,27.89,3.86,42.07,4.27-16.73-4.78-18.89-2.53-35.2-8.22C180,392,177.37,385.7,169.05,378.47l3.29,5.83c-16.33-5.78-9.5-7.16-22.79-11.37l3.52-4.59c-5.29-.4-14-8.93-16.41-13.65l-5.79.23c-7-8.59-10.67-14.77-10.4-19.57l-1.87,3.34c-2.12-3.64-25.6-32.21-13.42-25.56-2.26-2.07-5.27-3.37-8.54-9.29L99.13,301c-5.87-7.54-10.8-17.21-10.42-20.43,3.13,4.22,5.3,5,7.44,5.73-14.8-36.73-15.63-2-26.85-37.39l2.38-.19c-1.82-2.74-2.93-5.72-4.39-8.63l1-10.29c-10.66-12.33-3-52.41-1.44-74.39C68,146.47,75.78,137,81.73,122l-3.63-.62c6.94-12.1,39.61-48.6,54.75-46.72,7.33-9.21-1.46,0-2.89-2.36,16.1-16.66,21.16-11.77,32-14.76,11.71-7-10.06,2.71-4.51-2.66,20.26-5.17,14.36-11.76,40.79-14.39,2.79,1.59-6.47,2.45-8.79,4.51,16.87-8.26,53.41-6.38,77.14,4.58,27.53,12.87,58.47,50.91,59.69,86.7l1.39.37c-.71,14.23,2.18,30.68-2.82,45.79l3.4-7.15"/><path class="cls-1" d="M161.33,223.62l-1,4.71c4.42,6,7.93,12.51,13.57,17.2-4.06-7.93-7.07-11.2-12.62-21.91"/><path class="cls-1" d="M171.77,223.21c-2.33-2.59-3.72-5.7-5.27-8.8,1.48,5.45,4.52,10.13,7.34,14.9l-2.07-6.1"/><path class="cls-1" d="M356.63,183l-1,2.48a119.65,119.65,0,0,1-11.71,37.39A117.61,117.61,0,0,0,356.63,183"/><path class="cls-1" d="M210.55,2c4.54-1.67,11.18-.91,16-2-6.29.53-12.54.84-18.72,1.64l2.72.37"/><path class="cls-1" d="M51,86.88c1,9.7-7.3,13.46,1.85,7.07,4.9-11-1.92-3-1.85-7.07"/><path class="cls-1" d="M40.2,131.76c2.11-6.46,2.49-10.35,3.29-14.09-5.82,7.44-2.68,9-3.29,14.09"/><circle class="cls-1" cx="231.43" cy="167.73" r="52.43"/><circle class="cls-2" cx="231.43" cy="167.73" r="44.25"/><circle class="cls-3" cx="231.53" cy="167.83" r="19.63"/><rect class="cls-4" width="405.78" height="405.78"/></g></g></svg>