<?xml version="1.0" encoding="utf-8"?>
<!-- Generator: Adobe Illustrator 25.0.0, SVG Export Plug-In . SVG Version: 6.00 Build 0)  -->
<svg version="1.1" id="Ebene_1" xmlns="http://www.w3.org/2000/svg" xmlns:xlink="http://www.w3.org/1999/xlink" x="0px" y="0px"
	 viewBox="0 0 36 36" style="enable-background:new 0 0 36 36;" xml:space="preserve">
<style type="text/css">
	.st0{fill:#F4900C;}
	.st1{fill:#FFCC4D;}
	.st2{fill:#FFE8B6;}
	.st3{fill:#FFAC33;}
	.st4{fill:#292F33;}
	.st5{fill:none;}
</style>
<g id="Ebene_2_1_">
	<g id="Ebene_1-2">
		<circle class="st0" cx="18" cy="19" r="17"/>
		<circle class="st1" cx="18" cy="17" r="17"/>
		<circle class="st2" cx="18" cy="18" r="14"/>
		<circle class="st3" cx="18" cy="17" r="14"/>
		<path class="st0" d="M28.8,20.2c0,4.5-4.8,7.2-10.8,7.2S7.2,24.6,7.2,20.2s4.8-9,10.8-9S28.8,15.7,28.8,20.2z"/>
		<path class="st0" d="M26.2,14.6c0.9-0.7,1.4-1.7,1.4-2.8c0-2-1.6-3.6-3.6-3.6c-1.7,0-3.1,1.2-3.5,2.8c-1.6-0.6-3.4-0.6-5,0
			c-0.4-1.9-2.3-3.2-4.3-2.7C9.3,8.7,8,10.6,8.5,12.6c0.2,0.8,0.6,1.5,1.3,2c-1.5,1.5-2.5,3.5-2.6,5.6c0,4.5,4.8,0.6,10.8,0.6
			s10.8,3.9,10.8-0.6C28.7,18.1,27.8,16,26.2,14.6z"/>
		<path class="st2" d="M28.8,19.4c0,4.5-4.8,7.2-10.8,7.2S7.2,23.9,7.2,19.4s4.8-9,10.8-9S28.8,14.9,28.8,19.4z"/>
		<path class="st1" d="M26.2,13.8c0.9-0.7,1.4-1.7,1.4-2.8c0-2-1.6-3.6-3.6-3.6c-1.7,0-3.1,1.2-3.5,2.8c-1.6-0.6-3.4-0.6-5,0
			c-0.4-1.9-2.3-3.2-4.3-2.8C9.3,7.9,8,9.8,8.5,11.7c0.2,0.8,0.6,1.6,1.3,2.1c-1.5,1.5-2.5,3.5-2.6,5.6C7.2,23.9,12,20,18,20
			s10.8,3.9,10.8-0.6C28.7,17.3,27.8,15.3,26.2,13.8z"/>
		<circle class="st2" cx="11.7" cy="10.7" r="2.1"/>
		<circle class="st4" cx="11.7" cy="10.7" r="0.9"/>
		<circle class="st2" cx="24.3" cy="10.7" r="2.1"/>
		<circle class="st4" cx="24.3" cy="10.7" r="0.9"/>
		<circle class="st3" cx="15.6" cy="18.2" r="0.6"/>
		<circle class="st3" cx="20.4" cy="18.2" r="0.6"/>
		<rect y="0" class="st5" width="36" height="36"/>
	</g>
</g>
</svg>
