<svg xmlns="http://www.w3.org/2000/svg" viewBox="0 0 421.22 421.22"><defs><style>.cls-1{fill:#78b254;}.cls-2{fill:#c6dfb2;}.cls-3{fill:#8e7064;}.cls-4{fill:#5c913b;}.cls-5{fill:#fff;}.cls-6{fill:#2b3135;}.cls-7{fill:none;}</style></defs><g id="Ebene_2" data-name="Ebene 2"><g id="Ebene_1-2" data-name="Ebene 1"><path class="cls-1" d="M33.78,279.35c14.09-62,62.48-114.09,122.76-133.94,32.91-11.81,69.73-18.41,103.83-7.79,39,11.55,60,50.06,75,85.09,5.08,8.9.95,21.51,9.2,28.42,44,30.07,70.22,101.71,19.59,138.17C265.62,324.94,148.59,297.74,33.78,279.35Z"/><path class="cls-2" d="M33.78,279.35c114.81,18.38,231.85,45.59,330.36,110-42.87,35.05-128,33-181.6,31C92.78,416.17,8,387.26,33.78,279.35Z"/><path class="cls-1" d="M386.19,362.55a75,75,0,0,1-22.05,26.75c-98.52-64.36-215.55-91.56-330.37-109.95,18.86-87,105.06-146.81,192-147.07l5.2-20.34a115.76,115.76,0,0,0-11.78.19C216.17,90.8,209.36.53,239.76,0c16.92.27,25,18.2,39.75,23.61,21.24,7.61,53.07-12.34,67.25,12.31C353.5,47,344,62,354.33,71.6c12.91,9.83,33.18,13.47,36.37,31.86,3.07,32.29-41.57,5.7-72.22,49.59-3.14-3.42-5.83-7.27-9.24-10.48l-10.6,18.88c15.83,17.84,27.59,39.28,36.72,61.26,5.06,8.89.95,21.51,9.18,28.42C377.76,275.28,404.5,322,386.19,362.55Z"/><path class="cls-3" d="M297.8,132.73a113.1,113.1,0,0,1,20.69,20.32c8.18,10.11,10.22,23.65-4.9,27.92-26.77-41.71-64.24-51.7-105-48-11.51-31.77,38.88-19.88,55.29-16.12C276,120.09,287.37,125.78,297.8,132.73Z"/><path class="cls-4" d="M166.72,290.9c-.56-14.53,23.55-15.52,23.13.12C190.07,306.37,166.11,305.7,166.72,290.9Z"/><path class="cls-4" d="M216.07,308.56c-.56-14.47,23.4-15.7,23.13.06C239.54,323.87,215.5,323.42,216.07,308.56Z"/><path class="cls-4" d="M297.8,132.73a139.85,139.85,0,0,0-21.14-11.59C306.49,77.42,319.18,84.11,297.8,132.73Z"/><path class="cls-5" d="M170,205.9c.51,52-80.54,54.1-81,0C89.87,151.86,169.7,153.42,170,205.9Z"/><path class="cls-5" d="M333.59,337.53c-52.46-.11-54.06-80.22,0-81C387.15,257.05,386.2,337.35,333.59,337.53Z"/><path class="cls-6" d="M129.41,223.3c-22.73-.12-22.64-34.8.14-34.83C152.31,188.73,152.26,223.24,129.41,223.3Z"/><path class="cls-6" d="M316.2,297c.08-22.25,34.48-23.17,34.82.14C350.87,319.85,316.22,319.8,316.2,297Z"/><rect class="cls-7" width="421.22" height="421.22"/></g></g></svg>