<?xml version="1.0" encoding="UTF-8" standalone="no"?>
<svg
   viewBox="0 0 45.000126 40.000252"
   xml:space="preserve"
   version="1.1"
   id="svg2"
   sodipodi:docname="kawaiidesu_frog.svg"
   inkscape:export-xdpi="106.66637"
   inkscape:export-ydpi="106.66637"
   inkscape:version="1.1.1 (3bf5ae0d25, 2021-09-20, custom)"
   width="45.000126"
   height="40.000252"
   inkscape:export-filename="/home/kassin/Ãrea de trabalho/sadfrog.png"
   xmlns:inkscape="http://www.inkscape.org/namespaces/inkscape"
   xmlns:sodipodi="http://sodipodi.sourceforge.net/DTD/sodipodi-0.dtd"
   xmlns="http://www.w3.org/2000/svg"
   xmlns:svg="http://www.w3.org/2000/svg"
   xmlns:rdf="http://www.w3.org/1999/02/22-rdf-syntax-ns#"
   xmlns:cc="http://creativecommons.org/ns#"
   xmlns:dc="http://purl.org/dc/elements/1.1/"><sodipodi:namedview
     pagecolor="#ffffff"
     bordercolor="#666666"
     borderopacity="1"
     objecttolerance="10"
     gridtolerance="10"
     guidetolerance="10"
     inkscape:pageopacity="0"
     inkscape:pageshadow="2"
     inkscape:window-width="1366"
     inkscape:window-height="711"
     id="namedview26"
     showgrid="false"
     inkscape:zoom="11.015152"
     inkscape:cx="13.25447"
     inkscape:cy="21.107289"
     inkscape:window-x="0"
     inkscape:window-y="0"
     inkscape:window-maximized="1"
     inkscape:current-layer="svg2"
     fit-margin-top="0"
     fit-margin-left="0"
     fit-margin-right="0"
     fit-margin-bottom="0"
     inkscape:pagecheckerboard="0" /><metadata
     id="metadata8"><rdf:RDF><cc:Work
         rdf:about=""><dc:format>image/svg+xml</dc:format><dc:type
           rdf:resource="http://purl.org/dc/dcmitype/StillImage" /></cc:Work></rdf:RDF></metadata><defs
     id="defs6"><clipPath
       id="clipPath16"
       clipPathUnits="userSpaceOnUse"><path
         id="path18"
         d="M 0,36 H 36 V 0 H 0 Z"
         inkscape:connector-curvature="0" /></clipPath><clipPath
       id="clipPath16-3"
       clipPathUnits="userSpaceOnUse"><path
         inkscape:connector-curvature="0"
         id="path18-6"
         d="M 0,36 H 36 V 0 H 0 Z" /></clipPath></defs><g
     id="g20"
     transform="matrix(1.2197387,0,0,-1.2244671,44.364637,24.943508)"><path
       inkscape:connector-curvature="0"
       d="m 0,0 c 0,-7.456 -8.059,-12 -18,-12 -9.941,0 -18,4.544 -18,12 0,7.456 8.059,15 18,15 C -8.059,15 0,7.456 0,0"
       style="fill:#c6e5b3;fill-opacity:1;fill-rule:nonzero;stroke:none"
       id="path22" /></g><g
     id="g24"
     transform="matrix(1.2197387,0,0,-1.2244671,39.186724,13.526331)"><path
       inkscape:connector-curvature="0"
       d="m 0,0 c 1.368,1.1 2.245,2.785 2.245,4.676 0,3.313 -2.686,6 -6,6 -2.861,0 -5.25,-2.005 -5.85,-4.685 -1.289,0.483 -2.684,0.758 -4.15,0.758 -1.465,0 -2.861,-0.275 -4.149,-0.758 -0.601,2.68 -2.99,4.685 -5.851,4.685 -3.313,0 -6,-2.687 -6,-6 0,-1.891 0.878,-3.576 2.245,-4.676 -2.645,-2.68 -4.245,-6.009 -4.245,-9.324 0,-7.456 8.059,-1 18,-1 9.942,0 18,-6.456 18,1 C 4.245,-6.009 2.646,-2.68 0,0"
       style="fill:#77b255;fill-opacity:1;fill-rule:nonzero;stroke:none"
       id="path26" /></g><ellipse
     style="fill:#ff7892;fill-opacity:1;stroke:none;stroke-width:2.70288;stroke-linecap:round;stroke-linejoin:bevel;stroke-miterlimit:4;stroke-dasharray:none;stroke-opacity:1;paint-order:normal"
     id="path94659-0-0-6-3"
     cx="7.8418636"
     cy="20.814894"
     rx="5.5894599"
     ry="5.2934585" /><ellipse
     style="fill:#ff7892;fill-opacity:1;stroke:none;stroke-width:2.70288;stroke-linecap:round;stroke-linejoin:bevel;stroke-miterlimit:4;stroke-dasharray:none;stroke-opacity:1;paint-order:normal"
     id="path94659-0-0-6"
     cx="37.091629"
     cy="20.722836"
     rx="5.5894599"
     ry="5.2934585" /><path
     id="path48067"
     style="opacity:1;fill:#292f33;stroke-width:1.22729;stroke-linejoin:bevel"
     d="m 16.310543,7.9575892 c 0,3.3375828 -2.697219,6.0432288 -6.024405,6.0432288 -3.3271876,0 -6.0244055,-2.705646 -6.0244057,-6.0432288 0,-3.3375833 2.7281708,-6.3477422 6.0553587,-6.3477422 3.327186,-2e-7 5.993452,3.0101587 5.993452,6.3477422 z"
     sodipodi:nodetypes="sssss" /><g
     id="g44"
     transform="matrix(1.2197387,0,0,-1.2244671,18.750123,22.494574)"><path
       inkscape:connector-curvature="0"
       d="m 0,0 c 0,-0.553 -0.448,-1 -1,-1 -0.552,0 -1,0.447 -1,1 0,0.553 0.448,1 1,1 0.552,0 1,-0.447 1,-1"
       style="fill:#5c913b;fill-opacity:1;fill-rule:nonzero;stroke:none"
       id="path46" /></g><g
     id="g48"
     transform="matrix(1.2197387,0,0,-1.2244671,28.508033,22.494574)"><path
       inkscape:connector-curvature="0"
       d="m 0,0 c 0,-0.553 -0.447,-1 -1,-1 -0.553,0 -1,0.447 -1,1 0,0.553 0.447,1 1,1 0.553,0 1,-0.447 1,-1"
       style="fill:#5c913b;fill-opacity:1;fill-rule:nonzero;stroke:none"
       id="path50" /></g><ellipse
     style="fill:#ffffff;fill-opacity:0.827586;stroke:none;stroke-width:3.02797;stroke-linejoin:bevel;stroke-miterlimit:4;stroke-dasharray:none;stroke-opacity:0.53202;paint-order:normal"
     id="path11744-3-7"
     cx="7.0516443"
     cy="7.4638457"
     rx="2.6100986"
     ry="3.1212702" /><ellipse
     style="fill:#ffffff;fill-opacity:0.827586;stroke:none;stroke-width:1.76574;stroke-linejoin:bevel;stroke-miterlimit:4;stroke-dasharray:none;stroke-opacity:0.53202;paint-order:normal"
     id="path11744-1-7-3"
     cx="11.320922"
     cy="11.63988"
     rx="1.6414486"
     ry="1.687784" /><path
     id="path48067-3"
     style="fill:#292f33;stroke-width:1.22729;stroke-linejoin:bevel"
     d="m 40.672617,7.8094791 c 0,3.3375819 -2.697219,6.0432289 -6.024406,6.0432289 -3.327187,0 -6.024404,-2.705647 -6.024405,-6.0432289 0,-3.3375833 2.728171,-6.3477422 6.055358,-6.3477422 3.327187,-2e-7 5.993453,3.0101587 5.993453,6.3477422 z"
     sodipodi:nodetypes="sssss" /><ellipse
     style="fill:#ffffff;fill-opacity:0.827586;stroke:none;stroke-width:3.02797;stroke-linejoin:bevel;stroke-miterlimit:4;stroke-dasharray:none;stroke-opacity:0.53202;paint-order:normal"
     id="path11744-3-7-6"
     cx="31.413719"
     cy="7.3157358"
     rx="2.6100986"
     ry="3.1212702" /><ellipse
     style="fill:#ffffff;fill-opacity:0.827586;stroke:none;stroke-width:1.76574;stroke-linejoin:bevel;stroke-miterlimit:4;stroke-dasharray:none;stroke-opacity:0.53202;paint-order:normal"
     id="path11744-1-7-3-1"
     cx="35.682995"
     cy="11.491771"
     rx="1.6414486"
     ry="1.687784" /></svg>
