<?xml version="1.0" encoding="UTF-8" standalone="no"?>
<svg
   viewBox="0 0 45 45.000001"
   version="1.1"
   id="svg51"
   sodipodi:docname="frogWaving.svg"
   width="45"
   height="45"
   inkscape:version="1.1.1 (3bf5ae0d25, 2021-09-20, custom)"
   xmlns:inkscape="http://www.inkscape.org/namespaces/inkscape"
   xmlns:sodipodi="http://sodipodi.sourceforge.net/DTD/sodipodi-0.dtd"
   xmlns="http://www.w3.org/2000/svg"
   xmlns:svg="http://www.w3.org/2000/svg">
  <sodipodi:namedview
     id="namedview53"
     pagecolor="#505050"
     bordercolor="#ffffff"
     borderopacity="1"
     inkscape:pageshadow="0"
     inkscape:pageopacity="0"
     inkscape:pagecheckerboard="1"
     showgrid="false"
     inkscape:zoom="10.492228"
     inkscape:cx="22.921728"
     inkscape:cy="38.17111"
     inkscape:window-width="1920"
     inkscape:window-height="1026"
     inkscape:window-x="0"
     inkscape:window-y="54"
     inkscape:window-maximized="1"
     inkscape:current-layer="svg51" />
  <defs
     id="defs7">
    <style
       id="style2">.cls-1,.cls-8{fill:none;}.cls-2{clip-path:url(#clip-path);}.cls-3{fill:#c6e5b3;}.cls-4{fill:#77b255;}.cls-5{fill:#fff;}.cls-6{fill:#292f33;}.cls-7{fill:#5c913b;}.cls-8{stroke:#3f6328;stroke-miterlimit:10;}.cls-9{fill:#5dadec;}</style>
    <clipPath
       id="clip-path"
       transform="translate(0 -2.51)">
      <rect
         class="cls-1"
         width="45"
         height="45"
         id="rect4"
         x="0"
         y="0" />
    </clipPath>
  </defs>
  <g
     id="g907"
     transform="translate(-21.723146,2.199385)">
    <path
       id="path22-3"
       style="fill:#c6e5b3;fill-opacity:1;fill-rule:nonzero;stroke:none;stroke-width:1.25"
       d="m 66.723271,25.300865 c 0,9.32 -10.07375,15 -22.5,15 -12.42625,0 -22.5,-5.68 -22.5,-15 h 45"
       sodipodi:nodetypes="cscc" />
    <path
       id="path26-6"
       style="fill:#77b255;fill-opacity:1;fill-rule:nonzero;stroke:none;stroke-width:1.25"
       d="m 61.416896,13.645615 c 1.71,-1.375 2.80625,-3.48125 2.80625,-5.845 0,-4.14125 -3.3575,-7.5 -7.5,-7.5 -3.57625,0 -6.5625,2.50625 -7.3125,5.85625 -1.61125,-0.60375 -3.355,-0.9475 -5.1875,-0.9475 -1.83125,0 -3.57625,0.34375 -5.18625,0.9475 -0.75125,-3.35 -3.7375,-5.85625 -7.31375,-5.85625 -4.14125,0 -7.5,3.35875 -7.5,7.5 0,2.36375 1.0975,4.47 2.80625,5.845 -3.30625,3.35 -5.30625,7.51125 -5.30625,11.655 0,9.32 10.07375,1.25 22.5,1.25 12.4275,0 22.5,8.07 22.5,-1.25 0,-4.14375 -1.99875,-8.305 -5.30625,-11.655" />
    <path
       id="path30-7"
       style="fill:#ffffff;fill-opacity:1;fill-rule:nonzero;stroke:none;stroke-width:1.25"
       d="m 35.473271,7.175865 c 0,2.41625 -1.95875,4.375 -4.375,4.375 -2.41625,0 -4.375,-1.95875 -4.375,-4.375 0,-2.41625 1.95875,-4.375 4.375,-4.375 2.41625,0 4.375,1.95875 4.375,4.375" />
    <path
       id="path34-5"
       style="fill:#292f33;fill-opacity:1;fill-rule:nonzero;stroke:none;stroke-width:1.25"
       d="m 32.973271,7.175865 c 0,1.03625 -0.83875,1.875 -1.875,1.875 -1.03625,0 -1.875,-0.83875 -1.875,-1.875 0,-1.03625 0.83875,-1.875 1.875,-1.875 1.03625,0 1.875,0.83875 1.875,1.875" />
    <path
       id="path38-3"
       style="fill:#ffffff;fill-opacity:1;fill-rule:nonzero;stroke:none;stroke-width:1.25"
       d="m 61.723271,7.175865 c 0,2.41625 -1.9575,4.375 -4.375,4.375 -2.4175,0 -4.375,-1.95875 -4.375,-4.375 0,-2.41625 1.9575,-4.375 4.375,-4.375 2.4175,0 4.375,1.95875 4.375,4.375" />
    <path
       id="path42-5"
       style="fill:#292f33;fill-opacity:1;fill-rule:nonzero;stroke:none;stroke-width:1.25"
       d="m 59.223271,7.175865 c 0,1.03625 -0.84,1.875 -1.875,1.875 -1.035,0 -1.875,-0.83875 -1.875,-1.875 0,-1.03625 0.84,-1.875 1.875,-1.875 1.035,0 1.875,0.83875 1.875,1.875" />
    <path
       id="path46-6"
       style="fill:#5c913b;fill-opacity:1;fill-rule:nonzero;stroke:none;stroke-width:1.25"
       d="m 40.473271,22.800865 c 0,0.69125 -0.56,1.25 -1.25,1.25 -0.69,0 -1.25,-0.55875 -1.25,-1.25 0,-0.69125 0.56,-1.25 1.25,-1.25 0.69,0 1.25,0.55875 1.25,1.25" />
    <path
       id="path50-2"
       style="fill:#5c913b;fill-opacity:1;fill-rule:nonzero;stroke:none;stroke-width:1.25"
       d="m 50.473271,22.800865 c 0,0.69125 -0.55875,1.25 -1.25,1.25 -0.69125,0 -1.25,-0.55875 -1.25,-1.25 0,-0.69125 0.55875,-1.25 1.25,-1.25 0.69125,0 1.25,0.55875 1.25,1.25" />
  </g>
  <g
     class="cls-2"
     clip-path="url(#clip-path)"
     id="g45"
     transform="matrix(1.0000057,0,0,1.0000015,0.26830604,0.19135066)"
     style="stroke-width:0.999996">
    <path
       class="cls-8"
       d="m 41.09,24.56 a 2.09,2.09 0 0 0 -2.4,0.12 l 0.73,-1.05 A 1.57,1.57 0 0 0 39,21.31 c -0.83,-0.58 -3.19,1 -3.19,1 a 1.74,1.74 0 0 0 -0.36,-2.5 1.87,1.87 0 0 0 -2.59,0.46 l -7.8,11 1,9.64 8.3,-3 7.24,-10.73 a 1.87,1.87 0 0 0 -0.51,-2.62 z"
       transform="translate(0,-2.51)"
       id="path31"
       style="stroke-width:0.999996" />
    <path
       class="cls-8"
       d="M 42.71,30.69 A 1.5,1.5 0 0 0 40.24,29 l -3.93,5.74 a 7.13,7.13 0 0 0 -0.45,-0.67 l 5.46,-8 a 1.5,1.5 0 1 0 -2.47,-1.69 l -5.13,7.48 -0.59,-0.46 5.95,-8.68 A 1.5,1.5 0 0 0 36.61,21.03 L 30.66,29.7 30,29.36 35.56,21.25 a 1.5,1.5 0 0 0 -2.47,-1.69 l -5.88,8.57 -0.89,1.31 a 7.5,7.5 0 0 1 1.94,10.4 0.73,0.73 0 0 1 -1,0.2 7.09,7.09 0 0 0 -1.94,-10.41 l 1.09,-5.47 a 1.5,1.5 0 1 0 -2.88,-0.81 l -1.26,3.74 a 33.7,33.7 0 0 1 -1.74,4.37 9,9 0 0 0 15.44,9.11 z"
       transform="translate(0,-2.51)"
       id="path33"
       style="stroke-width:0.999996" />
    <path
       class="cls-7"
       d="m 41.09,24.56 a 2.09,2.09 0 0 0 -2.4,0.12 l 0.73,-1.05 A 1.57,1.57 0 0 0 39,21.31 c -0.83,-0.58 -3.19,1 -3.19,1 a 1.74,1.74 0 0 0 -0.36,-2.5 1.87,1.87 0 0 0 -2.59,0.46 l -7.8,11 1,9.64 8.3,-3 7.24,-10.73 a 1.87,1.87 0 0 0 -0.51,-2.62 z"
       transform="translate(0,-2.51)"
       id="path35"
       style="stroke-width:0.999996" />
    <path
       class="cls-4"
       d="M 42.71,30.69 A 1.5,1.5 0 0 0 40.24,29 l -3.93,5.74 a 7.13,7.13 0 0 0 -0.45,-0.67 l 5.46,-8 a 1.5,1.5 0 1 0 -2.47,-1.69 l -5.13,7.48 -0.59,-0.46 5.95,-8.68 A 1.5,1.5 0 0 0 36.61,21.03 L 30.66,29.7 30,29.36 35.56,21.25 a 1.5,1.5 0 0 0 -2.47,-1.69 l -5.88,8.57 -0.89,1.31 a 7.5,7.5 0 0 1 1.94,10.4 0.73,0.73 0 0 1 -1,0.2 7.09,7.09 0 0 0 -1.94,-10.41 l 1.09,-5.47 a 1.5,1.5 0 1 0 -2.88,-0.81 l -1.26,3.74 a 33.7,33.7 0 0 1 -1.74,4.37 9,9 0 0 0 15.44,9.11 z"
       transform="translate(0,-2.51)"
       id="path37"
       style="stroke-width:0.999996" />
    <path
       class="cls-9"
       d="m 35.74,41.7 a 6.5,6.5 0 0 0 6,-6 0.72,0.72 0 0 1 0.72,-0.75 0.77,0.77 0 0 1 0.78,0.75 7.11,7.11 0 0 1 -7.52,7.51 0.77,0.77 0 0 1 -0.74,-0.78 0.71,0.71 0 0 1 0.76,-0.73 z"
       transform="translate(0,-2.51)"
       id="path39"
       style="stroke-width:0.999996" />
    <path
       class="cls-9"
       d="m 39.49,43.16 a 3.54,3.54 0 0 0 3.74,-3.74 0.75,0.75 0 0 1 1.5,0 5.12,5.12 0 0 1 -5.24,5.24 0.75,0.75 0 0 1 0,-1.5 z M 26.76,19.21 a 0.75,0.75 0 0 1 0,1.5 6.2,6.2 0 0 0 -6,6 0.75,0.75 0 1 1 -1.49,0 7.27,7.27 0 0 1 7.49,-7.5 z"
       transform="translate(0,-2.51)"
       id="path41"
       style="stroke-width:0.999996" />
    <path
       class="cls-9"
       d="M 23,17.74 A 0.73,0.73 0 0 1 23.75,18.46 0.78,0.78 0 0 1 23,19.24 3.59,3.59 0 0 0 19.31,23 0.78,0.78 0 0 1 18.53,23.75 0.73,0.73 0 0 1 17.81,23 5.14,5.14 0 0 1 23,17.74 Z"
       transform="translate(0,-2.51)"
       id="path43"
       style="stroke-width:0.999996" />
  </g>
</svg>
