<svg xmlns="http://www.w3.org/2000/svg" viewBox="0 0 36 36"><defs><style>.cls-1{fill:none;}.cls-2{fill:#f4900c;}.cls-3{fill:#ffcc4d;}.cls-4{fill:#ffe8b6;}.cls-5{fill:#ffac33;}.cls-6{fill:#292f33;}</style></defs><g id="Ebene_2" data-name="Ebene 2"><g id="Ebene_1-2" data-name="Ebene 1"><rect class="cls-1" width="36" height="36"/><circle class="cls-2" cx="8.67" cy="10.2" r="8.35"/><circle class="cls-3" cx="8.67" cy="9.22" r="8.35"/><circle class="cls-4" cx="8.67" cy="9.71" r="6.88"/><circle class="cls-5" cx="8.67" cy="9.22" r="6.88"/><path class="cls-2" d="M14,10.78c0,2.19-2.38,3.53-5.31,3.53S3.37,13,3.37,10.78s2.37-4.43,5.3-4.43S14,8.58,14,10.78Z"/><path class="cls-2" d="M12.73,8a1.77,1.77,0,0,0-1.11-3.15A1.76,1.76,0,0,0,9.9,6.26,3.58,3.58,0,0,0,8.67,6a3.52,3.52,0,0,0-1.22.22A1.77,1.77,0,0,0,4,6.65,1.75,1.75,0,0,0,4.62,8a4,4,0,0,0-1.25,2.75c0,2.19,2.37.29,5.3.29S14,13,14,10.78A4,4,0,0,0,12.73,8Z"/><path class="cls-4" d="M14,10.4c0,2.2-2.38,3.54-5.31,3.54s-5.3-1.34-5.3-3.54S5.74,6,8.67,6,14,8.2,14,10.4Z"/><path class="cls-3" d="M12.73,7.65A1.77,1.77,0,0,0,11.62,4.5,1.76,1.76,0,0,0,9.9,5.88a3.58,3.58,0,0,0-1.23-.22,3.52,3.52,0,0,0-1.22.22A1.77,1.77,0,0,0,4,6.27a1.75,1.75,0,0,0,.66,1.38A4,4,0,0,0,3.37,10.4c0,2.2,2.37.29,5.3.29S14,12.6,14,10.4A4,4,0,0,0,12.73,7.65Z"/><circle class="cls-4" cx="5.58" cy="6.12" r="1.03"/><circle class="cls-6" cx="5.58" cy="6.12" r="0.44"/><circle class="cls-4" cx="11.77" cy="6.12" r="1.03"/><circle class="cls-6" cx="11.77" cy="6.12" r="0.44"/><circle class="cls-5" cx="7.49" cy="9.81" r="0.29"/><circle class="cls-5" cx="9.85" cy="9.81" r="0.29"/><circle class="cls-2" cx="23.34" cy="13.81" r="12.28"/><circle class="cls-3" cx="23.34" cy="12.37" r="12.28"/><circle class="cls-4" cx="23.34" cy="13.09" r="10.11"/><circle class="cls-5" cx="23.34" cy="12.37" r="10.11"/><path class="cls-2" d="M31.14,14.65c0,3.24-3.49,5.2-7.8,5.2s-7.8-2-7.8-5.2,3.49-6.5,7.8-6.5S31.14,11.42,31.14,14.65Z"/><path class="cls-2" d="M29.3,10.61A2.6,2.6,0,1,0,25.14,8a5.07,5.07,0,0,0-3.6,0,2.6,2.6,0,0,0-5.13.57,2.58,2.58,0,0,0,1,2,5.9,5.9,0,0,0-1.84,4c0,3.24,3.49.44,7.8.44s7.8,2.8,7.8-.44A5.9,5.9,0,0,0,29.3,10.61Z"/><path class="cls-4" d="M31.14,14.1c0,3.23-3.49,5.2-7.8,5.2s-7.8-2-7.8-5.2S19,7.6,23.34,7.6,31.14,10.87,31.14,14.1Z"/><path class="cls-3" d="M29.3,10.06a2.6,2.6,0,1,0-4.16-2.6,5.07,5.07,0,0,0-3.6,0,2.6,2.6,0,1,0-4.16,2.6,5.86,5.86,0,0,0-1.84,4c0,3.23,3.49.43,7.8.43s7.8,2.8,7.8-.43A5.86,5.86,0,0,0,29.3,10.06Z"/><circle class="cls-4" cx="18.79" cy="7.82" r="1.52"/><circle class="cls-6" cx="18.79" cy="7.82" r="0.65"/><circle class="cls-4" cx="27.89" cy="7.82" r="1.52"/><circle class="cls-6" cx="27.89" cy="7.82" r="0.65"/><circle class="cls-5" cx="21.61" cy="13.23" r="0.43"/><circle class="cls-5" cx="25.07" cy="13.23" r="0.43"/><circle class="cls-2" cx="27.21" cy="25.68" r="8.23"/><circle class="cls-3" cx="27.21" cy="24.71" r="8.23"/><circle class="cls-4" cx="27.21" cy="25.2" r="6.78"/><circle class="cls-5" cx="27.21" cy="24.71" r="6.78"/><path class="cls-2" d="M32.44,26.25c0,2.17-2.34,3.49-5.23,3.49S22,28.42,22,26.25s2.34-4.36,5.23-4.36S32.44,24.08,32.44,26.25Z"/><path class="cls-2" d="M31.21,23.54a1.75,1.75,0,1,0-2.8-1.74,3.41,3.41,0,0,0-1.2-.22A3.46,3.46,0,0,0,26,21.8a1.74,1.74,0,1,0-2.79,1.74A4,4,0,0,0,22,26.25c0,2.17,2.34.29,5.23.29s5.23,1.88,5.23-.29A4,4,0,0,0,31.21,23.54Z"/><path class="cls-4" d="M32.44,25.88c0,2.16-2.34,3.48-5.23,3.48S22,28,22,25.88s2.34-4.36,5.23-4.36S32.44,23.71,32.44,25.88Z"/><path class="cls-3" d="M31.21,23.17a1.76,1.76,0,0,0,.65-1.36,1.75,1.75,0,0,0-3.45-.39,3.41,3.41,0,0,0-1.2-.22,3.46,3.46,0,0,0-1.21.22,1.74,1.74,0,1,0-2.79,1.75A3.91,3.91,0,0,0,22,25.88c0,2.16,2.34.29,5.23.29s5.23,1.87,5.23-.29A3.91,3.91,0,0,0,31.21,23.17Z"/><circle class="cls-4" cx="24.16" cy="21.66" r="1.02"/><circle class="cls-6" cx="24.16" cy="21.66" r="0.44"/><circle class="cls-4" cx="30.26" cy="21.66" r="1.02"/><circle class="cls-6" cx="30.26" cy="21.66" r="0.44"/><circle class="cls-5" cx="26.05" cy="25.29" r="0.29"/><circle class="cls-5" cx="28.37" cy="25.29" r="0.29"/><circle class="cls-2" cx="10.49" cy="25.87" r="10.13"/><circle class="cls-3" cx="10.49" cy="24.67" r="10.13"/><circle class="cls-4" cx="10.49" cy="25.27" r="8.35"/><circle class="cls-5" cx="10.49" cy="24.67" r="8.35"/><path class="cls-2" d="M16.93,26.56c0,2.67-2.88,4.3-6.44,4.3s-6.44-1.63-6.44-4.3,2.88-5.36,6.44-5.36S16.93,23.9,16.93,26.56Z"/><path class="cls-2" d="M15.41,23.23a2.14,2.14,0,0,0-1.34-3.82A2.14,2.14,0,0,0,12,21.08a4.33,4.33,0,0,0-1.49-.27A4.27,4.27,0,0,0,9,21.08a2.15,2.15,0,1,0-3.44,2.15,4.85,4.85,0,0,0-1.52,3.33c0,2.67,2.88.36,6.44.36s6.44,2.31,6.44-.36A4.85,4.85,0,0,0,15.41,23.23Z"/><path class="cls-4" d="M16.93,26.1c0,2.67-2.88,4.3-6.44,4.3s-6.44-1.63-6.44-4.3,2.88-5.36,6.44-5.36S16.93,23.44,16.93,26.1Z"/><path class="cls-3" d="M15.41,22.77A2.14,2.14,0,1,0,12,20.63a4.11,4.11,0,0,0-1.49-.28A4.06,4.06,0,0,0,9,20.63a2.15,2.15,0,1,0-3.44,2.14A4.85,4.85,0,0,0,4.05,26.1c0,2.67,2.88.36,6.44.36s6.44,2.31,6.44-.36A4.85,4.85,0,0,0,15.41,22.77Z"/><circle class="cls-4" cx="6.73" cy="20.92" r="1.25"/><circle class="cls-6" cx="6.73" cy="20.92" r="0.54"/><circle class="cls-4" cx="14.25" cy="20.92" r="1.25"/><circle class="cls-6" cx="14.25" cy="20.92" r="0.54"/><circle class="cls-5" cx="9.06" cy="25.39" r="0.36"/><circle class="cls-5" cx="11.92" cy="25.39" r="0.36"/></g></g></svg>