<svg xmlns="http://www.w3.org/2000/svg" viewBox="0 0 660.48 660.48"><defs><style>.cls-1,.cls-5{fill:#77b255;}.cls-2{fill:#fff;}.cls-3{fill:#292f33;}.cls-4{fill:#c6e5b3;}.cls-4,.cls-5,.cls-6{fill-rule:evenodd;}.cls-6{fill:#5c913b;}.cls-7{fill:none;}</style></defs><g id="Ebene_2" data-name="Ebene 2"><g id="Ebene_2-2" data-name="Ebene 2"><ellipse class="cls-1" cx="415.93" cy="47.82" rx="47.72" ry="47.83" transform="translate(20.39 185.05) rotate(-25.69)"/><circle class="cls-2" cx="417.65" cy="42.44" r="27.87"/><circle class="cls-3" cx="417.65" cy="42.44" r="11.94"/><ellipse class="cls-1" cx="560.38" cy="151.88" rx="47.72" ry="47.83" transform="translate(-10.44 257.97) rotate(-25.69)"/><circle class="cls-2" cx="562.11" cy="146.5" r="27.87"/><circle class="cls-3" cx="562.11" cy="146.5" r="11.94"/><path class="cls-4" d="M541.85,450.61c-12,11.05-25,22.47-39,34-93.5,77.28-224.52,160.25-322.35,174.21-31.62,4.52-63.91-.19-86.58-13-35.46-20-47.23-46.72-51.37-54.73C31.58,569.8,33,542.82,33,534.37c.07-26.27,22.39-62.93,54.11-96.24,21.2-22.26,42.73-41.8,89.66-81.81C144.28,338.51,93.79,317,68.46,288.87c-9.38-10.41-26.37-34-23.07-65.53C50,179.6,88.16,120.46,147.65,80.65c-.28.84-.54,1.67-.76,2.49a33.38,33.38,0,0,0-.46,16.82c3.3,13.91,15.92,25.82,34.32,37.82,15,9.79,33.79,19.64,54.52,30.68,6.59,3.52,13.38,7.15,20.3,10.94,10.14,5.56,20.57,11.46,31.09,17.81-21.66,46.91,54.73,61.17,66.94,52,.79-.6,1.55-1.19,2.28-1.79,1.35,1.19,2.68,2.4,4,3.63q4.89,4.51,9.56,9.15,8.48,8.42,16.27,17.17a538.21,538.21,0,0,1,40,51.24c21.87,31.39,39.44,61.62,55.83,84.3,7.83,10.83,15.39,19.94,23,26.63C516.43,449.89,528.42,454.45,541.85,450.61Z"/><path class="cls-5" d="M618.6,364.12c-3.56,6.65-9.6,15.24-17.78,25.25-14,17.11-34.19,38.37-59,61.24-13.43,3.84-25.42-.72-37.24-11.09-7.63-6.69-15.19-15.8-23-26.63-16.39-22.68-34-52.91-55.83-84.3a538.21,538.21,0,0,0-40-51.24q-7.8-8.73-16.27-17.17-4.67-4.64-9.56-9.15c-1.33-1.23-2.66-2.44-4-3.63h0c48.8-40.95-50.07-80.92-64.89-57.95a87.06,87.06,0,0,0-4.14,7.89l-.17-.12c-10.32-6.11-21-12.25-31.09-17.81-6.92-3.79-13.71-7.42-20.3-10.94-20.73-11-39.55-20.89-54.52-30.68-18.4-12-31-23.91-34.32-37.82a33.38,33.38,0,0,1,.46-16.82c.22-.82.48-1.65.76-2.49C175.55,62,208.13,47.56,244.12,41c37.5-6.86,80.56-1.91,116,14C471.3,105,607.27,229.17,624,289.8c.28,1,.54,2,.78,3.07C629.76,314.28,628.28,346.05,618.6,364.12Z"/><path id="path4976" class="cls-6" d="M316.51,288c52.16,7.25,97.12-13.64,104.15-65.15,5.36-39.23-54.69-82.1-90.79-92-30.15-8.26-95.59,2.36-100,59.37C225.28,249.55,286.1,283.8,316.51,288ZM291,189.45c-34.28,53.1,49.77,69.43,62.64,59.74C409.09,207.44,306.07,166.05,291,189.45Z"/><rect class="cls-7" width="660.48" height="660.48"/></g></g></svg>