<svg xmlns="http://www.w3.org/2000/svg" viewBox="0 0 35.96 35.96"><defs><style>.cls-1{fill:#5c913b;}.cls-2{fill:#77b255;}.cls-3{fill:#5dadec;}</style></defs><g id="Ebene_2" data-name="Ebene 2"><g id="Ebene_1-2" data-name="Ebene 1"><path class="cls-1" d="M4.86,9.11a2.77,2.77,0,0,1,3.2.16l-1-1.41a2.09,2.09,0,0,1,.62-3.09C8.82,4,12,6.08,12,6.08a2.31,2.31,0,0,1,.48-3.33,2.5,2.5,0,0,1,3.46.61L26.33,18.08,25,31l-11.08-4L4.25,12.58A2.49,2.49,0,0,1,4.86,9.11Z"/><path class="cls-2" d="M2.69,17.29a2,2,0,0,1,.52-2.78A2,2,0,0,1,6,15l5.25,7.66c.19-.3.38-.6.61-.9L4.56,11.17a2,2,0,0,1,.52-2.78,2,2,0,0,1,2.78.52l6.85,10,.79-.62L7.55,6.69a2,2,0,0,1,3.3-2.26L18.8,16c.29-.18.58-.34.87-.5L12.24,4.69a2,2,0,0,1,.52-2.78,2,2,0,0,1,2.78.52l7.85,11.45,1.19,1.74A10,10,0,0,0,22,29.52a1,1,0,0,0,1.39.26C20,24.83,21,19.27,26,15.88l-1.46-7.3a2,2,0,0,1,3.85-1.09l1.69,5a45.07,45.07,0,0,0,2.32,5.83A12,12,0,0,1,11.74,30.49Z"/><path class="cls-3" d="M12,32c-4,0-8-4-8-8a1,1,0,0,0-1-1,1,1,0,0,0-1,1c0,6,4,10,10,10a1,1,0,0,0,1-1A1,1,0,0,0,12,32Z"/><path class="cls-3" d="M7,34a4.72,4.72,0,0,1-5-5,1,1,0,0,0-2,0,6.84,6.84,0,0,0,7,7,1,1,0,0,0,0-2ZM24,2a1,1,0,0,0,0,2,8.29,8.29,0,0,1,8,8,1,1,0,0,0,2,0A9.71,9.71,0,0,0,24,2Z"/><path class="cls-3" d="M29,0a1,1,0,0,0-1,1,1,1,0,0,0,1,1,4.81,4.81,0,0,1,5,5,1,1,0,0,0,1,1,1,1,0,0,0,1-1A6.86,6.86,0,0,0,29,0Z"/></g></g></svg>