<?xml version="1.0" encoding="UTF-8" standalone="no"?>
<svg
   xmlns:dc="http://purl.org/dc/elements/1.1/"
   xmlns:cc="http://creativecommons.org/ns#"
   xmlns:rdf="http://www.w3.org/1999/02/22-rdf-syntax-ns#"
   xmlns:svg="http://www.w3.org/2000/svg"
   xmlns="http://www.w3.org/2000/svg"
   xmlns:sodipodi="http://sodipodi.sourceforge.net/DTD/sodipodi-0.dtd"
   xmlns:inkscape="http://www.inkscape.org/namespaces/inkscape"
   viewBox="0 0 45.15004 44.422977"
   xml:space="preserve"
   version="1.1"
   id="svg2"
   sodipodi:docname="hipsterfrog.svg"
   inkscape:version="0.92.4 5da689c313, 2019-01-14"
   inkscape:export-xdpi="170.66667"
   inkscape:export-ydpi="170.66667"
   width="45.15004"
   height="44.422977"><sodipodi:namedview
     pagecolor="#ffffff"
     bordercolor="#666666"
     borderopacity="1"
     objecttolerance="10"
     gridtolerance="10"
     guidetolerance="10"
     inkscape:pageopacity="0"
     inkscape:pageshadow="2"
     inkscape:window-width="1920"
     inkscape:window-height="1027"
     id="namedview26"
     showgrid="false"
     inkscape:zoom="10.488889"
     inkscape:cx="-8.6641316"
     inkscape:cy="7.1860339"
     inkscape:window-x="1600"
     inkscape:window-y="53"
     inkscape:window-maximized="0"
     inkscape:current-layer="svg2"
     fit-margin-top="1.3"
     fit-margin-left="0"
     fit-margin-right="0"
     fit-margin-bottom="2.1" /><metadata
     id="metadata8"><rdf:RDF><cc:Work
         rdf:about=""><dc:format>image/svg+xml</dc:format><dc:type
           rdf:resource="http://purl.org/dc/dcmitype/StillImage" /><dc:title /></cc:Work></rdf:RDF></metadata><defs
     id="defs6"><clipPath
       id="clipPath16"
       clipPathUnits="userSpaceOnUse"><path
         id="path18"
         d="M 0,36 H 36 V 0 H 0 Z"
         inkscape:connector-curvature="0" /></clipPath><clipPath
       id="clipPath16-3"
       clipPathUnits="userSpaceOnUse"><path
         inkscape:connector-curvature="0"
         id="path18-6"
         d="M 0,36 H 36 V 0 H 0 Z" /></clipPath></defs><g
     id="g20"
     transform="matrix(1.25,0,0,-1.25,45.071886,27.322979)"><path
       inkscape:connector-curvature="0"
       d="m 0,0 c 0,-7.456 -8.059,-12 -18,-12 -9.941,0 -18,4.544 -18,12 0,7.456 8.059,15 18,15 C -8.059,15 0,7.456 0,0"
       style="fill:#c6e5b3;fill-opacity:1;fill-rule:nonzero;stroke:none"
       id="path22" /></g><g
     id="g24"
     transform="matrix(1.25,0,0,-1.25,39.765511,15.667729)"><path
       inkscape:connector-curvature="0"
       d="m 0,0 c 1.368,1.1 2.245,2.785 2.245,4.676 0,3.313 -2.686,6 -6,6 -2.861,0 -5.25,-2.005 -5.85,-4.685 -1.289,0.483 -2.684,0.758 -4.15,0.758 -1.465,0 -2.861,-0.275 -4.149,-0.758 -0.601,2.68 -2.99,4.685 -5.851,4.685 -3.313,0 -6,-2.687 -6,-6 0,-1.891 0.878,-3.576 2.245,-4.676 -2.645,-2.68 -4.245,-6.009 -4.245,-9.324 0,-7.456 8.059,-1 18,-1 9.942,0 18,-6.456 18,1 C 4.245,-6.009 2.646,-2.68 0,0"
       style="fill:#77b255;fill-opacity:1;fill-rule:nonzero;stroke:none"
       id="path26" /></g><g
     id="g28"
     transform="matrix(1.25,0,0,-1.25,13.821886,9.197979)"><path
       inkscape:connector-curvature="0"
       d="M 0,0 C 0,-1.933 -1.567,-3.5 -3.5,-3.5 -5.433,-3.5 -7,-1.933 -7,0 -7,1.933 -5.433,3.5 -3.5,3.5 -1.567,3.5 0,1.933 0,0"
       style="fill:#ffffff;fill-opacity:1;fill-rule:nonzero;stroke:none"
       id="path30" /></g><g
     id="g32"
     transform="matrix(1.25,0,0,-1.25,11.321886,9.197979)"><path
       inkscape:connector-curvature="0"
       d="M 0,0 C 0,-0.829 -0.671,-1.5 -1.5,-1.5 -2.329,-1.5 -3,-0.829 -3,0 -3,0.829 -2.329,1.5 -1.5,1.5 -0.671,1.5 0,0.829 0,0"
       style="fill:#292f33;fill-opacity:1;fill-rule:nonzero;stroke:none"
       id="path34" /></g><g
     id="g36"
     transform="matrix(1.25,0,0,-1.25,40.071886,9.197979)"><path
       inkscape:connector-curvature="0"
       d="M 0,0 C 0,-1.933 -1.566,-3.5 -3.5,-3.5 -5.434,-3.5 -7,-1.933 -7,0 -7,1.933 -5.434,3.5 -3.5,3.5 -1.566,3.5 0,1.933 0,0"
       style="fill:#ffffff;fill-opacity:1;fill-rule:nonzero;stroke:none"
       id="path38" /></g><g
     id="g40"
     transform="matrix(1.25,0,0,-1.25,37.571886,9.197979)"><path
       inkscape:connector-curvature="0"
       d="M 0,0 C 0,-0.829 -0.672,-1.5 -1.5,-1.5 -2.328,-1.5 -3,-0.829 -3,0 -3,0.829 -2.328,1.5 -1.5,1.5 -0.672,1.5 0,0.829 0,0"
       style="fill:#292f33;fill-opacity:1;fill-rule:nonzero;stroke:none"
       id="path42" /></g><g
     id="g44"
     transform="matrix(1.25,0,0,-1.25,18.821886,24.822979)"><path
       inkscape:connector-curvature="0"
       d="m 0,0 c 0,-0.553 -0.448,-1 -1,-1 -0.552,0 -1,0.447 -1,1 0,0.553 0.448,1 1,1 0.552,0 1,-0.447 1,-1"
       style="fill:#5c913b;fill-opacity:1;fill-rule:nonzero;stroke:none"
       id="path46" /></g><g
     id="g48"
     transform="matrix(1.25,0,0,-1.25,28.821886,24.822979)"><path
       inkscape:connector-curvature="0"
       d="m 0,0 c 0,-0.553 -0.447,-1 -1,-1 -0.553,0 -1,0.447 -1,1 0,0.553 0.447,1 1,1 0.553,0 1,-0.447 1,-1"
       style="fill:#5c913b;fill-opacity:1;fill-rule:nonzero;stroke:none"
       id="path50" /></g><path
     style="fill:#8a40fe;fill-opacity:1;fill-rule:nonzero;stroke:none;stroke-width:0.25;stroke-miterlimit:4;stroke-dasharray:none;stroke-opacity:1"
     d="M 0.143359,5.4199214 C 0.102109,5.6124234 0.075,5.8109374 0.075,6.0234374 c 0,0.01125 0.001953,0.021953 0.001953,0.033203 C 0.075753,6.0703904 0.075,6.0871094 0.075,6.0996094 h 0.003906 c 0.0275,1.06375 0.607265,1.914062 1.322266,1.914062 0.057498,0 0.111015,-0.013437 0.166015,-0.023437 0.39375,3.4050006 1.441484,6.9434376 2.490235,7.9921876 2.65625,2.65625 10.625,2.65625 13.28125,0 1.629999,-1.62875 3.128046,-6.6275 3.716796,-9.7187506 0.475,-0.091249 0.983282,-0.164062 1.519532,-0.164062 0.53625,0 1.042578,0.072813 1.517578,0.164062 0.59,3.0912506 2.086093,8.0900006 3.714844,9.7187506 2.65625,2.65625 10.625,2.65625 13.281249,0 1.05,-1.048749 2.098438,-4.587187 2.492188,-7.9921876 0.055,0.01 0.109062,0.023437 0.164062,0.023437 0.71625,0 1.296719,-0.850312 1.324219,-1.914062 h 0.0059 c 0,-0.0125 -0.0039,-0.029219 -0.0039,-0.042969 0,-0.01125 0.0039,-0.021953 0.0039,-0.033203 0,-0.21125 -0.02906,-0.411014 -0.07031,-0.603516 -0.723485,-2.0459708 -0.868047,-2.106283 -3.34375,-2.570312 -2,-0.98125 -5.197265,-1.4746094 -8.541015,-1.4746094 -3.66125,0 -6.560001,0.3660157 -8.09375,1.1972656 -0.620001,-0.1399999 -1.416172,-0.2226562 -2.451172,-0.2226562 -1.035,0 -1.833125,0.082656 -2.453125,0.2226562 C 18.588168,1.7410157 15.688714,1.375 12.026215,1.375 8.683714,1.375 5.487152,1.8683594 3.487152,2.8496094 1.1623389,3.2142335 1.0150085,3.2315397 0.143359,5.4199214 Z m 11.884766,-0.060546 c 3.98375,0 6.640625,0.66375 6.640625,2.125 0,1.46125 -1.382579,5.2776566 -2.923828,6.8164066 -1.94625,1.94875 -7.790782,1.94875 -9.738282,0 -0.97375,-0.97375 -1.94922,-3.363906 -1.949218,-6.2851566 0,-1.94875 3.935703,-2.65625 7.970703,-2.65625 z m 21.091797,0 c 4.035,0 7.970703,0.7075 7.970703,2.65625 0,2.9212506 -0.975469,5.3114066 -1.949219,6.2851566 -1.9475,1.94875 -7.790781,1.94875 -9.738281,0 -1.54125,-1.53875 -2.921875,-5.3551566 -2.921875,-6.8164066 0,-1.46125 2.654921,-2.125 6.638672,-2.125 z"
     id="path22-6"
     inkscape:connector-curvature="0"
     sodipodi:nodetypes="cscccscsccscsccsccssccscscsccssccssssccss" /></svg>