<svg xmlns="http://www.w3.org/2000/svg" viewBox="0 0 2096.02 2096.02"><defs><style>.cls-1{fill:#c6e5b3;}.cls-2{fill:#77b255;}.cls-3{fill:#bbdefb;}.cls-4{fill:#5c913b;}.cls-5{fill:#fff;}.cls-6{fill:#292f33;}.cls-7{fill:none;}</style></defs><g id="Ebene_2" data-name="Ebene 2"><g id="Ebene_1-2" data-name="Ebene 1"><path class="cls-1" d="M1711.14,1826v75.67S1711.14,2096,1470,2096H626s-241.14,0-241.14-194.33V1826C807.32,1718.81,1250.26,1723.49,1711.14,1826Z"/><path class="cls-2" d="M1711.14,541.39V1826c-460.88-102.53-903.82-107.21-1326.26,0V541.39s0-194.33,241.14-194.33h844S1711.14,347.06,1711.14,541.39Z"/><path class="cls-3" d="M548,468.59H1548.05a42.51,42.51,0,0,1,42.52,42.52V1801.2a42.52,42.52,0,0,1-42.52,42.52H548a42.52,42.52,0,0,1-42.52-42.52V511.11A42.52,42.52,0,0,1,548,468.59Z"/><circle class="cls-4" cx="1044.3" cy="1957.67" r="90.62"/><circle class="cls-2" cx="649.3" cy="229.4" r="229.4"/><circle class="cls-5" cx="652.92" cy="226.76" r="185.09"/><circle class="cls-6" cx="652.92" cy="226.76" r="79.43"/><circle class="cls-2" cx="1445.41" cy="229.4" r="229.4"/><circle class="cls-5" cx="1441.73" cy="226.76" r="185.09"/><circle class="cls-6" cx="1441.73" cy="226.76" r="79.43"/><rect class="cls-7" width="2096.02" height="2096.02"/></g></g></svg>