<?xml version="1.0" encoding="UTF-8" standalone="no"?>
<svg
   xmlns:dc="http://purl.org/dc/elements/1.1/"
   xmlns:cc="http://creativecommons.org/ns#"
   xmlns:rdf="http://www.w3.org/1999/02/22-rdf-syntax-ns#"
   xmlns:svg="http://www.w3.org/2000/svg"
   xmlns="http://www.w3.org/2000/svg"
   xmlns:sodipodi="http://sodipodi.sourceforge.net/DTD/sodipodi-0.dtd"
   xmlns:inkscape="http://www.inkscape.org/namespaces/inkscape"
   viewBox="0 0 45 45"
   style="enable-background:new 0 0 45 45;"
   xml:space="preserve"
   version="1.1"
   id="svg2"
   sodipodi:docname="jesterfrog.svg"
   inkscape:version="0.92.4 5da689c313, 2019-01-14"
   inkscape:export-xdpi="411.67102"
   inkscape:export-ydpi="411.67102"><sodipodi:namedview
     pagecolor="#ffffff"
     bordercolor="#666666"
     borderopacity="1"
     objecttolerance="10"
     gridtolerance="10"
     guidetolerance="10"
     inkscape:pageopacity="0"
     inkscape:pageshadow="2"
     inkscape:window-width="1920"
     inkscape:window-height="1030"
     id="namedview26"
     showgrid="false"
     inkscape:zoom="11.313709"
     inkscape:cx="16.091652"
     inkscape:cy="24.102567"
     inkscape:window-x="1600"
     inkscape:window-y="50"
     inkscape:window-maximized="0"
     inkscape:current-layer="g14" /><metadata
     id="metadata8"><rdf:RDF><cc:Work
         rdf:about=""><dc:format>image/svg+xml</dc:format><dc:type
           rdf:resource="http://purl.org/dc/dcmitype/StillImage" /><dc:title /></cc:Work></rdf:RDF></metadata><defs
     id="defs6"><inkscape:path-effect
       effect="spiro"
       id="path-effect873"
       is_visible="true" /><clipPath
       id="clipPath16"
       clipPathUnits="userSpaceOnUse"><path
         id="path18"
         d="M 0,36 36,36 36,0 0,0 0,36 Z" /></clipPath></defs><g
     transform="matrix(1.25,0,0,-1.25,0,47.5)"
     id="g10"
     style="stroke-width:0;stroke-miterlimit:4;stroke-dasharray:none"
     inkscape:export-xdpi="411.67102"
     inkscape:export-ydpi="411.67102"><g
       id="g12"
       style="stroke-width:0;stroke-miterlimit:4;stroke-dasharray:none"><g
         clip-path="url(#clipPath16)"
         id="g14"
         style="stroke-width:0;stroke-miterlimit:4;stroke-dasharray:none"><g
           id="g870"
           transform="translate(2.1064)"><g
             style="stroke-width:0;stroke-miterlimit:4;stroke-dasharray:none"
             id="g20"
             transform="matrix(0.88297531,0,0,0.88297531,31.7872,12.595703)"><path
               inkscape:connector-curvature="0"
               d="m 0,0 c 0,-7.456 -8.059,-12 -18,-12 -9.941,0 -18,4.544 -18,12 0,7.456 8.059,15 18,15 C -8.059,15 0,7.456 0,0"
               style="fill:#7df4da;fill-opacity:1;fill-rule:nonzero;stroke:none;stroke-width:0;stroke-miterlimit:4;stroke-dasharray:none"
               id="path22" /></g><g
             style="fill:#0ecea2;fill-opacity:1;stroke-width:0;stroke-miterlimit:4;stroke-dasharray:none"
             id="g24"
             transform="matrix(0.88297531,0,0,0.88297531,28.038881,20.828742)"><path
               inkscape:connector-curvature="0"
               d="m 0,0 c 1.368,1.1 2.245,2.785 2.245,4.676 0,3.313 -2.686,6 -6,6 -2.861,0 -5.25,-2.005 -5.85,-4.685 -1.289,0.483 -2.684,0.758 -4.15,0.758 -1.465,0 -2.861,-0.275 -4.149,-0.758 -0.601,2.68 -2.99,4.685 -5.851,4.685 -3.313,0 -6,-2.687 -6,-6 0,-1.891 0.878,-3.576 2.245,-4.676 -2.645,-2.68 -4.245,-6.009 -4.245,-9.324 0,-7.456 8.059,-1 18,-1 9.942,0 18,-6.456 18,1 C 4.245,-6.009 2.646,-2.68 0,0"
               style="fill:#0ecea2;fill-opacity:1;fill-rule:nonzero;stroke:none;stroke-width:0;stroke-miterlimit:4;stroke-dasharray:none"
               id="path26" /></g><g
             style="stroke-width:0;stroke-miterlimit:4;stroke-dasharray:none"
             id="g28"
             transform="matrix(0.88297531,0,0,0.88297531,9.7128173,25.398846)"><path
               inkscape:connector-curvature="0"
               d="M 0,0 C 0,-1.933 -1.567,-3.5 -3.5,-3.5 -5.433,-3.5 -7,-1.933 -7,0 -7,1.933 -5.433,3.5 -3.5,3.5 -1.567,3.5 0,1.933 0,0"
               style="fill:#ffffff;fill-opacity:1;fill-rule:nonzero;stroke:none;stroke-width:0;stroke-miterlimit:4;stroke-dasharray:none"
               id="path30" /></g><g
             style="stroke-width:0;stroke-miterlimit:4;stroke-dasharray:none"
             id="g32"
             transform="matrix(0.88297531,0,0,0.88297531,7.9468664,25.398846)"><path
               inkscape:connector-curvature="0"
               d="M 0,0 C 0,-0.829 -0.671,-1.5 -1.5,-1.5 -2.329,-1.5 -3,-0.829 -3,0 -3,0.829 -2.329,1.5 -1.5,1.5 -0.671,1.5 0,0.829 0,0"
               style="fill:#292f33;fill-opacity:1;fill-rule:nonzero;stroke:none;stroke-width:0;stroke-miterlimit:4;stroke-dasharray:none"
               id="path34" /></g><g
             style="stroke-width:0;stroke-miterlimit:4;stroke-dasharray:none"
             id="g36"
             transform="matrix(0.88297531,0,0,0.88297531,28.255298,25.398846)"><path
               inkscape:connector-curvature="0"
               d="M 0,0 C 0,-1.933 -1.566,-3.5 -3.5,-3.5 -5.434,-3.5 -7,-1.933 -7,0 -7,1.933 -5.434,3.5 -3.5,3.5 -1.566,3.5 0,1.933 0,0"
               style="fill:#ffffff;fill-opacity:1;fill-rule:nonzero;stroke:none;stroke-width:0;stroke-miterlimit:4;stroke-dasharray:none"
               id="path38" /></g><g
             style="stroke-width:0;stroke-miterlimit:4;stroke-dasharray:none"
             id="g40"
             transform="matrix(0.88297531,0,0,0.88297531,26.489347,25.398846)"><path
               inkscape:connector-curvature="0"
               d="M 0,0 C 0,-0.829 -0.672,-1.5 -1.5,-1.5 -2.328,-1.5 -3,-0.829 -3,0 -3,0.829 -2.328,1.5 -1.5,1.5 -0.672,1.5 0,0.829 0,0"
               style="fill:#292f33;fill-opacity:1;fill-rule:nonzero;stroke:none;stroke-width:0;stroke-miterlimit:4;stroke-dasharray:none"
               id="path42" /></g><g
             style="fill:#0b876d;fill-opacity:1;stroke-width:0;stroke-miterlimit:4;stroke-dasharray:none"
             id="g44"
             transform="matrix(0.88297531,0,0,0.88297531,13.244718,14.361654)"><path
               inkscape:connector-curvature="0"
               d="m 0,0 c 0,-0.553 -0.448,-1 -1,-1 -0.552,0 -1,0.447 -1,1 0,0.553 0.448,1 1,1 0.552,0 1,-0.447 1,-1"
               style="fill:#0b876d;fill-opacity:1;fill-rule:nonzero;stroke:none;stroke-width:0;stroke-miterlimit:4;stroke-dasharray:none"
               id="path46" /></g><g
             style="fill:#0b876d;fill-opacity:1;stroke-width:0;stroke-miterlimit:4;stroke-dasharray:none"
             id="g48"
             transform="matrix(0.88297531,0,0,0.88297531,20.308521,14.361654)"><path
               inkscape:connector-curvature="0"
               d="m 0,0 c 0,-0.553 -0.447,-1 -1,-1 -0.553,0 -1,0.447 -1,1 0,0.553 0.447,1 1,1 0.553,0 1,-0.447 1,-1"
               style="fill:#0b876d;fill-opacity:1;fill-rule:nonzero;stroke:none;stroke-width:0;stroke-miterlimit:4;stroke-dasharray:none"
               id="path50" /></g></g></g></g></g><g
     id="g863"
     transform="matrix(0.88297531,0,0,0.88297531,2.6069552,5.1641289)"
     style="stroke-width:0.2;stroke-miterlimit:4;stroke-dasharray:none"><g
       transform="matrix(0.93705217,0.05218543,-0.05218543,0.93705217,2.2626457,-0.4312226)"
       id="g4609"
       style="stroke-width:0.21310507;stroke-miterlimit:4;stroke-dasharray:none"><path
         style="fill:#98ff12;fill-opacity:1;stroke:#0f0000;stroke-width:0;stroke-linecap:butt;stroke-linejoin:miter;stroke-miterlimit:4;stroke-dasharray:none;stroke-opacity:1"
         d="m 23.458984,-4.8125 c 0,0 -1.288349,-1.1793164 -3.933593,-1.1503906 -2.645244,0.028926 -3.521383,1.1575098 -3.816407,1.5507812 -0.33657,0.4486533 -0.317987,0.38634 -0.726562,1.1503906 l 0.387788,7.7768573 5.532134,6.3168925 c 1.201868,-0.182077 2.049863,-0.16504 3.470703,-0.01367 l 3.401587,-8.595569 z"
         transform="matrix(1.0638768,-0.05924843,0.05924843,1.0638768,-2.3432696,0.71394731)"
         id="path869"
         inkscape:connector-curvature="0"
         sodipodi:nodetypes="csscccccc"
         inkscape:export-xdpi="411.67102"
         inkscape:export-ydpi="411.67102" /><path
         sodipodi:nodetypes="cccccscccccc"
         style="fill:#fa3a26;fill-opacity:1;stroke:#0f0000;stroke-width:0;stroke-linecap:butt;stroke-linejoin:miter;stroke-miterlimit:4;stroke-dasharray:none;stroke-opacity:1"
         d="m 22.329635,-5.7959156 c -1.177782,2.7475422 2.021966,7.1320415 2.153098,10.4171099 0.02226,3.3636914 -0.25605,6.1584307 -0.25605,6.1584307 1.625606,0.154304 3.373733,-0.192745 4.259082,-0.15261 0,0 2.666653,-7.984955 4.029421,-10.461996 0,0 1.484487,-2.628795 3.304688,-0.808594 1.8202,1.820201 1.176642,1.55793738 2.560547,2.695313 l 1.078124,-0.875 c -0.665417,-2.5098953 1.363746,-4.8719577 -1.687585,-6.1730228 -3.679886,-1.1394123 -5.334137,1.164084 -8.935461,0.6788818 -2.31197,-0.3575211 -6.50586,-1.4785156 -6.50586,-1.4785156 z"
         id="path4578"
         inkscape:connector-curvature="0"
         inkscape:export-xdpi="411.67102"
         inkscape:export-ydpi="411.67102" /><path
         sodipodi:nodetypes="ccccccccsc"
         inkscape:connector-curvature="0"
         id="path4583"
         d="m 16.501558,11.758476 c 1.728506,-0.296705 4.034211,-0.759514 4.034211,-0.759514 0,0 -2.087186,-2.8916276 -2.547214,-6.6256326 C 17.411042,1.070334 15.291182,-2.834863 13.403567,-3.643841 10.56545,-0.94966632 6.84426,-2.5857143 2.482362,1.681931 1.2758654,3.0561861 0.55742914,4.5399987 -0.37618239,6.954433 L 1.4782914,7.9319494 C 2.6984786,6.1807081 6.0513776,4.4529466 9.1938416,4.0829541 c 2.5449354,-0.052557 3.8320244,0.9419462 4.5567334,2.1722672 0.72471,1.230321 2.750983,5.5032547 2.750983,5.5032547 z"
         style="fill:#267bfa;fill-opacity:1;stroke:#0f0000;stroke-width:0;stroke-linecap:butt;stroke-linejoin:miter;stroke-miterlimit:4;stroke-dasharray:none;stroke-opacity:1"
         inkscape:export-xdpi="411.67102"
         inkscape:export-ydpi="411.67102" /><path
         style="fill:#ffe612;fill-opacity:1;stroke:#0f0000;stroke-width:0;stroke-linecap:butt;stroke-linejoin:miter;stroke-miterlimit:4;stroke-dasharray:none;stroke-opacity:1"
         d="m 38.380421,2.051738 c 0,0 -0.662913,2.320194 1.038563,2.607456 1.701476,0.287262 2.850524,-0.309359 2.894718,-1.171145 0.0442,-0.861787 -0.06629,-1.966641 -1.016466,-2.276 -0.950174,-0.30936 -2.342291,-0.30936 -2.916815,0.839689 z"
         id="path4600"
         inkscape:connector-curvature="0"
         inkscape:export-xdpi="411.67102"
         inkscape:export-ydpi="411.67102" /><path
         inkscape:export-ydpi="411.67102"
         inkscape:export-xdpi="411.67102"
         inkscape:connector-curvature="0"
         id="path852"
         d="m -1.6804357,7.7724585 c 0,0 -0.662913,2.3201945 1.03856294,2.6074565 1.70147606,0.287262 2.85052406,-0.309359 2.89471806,-1.1711452 0.0442,-0.8617873 -0.06629,-1.9666413 -1.016466,-2.2760003 -0.95017406,-0.30936 -2.342291,-0.30936 -2.916815,0.839689 z"
         style="fill:#ffe612;fill-opacity:1;stroke:#0f0000;stroke-width:0;stroke-linecap:butt;stroke-linejoin:miter;stroke-miterlimit:4;stroke-dasharray:none;stroke-opacity:1"
         sodipodi:nodetypes="csccc" /></g></g></svg>