<svg xmlns="http://www.w3.org/2000/svg" viewBox="0 0 2356.27 2356.27"><defs><style>.cls-1{fill:#662113;}.cls-2{fill:#ffe8b6;}.cls-3{fill:#d99e82;}.cls-4{fill:#fff;}.cls-5{fill:#292f33;}.cls-6{fill:#c1694f;}.cls-7{fill:none;}</style></defs><g id="Ebene_2" data-name="Ebene 2"><g id="Ebene_1-2" data-name="Ebene 1"><path class="cls-1" d="M538.92,2052.2s764.53-10.8,1333-3.2c497.46,6.68,557.51-737.87,421.13-1035.35-93.66-204.32-256-351.5-405.29-351.5S615.39,686.88,466.08,686.88c-209,0-427.6,158.55-462.28,592.69C-30.46,1707.89,168.46,2052.13,538.92,2052.2Z"/><path class="cls-2" d="M1858.75,1424.1c0,207.93-224.76,334.66-502,334.66s-502-126.73-502-334.66,224.76-418.33,502-418.33S1858.75,1216.16,1858.75,1424.1Z"/><path class="cls-3" d="M1740.36,1164.06a167.26,167.26,0,0,0-104.72-297.74c-79.79,0-146.42,55.89-163.18,130.66A327.24,327.24,0,0,0,1241,997c-16.76-74.77-83.39-130.66-163.18-130.66a167.26,167.26,0,0,0-104.72,297.74c-73.76,74.74-118.39,167.59-118.39,260,0,207.93,224.76,27.89,502,27.89s502,180,502-27.89C1858.75,1331.65,1814.12,1238.8,1740.36,1164.06Z"/><circle class="cls-4" cx="1063.92" cy="1019.71" r="97.61"/><circle class="cls-5" cx="1063.92" cy="1019.71" r="41.83"/><circle class="cls-4" cx="1649.58" cy="1019.71" r="97.61"/><circle class="cls-5" cx="1649.58" cy="1019.71" r="41.83"/><circle class="cls-6" cx="1245.19" cy="1368.32" r="27.89"/><circle class="cls-6" cx="1468.3" cy="1368.32" r="27.89"/><path class="cls-6" d="M52.76,1135.38c-65.66,288.1,11.09,622.47,156.85,762.25,171,164,385.88,143,517.92-105.74,137.52-259,150.24-698.79-72.91-966.57C435.74,562.73,126.67,811.25,52.76,1135.38Z"/><path class="cls-2" d="M101.94,1165.58c-57,250.16,9.81,540.25,136.16,661.77,164.66,158.33,350.93,131.83,449.64-91.82,107.73-244.25,130.4-606.62-63.32-839.07C434.39,668.48,166,884.23,101.94,1165.58Z"/><path class="cls-1" d="M1541.09,676.86c-244-46.76-422.27-240.34-549.26-337.27s-286.9,29.06-249.59,86.63C765,461.39,879.26,610.06,941.51,697,941.51,697,1785.06,723.7,1541.09,676.86Z"/><ellipse class="cls-6" cx="855.26" cy="393.83" rx="82.93" ry="50.17" transform="translate(-71.81 229.19) rotate(-14.65)"/><path class="cls-3" d="M687.88,1482c-20.68,118.18-129.48,357.53-255.13,374.3-118.61,15.71-246-155-286.11-318.16-38.87-157.69-12.65-328.54,76-493.84,61.69-115.12,134.17-145,184.13-149.87,62.61-6,125.43,23.45,172.34,80.87,63.67,78,117.82,238.85,117.82,398.54A628.5,628.5,0,0,1,687.88,1482ZM215.65,1521.2c34.46,140.14,139.36,273.74,207.72,264.65,70.71-9.53,172.76-191.88,194.51-316,29-164.66-25.16-365.49-93.81-449.57-31.62-38.73-71.92-58.84-110.43-55.07-46.91,4.55-91.32,43.49-128.35,112.64-56.35,105.18-85,212.27-85,315.39A532.14,532.14,0,0,0,215.65,1521.2Z"/><path class="cls-3" d="M537.29,1427.46c-12.44,74.69-31.27,187.47-139.57,191.67-69.93,2.55-123.8-105.47-131.69-184-7.18-69.36,14.71-171.56,38.66-216.26,31.63-58.91,70.43-74.4,97.43-77,34.54-3.34,68.72,12.36,93.88,43.14,30.06,36.74,47.12,102.12,47.12,172.19A428.14,428.14,0,0,1,537.29,1427.46Zm-200.55.57c6,59.84,43.14,117.19,58.28,120,38.66-1.42,55.57-32.34,72.2-132.25,13.22-80-2.91-157.27-26.3-185.84-9.73-11.87-21.67-18.34-32-17.34-13.58,1.28-28.72,15.85-41.58,39.8-14.35,26.86-31.62,97.5-31.62,153.64C335.75,1413.67,336.1,1421.07,336.74,1428Z"/><path class="cls-5" d="M2325.16,1120.67l-468.6-34.82,446.43-28.5ZM2132,1956.55l-468.61-34.83,522.47-12.64Z"/><path class="cls-6" d="M1808.8,867l-335.57-31.62-354.62-6.4,326.12-50.6Zm294.71,712.8-247-77.65,430.58,30.17Zm-969.91,251a59,59,0,0,1-23.66,1.35l-254-36.31,449.63-9.52Z"/><rect class="cls-7" width="2356.27" height="2356.27"/></g></g></svg>