<?xml version="1.0" encoding="utf-8"?>
<!-- Generator: Adobe Illustrator 25.0.0, SVG Export Plug-In . SVG Version: 6.00 Build 0)  -->
<svg version="1.1" id="Ebene_1" xmlns="http://www.w3.org/2000/svg" xmlns:xlink="http://www.w3.org/1999/xlink" x="0px" y="0px"
	 viewBox="0 0 2356.3 2356.3" style="enable-background:new 0 0 2356.3 2356.3;" xml:space="preserve">
<style type="text/css">
	.st0{fill:#662113;}
	.st1{fill:#FFE8B6;}
	.st2{fill:#D99E82;}
	.st3{fill:#FFFFFF;}
	.st4{fill:#292F33;}
	.st5{fill:#C1694F;}
	.st6{fill:none;}
</style>
<g id="Ebene_2_1_">
	<g id="Ebene_1-2">
		<path class="st0" d="M538.9,2052.2c0,0,764.5-10.8,1333-3.2c497.5,6.7,557.5-737.9,421.1-1035.3
			c-93.7-204.3-256-351.5-405.3-351.5S615.4,686.9,466.1,686.9c-209,0-427.6,158.5-462.3,592.7
			C-30.5,1707.9,168.5,2052.1,538.9,2052.2z"/>
		<path class="st1" d="M1858.8,1424.1c0,207.9-224.8,334.7-502,334.7s-502-126.7-502-334.7s224.8-418.3,502-418.3
			S1858.8,1216.2,1858.8,1424.1z"/>
		<path class="st2" d="M1740.4,1164.1c72.1-57.8,83.6-163.1,25.8-235.1c-31.8-39.6-79.8-62.6-130.6-62.6
			c-79.8,0-146.4,55.9-163.2,130.7c-74.6-28.2-156.9-28.2-231.5,0c-16.8-74.8-83.4-130.7-163.2-130.7
			c-92.4,0-167.3,74.8-167.3,167.2c0,50.8,23,98.8,62.6,130.6c-73.8,74.7-118.4,167.6-118.4,260c0,207.9,224.8,27.9,502,27.9
			s502,180,502-27.9C1858.8,1331.7,1814.1,1238.8,1740.4,1164.1z"/>
		<circle class="st3" cx="1063.9" cy="1019.7" r="97.6"/>
		
			<ellipse transform="matrix(0.1602 -0.9871 0.9871 0.1602 -113.0441 1906.5526)" class="st4" cx="1063.9" cy="1019.7" rx="41.8" ry="41.8"/>
		<circle class="st3" cx="1649.6" cy="1019.7" r="97.6"/>
		<circle class="st4" cx="1649.6" cy="1019.7" r="41.8"/>
		<circle class="st5" cx="1245.2" cy="1368.3" r="27.9"/>
		<circle class="st5" cx="1468.3" cy="1368.3" r="27.9"/>
		<path class="st5" d="M52.8,1135.4c-65.7,288.1,11.1,622.5,156.9,762.2c171,164,385.9,143,517.9-105.7
			c137.5-259,150.2-698.8-72.9-966.6C435.7,562.7,126.7,811.2,52.8,1135.4z"/>
		<path class="st1" d="M101.9,1165.6c-57,250.2,9.8,540.2,136.2,661.8c164.7,158.3,350.9,131.8,449.6-91.8
			c107.7-244.2,130.4-606.6-63.3-839.1C434.4,668.5,166,884.2,101.9,1165.6z"/>
		<path class="st0" d="M1541.1,676.9c-244-46.8-422.3-240.3-549.3-337.3s-286.9,29.1-249.6,86.6c22.8,35.2,137,183.8,199.3,270.8
			C941.5,697,1785.1,723.7,1541.1,676.9z"/>
		
			<ellipse transform="matrix(0.9675 -0.2529 0.2529 0.9675 -71.8199 229.1108)" class="st5" cx="855.2" cy="393.9" rx="82.9" ry="50.2"/>
		<path class="st2" d="M687.9,1482c-20.7,118.2-129.5,357.5-255.1,374.3c-118.6,15.7-246-155-286.1-318.2
			c-38.9-157.7-12.6-328.5,76-493.8c61.7-115.1,134.2-145,184.1-149.9c62.6-6,125.4,23.5,172.3,80.9
			c63.7,78,117.8,238.8,117.8,398.5C697,1410.1,694,1446.3,687.9,1482z M215.6,1521.2c34.5,140.1,139.4,273.7,207.7,264.7
			c70.7-9.5,172.8-191.9,194.5-316c29-164.7-25.2-365.5-93.8-449.6c-31.6-38.7-71.9-58.8-110.4-55.1
			c-46.9,4.5-91.3,43.5-128.4,112.6c-56.4,105.2-85,212.3-85,315.4C200.2,1436.4,205.4,1479.3,215.6,1521.2z"/>
		<path class="st2" d="M537.3,1427.5c-12.4,74.7-31.3,187.5-139.6,191.7c-69.9,2.6-123.8-105.5-131.7-184
			c-7.2-69.4,14.7-171.6,38.7-216.3c31.6-58.9,70.4-74.4,97.4-77c34.5-3.3,68.7,12.4,93.9,43.1c30.1,36.7,47.1,102.1,47.1,172.2
			C543.1,1380.7,541.2,1404.2,537.3,1427.5z M336.7,1428c6,59.8,43.1,117.2,58.3,120c38.7-1.4,55.6-32.3,72.2-132.2
			c13.2-80-2.9-157.3-26.3-185.8c-9.7-11.9-21.7-18.3-32-17.3c-13.6,1.3-28.7,15.8-41.6,39.8c-14.4,26.9-31.6,97.5-31.6,153.6
			C335.8,1413.7,336.1,1421.1,336.7,1428L336.7,1428z"/>
		<path class="st4" d="M2325.2,1120.7l-468.6-34.8l446.4-28.5L2325.2,1120.7z M2132,1956.6l-468.6-34.8l522.5-12.6L2132,1956.6z"/>
		<path class="st5" d="M1808.8,867l-335.6-31.6l-354.6-6.4l326.1-50.6L1808.8,867z M2103.5,1579.8l-247-77.7l430.6,30.2
			L2103.5,1579.8z M1133.6,1830.8c-7.7,2-15.8,2.5-23.7,1.3l-254-36.3l449.6-9.5L1133.6,1830.8z"/>
		<rect y="0" class="st6" width="2356.3" height="2356.3"/>
	</g>
</g>
</svg>
