<svg xmlns="http://www.w3.org/2000/svg" viewBox="0 0 22.42 33"><defs><style>.cls-1{fill:#5c913b;}.cls-2{fill:#77b255;}</style></defs><g id="Ebene_2" data-name="Ebene 2"><g id="Ebene_1-2" data-name="Ebene 1"><path class="cls-1" d="M11,29.62,2.85,22,4,14a2,2,0,0,1,1.18-1.82L9,13a2,2,0,0,1,1.18-1.82l3.72.8.1,0V3a2,2,0,0,1,1.18-1.82l3.61,13.66L19,15c.92,0,1.72,2,1.72,2h0Z"/><path class="cls-2" d="M9,15.78A3,3,0,0,0,8,18a3,3,0,0,0,.74,2A2,2,0,0,1,7,21a2,2,0,0,1-2-2V13a2,2,0,0,1,.18-.82A2,2,0,0,1,9,13Z"/><path class="cls-2" d="M0,5A2,2,0,0,1,4,5V19a3,3,0,0,0,5,2.22,3.48,3.48,0,0,0,.53-.62h0A2.2,2.2,0,0,0,11,21h2.54a8.77,8.77,0,0,0-3,7,.5.5,0,0,0,1,0c0-3.86,2.19-7,4.88-7,.71.08.84-1,.12-1H11a2,2,0,0,1,0-4h8a2,2,0,0,1,1.73,1,2.3,2.3,0,0,1,.18.4L22,21a10,10,0,0,1,.41,2.19C22.41,28,17.72,33,12,33A12,12,0,0,1,0,21S0,5,0,5Z"/><path class="cls-2" d="M14,15H11a3.05,3.05,0,0,0-1,.18V12a2,2,0,0,1,.18-.82A2,2,0,0,1,14,12Zm1,0V2a2,2,0,0,1,.18-.82A2,2,0,0,1,17,0a2,2,0,0,1,2,2V15Z"/></g></g></svg>