<?xml version="1.0" encoding="utf-8"?>
<!-- Generator: Adobe Illustrator 25.0.0, SVG Export Plug-In . SVG Version: 6.00 Build 0)  -->
<svg version="1.1"
	 id="svg2" xmlns:cc="http://creativecommons.org/ns#" xmlns:dc="http://purl.org/dc/elements/1.1/" xmlns:inkscape="http://www.inkscape.org/namespaces/inkscape" xmlns:rdf="http://www.w3.org/1999/02/22-rdf-syntax-ns#" xmlns:sodipodi="http://sodipodi.sourceforge.net/DTD/sodipodi-0.dtd" xmlns:svg="http://www.w3.org/2000/svg"
	 xmlns="http://www.w3.org/2000/svg" xmlns:xlink="http://www.w3.org/1999/xlink" x="0px" y="0px" viewBox="0 0 191.7 191.6"
	 style="enable-background:new 0 0 191.7 191.6;" xml:space="preserve">
<style type="text/css">
	.st0{fill:#C6E5B3;}
	.st1{clip-path:url(#SVGID_2_);}
	.st2{fill:#00388B;}
	.st3{fill:#FDFDFD;}
	.st4{fill:#6E00D6;}
	.st5{fill:#101010;}
	.st6{fill:#0000FD;}
	.st7{fill:#FD00FC;}
	.st8{fill:#00FCFD;}
	.st9{fill:#FFFFFF;}
	.st10{clip-path:url(#SVGID_4_);}
	.st11{fill:#FBFB00;}
	.st12{fill:#00FA00;}
	.st13{fill:#FD0000;}
</style>
<rect x="-27.1" y="-25.2" class="st0" width="238.7" height="241.8"/>
<g>
	<g>
		<defs>
			<path id="SVGID_1_" d="M191.6,119.7c-1.8,38.1-44,61.3-95.7,61.3S2,157.9,0.1,119.7c1.9,35.5,44.1,2.7,95.8,2.7
				C147.5,122.4,189.7,155.2,191.6,119.7z"/>
		</defs>
		<clipPath id="SVGID_2_">
			<use xlink:href="#SVGID_1_"  style="overflow:visible;"/>
		</clipPath>
		<g class="st1">
			<rect x="0" y="140.8" class="st2" width="31.3" height="50.8"/>
			<rect x="31.3" y="140.8" class="st3" width="31.3" height="50.8"/>
			<rect x="62.6" y="140.8" class="st4" width="31.3" height="50.8"/>
			<rect x="94" y="140.8" width="31.4" height="50.8"/>
			<rect x="125.3" y="140.8" class="st5" width="16.8" height="50.8"/>
			<g id="rect1427_2_">
				<rect x="142.1" y="140.7" width="49.5" height="50.8"/>
			</g>
		</g>
		<g class="st1">
			<rect x="0" y="120.7" class="st6" width="27.4" height="20"/>
			<rect x="27.4" y="120.7" width="27.4" height="20"/>
			<rect x="54.7" y="120.7" class="st7" width="27.4" height="20"/>
			<rect x="82.1" y="120.7" width="27.3" height="20"/>
			<rect x="109.5" y="120.7" class="st8" width="27.4" height="20"/>
			<rect x="136.8" y="120.7" width="27.4" height="20"/>
			<rect x="164.2" y="120.7" class="st9" width="27.4" height="20"/>
		</g>
	</g>
	<g>
		<g>
			<defs>
				<path id="SVGID_3_" d="M169,67.4c7.3-5.9,12-14.8,12-24.9c0-17.6-14.3-31.9-31.9-31.9c-15.2,0-27.9,10.7-31.1,24.9
					c-6.9-2.6-14.3-4-22.1-4s-15.2,1.5-22.1,4c-3.2-14.3-15.9-24.9-31.1-24.9c-17.6,0-31.9,14.3-31.9,31.9c0,10.1,4.7,19,12,24.9
					C8.7,81.7,0.2,99.4,0.2,117c0,39.7,42.9,5.3,95.8,5.3s95.8,34.4,95.8-5.3C191.6,99.4,183.1,81.7,169,67.4z"/>
			</defs>
			<clipPath id="SVGID_4_">
				<use xlink:href="#SVGID_3_"  style="overflow:visible;"/>
			</clipPath>
			<g class="st10">
				<rect x="0" y="-0.1" class="st3" width="27.4" height="140.7"/>
				<rect x="27.4" y="-0.1" class="st11" width="27.4" height="140.7"/>
				<rect x="54.7" y="-0.1" class="st8" width="27.4" height="140.7"/>
				<rect x="82.1" y="-0.1" class="st12" width="27.3" height="140.7"/>
				<rect x="109.5" y="-0.1" class="st7" width="27.4" height="140.7"/>
				<rect x="136.8" y="-0.1" class="st13" width="27.4" height="140.7"/>
				<rect x="164.2" y="-0.1" class="st6" width="27.4" height="140.7"/>
			</g>
		</g>
	</g>
	<g>
		<circle cx="39.9" cy="39.9" r="18.6"/>
		<circle class="st3" cx="39.9" cy="39.9" r="8"/>
		<circle class="st9" cx="151.7" cy="39.9" r="18.6"/>
		<circle cx="151.7" cy="39.9" r="8"/>
		<circle class="st7" cx="74.5" cy="106.4" r="5.3"/>
		<circle class="st8" cx="117.1" cy="106.4" r="5.3"/>
	</g>
</g>
</svg>
