<svg xmlns="http://www.w3.org/2000/svg" viewBox="0 0 1893.48 1893.48"><defs><style>.cls-1{fill:#c6e5b3;}.cls-2{fill:#77b255;}.cls-3{fill:#fff;}.cls-4{fill:#a2de9b;}.cls-5{fill:#292f33;}.cls-6{fill:#5c913b;}.cls-7{fill:none;}</style></defs><g id="Ebene_2" data-name="Ebene 2"><g id="Ebene_1-2" data-name="Ebene 1"><path class="cls-1" d="M1420.11,1735.69c0,116.18-94.2,157.79-210.39,157.79h-526c-116.19,0-210.39-41.61-210.39-157.79s157.79-368.18,157.79-683.76,631.16-315.58,631.16,0S1420.11,1619.5,1420.11,1735.69Z"/><path class="cls-2" d="M1823.31,588.5l0-.1a943.18,943.18,0,0,0-221.32-325.15h-.16C1431.79,100.14,1201.25,0,946.74,0,717.31,0,507,81.05,343.14,216.44A944.94,944.94,0,0,0,0,946.74c0,116.19,94.2,210.39,210.39,210.39h415.1c238.47-58.68,451.67-56.33,642.5,0h415.1c116.19,0,210.39-94.2,210.39-210.39A947.59,947.59,0,0,0,1823.31,588.5Z"/><path class="cls-3" d="M405.41,872.21c182.78,0,330.94-148.16,330.94-330.94S588.24,210.39,405.41,210.39a332.84,332.84,0,0,0-62.27,6.05,944.67,944.67,0,0,0-267,356.86C92.25,741,233.48,872.21,405.41,872.21Z"/><path class="cls-3" d="M405.41,223.54c175.2,0,317.74,142.53,317.74,317.78S580.61,859.11,405.41,859.11C242,859.11,106.77,737.4,89.52,575.41A934.8,934.8,0,0,1,348.87,228.8a313,313,0,0,1,56.54-5.26m0-13.15a332.84,332.84,0,0,0-62.27,6.05,944.67,944.67,0,0,0-267,356.86C92.25,741,233.53,872.21,405.47,872.21c182.77,0,330.88-148.16,330.88-330.94S588.24,210.39,405.41,210.39Zm962.1,289.28c0,130.7,106,236.68,236.69,236.68,99.25,0,183.93-61.22,219.11-147.85l0-.1a943.18,943.18,0,0,0-221.32-325.15C1472.28,264.46,1367.51,369.7,1367.51,499.67Z"/><circle class="cls-4" cx="1130.83" cy="841.55" r="236.68"/><circle class="cls-4" cx="1051.93" cy="262.98" r="157.79"/><circle class="cls-5" cx="350.23" cy="540.66" r="87.18"/><circle class="cls-5" cx="1588.72" cy="540.54" r="86.68"/><ellipse class="cls-6" cx="708.21" cy="1000.91" rx="58.28" ry="58.33" transform="translate(-500.32 793.94) rotate(-45)"/><circle class="cls-6" cx="1179.21" cy="1000.01" r="58.17"/><rect class="cls-7" width="1893.48" height="1893.48"/></g></g></svg>