<?xml version="1.0" encoding="utf-8"?>
<!-- Generator: Adobe Illustrator 25.0.0, SVG Export Plug-In . SVG Version: 6.00 Build 0)  -->
<svg version="1.1" id="Ebene_1" xmlns="http://www.w3.org/2000/svg" xmlns:xlink="http://www.w3.org/1999/xlink" x="0px" y="0px"
	 viewBox="0 0 1893.5 1893.5" style="enable-background:new 0 0 1893.5 1893.5;" xml:space="preserve">
<style type="text/css">
	.st0{fill:#C6E5B3;}
	.st1{fill:#77B255;}
	.st2{fill:#FFFFFF;}
	.st3{fill:#A2DE9B;}
	.st4{fill:#292F33;}
	.st5{fill:#5C913B;}
	.st6{fill:none;}
</style>
<g id="Ebene_2_1_">
	<g id="Ebene_1-2">
		<path class="st0" d="M1420.1,1735.7c0,116.2-94.2,157.8-210.4,157.8h-526c-116.2,0-210.4-41.6-210.4-157.8
			s157.8-368.2,157.8-683.8s631.2-315.6,631.2,0S1420.1,1619.5,1420.1,1735.7z"/>
		<path class="st1" d="M1823.3,588.5L1823.3,588.5c-50.1-122.8-125.5-233.6-221.3-325.2h-0.2C1431.8,100.1,1201.2,0,946.7,0
			C717.3,0,507,81,343.1,216.4C125.3,396.3-0.5,664.3,0,946.7c0,116.2,94.2,210.4,210.4,210.4h415.1c238.5-58.7,451.7-56.3,642.5,0
			h415.1c116.2,0,210.4-94.2,210.4-210.4C1893.5,823.9,1869.7,702.2,1823.3,588.5z"/>
		<path class="st2" d="M405.4,872.2c182.8,0,330.9-148.2,330.9-330.9S588.2,210.4,405.4,210.4c-20.9,0.1-41.7,2.1-62.3,6.1
			c-116.2,96-207.7,218.3-267,356.9C92.2,741,233.5,872.2,405.4,872.2z"/>
		<path class="st2" d="M405.4,223.5c175.2,0,317.7,142.5,317.7,317.8S580.6,859.1,405.4,859.1c-163.4,0-298.6-121.7-315.9-283.7
			c58.1-134.2,147-253,259.4-346.6C367.5,225.3,386.4,223.6,405.4,223.5 M405.4,210.4c-20.9,0.1-41.7,2.1-62.3,6.1
			c-116.2,96-207.7,218.3-267,356.9C92.2,741,233.5,872.2,405.5,872.2c182.8,0,330.9-148.2,330.9-330.9S588.2,210.4,405.4,210.4
			L405.4,210.4z M1367.5,499.7c0,130.7,106,236.7,236.7,236.7c99.2,0,183.9-61.2,219.1-147.8v-0.1
			c-50.1-122.7-125.5-233.5-221.3-325.1C1472.3,264.5,1367.5,369.7,1367.5,499.7z"/>
		<circle class="st3" cx="1130.8" cy="841.5" r="236.7"/>
		<circle class="st3" cx="1051.9" cy="263" r="157.8"/>
		<circle class="st4" cx="350.2" cy="540.7" r="87.2"/>
		<circle class="st4" cx="1588.7" cy="540.5" r="86.7"/>
		
			<ellipse transform="matrix(0.7071 -0.7071 0.7071 0.7071 -500.3203 793.9401)" class="st5" cx="708.2" cy="1000.9" rx="58.3" ry="58.3"/>
		<circle class="st5" cx="1179.2" cy="1000" r="58.2"/>
		<rect y="0" class="st6" width="1893.5" height="1893.5"/>
	</g>
</g>
</svg>
