<?xml version="1.0" encoding="UTF-8" standalone="no"?>
<svg
   inkscape:export-ydpi="1092"
   inkscape:export-xdpi="1092"
   inkscape:version="1.1 (c4e8f9ed74, 2021-05-24)"
   sodipodi:docname="nbfrogtest.svg"
   id="svg2"
   version="1.1"
   xml:space="preserve"
   style="enable-background:new 0 0 45 45;"
   viewBox="0 0 45 45"
   inkscape:export-filename="/home/dodogta/Documents/Image edits/nbfrogtest.png"
   xmlns:inkscape="http://www.inkscape.org/namespaces/inkscape"
   xmlns:sodipodi="http://sodipodi.sourceforge.net/DTD/sodipodi-0.dtd"
   xmlns="http://www.w3.org/2000/svg"
   xmlns:svg="http://www.w3.org/2000/svg"
   xmlns:rdf="http://www.w3.org/1999/02/22-rdf-syntax-ns#"
   xmlns:cc="http://creativecommons.org/ns#"
   xmlns:dc="http://purl.org/dc/elements/1.1/"><sodipodi:namedview
     inkscape:current-layer="svg2"
     inkscape:window-maximized="1"
     inkscape:window-y="0"
     inkscape:window-x="0"
     inkscape:cy="29.4375"
     inkscape:cx="26.90625"
     inkscape:zoom="16"
     showgrid="false"
     id="namedview3296"
     inkscape:window-height="1011"
     inkscape:window-width="1920"
     inkscape:pageshadow="2"
     inkscape:pageopacity="0"
     guidetolerance="10"
     gridtolerance="10"
     objecttolerance="10"
     borderopacity="1"
     bordercolor="#666666"
     pagecolor="#ffffff"
     inkscape:pagecheckerboard="0" /><metadata
     id="metadata8"><rdf:RDF><cc:Work
         rdf:about=""><dc:format>image/svg+xml</dc:format><dc:type
           rdf:resource="http://purl.org/dc/dcmitype/StillImage" /><dc:title /></cc:Work></rdf:RDF></metadata><defs
     id="defs6"><clipPath
       clipPathUnits="userSpaceOnUse"
       id="clipPath16"><path
         d="M 0,36 36,36 36,0 0,0 0,36 Z"
         id="path18" /></clipPath><clipPath
       id="clipPath3958"
       clipPathUnits="userSpaceOnUse"><path
         id="path3960"
         style="fill:#77b255;fill-opacity:1;fill-rule:nonzero;stroke:none;stroke-width:1.25"
         d="m 39.693625,15.84475 c 1.71,-1.375 2.80625,-3.48125 2.80625,-5.845 0,-4.14125 -3.3575,-7.5 -7.5,-7.5 -3.57625,0 -6.5625,2.50625 -7.3125,5.85625 -1.61125,-0.60375 -3.355,-0.9475 -5.1875,-0.9475 -1.83125,0 -3.57625,0.34375 -5.18625,0.9475 -0.75125,-3.35 -3.7375,-5.85625 -7.31375,-5.85625 -4.14125,0 -7.5,3.35875 -7.5,7.5 0,2.36375 1.0975,4.47 2.80625,5.845 -3.30625,3.35 -5.30625,7.51125 -5.30625,11.655 0,9.32 10.07375,1.25 22.5,1.25 12.4275,0 22.5,8.07 22.5,-1.25 0,-4.14375 -1.99875,-8.305 -5.30625,-11.655" /></clipPath><clipPath
       id="clipPath3962"
       clipPathUnits="userSpaceOnUse"><path
         d="m 39.693625,15.84475 c 1.71,-1.375 2.80625,-3.48125 2.80625,-5.845 0,-4.14125 -3.3575,-7.5 -7.5,-7.5 -3.57625,0 -6.5625,2.50625 -7.3125,5.85625 -1.61125,-0.60375 -3.355,-0.9475 -5.1875,-0.9475 -1.83125,0 -3.57625,0.34375 -5.18625,0.9475 -0.75125,-3.35 -3.7375,-5.85625 -7.31375,-5.85625 -4.14125,0 -7.5,3.35875 -7.5,7.5 0,2.36375 1.0975,4.47 2.80625,5.845 -3.30625,3.35 -5.30625,7.51125 -5.30625,11.655 0,9.32 10.07375,1.25 22.5,1.25 12.4275,0 22.5,8.07 22.5,-1.25 0,-4.14375 -1.99875,-8.305 -5.30625,-11.655"
         style="fill:#77b255;fill-opacity:1;fill-rule:nonzero;stroke:none;stroke-width:1.25"
         id="path3964" /></clipPath><clipPath
       id="clipPath3966"
       clipPathUnits="userSpaceOnUse"><path
         id="path3968"
         style="fill:#77b255;fill-opacity:1;fill-rule:nonzero;stroke:none;stroke-width:1.25"
         d="m 39.693625,15.84475 c 1.71,-1.375 2.80625,-3.48125 2.80625,-5.845 0,-4.14125 -3.3575,-7.5 -7.5,-7.5 -3.57625,0 -6.5625,2.50625 -7.3125,5.85625 -1.61125,-0.60375 -3.355,-0.9475 -5.1875,-0.9475 -1.83125,0 -3.57625,0.34375 -5.18625,0.9475 -0.75125,-3.35 -3.7375,-5.85625 -7.31375,-5.85625 -4.14125,0 -7.5,3.35875 -7.5,7.5 0,2.36375 1.0975,4.47 2.80625,5.845 -3.30625,3.35 -5.30625,7.51125 -5.30625,11.655 0,9.32 10.07375,1.25 22.5,1.25 12.4275,0 22.5,8.07 22.5,-1.25 0,-4.14375 -1.99875,-8.305 -5.30625,-11.655" /></clipPath><clipPath
       id="clipPath3976"
       clipPathUnits="userSpaceOnUse"><path
         d="m 39.693625,15.84475 c 1.71,-1.375 2.80625,-3.48125 2.80625,-5.845 0,-4.14125 -3.3575,-7.5 -7.5,-7.5 -3.57625,0 -6.5625,2.50625 -7.3125,5.85625 -1.61125,-0.60375 -3.355,-0.9475 -5.1875,-0.9475 -1.83125,0 -3.57625,0.34375 -5.18625,0.9475 -0.75125,-3.35 -3.7375,-5.85625 -7.31375,-5.85625 -4.14125,0 -7.5,3.35875 -7.5,7.5 0,2.36375 1.0975,4.47 2.80625,5.845 -3.30625,3.35 -5.30625,7.51125 -5.30625,11.655 0,9.32 10.07375,1.25 22.5,1.25 12.4275,0 22.5,8.07 22.5,-1.25 0,-4.14375 -1.99875,-8.305 -5.30625,-11.655"
         style="fill:#77b255;fill-opacity:1;fill-rule:nonzero;stroke:none;stroke-width:1.25"
         id="path3978" /></clipPath><clipPath
       id="clipPath3984"
       clipPathUnits="userSpaceOnUse"><path
         d="m 45,27.5 c 0,9.32 -10.07375,15 -22.5,15 C 10.07375,42.5 0,36.82 0,27.5 0,18.18 10.07375,8.75 22.5,8.75 34.92625,8.75 45,18.18 45,27.5"
         style="fill:#c6e5b3;fill-opacity:1;fill-rule:nonzero;stroke:none;stroke-width:1.25"
         id="path3986" /></clipPath><clipPath
       id="clipPath3988"
       clipPathUnits="userSpaceOnUse"><path
         id="path3990"
         style="fill:#c6e5b3;fill-opacity:1;fill-rule:nonzero;stroke:none;stroke-width:1.25"
         d="m 45,27.5 c 0,9.32 -10.07375,15 -22.5,15 C 10.07375,42.5 0,36.82 0,27.5 0,18.18 10.07375,8.75 22.5,8.75 34.92625,8.75 45,18.18 45,27.5" /></clipPath><clipPath
       id="clipPath3992"
       clipPathUnits="userSpaceOnUse"><path
         d="m 45,27.5 c 0,9.32 -10.07375,15 -22.5,15 C 10.07375,42.5 0,36.82 0,27.5 0,18.18 10.07375,8.75 22.5,8.75 34.92625,8.75 45,18.18 45,27.5"
         style="fill:#c6e5b3;fill-opacity:1;fill-rule:nonzero;stroke:none;stroke-width:1.25"
         id="path3994" /></clipPath><clipPath
       id="clipPath4010"
       clipPathUnits="userSpaceOnUse"><path
         id="path4012"
         style="fill:#5c913b;fill-opacity:1;fill-rule:nonzero;stroke:none;stroke-width:1.25"
         d="m 28.75,25 c 0,0.69125 -0.55875,1.25 -1.25,1.25 -0.69125,0 -1.25,-0.55875 -1.25,-1.25 0,-0.69125 0.55875,-1.25 1.25,-1.25 0.69125,0 1.25,0.55875 1.25,1.25" /></clipPath><clipPath
       id="clipPath4016"
       clipPathUnits="userSpaceOnUse"><path
         id="path4018"
         style="fill:#5c913b;fill-opacity:1;fill-rule:nonzero;stroke:none;stroke-width:1.25"
         d="m 18.75,25 c 0,0.69125 -0.56,1.25 -1.25,1.25 -0.69,0 -1.25,-0.55875 -1.25,-1.25 0,-0.69125 0.56,-1.25 1.25,-1.25 0.69,0 1.25,0.55875 1.25,1.25" /></clipPath><clipPath
       id="clipPath4022"
       clipPathUnits="userSpaceOnUse"><path
         d="m 18.75,25 c 0,0.69125 -0.56,1.25 -1.25,1.25 -0.69,0 -1.25,-0.55875 -1.25,-1.25 0,-0.69125 0.56,-1.25 1.25,-1.25 0.69,0 1.25,0.55875 1.25,1.25"
         style="fill:#5c913b;fill-opacity:1;fill-rule:nonzero;stroke:none;stroke-width:1.25"
         id="path4024" /></clipPath><clipPath
       id="clipPath4028"
       clipPathUnits="userSpaceOnUse"><path
         d="m 28.75,25 c 0,0.69125 -0.55875,1.25 -1.25,1.25 -0.69125,0 -1.25,-0.55875 -1.25,-1.25 0,-0.69125 0.55875,-1.25 1.25,-1.25 0.69125,0 1.25,0.55875 1.25,1.25"
         style="fill:#5c913b;fill-opacity:1;fill-rule:nonzero;stroke:none;stroke-width:1.25"
         id="path4030" /></clipPath><clipPath
       id="clipPath16-7"
       clipPathUnits="userSpaceOnUse"><path
         id="path18-9"
         d="M 0,36 H 36 V 0 H 0 Z" /></clipPath></defs><path
     clip-path="url(#clipPath3984)"
     style="fill:#2c2c2c;fill-opacity:1;stroke-width:1.73077"
     fill="#2c2c2c"
     d="M -3.1742132,24.705769 H 59.133479 l 0.523926,19.401011 -61.6092061,0.960693 z"
     id="path6"
     sodipodi:nodetypes="ccccc" /><g
     transform="matrix(1.25,0,0,-1.25,0,45.00025)"
     id="g10" /><path
     clip-path="url(#clipPath3966)"
     style="fill:#9c59d1;fill-opacity:1;stroke-width:1.73077"
     fill="#fad220"
     d="M -4.6583441,20.529898 58.434993,20.616812 59.133479,25 H -3.1742132 Z"
     id="path8"
     sodipodi:nodetypes="ccccc"
     inkscape:export-filename="/home/dodogta/Documents/Image edits/path8.png"
     inkscape:export-xdpi="1092"
     inkscape:export-ydpi="1092" /><path
     clip-path="url(#clipPath3958)"
     style="fill:#fcf434;fill-opacity:1;stroke-width:1.73077"
     fill="#ff000e"
     d="M 52.210403,2.5 H 3.7488636 c -3.82326917,0 -6.8356745,7.2909702 -6.8356745,11.11424 l 0,1.746093 62.6570569,-0.08716 -0.611328,-1.571533 c 0,0 -2.925246,-11.201642 -6.748515,-11.201642 z"
     id="path12"
     sodipodi:nodetypes="sssccss" /><path
     clip-path="url(#clipPath3962)"
     style="fill:#fcfcfc;fill-opacity:1;stroke-width:1.73077"
     fill="#ff5000"
     d="m -3.0868109,15.360333 62.6570569,-0.08716 -0.262206,5.376149 -62.5694114,0.0874 z"
     id="path10"
     sodipodi:nodetypes="ccccc" /><path
     clip-path="url(#clipPath3976)"
     id="path3970"
     d="M -3.1742132,24.705769 H 59.133479 v 7.788462 H -3.1742132 Z"
     fill="#138f3e"
     style="stroke-width:1.73077;fill:#9c59d1;fill-opacity:1" /><path
     d="m 13.75,9.375 c 0,2.41625 -1.95875,4.375 -4.375,4.375 C 6.95875,13.75 5,11.79125 5,9.375 5,6.95875 6.95875,5 9.375,5 11.79125,5 13.75,6.95875 13.75,9.375"
     style="fill:#ffffff;fill-opacity:1;fill-rule:nonzero;stroke:none;stroke-width:1.25"
     id="path30" /><path
     d="m 11.25,9.375 c 0,1.03625 -0.83875,1.875 -1.875,1.875 C 8.33875,11.25 7.5,10.41125 7.5,9.375 7.5,8.33875 8.33875,7.5 9.375,7.5 c 1.03625,0 1.875,0.83875 1.875,1.875"
     style="fill:#292f33;fill-opacity:1;fill-rule:nonzero;stroke:none;stroke-width:1.25"
     id="path34" /><path
     d="m 40,9.375 c 0,2.41625 -1.9575,4.375 -4.375,4.375 -2.4175,0 -4.375,-1.95875 -4.375,-4.375 C 31.25,6.95875 33.2075,5 35.625,5 38.0425,5 40,6.95875 40,9.375"
     style="fill:#ffffff;fill-opacity:1;fill-rule:nonzero;stroke:none;stroke-width:1.25"
     id="path38" /><path
     d="m 37.5,9.375 c 0,1.03625 -0.84,1.875 -1.875,1.875 -1.035,0 -1.875,-0.83875 -1.875,-1.875 0,-1.03625 0.84,-1.875 1.875,-1.875 1.035,0 1.875,0.83875 1.875,1.875"
     style="fill:#292f33;fill-opacity:1;fill-rule:nonzero;stroke:none;stroke-width:1.25"
     id="path42" /><path
     id="path4000"
     d="M -3.1742132,17.211539 H 59.133479 V 25 H -3.1742132 Z"
     fill="#fad220"
     style="stroke-width:1.73077;fill:#8945bd;fill-opacity:1"
     clip-path="url(#clipPath4010)" /><path
     style="stroke-width:1.73077;fill:#8945bd;fill-opacity:1"
     fill="#138f3e"
     d="M -3.1742132,24.705769 H 59.133479 v 7.788462 H -3.1742132 Z"
     id="path4026"
     clip-path="url(#clipPath4028)" /><path
     id="path4014"
     d="M -3.1742132,17.211539 H 59.133479 V 25 H -3.1742132 Z"
     fill="#fad220"
     style="stroke-width:1.73077;fill:#8945bd;fill-opacity:1"
     clip-path="url(#clipPath4016)" /><path
     style="stroke-width:1.73077;fill:#8945bd;fill-opacity:1"
     fill="#138f3e"
     d="M -3.1742132,24.705769 H 59.133479 v 7.788462 H -3.1742132 Z"
     id="path4020"
     clip-path="url(#clipPath4022)" /></svg>
