<?xml version="1.0" encoding="utf-8"?>
<!-- Generator: Adobe Illustrator 25.0.0, SVG Export Plug-In . SVG Version: 6.00 Build 0)  -->
<svg version="1.1" id="Ebene_1" xmlns="http://www.w3.org/2000/svg" xmlns:xlink="http://www.w3.org/1999/xlink" x="0px" y="0px"
	 viewBox="0 0 36 36" style="enable-background:new 0 0 36 36;" xml:space="preserve">
<style type="text/css">
	.st0{fill:#5C913B;}
	.st1{fill:#77B255;}
	.st2{fill:none;}
</style>
<g id="Ebene_2_1_">
	<g id="Ebene_1-2">
		<path class="st0" d="M23.2,20.9l-1.7-6.9l-3.9-8.8C17,4,17.7,2.5,19,2s2.8,0.1,3.3,1.4l6.2,15.8L23.2,20.9z"/>
		<path class="st1" d="M31.6,18.4c-0.5-2.2-1.2-4.4-2-6.5L23.8,1.4c-0.7-1.2-2.2-1.7-3.4-1c-1.1,0.6-1.6,2-1.1,3.2l5.3,9.6l1.4,5.5
			c-1.1-1-2.6-2.4-4-3.6c-1.5-1.4-3.2-2.7-4.9-3.8c-0.6-0.4-1.4-0.5-2.1,0l-5.9,2.6c-0.2,0.1-0.3,0.2-0.4,0.3l-2.3,3.1
			c-0.8,1.1-0.6,2.7,0.5,3.5c1,0.8,2.5,0.6,3.4-0.3c0-0.1,1.8-2.6,1.9-2.6c1.2-0.7,2.5-1.2,3.8-1.4c0.9,0,6.3,6,6.3,6
			c0.2,0.3,0.2,0.6,0.1,0.9l-2.9,5.2c-0.1,0.1-0.2,0.2-0.3,0.3l-2.7,1.5c-0.2,0.1-0.3,0.1-0.5,0.1l-5.3-2.3
			c-0.3-0.1-0.5-0.3-0.6-0.6c-0.5-1.2-0.8-2.4-0.9-3.6c-0.2-1.4-1.5-2.3-2.9-2.1c-1.2,0.2-2,1.1-2.1,2.3c0.3,3.6,2,6.9,4.7,9.3
			c2.5,2.1,5.6,2.9,9.6,2.4c4.6-0.6,7.5-1.2,11.5-9.6C31.1,23.9,31.9,20.2,31.6,18.4z"/>
		<rect y="0" class="st2" width="36" height="36"/>
	</g>
</g>
</svg>
