<svg xmlns="http://www.w3.org/2000/svg" viewBox="0 0 36 36"><defs><style>.cls-1{fill:#5c913b;}.cls-2{fill:#77b255;}.cls-3{fill:none;}</style></defs><g id="Ebene_2" data-name="Ebene 2"><g id="Ebene_1-2" data-name="Ebene 1"><path class="cls-1" d="M23.22,20.94l-1.73-6.86L17.55,5.26a2.52,2.52,0,1,1,4.7-1.82l6.2,15.77Z"/><path class="cls-2" d="M31.57,18.45a50,50,0,0,0-2-6.52L23.79,1.44a2.52,2.52,0,0,0-4.5,2.26l5.33,9.55S26,18.74,26,18.74c-1.07-1-2.6-2.36-4-3.62a32.57,32.57,0,0,0-4.94-3.81A1.85,1.85,0,0,0,15,11.26L9.08,13.82a1.16,1.16,0,0,0-.4.33L6.37,17.24a2.52,2.52,0,0,0,3.86,3.23c0-.06,1.78-2.56,1.94-2.64A12.14,12.14,0,0,1,16,16.41c.9,0,6.28,6,6.28,6a.78.78,0,0,1,.06.9L19.4,28.5a.74.74,0,0,1-.33.3L16.4,30.3a.78.78,0,0,1-.5.07L10.63,28.1a1.13,1.13,0,0,1-.59-.59,12.55,12.55,0,0,1-.9-3.64,2.52,2.52,0,0,0-5,.24A14,14,0,0,0,8.84,33.4c2.53,2.11,5.65,2.93,9.65,2.39C23.1,35.17,26,34.56,30,26.23,31.11,23.93,31.9,20.21,31.57,18.45Z"/><rect class="cls-3" width="36" height="36"/></g></g></svg>