<?xml version="1.0" encoding="UTF-8" standalone="no"?>
<svg
   xmlns:dc="http://purl.org/dc/elements/1.1/"
   xmlns:cc="http://creativecommons.org/ns#"
   xmlns:rdf="http://www.w3.org/1999/02/22-rdf-syntax-ns#"
   xmlns:svg="http://www.w3.org/2000/svg"
   xmlns="http://www.w3.org/2000/svg"
   xmlns:sodipodi="http://sodipodi.sourceforge.net/DTD/sodipodi-0.dtd"
   xmlns:inkscape="http://www.inkscape.org/namespaces/inkscape"
   viewBox="0 0 45 45"
   style="enable-background:new 0 0 45 45;"
   xml:space="preserve"
   version="1.1"
   id="svg2"
   sodipodi:docname="pingufrog.svg"
   inkscape:version="0.92.4 5da689c313, 2019-01-14"
   inkscape:export-filename="/home/stefan/Downloads/frogging/pingufrog.png"
   inkscape:export-xdpi="1706.6666"
   inkscape:export-ydpi="1706.6666"><sodipodi:namedview
     pagecolor="#ffffff"
     bordercolor="#666666"
     borderopacity="1"
     objecttolerance="10"
     gridtolerance="10"
     guidetolerance="10"
     inkscape:pageopacity="0"
     inkscape:pageshadow="2"
     inkscape:window-width="1920"
     inkscape:window-height="1027"
     id="namedview26"
     showgrid="false"
     inkscape:zoom="16"
     inkscape:cx="26.964755"
     inkscape:cy="21.457216"
     inkscape:window-x="1600"
     inkscape:window-y="53"
     inkscape:window-maximized="0"
     inkscape:current-layer="svg2" /><metadata
     id="metadata8"><rdf:RDF><cc:Work
         rdf:about=""><dc:format>image/svg+xml</dc:format><dc:type
           rdf:resource="http://purl.org/dc/dcmitype/StillImage" /><dc:title></dc:title></cc:Work></rdf:RDF></metadata><defs
     id="defs6"><clipPath
       id="clipPath16"
       clipPathUnits="userSpaceOnUse"><path
         id="path18"
         d="M 0,36 36,36 36,0 0,0 0,36 Z" /></clipPath><inkscape:path-effect
       effect="bspline"
       id="path-effect825"
       is_visible="true"
       weight="33.333333"
       steps="2"
       helper_size="0"
       apply_no_weight="true"
       apply_with_weight="true"
       only_selected="false" /><inkscape:path-effect
       effect="bspline"
       id="path-effect821"
       is_visible="true"
       weight="33.333333"
       steps="2"
       helper_size="0"
       apply_no_weight="true"
       apply_with_weight="true"
       only_selected="false" /><inkscape:path-effect
       effect="bspline"
       id="path-effect841"
       is_visible="true"
       weight="33.333333"
       steps="2"
       helper_size="0"
       apply_no_weight="true"
       apply_with_weight="true"
       only_selected="false" /><inkscape:path-effect
       effect="bspline"
       id="path-effect845"
       is_visible="true"
       weight="33.333333"
       steps="2"
       helper_size="0"
       apply_no_weight="true"
       apply_with_weight="true"
       only_selected="false" /><inkscape:path-effect
       only_selected="false"
       apply_with_weight="true"
       apply_no_weight="true"
       helper_size="0"
       steps="2"
       weight="33.333333"
       is_visible="true"
       id="path-effect849"
       effect="bspline" /><inkscape:path-effect
       effect="bspline"
       id="path-effect825-3"
       is_visible="true"
       weight="33.333333"
       steps="2"
       helper_size="0"
       apply_no_weight="true"
       apply_with_weight="true"
       only_selected="false" /><inkscape:path-effect
       effect="bspline"
       id="path-effect821-6"
       is_visible="true"
       weight="33.333333"
       steps="2"
       helper_size="0"
       apply_no_weight="true"
       apply_with_weight="true"
       only_selected="false" /></defs><path
     id="path22"
     style="fill:#c0c0c0;fill-opacity:1;fill-rule:nonzero;stroke:none;stroke-width:1.25"
     d="m 45,27.5 c 0,9.32 -10.07375,15 -22.5,15 C 10.07375,42.5 0,36.82 0,27.5 0,18.18 20.666607,16.289284 23.5,21.8125 28.307034,31.182993 45,18.18 45,27.5"
     inkscape:connector-curvature="0"
     sodipodi:nodetypes="csssc" /><path
     id="path46"
     style="fill:#e37e26;fill-opacity:1;fill-rule:nonzero;stroke:none;stroke-width:1.25"
     d="m 18.75,25 c 0,0.69125 -0.56,1.25 -1.25,1.25 -0.69,0 -1.25,-0.55875 -1.25,-1.25 0,-0.69125 0.56,-1.25 1.25,-1.25 0.69,0 1.25,0.55875 1.25,1.25"
     inkscape:connector-curvature="0" /><path
     id="path26"
     style="fill:#212121;fill-opacity:1;fill-rule:nonzero;stroke:none;stroke-width:1.25374055"
     d="m 39.693625,15.747961 c 1.71,-1.383242 2.80625,-3.502116 2.80625,-5.880034 0,-4.1660719 -3.3575,-7.5449537 -7.5,-7.5449537 -3.57625,0 -6.5625,2.521272 -7.3125,5.8913514 -1.61125,-0.6073688 -3.355,-0.9531792 -5.1875,-0.9531792 -1.83125,0 -3.57625,0.3458104 -5.18625,0.9531792 -0.75125,-3.3700794 -3.7375,-5.8913514 -7.31375,-5.8913514 -4.14125,0 -7.5,3.3788818 -7.5,7.5449537 0,2.377918 1.0975,4.496792 2.80625,5.880034 -3.30625,3.370079 -5.30625,7.556271 -5.30625,11.724858 0,9.375862 10.07375,1.257492 22.5,1.257492 12.4275,0 22.5,8.11837 22.5,-1.257492 0,-4.168587 -1.99875,-8.354779 -5.30625,-11.724858"
     inkscape:connector-curvature="0" /><path
     id="path30"
     style="fill:#ffffff;fill-opacity:1;fill-rule:nonzero;stroke:none;stroke-width:1.25"
     d="m 13.75,9.375 c 0,2.41625 -1.95875,4.375 -4.375,4.375 C 6.95875,13.75 5,11.79125 5,9.375 5,6.95875 6.95875,5 9.375,5 11.79125,5 13.75,6.95875 13.75,9.375"
     inkscape:connector-curvature="0" /><path
     id="path34"
     style="fill:#292f33;fill-opacity:1;fill-rule:nonzero;stroke:none;stroke-width:1.25"
     d="m 11.25,9.375 c 0,1.03625 -0.83875,1.875 -1.875,1.875 C 8.33875,11.25 7.5,10.41125 7.5,9.375 7.5,8.33875 8.33875,7.5 9.375,7.5 c 1.03625,0 1.875,0.83875 1.875,1.875"
     inkscape:connector-curvature="0" /><path
     id="path38"
     style="fill:#ffffff;fill-opacity:1;fill-rule:nonzero;stroke:none;stroke-width:1.25"
     d="m 40,9.375 c 0,2.41625 -1.9575,4.375 -4.375,4.375 -2.4175,0 -4.375,-1.95875 -4.375,-4.375 C 31.25,6.95875 33.2075,5 35.625,5 38.0425,5 40,6.95875 40,9.375"
     inkscape:connector-curvature="0" /><path
     id="path42"
     style="fill:#292f33;fill-opacity:1;fill-rule:nonzero;stroke:none;stroke-width:1.25"
     d="m 37.5,9.375 c 0,1.03625 -0.84,1.875 -1.875,1.875 -1.035,0 -1.875,-0.83875 -1.875,-1.875 0,-1.03625 0.84,-1.875 1.875,-1.875 1.035,0 1.875,0.83875 1.875,1.875"
     inkscape:connector-curvature="0" /><path
     id="path50"
     style="fill:#e37e26;fill-opacity:1;fill-rule:nonzero;stroke:none;stroke-width:1.25"
     d="m 28.75,25 c 0,0.69125 -0.55875,1.25 -1.25,1.25 -0.69125,0 -1.25,-0.55875 -1.25,-1.25 0,-0.69125 0.55875,-1.25 1.25,-1.25 0.69125,0 1.25,0.55875 1.25,1.25"
     inkscape:connector-curvature="0" /><g
     id="g976"
     transform="translate(2,0.6875)"><path
       sodipodi:nodetypes="ccccccccc"
       inkscape:original-d="m 14.915254,84.20339 c 0.204391,-0.272189 0.61017,-0.81356 0.61017,-0.81356 0,0 19.662017,-12.20439 29.491525,-18.305085 7.232638,-0.113994 14.465697,-0.22701 21.694915,-0.338983 7.792789,2.199566 15.586724,4.400737 23.379955,6.602993 2.128835,0.306513 4.25542,0.613846 6.382758,0.922432 -7.078976,2.673557 -14.154552,5.346452 -21.23243,8.020839 -6.932237,2.319541 -13.86647,4.640415 -20.801469,6.962211 C 41.266202,86.236262 28.091491,85.219346 14.915254,84.20339 Z"
       inkscape:path-effect="#path-effect821-6"
       inkscape:connector-curvature="0"
       id="path819"
       d="m 21.605447,84.575749 c -6.485962,-0.644668 -6.283413,-0.914732 -6.080023,-1.185919 9.830508,-6.101695 19.662187,-12.204116 28.193183,-15.311106 8.530995,-3.106989 15.764054,-3.220006 23.274883,-2.176107 7.510828,1.043898 15.304762,3.24507 20.265882,4.499421 4.96112,1.254351 7.087705,1.561684 4.61207,3.052467 -2.475635,1.490784 -9.551211,4.163679 -16.556272,6.660669 -7.00506,2.496991 -13.939293,4.817865 -23.994172,5.470012 -10.054879,0.652147 -23.22959,-0.364769 -29.715551,-1.009437 z"
       style="fill:#ffb928;fill-opacity:1;stroke:#000000;stroke-width:1px;stroke-linecap:butt;stroke-linejoin:miter;stroke-opacity:1"
       transform="matrix(0.36342904,0,0,0.36342904,-1.4888761,-1.7225093)" /><path
       sodipodi:nodetypes="ccccccccccccccccccccccccccc"
       inkscape:original-d="m 41.79661,87.355932 c 1.684616,3.761712 3.368232,7.524424 5.050848,11.288136 -0.27022,2.620792 -0.541373,5.264532 -0.81356,7.898302 -0.812896,2.40678 -1.626118,4.81256 -2.440678,7.22034 0.05753,0.2138 0.113994,0.42838 0.169492,0.64407 5.277836,-0.0575 10.554672,-0.11399 15.830508,-0.16949 1.424448,-0.4303 2.848458,-0.85976 4.271187,-1.28814 3.183399,-1.48579 6.37233,-2.97364 9.55521,-4.45812 3.255708,-3.20874 6.515564,-6.42156 9.767775,-9.626821 1.618434,-3.452824 3.237238,-6.907573 4.856349,-10.36411 1.439377,-4.511738 2.875302,-9.014784 4.311595,-13.521123 -0.0789,-0.06492 -0.15865,-0.128721 -0.239696,-0.191758 -1.399808,0.63937 -2.794242,1.276826 -4.194702,1.917579 -0.110956,0.190925 -0.222717,0.382515 -0.335576,0.575272 -1.457073,4.645607 -2.906974,9.26617 -4.362489,13.902439 -2.581542,4.6338 -5.162107,9.265052 -7.745749,13.901032 -4.59331,2.12765 -9.181167,4.25332 -13.779061,6.38417 -1.817296,0.0612 -3.63211,0.12326 -5.4503,0.18641 -2.912936,0.0305 -5.825723,0.0619 -8.739775,0.0944 0.03296,-0.24068 0.06492,-0.4804 0.09588,-0.71909 0.780373,-1.54384 1.567022,-3.10109 2.349032,-4.65013 0.272447,-2.0129 0.576274,-4.02791 0.86291,-6.04037 -0.302447,-2.173044 -0.606232,-4.347508 -0.910849,-6.519763 -1.037285,-2.157437 -2.076376,-4.31555 -3.116064,-6.471825 -0.114547,-0.02908 -0.229954,-0.05712 -0.346709,-0.08425 -1.443375,0.0047 -2.882078,0.0103 -4.326182,0.01695 -0.105542,0.02431 -0.21193,0.04958 -0.319396,0.07588 z"
       inkscape:path-effect="#path-effect825-3"
       inkscape:connector-curvature="0"
       id="path823"
       d="m 42.638315,89.237058 c 0.841705,1.881126 2.525321,5.643838 3.232254,8.835833 0.706933,3.191999 0.434628,5.835619 -0.107767,8.355839 -0.542395,2.52022 -1.355617,4.926 -1.734427,6.23705 -0.37881,1.31104 -0.322342,1.52562 2.344921,1.60506 2.667263,0.0794 7.944099,0.0229 11.294332,-0.22013 3.350234,-0.24308 4.774243,-0.67254 7.077312,-1.62973 2.303069,-0.95719 5.492003,-2.44503 8.711197,-4.79186 3.219195,-2.34682 6.479053,-5.55964 8.914153,-8.88879 2.4351,-3.329149 4.053904,-6.783898 5.583057,-10.768032 1.529153,-3.984134 2.965077,-8.48718 3.643644,-10.772162 0.678567,-2.284983 0.598817,-2.348783 -0.141069,-2.060941 -0.739885,0.287842 -2.134319,0.925298 -2.890285,1.340822 -0.755966,0.415523 -0.867727,0.607113 -1.65285,3.026288 -0.785123,2.419175 -2.235023,7.039738 -4.253409,11.674776 -2.018385,4.635039 -4.59895,9.266289 -8.187154,12.648419 -3.588204,3.38214 -8.176063,5.5078 -11.383744,6.60408 -3.20768,1.09628 -5.022494,1.15835 -7.388068,1.20518 -2.365575,0.0468 -5.278361,0.0783 -6.719339,-0.0264 -1.440979,-0.10466 -1.409016,-0.34438 -1.003121,-1.23569 0.405894,-0.89131 1.192545,-2.44856 1.727374,-4.22837 0.534829,-1.77981 0.823007,-3.79706 0.814963,-5.88967 -0.008,-2.092618 -0.311829,-4.267082 -0.982822,-6.431716 -0.670993,-2.164635 -1.710085,-4.322748 -2.286744,-5.415127 -0.576659,-1.092379 -0.692065,-1.120423 -1.471986,-1.131746 -0.77992,-0.01132 -2.218623,-0.0057 -2.993362,0.0097 -0.774739,0.01534 -0.881126,0.04062 -0.934946,0.05341 -0.05382,0.01279 -0.05382,0.0128 0.787886,1.893922 z"
       style="fill:#ffb928;fill-opacity:1;stroke:#000000;stroke-width:1px;stroke-linecap:butt;stroke-linejoin:miter;stroke-opacity:1"
       transform="matrix(0.36342904,0,0,0.36342904,-1.4888761,-1.7225093)" /><path
       style="fill:#5c0809;fill-opacity:1;stroke:#000000;stroke-width:1px;stroke-linecap:butt;stroke-linejoin:miter;stroke-opacity:1"
       d="m 48.868268,88.132405 c 0.353551,0.785054 1.060328,2.354435 1.691679,3.992665 0.63135,1.638229 1.186632,3.343938 1.380749,5.616012 0.194116,2.272068 0.02694,5.111208 -0.396893,7.276918 -0.423835,2.16571 -1.104558,3.65565 -1.785071,5.14512 0,0 0,0 0,0 3.132847,0.0171 6.266689,0.0342 9.433972,-0.48169 3.167284,-0.5159 6.357694,-1.56076 9.611456,-3.52976 3.253763,-1.969 6.565462,-4.85978 9.369595,-9.641873 2.804133,-4.782096 5.101349,-11.455234 6.266402,-14.879245 1.165052,-3.424011 1.198153,-3.599024 -2.20959,-2.329167 -3.407743,1.269856 -10.255925,3.983323 -16.346128,5.525493 -6.090203,1.542171 -11.417278,1.911374 -14.18518,2.135775 -2.767903,0.224401 -2.97555,0.304265 -3.080049,0.344457 -0.104499,0.04019 -0.104494,0.04024 0.249058,0.825295 z"
       id="path847"
       inkscape:connector-curvature="0"
       inkscape:path-effect="#path-effect849"
       inkscape:original-d="m 48.514716,87.347352 c 0.708309,1.569564 1.415086,3.138945 2.121371,4.710456 0.556409,1.705101 1.111691,3.41081 1.665845,5.11713 -0.166182,2.838272 -0.333356,5.677412 -0.50166,8.519762 -0.679855,1.48922 -2.04154,4.46842 -2.04154,4.46842 v 0 c 0,0 6.266694,0.0332 9.398541,0.0513 3.202516,-1.0495 6.392926,-2.09436 9.587888,-3.14004 3.312699,-2.89178 6.624398,-5.78256 9.935097,-8.672339 2.298216,-6.674138 4.595432,-13.347276 6.891648,-20.019414 0.03409,-0.175937 0.06719,-0.35095 0.09928,-0.524925 -6.848569,2.713017 -13.696751,5.426484 -20.548743,8.142065 -5.328271,0.368355 -10.655346,0.737559 -15.984519,1.107838 -0.206775,0.07891 -0.414421,0.158777 -0.623213,0.239697 z"
       sodipodi:nodetypes="cccccccccccccc"
       transform="matrix(0.36342904,0,0,0.36342904,-1.4888761,-1.7225093)" /><path
       sodipodi:nodetypes="cccccccccc"
       inkscape:original-d="m 59.972243,109.3995 c -0.02297,-1.6629 -0.04694,-3.32481 -0.07191,-4.98571 1.46315,-2.04641 2.925306,-4.09183 4.386459,-6.136245 2.668134,-1.821678 5.338258,-3.644397 8.005887,-5.465096 2.845568,-0.627737 5.692584,-1.255014 8.537376,-1.881021 -0.0643,0.114653 -0.129608,0.230306 -0.195913,0.346959 -1.313051,2.692186 -2.631734,5.394866 -3.950393,8.096449 -2.858525,2.755154 -5.713345,5.506774 -8.572966,8.263064 -2.712764,0.5864 -5.425351,1.17354 -8.138541,1.7616 10e-4,-0.001 10e-4,-0.001 0,0 z"
       inkscape:path-effect="#path-effect845"
       inkscape:connector-curvature="0"
       id="path843"
       d="m 59.960251,108.56806 c -0.01199,-0.83145 -0.03596,-2.49336 0.68354,-4.34709 0.719503,-1.85373 2.181659,-3.89914 4.246471,-5.832016 2.064812,-1.932871 4.734936,-3.75559 7.491542,-4.979544 2.756607,-1.223955 5.603623,-1.851231 6.99362,-2.107374 1.389998,-0.256143 1.324692,-0.140489 0.634973,1.263923 -0.689719,1.404412 -2.008402,4.107092 -4.096778,6.835572 -2.088376,2.728479 -4.943195,5.480099 -7.729316,7.151809 -2.786122,1.67171 -5.498709,2.25885 -6.855385,2.55251 -1.356676,0.29365 -1.356676,0.29365 -1.356676,0.29365 0,0 10e-7,0 -0.01199,-0.83144 z"
       style="fill:#d02f3e;fill-opacity:1;stroke:none;stroke-width:1px;stroke-linecap:butt;stroke-linejoin:miter;stroke-opacity:1"
       transform="matrix(0.36342904,0,0,0.36342904,-1.4888761,-1.7225093)" /><path
       sodipodi:nodetypes="cccccccccccccc"
       inkscape:original-d="m 48.514716,87.347352 c 0.708309,1.569564 1.415086,3.138945 2.121371,4.710456 0.556409,1.705101 1.111691,3.41081 1.665845,5.11713 -0.166182,2.838272 -0.333356,5.677412 -0.50166,8.519762 -0.679855,1.48922 -2.04154,4.46842 -2.04154,4.46842 v 0 c 0,0 6.266694,0.0332 9.398541,0.0513 3.202516,-1.0495 6.392926,-2.09436 9.587888,-3.14004 3.312699,-2.89178 6.624398,-5.78256 9.935097,-8.672339 2.298216,-6.674138 4.595432,-13.347276 6.891648,-20.019414 0.03409,-0.175937 0.06719,-0.35095 0.09928,-0.524925 -6.848569,2.713017 -13.696751,5.426484 -20.548743,8.142065 -5.328271,0.368355 -10.655346,0.737559 -15.984519,1.107838 -0.206775,0.07891 -0.414421,0.158777 -0.623213,0.239697 z"
       inkscape:path-effect="#path-effect841"
       inkscape:connector-curvature="0"
       id="path839"
       d="m 48.868268,88.132405 c 0.353551,0.785054 1.060328,2.354435 1.691679,3.992665 0.63135,1.638229 1.186632,3.343938 1.380749,5.616012 0.194116,2.272068 0.02694,5.111208 -0.396893,7.276918 -0.423835,2.16571 -1.104558,3.65565 -1.785071,5.14512 0,0 0,0 0,0 3.132847,0.0171 6.266689,0.0342 9.433972,-0.48169 3.167284,-0.5159 6.357694,-1.56076 9.611456,-3.52976 3.253763,-1.969 6.565462,-4.85978 9.369595,-9.641873 2.804133,-4.782096 5.101349,-11.455234 6.266402,-14.879245 1.165052,-3.424011 1.198153,-3.599024 -2.20959,-2.329167 -3.407743,1.269856 -10.255925,3.983323 -16.346128,5.525493 -6.090203,1.542171 -11.417278,1.911374 -14.18518,2.135775 -2.767903,0.224401 -2.97555,0.304265 -3.080049,0.344457 -0.104499,0.04019 -0.104494,0.04024 0.249058,0.825295 z"
       style="fill:none;stroke:#000000;stroke-width:1px;stroke-linecap:butt;stroke-linejoin:miter;stroke-opacity:1"
       transform="matrix(0.36342904,0,0,0.36342904,-1.4888761,-1.7225093)" /></g></svg>