<?xml version="1.0" encoding="UTF-8" standalone="no"?>
<svg
   viewBox="0 0 910 909.99998"
   version="1.1"
   id="svg63"
   sodipodi:docname="pomelo.svg"
   width="910"
   height="910"
   inkscape:version="1.1.1 (3bf5ae0d25, 2021-09-20, custom)"
   xmlns:inkscape="http://www.inkscape.org/namespaces/inkscape"
   xmlns:sodipodi="http://sodipodi.sourceforge.net/DTD/sodipodi-0.dtd"
   xmlns="http://www.w3.org/2000/svg"
   xmlns:svg="http://www.w3.org/2000/svg">
  <sodipodi:namedview
     id="namedview65"
     pagecolor="#505050"
     bordercolor="#ffffff"
     borderopacity="1"
     inkscape:pageshadow="0"
     inkscape:pageopacity="0"
     inkscape:pagecheckerboard="1"
     showgrid="false"
     height="910px"
     inkscape:zoom="0.69778727"
     inkscape:cx="592.58748"
     inkscape:cy="410.58359"
     inkscape:window-width="1920"
     inkscape:window-height="1026"
     inkscape:window-x="0"
     inkscape:window-y="54"
     inkscape:window-maximized="1"
     inkscape:current-layer="Layer_1" />
  <defs
     id="defs19">
    <style
       id="style2">.cls-1{opacity:0.4;}.cls-2{fill:#77b255;}.cls-3{fill:#fff;}.cls-4{fill:#292f33;}.cls-5{fill:url(#Unbenannter_Verlauf_58);}.cls-6{fill:url(#Unbenannter_Verlauf_72);}.cls-7{fill:url(#Unbenannter_Verlauf_46);}.cls-8{fill:none;stroke:#c6e5b3;stroke-linecap:round;stroke-linejoin:round;stroke-width:12px;}</style>
    <radialGradient
       id="Unbenannter_Verlauf_58"
       cx="451.20001"
       cy="522.20001"
       r="373"
       gradientUnits="userSpaceOnUse"
       gradientTransform="translate(0.300004,-10.55)">
      <stop
         offset="0"
         stop-color="#77b255"
         id="stop4" />
      <stop
         offset="1"
         stop-color="#c6e5b3"
         id="stop6" />
    </radialGradient>
    <radialGradient
       id="Unbenannter_Verlauf_72"
       cx="451.20001"
       cy="522.20001"
       r="380.70001"
       gradientUnits="userSpaceOnUse"
       gradientTransform="translate(0.300004,-10.55)">
      <stop
         offset="0"
         stop-color="#77b255"
         id="stop9" />
      <stop
         offset="1"
         stop-color="#77b255"
         id="stop11" />
    </radialGradient>
    <radialGradient
       id="Unbenannter_Verlauf_46"
       cx="451.20001"
       cy="520.90002"
       r="310.09"
       gradientUnits="userSpaceOnUse"
       gradientTransform="translate(0.300004,-10.55)">
      <stop
         offset="0"
         stop-color="#77b255"
         id="stop14" />
      <stop
         offset="1"
         stop-color="#5c913b"
         id="stop16" />
    </radialGradient>
  </defs>
  <g
     id="Ebene_2"
     data-name="Ebene 2">
    <g
       id="Layer_1"
       data-name="Layer 1">
      <ellipse
         class="cls-2"
         cx="160"
         cy="147.64999"
         rx="131.5"
         ry="130"
         id="ellipse23" />
      <circle
         class="cls-3"
         cx="149.52"
         cy="137.59999"
         r="76.260002"
         id="circle25" />
      <circle
         class="cls-4"
         cx="149.52"
         cy="137.59999"
         r="32.68"
         id="circle27" />
      <ellipse
         class="cls-2"
         cx="750"
         cy="147.64999"
         rx="131.5"
         ry="130"
         id="ellipse31" />
      <circle
         class="cls-3"
         cx="760.47998"
         cy="137.59999"
         r="76.260002"
         id="circle33" />
      <circle
         class="cls-4"
         cx="760.47998"
         cy="137.59999"
         r="32.68"
         id="circle35" />
      <circle
         class="cls-5"
         cx="451.5"
         cy="511.64999"
         r="373"
         id="circle37"
         style="fill:url(#Unbenannter_Verlauf_58)" />
      <path
         class="cls-6"
         d="M 451.5,150.95 A 359.52999,359.53 0 1 1 311.11,179.29 358.26999,358.27 0 0 1 451.5,150.95 m 0,-20 c -210.2,0 -380.699998,170.5 -380.699998,380.7 0,210.2 170.499998,380.7 380.699998,380.7 210.19999,0 380.69999,-170.45 380.69999,-380.7 0,-210.25 -170.45,-380.7 -380.69999,-380.7 z"
         id="path39"
         style="fill:url(#Unbenannter_Verlauf_72)" />
      <path
         class="cls-7"
         d="m 716.22999,549.28 2.55,0.45 c 22.75,4 36.41,25.54 30,47.74 a 308.74999,308.75 0 0 1 -62.87,116.08 37.999999,38 0 0 1 -57.56,-0.19 l 0.8,1 c 15.14,18.06 11.4,43.37 -8.32,56.29 a 307.49999,307.5 0 0 1 -126.35,47.46 C 471.73,821.28 451.48,803.37 451.48,780.4 c 0,23 -20.23,40.88 -43,37.71 A 307.49999,307.5 0 0 1 282.13,770.65 c -19.72,-12.92 -23.46,-38.23 -8.32,-56.29 l 0.8,-1 a 37.999999,38 0 0 1 -57.56,0.19 308.74999,308.75 0 0 1 -62.85,-116.1 c -6.39,-22.2 7.27,-43.73 30,-47.74 l 2.55,-0.45 a 37.999999,38 0 0 1 -44.64,-37.17 c 0,-0.15 0,-0.31 0,-0.46 a 308.10999,308.11 0 0 1 25.79,-123.77 38.169999,38.17 0 0 1 54,-17.9 l 0.13,0.07 a 38.079999,38.08 0 0 1 -8.3,-56.28 310.57999,310.58 0 0 1 95.47,-76.84 37.999999,38 0 0 1 53.18,20.79 l 0.3,0.82 a 38.069999,38.07 0 0 1 28.47,-50.34 311.28999,311.29 0 0 1 120.73999,0 38.069999,38.07 0 0 1 28.41,50.34 l 0.3,-0.82 a 37.999999,38 0 0 1 53.18,-20.79 310.57999,310.58 0 0 1 95.52,76.84 38.089999,38.09 0 0 1 -7.45,55.7 c 19.63,-11.09 44.19,-2.33 53.25,18.4 a 308.10999,308.11 0 0 1 25.78,123.8 c 0,0.15 0,0.31 0,0.46 a 37.999999,38 0 0 1 -44.65,37.17 z"
         id="path41"
         style="fill:url(#Unbenannter_Verlauf_46)" />
      <path
         class="cls-8"
         d="m 494.47999,818.06 a 307.49999,307.5 0 0 0 126.35,-47.46 c 19.72,-12.92 23.46,-38.23 8.32,-56.29 L 497.29999,557.2 C 481.73999,538.65 451.49,549.66 451.49,573.88 v 206.47 c 0.01,22.97 20.24,40.88 42.98999,37.71 z"
         id="path43" />
      <path
         class="cls-8"
         d="M 405.69,557.2 273.85,714.31 c -15.14,18.06 -11.4,43.37 8.32,56.29 a 307.49999,307.5 0 0 0 126.35,47.46 c 22.75,3.17 43,-14.74 43,-37.71 V 573.88 C 451.5,549.66 421.3,538.65 405.69,557.2 Z"
         id="path45" />
      <path
         class="cls-8"
         d="m 497.29999,557.2 130.77,155.83 a 37.999999,38 0 0 0 57.84,0.52 308.74999,308.75 0 0 0 62.89,-116.1 c 6.39,-22.2 -7.27,-43.73 -30,-47.74 l -197.11,-34.73 c -23.85,-4.21 -39.94,23.67 -24.39,42.22 z"
         id="path47" />
      <path
         class="cls-8"
         d="m 154.2,597.45 a 308.74999,308.75 0 0 0 62.89,116.1 37.999999,38 0 0 0 57.84,-0.52 L 405.69,557.2 c 15.56,-18.55 -0.53,-46.43 -24.38,-42.22 l -197.09,34.75 c -22.75,4.01 -36.41,25.54 -30.02,47.72 z"
         id="path49" />
      <path
         class="cls-8"
         d="m 513.21999,466.97 166,-95.82 a 38.079999,38.08 0 0 0 10.08,-57.4 310.57999,310.58 0 0 0 -95.47,-76.84 37.999999,38 0 0 0 -53.18,20.79 L 475.88,435.63 c -8.29,22.76 16.41999,43.45 37.33999,31.34 z"
         id="path51" />
      <path
         class="cls-8"
         d="m 389.78,466.97 -168,-97 a 38.069999,38.07 0 0 0 -53.93,17.85 308.10999,308.11 0 0 0 -25.73,123.83 c 0,0.15 0,0.31 0,0.46 a 37.999999,38 0 0 0 44.64,37.17 l 194.54,-34.3 c 23.86,-4.21 29.45,-35.9 8.48,-48.01 z"
         id="path53" />
      <path
         class="cls-8"
         d="M 427.12,435.63 362.36,257.7 a 37.999999,38 0 0 0 -53.18,-20.79 310.57999,310.58 0 0 0 -95.47,76.84 38.079999,38.08 0 0 0 10.11,57.4 l 166,95.82 c 20.93,12.11 45.59,-8.58 37.3,-31.34 z"
         id="path55" />
      <path
         class="cls-8"
         d="m 475.88,435.63 64.41999,-177.11 a 38.069999,38.07 0 0 0 -28.47,-50.34 311.28999,311.29 0 0 0 -120.73999,0 38.069999,38.07 0 0 0 -28.47,50.34 l 64.46,177.11 c 8.33,22.76 40.51,22.76 48.8,0 z"
         id="path57" />
      <path
         class="cls-8"
         d="m 521.68999,514.98 194.54,34.3 a 37.999999,38 0 0 0 44.64,-37.17 v -0.46 a 308.09999,308.1 0 0 0 -25.77,-123.79 38.069999,38.07 0 0 0 -53.93,-17.85 l -168,97 c -20.87,12.07 -15.33,43.76 8.52,47.97 z"
         id="path59" />
    </g>
  </g>
</svg>
