<?xml version="1.0" encoding="UTF-8" standalone="no"?>
<svg
   xmlns:dc="http://purl.org/dc/elements/1.1/"
   xmlns:cc="http://creativecommons.org/ns#"
   xmlns:rdf="http://www.w3.org/1999/02/22-rdf-syntax-ns#"
   xmlns:svg="http://www.w3.org/2000/svg"
   xmlns="http://www.w3.org/2000/svg"
   xmlns:xlink="http://www.w3.org/1999/xlink"
   xmlns:sodipodi="http://sodipodi.sourceforge.net/DTD/sodipodi-0.dtd"
   xmlns:inkscape="http://www.inkscape.org/namespaces/inkscape"
   viewBox="0 0 45 45"
   style="enable-background:new 0 0 45 45;"
   xml:space="preserve"
   version="1.1"
   id="svg2"
   sodipodi:docname="rainbowfrog.svg"
   inkscape:version="0.92.4 5da689c313, 2019-01-14"><sodipodi:namedview
     pagecolor="#ffffff"
     bordercolor="#666666"
     borderopacity="1"
     objecttolerance="10"
     gridtolerance="10"
     guidetolerance="10"
     inkscape:pageopacity="0"
     inkscape:pageshadow="2"
     inkscape:window-width="1920"
     inkscape:window-height="1030"
     id="namedview26"
     showgrid="false"
     inkscape:zoom="10.488889"
     inkscape:cx="0.48861296"
     inkscape:cy="19.937954"
     inkscape:window-x="1600"
     inkscape:window-y="50"
     inkscape:window-maximized="0"
     inkscape:current-layer="g12" /><metadata
     id="metadata8"><rdf:RDF><cc:Work
         rdf:about=""><dc:format>image/svg+xml</dc:format><dc:type
           rdf:resource="http://purl.org/dc/dcmitype/StillImage" /><dc:title></dc:title></cc:Work></rdf:RDF></metadata><defs
     id="defs6"><linearGradient
       inkscape:collect="always"
       id="linearGradient875"><stop
         style="stop-color:#ec0521;stop-opacity:1"
         offset="0"
         id="stop871" /><stop
         id="stop885"
         offset="0.11838788"
         style="stop-color:#ff05d8;stop-opacity:1" /><stop
         id="stop881"
         offset="0.28041345"
         style="stop-color:#1100fe;stop-opacity:1" /><stop
         style="stop-color:#00ecfc;stop-opacity:1"
         offset="0.47995022"
         id="stop883" /><stop
         id="stop879"
         offset="0.69204372"
         style="stop-color:#45ff00;stop-opacity:1" /><stop
         style="stop-color:#ffe201;stop-opacity:1"
         offset="0.83879095"
         id="stop1215" /><stop
         style="stop-color:#ff0d00;stop-opacity:1"
         offset="1"
         id="stop873" /></linearGradient><clipPath
       id="clipPath16"
       clipPathUnits="userSpaceOnUse"><path
         id="path18"
         d="M 0,36 36,36 36,0 0,0 0,36 Z" /></clipPath><linearGradient
       inkscape:collect="always"
       xlink:href="#linearGradient875"
       id="linearGradient877"
       x1="-29.009136"
       y1="-6.1631832"
       x2="1.2705238"
       y2="-6.1631832"
       gradientUnits="userSpaceOnUse" /><linearGradient
       inkscape:collect="always"
       xlink:href="#linearGradient875"
       id="linearGradient1225"
       x1="-33.940674"
       y1="-4.8474574"
       x2="-1.8305086"
       y2="-4.8474574"
       gradientUnits="userSpaceOnUse" /><linearGradient
       inkscape:collect="always"
       xlink:href="#linearGradient875"
       id="linearGradient1748"
       gradientUnits="userSpaceOnUse"
       x1="-29.009136"
       y1="-6.1631832"
       x2="1.2705238"
       y2="-6.1631832" /><linearGradient
       inkscape:collect="always"
       xlink:href="#linearGradient875"
       id="linearGradient1786"
       gradientUnits="userSpaceOnUse"
       x1="-29.924391"
       y1="-6.1631832"
       x2="2.4908628"
       y2="-6.1631832" /></defs><g
     transform="matrix(1.25,0,0,-1.25,0,45)"
     id="g10"><g
       id="g12"><g
         style="fill:#9b6a6c;fill-opacity:1"
         id="g20"
         transform="translate(36,14)"><path
           inkscape:connector-curvature="0"
           d="m 0,0 c 0,-7.456 -8.059,-12 -18,-12 -9.941,0 -18,4.544 -18,12 0,7.456 8.059,15 18,15 C -8.059,15 0,7.456 0,0"
           style="fill:url(#linearGradient1225);fill-opacity:1;fill-rule:nonzero;stroke:none"
           id="path22" /></g><g
         transform="translate(36,14)"
         id="g1250"
         style="opacity:0.479;fill:#eddbdc;fill-opacity:1"><path
           inkscape:connector-curvature="0"
           id="path1248"
           style="fill:#eddbdc;fill-opacity:1;fill-rule:nonzero;stroke:none"
           d="m 0,0 c 0,-7.456 -8.059,-12 -18,-12 -9.941,0 -18,4.544 -18,12 0,7.456 8.059,15 18,15 C -8.059,15 0,7.456 0,0" /></g><g
         style="fill:url(#linearGradient877);fill-opacity:1"
         id="g24"
         transform="translate(31.7549,23.3242)"><path
           inkscape:connector-curvature="0"
           d="m 0,0 c 1.368,1.1 2.245,2.785 2.245,4.676 0,3.313 -2.686,6 -6,6 -2.861,0 -5.25,-2.005 -5.85,-4.685 -1.289,0.483 -2.684,0.758 -4.15,0.758 -1.465,0 -2.861,-0.275 -4.149,-0.758 -0.601,2.68 -2.99,4.685 -5.851,4.685 -3.313,0 -6,-2.687 -6,-6 0,-1.891 0.878,-3.576 2.245,-4.676 -2.645,-2.68 -4.245,-6.009 -4.245,-9.324 0,-7.456 8.059,-1 18,-1 9.942,0 18,-6.456 18,1 C 4.245,-6.009 2.646,-2.68 0,0"
           style="fill:url(#linearGradient1786);fill-opacity:1;fill-rule:nonzero;stroke:none"
           id="path26" /></g><g
         id="g28"
         transform="translate(11,28.5)"><path
           inkscape:connector-curvature="0"
           d="M 0,0 C 0,-1.933 -1.567,-3.5 -3.5,-3.5 -5.433,-3.5 -7,-1.933 -7,0 -7,1.933 -5.433,3.5 -3.5,3.5 -1.567,3.5 0,1.933 0,0"
           style="fill:#ffffff;fill-opacity:1;fill-rule:nonzero;stroke:none"
           id="path30" /></g><g
         style="fill:#000000"
         id="g32"
         transform="translate(9,28.5)"><path
           inkscape:connector-curvature="0"
           d="M 0,0 C 0,-0.829 -0.671,-1.5 -1.5,-1.5 -2.329,-1.5 -3,-0.829 -3,0 -3,0.829 -2.329,1.5 -1.5,1.5 -0.671,1.5 0,0.829 0,0"
           style="fill:#000000;fill-opacity:1;fill-rule:nonzero;stroke:none"
           id="path34" /></g><g
         id="g36"
         transform="translate(32,28.5)"><path
           inkscape:connector-curvature="0"
           d="M 0,0 C 0,-1.933 -1.566,-3.5 -3.5,-3.5 -5.434,-3.5 -7,-1.933 -7,0 -7,1.933 -5.434,3.5 -3.5,3.5 -1.566,3.5 0,1.933 0,0"
           style="fill:#ffffff;fill-opacity:1;fill-rule:nonzero;stroke:none"
           id="path38" /></g><g
         style="fill:#000000"
         id="g40"
         transform="translate(30,28.5)"><path
           inkscape:connector-curvature="0"
           d="M 0,0 C 0,-0.829 -0.672,-1.5 -1.5,-1.5 -2.328,-1.5 -3,-0.829 -3,0 -3,0.829 -2.328,1.5 -1.5,1.5 -0.672,1.5 0,0.829 0,0"
           style="fill:#000000;fill-opacity:1;fill-rule:nonzero;stroke:none"
           id="path42" /></g><g
         style="opacity:0.517;fill:#000000"
         id="g44"
         transform="translate(15,16)"><path
           inkscape:connector-curvature="0"
           d="m 0,0 c 0,-0.553 -0.448,-1 -1,-1 -0.552,0 -1,0.447 -1,1 0,0.553 0.448,1 1,1 0.552,0 1,-0.447 1,-1"
           style="fill:#000000;fill-opacity:1;fill-rule:nonzero;stroke:none"
           id="path46" /></g><g
         style="opacity:0.517;fill:#000000"
         id="g48"
         transform="translate(23,16)"><path
           inkscape:connector-curvature="0"
           d="m 0,0 c 0,-0.553 -0.447,-1 -1,-1 -0.553,0 -1,0.447 -1,1 0,0.553 0.447,1 1,1 0.553,0 1,-0.447 1,-1"
           style="fill:#000000;fill-opacity:1;fill-rule:nonzero;stroke:none"
           id="path50" /></g></g></g></svg>