<?xml version="1.0" encoding="UTF-8" standalone="no"?>
<svg
   xmlns:dc="http://purl.org/dc/elements/1.1/"
   xmlns:cc="http://creativecommons.org/ns#"
   xmlns:rdf="http://www.w3.org/1999/02/22-rdf-syntax-ns#"
   xmlns:svg="http://www.w3.org/2000/svg"
   xmlns="http://www.w3.org/2000/svg"
   xmlns:xlink="http://www.w3.org/1999/xlink"
   xmlns:sodipodi="http://sodipodi.sourceforge.net/DTD/sodipodi-0.dtd"
   xmlns:inkscape="http://www.inkscape.org/namespaces/inkscape"
   inkscape:version="1.0 (4035a4fb49, 2020-05-01)"
   sodipodi:docname="scaryfrog.svg"
   id="svg2"
   version="1.1"
   xml:space="preserve"
   style="enable-background:new 0 0 45 45;"
   viewBox="0 0 45 45"><sodipodi:namedview
     inkscape:document-rotation="0"
     inkscape:current-layer="svg2"
     inkscape:window-maximized="1"
     inkscape:window-y="50"
     inkscape:window-x="1600"
     inkscape:cy="24.400213"
     inkscape:cx="-1.4457356"
     inkscape:zoom="11.313708"
     showgrid="false"
     id="namedview839"
     inkscape:window-height="1030"
     inkscape:window-width="1920"
     inkscape:pageshadow="2"
     inkscape:pageopacity="0"
     guidetolerance="10"
     gridtolerance="10"
     objecttolerance="10"
     borderopacity="1"
     bordercolor="#666666"
     pagecolor="#ffffff" /><metadata
     id="metadata8"><rdf:RDF><cc:Work
         rdf:about=""><dc:format>image/svg+xml</dc:format><dc:type
           rdf:resource="http://purl.org/dc/dcmitype/StillImage" /><dc:title /></cc:Work></rdf:RDF></metadata><defs
     id="defs6"><linearGradient
       inkscape:collect="always"
       id="linearGradient977"><stop
         style="stop-color:#90b868;stop-opacity:0"
         offset="0"
         id="stop973" /><stop
         style="stop-color:#021602;stop-opacity:1"
         offset="1"
         id="stop975" /></linearGradient><linearGradient
       id="linearGradient1246"
       inkscape:collect="always"><stop
         style="stop-color:#001400;stop-opacity:0.99215686"
         offset="0"
         id="stop1240" /><stop
         id="stop1242"
         offset="0.72048247"
         style="stop-color:#001400;stop-opacity:0.99215686" /><stop
         style="stop-color:#90b868;stop-opacity:1;"
         offset="1"
         id="stop1244" /></linearGradient><linearGradient
       inkscape:collect="always"
       id="linearGradient1224"><stop
         id="stop1222"
         offset="0"
         style="stop-color:#001400;stop-opacity:0.99215686" /><stop
         style="stop-color:#001400;stop-opacity:0.99215686"
         offset="0.71942091"
         id="stop1228" /><stop
         id="stop1220"
         offset="1"
         style="stop-color:#90b868;stop-opacity:1;" /></linearGradient><linearGradient
       id="linearGradient1119"
       inkscape:collect="always"><stop
         id="stop1115"
         offset="0"
         style="stop-color:#90b868;stop-opacity:1;" /><stop
         id="stop1117"
         offset="1"
         style="stop-color:#021602;stop-opacity:1" /></linearGradient><clipPath
       clipPathUnits="userSpaceOnUse"
       id="clipPath16"><path
         d="M 0,36 36,36 36,0 0,0 0,36 Z"
         id="path18" /></clipPath><linearGradient
       gradientUnits="userSpaceOnUse"
       y2="31.433689"
       x2="21.38998"
       y1="27.32233"
       x1="21.38998"
       id="linearGradient1121"
       xlink:href="#linearGradient1119"
       inkscape:collect="always" /><radialGradient
       gradientUnits="userSpaceOnUse"
       gradientTransform="matrix(-0.76613358,0.7932907,-0.74344917,-0.71799825,25.183551,9.744079)"
       r="7.933598"
       fy="9.7282524"
       fx="10.164062"
       cy="9.7282524"
       cx="10.164062"
       id="radialGradient1214"
       xlink:href="#linearGradient1224"
       inkscape:collect="always" /><radialGradient
       r="8.9023409"
       fy="9.0415802"
       fx="32.707069"
       cy="9.0415802"
       cx="32.707069"
       gradientTransform="matrix(-0.67224976,0.60917356,-0.68517755,-0.75612387,62.488895,-2.0921313)"
       gradientUnits="userSpaceOnUse"
       id="radialGradient1238"
       xlink:href="#linearGradient1246"
       inkscape:collect="always" /><filter
       height="1.1030175"
       y="-0.051508757"
       width="1.1667011"
       x="-0.083350533"
       id="filter3712"
       style="color-interpolation-filters:sRGB"
       inkscape:collect="always"><feGaussianBlur
         id="feGaussianBlur3714"
         stdDeviation="0.042208008"
         inkscape:collect="always" /></filter><filter
       height="1.0141322"
       y="-0.0070661033"
       width="1.0050017"
       x="-0.0025008535"
       id="filter3716"
       style="color-interpolation-filters:sRGB"
       inkscape:collect="always"><feGaussianBlur
         id="feGaussianBlur3718"
         stdDeviation="0.042208008"
         inkscape:collect="always" /></filter><filter
       height="1.0164001"
       y="-0.0082000319"
       width="1.0153538"
       x="-0.0076769097"
       id="filter3720"
       style="color-interpolation-filters:sRGB"
       inkscape:collect="always"><feGaussianBlur
         id="feGaussianBlur3722"
         stdDeviation="0.042208008"
         inkscape:collect="always" /></filter><filter
       height="1.0225943"
       y="-0.011297146"
       width="1.0197506"
       x="-0.0098753241"
       id="filter3724"
       style="color-interpolation-filters:sRGB"
       inkscape:collect="always"><feGaussianBlur
         id="feGaussianBlur3726"
         stdDeviation="0.042208008"
         inkscape:collect="always" /></filter><filter
       height="1.0173072"
       y="-0.0086536043"
       width="1.0127684"
       x="-0.0063841915"
       id="filter3728"
       style="color-interpolation-filters:sRGB"
       inkscape:collect="always"><feGaussianBlur
         id="feGaussianBlur3730"
         stdDeviation="0.042208008"
         inkscape:collect="always" /></filter><filter
       height="1.0145484"
       y="-0.0072742215"
       width="1.0157096"
       x="-0.0078547935"
       id="filter3732"
       style="color-interpolation-filters:sRGB"
       inkscape:collect="always"><feGaussianBlur
         id="feGaussianBlur3734"
         stdDeviation="0.042208008"
         inkscape:collect="always" /></filter><filter
       height="1.0214763"
       y="-0.010738137"
       width="1.0204234"
       x="-0.010211695"
       id="filter3736"
       style="color-interpolation-filters:sRGB"
       inkscape:collect="always"><feGaussianBlur
         id="feGaussianBlur3738"
         stdDeviation="0.042208008"
         inkscape:collect="always" /></filter><filter
       height="1.0173086"
       y="-0.0086542968"
       width="1.0105923"
       x="-0.0052961504"
       id="filter3740"
       style="color-interpolation-filters:sRGB"
       inkscape:collect="always"><feGaussianBlur
         id="feGaussianBlur3742"
         stdDeviation="0.042208008"
         inkscape:collect="always" /></filter><filter
       height="1.0085614"
       y="-0.0042807196"
       width="1.0046734"
       x="-0.0023366913"
       id="filter3744"
       style="color-interpolation-filters:sRGB"
       inkscape:collect="always"><feGaussianBlur
         id="feGaussianBlur3746"
         stdDeviation="0.042208008"
         inkscape:collect="always" /></filter><linearGradient
       gradientTransform="matrix(0.50214612,0,0,1,16.10903,5.7773453)"
       gradientUnits="userSpaceOnUse"
       y2="23.02503"
       x2="13.375228"
       y1="18.555431"
       x1="13.375228"
       id="linearGradient971"
       xlink:href="#linearGradient977"
       inkscape:collect="always" /><linearGradient
       inkscape:collect="always"
       xlink:href="#linearGradient977"
       id="linearGradient971-3"
       x1="13.375228"
       y1="18.642662"
       x2="13.375228"
       y2="23.034838"
       gradientUnits="userSpaceOnUse"
       gradientTransform="matrix(0.05138842,0,0,1,14.437341,5.7773446)" /><linearGradient
       gradientTransform="matrix(0.05138842,0,0,1,29.41195,5.7773453)"
       gradientUnits="userSpaceOnUse"
       y2="23.034838"
       x2="13.375228"
       y1="18.642662"
       x1="13.375228"
       id="linearGradient971-3-3"
       xlink:href="#linearGradient977"
       inkscape:collect="always" /><filter
       id="filter1417"
       inkscape:label="Blur"
       style="color-interpolation-filters:sRGB;"><feGaussianBlur
         id="feGaussianBlur1415"
         result="blur"
         stdDeviation="0.11 0.11" /></filter><filter
       id="filter1421"
       inkscape:label="Blur"
       style="color-interpolation-filters:sRGB;"><feGaussianBlur
         id="feGaussianBlur1419"
         result="blur"
         stdDeviation="0.11 0.11" /></filter><filter
       id="filter1425"
       inkscape:label="Blur"
       style="color-interpolation-filters:sRGB;"><feGaussianBlur
         id="feGaussianBlur1423"
         result="blur"
         stdDeviation="0.11 0.11" /></filter></defs><path
     id="rect938"
     d="M 5.1875 8.046875 L 5.1875 17.152344 L 5.1875 19.746094 L 3.546875 19.746094 L 3.546875 20.222656 L 2.4355469 20.222656 L 2.4355469 22.976562 L 0.85351562 22.976562 L 0.85351562 25.941406 L 0.85351562 31.710938 L 44.205078 31.710938 L 44.205078 25.941406 L 42.882812 25.941406 L 42.882812 22.976562 L 42.882812 20.222656 L 42.882812 19.746094 L 40.181641 19.746094 L 40.181641 17.152344 L 38.859375 17.152344 L 38.859375 8.046875 L 22.023438 8.046875 L 5.1875 8.046875 z "
     style="opacity:1;fill:url(#linearGradient1121);fill-opacity:1;stroke:none;stroke-width:0.30399999;stroke-linecap:butt;stroke-linejoin:round;stroke-miterlimit:1;stroke-dasharray:none;stroke-opacity:1;paint-order:markers fill stroke;filter:url(#filter3744)" /><path
     id="rect1196"
     d="M 21.054688 8.046875 L 21.054688 19.751953 L 38.859375 19.751953 L 40.181641 19.751953 L 40.181641 17.152344 L 38.859375 17.152344 L 38.859375 8.046875 L 21.054688 8.046875 z "
     style="opacity:1;fill:url(#radialGradient1238);fill-opacity:1;stroke:none;stroke-width:0.3237555;stroke-linecap:butt;stroke-linejoin:round;stroke-miterlimit:1;stroke-dasharray:none;stroke-opacity:1;paint-order:markers fill stroke;filter:url(#filter3740)" /><path
     id="rect1173"
     d="M 30.697266 4.9453125 L 30.697266 5.2070312 L 30.472656 5.2070312 L 30.472656 11.40625 L 30.697266 11.40625 L 30.697266 14.378906 L 38.689453 14.378906 L 38.689453 13.78125 L 39.65625 13.78125 L 39.65625 11.5 L 40.392578 11.5 L 40.392578 8.3144531 L 39.65625 8.3144531 L 39.65625 4.9453125 L 38.689453 4.9453125 L 30.697266 4.9453125 z "
     style="opacity:1;fill:#ffffff;fill-opacity:1;stroke:none;stroke-width:0.30399999;stroke-linecap:butt;stroke-linejoin:round;stroke-miterlimit:1;stroke-dasharray:none;stroke-opacity:1;paint-order:markers fill stroke;filter:url(#filter3736)" /><path
     sodipodi:nodetypes="cccccccccccccccccccccccccccccccccccccccccccccccccc"
     inkscape:connector-curvature="0"
     id="rect871"
     d="m 30.697266,2.0253906 v 2.9199219 h 8.234375 V 2.0253906 Z m 8.234375,2.9199219 v 0.2792969 h 0.263671 v 2.4335937 0.65625 h 1.197266 v -0.65625 H 40.130859 V 5.2246094 4.9453125 Z m 1.460937,3.3691406 v 2.8808589 h -1.179687 v 2.453126 h -0.523438 v 0.730468 h 2.582031 V 13.648438 11.195312 8.3144531 Z m -1.703125,6.0644529 h -7 v 1.572266 h 7 z m -7,0.101562 v -3.097656 h -1.216797 v 3.136719 z M 30.472656,11.382812 V 5.2070312 h 0.22461 V 4.9453125 H 28.375 v 0.2617187 6.1757808 z m 2.994141,-3.4433589 v 3.1445309 h 2.769531 V 7.9394531 Z"
     style="opacity:1;fill:#001500;fill-opacity:1;stroke:none;stroke-width:0.30399999;stroke-linecap:butt;stroke-linejoin:round;stroke-miterlimit:1;stroke-dasharray:none;stroke-opacity:1;paint-order:markers fill stroke;filter:url(#filter3732)" /><rect
     y="8.046875"
     x="5.1875"
     height="11.706015"
     width="15.867196"
     id="rect1191"
     style="opacity:1;fill:url(#radialGradient1214);fill-opacity:1;stroke:none;stroke-width:0.30563295;stroke-linecap:butt;stroke-linejoin:round;stroke-miterlimit:1;stroke-dasharray:none;stroke-opacity:1;paint-order:markers fill stroke;filter:url(#filter3728)" /><path
     id="rect1182"
     d="M 5.8203125 5.1875 L 5.8203125 7.6582031 L 4.6230469 7.6582031 L 4.6230469 11.5 L 5.8203125 11.5 L 5.8203125 14.154297 L 13.271484 14.154297 L 13.271484 11.121094 L 14.880859 11.121094 L 14.880859 7.2148438 L 13.271484 7.2148438 L 13.271484 5.1875 L 5.8203125 5.1875 z "
     style="opacity:1;fill:#ffffff;fill-opacity:1;stroke:none;stroke-width:0.30399999;stroke-linecap:butt;stroke-linejoin:round;stroke-miterlimit:1;stroke-dasharray:none;stroke-opacity:1;paint-order:markers fill stroke;filter:url(#filter3724)" /><path
     id="rect890"
     d="M 5.8203125 2.4179688 L 5.8203125 5.1875 L 6.4941406 5.1875 L 6.4941406 4.9453125 L 13.308594 4.9453125 L 13.308594 7.6582031 L 14.1875 7.6582031 L 14.880859 7.6582031 L 14.880859 11.121094 L 15.722656 11.121094 L 15.722656 7.6582031 L 16.976562 7.6582031 L 16.976562 5.2070312 L 14.1875 5.2070312 L 14.1875 4.9453125 L 14.1875 2.4179688 L 6.4941406 2.4179688 L 5.8203125 2.4179688 z M 14.880859 11.121094 L 13.271484 11.121094 L 13.271484 14.154297 L 14.880859 14.154297 L 14.880859 11.121094 z M 13.271484 14.154297 L 5.8964844 14.154297 L 5.8964844 13.685547 L 5.8964844 11.140625 L 4.6230469 11.140625 L 4.6230469 7.6582031 L 5.8203125 7.6582031 L 5.8203125 5.1875 L 3.78125 5.1875 L 3.78125 7.6582031 L 3.78125 13.685547 L 4.6230469 13.685547 L 5.3164062 13.685547 L 5.3164062 14.771484 L 5.8964844 14.771484 L 13.271484 14.771484 L 13.271484 14.154297 z M 9.2832031 8.3515625 L 9.2832031 10.822266 L 10.164062 10.822266 L 10.164062 8.3515625 L 9.2832031 8.3515625 z "
     style="opacity:1;fill:#001500;fill-opacity:1;stroke:none;stroke-width:0.30399999;stroke-linecap:butt;stroke-linejoin:round;stroke-miterlimit:1;stroke-dasharray:none;stroke-opacity:1;paint-order:markers fill stroke;filter:url(#filter3720)" /><path
     id="rect914"
     d="M 14.5625 28.753906 L 14.5625 31.710938 L 2.2832031 31.710938 L 2.2832031 34.554688 L 3.7441406 34.554688 L 3.7441406 37.4375 L 6.5136719 37.4375 L 6.5136719 40.246094 L 12.279297 40.246094 L 12.279297 43.089844 L 33.279297 43.089844 L 33.279297 40.246094 L 38.857422 40.246094 L 38.857422 37.4375 L 41.365234 37.4375 L 41.365234 34.554688 L 42.789062 34.554688 L 42.789062 31.710938 L 30.621094 31.710938 L 30.621094 28.753906 L 29.537109 28.753906 L 29.537109 31.710938 L 27.701172 31.710938 L 27.701172 28.753906 L 17.332031 28.753906 L 17.332031 31.710938 L 15.611328 31.710938 L 15.611328 28.753906 L 14.5625 28.753906 z "
     style="opacity:1;fill:#d9d9b1;fill-opacity:1;stroke:none;stroke-width:0.30399999;stroke-linecap:butt;stroke-linejoin:round;stroke-miterlimit:1;stroke-dasharray:none;stroke-opacity:1;paint-order:markers fill stroke;filter:url(#filter3716)" /><rect
     y="8.561904"
     x="8.2643108"
     height="1.9666407"
     width="1.2153398"
     id="rect1262"
     style="opacity:0.805;fill:#021602;fill-opacity:1;stroke:none;stroke-width:0.30399999;stroke-linecap:butt;stroke-linejoin:round;stroke-miterlimit:1;stroke-dasharray:none;stroke-opacity:1;paint-order:markers fill stroke;filter:url(#filter3712)" /><rect
     y="20.117428"
     x="17.332031"
     height="8.6364784"
     width="10.394038"
     id="rect967"
     style="opacity:1;fill:url(#linearGradient971);fill-opacity:1;stroke-width:0.753266;stroke-linecap:square;stroke-linejoin:round;stroke-miterlimit:10;stroke-opacity:0.854902;filter:url(#filter1421)" /><rect
     style="opacity:1;fill:url(#linearGradient971-3);fill-opacity:1;stroke-width:0.240972;stroke-linecap:square;stroke-linejoin:round;stroke-miterlimit:10;stroke-opacity:0.854902;filter:url(#filter1417)"
     id="rect967-5"
     width="1.0637007"
     height="8.6364784"
     x="14.5625"
     y="20.117428" /><rect
     y="20.117428"
     x="29.537109"
     height="8.6364784"
     width="1.0637007"
     id="rect967-5-2"
     style="opacity:1;fill:url(#linearGradient971-3-3);fill-opacity:1;stroke-width:0.240972;stroke-linecap:square;stroke-linejoin:round;stroke-miterlimit:10;stroke-opacity:0.854902;filter:url(#filter1425)" /></svg>
