<?xml version="1.0" encoding="UTF-8" standalone="no"?>
<svg
   xmlns:dc="http://purl.org/dc/elements/1.1/"
   xmlns:cc="http://creativecommons.org/ns#"
   xmlns:rdf="http://www.w3.org/1999/02/22-rdf-syntax-ns#"
   xmlns:svg="http://www.w3.org/2000/svg"
   xmlns="http://www.w3.org/2000/svg"
   xmlns:xlink="http://www.w3.org/1999/xlink"
   xmlns:sodipodi="http://sodipodi.sourceforge.net/DTD/sodipodi-0.dtd"
   xmlns:inkscape="http://www.inkscape.org/namespaces/inkscape"
   viewBox="0 0 45 45"
   style="enable-background:new 0 0 45 45;"
   xml:space="preserve"
   version="1.1"
   id="svg2"
   sodipodi:docname="scaryfrog.svg"
   inkscape:version="0.92.4 5da689c313, 2019-01-14"><sodipodi:namedview
     pagecolor="#ffffff"
     bordercolor="#666666"
     borderopacity="1"
     objecttolerance="10"
     gridtolerance="10"
     guidetolerance="10"
     inkscape:pageopacity="0"
     inkscape:pageshadow="2"
     inkscape:window-width="1920"
     inkscape:window-height="1030"
     id="namedview839"
     showgrid="false"
     inkscape:zoom="8"
     inkscape:cx="40.519366"
     inkscape:cy="9.2582395"
     inkscape:window-x="1600"
     inkscape:window-y="50"
     inkscape:window-maximized="0"
     inkscape:current-layer="svg2" /><metadata
     id="metadata8"><rdf:RDF><cc:Work
         rdf:about=""><dc:format>image/svg+xml</dc:format><dc:type
           rdf:resource="http://purl.org/dc/dcmitype/StillImage" /><dc:title></dc:title></cc:Work></rdf:RDF></metadata><defs
     id="defs6"><linearGradient
       inkscape:collect="always"
       id="linearGradient1246"><stop
         id="stop1240"
         offset="0"
         style="stop-color:#001400;stop-opacity:0.99215686" /><stop
         style="stop-color:#001400;stop-opacity:0.99215686"
         offset="0.72048247"
         id="stop1242" /><stop
         id="stop1244"
         offset="1"
         style="stop-color:#90b868;stop-opacity:1;" /></linearGradient><linearGradient
       id="linearGradient1224"
       inkscape:collect="always"><stop
         style="stop-color:#001400;stop-opacity:0.99215686"
         offset="0"
         id="stop1222" /><stop
         id="stop1228"
         offset="0.71942091"
         style="stop-color:#001400;stop-opacity:0.99215686" /><stop
         style="stop-color:#90b868;stop-opacity:1;"
         offset="1"
         id="stop1220" /></linearGradient><linearGradient
       inkscape:collect="always"
       id="linearGradient1119"><stop
         style="stop-color:#90b868;stop-opacity:1;"
         offset="0"
         id="stop1115" /><stop
         style="stop-color:#021602;stop-opacity:1"
         offset="1"
         id="stop1117" /></linearGradient><clipPath
       id="clipPath16"
       clipPathUnits="userSpaceOnUse"><path
         id="path18"
         d="M 0,36 36,36 36,0 0,0 0,36 Z" /></clipPath><linearGradient
       inkscape:collect="always"
       xlink:href="#linearGradient1119"
       id="linearGradient1121"
       x1="21.38998"
       y1="27.32233"
       x2="21.38998"
       y2="31.433689"
       gradientUnits="userSpaceOnUse" /><radialGradient
       inkscape:collect="always"
       xlink:href="#linearGradient1224"
       id="radialGradient1214"
       cx="10.164062"
       cy="9.7282524"
       fx="10.164062"
       fy="9.7282524"
       r="7.933598"
       gradientTransform="matrix(-0.76613358,0.7932907,-0.74344917,-0.71799825,25.183551,9.744079)"
       gradientUnits="userSpaceOnUse" /><radialGradient
       inkscape:collect="always"
       xlink:href="#linearGradient1246"
       id="radialGradient1238"
       gradientUnits="userSpaceOnUse"
       gradientTransform="matrix(-0.67224976,0.60917356,-0.68517755,-0.75612387,62.488895,-2.0921313)"
       cx="32.707069"
       cy="9.0415802"
       fx="32.707069"
       fy="9.0415802"
       r="8.9023409" /><filter
       inkscape:collect="always"
       style="color-interpolation-filters:sRGB"
       id="filter3712"
       x="-0.083350533"
       width="1.1667011"
       y="-0.051508757"
       height="1.1030175"><feGaussianBlur
         inkscape:collect="always"
         stdDeviation="0.042208008"
         id="feGaussianBlur3714" /></filter><filter
       inkscape:collect="always"
       style="color-interpolation-filters:sRGB"
       id="filter3716"
       x="-0.0025008535"
       width="1.0050017"
       y="-0.0070661033"
       height="1.0141322"><feGaussianBlur
         inkscape:collect="always"
         stdDeviation="0.042208008"
         id="feGaussianBlur3718" /></filter><filter
       inkscape:collect="always"
       style="color-interpolation-filters:sRGB"
       id="filter3720"
       x="-0.0076769097"
       width="1.0153538"
       y="-0.0082000319"
       height="1.0164001"><feGaussianBlur
         inkscape:collect="always"
         stdDeviation="0.042208008"
         id="feGaussianBlur3722" /></filter><filter
       inkscape:collect="always"
       style="color-interpolation-filters:sRGB"
       id="filter3724"
       x="-0.0098753241"
       width="1.0197506"
       y="-0.011297146"
       height="1.0225943"><feGaussianBlur
         inkscape:collect="always"
         stdDeviation="0.042208008"
         id="feGaussianBlur3726" /></filter><filter
       inkscape:collect="always"
       style="color-interpolation-filters:sRGB"
       id="filter3728"
       x="-0.0063841915"
       width="1.0127684"
       y="-0.0086536043"
       height="1.0173072"><feGaussianBlur
         inkscape:collect="always"
         stdDeviation="0.042208008"
         id="feGaussianBlur3730" /></filter><filter
       inkscape:collect="always"
       style="color-interpolation-filters:sRGB"
       id="filter3732"
       x="-0.0078547935"
       width="1.0157096"
       y="-0.0072742215"
       height="1.0145484"><feGaussianBlur
         inkscape:collect="always"
         stdDeviation="0.042208008"
         id="feGaussianBlur3734" /></filter><filter
       inkscape:collect="always"
       style="color-interpolation-filters:sRGB"
       id="filter3736"
       x="-0.010211695"
       width="1.0204234"
       y="-0.010738137"
       height="1.0214763"><feGaussianBlur
         inkscape:collect="always"
         stdDeviation="0.042208008"
         id="feGaussianBlur3738" /></filter><filter
       inkscape:collect="always"
       style="color-interpolation-filters:sRGB"
       id="filter3740"
       x="-0.0052961504"
       width="1.0105923"
       y="-0.0086542968"
       height="1.0173086"><feGaussianBlur
         inkscape:collect="always"
         stdDeviation="0.042208008"
         id="feGaussianBlur3742" /></filter><filter
       inkscape:collect="always"
       style="color-interpolation-filters:sRGB"
       id="filter3744"
       x="-0.0023366913"
       width="1.0046734"
       y="-0.0042807196"
       height="1.0085614"><feGaussianBlur
         inkscape:collect="always"
         stdDeviation="0.042208008"
         id="feGaussianBlur3746" /></filter></defs><path
     style="opacity:1;fill:url(#linearGradient1121);fill-opacity:1;stroke:none;stroke-width:0.30399999;stroke-linecap:butt;stroke-linejoin:round;stroke-miterlimit:1;stroke-dasharray:none;stroke-opacity:1;paint-order:markers fill stroke;filter:url(#filter3744)"
     d="M 5.1875 8.046875 L 5.1875 17.152344 L 5.1875 19.746094 L 3.546875 19.746094 L 3.546875 20.222656 L 2.4355469 20.222656 L 2.4355469 22.976562 L 0.85351562 22.976562 L 0.85351562 25.941406 L 0.85351562 31.710938 L 44.205078 31.710938 L 44.205078 25.941406 L 42.882812 25.941406 L 42.882812 22.976562 L 42.882812 20.222656 L 42.882812 19.746094 L 40.181641 19.746094 L 40.181641 17.152344 L 38.859375 17.152344 L 38.859375 8.046875 L 22.023438 8.046875 L 5.1875 8.046875 z "
     id="rect938" /><path
     style="opacity:1;fill:url(#radialGradient1238);fill-opacity:1;stroke:none;stroke-width:0.3237555;stroke-linecap:butt;stroke-linejoin:round;stroke-miterlimit:1;stroke-dasharray:none;stroke-opacity:1;paint-order:markers fill stroke;filter:url(#filter3740)"
     d="M 21.054688 8.046875 L 21.054688 19.751953 L 38.859375 19.751953 L 40.181641 19.751953 L 40.181641 17.152344 L 38.859375 17.152344 L 38.859375 8.046875 L 21.054688 8.046875 z "
     id="rect1196" /><path
     style="opacity:1;fill:#ffffff;fill-opacity:1;stroke:none;stroke-width:0.30399999;stroke-linecap:butt;stroke-linejoin:round;stroke-miterlimit:1;stroke-dasharray:none;stroke-opacity:1;paint-order:markers fill stroke;filter:url(#filter3736)"
     d="M 30.697266 4.9453125 L 30.697266 5.2070312 L 30.472656 5.2070312 L 30.472656 11.40625 L 30.697266 11.40625 L 30.697266 14.378906 L 38.689453 14.378906 L 38.689453 13.78125 L 39.65625 13.78125 L 39.65625 11.5 L 40.392578 11.5 L 40.392578 8.3144531 L 39.65625 8.3144531 L 39.65625 4.9453125 L 38.689453 4.9453125 L 30.697266 4.9453125 z "
     id="rect1173" /><path
     style="opacity:1;fill:#001500;fill-opacity:1;stroke:none;stroke-width:0.30399999;stroke-linecap:butt;stroke-linejoin:round;stroke-miterlimit:1;stroke-dasharray:none;stroke-opacity:1;paint-order:markers fill stroke;filter:url(#filter3732)"
     d="m 30.697266,2.0253906 v 2.9199219 h 8.234375 V 2.0253906 Z m 8.234375,2.9199219 v 0.2792969 h 0.263671 v 2.4335937 0.65625 h 1.197266 v -0.65625 H 40.130859 V 5.2246094 4.9453125 Z m 1.460937,3.3691406 v 2.8808589 h -1.179687 v 2.453126 h -0.523438 v 0.730468 h 2.582031 V 13.648438 11.195312 8.3144531 Z m -1.703125,6.0644529 h -7 v 1.572266 h 7 z m -7,0.101562 v -3.097656 h -1.216797 v 3.136719 z M 30.472656,11.382812 V 5.2070312 h 0.22461 V 4.9453125 H 28.375 v 0.2617187 6.1757808 z m 2.994141,-3.4433589 v 3.1445309 h 2.769531 V 7.9394531 Z"
     id="rect871"
     inkscape:connector-curvature="0"
     sodipodi:nodetypes="cccccccccccccccccccccccccccccccccccccccccccccccccc" /><rect
     style="opacity:1;fill:url(#radialGradient1214);fill-opacity:1;stroke:none;stroke-width:0.30563295;stroke-linecap:butt;stroke-linejoin:round;stroke-miterlimit:1;stroke-dasharray:none;stroke-opacity:1;paint-order:markers fill stroke;filter:url(#filter3728)"
     id="rect1191"
     width="15.867196"
     height="11.706015"
     x="5.1875"
     y="8.046875" /><path
     style="opacity:1;fill:#ffffff;fill-opacity:1;stroke:none;stroke-width:0.30399999;stroke-linecap:butt;stroke-linejoin:round;stroke-miterlimit:1;stroke-dasharray:none;stroke-opacity:1;paint-order:markers fill stroke;filter:url(#filter3724)"
     d="M 5.8203125 5.1875 L 5.8203125 7.6582031 L 4.6230469 7.6582031 L 4.6230469 11.5 L 5.8203125 11.5 L 5.8203125 14.154297 L 13.271484 14.154297 L 13.271484 11.121094 L 14.880859 11.121094 L 14.880859 7.2148438 L 13.271484 7.2148438 L 13.271484 5.1875 L 5.8203125 5.1875 z "
     id="rect1182" /><path
     style="opacity:1;fill:#001500;fill-opacity:1;stroke:none;stroke-width:0.30399999;stroke-linecap:butt;stroke-linejoin:round;stroke-miterlimit:1;stroke-dasharray:none;stroke-opacity:1;paint-order:markers fill stroke;filter:url(#filter3720)"
     d="M 5.8203125 2.4179688 L 5.8203125 5.1875 L 6.4941406 5.1875 L 6.4941406 4.9453125 L 13.308594 4.9453125 L 13.308594 7.6582031 L 14.1875 7.6582031 L 14.880859 7.6582031 L 14.880859 11.121094 L 15.722656 11.121094 L 15.722656 7.6582031 L 16.976562 7.6582031 L 16.976562 5.2070312 L 14.1875 5.2070312 L 14.1875 4.9453125 L 14.1875 2.4179688 L 6.4941406 2.4179688 L 5.8203125 2.4179688 z M 14.880859 11.121094 L 13.271484 11.121094 L 13.271484 14.154297 L 14.880859 14.154297 L 14.880859 11.121094 z M 13.271484 14.154297 L 5.8964844 14.154297 L 5.8964844 13.685547 L 5.8964844 11.140625 L 4.6230469 11.140625 L 4.6230469 7.6582031 L 5.8203125 7.6582031 L 5.8203125 5.1875 L 3.78125 5.1875 L 3.78125 7.6582031 L 3.78125 13.685547 L 4.6230469 13.685547 L 5.3164062 13.685547 L 5.3164062 14.771484 L 5.8964844 14.771484 L 13.271484 14.771484 L 13.271484 14.154297 z M 9.2832031 8.3515625 L 9.2832031 10.822266 L 10.164062 10.822266 L 10.164062 8.3515625 L 9.2832031 8.3515625 z "
     id="rect890" /><path
     style="opacity:1;fill:#d9d9b1;fill-opacity:1;stroke:none;stroke-width:0.30399999;stroke-linecap:butt;stroke-linejoin:round;stroke-miterlimit:1;stroke-dasharray:none;stroke-opacity:1;paint-order:markers fill stroke;filter:url(#filter3716)"
     d="M 14.5625 28.753906 L 14.5625 31.710938 L 2.2832031 31.710938 L 2.2832031 34.554688 L 3.7441406 34.554688 L 3.7441406 37.4375 L 6.5136719 37.4375 L 6.5136719 40.246094 L 12.279297 40.246094 L 12.279297 43.089844 L 33.279297 43.089844 L 33.279297 40.246094 L 38.857422 40.246094 L 38.857422 37.4375 L 41.365234 37.4375 L 41.365234 34.554688 L 42.789062 34.554688 L 42.789062 31.710938 L 30.621094 31.710938 L 30.621094 28.753906 L 29.537109 28.753906 L 29.537109 31.710938 L 27.701172 31.710938 L 27.701172 28.753906 L 17.332031 28.753906 L 17.332031 31.710938 L 15.611328 31.710938 L 15.611328 28.753906 L 14.5625 28.753906 z "
     id="rect914" /><rect
     style="opacity:0.805;fill:#021602;fill-opacity:1;stroke:none;stroke-width:0.30399999;stroke-linecap:butt;stroke-linejoin:round;stroke-miterlimit:1;stroke-dasharray:none;stroke-opacity:1;paint-order:markers fill stroke;filter:url(#filter3712)"
     id="rect1262"
     width="1.2153398"
     height="1.9666407"
     x="8.2643108"
     y="8.561904" /></svg>