<svg xmlns="http://www.w3.org/2000/svg" viewBox="0 0 2000 2000"><defs><style>.cls-1{fill:#66757f;}.cls-2,.cls-7{fill:#292f33;}.cls-3{fill:#c6e5b3;}.cls-4{fill:#77b255;}.cls-5{fill:#fff;}.cls-6{fill:#5c913b;}.cls-7{fill-rule:evenodd;}.cls-8{fill:none;}</style></defs><g id="Ebene_2" data-name="Ebene 2"><g id="Ebene_1-2" data-name="Ebene 1"><path class="cls-1" d="M1833.33,2000v-55.56c0-184-149.28-333.33-333.33-333.33H500c-184.06,0-333.34,149.28-333.34,333.33V2000Zm-347.22-864.73c66,11.56,145.5,7.17,134.22,50.94-26.61,103-144.67,64.84-165.5,66S1486.11,1135.27,1486.11,1135.27Z"/><path class="cls-2" d="M1503.44,1146.94c104.17,13.89,141.17,23.11,64.78,53.22-42.89,16.94-124.61,266.84-185.06,228.78S1503.44,1146.94,1503.44,1146.94Z"/><path class="cls-1" d="M514.15,1135.27c-66,11.56-145.5,7.17-134.22,50.94,26.61,103,144.67,64.84,165.5,66S514.15,1135.27,514.15,1135.27Z"/><path class="cls-2" d="M496.82,1146.94c-104.17,13.89-141.17,23.11-64.78,53.22C474.93,1217.1,556.65,1467,617.1,1428.94S496.82,1146.94,496.82,1146.94Z"/><path class="cls-3" d="M1509.77,1184.65c0,210.93-228,339.48-509.22,339.48s-509.22-128.55-509.22-339.48,228-424.35,509.22-424.35S1509.77,973.72,1509.77,1184.65Z"/><path class="cls-4" d="M1389.68,920.87a169.67,169.67,0,0,0-106.23-302c-80.94,0-148.52,56.69-165.53,132.54a332,332,0,0,0-234.75,0c-17-75.85-84.58-132.54-165.52-132.54a169.67,169.67,0,0,0-106.23,302c-74.83,75.82-120.09,170-120.09,263.78,0,210.93,228,28.29,509.22,28.29s509.22,182.64,509.22-28.29C1509.77,1090.87,1464.51,996.69,1389.68,920.87Z"/><circle class="cls-5" cx="703.5" cy="774.45" r="99.01"/><circle class="cls-2" cx="703.5" cy="774.45" r="42.43"/><circle class="cls-5" cx="1297.59" cy="774.45" r="99.01"/><circle class="cls-2" cx="1297.59" cy="774.45" r="42.43"/><circle class="cls-6" cx="887.39" cy="1128.07" r="28.29"/><circle class="cls-6" cx="1113.71" cy="1128.07" r="28.29"/><path class="cls-7" d="M425.38,821.54c8.22,8.17,49.33,32.84,57.55,57.45S507.65,1043.1,557,1084.16c50.89,42.33,242.78,26.55,279.56,8.28,82.22-41,92.33-155.45,106.89-213.45,8.22-32.83,57.55-32.83,57.55-32.83s49.34,0,57.56,32.83c14.55,58,24.66,172.45,106.89,213.39,36.78,18.33,228.67,34.11,279.67-8.17,49.27-41,65.72-180.55,73.94-205.22s49.34-49.22,57.5-57.44,8.22-41.06,0-49.28c-16.44-16.39-210.44-31.06-419.34-8.23-41.66,4.56-57.5,16.39-156.22,16.39S886.43,768.54,844.77,764c-208.84-22.83-402.89-8.22-419.34,8.23C417.15,780.49,417.15,813.38,425.38,821.54Z"/><path class="cls-1" d="M436.54,466.38S512-28.13,766.1,1.26c195.11,22.56,271.67,45.83,435.17,5.39,108.17-26.78,225.84,63.11,296.78,243.28,45.34,114.89,68,224.5,68,224.5s218.78-21.39,231.39,96.22-241.89,262-882.73,262C555.54,832.6,185,701.65,167.37,592S436.54,466.38,436.54,466.38Z"/><path class="cls-2" d="M451.38,397.21s-15,61.33-22.56,103.94,12.56,72,150.28,101.34c182.61,38.89,593.28,38.44,836.56-21.28,97.72-24,160.34-40,152.84-88-9.28-59.33-10.89-59.22-30.06-122.66,0,0-82.06,27.89-190.39,53.33-147.78,34.67-553.56,50.61-748.95,8C495,409.15,451.38,397.21,451.38,397.21Zm-7.56,775.17c-19.67,8.06,162.28,76.56,415.56,81,265.06,4.67,346.34,21.67,285.89,81.06-63.67,62.5-47.33,160.78-42.83,189.89s113.72,106.44,122.66,142.22-68.27,331.17-68.27,331.17l-484.95-14c-142.5-491.34-160.17-472.28-228.06-755.78C430.43,1171.94,443.82,1172.38,443.82,1172.38Z"/><path class="cls-1" d="M388.26,1174.66c-19.66,8.11,162.28,76.56,415.56,81,265.06,4.67,346.34,21.67,285.89,81.06-63.66,62.5-36.88,160.78-32.38,189.89s103.27,106.44,112.27,142.28S1101.21,2000,1101.21,2000l-484.94-14c-142.51-491.34-160.17-472.28-228.06-755.78C374.87,1174.21,388.26,1174.66,388.26,1174.66Z"/><path class="cls-2" d="M1558.44,1172.38c19.67,8.06-162.28,76.56-415.5,81-265.06,4.67-346.34,21.67-285.89,81.06,63.66,62.5,165.33,160.67,160.89,189.78s-231.78,106.55-240.73,142.33,68.28,331.17,68.28,331.17l485-14c142.5-491.34,160.17-472.28,228-755.78C1571.83,1171.94,1558.44,1172.38,1558.44,1172.38Z"/><path class="cls-1" d="M1608.77,1172.38c19.67,8.06-162.27,76.56-415.5,81-265.06,4.67-346.34,21.67-285.89,81.06,63.67,62.5,165.39,160.67,160.89,189.78s-231.78,106.55-240.72,142.33,68.27,331.17,68.27,331.17l480.95.56c142.5-491.34,164.17-486.84,232.06-770.34C1622.16,1171.94,1608.77,1172.38,1608.77,1172.38Z"/><rect class="cls-8" width="2000" height="2000"/></g></g></svg>