<?xml version="1.0" encoding="UTF-8" standalone="no"?>
<svg
   xmlns:dc="http://purl.org/dc/elements/1.1/"
   xmlns:cc="http://creativecommons.org/ns#"
   xmlns:rdf="http://www.w3.org/1999/02/22-rdf-syntax-ns#"
   xmlns:svg="http://www.w3.org/2000/svg"
   xmlns="http://www.w3.org/2000/svg"
   xmlns:xlink="http://www.w3.org/1999/xlink"
   xmlns:sodipodi="http://sodipodi.sourceforge.net/DTD/sodipodi-0.dtd"
   xmlns:inkscape="http://www.inkscape.org/namespaces/inkscape"
   viewBox="0 0 45 45"
   style="enable-background:new 0 0 45 45;"
   xml:space="preserve"
   version="1.1"
   id="svg2"
   sodipodi:docname="frog_super_cape.svg"
   inkscape:version="0.92.4 5da689c313, 2019-01-14"><sodipodi:namedview
   pagecolor="#ffffff"
   bordercolor="#666666"
   borderopacity="1"
   objecttolerance="10"
   gridtolerance="10"
   guidetolerance="10"
   inkscape:pageopacity="0"
   inkscape:pageshadow="2"
   inkscape:window-width="1920"
   inkscape:window-height="1030"
   id="namedview856"
   showgrid="false"
   inkscape:zoom="11.313709"
   inkscape:cx="23.39667"
   inkscape:cy="18.495089"
   inkscape:window-x="1600"
   inkscape:window-y="50"
   inkscape:window-maximized="0"
   inkscape:current-layer="svg2" /><metadata
   id="metadata8"><rdf:RDF><cc:Work
       rdf:about=""><dc:format>image/svg+xml</dc:format><dc:type
         rdf:resource="http://purl.org/dc/dcmitype/StillImage" /><dc:title></dc:title></cc:Work></rdf:RDF></metadata><defs
   id="defs6"><linearGradient
     id="linearGradient4775"
     inkscape:collect="always"><stop
       id="stop4767"
       offset="0"
       style="stop-color:#ffffff;stop-opacity:0.82805431" /><stop
       id="stop4773"
       offset="1"
       style="stop-color:#ffffff;stop-opacity:0" /></linearGradient><linearGradient
     inkscape:collect="always"
     id="linearGradient4743"><stop
       style="stop-color:#ff0000;stop-opacity:1"
       offset="0"
       id="stop4739" /><stop
       id="stop4749"
       offset="0.27994573"
       style="stop-color:#e00000;stop-opacity:1;" /><stop
       id="stop4747"
       offset="0.6456275"
       style="stop-color:#c00000;stop-opacity:1;" /><stop
       style="stop-color:#900000;stop-opacity:1"
       offset="1"
       id="stop4741" /></linearGradient><clipPath
     id="clipPath16"
     clipPathUnits="userSpaceOnUse"><path
       id="path18"
       d="M 0,36 36,36 36,0 0,0 0,36 Z" /></clipPath><meshgradient
     inkscape:collect="always"
     id="meshgradient871"
     gradientUnits="userSpaceOnUse"
     x="13.205158"
     y="26.990931"><meshrow
       id="meshrow873"><meshpatch
         id="meshpatch875"><stop
           path="c 6.19656,0  12.3931,0  18.5897,0"
           style="stop-color:#ffffff;stop-opacity:1"
           id="stop877" /><stop
           path="c 0,5.63554  0,11.2711  0,16.9066"
           style="stop-color:#000000;stop-opacity:1"
           id="stop879" /><stop
           path="c -6.19656,0  -12.3931,0  -18.5897,0"
           style="stop-color:#ffffff;stop-opacity:1"
           id="stop881" /><stop
           path="c 0,-5.63554  0,-11.2711  0,-16.9066"
           style="stop-color:#000000;stop-opacity:1"
           id="stop883" /></meshpatch></meshrow></meshgradient><meshgradient
     inkscape:collect="always"
     id="meshgradient885"
     gradientUnits="userSpaceOnUse"
     x="-9.9999997e-05"
     y="2"><meshrow
       id="meshrow887"><meshpatch
         id="meshpatch889"><stop
           path="c 12,0  24.0001,0  36.0001,0"
           style="stop-color:#ffffff;stop-opacity:1"
           id="stop891" /><stop
           path="c 0,10.6667  0,21.3335  0,32.0002"
           style="stop-color:#000000;stop-opacity:1"
           id="stop893" /><stop
           path="c -12,0  -24.0001,0  -36.0001,0"
           style="stop-color:#ffffff;stop-opacity:1"
           id="stop895" /><stop
           path="c 0,-10.6667  0,-21.3335  0,-32.0002"
           style="stop-color:#000000;stop-opacity:1"
           id="stop897" /></meshpatch></meshrow></meshgradient><meshgradient
     inkscape:collect="always"
     id="meshgradient4659"
     gradientUnits="userSpaceOnUse"
     x="-9.9999997e-05"
     y="2"><meshrow
       id="meshrow4671"><meshpatch
         id="meshpatch4669"><stop
           id="stop4661"
           style="stop-color:#ffffff;stop-opacity:1"
           path="c 12,0  24.0001,0  36.0001,0" /><stop
           id="stop4663"
           style="stop-color:#000000;stop-opacity:1"
           path="c 0,10.6667  0,21.3335  0,32.0002" /><stop
           id="stop4665"
           style="stop-color:#ffffff;stop-opacity:1"
           path="c -12,0  -24.0001,0  -36.0001,0" /><stop
           id="stop4667"
           style="stop-color:#000000;stop-opacity:1"
           path="c 0,-10.6667  0,-21.3335  0,-32.0002" /></meshpatch></meshrow></meshgradient><meshgradient
     inkscape:collect="always"
     id="meshgradient4673"
     gradientUnits="userSpaceOnUse"
     x="-9.9999997e-05"
     y="2"><meshrow
       id="meshrow4685"><meshpatch
         id="meshpatch4683"><stop
           id="stop4675"
           style="stop-color:#ffffff;stop-opacity:1"
           path="c 12,0  24.0001,0  36.0001,0" /><stop
           id="stop4677"
           style="stop-color:#000000;stop-opacity:1"
           path="c 0,10.6667  0,21.3335  0,32.0002" /><stop
           id="stop4679"
           style="stop-color:#ffffff;stop-opacity:1"
           path="c -12,0  -24.0001,0  -36.0001,0" /><stop
           id="stop4681"
           style="stop-color:#000000;stop-opacity:1"
           path="c 0,-10.6667  0,-21.3335  0,-32.0002" /></meshpatch></meshrow></meshgradient><meshgradient
     inkscape:collect="always"
     id="meshgradient4687"
     gradientUnits="userSpaceOnUse"
     x="-9.9999997e-05"
     y="2"><meshrow
       id="meshrow4699"><meshpatch
         id="meshpatch4697"><stop
           id="stop4689"
           style="stop-color:#ffffff;stop-opacity:1"
           path="c 12,0  24.0001,0  36.0001,0" /><stop
           id="stop4691"
           style="stop-color:#000000;stop-opacity:1"
           path="c 0,10.6667  0,21.3335  0,32.0002" /><stop
           id="stop4693"
           style="stop-color:#ffffff;stop-opacity:1"
           path="c -12,0  -24.0001,0  -36.0001,0" /><stop
           id="stop4695"
           style="stop-color:#000000;stop-opacity:1"
           path="c 0,-10.6667  0,-21.3335  0,-32.0002" /></meshpatch></meshrow></meshgradient><meshgradient
     inkscape:collect="always"
     id="meshgradient4701"
     gradientUnits="userSpaceOnUse"
     x="-9.9999997e-05"
     y="2"><meshrow
       id="meshrow4713"><meshpatch
         id="meshpatch4711"><stop
           id="stop4703"
           style="stop-color:#ffffff;stop-opacity:1"
           path="c 12,0  24.0001,0  36.0001,0" /><stop
           id="stop4705"
           style="stop-color:#000000;stop-opacity:1"
           path="c 0,10.6667  0,21.3335  0,32.0002" /><stop
           id="stop4707"
           style="stop-color:#ffffff;stop-opacity:1"
           path="c -12,0  -24.0001,0  -36.0001,0" /><stop
           id="stop4709"
           style="stop-color:#000000;stop-opacity:1"
           path="c 0,-10.6667  0,-21.3335  0,-32.0002" /></meshpatch></meshrow></meshgradient><meshgradient
     inkscape:collect="always"
     id="meshgradient4715"
     gradientUnits="userSpaceOnUse"
     x="13.205158"
     y="26.990931"><meshrow
       id="meshrow4727"><meshpatch
         id="meshpatch4725"><stop
           id="stop4717"
           style="stop-color:#ffffff;stop-opacity:1"
           path="c 6.19656,0  12.3931,0  18.5897,0" /><stop
           id="stop4719"
           style="stop-color:#000000;stop-opacity:1"
           path="c 0,5.63554  0,11.2711  0,16.9066" /><stop
           id="stop4721"
           style="stop-color:#ffffff;stop-opacity:1"
           path="c -6.19656,0  -12.3931,0  -18.5897,0" /><stop
           id="stop4723"
           style="stop-color:#000000;stop-opacity:1"
           path="c 0,-5.63554  0,-11.2711  0,-16.9066" /></meshpatch></meshrow></meshgradient><linearGradient
     inkscape:collect="always"
     xlink:href="#linearGradient4743"
     id="linearGradient4745"
     x1="15.836679"
     y1="18.753771"
     x2="23.568621"
     y2="32.13327"
     gradientUnits="userSpaceOnUse"
     gradientTransform="matrix(1.0419682,0,0,1.0419682,-1.8885674,-1.7506046)" /><radialGradient
     inkscape:collect="always"
     xlink:href="#linearGradient4775"
     id="radialGradient4765"
     cx="-1.60725"
     cy="25.340073"
     fx="-1.60725"
     fy="25.340073"
     r="12.697591"
     gradientTransform="matrix(0.0923578,0.05808558,-0.24611698,0.39133287,12.252547,13.571367)"
     gradientUnits="userSpaceOnUse" /></defs><path
   style="fill:url(#linearGradient4745);fill-opacity:1;stroke:none;stroke-width:0.39381474;stroke-linecap:butt;stroke-linejoin:miter;stroke-miterlimit:4;stroke-dasharray:none;stroke-opacity:1"
   d="M 10.33142,14.954587 C 3.3898073,21.057318 3.4375264,24.771687 0,38.32093 c 8.679119,-2.458038 13.218702,4.782899 19.262489,3.149002 1.480498,-3.642496 3.451155,-5.052494 3.639155,-5.757494 0.188,-0.705 1.670761,-17.467851 1.670761,-17.467851 z"
   id="path4729"
   inkscape:connector-curvature="0"
   sodipodi:nodetypes="cccscc"
   inkscape:export-xdpi="136.53334"
   inkscape:export-ydpi="136.53334" /><g
   transform="matrix(1.0917484,0,0,-1.0917484,5.6970562,40.418747)"
   id="g10"
   style="fill:url(#meshgradient885);fill-opacity:1"
   inkscape:export-xdpi="136.53334"
   inkscape:export-ydpi="136.53334"><g
     id="g12"
     style="fill:url(#meshgradient4701);fill-opacity:1"><g
       clip-path="url(#clipPath16)"
       id="g14"
       style="fill:url(#meshgradient4687);fill-opacity:1"><g
         transform="translate(36,14)"
         id="g20"
         style="fill:#8fa6ff;fill-opacity:1"><path
           id="path22"
           style="fill:#8fa6ff;fill-opacity:1;fill-rule:nonzero;stroke:none"
           d="m 0,0 c 0,-7.456 -8.059,-12 -18,-12 -9.941,0 -18,4.544 -18,12 0,7.456 8.059,15 18,15 C -8.059,15 0,7.456 0,0"
           inkscape:connector-curvature="0" /></g><g
         transform="translate(31.7549,23.3242)"
         id="g24"
         style="fill:#3a63ff;fill-opacity:1"><path
           id="path26"
           style="fill:#3a63ff;fill-opacity:1;fill-rule:nonzero;stroke:none"
           d="m 0,0 c 1.368,1.1 2.245,2.785 2.245,4.676 0,3.313 -2.686,6 -6,6 -2.861,0 -5.25,-2.005 -5.85,-4.685 -1.289,0.483 -2.684,0.758 -4.15,0.758 -1.465,0 -2.861,-0.275 -4.149,-0.758 -0.601,2.68 -2.99,4.685 -5.851,4.685 -3.313,0 -6,-2.687 -6,-6 0,-1.891 0.878,-3.576 2.245,-4.676 -2.645,-2.68 -4.245,-6.009 -4.245,-9.324 0,-7.456 8.059,-1 18,-1 9.942,0 18,-6.456 18,1 C 4.245,-6.009 2.646,-2.68 0,0"
           inkscape:connector-curvature="0" /></g><g
         transform="translate(11,28.5)"
         id="g28"
         style="fill:url(#meshgradient4659);fill-opacity:1"><path
           id="path30"
           style="fill:#ffffff;fill-opacity:1;fill-rule:nonzero;stroke:none"
           d="M 0,0 C 0,-1.933 -1.567,-3.5 -3.5,-3.5 -5.433,-3.5 -7,-1.933 -7,0 -7,1.933 -5.433,3.5 -3.5,3.5 -1.567,3.5 0,1.933 0,0"
           inkscape:connector-curvature="0" /></g><g
         transform="translate(9,28.5)"
         id="g32"
         style="fill:#000000;fill-opacity:1"><path
           id="path34"
           style="fill:#000000;fill-opacity:1;fill-rule:nonzero;stroke:none"
           d="M 0,0 C 0,-0.829 -0.671,-1.5 -1.5,-1.5 -2.329,-1.5 -3,-0.829 -3,0 -3,0.829 -2.329,1.5 -1.5,1.5 -0.671,1.5 0,0.829 0,0"
           inkscape:connector-curvature="0" /></g><g
         transform="translate(32,28.5)"
         id="g36"
         style="fill:url(#meshgradient4673);fill-opacity:1"><path
           id="path38"
           style="fill:#ffffff;fill-opacity:1;fill-rule:nonzero;stroke:none"
           d="M 0,0 C 0,-1.933 -1.566,-3.5 -3.5,-3.5 -5.434,-3.5 -7,-1.933 -7,0 -7,1.933 -5.434,3.5 -3.5,3.5 -1.566,3.5 0,1.933 0,0"
           inkscape:connector-curvature="0" /></g><g
         transform="translate(30,28.5)"
         id="g40"
         style="fill:#000000;fill-opacity:1"><path
           id="path42"
           style="fill:#000000;fill-opacity:1;fill-rule:nonzero;stroke:none"
           d="M 0,0 C 0,-0.829 -0.672,-1.5 -1.5,-1.5 -2.328,-1.5 -3,-0.829 -3,0 -3,0.829 -2.328,1.5 -1.5,1.5 -0.672,1.5 0,0.829 0,0"
           inkscape:connector-curvature="0" /></g><g
         transform="translate(15,16)"
         id="g44"
         style="fill:#001f97;fill-opacity:1"><path
           id="path46"
           style="fill:#001f97;fill-opacity:1;fill-rule:nonzero;stroke:none"
           d="m 0,0 c 0,-0.553 -0.448,-1 -1,-1 -0.552,0 -1,0.447 -1,1 0,0.553 0.448,1 1,1 0.552,0 1,-0.447 1,-1"
           inkscape:connector-curvature="0" /></g><g
         transform="translate(23,16)"
         id="g48"
         style="fill:#001f97;fill-opacity:1"><path
           id="path50"
           style="fill:#001f97;fill-opacity:1;fill-rule:nonzero;stroke:none"
           d="m 0,0 c 0,-0.553 -0.447,-1 -1,-1 -0.553,0 -1,0.447 -1,1 0,0.553 0.447,1 1,1 0.553,0 1,-0.447 1,-1"
           inkscape:connector-curvature="0" /></g></g></g></g><text
   xml:space="preserve"
   style="font-style:normal;font-weight:normal;font-size:2.08775854px;line-height:1.25;font-family:sans-serif;letter-spacing:0px;word-spacing:0px;fill:#000000;fill-opacity:1;stroke:none;stroke-width:0.05219396"
   x="16.455029"
   y="33.242371"
   id="text825"><tspan
     sodipodi:role="line"
     id="tspan823"
     x="16.455029"
     y="35.089546"
     style="font-style:normal;font-variant:normal;font-weight:normal;font-stretch:normal;font-family:'Bitstream Vera Serif';-inkscape-font-specification:'Bitstream Vera Serif';fill:#000000;fill-opacity:1;stroke-width:0.05219396" /></text>


<g
   transform="matrix(-1.1628764,0,0,0.80913827,46.567707,5.2650182)"
   id="g1464" /><g
   id="g850"
   style="fill:url(#meshgradient871);fill-opacity:1"
   transform="matrix(0.87339878,0,0,0.87339878,5.6970562,4.5801529)"
   inkscape:export-xdpi="136.53334"
   inkscape:export-ydpi="136.53334"><g
     transform="matrix(1.4836678,0,0,1.0323474,-8.2195109,-1.2457276)"
     id="g1449"
     style="fill:url(#meshgradient4715);fill-opacity:1"><path
       sodipodi:nodetypes="ccccccc"
       inkscape:connector-curvature="0"
       id="path821"
       transform="matrix(0.85993662,0,0,1.2358827,1.3649377,-6.506945)"
       d="m 16.365234,27.396484 -1.160156,3.748096 7.285156,7.626156 7.285157,-7.626156 -1.160157,-3.748096 h -6.125 z"
       style="fill:#ffe600;fill-opacity:1;stroke:#f90000;stroke-width:0.95676655;stroke-linecap:butt;stroke-linejoin:miter;stroke-miterlimit:4;stroke-dasharray:none;stroke-opacity:1" /></g><path
     sodipodi:nodetypes="ccccccccccc"
     inkscape:connector-curvature="0"
     id="path827"
     d="M 28.295158,27.461227 H 17.715755 v 9.336554 l 2.742624,2.808228 v -4.925948 h 3.681673 l 1.312523,-2.281014 h -5.043141 v -2.901245 h 6.71912 z"
     style="fill:#f90000;fill-opacity:1;stroke:none;stroke-width:0.57957327;stroke-linecap:butt;stroke-linejoin:miter;stroke-miterlimit:4;stroke-dasharray:none;stroke-opacity:1" /></g><g
   transform="matrix(1.1628764,0,0,0.80913827,41.01593,6.5024551)"
   id="g1468" /></svg>