<?xml version="1.0" encoding="UTF-8" standalone="no"?>
<svg
   xmlns:dc="http://purl.org/dc/elements/1.1/"
   xmlns:cc="http://creativecommons.org/ns#"
   xmlns:rdf="http://www.w3.org/1999/02/22-rdf-syntax-ns#"
   xmlns:svg="http://www.w3.org/2000/svg"
   xmlns="http://www.w3.org/2000/svg"
   xmlns:sodipodi="http://sodipodi.sourceforge.net/DTD/sodipodi-0.dtd"
   xmlns:inkscape="http://www.inkscape.org/namespaces/inkscape"
   viewBox="0 0 46.314449 40.000252"
   xml:space="preserve"
   version="1.1"
   id="svg2"
   sodipodi:docname="tkgfrog.svg"
   width="46.314449"
   height="40.000252"
   inkscape:version="0.92.4 5da689c313, 2019-01-14"
   inkscape:export-xdpi="1919.99"
   inkscape:export-ydpi="1919.99"><sodipodi:namedview
     pagecolor="#ffffff"
     bordercolor="#666666"
     borderopacity="1"
     objecttolerance="10"
     gridtolerance="10"
     guidetolerance="10"
     inkscape:pageopacity="0"
     inkscape:pageshadow="2"
     inkscape:window-width="1920"
     inkscape:window-height="1027"
     id="namedview26"
     showgrid="false"
     fit-margin-top="0"
     fit-margin-left="0"
     fit-margin-right="0"
     fit-margin-bottom="0"
     inkscape:zoom="10.488889"
     inkscape:cx="49.390372"
     inkscape:cy="15.307674"
     inkscape:window-x="1600"
     inkscape:window-y="53"
     inkscape:window-maximized="0"
     inkscape:current-layer="svg2" /><metadata
     id="metadata8"><rdf:RDF><cc:Work
         rdf:about=""><dc:format>image/svg+xml</dc:format><dc:type
           rdf:resource="http://purl.org/dc/dcmitype/StillImage" /><dc:title></dc:title></cc:Work></rdf:RDF></metadata><defs
     id="defs6"><clipPath
       id="clipPath16"
       clipPathUnits="userSpaceOnUse"><path
         id="path18"
         d="M 0,36 H 36 V 0 H 0 Z"
         inkscape:connector-curvature="0" /></clipPath><clipPath
       id="clipPath16-3"
       clipPathUnits="userSpaceOnUse"><path
         inkscape:connector-curvature="0"
         id="path18-6"
         d="M 0,36 H 36 V 0 H 0 Z" /></clipPath></defs><path
     id="path22"
     style="fill:#b3e3e5;fill-opacity:1;fill-rule:nonzero;stroke:none;stroke-width:1.25"
     d="m 45.411724,25.00025 c 0,9.32 -10.07375,15 -22.5,15 -12.42625,0 -22.50000015,-5.68 -22.50000015,-15 0,-9.32 10.07375015,-18.75 22.50000015,-18.75 12.42625,0 22.5,9.43 22.5,18.75"
     inkscape:connector-curvature="0" /><path
     id="path26"
     style="fill:#55adb2;fill-opacity:1;fill-rule:nonzero;stroke:none;stroke-width:1.25"
     d="m 40.105349,13.345 c 1.71,-1.375 2.80625,-3.48125 2.80625,-5.845 0,-4.14125 -3.3575,-7.5 -7.5,-7.5 -3.57625,0 -6.5625,2.50625 -7.3125,5.85625 -1.61125,-0.60375 -3.355,-0.9475 -5.1875,-0.9475 -1.83125,0 -3.57625,0.34375 -5.18625,0.9475 C 16.974099,2.50625 13.987849,0 10.411599,0 6.2703488,0 2.9115988,3.35875 2.9115988,7.5 c 0,2.36375 1.0975,4.47 2.80625,5.845 -3.30625,3.35 -5.30624995,7.51125 -5.30624995,11.655 0,9.32 10.07375015,1.25 22.50000015,1.25 12.4275,0 22.5,8.07 22.5,-1.25 0,-4.14375 -1.99875,-8.305 -5.30625,-11.655"
     inkscape:connector-curvature="0" /><path
     id="path30"
     style="fill:#ffffff;fill-opacity:1;fill-rule:nonzero;stroke:none;stroke-width:1.25"
     d="m 14.161724,6.87525 c 0,2.41625 -1.95875,4.375 -4.3750002,4.375 -2.41625,0 -4.375,-1.95875 -4.375,-4.375 0,-2.41625 1.95875,-4.375 4.375,-4.375 2.4162502,0 4.3750002,1.95875 4.3750002,4.375"
     inkscape:connector-curvature="0" /><path
     id="path34"
     style="fill:#292f33;fill-opacity:1;fill-rule:nonzero;stroke:none;stroke-width:1.25"
     d="m 11.661724,6.87525 c 0,1.03625 -0.83875,1.875 -1.8750002,1.875 -1.03625,0 -1.875,-0.83875 -1.875,-1.875 0,-1.03625 0.83875,-1.875 1.875,-1.875 1.0362502,0 1.8750002,0.83875 1.8750002,1.875"
     inkscape:connector-curvature="0" /><path
     id="path38"
     style="fill:#ffffff;fill-opacity:1;fill-rule:nonzero;stroke:none;stroke-width:1.25"
     d="m 40.411724,6.87525 c 0,2.41625 -1.9575,4.375 -4.375,4.375 -2.4175,0 -4.375,-1.95875 -4.375,-4.375 0,-2.41625 1.9575,-4.375 4.375,-4.375 2.4175,0 4.375,1.95875 4.375,4.375"
     inkscape:connector-curvature="0" /><path
     id="path42"
     style="fill:#292f33;fill-opacity:1;fill-rule:nonzero;stroke:none;stroke-width:1.25"
     d="m 37.911724,6.87525 c 0,1.03625 -0.84,1.875 -1.875,1.875 -1.035,0 -1.875,-0.83875 -1.875,-1.875 0,-1.03625 0.84,-1.875 1.875,-1.875 1.035,0 1.875,0.83875 1.875,1.875"
     inkscape:connector-curvature="0" /><path
     id="path46"
     style="fill:#3b8e91;fill-opacity:1;fill-rule:nonzero;stroke:none;stroke-width:1.25"
     d="m 19.161724,22.50025 c 0,0.69125 -0.56,1.25 -1.25,1.25 -0.69,0 -1.25,-0.55875 -1.25,-1.25 0,-0.69125 0.56,-1.25 1.25,-1.25 0.69,0 1.25,0.55875 1.25,1.25"
     inkscape:connector-curvature="0" /><path
     id="path50"
     style="fill:#3b8e91;fill-opacity:1;fill-rule:nonzero;stroke:none;stroke-width:1.25"
     d="m 29.161724,22.50025 c 0,0.69125 -0.55875,1.25 -1.25,1.25 -0.69125,0 -1.25,-0.55875 -1.25,-1.25 0,-0.69125 0.55875,-1.25 1.25,-1.25 0.69125,0 1.25,0.55875 1.25,1.25"
     inkscape:connector-curvature="0" /><g
     transform="matrix(1.3656842,0,0,-1.3656842,-1.4489227,32.813891)"
     id="g10"
     style="fill:#000000"><g
       id="g12"
       style="fill:#000000"><g
         clip-path="url(#clipPath16-3)"
         id="g14"
         style="fill:#000000"><g
           transform="translate(1.2402,20.9824)"
           id="g20"
           style="fill:#000000"><path
             inkscape:connector-curvature="0"
             id="path22-7"
             style="fill:#000000;fill-opacity:1;fill-rule:evenodd;stroke:none"
             d="m 0,0 c 0.24,-0.239 1.437,-0.958 1.677,-1.675 0.24,-0.717 0.72,-5.307 2.158,-6.505 1.484,-1.232 7.077,-0.773 8.149,-0.24 2.397,1.195 2.691,5.055 3.115,6.745 0.239,0.957 1.677,0.957 1.677,0.957 0,0 1.439,0 1.678,-0.956 0.424,-1.691 0.72,-5.562 3.115,-6.755 1.073,-0.535 6.666,-0.994 8.152,0.238 1.435,1.197 1.915,5.799 2.155,6.517 0.238,0.717 1.437,1.435 1.677,1.674 0.241,0.239 0.241,1.196 0,1.436 C 33.074,1.914 27.419,2.34 21.33,1.675 20.115,1.542 19.653,1.196 16.776,1.196 13.901,1.196 13.437,1.542 12.223,1.674 6.136,2.34 0.479,1.914 0,1.436 -0.239,1.196 -0.239,0.239 0,0" /></g></g></g></g></svg>