<?xml version="1.0" encoding="utf-8"?>
<!-- Generator: Adobe Illustrator 25.0.0, SVG Export Plug-In . SVG Version: 6.00 Build 0)  -->
<svg version="1.1" id="Ebene_1" xmlns="http://www.w3.org/2000/svg" xmlns:xlink="http://www.w3.org/1999/xlink" x="0px" y="0px"
	 viewBox="0 0 2500 2500" style="enable-background:new 0 0 2500 2500;" xml:space="preserve">
<style type="text/css">
	.st0{fill:#C4E7B6;}
	.st1{fill:#72B45D;}
	.st2{fill:#387428;}
	.st3{fill:#FFFFFF;}
	.st4{fill:#292F33;}
</style>
<g>
	<g>
		<path class="st0" d="M1646.1,2082.3v153.4c0,218.8-792.6,218.8-792.6,0v-107c0,175.2,158.1,28.6,401.9,28.6
			c209.3,0,389.3,141.2,389.3-28.6C1644.8,2113.3,1645.4,2097.8,1646.1,2082.3z"/>
		<path class="st1" d="M2306.6,584.6v726.5c0,145.9-125.2,255.9-232.6,317.8c-76.5,44.2-286.2,97.6-417.9,107.6
			c-3.4,0.3-6.8,0.5-10.1,0.7v345.2c-0.7,15.4-1.3,31-1.3,46.4c0,169.7-180,28.6-389.3,28.6c-243.8,0-401.9,146.6-401.9-28.6v-126.6
			c-6.9-0.2-14.1-0.5-21.6-1c-128.4-8.7-338.4-63.2-416-108C308.6,1831.3,193,1721.2,193,1575.3v-462.4
			c0-145.9,118.3-264.2,264.2-264.2S721.4,967,721.4,1112.9v338.5c0,71.7,53.2,129,122.8,161.2c3.1,1.4,6.2,2.8,9.3,4.1V452.5
			c0-5.2,0.1-10.4,0.3-15.6c1-26.4,4.7-52.6,10.9-78.3c-56.6-75.9-40.9-183.2,34.9-239.7c49.2-36.7,114.4-44.3,170.7-19.8
			c116.1-58.8,253.7-57,368.2,4.9c84-43.4,187.3-10.5,230.8,73.5c34.1,66,21.8,146.4-30.5,199.1c2.1,10.8,3.7,21.7,4.9,32.7
			c1.6,14.3,2.3,28.7,2.3,43.1v896.5c73.5-32.2,132.1-90,132.1-161.7V584.6c0-3.9,0.1-7.8,0.2-11.6
			c6.1-140.5,121.9-252.6,263.9-252.6C2188.3,320.4,2306.6,438.7,2306.6,584.6z"/>
	</g>
	<g>
		<circle class="st2" cx="853.5" cy="452.5" r="66.1"/>
		<circle class="st2" cx="1447.9" cy="650.6" r="66.1"/>
		<circle class="st2" cx="985.6" cy="1112.9" r="66.1"/>
		<circle class="st2" cx="1381.9" cy="1377.1" r="66.1"/>
		<circle class="st2" cx="919.6" cy="1773.4" r="66.1"/>
		
			<ellipse transform="matrix(3.327795e-02 -0.9994 0.9994 3.327795e-02 -1460.2692 2169.22)" class="st2" cx="391.2" cy="1839.5" rx="66.1" ry="66"/>
		<circle class="st2" cx="655.4" cy="1377.1" r="66.1"/>
		<circle class="st2" cx="193.1" cy="1245" r="66.1"/>
		<circle class="st2" cx="2306.6" cy="584.6" r="66.1"/>
		<circle class="st2" cx="1910.3" cy="782.7" r="66.1"/>
		<circle class="st2" cx="2174.5" cy="1112.9" r="66.1"/>
		<circle class="st2" cx="1976.3" cy="1641.3" r="66.1"/>
		<circle class="st2" cx="1514" cy="2037.6" r="66.1"/>
	</g>
	<g>
		<circle class="st3" cx="987.7" cy="241.9" r="99.9"/>
		<circle class="st4" cx="987.7" cy="241.9" r="42.8"/>
	</g>
	<g>
		<circle class="st3" cx="1531.3" cy="241.9" r="99.9"/>
		<circle class="st4" cx="1531.3" cy="241.9" r="42.8"/>
	</g>
</g>
</svg>
