<?xml version="1.0" encoding="utf-8"?>
<!-- Generator: Adobe Illustrator 25.0.0, SVG Export Plug-In . SVG Version: 6.00 Build 0)  -->
<svg version="1.1" id="Ebene_1" xmlns="http://www.w3.org/2000/svg" xmlns:xlink="http://www.w3.org/1999/xlink" x="0px" y="0px"
	 viewBox="0 0 38.1 38.1" style="enable-background:new 0 0 38.1 38.1;" xml:space="preserve">
<style type="text/css">
	.st0{fill:#C6E5B3;}
	.st1{fill:#662113;}
	.st2{fill:#FFCC4D;}
	.st3{fill:#77B255;}
	.st4{fill:#DD2E44;}
	.st5{fill:#5C913B;}
	.st6{fill:#FFFFFF;}
	.st7{fill:#292F33;}
	.st8{fill:none;}
</style>
<g id="Ebene_2_1_">
	<g id="Ebene_1-2">
		<path class="st0" d="M19,23.5c-9.4,0-17-0.2-17,6.4s7.6,8.2,17,8.2s17-1.5,17-8.1S28.4,23.5,19,23.5z"/>
		<path class="st1" d="M35.5,24.1c-5.5-0.6-11-1-16.5-1.1c-5.5,0.1-11,0.4-16.5,1c-0.8,6.5,5.9,9.2,16.5,9.2S36.3,30.5,35.5,24.1z"
			/>
		<path class="st2" d="M34.9,21.5L3,22.1c-1.1,0-2,2.2-0.9,2.8c8.7,2.7,15.7,5.4,15.7,5.4c0.7,0.5,1.6,0.5,2.2,0
			c0,0,9.7-3.9,15.9-5.5C36.9,24.6,36,21.5,34.9,21.5z"/>
		<path class="st3" d="M35.7,21.5c-1.9-1.8-1.8-0.8-3.2-1.2C31.9,20.2,28,15,19,15l0,0c-9,0-13,5.1-13.5,5.3
			c-1.5,0.4-1.3-0.5-3.2,1.2C1.3,22.4,1,22.8,2,23c1.4,0.3,1.3,1.1,2.3,1.5c1.2,0.4,1.7-0.3,3.6,0c1.6,0.2,1.8,2.4,3.4,2.4
			S13,26,14.6,26s2.7,2.1,4.3,2.1s2.7-2.1,4.3-2.1s1.7,0.8,3.3,0.8s1.8-2.2,3.4-2.4c1.9-0.3,2.4,0.4,3.6,0c1-0.3,0.9-1.1,2.3-1.5
			C36.8,22.8,36.6,22.4,35.7,21.5z"/>
		<path class="st4" d="M35.1,19.7c0,3-7.2,4.4-16.1,4.4S2.9,22.6,2.9,19.7c0-5.4,1-5.4,16.1-5.4S35.1,14.3,35.1,19.7z"/>
		<path class="st3" d="M34.8,10.4c0.8,1.3,1.2,2.8,1.2,4.3c0,6.1-7.6,6.4-17,6.4S2,20.8,2,14.7c0-1.5,0.4-3,1.2-4.3
			C0.6,8.7-0.2,5.2,1.5,2.6s5.2-3.4,7.8-1.7c1.3,0.8,2.2,2.2,2.5,3.7c2.3-0.7,4.7-1,7.2-1c2.5,0,4.9,0.3,7.3,1
			c0.5-3.1,3.5-5.1,6.5-4.6s5.1,3.5,4.6,6.5C37.1,8.2,36.1,9.6,34.8,10.4L34.8,10.4z"/>
		<path class="st5" d="M11.8,6.8c-0.5-0.3-1.2-0.2-1.5,0.3c0,0,0,0,0,0c-0.3,0.5-0.2,1.2,0.3,1.5c0.5,0.3,1.8,0.6,2.1,0.1
			S12.3,7.1,11.8,6.8z M21.5,5.8C21,6,20,6.8,20.1,7.4s1.5,0.6,2,0.5c0.6-0.2,0.9-0.8,0.7-1.3c0,0,0,0,0,0
			C22.7,5.9,22.1,5.6,21.5,5.8L21.5,5.8z M32.4,12.8c-0.5-0.4-1.6,0.2-2,0.7C30,14,30.1,14.6,30.5,15c0.5,0.4,1.1,0.3,1.5-0.1
			C32.5,14.4,32.9,13.2,32.4,12.8z M28.8,7.8c-0.5-0.3-1.1-0.2-1.5,0.2c-0.3,0.5-0.2,1.1,0.2,1.5c0,0,0.1,0,0.1,0.1
			c0.5,0.3,1.8,0.6,2.1,0.1S29.3,8.1,28.8,7.8z M13.8,14.8c-0.5-0.3-1.1-0.2-1.5,0.2c-0.3,0.5-0.2,1.1,0.2,1.5c0,0,0.1,0,0.1,0.1
			c0.5,0.3,1.8,0.6,2.1,0.1S14.3,15.1,13.8,14.8z M16.8,10c-0.3,0.5-0.6,1.7-0.1,2.1s1.6-0.4,1.9-0.9c0.3-0.5,0.2-1.2-0.3-1.5
			C17.8,9.4,17.2,9.6,16.8,10L16.8,10z M24.8,14.8c-0.5-0.3-1.1-0.2-1.5,0.2c-0.3,0.5-0.2,1.1,0.2,1.5c0,0,0.1,0,0.1,0.1
			c0.5,0.3,1.8,0.6,2.1,0.1S25.3,15.1,24.8,14.8z M5.9,11c-0.4,0.4-0.8,1.6-0.4,2s1.6-0.2,2-0.6c0.4-0.4,0.3-1.1-0.1-1.5
			C7,10.5,6.3,10.5,5.9,11C5.9,11,5.9,11,5.9,11z"/>
		<circle class="st6" cx="5.7" cy="5.1" r="3.3"/>
		<circle class="st7" cx="5.7" cy="5.1" r="1.4"/>
		<circle class="st6" cx="32.4" cy="5.1" r="3.3"/>
		<circle class="st7" cx="32.4" cy="5.1" r="1.4"/>
		<rect y="0" class="st8" width="38.1" height="38.1"/>
	</g>
</g>
</svg>
