<?xml version="1.0" encoding="utf-8"?>
<!-- Generator: Adobe Illustrator 25.0.0, SVG Export Plug-In . SVG Version: 6.00 Build 0)  -->
<svg version="1.1" id="Ebene_1" xmlns="http://www.w3.org/2000/svg" xmlns:xlink="http://www.w3.org/1999/xlink" x="0px" y="0px"
	 viewBox="0 0 1830.6 1830.6" style="enable-background:new 0 0 1830.6 1830.6;" xml:space="preserve">
<style type="text/css">
	.st0{fill:#55ACEE;}
	.st1{fill:#3B88C3;}
	.st2{fill:#C6E5B3;}
	.st3{fill:#77B255;}
	.st4{fill:#5C913B;}
	.st5{fill:#FFFFFF;}
	.st6{fill:#292F33;}
	.st7{fill:none;}
</style>
<g id="Ebene_2_1_">
	<g id="Ebene_1-2">
		<path class="st0" d="M849,1140H165.9c0,0,118.5,376.6,304.8,557.7C597.6,1821.1,811,1830.6,887,1830.6
			c151.8,0,345.2-10.1,472.1-133.5c221.2-214.9,324.9-557,324.9-557L849,1140z"/>
		<path class="st1" d="M1603.8,1339.4c25.4-53,48-107.4,67.8-162.7c-7.1-12.6-17.7-24.9-31-36.6H209.2
			c-13.2,11.8-23.8,23.9-30.9,36.6c12.5,35.4,34.4,93.6,63.9,160.2c110,79.4,338.4,143.1,682.7,143.1
			C1265.5,1479.9,1492.4,1417.6,1603.8,1339.4z"/>
		<path class="st0" d="M70.8,876.5v234.6c0,122.2,382.1,221.2,843.1,221.2s843.1-99.1,843.1-221.2V876.5H70.8z"/>
		<path class="st2" d="M168.6,996.8c47.5,17.5,352.7,125.6,737.7,125.6c433.5,0,751.1-94.2,823.8-146.4s70-505.6-261.1-680.3
			C1186.3,146.5,1178.4,0,909,0C505.1,0-208.3,858.2,168.6,996.8z"/>
		<path class="st3" d="M589.7,600.9c153.4,205.5,499.7,92.5,647.8-51.4c120.6-117.3,272.9-86.1,445.4-41.3
			c-47-83.4-115.9-160.2-214.4-212.2C1185.9,146.9,1178,0.5,908.6,0.5c-213.4,0-513.1,239.7-692.7,486.1
			C315.7,454.1,468.9,439.1,589.7,600.9z"/>
		<circle class="st4" cx="798.4" cy="561.8" r="52.4"/>
		<circle class="st4" cx="993.1" cy="543.7" r="52.4"/>
		<circle class="st5" cx="656.2" cy="232.3" r="124.9"/>
		<circle class="st6" cx="656.2" cy="232.3" r="53.5"/>
		<circle class="st5" cx="1162.3" cy="245" r="124.9"/>
		<circle class="st6" cx="1162.3" cy="245" r="53.5"/>
		<rect y="0" class="st7" width="1830.6" height="1830.6"/>
	</g>
</g>
</svg>
