<?xml version="1.0" encoding="utf-8"?>
<!-- Generator: Adobe Illustrator 25.0.0, SVG Export Plug-In . SVG Version: 6.00 Build 0)  -->
<svg version="1.1" id="Ebene_1" xmlns="http://www.w3.org/2000/svg" xmlns:xlink="http://www.w3.org/1999/xlink" x="0px" y="0px"
	 viewBox="0 0 522 522" style="enable-background:new 0 0 522 522;" xml:space="preserve">
<style type="text/css">
	.st0{fill:#C7DFB3;}
	.st1{fill:#78B355;}
	.st2{fill:#FFFFFF;}
	.st3{fill:#292F33;}
	.st4{fill:#66757F;}
	.st5{fill:#E1E8ED;}
	.st6{fill:#77B255;}
	.st7{fill:#A6D388;}
	.st8{fill:#5D913B;}
</style>
<g id="Ebene_2_1_">
	<g id="Ebene_1-2">
		<path id="path22" class="st0" d="M465.6,227.9c0,85-91.8,136.7-205.1,136.7S55.3,312.9,55.3,227.9S147.2,57,260.5,57
			S465.6,143,465.6,227.9"/>
		<path id="path26" class="st1" d="M417.2,121.7c29.5-23.6,34.2-66.6,10.6-96.1C404.3-3.8,361.3-8.6,331.8,15
			c-12.2,9.7-20.6,23.3-24,38.5c-30.4-11.6-64.1-11.6-94.5,0C205,16.7,168.5-6.5,131.6,1.7S71.6,46.4,79.8,83.3
			c3.4,15.2,11.9,28.8,24.1,38.6c-29.4,27.7-46.8,65.8-48.5,106.1c0,85,91.9,11.4,205.1,11.4s205.1,73.6,205.1-11.4
			C463.9,187.6,446.6,149.5,417.2,121.7"/>
		<path id="path30" class="st2" d="M180.7,62.7c0,22.1-17.8,40-39.8,40c-22.1,0-40-17.8-40-39.8c0-22.1,17.8-40,39.8-40c0,0,0,0,0,0
			l0,0c22-0.1,39.9,17.7,40,39.7V62.7"/>
		<path id="path34" class="st3" d="M157.9,62.7c0,9.5-7.6,17.2-17.1,17.2c-9.5,0-17.2-7.6-17.2-17.1c0-9.5,7.6-17.2,17-17.2l0,0
			c9.4-0.1,17.1,7.4,17.2,16.8c0,0,0,0.1,0,0.1V62.7"/>
		<path id="path38" class="st2" d="M420,62.7c-0.1,23.2-18.9,42-42.1,41.9c-23.2-0.1-42-18.9-41.9-42.1s18.9-42,42.1-41.9
			c23.1,0.1,41.9,18.8,41.9,41.9C420,62.5,420,62.6,420,62.7L420,62.7"/>
		<path id="path42" class="st3" d="M397.2,62.7c-0.1,9.9-8.1,17.9-18,17.8c-9.9-0.1-17.9-8.1-17.8-18s8.1-17.9,18-17.8
			c9.8,0.1,17.8,8,17.8,17.8C397.2,62.5,397.2,62.6,397.2,62.7L397.2,62.7"/>
		<ellipse class="st3" cx="261" cy="401.2" rx="217.4" ry="120.8"/>
		<ellipse class="st4" cx="261" cy="377.1" rx="217.4" ry="120.8"/>
		<path class="st5" d="M261,461.6c-180.7,0-205.3-181.2-205.3-229.5h410.7C466.3,256.3,442.7,461.6,261,461.6z"/>
		<path class="st6" d="M466.3,232.8c0,63-91.9,114.1-205.3,114.1S55.7,295.8,55.7,232.8s91.9-102,205.3-102S466.3,169.8,466.3,232.8
			z"/>
		<ellipse class="st7" cx="261" cy="244.2" rx="181.2" ry="84.6"/>
		<path id="path46" class="st8" d="M226.3,205.1c0,6.3-5.1,11.4-11.4,11.4c-6.3,0-11.4-5.1-11.4-11.4c0-6.3,5.1-11.4,11.4-11.4
			c0,0,0,0,0,0C221.2,193.8,226.3,198.8,226.3,205.1C226.3,205.1,226.3,205.1,226.3,205.1"/>
		<path id="path50" class="st8" d="M317.4,205.1c0,6.3-5.1,11.4-11.4,11.4s-11.4-5.1-11.4-11.4c0-6.3,5.1-11.4,11.4-11.4
			C312.3,193.7,317.4,198.8,317.4,205.1C317.4,205.1,317.4,205.1,317.4,205.1"/>
	</g>
</g>
</svg>
