<?xml version="1.0" encoding="utf-8"?>
<!-- Generator: Adobe Illustrator 26.0.1, SVG Export Plug-In . SVG Version: 6.00 Build 0)  -->
<svg version="1.1" id="Ebene_1" xmlns="http://www.w3.org/2000/svg" xmlns:xlink="http://www.w3.org/1999/xlink" x="0px" y="0px"
	 viewBox="0 0 522 522" style="enable-background:new 0 0 522 522;" xml:space="preserve">
<style type="text/css">
	.st0{fill:#292F33;}
	.st1{fill:#66757F;}
	.st2{fill:#E1E8ED;}
	.st3{fill:#77B255;}
	.st4{fill:#A6D388;}
	.st5{fill:#5D913B;}
	.st6{fill:#FFFFFF;}
</style>
<ellipse class="st0" cx="261" cy="401.2" rx="217.4" ry="120.8"/>
<ellipse class="st1" cx="261" cy="377.1" rx="217.4" ry="120.8"/>
<path class="st2" d="M261,461.6c-180.7,0-205.3-181.2-205.3-229.5h410.7C466.3,256.3,442.7,461.6,261,461.6z"/>
<path class="st3" d="M466.3,232.8c0,63-91.9,114.1-205.3,114.1c-109.8,0-199.4-47.9-205-108.1c0-0.1,0-0.1,0-0.2
	c-0.4-3.2-0.6-6.8-0.6-10.7c1.7-40.3,19.1-78.4,48.5-106.1c-12.2-9.8-20.7-23.4-24.1-38.6C71.6,46.4,94.7,9.9,131.6,1.7
	c36.9-8.2,73.4,15,81.7,51.8c30.4-11.6,64.1-11.6,94.5,0c3.4-15.2,11.8-28.8,24-38.5c29.5-23.6,72.5-18.8,96,10.6
	c23.6,29.5,18.9,72.5-10.6,96.1c27.6,26.1,44.5,61.3,47.9,99C465.9,224.6,466.3,228.7,466.3,232.8z"/>
<ellipse class="st4" cx="261" cy="244.2" rx="181.2" ry="84.6"/>
<path id="path46" class="st5" d="M226.3,205.1c0,6.3-5.1,11.4-11.4,11.4c-6.3,0-11.4-5.1-11.4-11.4c0-6.3,5.1-11.4,11.4-11.4l0,0
	C221.2,193.8,226.3,198.8,226.3,205.1L226.3,205.1"/>
<path id="path50" class="st5" d="M317.4,205.1c0,6.3-5.1,11.4-11.4,11.4s-11.4-5.1-11.4-11.4c0-6.3,5.1-11.4,11.4-11.4
	C312.3,193.7,317.4,198.8,317.4,205.1L317.4,205.1"/>
<g>
	<path id="path30" class="st6" d="M180.7,62.7c0,22.1-17.8,40-39.8,40c-22.1,0-40-17.8-40-39.8c0-22.1,17.8-40,39.8-40l0,0l0,0
		c22-0.1,39.9,17.7,40,39.7V62.7"/>
	<path id="path34" class="st0" d="M157.9,62.7c0,9.5-7.6,17.2-17.1,17.2s-17.2-7.6-17.2-17.1s7.6-17.2,17-17.2l0,0
		c9.4-0.1,17.1,7.4,17.2,16.8v0.1v0.2"/>
	<path id="path38" class="st6" d="M420,62.7c-0.1,23.2-18.9,42-42.1,41.9c-23.2-0.1-42-18.9-41.9-42.1s18.9-42,42.1-41.9
		c23.1,0.1,41.9,18.8,41.9,41.9C420,62.5,420,62.6,420,62.7L420,62.7"/>
	<path id="path42" class="st0" d="M397.2,62.7c-0.1,9.9-8.1,17.9-18,17.8s-17.9-8.1-17.8-18s8.1-17.9,18-17.8
		c9.8,0.1,17.8,8,17.8,17.8C397.2,62.5,397.2,62.6,397.2,62.7L397.2,62.7"/>
</g>
</svg>
