<?xml version="1.0" encoding="UTF-8" standalone="no"?>
<svg
   viewBox="0 0 36 36"
   version="1.1"
   id="svg30"
   sodipodi:docname="watermelonFrog.svg"
   inkscape:version="1.1.1 (3bf5ae0d25, 2021-09-20, custom)"
   xmlns:inkscape="http://www.inkscape.org/namespaces/inkscape"
   xmlns:sodipodi="http://sodipodi.sourceforge.net/DTD/sodipodi-0.dtd"
   xmlns="http://www.w3.org/2000/svg"
   xmlns:svg="http://www.w3.org/2000/svg">
  <sodipodi:namedview
     id="namedview32"
     pagecolor="#505050"
     bordercolor="#ffffff"
     borderopacity="1"
     inkscape:pageshadow="0"
     inkscape:pageopacity="0"
     inkscape:pagecheckerboard="1"
     showgrid="false"
     inkscape:zoom="45.254834"
     inkscape:cx="16.517572"
     inkscape:cy="18.241145"
     inkscape:window-width="1920"
     inkscape:window-height="1026"
     inkscape:window-x="1920"
     inkscape:window-y="54"
     inkscape:window-maximized="1"
     inkscape:current-layer="Ebene_1-2" />
  <defs
     id="defs4">
    <style
       id="style2">.cls-1{fill:#c6e5b3;}.cls-2{fill:#5c913b;}.cls-3{fill:#77b255;}.cls-4{fill:#fff;}.cls-5{fill:#292f33;}.cls-6{fill:none;}</style>
  </defs>
  <g
     id="Ebene_2"
     data-name="Ebene 2">
    <g
       id="Ebene_1-2"
       data-name="Ebene 1">
      <path
         class="cls-1"
         d="M 2.47,6.57 A 17.11,17.11 0 0 0 1,13.5 17.76,17.76 0 0 0 19,31 18,18 0 0 0 35.87,19.56 Z"
         id="path6" />
      <path
         class="cls-2"
         d="M 4.33,7.29 A 15.2,15.2 0 0 0 3,13.5 15.78,15.78 0 0 0 19,29.06 16,16 0 0 0 34,18.84 Z"
         id="path8" />
      <path
         class="cls-3"
         d="M 6.19,8 A 13.25,13.25 0 0 0 5,13.5 a 13.81,13.81 0 0 0 14,13.61 14,14 0 0 0 13.16,-9 z"
         id="path10" />
      <circle
         class="cls-3"
         cx="9.8100004"
         cy="9.4099998"
         r="3.8800001"
         id="circle12" />
      <circle
         class="cls-4"
         cx="9.6499996"
         cy="8.9700003"
         r="2.24"
         id="circle14" />
      <circle
         class="cls-5"
         cx="9.6499996"
         cy="8.9700003"
         r="0.95999998"
         id="circle16" />
      <circle
         class="cls-3"
         cx="28.540001"
         cy="16.73"
         r="3.8800001"
         id="circle18" />
      <circle
         class="cls-4"
         cx="28.950001"
         cy="16.51"
         r="2.24"
         id="circle20" />
      <circle
         class="cls-5"
         cx="28.950001"
         cy="16.51"
         r="0.95999998"
         id="circle22" />
      <path
         class="cls-5"
         d="m 9.92,14.28 c -0.31,0.46 -0.74,0.7 -1,0.55 -0.26,-0.15 -0.17,-0.65 0.13,-1.11 0.3,-0.46 0.75,-0.71 1,-0.55 0.25,0.16 0.17,0.65 -0.13,1.11 z m 6,1 c -0.31,0.46 -0.74,0.7 -1,0.55 -0.26,-0.15 -0.17,-0.65 0.13,-1.11 0.3,-0.46 0.75,-0.71 1,-0.55 0.25,0.16 0.17,0.65 -0.13,1.11 z M 21,20 c 0.05,0.56 -0.13,1 -0.41,1.05 -0.28,0.05 -0.54,-0.4 -0.59,-1 -0.05,-0.6 0.14,-1 0.41,-1 0.27,0 0.59,0.35 0.59,0.95 z m -9,-2 c 0.05,0.56 -0.13,1 -0.41,1.05 -0.28,0.05 -0.54,-0.4 -0.59,-1 -0.05,-0.6 0.14,-1 0.41,-1 0.27,0 0.59,0.35 0.59,0.95 z m 3.9,5.35 c -0.33,0.44 -0.78,0.66 -1,0.5 -0.22,-0.16 -0.13,-0.66 0.2,-1.1 0.33,-0.44 0.79,-0.66 1,-0.5 0.21,0.16 0.13,0.66 -0.2,1.1 z m 8.04,0.4 c 0.286529,0.480522 0.25,1.05 0.02,1.17 -0.23,0.12 -0.66,-0.14 -0.93,-0.62 -0.27,-0.48 -0.3,-1 -0.06,-1.12 0.24,-0.12 0.725682,0.160268 0.97,0.57 z m -7.02,-5.02 c 0.3,0.46 0.34,1.02 0.11,1.18 -0.23,0.16 -0.66,-0.1 -1,-0.57 -0.34,-0.47 -0.36,-0.95 -0.13,-1.1 0.23,-0.15 0.72,0.02 1.02,0.49 z m 8.616343,1.939385 c -0.360625,0.431335 -0.799031,0.615183 -1.032376,0.452548 -0.233345,-0.162634 -0.099,-0.66468 0.289914,-1.124299 0.388908,-0.45962 0.806101,-0.608112 0.99702,-0.417193 0.190919,0.190918 0.169706,0.66468 -0.254558,1.088944 z"
         id="path24"
         sodipodi:nodetypes="csssccsssccsssccsssccssscscssssscsscsssc" />
      <rect
         class="cls-6"
         width="36"
         height="36"
         id="rect26"
         x="0"
         y="0" />
    </g>
  </g>
</svg>
