<?xml version="1.0" encoding="utf-8"?>
<!-- Generator: Adobe Illustrator 25.0.0, SVG Export Plug-In . SVG Version: 6.00 Build 0)  -->
<svg version="1.1" id="Ebene_1" xmlns="http://www.w3.org/2000/svg" xmlns:xlink="http://www.w3.org/1999/xlink" x="0px" y="0px"
	 viewBox="0 0 665.3 665.3" style="enable-background:new 0 0 665.3 665.3;" xml:space="preserve">
<style type="text/css">
	.st0{fill:#5C913B;}
	.st1{fill:#C6E5B3;}
	.st2{fill:#77B255;}
	.st3{fill:#FFFFFF;}
	.st4{fill:#292F33;}
	.st5{fill:none;}
</style>
<g id="Ebene_2_1_">
	<g id="Ebene_1-2">
		<path class="st0" d="M665.3,233.8c0-84.2-81.8-152.8-184.3-156.7v-0.4H184.3v0.4C81.8,81.1,0,149.6,0,233.8
			c0,34.4,13.8,66.1,36.9,91.9v231.4c0,40.8,33.1,73.9,73.9,73.9c0,0,0,0,0,0h443.8c40.8,0,73.9-33.1,73.9-73.9c0,0,0,0,0,0V325.7
			C651.5,299.9,665.3,268.2,665.3,233.8z"/>
		<path class="st1" d="M351.3,325.9h277.2v28H351.3V325.9z"/>
		<path class="st1" d="M351.3,520.9v17.5c0,30.6-24.8,55.4-55.4,55.4H129.6c-30.6,0-55.4-24.8-55.4-55.4v-16.2
			c18.7,18.6,73.4-15.3,138-15.3C278.1,506.8,333.8,542.2,351.3,520.9z"/>
		<path class="st2" d="M388.3,233.5c0,29.4-14,56.3-37,77.2v210.1c-17.5,21.3-73.2-14.1-139.1-14.1c-64.6,0-119.3,33.9-138,15.3
			V310.8c-23-20.9-37-47.8-37-77.3c0-66.3,70.3-158.5,157-158.5c3.1,0,43.1,0.1,46.2,0.2C322.9,78.8,388.3,169.6,388.3,233.5z"/>
		<circle class="st2" cx="114.2" cy="95.6" r="61.4"/>
		<circle class="st3" cx="109.2" cy="90.4" r="35.7"/>
		<circle class="st4" cx="109.2" cy="90.4" r="15.3"/>
		<circle class="st2" cx="310" cy="95.5" r="61.4"/>
		<circle class="st3" cx="314.9" cy="90.3" r="35.7"/>
		<circle class="st4" cx="314.9" cy="90.3" r="15.3"/>
		<rect y="0" class="st5" width="665.3" height="665.3"/>
	</g>
</g>
</svg>
