<?xml version="1.0" encoding="UTF-8" standalone="no"?>
<svg
   viewBox="0 0 36 36"
   version="1.1"
   id="svg26"
   sodipodi:docname="frogPoop.svg"
   inkscape:version="1.1.1 (3bf5ae0d25, 2021-09-20, custom)"
   xmlns:inkscape="http://www.inkscape.org/namespaces/inkscape"
   xmlns:sodipodi="http://sodipodi.sourceforge.net/DTD/sodipodi-0.dtd"
   xmlns="http://www.w3.org/2000/svg"
   xmlns:svg="http://www.w3.org/2000/svg">
  <sodipodi:namedview
     id="namedview28"
     pagecolor="#505050"
     bordercolor="#ffffff"
     borderopacity="1"
     inkscape:pageshadow="0"
     inkscape:pageopacity="0"
     inkscape:pagecheckerboard="1"
     showgrid="false"
     inkscape:zoom="8"
     inkscape:cx="20.8125"
     inkscape:cy="38.0625"
     inkscape:window-width="1920"
     inkscape:window-height="1026"
     inkscape:window-x="1920"
     inkscape:window-y="54"
     inkscape:window-maximized="1"
     inkscape:current-layer="Ebene_1-2" />
  <defs
     id="defs4">
    <style
       id="style2">.cls-1{fill:none;}.cls-2{fill:#c6e5b3;}.cls-3{fill:#77b255;}.cls-4{fill:#fff;}.cls-5{fill:#292f33;}.cls-6{fill:#5c913b;}</style>
  </defs>
  <g
     id="Ebene_2"
     data-name="Ebene 2">
    <g
       id="Ebene_1-2"
       data-name="Ebene 1">
      <rect
         class="cls-1"
         width="36"
         height="35.810001"
         id="rect6"
         x="0"
         y="0" />
      <path
         class="cls-2"
         d="M 36,28.67 C 36,32.718247 32.718247,36 28.67,36 23.47,36 20.02,35.38 17.78,34.33 14.705987,35.37858 11.487416,35.941998 8.24,36 3.7552522,36.066767 0.06578743,32.484762 0,28 c -0.00512129,-1.123445 0.24087294,-2.233835 0.72,-3.25 0,0 9.08,-2.624571 17.28,-2.624571 7.88,0 17,2.874571 17,2.874571 0.657671,1.11099 1.003163,2.378946 1,3.67 z"
         id="path8"
         sodipodi:nodetypes="csccccscc" />
      <path
         class="cls-3"
         d="M 35,25 C 32.56,27 25.86,23 18,23 9.8,23 2.88,27.39 0.72,24.75 a 8.15,8.15 0 0 1 4.07,-4 5.47,5.47 0 0 1 0.3,-6.2 A 6.32,6.32 0 0 1 8,12.44 l 0.69,-0.26 a 3.68,3.68 0 0 1 1.49,-5.75 v 0 A 20.94,20.94 0 0 1 13.53,5.58 L 13.98,5.5 A 5.7,5.7 0 0 1 16.81,0 c 2.38,3.18 5.39,2.57 7,3.69 a 2.43,2.43 0 0 1 1,1.31 2.91,2.91 0 0 1 0,2.17 6.26,6.26 0 0 1 4.71,3.56 5.59,5.59 0 0 1 0.32,3.75 8.14,8.14 0 0 1 3.73,8.72 A 7.21,7.21 0 0 1 35,25 Z"
         id="path10" />
      <circle
         class="cls-4"
         cx="11.35"
         cy="9.8199997"
         r="3.5"
         id="circle12" />
      <circle
         class="cls-5"
         cx="11.35"
         cy="9.8199997"
         r="1.5"
         id="circle14" />
      <circle
         class="cls-4"
         cx="24.58"
         cy="10.66"
         r="3.5"
         id="circle16" />
      <circle
         class="cls-5"
         cx="24.58"
         cy="10.66"
         r="1.5"
         id="circle18" />
      <circle
         class="cls-6"
         cx="14"
         cy="20"
         r="1"
         id="circle20" />
      <circle
         class="cls-6"
         cx="22"
         cy="20"
         r="1"
         id="circle22" />
    </g>
  </g>
</svg>
