<?xml version="1.0" encoding="UTF-8" standalone="no"?>
<svg
   xmlns:dc="http://purl.org/dc/elements/1.1/"
   xmlns:cc="http://creativecommons.org/ns#"
   xmlns:rdf="http://www.w3.org/1999/02/22-rdf-syntax-ns#"
   xmlns:svg="http://www.w3.org/2000/svg"
   xmlns="http://www.w3.org/2000/svg"
   xmlns:sodipodi="http://sodipodi.sourceforge.net/DTD/sodipodi-0.dtd"
   xmlns:inkscape="http://www.inkscape.org/namespaces/inkscape"
   viewBox="0 0 45 45"
   style="enable-background:new 0 0 45 45;"
   xml:space="preserve"
   version="1.1"
   id="svg2"
   sodipodi:docname="policefrog.svg"
   inkscape:version="0.92.4 5da689c313, 2019-01-14"><sodipodi:namedview
     pagecolor="#ffffff"
     bordercolor="#666666"
     borderopacity="1"
     objecttolerance="10"
     gridtolerance="10"
     guidetolerance="10"
     inkscape:pageopacity="0"
     inkscape:pageshadow="2"
     inkscape:window-width="1920"
     inkscape:window-height="1030"
     id="namedview877"
     showgrid="false"
     inkscape:zoom="10.488889"
     inkscape:cx="12.665119"
     inkscape:cy="21.519407"
     inkscape:window-x="1600"
     inkscape:window-y="50"
     inkscape:window-maximized="0"
     inkscape:current-layer="svg2" /><metadata
     id="metadata8"><rdf:RDF><cc:Work
         rdf:about=""><dc:format>image/svg+xml</dc:format><dc:type
           rdf:resource="http://purl.org/dc/dcmitype/StillImage" /><dc:title></dc:title></cc:Work></rdf:RDF></metadata><defs
     id="defs6"><clipPath
       id="clipPath16"
       clipPathUnits="userSpaceOnUse"><path
         id="path18"
         d="M 0,36 36,36 36,0 0,0 0,36 Z" /></clipPath></defs><ellipse
     style="fill:#2a6797;stroke-width:1.54166663"
     cx="22.500002"
     cy="11.730834"
     rx="18.5"
     ry="11.562499"
     id="ellipse4" /><g
     transform="matrix(1.0277778,0,0,-1.0277778,4,47.055556)"
     id="g10"><g
       id="g12"><g
         clip-path="url(#clipPath16)"
         id="g14"><g
           transform="translate(36,14)"
           id="g20"><path
             id="path22"
             style="fill:#c6e5b3;fill-opacity:1;fill-rule:nonzero;stroke:none"
             d="m 0,0 c 0,-7.456 -8.059,-12 -18,-12 -9.941,0 -18,4.544 -18,12 0,7.456 8.059,15 18,15 C -8.059,15 0,7.456 0,0"
             inkscape:connector-curvature="0" /></g><g
           transform="translate(31.7549,23.3242)"
           id="g24"><path
             id="path26"
             style="fill:#77b255;fill-opacity:1;fill-rule:nonzero;stroke:none"
             d="m 0,0 c 1.368,1.1 2.245,2.785 2.245,4.676 0,3.313 -2.686,6 -6,6 -2.861,0 -5.25,-2.005 -5.85,-4.685 -1.289,0.483 -2.684,0.758 -4.15,0.758 -1.465,0 -2.861,-0.275 -4.149,-0.758 -0.601,2.68 -2.99,4.685 -5.851,4.685 -3.313,0 -6,-2.687 -6,-6 0,-1.891 0.878,-3.576 2.245,-4.676 -2.645,-2.68 -4.245,-6.009 -4.245,-9.324 0,-7.456 8.059,-1 18,-1 9.942,0 18,-6.456 18,1 C 4.245,-6.009 2.646,-2.68 0,0"
             inkscape:connector-curvature="0" /></g><g
           transform="translate(11,28.5)"
           id="g28"><path
             id="path30"
             style="fill:#ffffff;fill-opacity:1;fill-rule:nonzero;stroke:none"
             d="M 0,0 C 0,-1.933 -1.567,-3.5 -3.5,-3.5 -5.433,-3.5 -7,-1.933 -7,0 -7,1.933 -5.433,3.5 -3.5,3.5 -1.567,3.5 0,1.933 0,0"
             inkscape:connector-curvature="0" /></g><g
           transform="translate(9,28.5)"
           id="g32"><path
             id="path34"
             style="fill:#292f33;fill-opacity:1;fill-rule:nonzero;stroke:none"
             d="M 0,0 C 0,-0.829 -0.671,-1.5 -1.5,-1.5 -2.329,-1.5 -3,-0.829 -3,0 -3,0.829 -2.329,1.5 -1.5,1.5 -0.671,1.5 0,0.829 0,0"
             inkscape:connector-curvature="0" /></g><g
           transform="translate(32,28.5)"
           id="g36"><path
             id="path38"
             style="fill:#ffffff;fill-opacity:1;fill-rule:nonzero;stroke:none"
             d="M 0,0 C 0,-1.933 -1.566,-3.5 -3.5,-3.5 -5.434,-3.5 -7,-1.933 -7,0 -7,1.933 -5.434,3.5 -3.5,3.5 -1.566,3.5 0,1.933 0,0"
             inkscape:connector-curvature="0" /></g><g
           transform="translate(30,28.5)"
           id="g40"><path
             id="path42"
             style="fill:#292f33;fill-opacity:1;fill-rule:nonzero;stroke:none"
             d="M 0,0 C 0,-0.829 -0.672,-1.5 -1.5,-1.5 -2.328,-1.5 -3,-0.829 -3,0 -3,0.829 -2.328,1.5 -1.5,1.5 -0.672,1.5 0,0.829 0,0"
             inkscape:connector-curvature="0" /></g><g
           transform="translate(15,16)"
           id="g44"><path
             id="path46"
             style="fill:#5c913b;fill-opacity:1;fill-rule:nonzero;stroke:none"
             d="m 0,0 c 0,-0.553 -0.448,-1 -1,-1 -0.552,0 -1,0.447 -1,1 0,0.553 0.448,1 1,1 0.552,0 1,-0.447 1,-1"
             inkscape:connector-curvature="0" /></g><g
           transform="translate(23,16)"
           id="g48"><path
             id="path50"
             style="fill:#5c913b;fill-opacity:1;fill-rule:nonzero;stroke:none"
             d="m 0,0 c 0,-0.553 -0.447,-1 -1,-1 -0.553,0 -1,0.447 -1,1 0,0.553 0.447,1 1,1 0.553,0 1,-0.447 1,-1"
             inkscape:connector-curvature="0" /></g></g></g></g><path
     inkscape:connector-curvature="0"
     style="fill:#2a6797;stroke-width:1.54166663"
     d="m 7.8495362,12.500126 v 1.541667 c 0,1.703541 6.5567068,3.083332 14.6458348,3.083332 8.089124,0 14.645833,-1.379791 14.645833,-3.083332 v -1.541667 z"
     id="path18-3" /><path
     inkscape:connector-curvature="0"
     style="fill:#4289c1;stroke-width:1.54166663"
     d="M 36.371911,12.500126 V 9.4167924 c 0,0 -5.781249,-3.4687507 -13.87654,-3.4687507 -8.090669,0 -13.8719178,3.4687507 -13.8719178,3.4687507 v 3.0833336 z"
     id="path20" /><path
     inkscape:connector-curvature="0"
     style="fill:#fdcb58;stroke-width:1.54166663"
     d="M 37.141204,12.500126 H 7.8495362 c -0.4239581,0 -0.7708327,0.346875 -0.7708327,0.770832 0,0.423959 0.3468746,0.770835 0.7708327,0.770835 H 37.141204 c 0.423957,0 0.770832,-0.346876 0.770832,-0.770835 0,-0.423957 -0.346875,-0.770832 -0.770832,-0.770832 z"
     id="path22-6" /><path
     inkscape:connector-curvature="0"
     style="fill:#fdcb58;stroke-width:1.54166663"
     d="m 25.964121,2.4808333 h -0.0031 c -0.359162,0.00156 -0.667495,0.1757499 -0.878703,0.4347499 -0.43321,0.106375 -1.028292,0.1295 -1.783709,-0.1094583 -0.209667,-0.198875 -0.490251,-0.3252916 -0.803208,-0.3252916 -0.309875,0 -0.592,0.1264166 -0.800125,0.3268333 C 20.93833,3.046625 20.343245,3.0235 19.911579,2.9171249 19.698829,2.658125 19.390495,2.4823749 19.031287,2.4823749 h -0.0031 c -0.639792,0 -1.156251,0.5164583 -1.156251,1.15625 0,0.6382499 0.516459,1.1562498 1.156251,1.1562498 h 0.0031 c 0,4.6250003 2.309415,5.7812513 3.464125,5.7812513 1.157791,0 3.465665,-1.156251 3.465665,-5.7812513 h 0.0031 c 0.641334,0 1.157792,-0.5179999 1.157792,-1.1562498 0,-0.6413333 -0.516458,-1.1577916 -1.157792,-1.1577916 z"
     id="path30-5" /></svg>