<?xml version="1.0" encoding="UTF-8" standalone="no"?>
<svg
   xmlns:dc="http://purl.org/dc/elements/1.1/"
   xmlns:cc="http://creativecommons.org/ns#"
   xmlns:rdf="http://www.w3.org/1999/02/22-rdf-syntax-ns#"
   xmlns:svg="http://www.w3.org/2000/svg"
   xmlns="http://www.w3.org/2000/svg"
   xmlns:sodipodi="http://sodipodi.sourceforge.net/DTD/sodipodi-0.dtd"
   xmlns:inkscape="http://www.inkscape.org/namespaces/inkscape"
   viewBox="0 0 45 45"
   style="enable-background:new 0 0 45 45;"
   xml:space="preserve"
   version="1.1"
   id="svg2"
   sodipodi:docname="frogfamily1.svg"
   inkscape:version="0.92.4 5da689c313, 2019-01-14"><sodipodi:namedview
     pagecolor="#ffffff"
     bordercolor="#666666"
     borderopacity="1"
     objecttolerance="10"
     gridtolerance="10"
     guidetolerance="10"
     inkscape:pageopacity="0"
     inkscape:pageshadow="2"
     inkscape:window-width="1920"
     inkscape:window-height="1030"
     id="namedview26"
     showgrid="false"
     inkscape:zoom="10.488889"
     inkscape:cx="14.707293"
     inkscape:cy="1.2715236"
     inkscape:window-x="1600"
     inkscape:window-y="50"
     inkscape:window-maximized="0"
     inkscape:current-layer="svg2" /><metadata
     id="metadata8"><rdf:RDF><cc:Work
         rdf:about=""><dc:format>image/svg+xml</dc:format><dc:type
           rdf:resource="http://purl.org/dc/dcmitype/StillImage" /></cc:Work></rdf:RDF></metadata><defs
     id="defs6"><clipPath
       id="clipPath16"
       clipPathUnits="userSpaceOnUse"><path
         id="path18"
         d="M 0,36 36,36 36,0 0,0 0,36 Z" /></clipPath></defs><g
     transform="matrix(1.0900275,0,0,-1.0900275,3.3994882,41.159486)"
     id="g10"><g
       id="g12"><g
         clip-path="url(#clipPath16)"
         id="g14"><g
           transform="translate(36,14)"
           id="g20"><path
             id="path22"
             style="fill:#c6e5b3;fill-opacity:1;fill-rule:nonzero;stroke:none"
             d="m 0,0 c 0,-7.456 -8.059,-12 -18,-12 -9.941,0 -18,4.544 -18,12 0,7.456 8.059,15 18,15 C -8.059,15 0,7.456 0,0"
             inkscape:connector-curvature="0" /></g><g
           transform="translate(31.7549,23.3242)"
           id="g24"><path
             id="path26"
             style="fill:#77b255;fill-opacity:1;fill-rule:nonzero;stroke:none"
             d="m 0,0 c 1.368,1.1 2.245,2.785 2.245,4.676 0,3.313 -2.686,6 -6,6 -2.861,0 -5.25,-2.005 -5.85,-4.685 -1.289,0.483 -2.684,0.758 -4.15,0.758 -1.465,0 -2.861,-0.275 -4.149,-0.758 -0.601,2.68 -2.99,4.685 -5.851,4.685 -3.313,0 -6,-2.687 -6,-6 0,-1.891 0.878,-3.576 2.245,-4.676 -2.645,-2.68 -4.245,-6.009 -4.245,-9.324 0,-7.456 8.059,-1 18,-1 9.942,0 18,-6.456 18,1 C 4.245,-6.009 2.646,-2.68 0,0"
             inkscape:connector-curvature="0" /></g><g
           transform="translate(11,28.5)"
           id="g28"><path
             id="path30"
             style="fill:#ffffff;fill-opacity:1;fill-rule:nonzero;stroke:none"
             d="M 0,0 C 0,-1.933 -1.567,-3.5 -3.5,-3.5 -5.433,-3.5 -7,-1.933 -7,0 -7,1.933 -5.433,3.5 -3.5,3.5 -1.567,3.5 0,1.933 0,0"
             inkscape:connector-curvature="0" /></g><g
           transform="translate(9,28.5)"
           id="g32"><path
             id="path34"
             style="fill:#292f33;fill-opacity:1;fill-rule:nonzero;stroke:none"
             d="M 0,0 C 0,-0.829 -0.671,-1.5 -1.5,-1.5 -2.329,-1.5 -3,-0.829 -3,0 -3,0.829 -2.329,1.5 -1.5,1.5 -0.671,1.5 0,0.829 0,0"
             inkscape:connector-curvature="0" /></g><g
           transform="translate(32,28.5)"
           id="g36"><path
             id="path38"
             style="fill:#ffffff;fill-opacity:1;fill-rule:nonzero;stroke:none"
             d="M 0,0 C 0,-1.933 -1.566,-3.5 -3.5,-3.5 -5.434,-3.5 -7,-1.933 -7,0 -7,1.933 -5.434,3.5 -3.5,3.5 -1.566,3.5 0,1.933 0,0"
             inkscape:connector-curvature="0" /></g><g
           transform="translate(30,28.5)"
           id="g40"><path
             id="path42"
             style="fill:#292f33;fill-opacity:1;fill-rule:nonzero;stroke:none"
             d="M 0,0 C 0,-0.829 -0.672,-1.5 -1.5,-1.5 -2.328,-1.5 -3,-0.829 -3,0 -3,0.829 -2.328,1.5 -1.5,1.5 -0.672,1.5 0,0.829 0,0"
             inkscape:connector-curvature="0" /></g><g
           transform="translate(15,16)"
           id="g44"><path
             id="path46"
             style="fill:#5c913b;fill-opacity:1;fill-rule:nonzero;stroke:none"
             d="m 0,0 c 0,-0.553 -0.448,-1 -1,-1 -0.552,0 -1,0.447 -1,1 0,0.553 0.448,1 1,1 0.552,0 1,-0.447 1,-1"
             inkscape:connector-curvature="0" /></g><g
           transform="translate(23,16)"
           id="g48"><path
             id="path50"
             style="fill:#5c913b;fill-opacity:1;fill-rule:nonzero;stroke:none"
             d="m 0,0 c 0,-0.553 -0.447,-1 -1,-1 -0.553,0 -1,0.447 -1,1 0,0.553 0.447,1 1,1 0.553,0 1,-0.447 1,-1"
             inkscape:connector-curvature="0" /></g></g></g></g><g
     id="g999"
     transform="translate(0,0.1906775)"><g
       transform="translate(-2.4788136,-22.404661)"
       id="g969"><g
         id="g1011"
         transform="matrix(0.48952148,0,0,0.48952148,18.179017,30.165829)"><path
           d="m 58.895483,59.064201 c 0,9.32 -10.07375,15 -22.5,15 -12.42625,0 -22.5,-5.68 -22.5,-15 0,-9.32 10.07375,-18.75 22.5,-18.75 12.42625,0 22.5,9.43 22.5,18.75"
           style="fill:#e5c2b3;fill-opacity:1;fill-rule:nonzero;stroke:none;stroke-width:1.25"
           id="path22-2"
           inkscape:connector-curvature="0" /><path
           d="m 53.589108,47.408951 c 1.71,-1.375 2.80625,-3.48125 2.80625,-5.845 0,-4.14125 -3.3575,-7.5 -7.5,-7.5 -3.57625,0 -6.5625,2.50625 -7.3125,5.85625 -1.61125,-0.60375 -3.355,-0.9475 -5.1875,-0.9475 -1.83125,0 -3.57625,0.34375 -5.18625,0.9475 -0.75125,-3.35 -3.7375,-5.85625 -7.31375,-5.85625 -4.14125,0 -7.5,3.35875 -7.5,7.5 0,2.36375 1.0975,4.47 2.80625,5.845 -3.30625,3.35 -5.30625,7.51125 -5.30625,11.655 0,9.32 10.07375,1.25 22.5,1.25 12.4275,0 22.5,8.07 22.5,-1.25 0,-4.14375 -1.99875,-8.305 -5.30625,-11.655"
           style="fill:#b27256;fill-opacity:1;fill-rule:nonzero;stroke:none;stroke-width:1.25"
           id="path26-9"
           inkscape:connector-curvature="0" /><path
           d="m 27.645483,40.939201 c 0,2.41625 -1.95875,4.375 -4.375,4.375 -2.41625,0 -4.375,-1.95875 -4.375,-4.375 0,-2.41625 1.95875,-4.375 4.375,-4.375 2.41625,0 4.375,1.95875 4.375,4.375"
           style="fill:#ffffff;fill-opacity:1;fill-rule:nonzero;stroke:none;stroke-width:1.25"
           id="path30-1"
           inkscape:connector-curvature="0" /><path
           d="m 25.145483,40.939201 c 0,1.03625 -0.83875,1.875 -1.875,1.875 -1.03625,0 -1.875,-0.83875 -1.875,-1.875 0,-1.03625 0.83875,-1.875 1.875,-1.875 1.03625,0 1.875,0.83875 1.875,1.875"
           style="fill:#292f33;fill-opacity:1;fill-rule:nonzero;stroke:none;stroke-width:1.25"
           id="path34-2"
           inkscape:connector-curvature="0" /><path
           d="m 53.895483,40.939201 c 0,2.41625 -1.9575,4.375 -4.375,4.375 -2.4175,0 -4.375,-1.95875 -4.375,-4.375 0,-2.41625 1.9575,-4.375 4.375,-4.375 2.4175,0 4.375,1.95875 4.375,4.375"
           style="fill:#ffffff;fill-opacity:1;fill-rule:nonzero;stroke:none;stroke-width:1.25"
           id="path38-7"
           inkscape:connector-curvature="0" /><path
           d="m 51.395483,40.939201 c 0,1.03625 -0.84,1.875 -1.875,1.875 -1.035,0 -1.875,-0.83875 -1.875,-1.875 0,-1.03625 0.84,-1.875 1.875,-1.875 1.035,0 1.875,0.83875 1.875,1.875"
           style="fill:#292f33;fill-opacity:1;fill-rule:nonzero;stroke:none;stroke-width:1.25"
           id="path42-0"
           inkscape:connector-curvature="0" /><path
           d="m 32.645483,56.564201 c 0,0.69125 -0.56,1.25 -1.25,1.25 -0.69,0 -1.25,-0.55875 -1.25,-1.25 0,-0.69125 0.56,-1.25 1.25,-1.25 0.69,0 1.25,0.55875 1.25,1.25"
           style="fill:#91553b;fill-opacity:1;fill-rule:nonzero;stroke:none;stroke-width:1.25"
           id="path46-9"
           inkscape:connector-curvature="0" /><path
           d="m 42.645483,56.564201 c 0,0.69125 -0.55875,1.25 -1.25,1.25 -0.69125,0 -1.25,-0.55875 -1.25,-1.25 0,-0.69125 0.55875,-1.25 1.25,-1.25 0.69125,0 1.25,0.55875 1.25,1.25"
           style="fill:#91553b;fill-opacity:1;fill-rule:nonzero;stroke:none;stroke-width:1.25"
           id="path50-3"
           inkscape:connector-curvature="0" /></g><g
         id="g1047"
         transform="translate(-10.200485,-5.4850778)"><path
           inkscape:connector-curvature="0"
           id="path1013"
           style="fill:#b3e5e3;fill-opacity:1;fill-rule:nonzero;stroke:none;stroke-width:0.61190188"
           d="m 35.367697,64.564102 c 0,4.56234 -4.931317,7.342822 -11.014233,7.342822 -6.082916,0 -11.014233,-2.780482 -11.014233,-7.342822 0,-4.56234 4.931317,-9.178528 11.014233,-9.178528 6.082916,0 11.014233,4.616188 11.014233,9.178528" /><path
           inkscape:connector-curvature="0"
           id="path1015"
           style="fill:#56b2af;fill-opacity:1;fill-rule:nonzero;stroke:none;stroke-width:0.61190188"
           d="m 32.770113,58.858607 c 0.837081,-0.673092 1.373719,-1.704147 1.373719,-2.861253 0,-2.027231 -1.643568,-3.671411 -3.671411,-3.671411 -1.750651,0 -3.212485,1.226863 -3.579626,2.86676 -0.788741,-0.295549 -1.642344,-0.463822 -2.539392,-0.463822 -0.896437,0 -1.750652,0.168273 -2.538781,0.463822 -0.367753,-1.639897 -1.829587,-2.86676 -3.580238,-2.86676 -2.027231,0 -3.671411,1.64418 -3.671411,3.671411 0,1.157106 0.53725,2.188161 1.37372,2.861253 -1.618481,1.639897 -2.597524,3.676918 -2.597524,5.705373 0,4.56234 4.931317,0.611902 11.014234,0.611902 6.083528,0 11.014233,3.950438 11.014233,-0.611902 0,-2.028455 -0.978431,-4.065476 -2.597523,-5.705373" /><path
           inkscape:connector-curvature="0"
           id="path1017"
           style="fill:#ffffff;fill-opacity:1;fill-rule:nonzero;stroke:none;stroke-width:0.61190188"
           d="m 20.070151,55.691525 c 0,1.182807 -0.95885,2.141657 -2.141657,2.141657 -1.182806,0 -2.141656,-0.95885 -2.141656,-2.141657 0,-1.182806 0.95885,-2.141656 2.141656,-2.141656 1.182807,0 2.141657,0.95885 2.141657,2.141656" /><path
           inkscape:connector-curvature="0"
           id="path1019"
           style="fill:#292f33;fill-opacity:1;fill-rule:nonzero;stroke:none;stroke-width:0.61190188"
           d="m 18.846347,55.691525 c 0,0.507267 -0.410586,0.917853 -0.917853,0.917853 -0.507266,0 -0.917852,-0.410586 -0.917852,-0.917853 0,-0.507266 0.410586,-0.917853 0.917852,-0.917853 0.507267,0 0.917853,0.410587 0.917853,0.917853" /><path
           inkscape:connector-curvature="0"
           id="path1021"
           style="fill:#ffffff;fill-opacity:1;fill-rule:nonzero;stroke:none;stroke-width:0.61190188"
           d="m 32.92009,55.691525 c 0,1.182807 -0.958239,2.141657 -2.141657,2.141657 -1.183418,0 -2.141656,-0.95885 -2.141656,-2.141657 0,-1.182806 0.958238,-2.141656 2.141656,-2.141656 1.183418,0 2.141657,0.95885 2.141657,2.141656" /><path
           inkscape:connector-curvature="0"
           id="path1023"
           style="fill:#292f33;fill-opacity:1;fill-rule:nonzero;stroke:none;stroke-width:0.61190188"
           d="m 31.696286,55.691525 c 0,0.507267 -0.411198,0.917853 -0.917853,0.917853 -0.506655,0 -0.917853,-0.410586 -0.917853,-0.917853 0,-0.507266 0.411198,-0.917853 0.917853,-0.917853 0.506655,0 0.917853,0.410587 0.917853,0.917853" /><path
           inkscape:connector-curvature="0"
           id="path1025"
           style="fill:#3b918e;fill-opacity:1;fill-rule:nonzero;stroke:none;stroke-width:0.61190188"
           d="m 22.517758,63.340298 c 0,0.338382 -0.274132,0.611902 -0.611902,0.611902 -0.337769,0 -0.611901,-0.27352 -0.611901,-0.611902 0,-0.338381 0.274132,-0.611901 0.611901,-0.611901 0.33777,0 0.611902,0.27352 0.611902,0.611901" /><path
           inkscape:connector-curvature="0"
           id="path1027"
           style="fill:#3a908d;fill-opacity:1;fill-rule:nonzero;stroke:none;stroke-width:0.61190188"
           d="m 27.412973,63.340298 c 0,0.338382 -0.27352,0.611902 -0.611902,0.611902 -0.338382,0 -0.611902,-0.27352 -0.611902,-0.611902 0,-0.338381 0.27352,-0.611901 0.611902,-0.611901 0.338382,0 0.611902,0.27352 0.611902,0.611901" /></g></g><g
       id="g949"
       transform="matrix(0.63861338,0,0,0.63861338,7.204858,-1.9988772)"><path
         inkscape:connector-curvature="0"
         id="path933"
         style="fill:#e5b3e4;fill-opacity:1;fill-rule:nonzero;stroke:none;stroke-width:0.61190188"
         d="m 35.367697,64.564102 c 0,4.56234 -4.931317,7.342822 -11.014233,7.342822 -6.082916,0 -11.014233,-2.780482 -11.014233,-7.342822 0,-4.56234 4.931317,-9.178528 11.014233,-9.178528 6.082916,0 11.014233,4.616188 11.014233,9.178528" /><path
         inkscape:connector-curvature="0"
         id="path935"
         style="fill:#b256b1;fill-opacity:1;fill-rule:nonzero;stroke:none;stroke-width:0.61190188"
         d="m 32.770113,58.858607 c 0.837081,-0.673092 1.373719,-1.704147 1.373719,-2.861253 0,-2.027231 -1.643568,-3.671411 -3.671411,-3.671411 -1.750651,0 -3.212485,1.226863 -3.579626,2.86676 -0.788741,-0.295549 -1.642344,-0.463822 -2.539392,-0.463822 -0.896437,0 -1.750652,0.168273 -2.538781,0.463822 -0.367753,-1.639897 -1.829587,-2.86676 -3.580238,-2.86676 -2.027231,0 -3.671411,1.64418 -3.671411,3.671411 0,1.157106 0.53725,2.188161 1.37372,2.861253 -1.618481,1.639897 -2.597524,3.676918 -2.597524,5.705373 0,4.56234 4.931317,0.611902 11.014234,0.611902 6.083528,0 11.014233,3.950438 11.014233,-0.611902 0,-2.028455 -0.978431,-4.065476 -2.597523,-5.705373" /><path
         inkscape:connector-curvature="0"
         id="path937"
         style="fill:#ffffff;fill-opacity:1;fill-rule:nonzero;stroke:none;stroke-width:0.61190188"
         d="m 20.070151,55.691525 c 0,1.182807 -0.95885,2.141657 -2.141657,2.141657 -1.182806,0 -2.141656,-0.95885 -2.141656,-2.141657 0,-1.182806 0.95885,-2.141656 2.141656,-2.141656 1.182807,0 2.141657,0.95885 2.141657,2.141656" /><path
         inkscape:connector-curvature="0"
         id="path939"
         style="fill:#292f33;fill-opacity:1;fill-rule:nonzero;stroke:none;stroke-width:0.61190188"
         d="m 18.846347,55.691525 c 0,0.507267 -0.410586,0.917853 -0.917853,0.917853 -0.507266,0 -0.917852,-0.410586 -0.917852,-0.917853 0,-0.507266 0.410586,-0.917853 0.917852,-0.917853 0.507267,0 0.917853,0.410587 0.917853,0.917853" /><path
         inkscape:connector-curvature="0"
         id="path941"
         style="fill:#ffffff;fill-opacity:1;fill-rule:nonzero;stroke:none;stroke-width:0.61190188"
         d="m 32.92009,55.691525 c 0,1.182807 -0.958239,2.141657 -2.141657,2.141657 -1.183418,0 -2.141656,-0.95885 -2.141656,-2.141657 0,-1.182806 0.958238,-2.141656 2.141656,-2.141656 1.183418,0 2.141657,0.95885 2.141657,2.141656" /><path
         inkscape:connector-curvature="0"
         id="path943"
         style="fill:#292f33;fill-opacity:1;fill-rule:nonzero;stroke:none;stroke-width:0.61190188"
         d="m 31.696286,55.691525 c 0,0.507267 -0.411198,0.917853 -0.917853,0.917853 -0.506655,0 -0.917853,-0.410586 -0.917853,-0.917853 0,-0.507266 0.411198,-0.917853 0.917853,-0.917853 0.506655,0 0.917853,0.410587 0.917853,0.917853" /><path
         inkscape:connector-curvature="0"
         id="path945"
         style="fill:#8f398e;fill-opacity:1;fill-rule:nonzero;stroke:none;stroke-width:0.61190188"
         d="m 22.517758,63.340298 c 0,0.338382 -0.274132,0.611902 -0.611902,0.611902 -0.337769,0 -0.611901,-0.27352 -0.611901,-0.611902 0,-0.338381 0.274132,-0.611901 0.611901,-0.611901 0.33777,0 0.611902,0.27352 0.611902,0.611901" /><path
         inkscape:connector-curvature="0"
         id="path947"
         style="fill:#8f398e;fill-opacity:1;fill-rule:nonzero;stroke:none;stroke-width:0.61190188"
         d="m 27.412973,63.340298 c 0,0.338382 -0.27352,0.611902 -0.611902,0.611902 -0.338382,0 -0.611902,-0.27352 -0.611902,-0.611902 0,-0.338381 0.27352,-0.611901 0.611902,-0.611901 0.338382,0 0.611902,0.27352 0.611902,0.611901" /></g></g></svg>