<?xml version="1.0" encoding="utf-8"?>
<!-- Generator: Adobe Illustrator 25.0.0, SVG Export Plug-In . SVG Version: 6.00 Build 0)  -->
<svg version="1.1" id="Ebene_1" xmlns="http://www.w3.org/2000/svg" xmlns:xlink="http://www.w3.org/1999/xlink" x="0px" y="0px"
	 viewBox="0 0 36 36" style="enable-background:new 0 0 36 36;" xml:space="preserve">
<style type="text/css">
	.st0{fill:#5C913B;}
	.st1{fill:#77B255;}
	.st2{fill:none;}
</style>
<g id="Ebene_2_1_">
	<g id="Ebene_1-2">
		<path class="st0" d="M16,9.4h3.8c0.1-0.2,0.1-0.5,0-0.7L16,4V9.4z"/>
		<path class="st1" d="M12.8,22.3c0-0.3-0.1-0.7-0.2-1c-0.6-2.2-1.1-3.2-0.9-5.5c0.3-1.6,0.3-4.8,4.5-4.3c1.1,0.1,2.9,0.9,3.8,0.9
			c0.6,0,1-1.2,1-1.5s-0.9-1.4-1.2-1.6s-2-0.6-2.7-0.8c-1-0.3-1-1.7-1-2.2c0-0.2,0.1-0.5,0.3-0.6c0.2-0.1,0.4,0,0.6,0.1l0.9,0.7
			c0.5,0.4-0.9,1.2-0.5,1.4c0.8,0.3,1.7,0.6,2.5,0.8c0.4,0.1,1.8-1.5,1.9-2.5c0.1-0.7-3.4-4.1-5.9-5.4c-0.6-0.4-1.3-0.6-2-0.7
			c-0.7,0-0.9,0.3-1.8,1C8.3,4.5,4.6,11.6,4,13.1C1.8,19.6,1.4,23,1.3,24.9c0,0.6-0.1,1.2-0.1,1.8c0.1,0-1,5,0,6s5.3,1,5.3,1
			c10,4,28.6,3,28.6-7.2C35.2,14.3,16.4,15.9,12.8,22.3z"/>
		<path class="st0" d="M20.6,32.1c-2-0.3-4-0.9-5.8-2c-0.5-0.3-0.6-0.9-0.3-1.4s0.9-0.6,1.4-0.3c0,0,4,2.5,7.8,1.5
			c2.3-0.7,4.2-2.4,5.2-4.6c0.3-0.5,0.9-0.7,1.4-0.4c0.5,0.3,0.6,0.8,0.4,1.3c-1.2,2.7-3.6,4.8-6.5,5.6
			C23.1,32.1,21.9,32.2,20.6,32.1z"/>
		<rect y="0" class="st2" width="36" height="36"/>
	</g>
</g>
</svg>
