<?xml version="1.0" encoding="utf-8"?>
<!-- Generator: Adobe Illustrator 25.0.0, SVG Export Plug-In . SVG Version: 6.00 Build 0)  -->
<svg version="1.1" id="Ebene_1" xmlns="http://www.w3.org/2000/svg" xmlns:xlink="http://www.w3.org/1999/xlink" x="0px" y="0px"
	 viewBox="0 0 36 36" style="enable-background:new 0 0 36 36;" xml:space="preserve">
<style type="text/css">
	.st0{fill:#5C913B;}
	.st1{fill:#FA743E;}
	.st2{fill:#77B255;}
	.st3{fill:none;}
</style>
<g id="Ebene_2_1_">
	<g id="Ebene_1-2">
		<path class="st0" d="M32.3,24.3c-0.7-1-0.3-2.5-0.5-4.1c-0.2-2.8-1.4-5.3-3.5-7.2l-7.5-6.9C20,5.4,18.7,5.4,18,6.2
			S17.3,8.3,18.1,9l3.2,2.9l2.8,2.5c0,0-0.7,0.7-3.7-2.1L10,2.9C9.2,2.2,7.9,2.2,7.2,3c0,0,0,0,0,0C6.4,3.9,6.4,5.1,7.2,5.9
			c0,0,0,0,0,0l9.7,9c0,0-0.7,0.7-0.8,0.7L5.9,5.9c-0.8-0.8-2-0.8-2.8,0C3,6,3,6,3,6C2.2,6.8,2.3,8.1,3.1,8.8c0,0,0,0,0,0l10.4,9.7
			c0,0-0.7,0.8-0.6,0.8L3.9,11c-0.8-0.8-2.1-0.7-2.8,0.1c0,0,0,0,0,0c-0.8,0.8-0.7,2.1,0.1,2.8c0,0,0,0,0,0l9.5,8.8
			c0.1,0.1-0.5,0.9-0.4,1l-6.8-6.4c-0.8-0.8-2.1-0.7-2.8,0.1c0,0,0,0,0,0c-0.8,0.8-0.7,2.1,0.1,2.8c0,0,0,0,0,0l11.1,10.4
			c1.7,1.6,3.8,2.6,6.1,2.9c0.5,0.1,1.1,0.1,1.3,0.1c0.9,0.1,1.7,0.5,2.4,0.9c1.2,0.7,2.9,1,4-0.1l3.4-3.7l3.2-3.4
			C33.2,26.4,33,25.5,32.3,24.3z"/>
		<path class="st1" d="M1.9,35c-0.3,0-0.5-0.1-0.7-0.3c-0.4-0.4-0.4-1,0-1.4l3.6-3.5c0.4-0.4,1.1-0.3,1.4,0.1c0.3,0.4,0.3,0.9,0,1.3
			l-3.5,3.6C2.4,34.9,2.2,35,1.9,35z M8.7,36c-0.1,0-0.2,0-0.3-0.1c-0.5-0.2-0.8-0.7-0.6-1.3l1-2.8c0.2-0.5,0.7-0.8,1.2-0.7
			c0,0,0,0,0,0c0.5,0.2,0.8,0.8,0.6,1.3l-1,2.8C9.5,35.7,9.1,36,8.7,36z M1,28.3c-0.4,0-0.8-0.3-0.9-0.7c-0.2-0.5,0.1-1.1,0.6-1.3
			l2.5-0.9c0.5-0.2,1.1,0.1,1.3,0.6c0,0,0,0,0,0c0.2,0.5-0.1,1.1-0.6,1.3l-2.5,0.9C1.2,28.3,1.1,28.3,1,28.3z M30.5,6.5
			c-0.3,0-0.5-0.1-0.7-0.3c-0.4-0.4-0.4-1,0-1.4l3.6-3.5c0.4-0.4,1.1-0.3,1.4,0.1c0.3,0.4,0.3,0.9,0,1.3l-3.6,3.5
			C31,6.4,30.7,6.5,30.5,6.5z M26.3,4.8c-0.1,0-0.2,0-0.3-0.1c-0.5-0.2-0.8-0.7-0.6-1.3l1-2.8c0.2-0.5,0.7-0.8,1.2-0.6
			c0.5,0.2,0.8,0.8,0.6,1.3l-1,2.8C27.1,4.5,26.7,4.8,26.3,4.8z M32.4,10.6c-0.6,0-1-0.5-1-1c0-0.4,0.3-0.8,0.7-0.9l2.5-0.9
			c0.5-0.2,1.1,0,1.3,0.5c0.2,0.5,0,1.1-0.5,1.3c0,0-0.1,0-0.1,0l-2.5,0.9C32.7,10.6,32.6,10.6,32.4,10.6z"/>
		<path class="st2" d="M35.4,23.8c-0.7-1-0.2-2.5-0.3-4.1c-0.1-2.8-1.3-5.4-3.2-7.3l-7.2-7.2c-0.8-0.8-2.1-0.8-2.8,0s-0.8,2.1,0,2.8
			l3,3l2.6,2.6c0,0-0.7,0.7-3.6-2.2l-9.9-9.9c-0.8-0.8-2-0.8-2.8,0c0,0,0,0,0,0c-0.8,0.8-0.8,2,0,2.8c0,0,0,0,0,0l9.4,9.3
			c0,0-0.8,0.7-0.8,0.6l-10-10c-0.8-0.8-2.1-0.8-2.9,0S6,6.6,6.8,7.4l10,10c0,0-0.7,0.8-0.7,0.8L7.5,9.5c-0.8-0.8-2-0.8-2.8,0
			c0,0,0,0,0,0c-0.8,0.8-0.8,2,0,2.8c0,0,0,0,0,0l9.2,9.1c0.1,0.1-0.5,0.9-0.4,1l-6.6-6.6c-0.8-0.8-2-0.8-2.8,0c0,0,0,0,0,0
			c-0.8,0.8-0.8,2,0,2.8c0,0,0,0,0,0l10.8,10.7c1.6,1.7,3.7,2.8,6,3.1c0.5,0.1,1.1,0.1,1.3,0.1c0.8,0.2,1.6,0.5,2.3,1
			c1.1,0.8,2.9,1.1,4,0.1l3.6-3.6l3.3-3.3C36.2,25.9,36.1,25,35.4,23.8z"/>
		<rect x="0" y="0" class="st3" width="35.9" height="35.9"/>
	</g>
</g>
</svg>
