<?xml version="1.0" encoding="UTF-8" standalone="no"?>
<svg
   width="360"
   height="360"
   preserveAspectRatio="xMidYMid"
   viewBox="0 0 360 360"
   style="-ms-transform:rotate(360deg);-webkit-transform:rotate(360deg)"
   version="1.1"
   id="svg5888"
   sodipodi:docname="U1f476-frogBaby.svg"
   inkscape:version="1.3.2 (091e20ef0f, 2023-11-25, custom)"
   xmlns:inkscape="http://www.inkscape.org/namespaces/inkscape"
   xmlns:sodipodi="http://sodipodi.sourceforge.net/DTD/sodipodi-0.dtd"
   xmlns="http://www.w3.org/2000/svg"
   xmlns:svg="http://www.w3.org/2000/svg"
   xmlns:rdf="http://www.w3.org/1999/02/22-rdf-syntax-ns#"
   xmlns:cc="http://creativecommons.org/ns#"
   xmlns:dc="http://purl.org/dc/elements/1.1/">
  <metadata
     id="metadata5894">
    <rdf:RDF>
      <cc:Work
         rdf:about="">
        <dc:format>image/svg+xml</dc:format>
        <dc:type
           rdf:resource="http://purl.org/dc/dcmitype/StillImage" />
      </cc:Work>
    </rdf:RDF>
  </metadata>
  <defs
     id="defs5892" />
  <sodipodi:namedview
     pagecolor="#ffffff"
     bordercolor="#666666"
     borderopacity="1"
     objecttolerance="10"
     gridtolerance="10"
     guidetolerance="10"
     inkscape:pageopacity="0"
     inkscape:pageshadow="2"
     inkscape:window-width="1920"
     inkscape:window-height="1031"
     id="namedview5890"
     showgrid="false"
     inkscape:zoom="0.70710678"
     inkscape:cx="-4.2426407"
     inkscape:cy="205.76807"
     inkscape:window-x="0"
     inkscape:window-y="49"
     inkscape:window-maximized="1"
     inkscape:current-layer="svg5888"
     inkscape:showpageshadow="0"
     inkscape:pagecheckerboard="1"
     inkscape:deskcolor="#d1d1d1" />
  <path
     fill="#c6e5b3"
     d="m 360,201.87612 c 0,74.56 -80.59,120 -180,120 -99.41,0 -180,-45.44 -180,-120 0,-74.56 80.59,-149.999998 180,-149.999998 99.41,0 180,75.439998 180,149.999998 z"
     id="path5870"
     style="stroke-width:10" />
  <path
     d="M 317.55,108.63612 A 59.86,59.86 0 0 0 340,61.876122 a 60,60 0 0 0 -118.51,-13.15 117.85,117.85 0 0 0 -41.49,-7.58 c -14.65,0 -28.61,2.75 -41.49,7.58 A 60,60 0 0 0 20,61.876122 c 0,18.91 8.77,35.76 22.45,46.759998 -26.45,26.8 -42.45,60.09 -42.45,93.24 0,74.56 80.59,10 180,10 99.41,0 180,64.56 180,-10 0,-33.15 -16,-66.44 -42.45,-93.24 z"
     id="path5872"
     fill="#77b255"
     style="stroke-width:10" />
  <circle
     fill="#ffffff"
     cx="75"
     cy="56.876122"
     r="35"
     id="circle5874"
     style="stroke-width:10" />
  <circle
     fill="#292f33"
     cx="75"
     cy="56.876122"
     r="15"
     id="circle5876"
     style="stroke-width:10" />
  <circle
     fill="#ffffff"
     cx="285"
     cy="56.876122"
     r="35"
     id="circle5878"
     style="stroke-width:10" />
  <circle
     fill="#292f33"
     cx="285"
     cy="56.876122"
     r="15"
     id="circle5880"
     style="stroke-width:10" />
  <circle
     cx="140"
     cy="166.95845"
     r="10"
     id="circle5882"
     style="fill:#5c913b;stroke-width:10" />
  <circle
     cx="220"
     cy="166.95845"
     r="10"
     id="circle5884"
     style="fill:#5c913b;stroke-width:10" />
  <g
     id="g6060"
     transform="matrix(5.9963273,0,0,5.9929925,-11.876178,-29.817725)">
    <g
       id="g6012"
       style="fill:#ff717f">
      <path
         id="path6008"
         d="m 55.22,37.05 c -0.338,-2.473 -3.137,-3.963 -6.254,-3.328 -3.117,0.633 -5.369,3.156 -5.03,5.633 0.34,2.473 3.139,3.967 6.258,3.33 3.117,-0.637 5.367,-3.159 5.03,-5.635"
         inkscape:connector-curvature="0"
         style="opacity:0.5" />
      <path
         id="path6010"
         d="m 15.04,33.723 c -3.113,-0.635 -5.916,0.855 -6.254,3.328 -0.336,2.477 1.916,4.998 5.03,5.635 3.114,0.637 5.915,-0.857 6.253,-3.33 0.34,-2.477 -1.916,-4.997 -5.03,-5.633"
         inkscape:connector-curvature="0"
         style="opacity:0.5" />
    </g>
    <path
       id="path6028"
       d="m 46.999,42.504 c 0,9.379 -6.715,13.721 -15,13.721 -8.283,0 -15,-4.342 -15,-13.721 0,-9.375 6.756,-5.793 15.04,-5.793 8.285,0 14.961,-3.582 14.961,5.793"
       inkscape:connector-curvature="0"
       style="fill:#61c2ff" />
    <ellipse
       id="ellipse6030"
       ry="5.6599998"
       rx="6"
       cy="46.130001"
       cx="31.999001"
       style="fill:#6235a8" />
    <path
       id="path6032"
       d="m 31.999,45.563 c -5.965,0 -10.799,-0.713 -10.799,5.389 0,6.103 4.834,11.05 10.799,11.05 5.965,0 10.801,-4.945 10.801,-11.05 0,-6.101 -4.836,-5.388 -10.801,-5.388 m 0,12.703 c -4.24,0 -8.158,-2.975 -8.158,-7.314 0,-4.339 3.918,-3.283 8.158,-3.283 4.242,0 8.16,-1.057 8.16,3.283 0,4.34 -3.918,7.314 -8.16,7.314"
       inkscape:connector-curvature="0"
       style="fill:#fbbf67" />
    <path
       id="path6034"
       d="m 35.667,47.45 c 0,0.625 -0.447,1.131 -1,1.131 h -5.334 c -0.553,0 -1,-0.506 -1,-1.131 v -2.643 c 0,-0.627 0.447,-1.133 1,-1.133 h 5.334 c 0.553,0 1,0.506 1,1.133 v 2.643"
       inkscape:connector-curvature="0"
       style="fill:#42ade2" />
  </g>
  <path
     style="fill:#ffa773;fill-opacity:1;stroke-width:0.078125"
     d="m 76.864017,226.8454 c -0.9165,-0.056 -2.749332,-0.2656 -3.909855,-0.4479 -12.028987,-1.8891 -22.788635,-8.70481 -28.435874,-18.01272 -4.03054,-6.64322 -4.966342,-14.05526 -2.59331,-20.54035 1.905931,-5.20859 5.888448,-9.58853 11.42743,-12.56779 2.876227,-1.54705 6.65979,-2.78428 10.311003,-3.37171 4.138436,-0.6658 8.872604,-0.6114 13.317794,0.1532 11.134575,1.91509 21.264643,8.14227 26.925075,16.55143 l 0.7035,1.04507 -0.6987,0.3748 c -3.27313,1.75556 -6.170096,4.5342 -8.25797,7.92067 -2.415003,3.91706 -4.07381,9.10886 -4.918996,15.39567 -0.39717,2.95431 -0.56637,5.2883 -0.66775,9.21085 -0.041,1.5855 -0.0871,2.89537 -0.10259,2.91082 -0.0595,0.06 -2.170664,0.577 -3.121414,0.7651 -1.211683,0.2397 -3.010807,0.4783 -4.42748,0.5872 -0.95428,0.073 -4.497184,0.09 -5.55079,0.026 z"
     id="path6198"
     inkscape:connector-curvature="0" />
  <path
     style="fill:#ffa773;fill-opacity:1;stroke-width:0.078125"
     d="m 278.12994,226.85424 c -0.1719,-0.016 -0.7419,-0.067 -1.2668,-0.1125 -1.86017,-0.1613 -4.41361,-0.6127 -6.07695,-1.07436 l -0.7813,-0.2168 -0.016,-1.36488 c -0.1655,-13.83701 -2.67047,-23.21394 -7.80259,-29.20804 -1.65271,-1.93029 -3.66224,-3.57524 -5.88299,-4.81567 -0.5725,-0.3198 -0.7871,-0.4791 -0.7556,-0.561 0.096,-0.2512 1.34981,-2.01629 2.10412,-2.96307 6.22183,-7.80943 16.09906,-13.22058 26.8456,-14.70711 2.16953,-0.3001 3.1174,-0.3582 5.82031,-0.3567 2.68519,0.002 3.41816,0.048 5.58594,0.3552 6.90152,0.9776 13.08316,3.93642 17.30832,8.28459 3.23065,3.3247 5.13944,7.07385 5.94118,11.66938 0.2519,1.44368 0.3392,3.92274 0.1931,5.48462 -0.5156,5.51413 -3.04488,11.03946 -7.23479,15.80444 -0.8775,0.9979 -2.94416,3.02951 -3.90316,3.83689 -5.37239,4.52303 -12.15169,7.73631 -19.33594,9.16494 -2.95284,0.5872 -4.63184,0.7552 -7.85156,0.7856 -1.41797,0.013 -2.71875,0.011 -2.89063,-0.005 z"
     id="path6200"
     inkscape:connector-curvature="0" />
  <path
     sodipodi:nodetypes="cccsccscc"
     style="fill:#ffbc00;stroke-width:3.59311"
     inkscape:connector-curvature="0"
     d="m 198.59657,77.556252 c 3.70437,0 7.31144,-0.2452 10.83858,-0.6242 -8.34699,-6.54621 -14.83832,-15.09492 -18.64347,-24.85849 9.5563,3.75979 20.84316,5.94433 32.95708,5.94433 3.70437,0 7.31492,-0.2378 10.84554,-0.6316 -4.72726,-1.730032 -7.92262,-2.847147 -13.1043,-8.66017 -9.11011,-7.09766 -23.24094,-12.70603 -36.07418,-12.70603 -17.19787,0 -33.25594,4.29479 -46.90582,12.70603 7.23499,16.6033 31.34468,28.83006 60.08657,28.83006"
     id="path1000" />
</svg>
