<?xml version="1.0" encoding="utf-8"?>
<!-- Generator: Adobe Illustrator 25.0.0, SVG Export Plug-In . SVG Version: 6.00 Build 0)  -->
<svg version="1.1" id="Ebene_1" xmlns="http://www.w3.org/2000/svg" xmlns:xlink="http://www.w3.org/1999/xlink" x="0px" y="0px"
	 viewBox="0 0 36 36" style="enable-background:new 0 0 36 36;" xml:space="preserve">
<style type="text/css">
	.st0{fill:#5C913B;}
	.st1{fill:#77B255;}
	.st2{fill:#5DADEC;}
</style>
<g id="Ebene_2_1_">
	<g id="Ebene_1-2">
		<path class="st0" d="M4.9,9.1c1-0.6,2.3-0.6,3.2,0.2l-1-1.4C6.4,6.9,6.5,5.6,7.4,4.9c0.1-0.1,0.2-0.1,0.2-0.2C8.8,4,12,6.1,12,6.1
			c-0.8-1-0.6-2.5,0.4-3.2c0,0,0.1-0.1,0.1-0.1c1.1-0.8,2.7-0.5,3.5,0.6l10.4,14.7L25,31l-11.1-4L4.2,12.6C3.5,11.5,3.7,9.9,4.9,9.1
			C4.9,9.1,4.9,9.1,4.9,9.1z"/>
		<path class="st1" d="M2.7,17.3c-0.6-0.9-0.4-2.2,0.5-2.8C4.1,13.9,5.4,14.1,6,15c0,0,0,0,0,0l5.2,7.7c0.2-0.3,0.4-0.6,0.6-0.9
			L4.6,11.2C3.9,10.3,4.2,9,5.1,8.4C6,7.8,7.2,8,7.9,8.9l6.8,10l0.8-0.6L7.6,6.7C6.9,5.8,7.2,4.5,8.1,3.9c0.9-0.6,2.1-0.4,2.7,0.5
			L18.8,16c0.3-0.2,0.6-0.3,0.9-0.5L12.2,4.7c-0.6-0.9-0.4-2.2,0.5-2.8c0.9-0.6,2.2-0.4,2.8,0.5l7.8,11.4l1.2,1.7
			C20,18.7,18.9,25,22,29.5c0.3,0.5,0.9,0.6,1.4,0.3C20,24.8,21,19.3,26,15.9l-1.5-7.3c-0.3-1.1,0.3-2.2,1.4-2.5
			c1.1-0.3,2.2,0.3,2.5,1.4l1.7,5c0.6,2,1.4,3.9,2.3,5.8c3.1,5.8,0.9,13.1-4.9,16.2c-5.5,2.9-12.3,1.2-15.7-4.1L2.7,17.3z"/>
		<path class="st2" d="M12,32c-4,0-8-4-8-8c0-0.6-0.4-1-1-1s-1,0.4-1,1c0,6,4,10,10,10c0.6,0,1-0.4,1-1S12.6,32,12,32z"/>
		<path class="st2" d="M7,34c-2.6,0.2-4.8-1.8-5-4.4c0-0.2,0-0.4,0-0.6c0-0.6-0.4-1-1-1s-1,0.4-1,1c-0.1,3.8,2.9,6.9,6.7,7
			c0.1,0,0.2,0,0.3,0c0.6,0,1-0.4,1-1S7.6,34,7,34z M24,2c-0.6,0-1,0.4-1,1s0.4,1,1,1c4.4,0.1,7.9,3.6,8,8c0,0.6,0.4,1,1,1
			s1-0.4,1-1c0.2-5.4-4.1-9.8-9.4-10C24.4,2,24.2,2,24,2z"/>
		<path class="st2" d="M29,0c-0.6,0-1,0.4-1,1s0.4,1,1,1c2.7-0.1,4.9,2,5,4.6c0,0.1,0,0.3,0,0.4c0,0.6,0.4,1,1,1s1-0.4,1-1
			c0.1-3.8-2.9-6.9-6.7-7C29.2,0,29.1,0,29,0z"/>
	</g>
</g>
</svg>
