<?xml version="1.0" encoding="utf-8"?>
<!-- Generator: Adobe Illustrator 25.0.0, SVG Export Plug-In . SVG Version: 6.00 Build 0)  -->
<svg version="1.1" id="Ebene_1" xmlns="http://www.w3.org/2000/svg" xmlns:xlink="http://www.w3.org/1999/xlink" x="0px" y="0px"
	 viewBox="0 0 2671.4 2671.4" style="enable-background:new 0 0 2671.4 2671.4;" xml:space="preserve">
<style type="text/css">
	.st0{fill:#C6E5B3;}
	.st1{fill:#77B255;}
	.st2{fill:#FFFFFF;}
	.st3{fill:#292F33;}
	.st4{fill:#5C913B;}
	.st5{fill:#FFF75F;}
	.st6{fill:#FFAC33;}
	.st7{fill:none;}
</style>
<g id="Ebene_2_1_">
	<g id="Ebene_1-2">
		<path class="st0" d="M2331.9,2007.2c0,412.7-446.1,664.3-996.4,664.3s-996.4-251.5-996.4-664.3s446.1-830.3,996.4-830.3
			S2331.9,1594.4,2331.9,2007.2z"/>
		<path class="st1" d="M2096.9,1491c75.7-60.9,124.3-154.2,124.3-258.8c0-183.4-148.7-332.1-332.1-332.1
			c-158.4,0-290.6,110.9-323.9,259.3c-148-55.9-311.3-55.9-459.3,0c-33.3-148.4-165.5-259.3-323.9-259.3
			c-183.4,0-332.1,148.7-332.1,332.1c0,104.7,48.5,198,124.3,258.8c-146.4,148.4-235,332.6-235,516.1c0,412.7,446.1,55.4,996.4,55.4
			s996.4,357.4,996.4-55.4C2331.9,1823.7,2243.3,1639.4,2096.9,1491z"/>
		<circle class="st2" cx="754.2" cy="1204.5" r="193.8"/>
		<circle class="st3" cx="754.2" cy="1204.5" r="83"/>
		<circle class="st2" cx="1916.7" cy="1204.5" r="193.8"/>
		<circle class="st3" cx="1916.7" cy="1204.5" r="83"/>
		<circle class="st4" cx="1114.1" cy="1896.5" r="55.4"/>
		<circle class="st4" cx="1556.9" cy="1896.5" r="55.4"/>
		<path class="st5" d="M2402.1,977.5c-266.6-177.7-89.6-370.5-266.6-622C1969,118.8,1691.2,0,1335.6,0
			C891.4,0,702.5,118.8,536,355.4c-177,251.6,0,444.3-266.6,622C104,1087.7,802.6,1183,1335.7,1183S2567.4,1087.7,2402.1,977.5"/>
		<path class="st6" d="M1158,1021.9V7.8c-31.1,2.8-60.7,6.6-88.9,11v913.6c-185.7-4.5-455.3-35.2-680-75.8
			c-15.5,26.4-36.4,52.4-64.9,77.9c258.6,50.3,586.1,87.3,789.3,87.3L1158,1021.9z M2300.3,883.9c-253.5,27-518.9,45.9-698,48.8V26
			c-28.7-5.9-58.7-10-88.9-13.8v1009.7h44.4c179.3,0,515-23.2,825.4-58.4C2347.6,937.3,2320.4,910.8,2300.3,883.9L2300.3,883.9z"/>
		<rect y="0" class="st7" width="2671.4" height="2671.4"/>
	</g>
</g>
</svg>
