<?xml version="1.0" encoding="utf-8"?>
<!-- Generator: Adobe Illustrator 25.0.0, SVG Export Plug-In . SVG Version: 6.00 Build 0)  -->
<svg version="1.1" id="Ebene_1" xmlns="http://www.w3.org/2000/svg" xmlns:xlink="http://www.w3.org/1999/xlink" x="0px" y="0px"
	 viewBox="0 0 36 36" style="enable-background:new 0 0 36 36;" xml:space="preserve">
<style type="text/css">
	.st0{fill:#77B255;}
	.st1{fill:#CCD6DD;}
	.st2{fill:#5C913B;}
	.st3{fill:#99AAB5;}
	.st4{fill:#FFFFFF;}
	.st5{fill:#292F33;}
	.st6{fill:none;}
</style>
<g id="Ebene_2_1_">
	<g id="Ebene_1-2">
		<path class="st0" d="M29,11.1c0,6.4-5,7.4-5,13.4c0,3.1-3.1,3.4-5.5,3.4c-2,0-6.6-0.8-6.6-3.4c0-6-4.9-7-4.9-13.4
			C7.2,5,12.1,0.2,18.1,0.1C24.1,0.2,28.9,5.1,29,11.1z"/>
		<path class="st1" d="M22.2,32.5c0,0.8-2.2,2.5-4.2,2.5s-4.2-1.7-4.2-2.5S16.1,32,18,32S22.2,31.7,22.2,32.5z"/>
		<path class="st2" d="M22.7,10.3c-0.4-0.4-1-0.4-1.4,0c0,0,0,0,0,0L18,13.6l-3.3-3.3c-0.4-0.4-1-0.4-1.4,0s-0.4,1,0,1.4l3.7,3.7V26
			c0,0.6,0.4,1,1,1s1-0.4,1-1V15.4l3.7-3.7C23.1,11.3,23.1,10.7,22.7,10.3C22.7,10.3,22.7,10.3,22.7,10.3z"/>
		<path class="st3" d="M24,31c0,1.1-0.9,2-2,2h-8c-1.1,0-2-0.9-2-2v-6h12V31z"/>
		<path class="st1" d="M12,32c-0.6,0-1-0.4-1.1-0.9s0.4-1,0.9-1.1l12-2c0.6-0.1,1.1,0.3,1.2,0.8s-0.3,1.1-0.8,1.2l-12,2H12z M12,28
			c-0.6,0-1-0.4-1.1-0.9s0.4-1,0.9-1.1l12-2c0.6-0.1,1.1,0.3,1.2,0.8s-0.3,1.1-0.8,1.2l-12,2H12z"/>
		<circle class="st0" cx="7.9" cy="5" r="4.4"/>
		<circle class="st4" cx="7.5" cy="4.7" r="2.6"/>
		<circle class="st5" cx="7.5" cy="4.7" r="1.1"/>
		<circle class="st0" cx="28.1" cy="5" r="4.4"/>
		<circle class="st4" cx="28.5" cy="4.7" r="2.6"/>
		<circle class="st5" cx="28.5" cy="4.7" r="1.1"/>
		<rect y="0" class="st6" width="36" height="36"/>
	</g>
</g>
</svg>
