<?xml version="1.0" encoding="utf-8"?>
<!-- Generator: Adobe Illustrator 25.0.0, SVG Export Plug-In . SVG Version: 6.00 Build 0)  -->
<svg version="1.1" id="Ebene_1" xmlns="http://www.w3.org/2000/svg" xmlns:xlink="http://www.w3.org/1999/xlink" x="0px" y="0px"
	 viewBox="0 0 2400 2400" style="enable-background:new 0 0 2400 2400;" xml:space="preserve">
<style type="text/css">
	.st0{fill:#C6E5B3;}
	.st1{fill:#A2BC92;}
	.st2{fill:#77B255;}
	.st3{fill:#FFFFFF;}
	.st4{fill:#292F33;}
	.st5{fill:none;}
</style>
<g id="Ebene_2_1_">
	<g id="Ebene_1-2">
		<path class="st0" d="M2392.4,2314L1316.1,1009.4c0,0-377.3,247.1-514.7,647.7c0,0,312.4,354.2,655.3,550.5
			c426.2,244,779.2,191.1,917.2,160c17.9-4,29.2-21.7,25.2-39.6C2398,2322.8,2395.7,2318,2392.4,2314z"/>
		<path class="st1" d="M1200.7,868.3l-270.1,238.2c4.4,1.9,21.2,30.1,11.6,74.1c-26.9,124.8-157,287-199.1,341.2
			c-13,16.7-15,46.2,1.7,67.4l56.6,67.8c121.9-265.3,438.8-581.9,514.7-647.7L1200.7,868.3z"/>
		<path class="st2" d="M1200.7,868.3c0,0-222.2-282.2-385.7-467.6s-274.5-291.9-380.4-360C326.5-28.8,211,11.6,123.7,88.5
			S-57.2,338,43.8,452.5c55.3,62.7,186.4,5.2,253.7,81.6c45.7,51.8,69,91.4,231.9,258.3c251.6,258,401.2,314,401.2,314
			s83.7-69.7,129.3-110.3C1105.6,955.8,1200.7,868.3,1200.7,868.3z"/>
		<circle class="st3" cx="386.2" cy="309.3" r="149.8"/>
		<circle class="st3" cx="768.8" cy="703.5" r="149.8"/>
		<circle class="st4" cx="768.8" cy="703.5" r="72.2"/>
		<circle class="st4" cx="386.2" cy="309.3" r="72.2"/>
		<rect y="0" class="st5" width="2400" height="2400"/>
	</g>
</g>
</svg>
