<?xml version="1.0" encoding="utf-8"?>
<!-- Generator: Adobe Illustrator 25.0.0, SVG Export Plug-In . SVG Version: 6.00 Build 0)  -->
<svg version="1.1" id="Ebene_1" xmlns="http://www.w3.org/2000/svg" xmlns:xlink="http://www.w3.org/1999/xlink" x="0px" y="0px"
	 viewBox="0 0 2000 2000" style="enable-background:new 0 0 2000 2000;" xml:space="preserve">
<style type="text/css">
	.st0{fill:#66757F;}
	.st1{fill:#292F33;}
	.st2{fill:#C6E5B3;}
	.st3{fill:#77B255;}
	.st4{fill:#FFFFFF;}
	.st5{fill:#5C913B;}
	.st6{fill-rule:evenodd;clip-rule:evenodd;fill:#292F33;}
	.st7{fill:none;}
</style>
<g id="Ebene_2_1_">
	<g id="Ebene_1-2">
		<path class="st0" d="M1833.3,2000v-55.6c0-184-149.3-333.3-333.3-333.3H500c-184.1,0-333.3,149.3-333.3,333.3v55.6H1833.3z
			 M1486.1,1135.3c66,11.6,145.5,7.2,134.2,50.9c-26.6,103-144.7,64.8-165.5,66S1486.1,1135.3,1486.1,1135.3z"/>
		<path class="st1" d="M1503.4,1146.9c104.2,13.9,141.2,23.1,64.8,53.2c-42.9,16.9-124.6,266.8-185.1,228.8
			S1503.4,1146.9,1503.4,1146.9z"/>
		<path class="st0" d="M514.2,1135.3c-66,11.6-145.5,7.2-134.2,50.9c26.6,103,144.7,64.8,165.5,66S514.2,1135.3,514.2,1135.3z"/>
		<path class="st1" d="M496.8,1146.9c-104.2,13.9-141.2,23.1-64.8,53.2c42.9,16.9,124.6,266.8,185.1,228.8
			S496.8,1146.9,496.8,1146.9z"/>
		<path class="st2" d="M1509.8,1184.7c0,210.9-228,339.5-509.2,339.5s-509.2-128.6-509.2-339.5s228-424.3,509.2-424.3
			S1509.8,973.7,1509.8,1184.7z"/>
		<path class="st3" d="M1389.7,920.9c73.1-58.6,84.8-165.4,26.1-238.5c-32.2-40.1-80.9-63.5-132.4-63.5
			c-80.9,0-148.5,56.7-165.5,132.5c-75.6-28.6-159.1-28.6-234.8,0c-17-75.8-84.6-132.5-165.5-132.5c-93.7,0-169.7,75.9-169.7,169.6
			c0,51.5,23.3,100.2,63.5,132.4c-74.8,75.8-120.1,170-120.1,263.8c0,210.9,228,28.3,509.2,28.3s509.2,182.6,509.2-28.3
			C1509.8,1090.9,1464.5,996.7,1389.7,920.9z"/>
		<circle class="st4" cx="703.5" cy="774.5" r="99"/>
		<circle class="st1" cx="703.5" cy="774.5" r="42.4"/>
		<circle class="st4" cx="1297.6" cy="774.5" r="99"/>
		<circle class="st1" cx="1297.6" cy="774.5" r="42.4"/>
		<circle class="st5" cx="887.4" cy="1128.1" r="28.3"/>
		<circle class="st5" cx="1113.7" cy="1128.1" r="28.3"/>
		<path class="st6" d="M425.4,821.5c8.2,8.2,49.3,32.8,57.5,57.5s24.7,164.1,74.1,205.2c50.9,42.3,242.8,26.6,279.6,8.3
			c82.2-41,92.3-155.5,106.9-213.5c8.2-32.8,57.5-32.8,57.5-32.8s49.3,0,57.6,32.8c14.6,58,24.7,172.5,106.9,213.4
			c36.8,18.3,228.7,34.1,279.7-8.2c49.3-41,65.7-180.5,73.9-205.2s49.3-49.2,57.5-57.4s8.2-41.1,0-49.3
			c-16.4-16.4-210.4-31.1-419.3-8.2c-41.7,4.6-57.5,16.4-156.2,16.4S886.4,768.5,844.8,764c-208.8-22.8-402.9-8.2-419.3,8.2
			C417.1,780.5,417.1,813.4,425.4,821.5z"/>
		<path class="st0" d="M436.5,466.4c0,0,75.5-494.5,329.6-465.1c195.1,22.6,271.7,45.8,435.2,5.4c108.2-26.8,225.8,63.1,296.8,243.3
			c45.3,114.9,68,224.5,68,224.5s218.8-21.4,231.4,96.2s-241.9,262-882.7,262C555.5,832.6,185,701.7,167.4,592
			S436.5,466.4,436.5,466.4z"/>
		<path class="st1" d="M451.4,397.2c0,0-15,61.3-22.6,103.9s12.6,72,150.3,101.3c182.6,38.9,593.3,38.4,836.6-21.3
			c97.7-24,160.3-40,152.8-88c-9.3-59.3-10.9-59.2-30.1-122.7c0,0-82.1,27.9-190.4,53.3c-147.8,34.7-553.6,50.6-749,8
			C495,409.1,451.4,397.2,451.4,397.2z M443.8,1172.4c-19.7,8.1,162.3,76.6,415.6,81c265.1,4.7,346.3,21.7,285.9,81.1
			c-63.7,62.5-47.3,160.8-42.8,189.9s113.7,106.4,122.7,142.2s-68.3,331.2-68.3,331.2l-485-14c-142.5-491.3-160.2-472.3-228.1-755.8
			C430.4,1171.9,443.8,1172.4,443.8,1172.4z"/>
		<path class="st0" d="M388.3,1174.7c-19.7,8.1,162.3,76.6,415.6,81c265.1,4.7,346.3,21.7,285.9,81.1
			c-63.7,62.5-36.9,160.8-32.4,189.9s103.3,106.4,112.3,142.3s-68.4,331.1-68.4,331.1l-484.9-14
			c-142.5-491.3-160.2-472.3-228.1-755.8C374.9,1174.2,388.3,1174.7,388.3,1174.7z"/>
		<path class="st1" d="M1558.4,1172.4c19.7,8.1-162.3,76.6-415.5,81c-265.1,4.7-346.3,21.7-285.9,81.1
			c63.7,62.5,165.3,160.7,160.9,189.8s-231.8,106.6-240.7,142.3s68.3,331.2,68.3,331.2l485-14c142.5-491.3,160.2-472.3,228-755.8
			C1571.8,1171.9,1558.4,1172.4,1558.4,1172.4z"/>
		<path class="st0" d="M1608.8,1172.4c19.7,8.1-162.3,76.6-415.5,81c-265.1,4.7-346.3,21.7-285.9,81.1
			c63.7,62.5,165.4,160.7,160.9,189.8s-231.8,106.6-240.7,142.3s68.3,331.2,68.3,331.2l480.9,0.6
			c142.5-491.3,164.2-486.8,232.1-770.3C1622.2,1171.9,1608.8,1172.4,1608.8,1172.4z"/>
		<rect y="0" class="st7" width="2000" height="2000"/>
	</g>
</g>
</svg>
