<?xml version="1.0" encoding="UTF-8" standalone="no"?>
<svg
   xmlns:dc="http://purl.org/dc/elements/1.1/"
   xmlns:cc="http://creativecommons.org/ns#"
   xmlns:rdf="http://www.w3.org/1999/02/22-rdf-syntax-ns#"
   xmlns:svg="http://www.w3.org/2000/svg"
   xmlns="http://www.w3.org/2000/svg"
   xmlns:sodipodi="http://sodipodi.sourceforge.net/DTD/sodipodi-0.dtd"
   xmlns:inkscape="http://www.inkscape.org/namespaces/inkscape"
   viewBox="0 0 45 45"
   style="enable-background:new 0 0 45 45;"
   xml:space="preserve"
   version="1.1"
   id="svg2"
   sodipodi:docname="frog_weary_sleepy.svg"
   inkscape:export-xdpi="1919.9879"
   inkscape:export-ydpi="1919.9879"
   inkscape:version="0.92.4 5da689c313, 2019-01-14"><sodipodi:namedview
     pagecolor="#ffffff"
     bordercolor="#666666"
     borderopacity="1"
     objecttolerance="10"
     gridtolerance="10"
     guidetolerance="10"
     inkscape:pageopacity="0"
     inkscape:pageshadow="2"
     inkscape:window-width="1920"
     inkscape:window-height="1027"
     id="namedview26"
     showgrid="false"
     inkscape:zoom="16"
     inkscape:cx="7.028439"
     inkscape:cy="21.02189"
     inkscape:window-x="1600"
     inkscape:window-y="53"
     inkscape:window-maximized="0"
     inkscape:current-layer="svg2" /><metadata
     id="metadata8"><rdf:RDF><cc:Work
         rdf:about=""><dc:format>image/svg+xml</dc:format><dc:type
           rdf:resource="http://purl.org/dc/dcmitype/StillImage" /><dc:title /></cc:Work></rdf:RDF></metadata><defs
     id="defs6"><clipPath
       id="clipPath16"
       clipPathUnits="userSpaceOnUse"><path
         id="path18"
         d="M 0,36 36,36 36,0 0,0 0,36 Z" /></clipPath></defs><g
     id="g20"
     transform="matrix(1.25,0,0,-1.25,45,27.5)"><path
       inkscape:connector-curvature="0"
       d="m 0,0 c 0,-7.456 -8.059,-12 -18,-12 -9.941,0 -18,4.544 -18,12 0,7.456 8.059,15 18,15 C -8.059,15 0,7.456 0,0"
       style="fill:#c6e5b3;fill-opacity:1;fill-rule:nonzero;stroke:none"
       id="path22" /></g><path
     id="path26"
     style="fill:#77b255;fill-opacity:1;fill-rule:nonzero;stroke:none;stroke-width:1.25"
     d="m 39.693625,15.84475 c 1.71,-1.375 2.80625,-3.48125 2.80625,-5.845 0,-4.14125 -3.3575,-7.5 -7.5,-7.5 -3.57625,0 -6.5625,2.50625 -7.3125,5.85625 -1.61125,-0.60375 -3.355,-0.9475 -5.1875,-0.9475 -1.83125,0 -3.57625,0.34375 -5.18625,0.9475 -0.75125,-3.35 -3.7375,-5.85625 -7.31375,-5.85625 -4.14125,0 -7.5,3.35875 -7.5,7.5 0,2.36375 1.0975,4.47 2.80625,5.845 -3.30625,3.35 -5.30625,7.51125 -5.30625,11.655 0,9.32 10.07375,1.25 22.5,1.25 12.4275,0 22.5,8.07 22.5,-1.25 0,-4.14375 -1.99875,-8.305 -5.30625,-11.655"
     inkscape:connector-curvature="0" /><g
     id="g44"
     transform="matrix(1.25,0,0,-1.25,18.75,25)"><path
       inkscape:connector-curvature="0"
       d="m 0,0 c 0,-0.553 -0.448,-1 -1,-1 -0.552,0 -1,0.447 -1,1 0,0.553 0.448,1 1,1 0.552,0 1,-0.447 1,-1"
       style="fill:#5c913b;fill-opacity:1;fill-rule:nonzero;stroke:none"
       id="path46" /></g><g
     id="g48"
     transform="matrix(1.25,0,0,-1.25,28.75,25)"><path
       inkscape:connector-curvature="0"
       d="m 0,0 c 0,-0.553 -0.447,-1 -1,-1 -0.553,0 -1,0.447 -1,1 0,0.553 0.447,1 1,1 0.553,0 1,-0.447 1,-1"
       style="fill:#5c913b;fill-opacity:1;fill-rule:nonzero;stroke:none"
       id="path50" /></g><path
     style="fill:#c6e5b3;fill-opacity:1;stroke-width:0.02269601;stroke-miterlimit:4;stroke-dasharray:none"
     d=""
     id="path4652"
     inkscape:connector-curvature="0" /><path
     style="fill:#c6e5b3;fill-opacity:1;stroke-width:0.02269601;stroke-miterlimit:4;stroke-dasharray:none"
     d="m 9.5028817,32.622245 c 0.4399343,-0.405714 1.2481113,-0.86183 2.3137563,-1.30583 0.13351,-0.05563 0.247897,-0.09942 0.254192,-0.09732 0.0063,0.0021 -0.04166,0.02564 -0.106569,0.05232 -0.527209,0.216701 -1.170577,0.536809 -1.638649,0.815312 -0.272565,0.162176 -0.8352316,0.549228 -0.8624506,0.593269 -0.00386,0.0062 -0.013093,0.0111 -0.020526,0.01081 -0.00743,-2.95e-4 0.019678,-0.03115 0.060247,-0.06856 z"
     id="path4654"
     inkscape:connector-curvature="0" /><path
     style="fill:#5c913b;fill-opacity:1;stroke-width:0.18156807;stroke-miterlimit:4;stroke-dasharray:none"
     d="M 0.98461397,8.6547344 C 0.69664347,8.5382379 0.32530617,8.0480841 0.25957457,7.6977045 0.18023287,7.2747771 0.45425417,6.7498272 0.86285077,6.5419921 1.0337555,6.4550604 1.591535,6.2154264 2.1023609,6.0094721 4.3840794,5.0895311 6.4977982,3.2330988 7.6891978,1.1026772 8.1273447,0.3191974 8.2922409,0.1867201 8.8911185,0.1370565 c 0.481305,-0.039914 0.509145,-0.029489 0.861041,0.3224073 0.3200965,0.3200963 0.3636545,0.4142285 0.3636545,0.7858812 0,0.6233428 -0.5440145,1.6244391 -1.6154017,2.9726679 C 7.0665886,6.0223288 4.579398,7.7741875 2.3983645,8.5160048 1.7128656,8.7491584 1.3146234,8.7882374 0.98461397,8.6547344 Z"
     id="path4656"
     inkscape:connector-curvature="0" /><path
     style="fill:#5c913b;fill-opacity:1;stroke-width:0.18156807;stroke-miterlimit:4;stroke-dasharray:none"
     d="M 42.672242,8.5561654 C 40.078958,7.65016 37.548457,5.6974746 36.007456,3.4132184 35.415859,2.536284 34.990641,1.680858 34.990641,1.3676599 c 0,-0.60843471 0.610158,-1.20406093 1.233438,-1.20406093 0.453005,0 0.844095,0.34585535 1.358415,1.20129793 1.462823,2.4330403 3.304415,3.9072369 6.347148,5.0808985 0.720956,0.2780917 0.990532,0.6524447 0.930844,1.2926398 -0.03469,0.3720455 -0.0976,0.4994279 -0.369893,0.7489683 C 44.21144,8.7432275 44.097966,8.7870744 43.729937,8.781325 43.492031,8.777605 43.016068,8.6762866 42.672242,8.5561654 Z"
     id="path4658"
     inkscape:connector-curvature="0" /><g
     id="g52"
     transform="matrix(1.25,0,0,-1.25,31.139004,2.6134471)" /><path
     style="fill:#5c913b;fill-opacity:1;stroke-width:0.125;stroke-miterlimit:4;stroke-dasharray:none"
     d="M 8.4284386,14.349769 C 7.2774155,14.101473 6.1782764,13.522417 5.0983067,12.595367 4.1902311,11.81587 3.9660501,11.334817 4.3376782,10.963189 c 0.1838067,-0.183807 0.4033692,-0.182611 1.2157604,0.0066 0.672865,0.156734 2.1136207,0.147296 3.0625,-0.02006 2.0198694,-0.356254 3.9259234,-1.2335871 5.0977914,-2.3464513 0.238402,-0.226399 0.489709,-0.4151106 0.558459,-0.4193593 0.27821,-0.017193 0.383006,0.021909 0.554377,0.2068513 0.167126,0.1803623 0.17657,0.2174868 0.138274,0.5435758 -0.05058,0.4306686 -0.457525,1.6647135 -0.726161,2.2020475 -0.349955,0.699988 -0.850417,1.391282 -1.358951,1.877132 -0.969948,0.926683 -1.988508,1.359578 -3.2950394,1.400415 -0.4931696,0.01542 -0.8891164,-0.0066 -1.15625,-0.06419 z"
     id="path4762"
     inkscape:connector-curvature="0" /><path
     style="fill:#5c913b;fill-opacity:1;stroke-width:0.125;stroke-miterlimit:4;stroke-dasharray:none"
     d="M 34.928439,14.338764 C 33.260941,14.016387 32.035048,13.135113 31.101193,11.587418 30.581268,10.725735 30.0093,9.1138596 30.082365,8.7162306 c 0.04034,-0.2195321 0.254449,-0.4457661 0.439824,-0.4647285 0.321851,-0.032923 0.43583,0.019501 0.802284,0.3690078 1.282101,1.2228067 3.515393,2.1076341 5.867505,2.3246991 0.870182,0.0803 1.857562,0.01501 2.492051,-0.164787 0.185988,-0.0527 0.469655,-0.111913 0.630371,-0.131573 0.255246,-0.03123 0.312248,-0.01571 0.450584,0.122625 0.202485,0.202484 0.260144,0.435707 0.164691,0.66615 -0.115128,0.277945 -1.340377,1.432686 -1.94602,1.834035 -1.119246,0.741705 -2.002793,1.043634 -3.148966,1.076081 -0.4125,0.01168 -0.820313,0.0076 -0.90625,-0.009 z"
     id="path4764"
     inkscape:connector-curvature="0" /><path
     style="fill:#c6e5b3;fill-opacity:1;stroke-width:0.125;stroke-miterlimit:4;stroke-dasharray:none"
     d="M 36.959689,10.876202 C 35.013647,10.65615 33.148614,9.9688815 31.841884,8.9902808 31.359253,8.6288423 31.361213,8.6416865 31.682743,7.9472685 c 0.427368,-0.9229979 1.145463,-1.6645153 2.029304,-2.0954948 0.629121,-0.3067729 1.18438,-0.4297047 1.935142,-0.4284313 1.096835,0.00186 1.870514,0.2919451 2.735977,1.0258322 0.950039,0.8056056 1.380557,1.5684803 1.54709,2.7414353 0.07677,0.5406909 0.02156,1.3426911 -0.100845,1.4650991 -0.197901,0.1979 -1.907721,0.329274 -2.869722,0.220493 z"
     id="path4766"
     inkscape:connector-curvature="0" /><path
     style="fill:#c6e5b3;fill-opacity:1;stroke-width:0.125;stroke-miterlimit:4;stroke-dasharray:none"
     d="M 6.3034386,11.023255 C 5.7156198,10.963196 5.2401871,10.858762 5.1700937,10.774305 5.0394143,10.616846 5.0205953,9.3443349 5.140946,8.8033816 5.2531547,8.2990249 5.507212,7.7149106 5.7985377,7.2914831 6.0672192,6.9009679 7.283123,5.9143429 7.721713,5.7309544 8.9446827,5.2195917 10.439614,5.3287022 11.604,6.0143108 c 0.766038,0.4510553 1.617426,1.4924509 1.868304,2.2852602 0.103354,0.3266139 0.103193,0.3282553 -0.04821,0.4902411 -0.222582,0.2381451 -1.068528,0.7833042 -1.720102,1.1084976 -1.604066,0.8005713 -3.8982067,1.2784453 -5.4005564,1.1249453 z"
     id="path4768"
     inkscape:connector-curvature="0" /></svg>