<?xml version="1.0" encoding="UTF-8" standalone="no"?>
<svg
   viewBox="0 0 36 36"
   version="1.1"
   id="svg3"
   xml:space="preserve"
   xmlns="http://www.w3.org/2000/svg"
   xmlns:svg="http://www.w3.org/2000/svg"><defs
     id="defs3"><clipPath
       id="clipPath16"
       clipPathUnits="userSpaceOnUse"><path
         id="path18"
         d="M 0,36 36,36 36,0 0,0 0,36 Z" /></clipPath><clipPath
       id="clipPath16-3"
       clipPathUnits="userSpaceOnUse"><path
         id="path18-6"
         d="M 0,36 36,36 36,0 0,0 0,36 Z" /></clipPath></defs><path
     style="fill:#77b255;fill-opacity:1"
     d="M 7,3 H 29 V 13 H 7 Z"
     id="path11" /><path
     style="fill:#77b255;fill-opacity:1"
     d="m 7,14 h 22 v 9 H 7 Z"
     id="path10" /><path
     style="fill:#77b255;fill-opacity:1"
     d="m 7,25 h 22 v 9 H 7 Z"
     id="path1" /><path
     fill="#269"
     d="M30 3.178c0 .454-.368.822-.822.822H6.822C6.368 4 6 3.632 6 3.178v-.356C6 2.368 6.368 2 6.822 2h22.355c.455 0 .823.368.823.822v.356zm0 11c0 .454-.368.822-.822.822H6.822C6.368 15 6 14.632 6 14.178v-.355c0-.455.368-.823.822-.823h22.355c.455 0 .823.368.823.822v.356zm0 10c0 .454-.368.822-.822.822H6.822C6.368 25 6 24.632 6 24.178v-.355c0-.455.368-.823.822-.823h22.355c.455 0 .823.368.823.822v.356zm0 11c0 .454-.368.822-.822.822H6.822C6.368 36 6 35.632 6 35.178v-.355c0-.455.368-.823.822-.823h22.355c.455 0 .823.368.823.822v.356z"
     id="path2"
     style="fill:#c6e5b3;fill-opacity:1" /><g
     id="g11"
     transform="translate(-0.31745815)"><circle
       class="st2"
       cx="21.467459"
       cy="21.152037"
       r="0.89999998"
       id="circle6"
       style="fill:#5c913b" /><circle
       class="st2"
       cx="15.167458"
       cy="21.152037"
       r="0.89999998"
       id="circle7"
       style="fill:#5c913b" /></g><path
     fill="#99AAB5"
     d="M26 1.128c0 .481-.391.872-.872.872h-2.256C22.391 2 22 1.609 22 1.128V.872c0-.481.391-.872.872-.872h2.256c.481 0 .872.391.872.872v.256z"
     id="path3" /><g
     id="g3"
     transform="matrix(1.25,0,0,-1.25,-49.670644,43.751516)"><path
       id="path30"
       style="fill:#ffffff;fill-opacity:1;fill-rule:nonzero;stroke:none;stroke-width:0.616781"
       d="m 51.551001,21.972496 c 0,-1.192237 -0.966495,-2.158732 -2.158732,-2.158732 -1.192237,0 -2.158732,0.966495 -2.158732,2.158732 0,1.192237 0.966495,2.158732 2.158732,2.158732 1.192237,0 2.158732,-0.966495 2.158732,-2.158732 m 5.171028,0 c 0,-1.192237 0.966495,-2.158732 2.158732,-2.158732 1.192237,0 2.158732,0.966495 2.158732,2.158732 0,1.192237 -0.966495,2.158732 -2.158732,2.158732 -1.192237,0 -2.158732,-0.966495 -2.158732,-2.158732" /><path
       id="path34"
       style="fill:#292f33;fill-opacity:1;fill-rule:nonzero;stroke:none;stroke-width:0.616781"
       d="m 50.31744,21.972496 c 0,-0.511311 -0.41386,-0.925171 -0.925171,-0.925171 -0.511311,0 -0.925171,0.41386 -0.925171,0.925171 0,0.511311 0.41386,0.925171 0.925171,0.925171 0.511311,0 0.925171,-0.41386 0.925171,-0.925171 m 7.63815,0 c 0,-0.511311 0.41386,-0.925171 0.925171,-0.925171 0.511311,0 0.925171,0.41386 0.925171,0.925171 0,0.511311 -0.41386,0.925171 -0.925171,0.925171 -0.511311,0 -0.925171,-0.41386 -0.925171,-0.925171" /></g><style
     type="text/css"
     id="style1">&#10;	.st0{fill:#77B255;}&#10;	.st1{fill:#C6E5B3;}&#10;	.st2{fill:#5C913B;}&#10;	.st3{fill:#3D6028;}&#10;	.st4{fill:#99AAB5;}&#10;	.st5{fill:#292F33;}&#10;	.st6{fill:#FFFFFF;}&#10;	.st7{fill:none;}&#10;</style><style
     type="text/css"
     id="style1-9">&#10;	.st0{fill:#F4900C;}&#10;	.st1{fill:#FFAC33;}&#10;	.st2{fill:#FFCC4D;}&#10;	.st3{fill:#5C913B;}&#10;	.st4{fill:#77B255;}&#10;	.st5{fill:#C6E5B3;}&#10;	.st6{fill:#FFFFFF;}&#10;	.st7{fill:#292F33;}&#10;	.st8{fill:none;}&#10;</style><path
     class="st5"
     d="m 28.998273,30.795346 v 3.340266 H 6.992872 V 30.86215 c 3.143629,0 5.815713,-1.736937 11.002701,-1.736937 5.186988,0 7.859072,1.670133 11.0027,1.670133 z"
     id="path7"
     style="fill:#c6e5b3;stroke-width:0.724588" /></svg>
