<?xml version="1.0" encoding="UTF-8" standalone="no"?>
<!-- Generator: Adobe Illustrator 25.0.0, SVG Export Plug-In . SVG Version: 6.00 Build 0)  -->

<svg
   version="1.1"
   id="Ebene_1"
   x="0px"
   y="0px"
   viewBox="0 0 45 45"
   style="enable-background:new 0 0 45 45;"
   xml:space="preserve"
   sodipodi:docname="frogpray.svg"
   inkscape:version="1.1.1 (3bf5ae0d25, 2021-09-20, custom)"
   xmlns:inkscape="http://www.inkscape.org/namespaces/inkscape"
   xmlns:sodipodi="http://sodipodi.sourceforge.net/DTD/sodipodi-0.dtd"
   xmlns="http://www.w3.org/2000/svg"
   xmlns:svg="http://www.w3.org/2000/svg"><defs
   id="defs46" /><sodipodi:namedview
   id="namedview44"
   pagecolor="#505050"
   bordercolor="#ffffff"
   borderopacity="1"
   inkscape:pageshadow="0"
   inkscape:pageopacity="0"
   inkscape:pagecheckerboard="1"
   showgrid="false"
   inkscape:zoom="9.9"
   inkscape:cx="12.878788"
   inkscape:cy="23.282828"
   inkscape:window-width="1920"
   inkscape:window-height="1026"
   inkscape:window-x="1920"
   inkscape:window-y="54"
   inkscape:window-maximized="1"
   inkscape:current-layer="g41" />
<style
   type="text/css"
   id="style2">
	.st0{fill:#C6E5B3;}
	.st1{fill:#77B255;}
	.st2{fill:#FFFFFF;}
	.st3{fill:#292F33;}
	.st4{fill:#5C913B;}
	.st5{fill:#5C913B;stroke:#3F6328;stroke-width:1.3;stroke-linecap:round;stroke-linejoin:round;}
	.st6{fill:#50A5E6;}
	.st7{fill:#1C6399;}
</style>
<g
   id="g41">
	<g
   id="g900"
   transform="translate(30.47986,24.94962)"><path
     id="path22-3"
     style="fill:#c6e5b3;fill-opacity:1;fill-rule:nonzero;stroke:none;stroke-width:1.25"
     d="m 14.520265,0.05063 c 0,9.32 -10.07375,15 -22.5,15 -12.42625,0 -22.5,-5.68 -22.5,-15 h 45"
     sodipodi:nodetypes="cscc" /><path
     id="path26-6"
     style="fill:#77b255;fill-opacity:1;fill-rule:nonzero;stroke:none;stroke-width:1.25"
     d="m 9.21389,-11.60462 c 1.71,-1.375 2.80625,-3.48125 2.80625,-5.845 0,-4.14125 -3.3575,-7.5 -7.5,-7.5 -3.57625,0 -6.5625,2.50625 -7.3125,5.85625 -1.61125,-0.60375 -3.355,-0.9475 -5.1875,-0.9475 -1.83125,0 -3.57625,0.34375 -5.18625,0.9475 -0.75125,-3.35 -3.7375,-5.85625 -7.31375,-5.85625 -4.14125,0 -7.5,3.35875 -7.5,7.5 0,2.36375 1.0975,4.47 2.80625,5.845 -3.30625,3.35 -5.30625,7.51125 -5.30625,11.655 0,9.32 10.07375,1.25 22.5,1.25 12.4275,0 22.5,8.07 22.5,-1.25 0,-4.14375 -1.99875,-8.305 -5.30625,-11.655" /><path
     id="path30-7"
     style="fill:#ffffff;fill-opacity:1;fill-rule:nonzero;stroke:none;stroke-width:1.25"
     d="m -16.729735,-18.07437 c 0,2.41625 -1.95875,4.375 -4.375,4.375 -2.41625,0 -4.375,-1.95875 -4.375,-4.375 0,-2.41625 1.95875,-4.375 4.375,-4.375 2.41625,0 4.375,1.95875 4.375,4.375" /><path
     id="path34-5"
     style="fill:#292f33;fill-opacity:1;fill-rule:nonzero;stroke:none;stroke-width:1.25"
     d="m -19.229735,-18.07437 c 0,1.03625 -0.83875,1.875 -1.875,1.875 -1.03625,0 -1.875,-0.83875 -1.875,-1.875 0,-1.03625 0.83875,-1.875 1.875,-1.875 1.03625,0 1.875,0.83875 1.875,1.875" /><path
     id="path38-3"
     style="fill:#ffffff;fill-opacity:1;fill-rule:nonzero;stroke:none;stroke-width:1.25"
     d="m 9.520265,-18.07437 c 0,2.41625 -1.9575,4.375 -4.375,4.375 -2.4175,0 -4.375,-1.95875 -4.375,-4.375 0,-2.41625 1.9575,-4.375 4.375,-4.375 2.4175,0 4.375,1.95875 4.375,4.375" /><path
     id="path42-5"
     style="fill:#292f33;fill-opacity:1;fill-rule:nonzero;stroke:none;stroke-width:1.25"
     d="m 7.020265,-18.07437 c 0,1.03625 -0.84,1.875 -1.875,1.875 -1.035,0 -1.875,-0.83875 -1.875,-1.875 0,-1.03625 0.84,-1.875 1.875,-1.875 1.035,0 1.875,0.83875 1.875,1.875" /><path
     id="path46-6"
     style="fill:#5c913b;fill-opacity:1;fill-rule:nonzero;stroke:none;stroke-width:1.25"
     d="m -11.729735,-2.44937 c 0,0.69125 -0.56,1.25 -1.25,1.25 -0.69,0 -1.25,-0.55875 -1.25,-1.25 0,-0.69125 0.56,-1.25 1.25,-1.25 0.69,0 1.25,0.55875 1.25,1.25" /><path
     id="path50-2"
     style="fill:#5c913b;fill-opacity:1;fill-rule:nonzero;stroke:none;stroke-width:1.25"
     d="m -1.729735,-2.44937 c 0,0.69125 -0.55875,1.25 -1.25,1.25 -0.69125,0 -1.25,-0.55875 -1.25,-1.25 0,-0.69125 0.55875,-1.25 1.25,-1.25 0.69125,0 1.25,0.55875 1.25,1.25" /></g>
	<g
   id="g39">
		<path
   class="st5"
   d="m 32.5,33.9 c -2.1,1.6 -4.2,5.5 -4.9,8 l -0.7,-0.6 c -2.2,-0.4 -4,-2.1 -4.5,-4.3 v -0.1 0 0.1 c -0.5,2.2 -2.3,3.9 -4.5,4.3 l -0.8,0.6 c -0.7,-2.5 -2.8,-6.4 -4.9,-8 1.1,-0.9 2.1,-1.8 3,-2.8 0,-2.1 0.4,-4.3 1.3,-6.2 0.7,-3.4 1.2,-9.4 1.2,-9.4 0,-0.4 0.1,-0.9 0.4,-1.2 0,-0.5 0,-0.9 0,-1 0,-1.2 0.9,-2.1 2.1,-2.1 0.1,0 0.1,0 0.2,0 1,0.1 1.8,1 1.9,2 0,0 0,0.1 0,0.1 v -0.1 c 0,-1.2 1,-2.1 2.2,-2.1 1.2,0 2.1,1 2.1,2.2 0,0.1 0,0.5 0,1 0.3,0.4 0.4,0.8 0.4,1.2 0,0 0.5,5.9 1.2,9.4 0.9,2 1.3,4.1 1.3,6.2 0.8,1 1.9,1.9 3,2.8 z"
   id="path14" />
		<g
   id="g25">
			<path
   class="st6"
   d="m 10.4,33.1 c 3,0 6.7,7.1 7,10 0.4,3.9 -2,4 -2,4 h -11 l -6.5,-2.4 6.6,-7.6 c -0.1,0 3.3,-4 5.9,-4 z"
   id="path16" />
			<ellipse
   transform="matrix(0.866,-0.5,0.5,0.866,-18.0823,11.7052)"
   class="st7"
   cx="12.8"
   cy="39.599998"
   rx="1.6"
   ry="5.8000002"
   id="ellipse18" />
			<path
   class="st4"
   d="m 20.4,11.1 c -1.2,-0.1 -2.2,0.7 -2.3,1.9 0,0.1 0,0.1 0,0.2 0,0.8 -0.2,10.3 -0.2,10.3 l 4.4,5.6 0.1,-15.8 c 0,-1.1 -0.9,-2 -2,-2.2 z"
   id="path20" />
			<path
   class="st1"
   d="m 21.5,15.4 c 0.1,-1.1 -0.7,-2 -1.8,-2 -1.1,-0.1 -2,0.7 -2,1.8 0,0.1 0,0.2 0,0.3 0,0 -0.5,6 -1.2,9.4 -0.9,2 -1.3,4.1 -1.3,6.2 -0.1,0.4 -5.6,5 -5.6,5 0.8,3.1 2.4,6 4.8,8.2 l 3.5,-2.9 c 2.2,-0.4 4,-2.1 4.5,-4.3 0,-3.1 -0.9,-21.7 -0.9,-21.7 z"
   id="path23" />
		</g>
		<g
   id="g35">
			<path
   class="st6"
   d="m 34.4,33.1 c -3,0 -6.7,7.1 -7,10 -0.4,3.9 2,4 2,4 h 11 l 6.8,-2.9 -6.8,-7.1 c 0,0 -3.5,-4 -6,-4 z"
   id="path27" />
			<ellipse
   transform="matrix(0.5,-0.866,0.866,0.5,-18.3151,47.4665)"
   class="st7"
   cx="31.9"
   cy="39.599998"
   rx="5.8000002"
   ry="1.6"
   id="ellipse29" />
			<path
   class="st4"
   d="m 24.5,11.1 c 1.2,0 2.1,1 2.1,2.1 0,0.8 0.7,10.8 0.7,10.8 l -4.9,5 V 13.2 c -0.1,-1.1 0.9,-2.1 2.1,-2.1 0,0 0,0 0,0 z"
   id="path31" />
			<path
   class="st1"
   d="m 23.3,15.4 c 0,-1 0.8,-1.9 1.9,-1.9 1,0 1.9,0.8 1.9,1.9 0,0 0,0 0,0 0,0 0.5,6 1.2,9.4 0.9,2 1.3,4.1 1.3,6.2 0,0.4 5.6,5 5.6,5 -0.8,3.1 -2.4,6 -4.8,8.2 l -3.6,-2.9 c -2.2,-0.4 -3.9,-2.1 -4.4,-4.3 0,-3 0.9,-21.6 0.9,-21.6 z"
   id="path33" />
		</g>
		<path
   class="st4"
   d="m 22.3,36.9 c -0.4,0 -0.8,-0.3 -0.8,-0.8 V 13.9 c 0,-0.4 0.3,-0.8 0.8,-0.8 0.5,0 0.8,0.3 0.8,0.8 v 22.3 c 0,0.4 -0.3,0.7 -0.8,0.7 0,0 0,0 0,0 z"
   id="path37" />
	</g>
</g>
</svg>
