<?xml version="1.0" encoding="utf-8"?>
<!-- Generator: Adobe Illustrator 25.0.0, SVG Export Plug-In . SVG Version: 6.00 Build 0)  -->
<svg version="1.1" id="Ebene_1" xmlns="http://www.w3.org/2000/svg" xmlns:xlink="http://www.w3.org/1999/xlink" x="0px" y="0px"
	 viewBox="0 0 36 36" style="enable-background:new 0 0 36 36;" xml:space="preserve">
<style type="text/css">
	.st0{fill:#77B255;}
	.st1{fill:#67994D;}
	.st2{fill:#5C913B;}
	.st3{fill:#5DADEC;}
	.st4{fill:none;}
</style>
<g id="Ebene_2_1_">
	<g id="Ebene_1-2">
		<path class="st0" d="M3,26h8v10H3V26z M25,26h8v10h-8V26z"/>
		<path class="st1" d="M33,28.7c0,0-3,2-8,1v-5h8V28.7z M3,28.7c0,0,3,2,8,1v-5H3V28.7z"/>
		<path class="st2" d="M4,18.6h8v8H4V18.6z M24,18.1h8v8h-8V18.1z"/>
		<path class="st0" d="M0.4,11.8c0-0.7,0.5-1.2,1.2-1.2c0,0,0,0,0,0c0.7,0,1.2,0.5,1.2,1.2c0,0,0,0,0,0.1v5.7
			c0.2-0.1,0.4-0.2,0.6-0.2V9.4c0-0.7,0.5-1.2,1.2-1.2c0,0,0,0,0.1,0c0.7,0,1.2,0.5,1.2,1.2c0,0,0,0,0,0.1v7.4h0.6V8.2
			C6.5,7.5,7,7,7.7,7S9,7.5,9,8.2v8.6l0.6,0v-8c0-0.7,0.5-1.2,1.2-1.2c0.7,0,1.2,0.5,1.2,1.2c0,0,0,0,0,0v8.5v1.3
			c-3.4,0-6.1,2.7-6.1,6.1c0,0.3,0.3,0.6,0.6,0.6c0,0,0,0,0,0c-0.2-3.2,2.3-5.9,5.4-6.1c0.2,0,0.5,0,0.7,0l1.7-4.2
			c0.2-0.6,0.9-1,1.6-0.8s1,0.9,0.8,1.6l-0.9,3.1c-0.4,1.2-0.6,2.5-0.8,3.8c-0.6,4-4.3,6.8-8.3,6.2c-3.6-0.5-6.2-3.6-6.3-7.2
			c0-0.2,0-0.4,0-0.6l0,0L0.4,11.8z M35.6,11.8c0-0.7-0.5-1.2-1.2-1.2c0,0,0,0,0,0c-0.7,0-1.2,0.5-1.2,1.2c0,0,0,0,0,0.1v5.7
			c-0.2-0.1-0.4-0.2-0.6-0.2V9.4c-0.1-0.7-0.7-1.2-1.3-1.1c-0.6,0.1-1.1,0.5-1.1,1.1v7.4h-0.6V8.2c0-0.7-0.5-1.2-1.2-1.2
			C27.6,7,27,7.5,27,8.2v8.6l-0.6,0v-8c0-0.7-0.5-1.2-1.2-1.2c-0.7,0-1.2,0.5-1.2,1.2v8.5v1.2c3.4,0,6.1,2.7,6.1,6.1
			c0,0.3-0.3,0.6-0.6,0.6c0,0,0,0,0,0c0.2-3.2-2.3-5.9-5.4-6.1c-0.2,0-0.5,0-0.7,0L21.6,15c-0.3-0.6-1-0.9-1.6-0.6
			c-0.5,0.2-0.8,0.8-0.7,1.4l0.9,3.1c0.4,1.2,0.6,2.5,0.8,3.8c0.6,4,4.3,6.8,8.3,6.2c3.6-0.5,6.2-3.6,6.3-7.2c0-0.2,0-0.4,0-0.6l0,0
			V11.8z"/>
		<path class="st3" d="M23.5,6.5c-0.6,0-1-0.5-1-1c0-0.2,0.1-0.4,0.2-0.6l3-3.9c0.4-0.4,1-0.5,1.4-0.1c0.4,0.3,0.5,0.9,0.2,1.3
			l-3,3.9C24.1,6.3,23.8,6.5,23.5,6.5z M12.5,6.5c-0.3,0-0.6-0.1-0.8-0.4l-3-3.9c-0.4-0.4-0.4-1,0-1.4c0.4-0.4,1-0.4,1.4,0
			c0,0,0.1,0.1,0.1,0.2l3,3.9c0.3,0.4,0.3,1.1-0.2,1.4C13,6.4,12.8,6.5,12.5,6.5L12.5,6.5z M18,6c-0.6,0-1-0.4-1-1V1
			c0-0.6,0.4-1,1-1s1,0.4,1,1v4C19,5.6,18.6,6,18,6z"/>
		<rect y="0" class="st4" width="36" height="36"/>
	</g>
</g>
</svg>
