<?xml version="1.0" encoding="utf-8"?>
<!-- Generator: Adobe Illustrator 25.0.0, SVG Export Plug-In . SVG Version: 6.00 Build 0)  -->
<svg version="1.1" id="Ebene_1" xmlns="http://www.w3.org/2000/svg" xmlns:xlink="http://www.w3.org/1999/xlink" x="0px" y="0px"
	 viewBox="0 0 36 36" style="enable-background:new 0 0 36 36;" xml:space="preserve">
<style type="text/css">
	.st0{fill:#292F33;}
	.st1{fill:#C6E5B3;}
	.st2{fill:#77B255;}
	.st3{fill:#BBDDF5;}
	.st4{fill:#5C913B;}
	.st5{fill:#FFFFFF;}
	.st6{fill:none;}
</style>
<g id="Ebene_2_1_">
	<g id="Ebene_1-2">
		<path class="st0" d="M34,33c0,1.1-0.9,2-2,2h-3c-1.1,0-2-0.9-2-2v-8c0-1.1,0.9-2,2-2h3c1.1,0,2,0.9,2,2V33z M9,33c0,1.1-0.9,2-2,2
			H4c-1.1,0-2-0.9-2-2v-8c0-1.1,0.9-2,2-2h3c1.1,0,2,0.9,2,2V33z"/>
		<path class="st1" d="M33.8,28.8c-0.6,1.7-2.1,2.9-3.8,3.2c-4,1-7,1-12,1s-8,0-12-1c-1.7-0.3-3.2-1.5-3.8-3.2
			c1.6,3.2,8.1-1.2,15.8-1.2S32.2,32,33.8,28.8z"/>
		<path class="st2" d="M34,20v8c0,0.3-0.1,0.5-0.2,0.8l0,0c-1.7,3.2-8.1-1.2-15.8-1.2S3.8,32,2.2,28.8l0,0C2.1,28.6,2,28.3,2,28v-8
			c0,0,0-3.9,1.9-4H4c0.2-1.9,0.7-3.9,1.2-5.7C6,7.8,7.2,5.4,9,5c4-1,14-1,18,0c1.8,0.4,3,2.8,3.8,5.3c0.6,1.9,1,3.8,1.2,5.7h0.1
			C32.4,16,34,16.4,34,20z"/>
		<path class="st3" d="M18,15c3.9,0,8.6,0.2,12,0.6L29,10c-1-3-7-3-11-3S8,7,7,10l-1,5.6C9.4,15.2,14.1,15,18,15z"/>
		<path class="st2" d="M5,15.5C5,16.3,4.3,17,3.5,17h-2C0.7,17,0,16.3,0,15.5C0,14.7,0.7,14,1.5,14h2C4.3,14,5,14.7,5,15.5z
			 M31,15.5c0,0.8,0.7,1.5,1.5,1.5h2c0.8,0,1.5-0.7,1.5-1.5c0-0.8-0.7-1.5-1.5-1.5h-2C31.7,14,31,14.7,31,15.5z"/>
		<path class="st4" d="M12,22c-0.3,0-0.6-0.2-0.8-0.5C9.4,18.9,4.8,18,4.8,18c-0.6-0.1-0.9-0.6-0.8-1.2c0.1-0.6,0.6-0.9,1.2-0.8
			c0.2,0,5.4,1.1,7.6,4.4c0.3,0.5,0.2,1.1-0.3,1.4C12.4,21.9,12.2,22,12,22z M24,22c-0.2,0-0.4-0.1-0.6-0.2
			c-0.5-0.3-0.6-0.9-0.3-1.4c0,0,0,0,0,0c2.2-3.3,7.4-4.4,7.6-4.4c0.6-0.1,1.1,0.2,1.2,0.8c0.1,0.6-0.2,1.1-0.8,1.2
			c0,0-4.6,1-6.4,3.6C24.6,21.9,24.3,22,24,22z"/>
		<circle class="st5" cx="7.5" cy="23" r="3"/>
		<circle class="st0" cx="7.5" cy="23" r="1.3"/>
		<circle class="st5" cx="28.5" cy="23" r="3"/>
		<circle class="st0" cx="28.5" cy="23" r="1.3"/>
		<circle class="st4" cx="13.4" cy="26.4" r="0.9"/>
		<circle class="st4" cx="22.7" cy="26.4" r="0.9"/>
		<rect y="0" class="st6" width="36" height="36"/>
	</g>
</g>
</svg>
