<?xml version="1.0" encoding="UTF-8" standalone="no"?>
<svg
   viewBox="0 0 45 45"
   style="enable-background:new 0 0 45 45;"
   xml:space="preserve"
   version="1.1"
   id="svg2"
   sodipodi:docname="U1f9d1-200d-1f692-frogFirefighter.svg"
   inkscape:version="1.2 (dc2aedaf03, 2022-05-15)"
   xmlns:inkscape="http://www.inkscape.org/namespaces/inkscape"
   xmlns:sodipodi="http://sodipodi.sourceforge.net/DTD/sodipodi-0.dtd"
   xmlns="http://www.w3.org/2000/svg"
   xmlns:svg="http://www.w3.org/2000/svg"
   xmlns:rdf="http://www.w3.org/1999/02/22-rdf-syntax-ns#"
   xmlns:cc="http://creativecommons.org/ns#"
   xmlns:dc="http://purl.org/dc/elements/1.1/"><sodipodi:namedview
     id="namedview46795"
     pagecolor="#505050"
     bordercolor="#ffffff"
     borderopacity="1"
     inkscape:pageshadow="0"
     inkscape:pageopacity="0"
     inkscape:pagecheckerboard="1"
     showgrid="false"
     inkscape:zoom="14.000714"
     inkscape:cx="28.248559"
     inkscape:cy="28.462834"
     inkscape:window-width="1920"
     inkscape:window-height="1026"
     inkscape:window-x="0"
     inkscape:window-y="54"
     inkscape:window-maximized="1"
     inkscape:current-layer="g10"
     inkscape:showpageshadow="0"
     inkscape:deskcolor="#505050" /><metadata
     id="metadata8"><rdf:RDF><cc:Work
         rdf:about=""><dc:format>image/svg+xml</dc:format><dc:type
           rdf:resource="http://purl.org/dc/dcmitype/StillImage" /></cc:Work></rdf:RDF></metadata><defs
     id="defs6"><clipPath
       id="clipPath16"
       clipPathUnits="userSpaceOnUse"><path
         id="path18"
         d="M 0,36 36,36 36,0 0,0 0,36 Z" /></clipPath></defs><g
     transform="matrix(1.25,0,0,-1.25,0,45)"
     id="g10"><path
       fill="#a0041e"
       d="m 33.111488,20.059133 c 0,-3.8752 -6.764496,-7.016378 -15.108958,-7.016378 -8.3444632,0 -15.1089587,3.141178 -15.1089587,7.016378 0,3.875198 6.7644955,2.698606 15.1089587,2.698606 8.344462,0 15.108958,1.176592 15.108958,-2.698606 z"
       id="path20486"
       style="stroke-width:0.800003" /><g
       id="g49206"
       transform="matrix(1.3493032,0,0,1.3493031,-6.2872624,-7.4355401)"
       style="stroke-width:0.741123"><path
         id="path22"
         style="fill:#c6e5b3;fill-opacity:1;fill-rule:nonzero;stroke:none;stroke-width:0.741123"
         d="M 28.027343,13.08491 C 28.027343,8.9313527 23.537869,6.4 17.999978,6.4 12.462087,6.4 7.9726125,8.9313527 7.9726125,13.08491 H 28.027343"
         sodipodi:nodetypes="cscc" /><path
         id="path26"
         style="fill:#77b255;fill-opacity:1;fill-rule:nonzero;stroke:none;stroke-width:0.741123"
         d="m 25.6625,18.279197 c 0.76208,0.612783 1.250636,1.551456 1.250636,2.604887 0,1.845592 -1.496306,3.342455 -3.342455,3.342455 -1.593794,0 -2.924649,-1.116937 -3.258894,-2.609901 -0.718071,0.269068 -1.495192,0.422264 -2.311865,0.422264 -0.816116,0 -1.593794,-0.153196 -2.311308,-0.422264 -0.334802,1.492964 -1.665656,2.609901 -3.25945,2.609901 -1.845593,0 -3.3424555,-1.496863 -3.3424555,-3.342455 0,-1.053431 0.4891126,-1.992104 1.2506355,-2.604887 -1.4734658,-1.492963 -2.3647872,-3.347469 -2.3647872,-5.194175 0,-4.1535579 4.4894742,-0.557076 10.0273652,-0.557076 5.538448,0 10.027365,-3.5964819 10.027365,0.557076 0,1.846706 -0.890764,3.701212 -2.364787,5.194175" /><path
         id="path30"
         style="fill:#ffffff;fill-opacity:1;fill-rule:nonzero;stroke:none;stroke-width:0.741123"
         d="m 14.100447,21.16251 c 0,-1.076828 -0.872938,-1.949765 -1.949766,-1.949765 -1.076827,0 -1.949765,0.872937 -1.949765,1.949765 0,1.076828 0.872938,1.949766 1.949765,1.949766 1.076828,0 1.949766,-0.872938 1.949766,-1.949766" /><path
         id="path34"
         style="fill:#292f33;fill-opacity:1;fill-rule:nonzero;stroke:none;stroke-width:0.741123"
         d="m 12.986295,21.16251 c 0,-0.461816 -0.373798,-0.835614 -0.835614,-0.835614 -0.461816,0 -0.835613,0.373798 -0.835613,0.835614 0,0.461816 0.373797,0.835614 0.835613,0.835614 0.461816,0 0.835614,-0.373798 0.835614,-0.835614" /><path
         id="path38"
         style="fill:#ffffff;fill-opacity:1;fill-rule:nonzero;stroke:none;stroke-width:0.741123"
         d="m 25.79904,21.16251 c 0,-1.076828 -0.872381,-1.949765 -1.949766,-1.949765 -1.077384,0 -1.949765,0.872937 -1.949765,1.949765 0,1.076828 0.872381,1.949766 1.949765,1.949766 1.077385,0 1.949766,-0.872938 1.949766,-1.949766" /><path
         id="path42"
         style="fill:#292f33;fill-opacity:1;fill-rule:nonzero;stroke:none;stroke-width:0.741123"
         d="m 24.684888,21.16251 c 0,-0.461816 -0.374355,-0.835614 -0.835614,-0.835614 -0.461259,0 -0.835614,0.373798 -0.835614,0.835614 0,0.461816 0.374355,0.835614 0.835614,0.835614 0.461259,0 0.835614,-0.373798 0.835614,-0.835614" /><path
         id="path46"
         style="fill:#5c913b;fill-opacity:1;fill-rule:nonzero;stroke:none;stroke-width:0.741123"
         d="m 16.32875,14.199062 c 0,-0.308063 -0.24957,-0.557076 -0.557076,-0.557076 -0.307505,0 -0.557075,0.249013 -0.557075,0.557076 0,0.308063 0.24957,0.557076 0.557075,0.557076 0.307506,0 0.557076,-0.249013 0.557076,-0.557076" /><path
         id="path50"
         style="fill:#5c913b;fill-opacity:1;fill-rule:nonzero;stroke:none;stroke-width:0.741123"
         d="m 20.785357,14.199062 c 0,-0.308063 -0.249013,-0.557076 -0.557076,-0.557076 -0.308063,0 -0.557076,0.249013 -0.557076,0.557076 0,0.308063 0.249013,0.557076 0.557076,0.557076 0.308063,0 0.557076,-0.249013 0.557076,-0.557076" /></g><path
       fill="#df1f32"
       d="m 29.715211,23.080492 c -0.928123,0.186744 -1.179579,4.347994 -3.328287,7.403897 C 24.363402,33.358944 20.489034,34.8 17.999292,34.8 15.509553,34.8 11.635184,33.358944 9.6127408,30.484389 7.4629518,27.428486 7.2125748,23.267236 6.2844535,23.080492 2.7047093,22.362663 2.873066,20.504942 2.8957302,20.077483 c 0.1327446,0.50302 0.4726947,1.703361 4.2110831,1.770286 3.6736347,0.06477 7.1012097,-0.870031 10.8935577,-0.870031 3.792349,0 7.219925,0.934798 10.893559,0.870031 3.738388,-0.06585 4.07726,-1.266186 4.211083,-1.770286 0.02159,0.427459 0.189941,2.28518 -3.389802,3.003009 z"
       id="path20506"
       style="stroke-width:0.800003" /><path
       fill="#ea596e"
       d="m 18.00253,34.8 c -2.259868,0 -5.396056,-3.878437 -5.396056,-5.455503 v -4.259481 c 0,0 0.117631,-1.079442 0.992874,-1.079442 h 8.806364 c 0.87524,0 0.992874,1.079442 0.992874,1.079442 v 4.259481 c 0,1.577066 -3.136187,5.455503 -5.396056,5.455503 z"
       id="path20508"
       style="stroke-width:0.800003" /></g></svg>
