<?xml version="1.0" encoding="utf-8"?>
<!-- Generator: Adobe Illustrator 25.0.0, SVG Export Plug-In . SVG Version: 6.00 Build 0)  -->
<svg version="1.1" id="Ebene_1" xmlns="http://www.w3.org/2000/svg" xmlns:xlink="http://www.w3.org/1999/xlink" x="0px" y="0px"
	 viewBox="0 0 1960.7 1960.7" style="enable-background:new 0 0 1960.7 1960.7;" xml:space="preserve">
<style type="text/css">
	.st0{fill:#5C913B;}
	.st1{fill:#77B255;}
	.st2{fill:#C6E5B3;}
	.st3{fill:#FFFFFF;}
	.st4{fill:#292F33;}
	.st5{fill:none;}
</style>
<g id="Ebene_2_1_">
	<g id="Ebene_1-2">
		<path class="st0" d="M1518.8,1677.4c48.3-43.4,77.8-47,83.9-30.2s46.8,70.8,41.5,82.2s-70.3,68-92.8,71.3s-65.6-30.9-92.5-33.1
			C1458.9,1767.7,1470.5,1720.8,1518.8,1677.4z"/>
		<path class="st1" d="M60.3,422.9C174.4,180.5,376.5,91.2,431.2,64.4c72.5-35.6,707.2,50.6,1053.6,262.4
			c539.5,329.9,500.6,860.9,446.1,1028.8c-40.2,123.9-133,254.5-245.3,299.2c-85.1,33.9-158.8,91.8-248.6,167.3
			c-134.4,112.9-507.9,115.6-760.4-32.2C-80.4,1346.9-53.8,665.4,60.3,422.9z"/>
		<path class="st2" d="M327.3,1381.5c-279.4-346.6-277-741.9-197.9-854.9c12.6-18,49-9.1,49.1,34.2c0.5,326,308,315.8,577,581.1
			c253.4,220.3,180.5,524.3,575.5,544.7c134.6,14.3-83.3,215.3-375,133C833.2,1784.7,606.7,1728.1,327.3,1381.5z"/>
		<circle class="st3" cx="874.7" cy="432.6" r="133.3"/>
		<circle class="st4" cx="874.7" cy="432.6" r="56.2"/>
		<circle class="st3" cx="1445.8" cy="992.4" r="133.3"/>
		<circle class="st4" cx="1445.8" cy="992.4" r="56.2"/>
		<circle class="st0" cx="936" cy="1159" r="37.6"/>
		<circle class="st0" cx="717.9" cy="945.6" r="37.6"/>
		<path class="st0" d="M1593.6,1586.9c-13.6-78-89.6-116.2-105.1-253.9c-21.1-188.6,120.6-706.7,120.6-706.7
			s223.3,185.4,229.6,666.3c2.4,180.4-153.9,395.3-274.7,434C1564,1726.6,1606.3,1659.4,1593.6,1586.9z"/>
		<rect y="0" class="st5" width="1960.7" height="1960.7"/>
	</g>
</g>
</svg>
