<?xml version="1.0" encoding="UTF-8" standalone="no"?>
<svg
   viewBox="0 0 45 45"
   style="enable-background:new 0 0 45 45;"
   xml:space="preserve"
   version="1.1"
   id="svg2"
   xmlns="http://www.w3.org/2000/svg"
   xmlns:svg="http://www.w3.org/2000/svg"
   xmlns:rdf="http://www.w3.org/1999/02/22-rdf-syntax-ns#"
   xmlns:cc="http://creativecommons.org/ns#"
   xmlns:dc="http://purl.org/dc/elements/1.1/"><metadata
     id="metadata8"><rdf:RDF><cc:Work
         rdf:about=""><dc:format>image/svg+xml</dc:format><dc:type
           rdf:resource="http://purl.org/dc/dcmitype/StillImage" /></cc:Work></rdf:RDF></metadata><defs
     id="defs6"><clipPath
       id="clipPath16"
       clipPathUnits="userSpaceOnUse"><path
         id="path18"
         d="M 0,36 36,36 36,0 0,0 0,36 Z" /></clipPath><clipPath
       id="clipPath16-6"
       clipPathUnits="userSpaceOnUse"><path
         id="path18-2"
         d="M 0,36 36,36 36,0 0,0 0,36 Z" /></clipPath></defs><g
     transform="matrix(1.25,0,0,-1.25,0,45)"
     id="g10"><path
       id="path22"
       style="fill:#d76969;fill-opacity:1;fill-rule:nonzero;stroke:none"
       d="M 36,14 C 36,6.544 27.941,2 18,2 8.059,2 0,6.544 0,14 h 36" /><path
       id="path26"
       style="fill:#da2f47;fill-opacity:1;fill-rule:nonzero;stroke:none"
       d="m 31.7549,23.3242 c 1.368,1.1 2.245,2.785 2.245,4.676 0,3.313 -2.686,6 -6,6 -2.861,0 -5.25,-2.005 -5.85,-4.685 -1.289,0.483 -2.684,0.758 -4.15,0.758 -1.465,0 -2.861,-0.275 -4.149,-0.758 -0.601,2.68 -2.99,4.685 -5.851,4.685 -3.313,0 -6,-2.687 -6,-6 0,-1.891 0.878,-3.576 2.245,-4.676 -2.645,-2.68 -4.245,-6.009 -4.245,-9.324 0,-7.456 8.059,-1 18,-1 9.942,0 18,-6.456 18,1 0,3.315 -1.599,6.644 -4.245,9.324" /><path
       id="path30"
       style="fill:#ffffff;fill-opacity:1;fill-rule:nonzero;stroke:none"
       d="M 11,28.5 C 11,26.567 9.433,25 7.5,25 5.567,25 4,26.567 4,28.5 4,30.433 5.567,32 7.5,32 9.433,32 11,30.433 11,28.5" /><path
       id="path34"
       style="fill:#292f33;fill-opacity:1;fill-rule:nonzero;stroke:none"
       d="M 9,28.5 C 9,27.671 8.329,27 7.5,27 6.671,27 6,27.671 6,28.5 6,29.329 6.671,30 7.5,30 8.329,30 9,29.329 9,28.5" /><path
       id="path38"
       style="fill:#ffffff;fill-opacity:1;fill-rule:nonzero;stroke:none"
       d="M 32,28.5 C 32,26.567 30.434,25 28.5,25 26.566,25 25,26.567 25,28.5 c 0,1.933 1.566,3.5 3.5,3.5 1.934,0 3.5,-1.567 3.5,-3.5" /><path
       id="path42"
       style="fill:#292f33;fill-opacity:1;fill-rule:nonzero;stroke:none"
       d="M 30,28.5 C 30,27.671 29.328,27 28.5,27 27.672,27 27,27.671 27,28.5 c 0,0.829 0.672,1.5 1.5,1.5 0.828,0 1.5,-0.671 1.5,-1.5" /><path
       id="path46"
       style="fill:#aa0000;fill-opacity:1;fill-rule:nonzero;stroke:none"
       d="m 15,16 c 0,-0.553 -0.448,-1 -1,-1 -0.552,0 -1,0.447 -1,1 0,0.553 0.448,1 1,1 0.552,0 1,-0.447 1,-1" /><path
       id="path50"
       style="fill:#aa0000;fill-opacity:1;fill-rule:nonzero;stroke:none"
       d="m 23,16 c 0,-0.553 -0.447,-1 -1,-1 -0.553,0 -1,0.447 -1,1 0,0.553 0.447,1 1,1 0.553,0 1,-0.447 1,-1" /><path
       fill="#292f33"
       d="M 27.39115,6.3124101 H 8.6087501 c -0.9952,0 -1.8088,0.8136 -1.8088,1.8088 V 12.71241 c 0,0.9952 0.8136,1.8088 1.8088,1.8088 H 27.39115 c 0.9952,0 1.8088,-0.8136 1.8088,-1.8088 V 8.1212101 c 0,-0.9952 -0.8136,-1.8088 -1.8088,-1.8088 z"
       id="path3"
       style="stroke-width:0.8" /><path
       d="m 9.8731488,10.92921 h -0.6544 c -0.2511998,0 -0.3655998,0.1832 -0.3655998,0.3656 0,0.1824 0.1144,0.3648 0.3655998,0.3648 h 0.76 l 0.1672002,1.224 c 0.0376,0.2736 0.152,0.3648 0.38,0.3648 0.1824,0 0.3504,-0.1208 0.3504,-0.304 0,-0.1144 0,-0.0608 -0.0152,-0.1832 l -0.152,-1.1024 h 0.7304 l 0.1672,1.224 c 0.0376,0.2736 0.152,0.3648 0.38,0.3648 0.1824,0 0.3504,-0.1208 0.3504,-0.304 0,-0.1144 0,-0.0608 -0.0152,-0.1832 l -0.1528,-1.1024 h 0.6544 c 0.2512,0 0.3648,-0.1832 0.3648,-0.3648 0,-0.1824 -0.1144,-0.3656 -0.3648,-0.3656 h -0.7608 l -0.1216,-0.8664 h 0.6544 c 0.2512,0 0.3648,-0.1831999 0.3648,-0.3655999 0,-0.1824 -0.1144,-0.3648 -0.3648,-0.3648 h -0.7608 l -0.1672,-1.224 c -0.0384,-0.2744 -0.1528,-0.3648 -0.3808,-0.3648 -0.1824,0 -0.3504,0.1208 -0.3504,0.304 0,0.1144 0,0.0608 0.0152,0.1832 l 0.1528,1.1024 h -0.7296 l -0.1672,-1.224 c -0.0384,-0.2744 -0.152,-0.3648 -0.3808002,-0.3648 -0.1824,0 -0.3504,0.1208 -0.3504,0.304 0,0.1144 0,0.0608 0.0152,0.1832 l 0.152,1.1024 H 8.990749 c -0.2504,0 -0.3648,0.1832 -0.3648,0.3648 0,0.1832 0.1144,0.3655999 0.3648,0.3655999 h 0.7607998 z m 0.6160002,-0.8664 h 0.7224 l 0.1216,0.8664 h -0.7224 z m 3.6928,2 c 0,0.6616 0.4944,1.232 1.1712,1.232 0.6768,0 1.1712,-0.5704 1.1712,-1.232 0,-0.6616 -0.4944,-1.2248 -1.1712,-1.2248 -0.6776,-8e-4 -1.1712,0.5624 -1.1712,1.2248 z m 1.5664,0 c 0,0.2432 -0.1448,0.456 -0.3952,0.456 -0.2512,0 -0.396,-0.2136 -0.396,-0.456 0,-0.244 0.1448,-0.4496 0.396,-0.4496 0.2504,0 0.3952,0.2056 0.3952,0.4496 z m 1.848,1.0336 c 0.0992,0.1896 0.1752,0.2432 0.3504,0.2432 0.236,0 0.4488,-0.1896 0.4488,-0.4256 0,-0.0608 0,-0.1144 -0.0608,-0.228 l -2.5552,-4.7831999 c -0.1144,-0.1592 -0.16,-0.2504 -0.3424,-0.2504 -0.1976,0 -0.4336,0.1896 -0.4336,0.4176 0,0.1144 0.0456,0.22 0.076,0.2816 z m -0.7376,-4.1751999 c 0,0.6616 0.4944,1.2319999 1.1712,1.2319999 0.6768,0 1.1712,-0.5703999 1.1712,-1.2319999 0,-0.6608 -0.4944,-1.224 -1.1712,-1.224 -0.6776,-8e-4 -1.1712,0.5632 -1.1712,1.224 z m 1.5664,0 c 0,0.244 -0.1448,0.456 -0.396,0.456 -0.2512,0 -0.396,-0.2128 -0.396,-0.456 0,-0.2432 0.1448,-0.4488 0.396,-0.4488 0.2512,0 0.396,0.2056 0.396,0.4488 z m 1.9888,-0.6312 c 0,0.3272 0.2664,0.5936 0.5928,0.5936 0.3272,0 0.5936,-0.2664 0.5936,-0.5936 0,-0.3264 -0.2664,-0.5928 -0.5936,-0.5928 -0.3264,-8e-4 -0.5928,0.2656 -0.5928,0.5928 z m 0.0456,4.4871999 c 0,0.3192 0.2352,0.5168 0.5472,0.5168 0.3048,0 0.548,-0.2056 0.548,-0.5168 V 9.8492101 c 0,-0.312 -0.2432,-0.5168 -0.548,-0.5168 -0.312,0 -0.5472,0.1976 -0.5472,0.5168 z m 6.4624,-5.1255999 c -0.1496,0 -0.2432,0.0424 -0.3448,0.1568 l -0.5792,0.632 -0.0576,-0.0528 c -0.5616,-0.516 -1.0464,-0.7352 -1.6192,-0.7352 -0.8872,0 -1.7832,0.5056 -1.7832,1.6352 0,0.8855999 0.6936,1.4151999 1.1072,1.6519999 l 0.0936,0.0536 -0.076,0.0784 c -0.34,0.356 -0.4792,0.6504 -0.4792,1.0152 0,0.8616 0.7864,1.2536 1.5168,1.2536 0.6112,0 1.472,-0.3624 1.472,-1.1664 0,-0.7608 -0.7064,-1.2008 -0.9224,-1.3176 l -0.092,-0.0496 0.9288,-1.0727999 0.3552,0.4287999 c 0.1976,0.2376 0.3128,0.3376 0.5168,0.3376 0.164,0 0.3392,-0.1472 0.3392,-0.4184 0,-0.2031999 -0.2016,-0.4679999 -0.3992,-0.6999999 l -0.2376,-0.268 0.5648,-0.6704 c 0.1048,-0.1248 0.148,-0.1912 0.148,-0.3424 8e-4,-0.236 -0.2152,-0.4496 -0.452,-0.4496 z m -2.7576,2.7791999 c -0.3424,-0.2296 -0.6912,-0.5319999 -0.6912,-1.0327999 0,-0.5248 0.3416,-0.8632 0.8712,-0.8632 0.4416,0 0.7272,0.1936 1.02,0.4848 l 0.0568,0.0552 -1.2,1.3943999 z m 0.5368,2.1688 c -0.224,0 -0.536,-0.1832 -0.536,-0.4816 0,-0.2784 0.1368,-0.448 0.4272,-0.7432 l 0.0408,-0.0416 0.0504,0.0264 c 0.3976,0.208 0.5992,0.4424 0.5992,0.6952 8e-4,0.3744 -0.3008,0.5448 -0.5816,0.5448 z"
       fill="#ffffff"
       id="path4"
       style="stroke-width:0.8" /><path
       class="st4"
       d="m 11.786396,29.561167 c -0.24,0 -0.48,0.16 -0.64,0.4 -1.4399998,2.08 -5.1199998,2.8 -5.1199998,2.8 -0.48,0.08 -0.72,0.48 -0.64,0.96 0.08,0.48 0.48,0.72 0.96,0.64 0.16,0 4.3199998,-0.88 6.0799998,-3.52 0.24,-0.4 0.16,-0.88 -0.24,-1.12 -0.08,-0.08 -0.24,-0.16 -0.4,-0.16 z m 12.907178,0 c 0.24,0 0.48,0.16 0.64,0.4 1.44,2.08 5.12,2.8 5.12,2.8 0.48,0.08 0.72,0.48 0.64,0.96 -0.08,0.48 -0.48,0.72 -0.96,0.64 -0.16,0 -4.32,-0.88 -6.08,-3.52 -0.24,-0.4 -0.16,-0.88 0.24,-1.12 0.08,-0.08 0.24,-0.16 0.4,-0.16 z"
       id="path6"
       style="fill:#292f33;fill-opacity:1;stroke-width:0.8"
       transform="translate(-0.23998497,-0.89138259)" /></g><style
     type="text/css"
     id="style1">&#10;	.st0{fill:#292F33;}&#10;	.st1{fill:#C6E5B3;}&#10;	.st2{fill:#77B255;}&#10;	.st3{fill:#BBDDF5;}&#10;	.st4{fill:#5C913B;}&#10;	.st5{fill:#FFFFFF;}&#10;	.st6{fill:none;}&#10;</style></svg>
