<?xml version="1.0" encoding="UTF-8" standalone="no"?>
<svg
   viewBox="0 0 45 45"
   style="enable-background:new 0 0 45 45;"
   xml:space="preserve"
   version="1.1"
   id="svg2"
   sodipodi:docname="U1f9d1-200d-1f692-frogFirefighter.svg"
   inkscape:version="1.2 (dc2aedaf03, 2022-05-15)"
   xmlns:inkscape="http://www.inkscape.org/namespaces/inkscape"
   xmlns:sodipodi="http://sodipodi.sourceforge.net/DTD/sodipodi-0.dtd"
   xmlns="http://www.w3.org/2000/svg"
   xmlns:svg="http://www.w3.org/2000/svg"
   xmlns:rdf="http://www.w3.org/1999/02/22-rdf-syntax-ns#"
   xmlns:cc="http://creativecommons.org/ns#"
   xmlns:dc="http://purl.org/dc/elements/1.1/"><sodipodi:namedview
     id="namedview46795"
     pagecolor="#505050"
     bordercolor="#ffffff"
     borderopacity="1"
     inkscape:pageshadow="0"
     inkscape:pageopacity="0"
     inkscape:pagecheckerboard="1"
     showgrid="false"
     inkscape:zoom="14.000714"
     inkscape:cx="28.319984"
     inkscape:cy="28.462834"
     inkscape:window-width="1920"
     inkscape:window-height="1026"
     inkscape:window-x="0"
     inkscape:window-y="54"
     inkscape:window-maximized="1"
     inkscape:current-layer="g10"
     inkscape:showpageshadow="0"
     inkscape:deskcolor="#505050" /><metadata
     id="metadata8"><rdf:RDF><cc:Work
         rdf:about=""><dc:format>image/svg+xml</dc:format><dc:type
           rdf:resource="http://purl.org/dc/dcmitype/StillImage" /></cc:Work></rdf:RDF></metadata><defs
     id="defs6"><clipPath
       id="clipPath16"
       clipPathUnits="userSpaceOnUse"><path
         id="path18"
         d="M 0,36 36,36 36,0 0,0 0,36 Z" /></clipPath></defs><g
     transform="matrix(1.25,0,0,-1.25,0,45)"
     id="g10"><path
       fill="#a0041e"
       d="m 34.190628,20.206214 c 0,-4.152 -7.247657,-7.517548 -16.188129,-7.517548 -8.940475,0 -16.1881298,3.365548 -16.1881298,7.517548 0,4.151998 7.2476548,2.891363 16.1881298,2.891363 8.940472,0 16.188129,1.260635 16.188129,-2.891363 z"
       id="path20486"
       style="stroke-width:0.800003" /><g
       id="g49206"
       transform="matrix(1.4456783,0,0,1.4456819,-8.0222135,-9.252365)"
       style="stroke-width:0.691716"><path
         id="path22"
         style="fill:#c6e5b3;fill-opacity:1;fill-rule:nonzero;stroke:none;stroke-width:0.691716"
         d="M 28.027343,13.08491 C 28.027343,8.9313527 23.537869,6.4 17.999978,6.4 12.462087,6.4 7.9726125,8.9313527 7.9726125,13.08491 H 28.027343"
         sodipodi:nodetypes="cscc" /><path
         id="path26"
         style="fill:#77b255;fill-opacity:1;fill-rule:nonzero;stroke:none;stroke-width:0.691716"
         d="m 25.6625,18.279197 c 0.76208,0.612783 1.250636,1.551456 1.250636,2.604887 0,1.845592 -1.496306,3.342455 -3.342455,3.342455 -1.593794,0 -2.924649,-1.116937 -3.258894,-2.609901 -0.718071,0.269068 -1.495192,0.422264 -2.311865,0.422264 -0.816116,0 -1.593794,-0.153196 -2.311308,-0.422264 -0.334802,1.492964 -1.665656,2.609901 -3.25945,2.609901 -1.845593,0 -3.3424555,-1.496863 -3.3424555,-3.342455 0,-1.053431 0.4891126,-1.992104 1.2506355,-2.604887 -1.4734658,-1.492963 -2.3647872,-3.347469 -2.3647872,-5.194175 0,-4.1535579 4.4894742,-0.557076 10.0273652,-0.557076 5.538448,0 10.027365,-3.5964819 10.027365,0.557076 0,1.846706 -0.890764,3.701212 -2.364787,5.194175" /><path
         id="path30"
         style="fill:#ffffff;fill-opacity:1;fill-rule:nonzero;stroke:none;stroke-width:0.691716"
         d="m 14.100447,21.16251 c 0,-1.076828 -0.872938,-1.949765 -1.949766,-1.949765 -1.076827,0 -1.949765,0.872937 -1.949765,1.949765 0,1.076828 0.872938,1.949766 1.949765,1.949766 1.076828,0 1.949766,-0.872938 1.949766,-1.949766" /><path
         id="path34"
         style="fill:#292f33;fill-opacity:1;fill-rule:nonzero;stroke:none;stroke-width:0.691716"
         d="m 12.986295,21.16251 c 0,-0.461816 -0.373798,-0.835614 -0.835614,-0.835614 -0.461816,0 -0.835613,0.373798 -0.835613,0.835614 0,0.461816 0.373797,0.835614 0.835613,0.835614 0.461816,0 0.835614,-0.373798 0.835614,-0.835614" /><path
         id="path38"
         style="fill:#ffffff;fill-opacity:1;fill-rule:nonzero;stroke:none;stroke-width:0.691716"
         d="m 25.79904,21.16251 c 0,-1.076828 -0.872381,-1.949765 -1.949766,-1.949765 -1.077384,0 -1.949765,0.872937 -1.949765,1.949765 0,1.076828 0.872381,1.949766 1.949765,1.949766 1.077385,0 1.949766,-0.872938 1.949766,-1.949766" /><path
         id="path42"
         style="fill:#292f33;fill-opacity:1;fill-rule:nonzero;stroke:none;stroke-width:0.691716"
         d="m 24.684888,21.16251 c 0,-0.461816 -0.374355,-0.835614 -0.835614,-0.835614 -0.461259,0 -0.835614,0.373798 -0.835614,0.835614 0,0.461816 0.374355,0.835614 0.835614,0.835614 0.461259,0 0.835614,-0.373798 0.835614,-0.835614" /><path
         id="path46"
         style="fill:#5c913b;fill-opacity:1;fill-rule:nonzero;stroke:none;stroke-width:0.691716"
         d="m 16.32875,14.199062 c 0,-0.308063 -0.24957,-0.557076 -0.557076,-0.557076 -0.307505,0 -0.557075,0.249013 -0.557075,0.557076 0,0.308063 0.24957,0.557076 0.557075,0.557076 0.307506,0 0.557076,-0.249013 0.557076,-0.557076" /><path
         id="path50"
         style="fill:#5c913b;fill-opacity:1;fill-rule:nonzero;stroke:none;stroke-width:0.691716"
         d="m 20.785357,14.199062 c 0,-0.308063 -0.249013,-0.557076 -0.557076,-0.557076 -0.308063,0 -0.557076,0.249013 -0.557076,0.557076 0,0.308063 0.249013,0.557076 0.557076,0.557076 0.308063,0 0.557076,-0.249013 0.557076,-0.557076" /></g><path
       fill="#df1f32"
       d="m 30.551768,23.443384 c -0.994414,0.200083 -1.263831,4.658565 -3.566013,7.932747 C 24.817702,34.456012 20.666603,36 17.99903,36 15.331459,36 11.180359,34.456012 9.013462,31.376131 6.7101217,28.101949 6.4418613,23.643467 5.4474481,23.443384 1.6120175,22.674282 1.7923993,20.683866 1.8166823,20.225875 c 0.142226,0.53895 0.5064573,1.825029 4.5118634,1.896735 3.9360273,0.0694 7.6084203,-0.932177 11.6716403,-0.932177 4.063221,0 7.735614,1.00157 11.67164,0.932177 4.005406,-0.07055 4.368482,-1.356628 4.511864,-1.896735 0.02313,0.457991 0.203507,2.448407 -3.631922,3.217509 z"
       id="path20506"
       style="stroke-width:0.800003" /><path
       fill="#ea596e"
       d="m 18.002499,36 c -2.421281,0 -5.781475,-4.155468 -5.781475,-5.845182 v -4.563729 c 0,0 0.126033,-1.156545 1.063792,-1.156545 h 9.435366 c 0.937755,0 1.063791,1.156545 1.063791,1.156545 v 4.563729 C 23.783973,31.844532 20.423781,36 18.002499,36 Z"
       id="path20508"
       style="stroke-width:0.800003" /></g></svg>
