<?xml version="1.0" encoding="utf-8"?>
<!-- Generator: Adobe Illustrator 25.0.0, SVG Export Plug-In . SVG Version: 6.00 Build 0)  -->
<svg version="1.1" id="Ebene_1" xmlns="http://www.w3.org/2000/svg" xmlns:xlink="http://www.w3.org/1999/xlink" x="0px" y="0px"
	 viewBox="0 0 36 36" style="enable-background:new 0 0 36 36;" xml:space="preserve">
<style type="text/css">
	.st0{fill:#77B255;}
	.st1{fill:#FFFFFF;}
	.st2{fill:#292F33;}
	.st3{fill:#5C913B;}
	.st4{fill:#C6E5B3;}
	.st5{fill:none;}
</style>
<g id="Ebene_2_1_">
	<g id="Ebene_1-2">
		<path class="st0" d="M34.8,6.4c-0.2,1-0.5,2.1-1,3c-0.6,1.1-1.3,2-2.2,2.9L12.7,31.2C8.9,35,4.4,35,2.8,33.4s-1.5-6.1,2.3-9.8
			L24,4.7c0.8-0.8,1.8-1.5,2.8-2.1c1-0.6,2-0.9,3.1-1.1c1.4-0.3,2.9,0,4,0.9C34.8,3.5,35.1,5,34.8,6.4z"/>
		<path class="st1" d="M30.5,4.1c-0.5,1-1.7,1.4-2.7,0.9c-0.9-0.4-1.3-1.5-1-2.4c1-0.6,2-0.9,3.1-1.1C30.8,2.1,31,3.3,30.5,4.1z"/>
		<circle class="st2" cx="28.7" cy="3.1" r="0.9"/>
		<path class="st1" d="M34.8,6.4c-0.2,1-0.5,2.1-1,3c-1,0.4-2.2-0.2-2.6-1.2s0.2-2.2,1.2-2.6C33.3,5.3,34.3,5.6,34.8,6.4L34.8,6.4z"
			/>
		<circle class="st2" cx="33.1" cy="7.5" r="0.9"/>
		<path class="st3" d="M24.3,8c1.6,1.6,2.8,2.9,3.6,2.1c0.1-0.2,0.2-0.4,0.3-0.6c0,0,0-0.1,0-0.1c-0.2-1.2-2.4-3.7-4.1-4.7h0
			l-1.5,1.5C23,6.7,23.6,7.3,24.3,8z M19.8,12.5c1.6,1.6,2.8,2.9,3.6,2.1c0.1-0.2,0.2-0.4,0.3-0.6c0,0,0-0.1,0-0.1
			c-0.1-1.1-2.4-3.6-4.1-4.7L18,10.7C18.6,11.3,19.1,11.9,19.8,12.5L19.8,12.5z M15.2,17.1c1.6,1.5,2.8,2.9,3.6,2
			c0.1-0.2,0.3-0.3,0.3-0.6c0,0,0-0.1,0-0.1c-0.1-1.1-2.4-3.6-4.1-4.7l-1.5,1.5C13.9,15.8,14.6,16.4,15.2,17.1L15.2,17.1z
			 M10.7,21.6c1.6,1.6,2.8,2.9,3.6,2.1c0.1-0.2,0.2-0.4,0.3-0.6V23c-0.1-1.1-2.4-3.6-4.1-4.7l-1.6,1.5C9.4,20.3,10,20.9,10.7,21.6
			L10.7,21.6z M6.1,26.1c1.6,1.6,2.8,2.9,3.6,2.1c0.1-0.2,0.3-0.4,0.3-0.6c0,0,0-0.1,0-0.1c-0.1-1.1-2.4-3.6-4.1-4.7l-0.8,0.8
			c-0.2,0.2-0.5,0.5-0.7,0.7C4.9,24.9,5.5,25.5,6.1,26.1z"/>
		<path class="st4" d="M24.9,3.9c-0.1,0.1-0.6,0.6-0.8,0.7c1.7,1.1,3.9,3.6,4.1,4.7c0,0,0,0.1,0,0.1c0.1,0.2,0.3,0.3,0.5,0.3h0.1
			c0.3,0,0.5-0.3,0.4-0.6C29,7.8,26.8,5.2,24.9,3.9z M20.3,8.4l-0.7,0.7c1.7,1.1,4,3.6,4.1,4.7c0,0,0,0.1,0,0.1
			c0.1,0.2,0.3,0.3,0.5,0.3h0.1c0.3,0,0.5-0.3,0.4-0.6C24.5,12.3,22.2,9.7,20.3,8.4z M15.7,13L15,13.7c1.7,1.1,4,3.6,4.1,4.7
			c0,0,0,0.1,0,0.1c0.1,0.2,0.3,0.3,0.5,0.3h0.1c0.3,0,0.5-0.3,0.4-0.5C19.9,16.9,17.7,14.3,15.7,13z M11.2,17.5l-0.7,0.7
			c1.7,1.1,3.9,3.6,4.1,4.7c0,0,0,0.1,0,0.1c0.1,0.2,0.3,0.3,0.5,0.3h0.1c0.3,0,0.5-0.3,0.4-0.6C15.4,21.4,13.1,18.8,11.2,17.5
			L11.2,17.5z M6.6,22.1l-0.7,0.7c1.7,1.1,3.9,3.6,4.1,4.7c0,0,0,0.1,0,0.1c0.1,0.2,0.3,0.3,0.5,0.3h0.1c0.3,0,0.5-0.2,0.5-0.5
			c0,0,0,0,0-0.1C10.8,25.9,8.6,23.4,6.6,22.1z"/>
		<rect y="0" class="st5" width="36" height="36"/>
	</g>
</g>
</svg>
