<?xml version="1.0" encoding="utf-8"?>
<!-- Generator: Adobe Illustrator 25.0.0, SVG Export Plug-In . SVG Version: 6.00 Build 0)  -->
<svg version="1.1" id="Ebene_1" xmlns="http://www.w3.org/2000/svg" xmlns:xlink="http://www.w3.org/1999/xlink" x="0px" y="0px"
	 viewBox="0 0 36 36" style="enable-background:new 0 0 36 36;" xml:space="preserve">
<style type="text/css">
	.st0{fill:#5D9040;}
	.st1{fill:#3F7123;}
	.st2{fill:#77B255;}
	.st3{fill:#5C913B;}
	.st4{fill:#FFFFFF;}
	.st5{fill:#292F33;}
	.st6{fill:none;}
</style>
<g id="Ebene_2_1_">
	<g id="Ebene_1-2">
		<path class="st0" d="M11.3,35.4c-2.3-0.6-5.4-4.1-6.9-7.3c-0.2-0.4-1.1-0.7-1.3-1.1C0.6,20.8,0.3,12.5,6,6.8
			c5.3-5.5,13.3-7.5,20.5-5.1C27,1.9,27.3,2.9,27.8,3c5.9,1.1,8.3,7.5,5.8,6.8c-1.2-0.4-2.5-0.5-3.8-0.4c-0.4,0.1-1,0.9-1.5,1
			c-0.8,0.1-2.6,0.2-3.6,0.3c-9.2,0.9-12.4,7-12.8,14.3c-0.1,0.8-0.6,0.6-0.7,1.3c-0.4,2,1.1,4.9,1.8,6.9
			C13.4,34.9,13.5,36,11.3,35.4z"/>
		<path class="st1" d="M3.8,9.6c-1.4,2.3-2.2,4.9-2.3,7.5c2.6-1.5,6.3-2.6,12.4-0.2c0.8-1.4,1.8-2.7,3.1-3.6
			c-0.8-0.8-1.7-1.4-2.7-1.8C11.8,10.9,7.1,9.3,3.8,9.6z M3.6,27.4c0.3,0.2,0.7,0.4,0.8,0.7l0.1,0.2c2-1.1,4.3-1.7,6.6-1.6
			c0-0.2,0-0.3,0-0.5c0.1-0.5,0.5-0.5,0.7-1C6.9,24.1,5,26,3.6,27.4z M28.6,3.2C28.3,3.1,28,3,27.8,3c-0.2-0.1-0.4-0.2-0.5-0.4
			c0.9,2.1,1.9,5,1,7.7c0.5-0.2,1-0.9,1.4-0.9H30C30.1,7.2,29.6,5,28.6,3.2L28.6,3.2z"/>
		<path class="st2" d="M1.7,14.9C0.8,11.7,2.1,2.3,14.4,0c2.1,0,10.1,1.3,6.5,16.3c-0.6,2.3-1.8,2.7-3.6,1.6
			C13.2,15.2,5.7,10.8,1.7,14.9z"/>
		<circle class="st3" cx="15.4" cy="15.4" r="0.7"/>
		<circle class="st3" cx="20.5" cy="13" r="0.7"/>
		<circle class="st4" cx="6.5" cy="9.2" r="2.8"/>
		<circle class="st5" cx="6.5" cy="9.2" r="1.2"/>
		<circle class="st4" cx="15" cy="3.2" r="2.8"/>
		<circle class="st5" cx="15" cy="3.2" r="1.2"/>
		<rect y="0" class="st6" width="36" height="36"/>
	</g>
</g>
</svg>
