<?xml version="1.0" encoding="UTF-8" standalone="no"?>
<svg
   xmlns:dc="http://purl.org/dc/elements/1.1/"
   xmlns:cc="http://creativecommons.org/ns#"
   xmlns:rdf="http://www.w3.org/1999/02/22-rdf-syntax-ns#"
   xmlns:svg="http://www.w3.org/2000/svg"
   xmlns="http://www.w3.org/2000/svg"
   xmlns:sodipodi="http://sodipodi.sourceforge.net/DTD/sodipodi-0.dtd"
   xmlns:inkscape="http://www.inkscape.org/namespaces/inkscape"
   inkscape:version="1.0 (4035a4fb49, 2020-05-01)"
   sodipodi:docname="froglobster.svg"
   id="svg2"
   version="1.1"
   xml:space="preserve"
   style="enable-background:new 0 0 45 45;"
   viewBox="0 0 45 45"><sodipodi:namedview
     inkscape:current-layer="svg2"
     inkscape:window-maximized="0"
     inkscape:window-y="50"
     inkscape:window-x="0"
     inkscape:cy="18.78483"
     inkscape:cx="12.785794"
     inkscape:zoom="20.022222"
     showgrid="false"
     id="namedview945"
     inkscape:window-height="1030"
     inkscape:window-width="1920"
     inkscape:pageshadow="2"
     inkscape:pageopacity="0"
     guidetolerance="10"
     gridtolerance="10"
     objecttolerance="10"
     borderopacity="1"
     bordercolor="#666666"
     pagecolor="#ffffff" /><metadata
     id="metadata8"><rdf:RDF><cc:Work
         rdf:about=""><dc:format>image/svg+xml</dc:format><dc:type
           rdf:resource="http://purl.org/dc/dcmitype/StillImage" /><dc:title></dc:title></cc:Work></rdf:RDF></metadata><defs
     id="defs6"><clipPath
       clipPathUnits="userSpaceOnUse"
       id="clipPath16"><path
         d="M 0,36 36,36 36,0 0,0 0,36 Z"
         id="path18" /></clipPath></defs><path
     style="stroke-width:1.10777"
     fill="#be1931"
     d="M 8.9703431,11.726854 C 3.9521485,12.08134 3.6807451,5.6219616 13.180974,6.4782638 22.681203,7.3345661 33.080941,10.244665 35.577853,8.460056 37.559652,7.0432239 37.146455,4.4632396 36.647958,3.9425901 36.149461,3.4230483 35.393964,3.8927407 35.776144,4.6980857 36.157216,5.5045386 35.707462,7.66468 33.27037,7.8829101 30.834385,8.1011398 21.749569,6.3852116 16.016863,5.577651 10.162303,4.7556895 5.457607,5.163347 4.4351359,8.4379 c -1.0180399,3.264583 2.1535033,4.290374 3.8306659,4.449892 1.6771627,0.15841 0.7045413,-1.160938 0.7045413,-1.160938 z"
     id="path2" /><path
     style="stroke-width:1.10777"
     fill="#dd2e44"
     d="m 10.770468,10.928156 c -5.0314876,0 -4.8464902,-6.4615932 4.569548,-4.9384164 C 24.756055,7.5129162 34.924269,11.148601 37.541928,9.54345 39.618996,8.2695201 39.387471,5.6662722 38.92664,5.1123898 38.465807,4.5585074 37.680399,4.9739192 38.003868,5.8047428 38.327336,6.6355664 37.726925,8.759152 35.28097,8.804571 32.835016,8.852204 23.89421,6.5004192 18.232401,5.2918477 12.450954,4.0577977 7.7285337,4.1342335 6.4778622,7.3279195 5.2316221,10.512744 8.3245136,11.758979 9.9861675,12.035921 11.647822,12.312862 10.770468,10.928156 10.770468,10.928156 Z"
     id="path4" /><path
     style="stroke-width:1.10777"
     fill="#dd2e44"
     d="M 41.00703,18.170723 C 38.192188,13.819421 33.512971,10.827349 28.539087,9.88021 20.433539,8.337094 9.3624934,8.967412 6.2474462,13.467152 c -0.6225661,0.899506 -0.5295134,5.17437 3.3233078,6.64659 1.952998,0.746633 7.247027,-0.179459 10.901557,-0.511787 l -0.243709,1.924187 c -0.07644,0.607055 0.35227,1.160938 0.959328,1.238481 0.607058,0.07644 1.160943,-0.352269 1.238486,-0.959325 l 0.292452,-2.306367 c 0.881784,0.02216 1.741413,0.110778 2.587748,0.257002 l -0.663554,2.170112 c -0.179458,0.5849 0.150657,1.20414 0.734451,1.383598 0.58601,0.17835 1.205254,-0.150655 1.383604,-0.735556 l 0.706757,-2.313013 c 0.821965,0.247031 1.638391,0.553883 2.45814,0.915014 l -1.155403,1.877662 c -0.321253,0.521756 -0.157304,1.203032 0.36224,1.524284 0.522867,0.319036 1.204145,0.157302 1.524291,-0.363348 l 1.262857,-2.053794 c 0.09748,0.05206 0.192752,0.09859 0.290236,0.15287 3.110616,1.725898 5.013763,6.576801 4.934004,8.369164 -0.03988,0.899505 0.187213,1.557518 0.673523,1.961852 0.877354,0.722262 2.301944,0.379962 3.343248,0.129608 0.35227,-0.0853 0.716727,-0.172811 0.885108,-0.169488 l 0.334546,-1.098903 0.108561,-0.315712 c 2.194492,-6.39402 0.405444,-10.103924 -1.482195,-13.01956 z"
     id="path6" /><path
     style="stroke-width:1.10777"
     fill="#be1931"
     d="m 28.616631,12.916593 c -0.674631,1.267283 0.149549,1.036868 1.135463,0.07312 0.660231,-0.645828 1.707072,-1.349259 2.814842,-1.851077 -0.622566,-0.269191 -1.255103,-0.508468 -1.898716,-0.710081 -0.869599,0.83747 -1.686025,1.80344 -2.051589,2.48804 z m 6.625568,3.42964 c 1.407974,-0.697891 3.131664,-0.238168 4.825442,0.532835 -0.757713,-0.968187 -1.614019,-1.849967 -2.543437,-2.646449 -0.794271,0.04874 -1.585219,0.288019 -2.253203,0.778757 -1.113308,0.816423 -2.453709,2.534568 -0.0288,1.334857 z m 4.279313,4.329146 c -1.324892,0.386609 -3.172651,1.542007 -0.485203,1.245127 1.563062,-0.172811 3.025318,0.850763 4.353532,2.156818 -0.155087,-1.158722 -0.467478,-2.187835 -0.866275,-3.123898 -0.921664,-0.409872 -1.984014,-0.574928 -3.002054,-0.278047 z m 2.702956,9.563333 c -0.445323,-0.227092 -2.219969,1.961852 -4.083237,-0.81753 -0.0034,-0.0055 -0.0089,-0.0055 -0.01219,-0.01108 -0.08419,-1.298301 -0.692356,-6.891406 -6.522546,-9.959915 -0.619242,-0.325682 -1.291659,-0.625887 -2.034972,-0.886211 -0.936065,-0.3279 -1.979583,-0.59487 -3.131664,-0.789837 -0.593764,-0.100807 -1.211899,-0.186105 -1.867699,-0.244816 -0.1141,-0.01 -0.231523,-0.01219 -0.346731,-0.02105 -1.096692,-0.07865 -2.21997,-0.06978 -3.351003,-0.0034 -0.736666,0.0432 -1.476655,0.107454 -2.213322,0.186105 -4.397844,0.468586 -8.6893422,1.375844 -11.6216075,0.50071 0.5605312,0.782082 1.3736339,1.479974 2.5312528,1.921973 1.6516837,0.630317 5.6906107,0.06646 9.1080787,-0.323468 l 0.0022,0.25257 c 0.0055,0.611487 0.50625,1.103334 1.117739,1.097796 0.611488,-0.0055 1.103338,-0.505142 1.097799,-1.117736 l -0.0044,-0.455291 c 0.660231,-0.05317 1.262857,-0.08419 1.760246,-0.07312 0.365563,0.0077 0.726696,0.03101 1.085614,0.06093 l -0.107454,0.449752 c -0.141795,0.595978 0.227092,1.193062 0.820856,1.333749 0.594872,0.141794 1.19196,-0.225984 1.334863,-0.820854 l 0.151764,-0.639179 c 0.872922,0.18278 1.734767,0.427596 2.594396,0.738879 l -0.293559,0.581575 c -0.274726,0.547237 -0.05539,1.213004 0.488526,1.488837 0.54613,0.275833 1.213007,0.0565 1.48995,-0.488525 l 0.36224,-0.717831 c 0.540592,0.257001 1.082291,0.528404 1.630637,0.833039 3.092891,1.717035 4.991608,6.521412 4.932896,8.337039 -0.02327,0.135146 -0.03545,0.278049 -0.03324,0.428704 0.01108,0.562745 -0.124069,1.211895 -0.404335,1.930835 -0.566071,1.457818 -1.703749,3.101741 -2.901248,4.186243 -0.460832,0.419843 -0.795379,0.88732 -0.991453,1.389137 -0.354487,0.918338 -0.184998,1.866585 0.426491,2.360647 0.11853,0.09638 0.24814,0.167272 0.383288,0.218229 3.692195,-3.344342 2.29419,-1.514314 3.210315,1.237374 0.367779,0.675736 0.910586,0.838579 1.179774,0.874027 0.782085,0.100806 1.554201,-0.440891 1.970722,-1.383599 l 0.05428,-0.130716 c 0.624782,-1.608474 2.409398,-9.58992 2.578887,-10.763044 0.04653,-0.312388 -0.110776,-0.618132 -0.39215,-0.761034 z"
     id="path8" /><path
     style="stroke-width:1.10777"
     fill="#292f33"
     d="m 33.624855,41.164598 c 0.432031,0.16284 0.929419,0.101914 1.378066,-0.192751 0.595979,-0.391042 0.989237,-0.448645 1.144326,-0.379965 0.162841,0.0709 0.303528,0.387719 0.375533,0.844118 0.06536,0.406549 0.177244,0.718939 0.312391,0.96597 -0.917233,-2.751688 2.156827,-7.456365 -3.210316,-1.237372 z"
     id="path10" /><circle
     ry="1.1077648"
     rx="1.1077693"
     style="stroke-width:1.10777"
     fill="#292f33"
     cx="11.786292"
     cy="13.467153"
     id="circle12" /><path
     d="m 24.887991,14.704371 c 0,4.84388 -5.235647,7.795944 -11.693962,7.795944 -6.4583169,0 -11.6939641,-2.952064 -11.6939641,-7.795944 0,-4.84388 5.2356472,-9.7449303 11.6939641,-9.7449303 6.458315,0 11.693962,4.9010503 11.693962,9.7449303"
     style="fill:#be1931;fill-opacity:1;fill-rule:nonzero;stroke:none;stroke-width:0.649663"
     id="path22" /><path
     d="M 22.1301,8.646793 C 23.018841,7.9321642 23.588597,6.8374832 23.588597,5.6089731 23.588597,3.4566425 21.843598,1.711 19.69061,1.711 c -1.858692,0 -3.41074,1.3025731 -3.800539,3.043667 -0.837417,-0.3137865 -1.743699,-0.4924436 -2.696107,-0.4924436 -0.951759,0 -1.858691,0.1786571 -2.695459,0.4924436 C 10.108056,3.0135731 8.5560075,1.711 6.6973169,1.711 c -2.1523387,0 -3.8979876,1.7456425 -3.8979876,3.8979731 0,1.2285101 0.5704055,2.3231911 1.4584971,3.0378199 C 2.5394634,10.387887 1.5,12.550612 1.5,14.704241 c 0,4.84388 5.2356479,0.649663 11.693964,0.649663 6.458964,0 11.693962,4.194217 11.693962,-0.649663 0,-2.153629 -1.038813,-4.316354 -2.757826,-6.057448"
     style="fill:#dd2e44;fill-opacity:1;fill-rule:nonzero;stroke:none;stroke-width:0.649663"
     id="path26" /><path
     d="m 8.646376,5.2842717 c 0,1.2557966 -1.0180245,2.2738169 -2.2738261,2.2738169 -1.2558022,0 -2.2738267,-1.0180203 -2.2738267,-2.2738169 0,-1.2557966 1.0180245,-2.2738171 2.2738267,-2.2738171 1.2558016,0 2.2738261,1.0180205 2.2738261,2.2738171"
     style="fill:#ffffff;fill-opacity:1;fill-rule:nonzero;stroke:none;stroke-width:0.649663"
     id="path30" /><path
     d="m 7.3470468,5.2842717 c 0,0.5385698 -0.4359249,0.974493 -0.9744969,0.974493 -0.5385724,0 -0.9744974,-0.4359232 -0.9744974,-0.974493 0,-0.5385698 0.435925,-0.974493 0.9744974,-0.974493 0.538572,0 0.9744969,0.4359232 0.9744969,0.974493"
     style="fill:#292f33;fill-opacity:1;fill-rule:nonzero;stroke:none;stroke-width:0.649663"
     id="path34" /><path
     d="m 22.289333,5.2842717 c 0,1.2557966 -1.017376,2.2738169 -2.273826,2.2738169 -1.256452,0 -2.273826,-1.0180203 -2.273826,-2.2738169 0,-1.2557966 1.017374,-2.2738171 2.273826,-2.2738171 1.25645,0 2.273826,1.0180205 2.273826,2.2738171"
     style="fill:#ffffff;fill-opacity:1;fill-rule:nonzero;stroke:none;stroke-width:0.649663"
     id="path38" /><path
     d="m 20.990003,5.2842717 c 0,0.5385698 -0.436574,0.974493 -0.974497,0.974493 -0.537923,0 -0.974497,-0.4359232 -0.974497,-0.974493 0,-0.5385698 0.436574,-0.974493 0.974497,-0.974493 0.537923,0 0.974497,0.4359232 0.974497,0.974493"
     style="fill:#292f33;fill-opacity:1;fill-rule:nonzero;stroke:none;stroke-width:0.649663"
     id="path42" /><path
     d="m 11.245034,13.405047 c 0,0.359263 -0.29105,0.649662 -0.649664,0.649662 -0.358615,0 -0.6496649,-0.290399 -0.6496649,-0.649662 0,-0.359263 0.2910499,-0.649662 0.6496649,-0.649662 0.358614,0 0.649664,0.290399 0.649664,0.649662"
     style="fill:#951426;fill-opacity:1;fill-rule:nonzero;stroke:none;stroke-width:0.649663"
     id="path46" /><path
     d="m 16.442351,13.405047 c 0,0.359263 -0.290401,0.649662 -0.649665,0.649662 -0.359265,0 -0.649665,-0.290399 -0.649665,-0.649662 0,-0.359263 0.2904,-0.649662 0.649665,-0.649662 0.359264,0 0.649665,0.290399 0.649665,0.649662"
     style="fill:#951426;fill-opacity:1;fill-rule:nonzero;stroke:none;stroke-width:0.649663"
     id="path50" /></svg>
