<?xml version="1.0" encoding="utf-8"?>
<!-- Generator: Adobe Illustrator 25.0.0, SVG Export Plug-In . SVG Version: 6.00 Build 0)  -->
<svg version="1.1" id="Ebene_1" xmlns="http://www.w3.org/2000/svg" xmlns:xlink="http://www.w3.org/1999/xlink" x="0px" y="0px"
	 viewBox="0 0 36 36" style="enable-background:new 0 0 36 36;" xml:space="preserve">
<style type="text/css">
	.st0{fill:#77B255;}
	.st1{fill:#C6E5B3;}
	.st2{clip-path:url(#SVGID_2_);}
	.st3{fill:#FFFFFF;}
	.st4{fill:#292F33;}
	.st5{fill:#5C913B;}
	.st6{clip-path:url(#SVGID_4_);}
</style>
<g>
	<path class="st0" d="M15,15.3c-0.9,0-1.9,0.3-2.7,0.8v4.6H10c0.1,2.8,2.4,4.9,5.2,4.8c2.8-0.1,4.9-2.4,4.8-5.2l0,0v-5L15,15.3z"/>
	<path class="st1" d="M11,19V3h9v16H11z"/>
	<path class="st1" d="M18.6,23.8l-6.9,6.9c-1.8,1.8-4.6,1.8-6.4,0s-1.8-4.6,0-6.4l0,0l6.9-6.9L18.6,23.8z"/>
	<g>
		<defs>
			<path id="SVGID_1_" d="M18.6,23.8l-6.9,6.9c-1.8,1.8-4.6,1.8-6.4,0s-1.8-4.6,0-6.4l0,0l6.9-6.9L18.6,23.8z"/>
		</defs>
		<clipPath id="SVGID_2_">
			<use xlink:href="#SVGID_1_"  style="overflow:visible;"/>
		</clipPath>
		<g class="st2">
			<path class="st1" d="M11.9,31.4c-1.5,1.5-4,0.9-6.1-1.1s-2.8-4.5-1.3-6s4.6-1.5,6.7,0.5S13.3,29.9,11.9,31.4z"/>
			<path class="st0" d="M12.8,28.7c0.5,0.1,1-0.1,1.4-0.5c0.7-0.7,0.6-1.8-0.1-2.4c-0.6-0.6-1.5-0.7-2.2-0.2c-0.2-0.4-0.4-0.7-0.7-1
				c-0.3-0.3-0.6-0.5-1-0.7c0.5-0.8,0.2-1.9-0.6-2.3c-0.8-0.5-1.9-0.2-2.3,0.6c-0.2,0.3-0.3,0.7-0.2,1.1c-1,0-2,0.4-2.7,1.1
				C3,25.8,5.9,26.1,8,28.1s2.4,4.9,3.9,3.4C12.6,30.7,12.9,29.7,12.8,28.7z"/>
			<circle class="st3" cx="8.9" cy="22.8" r="1"/>
			<circle class="st4" cx="8.9" cy="22.8" r="0.4"/>
			<circle class="st3" cx="13.2" cy="27" r="1"/>
			<circle class="st4" cx="13.2" cy="27" r="0.4"/>
			<circle class="st5" cx="7.7" cy="26.6" r="0.3"/>
			<circle class="st5" cx="9.4" cy="28.2" r="0.3"/>
		</g>
	</g>
	<rect x="11" y="10.1" class="st5" width="9" height="2"/>
	<rect x="11" y="6.1" class="st5" width="9" height="2"/>
	<path class="st0" d="M18,0h-5c-1.1,0-2,0.9-2,2v2h9V2C20,0.9,19.1,0,18,0z"/>
</g>
<g>
	<path class="st0" d="M27,19.3c-0.9,0-1.9,0.3-2.7,0.8v4.5H22c0.1,2.8,2.4,4.9,5.2,4.8c2.8-0.1,4.9-2.4,4.8-5.2l0,0v-5H27z"/>
	<path class="st1" d="M23,23V7h9v16H23z"/>
	<path class="st1" d="M30.6,27.8l-6.9,6.9c-1.8,1.8-4.6,1.8-6.4,0c-1.8-1.8-1.8-4.6,0-6.4l0,0l6.9-6.9L30.6,27.8z"/>
	<g>
		<defs>
			<path id="SVGID_3_" d="M30.6,27.8l-6.9,6.9c-1.8,1.8-4.6,1.8-6.4,0c-1.8-1.8-1.8-4.6,0-6.4l0,0l6.9-6.9L30.6,27.8z"/>
		</defs>
		<clipPath id="SVGID_4_">
			<use xlink:href="#SVGID_3_"  style="overflow:visible;"/>
		</clipPath>
		<g class="st6">
			<path class="st1" d="M23.9,35.4c-1.5,1.5-4,0.9-6.1-1.1s-2.8-4.5-1.3-6s4.6-1.5,6.7,0.5S25.3,33.9,23.9,35.4z"/>
			<path class="st0" d="M24.8,32.6c0.5,0.1,1-0.1,1.4-0.5c0.7-0.6,0.8-1.7,0.2-2.4s-1.7-0.8-2.4-0.2l0,0c-0.2-0.4-0.4-0.7-0.7-1
				c-0.3-0.3-0.6-0.5-1-0.7c0.4-0.7,0.3-1.6-0.3-2.1c-0.7-0.7-1.8-0.7-2.4,0c-0.4,0.4-0.5,0.9-0.5,1.4c-1,0-2,0.4-2.7,1.1
				C15,29.8,17.9,30.1,20,32s2.4,4.9,3.9,3.4C24.5,34.6,24.9,33.6,24.8,32.6z"/>
			<circle class="st3" cx="20.9" cy="26.8" r="1"/>
			<circle class="st4" cx="20.9" cy="26.8" r="0.4"/>
			<circle class="st3" cx="25.2" cy="30.9" r="1"/>
			<circle class="st4" cx="25.2" cy="30.9" r="0.4"/>
			<circle class="st5" cx="19.7" cy="30.6" r="0.3"/>
			<circle class="st5" cx="21.4" cy="32.2" r="0.3"/>
		</g>
	</g>
	<rect x="23" y="14.1" class="st5" width="9" height="2"/>
	<rect x="23" y="10.1" class="st5" width="9" height="2"/>
	<path class="st0" d="M30,4h-5c-1.1,0-2,0.9-2,2v2h9V6C32,4.9,31.1,4,30,4z"/>
</g>
</svg>
