<?xml version="1.0" encoding="utf-8"?>
<!-- Generator: Adobe Illustrator 26.0.1, SVG Export Plug-In . SVG Version: 6.00 Build 0)  -->
<svg version="1.1" id="Ebene_1" xmlns="http://www.w3.org/2000/svg" xmlns:xlink="http://www.w3.org/1999/xlink" x="0px" y="0px"
	 viewBox="0 0 36 36" style="enable-background:new 0 0 36 36;" xml:space="preserve">
<style type="text/css">
	.st0{fill:#E1E8ED;}
	.st1{fill:#226699;}
	.st2{fill:#C6E5B3;}
	.st3{display:none;fill:#77B255;}
	.st4{fill:#77B255;}
	.st5{fill:#FFFFFF;}
	.st6{fill:#292F33;}
	.st7{fill:#5C913B;}
	.st8{fill:#C1694F;}
	.st9{fill:#CCD6DD;}
	.st10{fill:#99AAB5;}
</style>
<g>
	<path class="st0" d="M36,36v-2c0-3.3-2.7-6-6-6H14c-3.3,0-6,2.7-6,6v2H36z"/>
	<path class="st1" d="M22,36l5-8H17L22,36z"/>
</g>
<path class="st2" d="M17.6,28c0,2,8.7,2,8.7,0v-3.7h-8.7V28z"/>
<path class="st3" d="M17.6,27.5c1.2,1.4,2.7,1.7,4.4,1.7c1.6,0,3.1-0.4,4.4-1.7V24h-8.7L17.6,27.5L17.6,27.5z"/>
<g>
	<path class="st2" d="M32.3,21.7c0,4.3-4.6,6.9-10.3,6.9S11.7,26,11.7,21.7H32.3z"/>
	<path class="st4" d="M29.9,16.3c0.8-0.6,1.3-1.6,1.3-2.7c0-1.9-1.5-3.4-3.4-3.4c-1.6,0-3,1.1-3.4,2.7c-0.7-0.3-1.5-0.4-2.4-0.4
		c-0.8,0-1.6,0.2-2.4,0.4c-0.3-1.5-1.7-2.7-3.4-2.7c-1.9,0-3.4,1.5-3.4,3.4c0,1.1,0.5,2,1.3,2.7c-1.5,1.5-2.4,3.4-2.4,5.3
		c0,4.3,4.6,0.6,10.3,0.6s10.3,3.7,10.3-0.6C32.3,19.8,31.4,17.9,29.9,16.3z"/>
	<circle class="st5" cx="16" cy="13.4" r="2"/>
	<circle class="st6" cx="16" cy="13.4" r="0.9"/>
	<circle class="st5" cx="28" cy="13.4" r="2"/>
	<circle class="st6" cx="28" cy="13.4" r="0.9"/>
	<circle class="st7" cx="19.7" cy="20.5" r="0.6"/>
	<circle class="st7" cx="24.3" cy="20.5" r="0.6"/>
</g>
<path class="st8" d="M10,24.8c0,3.5-2,5.2-4.5,5.2S1,28.2,1,24.8s2-7.2,4.5-7.2S10,21.3,10,24.8z"/>
<path class="st8" d="M4.5,28h2v8h-2V28z"/>
<g>
	<path class="st9" d="M31.2,12c0,0-2.6,1-9.2,1s-9.2-1-9.2-1V6h18.4L31.2,12L31.2,12z"/>
	<path class="st10" d="M16,11.2c0,0.3-0.2,0.5-0.5,0.5S15,11.5,15,11.2v-3c0-0.3,0.2-0.5,0.5-0.5S16,8,16,8.2V11.2z M29,11.2
		c0,0.3-0.2,0.5-0.5,0.5S28,11.5,28,11.2v-3c0-0.3,0.2-0.5,0.5-0.5S29,8,29,8.2V11.2z M19,11.6c0,0.3-0.2,0.5-0.5,0.5
		S18,11.9,18,11.6v-3c0-0.3,0.2-0.5,0.5-0.5S19,8.4,19,8.6V11.6z M22.5,11.8c0,0.3-0.2,0.5-0.5,0.5s-0.5-0.2-0.5-0.5v-3
		c0-0.3,0.2-0.5,0.5-0.5s0.5,0.2,0.5,0.5V11.8z M26,11.6c0,0.3-0.2,0.5-0.5,0.5S25,11.9,25,11.6v-3c0-0.3,0.2-0.5,0.5-0.5
		S26,8.4,26,8.6V11.6z"/>
	<path class="st0" d="M28.2,0c-1.2,0-2.2,0.3-3.2,0.9c-0.9-0.5-2-0.9-3.2-0.9c-1.1,0-2.2,0.3-3.1,0.8c-0.9-0.5-2-0.8-3.1-0.8
		c-3.5,0-6.2,2.8-6.2,6.2s11.3,3.2,12.4,3.2c1.2,0,12.6,0.2,12.6-3.2S31.7,0,28.2,0z"/>
	<path class="st9" d="M14.9,4.5c0,0,0.1,0,0.1,0c0.2,0,0.4-0.2,0.5-0.4c0-0.1,0.3-1.4,1.3-2.2c0.8-0.6,1.7-1,2-1.1
		c-0.4-0.2-0.8-0.4-1.3-0.5c-0.4,0.2-0.9,0.5-1.4,0.8c-1.2,1-1.6,2.5-1.7,2.8C14.5,4.2,14.6,4.4,14.9,4.5z M27.1,1.9
		c1,0.8,1.3,2.1,1.3,2.2c0.1,0.2,0.3,0.4,0.5,0.4c0,0,0.1,0,0.1,0c0.3-0.1,0.4-0.3,0.4-0.6c-0.1-0.3-0.4-1.8-1.7-2.8
		c-0.4-0.3-0.9-0.6-1.3-0.8c-0.4,0.1-0.9,0.3-1.2,0.5C25.5,1,26.3,1.4,27.1,1.9z"/>
</g>
</svg>
