<?xml version="1.0" encoding="UTF-8" standalone="no"?>
<!-- Generator: Adobe Illustrator 25.0.0, SVG Export Plug-In . SVG Version: 6.00 Build 0)  -->

<svg
   version="1.1"
   id="Ebene_1"
   x="0px"
   y="0px"
   viewBox="0 0 36 36"
   style="enable-background:new 0 0 36 36;"
   xml:space="preserve"
   sodipodi:docname="frogNerd.svg"
   inkscape:version="1.1.1 (3bf5ae0d25, 2021-09-20, custom)"
   xmlns:inkscape="http://www.inkscape.org/namespaces/inkscape"
   xmlns:sodipodi="http://sodipodi.sourceforge.net/DTD/sodipodi-0.dtd"
   xmlns="http://www.w3.org/2000/svg"
   xmlns:svg="http://www.w3.org/2000/svg"><defs
   id="defs29">
	
	
	
	
	
	
	
	
	
</defs><sodipodi:namedview
   id="namedview27"
   pagecolor="#505050"
   bordercolor="#ffffff"
   borderopacity="1"
   inkscape:pageshadow="0"
   inkscape:pageopacity="0"
   inkscape:pagecheckerboard="1"
   showgrid="false"
   inkscape:zoom="8.7504464"
   inkscape:cx="2.3427376"
   inkscape:cy="41.655018"
   inkscape:window-width="1920"
   inkscape:window-height="1026"
   inkscape:window-x="1920"
   inkscape:window-y="54"
   inkscape:window-maximized="1"
   inkscape:current-layer="g892" />
<style
   type="text/css"
   id="style2">
	.st0{fill:#C6E5B3;}
	.st1{fill:#FFFFFF;}
	.st2{fill:#77B255;}
	.st3{fill:#292F33;}
	.st4{fill:#5C913B;}
</style>
<g
   id="g892"
   transform="translate(-35.04742,-5.2233013)"><path
     id="path22"
     style="fill:#c6e5b3;fill-opacity:1;fill-rule:nonzero;stroke:none;stroke-width:1.25"
     d="m 71.04742,27.223446 c 0,7.455979 -8.058978,11.999966 -17.99995,11.999966 -9.940972,0 -17.99995,-4.543987 -17.99995,-11.999966 h 35.9999"
     sodipodi:nodetypes="cscc" /><path
     class="st1"
     d="m 57.04742,27.503798 c -0.8,0.2 -1.6,0.4 -2.5,0.5 -0.4,0 -0.7,0.1 -1.1,0.1 v 4.5 h 1.6 c 1.1,0 2,-0.9 2,-2 z m -8,0 c 0.8,0.2 1.6,0.4 2.5,0.5 0.4,0 0.7,0.1 1.1,0.1 v 4.5 h -1.6 c -1.1,0 -2,-0.9 -2,-2 z"
     id="path6" /><path
     id="path26"
     style="fill:#77b255;fill-opacity:1;fill-rule:nonzero;stroke:none;stroke-width:1.25"
     d="m 66.802332,17.899272 c 1.367996,-1.099997 2.244994,-2.784993 2.244994,-4.675987 0,-3.3129911 -2.685993,-5.9999837 -5.999984,-5.9999837 -2.860992,0 -5.249985,2.0049944 -5.849983,4.6849867 -1.288997,-0.482998 -2.683993,-0.757998 -4.149989,-0.757998 -1.464996,0 -2.860992,0.275 -4.148988,0.757998 -0.600998,-2.6799923 -2.989992,-4.6849867 -5.850984,-4.6849867 -3.312991,0 -5.999983,2.6869926 -5.999983,5.9999837 0,1.890994 0.877997,3.57599 2.244994,4.675987 -2.644993,2.679992 -4.244989,6.008983 -4.244989,9.323974 0,7.455979 8.058978,0.999997 17.99995,0.999997 9.941972,0 17.99995,6.455982 17.99995,-0.999997 0,-3.314991 -1.598995,-6.643982 -4.244988,-9.323974" /><path
     id="path30"
     style="fill:#ffffff;fill-opacity:1;fill-rule:nonzero;stroke:none;stroke-width:1.25"
     d="m 46.04749,12.723486 c 0,1.932995 -1.566996,3.49999 -3.49999,3.49999 -1.932995,0 -3.499991,-1.566995 -3.499991,-3.49999 0,-1.932995 1.566996,-3.4999902 3.499991,-3.4999902 1.932994,0 3.49999,1.5669952 3.49999,3.4999902" /><path
     id="path34"
     style="fill:#292f33;fill-opacity:1;fill-rule:nonzero;stroke:none;stroke-width:1.25"
     d="m 44.047495,12.723486 c 0,0.828998 -0.670998,1.499996 -1.499995,1.499996 -0.828998,0 -1.499996,-0.670998 -1.499996,-1.499996 0,-0.828998 0.670998,-1.499996 1.499996,-1.499996 0.828997,0 1.499995,0.670998 1.499995,1.499996" /><path
     id="path38"
     style="fill:#ffffff;fill-opacity:1;fill-rule:nonzero;stroke:none;stroke-width:1.25"
     d="m 67.047431,12.723486 c 0,1.932995 -1.565995,3.49999 -3.49999,3.49999 -1.933995,0 -3.49999,-1.566995 -3.49999,-3.49999 0,-1.932995 1.565995,-3.4999902 3.49999,-3.4999902 1.933995,0 3.49999,1.5669952 3.49999,3.4999902" /><path
     id="path42"
     style="fill:#292f33;fill-opacity:1;fill-rule:nonzero;stroke:none;stroke-width:1.25"
     d="m 65.047437,12.723486 c 0,0.828998 -0.671998,1.499996 -1.499996,1.499996 -0.827998,0 -1.499996,-0.670998 -1.499996,-1.499996 0,-0.828998 0.671998,-1.499996 1.499996,-1.499996 0.827998,0 1.499996,0.670998 1.499996,1.499996" /><path
     id="path46"
     style="fill:#5c913b;fill-opacity:1;fill-rule:nonzero;stroke:none;stroke-width:1.25"
     d="m 50.047479,25.223451 c 0,0.552999 -0.447999,0.999998 -0.999998,0.999998 -0.551998,0 -0.999997,-0.446999 -0.999997,-0.999998 0,-0.552998 0.447999,-0.999997 0.999997,-0.999997 0.551999,0 0.999998,0.446999 0.999998,0.999997" /><path
     id="path50"
     style="fill:#5c913b;fill-opacity:1;fill-rule:nonzero;stroke:none;stroke-width:1.25"
     d="m 58.047456,25.223451 c 0,0.552999 -0.446999,0.999998 -0.999997,0.999998 -0.552999,0 -0.999997,-0.446999 -0.999997,-0.999998 0,-0.552998 0.446998,-0.999997 0.999997,-0.999997 0.552998,0 0.999997,0.446999 0.999997,0.999997" /></g>
<path
   class="st3"
   d="M36.8,3.1c-0.2-0.2-1.3,0.3-2.4-0.3c-2.3-1.2-8.1-2.3-11.8,0.4c-0.4,0.3-4.1,0.3-4.6,0.3s-4.2,0-4.6-0.3  C9.7,0.5,4,1.7,1.7,2.8C0.6,3.4-0.5,3-0.7,3.1c-0.2,0.4-0.2,1,0,1.4C-0.5,4.8,0.8,5.1,1,5.8s0.2,5,2.2,6.4s6.1,1.8,8.9,0.2  c2.4-1.4,2.3-4.2,2.7-5.9c0.1-0.4,2.6-0.6,3.3-0.6s3.1,0.2,3.3,0.6c0.4,1.7,0.4,4.5,2.7,5.9c2.7,1.5,7,1.1,8.8-0.2  c1.8-1.4,2-5.7,2.2-6.4s1.5-1,1.7-1.2C37.1,4.1,37.1,3.6,36.8,3.1z M12.6,6.8c-0.1,1.1-0.3,3.2-1.6,4c-0.9,0.5-2,0.8-3,0.7h0  c-1.2,0-2.5-0.3-3.6-0.8C3.6,10,3.3,7.5,3.2,6.5C3.1,5.9,2.9,4.4,3.6,4.2c1.3-0.4,2.7-0.6,4.1-0.6c0.7,0,3,0,4.2,0.7  C12.5,4.9,12.9,5.9,12.6,6.8z M32.9,6.5c-0.1,1-0.4,3.5-1.3,4.1c-1.1,0.6-2.3,0.9-3.6,0.8l0,0c-1,0-2.1-0.2-3-0.7  c-1.3-0.8-1.5-2.9-1.6-4c0-0.6-0.2-1.8,0.8-2.5c1.3-0.5,2.7-0.8,4.1-0.7c1.4,0,2.7,0.2,4,0.6C33.2,4.4,33,5.9,32.9,6.5z"
   id="path24" />
</svg>
