<?xml version="1.0" encoding="utf-8"?>
<!-- Generator: Adobe Illustrator 25.0.0, SVG Export Plug-In . SVG Version: 6.00 Build 0)  -->
<svg version="1.1" id="Ebene_1" xmlns="http://www.w3.org/2000/svg" xmlns:xlink="http://www.w3.org/1999/xlink" x="0px" y="0px"
	 viewBox="0 0 2182.4 2182.4" style="enable-background:new 0 0 2182.4 2182.4;" xml:space="preserve">
<style type="text/css">
	.st0{fill:#78B355;}
	.st1{fill:#FFFFFF;}
	.st2{fill:#2A3034;}
	.st3{fill:#77B255;}
	.st4{fill:#E5FAD8;}
	.st5{fill:#A6D388;}
	.st6{fill:#C6E5B3;}
	.st7{fill:#662113;}
	.st8{fill:#7C3225;}
</style>
<g id="Ebene_2_1_">
	<g id="Ebene_1-2">
		<circle class="st0" cx="1235.3" cy="228.6" r="190.8"/>
		<circle class="st1" cx="1219.5" cy="212.6" r="111.3"/>
		<circle class="st2" cx="1219.5" cy="212.6" r="47.7"/>
		<path class="st3" d="M1891.9,492.6c133.1,335.8-79.9,1141.8-583.6,1472.9S174.8,2164.1,24.6,1607.4
			c-92.8-343.8,155.1-595.9,658.7-926.9S1760.8,161.5,1891.9,492.6z"/>
		<path class="st3" d="M1091.8,1611.2c-362.5,252.7-849.6,286.2-1026.5,32.3s23.2-699.1,385.9-951.7
			c362.5-252.6,1220-544.5,1396.9-290.7C2025.1,655.1,1454.4,1358.5,1091.8,1611.2"/>
		<path class="st4" d="M992.2,1677.2c-312.3,181.1-702.5,123.8-849.6-87.4c-97.3-139.7-63-346.6,54.2-536.6
			c-7.3,20.8-43.8,127.3-26.7,135.3c6.3,2.9,37.9,4.9,80.8,9c86.9,8.3,219.7,25.4,279.6,77.1c72.6,62.6,167.4,220.3,241.2,314.6
			c24.1,30.8,45.9,54.8,64,66.5C900.9,1698,975.9,1681.5,992.2,1677.2z"/>
		<path class="st5" d="M1047.9,1641.7c-18.3,12.7-36.9,24.6-55.8,35.5c-16.2,4.3-91.3,20.8-156.5-21.5c-18.1-11.7-39.9-35.7-64-66.5
			c-73.8-94.3-168.6-252.1-241.2-314.6c-59.9-51.6-192.8-68.7-279.6-77.1c-42.8-4.1-74.5-6.1-80.8-9c-17.2-8,19.3-114.4,26.7-135.3
			C267.5,938.5,368.5,829.9,488.9,746C808.8,523.1,1614.9,231.1,1771,455.1C1927.1,679.1,1502.9,1354.1,1047.9,1641.7z"/>
		<path class="st6" d="M956.5,1494.3c-59.7,41.6-122.3,73.2-184.8,94.9c-73.8-94.3-168.6-252.1-241.2-314.6
			c-59.9-51.6-192.8-68.7-279.6-77.1c38.4-121.7,130.1-245.3,263.2-338c250.5-174.6,880.1-402.3,1002.4-227
			S1207,1319.7,956.5,1494.3z"/>
		<path class="st7" d="M567,858.5c193.4-129.6,410.3-83.1,544.6,55.3c79.7,82.1-48.9,299.1-242.3,428.7s-431.8,98-457.9,40.6
			C331.4,1207.8,373.8,988.1,567,858.5z"/>
		<path class="st8" d="M673.1,892.9c83.9-56.3,189.8-45.5,236.4,24c46.5,69.5,16.3,171.6-67.6,227.9
			c-83.9,56.1-189.8,45.4-236.4-24.1S589.2,949.1,673.1,892.9z"/>
		
			<ellipse transform="matrix(0.7071 -0.7071 0.7071 0.7071 53.8916 1627.606)" class="st0" cx="1991.6" cy="748.8" rx="190.8" ry="190.8"/>
		<circle class="st1" cx="2007.5" cy="732.8" r="111.3"/>
		
			<ellipse transform="matrix(0.3827 -0.9239 0.9239 0.3827 562.2104 2307.0671)" class="st2" cx="2007.5" cy="732.8" rx="47.7" ry="47.7"/>
	</g>
</g>
</svg>
