<?xml version="1.0" encoding="UTF-8" standalone="no"?>
<svg
   xmlns:dc="http://purl.org/dc/elements/1.1/"
   xmlns:cc="http://creativecommons.org/ns#"
   xmlns:rdf="http://www.w3.org/1999/02/22-rdf-syntax-ns#"
   xmlns:svg="http://www.w3.org/2000/svg"
   xmlns="http://www.w3.org/2000/svg"
   xmlns:sodipodi="http://sodipodi.sourceforge.net/DTD/sodipodi-0.dtd"
   xmlns:inkscape="http://www.inkscape.org/namespaces/inkscape"
   viewBox="0 0 36 36"
   version="1.1"
   id="svg3791"
   sodipodi:docname="1f438.svg"
   inkscape:export-filename="/tmp/texasfrog.png"
   inkscape:export-xdpi="96"
   inkscape:export-ydpi="96"
   inkscape:version="0.92.4 5da689c313, 2019-01-14">
  <metadata
     id="metadata3797">
    <rdf:RDF>
      <cc:Work
         rdf:about="">
        <dc:format>image/svg+xml</dc:format>
        <dc:type
           rdf:resource="http://purl.org/dc/dcmitype/StillImage" />
      </cc:Work>
    </rdf:RDF>
  </metadata>
  <defs
     id="defs3795" />
  <sodipodi:namedview
     pagecolor="#ffffff"
     bordercolor="#666666"
     borderopacity="1"
     objecttolerance="10"
     gridtolerance="10"
     guidetolerance="10"
     inkscape:pageopacity="0"
     inkscape:pageshadow="2"
     inkscape:window-width="1920"
     inkscape:window-height="1030"
     id="namedview3793"
     showgrid="false"
     inkscape:zoom="14.722222"
     inkscape:cx="2.343543"
     inkscape:cy="22.552825"
     inkscape:window-x="1600"
     inkscape:window-y="50"
     inkscape:window-maximized="0"
     inkscape:current-layer="svg3791" />
  <path
     d="m 32.627559,26.390543 c 0,5.951919 -6.565439,9.579268 -14.66409,9.579268 -8.0986508,0 -14.6640899,-3.627349 -14.6640899,-9.579268 0,-5.951918 6.5654391,-11.974084 14.6640899,-11.974084 8.098651,0 14.66409,6.022166 14.66409,11.974084 z"
     id="path3775"
     inkscape:connector-curvature="0"
     style="fill:#c6e5b3;stroke-width:0.80643034" />
  <path
     d="m 29.169278,18.947453 c 1.11447,-0.878099 1.828939,-2.223188 1.828939,-3.732721 0,-2.644676 -2.189025,-4.789633 -4.888032,-4.789633 -2.330774,0 -4.277025,1.599737 -4.766643,3.739905 -1.049297,-0.385566 -2.185764,-0.60509 -3.380073,-0.60509 -1.193494,0 -2.330776,0.219524 -3.380072,0.60509 -0.489618,-2.140168 -2.435869,-3.739905 -4.7666448,-3.739905 -2.699007,0 -4.8880297,2.144957 -4.8880297,4.789633 0,1.509533 0.7144669,2.854622 1.8289378,3.732721 -2.1548066,2.13937 -3.4582812,4.796819 -3.4582812,7.44309 0,5.951919 6.5654391,0.798274 14.6640899,0.798274 8.098651,0 14.66409,5.153645 14.66409,-0.798274 0,-2.646271 -1.303475,-5.30372 -3.458281,-7.44309 z"
     id="path3777"
     inkscape:connector-curvature="0"
     style="fill:#77b255;stroke-width:0.80643034" />
  <ellipse
     cx="9.4094162"
     cy="14.815596"
     id="circle3779"
     rx="2.851351"
     ry="2.7939532"
     style="fill:#ffffff;stroke-width:0.80643034" />
  <ellipse
     cx="9.4094162"
     cy="14.815596"
     id="circle3781"
     rx="1.2220075"
     ry="1.1974084"
     style="fill:#292f33;stroke-width:0.80643034" />
  <ellipse
     cx="26.517521"
     cy="14.815596"
     id="circle3783"
     rx="2.851351"
     ry="2.7939532"
     style="fill:#ffffff;stroke-width:0.80643034" />
  <ellipse
     cx="26.517521"
     cy="14.815596"
     id="circle3785"
     rx="1.2220075"
     ry="1.1974084"
     style="fill:#292f33;stroke-width:0.80643034" />
  <ellipse
     cx="14.704782"
     cy="24.793999"
     id="circle3787"
     rx="0.8146717"
     ry="0.79827225"
     style="fill:#5c913b;stroke-width:0.80643034" />
  <ellipse
     cx="21.222157"
     cy="24.793999"
     id="circle3789"
     rx="0.8146717"
     ry="0.79827225"
     style="fill:#5c913b;stroke-width:0.80643034" />
  <g
     id="g4545"
     transform="matrix(1.0023345,0,0,1.0019517,-0.11031036,-0.04819973)">
    <path
       inkscape:connector-curvature="0"
       d="m 13.602187,0.08702098 c -2.720257,0 -4.0747542,5.52252172 -4.3903475,7.00899492 C 7.3321734,6.9317113 5.3550784,6.4377402 4.1740845,5.0459839 2.0373787,2.5272917 -0.78866447,4.3828008 0.6424223,7.1469836 2.9031822,11.512652 8.3720694,14.584484 18.068131,14.584484 c 9.695066,0 15.163955,-3.071832 17.425707,-7.4375004 C 36.924925,4.3828008 34.098882,2.5272914 31.962177,5.0459839 30.781182,6.4387068 28.804088,6.9317113 26.924422,7.0960159 26.608829,5.6095427 25.25433,0.08702098 22.534074,0.08702098 c -2.384814,0 -3.24426,1.05521902 -4.465943,1.05521902 -1.221684,0 -2.081131,-1.05521902 -4.465944,-1.05521902 z M 14.226334,18.018193 c -0.05143,0.02061 -0.103944,0.03907 -0.155068,0.06041 0.01551,-3.21e-4 0.03102,-0.0015 0.04652,-0.0019 0.04234,-0.01813 0.08399,-0.03776 0.125993,-0.05662 -0.0058,-9.46e-4 -0.01168,-9.45e-4 -0.01745,-0.0019 z m 0.28106,0.730536 c -0.01678,0.0076 -0.03344,0.01546 -0.05039,0.02266 0.0168,5.29e-4 0.03359,0.0015 0.05039,0.0019 6.56e-4,-0.008 -6.19e-4,-0.01653 0,-0.02454 z m 7.166055,1.002363 c 0.0077,0.01588 0.01537,0.03154 0.02326,0.04719 7.79e-4,0.0012 0.0012,0.0025 0.002,0.0038 0.0015,-0.0069 0.0024,-0.01387 0.0039,-0.02076 -0.0089,-0.01079 -0.01807,-0.02191 -0.02908,-0.0302 z m 2.362841,1.079758 c -0.05133,0.01057 -0.101928,0.02468 -0.15313,0.03587 0.03275,-0.0027 0.0971,-0.0063 0.133747,-0.0075 0.02188,-0.0098 0.04435,-0.01752 0.06591,-0.02832 -0.01584,-10e-5 -0.03104,2.77e-4 -0.04652,0 z m 1.521599,3.832012 c -0.0082,0.009 -0.01702,0.01737 -0.0252,0.02642 -4.23e-4,0.0025 -0.0016,0.0051 -0.002,0.0075 0.008,-0.01136 0.01991,-0.02349 0.02713,-0.03399 z"
       style="fill:#664500;stroke-width:0.97937888"
       id="path4" />
    <g
       id="g4539">
      <path
         d="m 21.541437,2.0205247 c -1.854855,0 -2.523754,0.9317037 -3.473511,0.9317037 -0.949758,0 -1.618657,-0.9317037 -3.473512,-0.9317037 -2.44436,0 -3.473511,6.5238581 -3.473511,6.5238581 0,0 1.272297,2.1746192 6.947023,2.1746192 5.675718,0 6.947023,-2.1746192 6.947023,-2.1746192 0,0 -1.029152,-6.5238581 -3.473512,-6.5238581 z"
         id="path6"
         inkscape:connector-curvature="0"
         style="fill:#825d0e;stroke-width:0.97937888" />
      <path
         d="m 11.120903,4.9200174 c 0,0 2.058303,1.9329949 6.947023,1.9329949 4.889712,0 6.947023,-1.9329949 6.947023,-1.9329949 v 1.9329949 c 0,0 -2.205184,1.9329949 -6.947023,1.9329949 -4.74184,0 -6.947023,-1.9329949 -6.947023,-1.9329949 z"
         id="path8"
         inkscape:connector-curvature="0"
         style="fill:#664500;stroke-width:0.97937888" />
    </g>
  </g>
</svg>
