<?xml version="1.0" encoding="utf-8"?>
<!-- Generator: Adobe Illustrator 26.0.1, SVG Export Plug-In . SVG Version: 6.00 Build 0)  -->
<svg version="1.1" id="Ebene_1" xmlns="http://www.w3.org/2000/svg" xmlns:xlink="http://www.w3.org/1999/xlink" x="0px" y="0px"
	 viewBox="0 0 36 36" style="enable-background:new 0 0 36 36;" xml:space="preserve">
<style type="text/css">
	.st0{fill:#C6E5B3;}
	.st1{fill:#77B255;}
	.st2{fill:#FFFFFF;}
	.st3{fill:#292F33;}
	.st4{fill:#5C913B;}
	.st5{fill:#3F6328;}
</style>
<g>
	<path class="st0" d="M35.9,22.7c0,6.1-6.7,9.8-14.9,9.8S6.1,28.8,6.1,22.7H35.9z"/>
	<path class="st1" d="M32.4,15.1c1.1-0.9,1.9-2.3,1.9-3.8c0-2.7-2.2-4.9-5-4.9c-2.4,0-4.4,1.6-4.9,3.8c-1.1-0.4-2.2-0.6-3.4-0.6
		c-1.2,0-2.4,0.2-3.4,0.6c-0.5-2.2-2.5-3.8-4.9-3.8c-2.7,0-5,2.2-5,4.9c0,1.5,0.7,2.9,1.9,3.8c-2.2,2.2-3.5,4.9-3.5,7.6
		c0,6.1,6.7,0.8,14.9,0.8s14.9,5.3,14.9-0.8C35.9,20,34.6,17.3,32.4,15.1z"/>
	<ellipse class="st2" cx="12.3" cy="10.8" rx="2.9" ry="2.9"/>
	<ellipse class="st3" cx="12.3" cy="10.8" rx="1.2" ry="1.2"/>
	<ellipse class="st2" cx="29.7" cy="10.8" rx="2.9" ry="2.9"/>
	<ellipse class="st3" cx="29.7" cy="10.8" rx="1.2" ry="1.2"/>
	<ellipse class="st4" cx="17.7" cy="21.1" rx="0.8" ry="0.8"/>
	<ellipse class="st4" cx="24.3" cy="21.1" rx="0.8" ry="0.8"/>
</g>
<g>
	<path class="st4" d="M17.7,3.2c-0.1-0.5-0.5-0.8-1-0.9c-0.2,0-0.4,0-0.6,0.1l-4.5,1.9C9,5.2,9.2,5.1,8.8,5.3C8.1,5.8,7.2,6.5,5.7,8
		c-1.3,1.2-5.7,2-5.7,6.2c0,1.7,1.3,3,3.1,3c1.9,0,2.9-1,3.5-1.7c0.3-0.4,0.7-0.7,1.2-0.9c3-1.4,1.7-2.7,4-5.6
		c0.2-0.2,0.1-0.6-0.1-0.8c0,0-0.1,0-0.1-0.1L16.9,5c0.5-0.3,0.7-0.8,0.5-1.3l0.1,0C17.6,3.6,17.7,3.4,17.7,3.2z"/>
	<path class="st5" d="M17.6,3.3c-0.1-0.1-0.2-0.2-0.4-0.1c0,0,0,0,0,0l-2.1,1c0.1-0.3,0.1-0.6-0.1-0.9C15.1,3.2,15,3.1,14.9,3
		l-0.6,0.2c0.2,0.1,0.3,0.2,0.3,0.3c0.2,0.4,0,0.9-0.5,1.2l-2,1c0.2-0.4,0.3-0.8,0.2-1.2c0-0.1-0.1-0.2-0.2-0.4l-0.5,0.2
		c0.1,0.1,0.2,0.2,0.2,0.3C12,5.1,11.5,6,10.6,6.4C9.7,6.8,9.4,7.5,9.1,8.3C8.9,8.7,8.8,9.1,8.5,9.5c-0.7,1.1-2.3,3-3,3.7
		c-0.1,0.1-0.1,0.3,0,0.4s0.3,0.1,0.4,0l0,0C6.6,12.9,8.3,11,9,9.8l0,0l0,0c0.7-1.3,1.5-1.8,1.9-1.7c0.3,0.1,0.4,0.4,0.4,0.6
		c0,0.1,0.2,0.3,0.3,0.2c0.1,0,0.2-0.1,0.2-0.3c-0.1-0.6-0.4-1-0.9-1.1c-0.3-0.1-0.7,0-1.1,0.3c0.2-0.4,0.5-0.7,1-1
		c0,0,0.1,0,0.1-0.1c0,0,0,0,0,0l6.4-3.1c0,0,0,0,0,0l0.1,0c0.1-0.1,0.2-0.1,0.2-0.3C17.7,3.4,17.7,3.4,17.6,3.3z"/>
</g>
</svg>
