<?xml version="1.0" encoding="utf-8"?>
<!-- Generator: Adobe Illustrator 25.0.0, SVG Export Plug-In . SVG Version: 6.00 Build 0)  -->
<svg version="1.1" id="Ebene_1" xmlns="http://www.w3.org/2000/svg" xmlns:xlink="http://www.w3.org/1999/xlink" x="0px" y="0px"
	 viewBox="0 0 36 36" style="enable-background:new 0 0 36 36;" xml:space="preserve">
<style type="text/css">
	.st0{fill:#77B255;}
	.st1{fill:#C6E5B3;}
	.st2{fill:#5C913B;}
	.st3{fill:#3D6028;}
	.st4{fill:#99AAB5;}
	.st5{fill:#292F33;}
	.st6{fill:#FFFFFF;}
	.st7{fill:none;}
</style>
<g id="Ebene_2_1_">
	<g id="Ebene_1-2">
		<path class="st0" d="M3,9l4.8,23.2c0,0,2.2,2.8,10.2,2.8s10.2-2.8,10.2-2.8L33,9H3z"/>
		<path class="st1" d="M27.9,32.5C27,33.2,24.3,35,18,35s-9-1.8-9.9-2.5c0,0,3.2-1.9,9.8-1.9S27.9,32.5,27.9,32.5z"/>
		<path class="st2" d="M2,5h32v4H2V5z"/>
		<ellipse class="st2" cx="18" cy="9" rx="16" ry="4"/>
		<ellipse class="st0" cx="18" cy="5" rx="16" ry="4"/>
		<ellipse class="st3" cx="18" cy="4.6" rx="15" ry="3.4"/>
		<path class="st4" d="M18,26.4c-9.7-0.1-17.5-8-17.4-17.7c0-0.6,0.4-1,1-1c0.6,0,1,0.4,1,1C2.5,17.3,9.4,24.3,18,24.4
			c8.6-0.1,15.5-7.1,15.4-15.7c0-0.6,0.4-1,1-1s1,0.4,1,1C35.5,18.4,27.7,26.3,18,26.4z"/>
		<path class="st5" d="M25.4,23.8c0,1.8-3.3,3.2-7.4,3.2s-7.4-1.4-7.4-3.2s2.1,0,7.4,0S25.4,22.1,25.4,23.8z"/>
		<circle class="st2" cx="21.2" cy="28.1" r="0.9"/>
		<circle class="st2" cx="14.9" cy="28.1" r="0.9"/>
		<circle class="st6" cx="26.4" cy="18.2" r="3"/>
		<circle class="st5" cx="26.4" cy="18.2" r="1.3"/>
		<circle class="st6" cx="9.6" cy="18.2" r="3"/>
		<circle class="st5" cx="9.6" cy="18.2" r="1.3"/>
		<rect y="0" class="st7" width="36" height="36"/>
	</g>
</g>
</svg>
