<?xml version="1.0" encoding="utf-8"?>
<!-- Generator: Adobe Illustrator 25.0.0, SVG Export Plug-In . SVG Version: 6.00 Build 0)  -->
<svg version="1.1" id="Ebene_1" xmlns="http://www.w3.org/2000/svg" xmlns:xlink="http://www.w3.org/1999/xlink" x="0px" y="0px"
	 viewBox="0 0 36 36" style="enable-background:new 0 0 36 36;" xml:space="preserve">
<style type="text/css">
	.st0{fill:#FFCC4D;}
	.st1{fill:#FFAC33;}
	.st2{fill:#58595B;}
	.st3{fill:#DD2E44;}
	.st4{fill:#E6E7E8;}
	.st5{fill:#C6E5B3;}
	.st6{fill:#77B255;}
	.st7{fill:#FFFFFF;}
	.st8{fill:#292F33;}
	.st9{fill:#5C913B;}
	.st10{fill:#414042;}
</style>
<g id="Ebene_2_1_">
	<g id="Ebene_1-2">
		<path class="st0" d="M20,6c0,1.1-0.9,2-2,2s-2-0.9-2-2V2c0-1.1,0.9-2,2-2s2,0.9,2,2V6z"/>
		<path class="st1" d="M9.2,36c-0.2,0-0.5-0.1-0.7-0.2c-0.7-0.4-1-1.3-0.7-2l8.9-18.1c0.3-0.7,1.2-1,2-0.7c0.3,0.1,0.6,0.4,0.7,0.7
			l8.9,18.1c0.4,0.7,0.1,1.6-0.7,2c-0.7,0.4-1.6,0.1-2-0.7c0,0,0,0,0,0l-7.6-15.4l-7.6,15.4C10.3,35.7,9.7,36,9.2,36z"/>
		<path class="st2" d="M18.1,20.4c-0.3,0-0.5-0.1-0.7-0.3L3.5,6c-0.4-0.4-0.4-1,0-1.4c0,0,0,0,0,0c0.4-0.4,1-0.4,1.4,0L18.1,18
			L31.3,4.6c0.4-0.4,1-0.4,1.4,0c0.4,0.4,0.4,1,0,1.4c0,0,0,0,0,0L18.8,20.1C18.6,20.3,18.4,20.4,18.1,20.4z"/>
		<path class="st3" d="M34,19.4c0.1,8.8-7,16-15.9,16.1c-8.8-0.1-16-7.3-15.9-16.1c0,0,0,0,0,0c-0.1-8.8,7-16.1,15.9-16.1
			c0,0,0,0,0,0C27,3.3,34.1,10.6,34,19.4C34,19.4,34,19.4,34,19.4z"/>
		<path class="st4" d="M30,19.4c-0.1,6.6-5.5,11.8-12.1,11.7C11.3,31,6.1,25.6,6.2,19c0.1-6.5,5.4-11.8,12-11.7
			C24.7,7.4,30,12.8,30,19.4z"/>
		<path class="st0" d="M30,1.3c-1.6,0-3.1,0.6-4.2,1.7l8.4,8.5c1.1-1.1,1.7-2.7,1.7-4.2C36,4,33.4,1.3,30,1.3C30,1.3,30,1.3,30,1.3z
			 M6,1.3c1.6,0,3.1,0.6,4.2,1.7l-8.4,8.6c-2.4-2.4-2.3-6.2,0-8.6C2.9,1.9,4.4,1.3,6,1.3z"/>
		<path class="st5" d="M28.3,22.2c0,4.4-4.7,7-10.5,7s-10.5-2.6-10.5-7s4.7-8.8,10.5-8.8S28.3,17.9,28.3,22.2z"/>
		<path class="st6" d="M25.8,16.8c1.5-1.2,1.7-3.4,0.5-4.9c-1.2-1.5-3.4-1.7-4.9-0.5c-0.6,0.5-1,1.2-1.2,1.9c-1.6-0.6-3.3-0.6-4.8,0
			c-0.4-1.9-2.3-3.1-4.2-2.7c-1.6,0.4-2.8,1.8-2.8,3.4c0,1.1,0.5,2.1,1.3,2.7c-1.5,1.4-2.4,3.4-2.5,5.4c0,4.4,4.7,0.6,10.5,0.6
			s10.5,3.8,10.5-0.6C28.2,20.2,27.3,18.2,25.8,16.8z"/>
		<circle class="st7" cx="11.6" cy="13.8" r="2"/>
		<circle class="st8" cx="11.6" cy="13.8" r="0.9"/>
		<circle class="st7" cx="23.9" cy="13.8" r="2"/>
		<circle class="st8" cx="23.9" cy="13.8" r="0.9"/>
		<circle class="st9" cx="15.4" cy="21.1" r="0.6"/>
		<circle class="st9" cx="20.1" cy="21.1" r="0.6"/>
		<path class="st10" d="M23,20h-5c-0.6,0-1-0.4-1-1v-9c0-0.6,0.4-1,1-1s1,0.4,1,1v8h4c0.6,0,1,0.4,1,1S23.6,20,23,20z"/>
	</g>
</g>
</svg>
