<svg xmlns="http://www.w3.org/2000/svg" viewBox="0 0 1960.67 1960.67"><defs><style>.cls-1{fill:#5c913b;}.cls-2{fill:#77b255;}.cls-3{fill:#c6e5b3;}.cls-4{fill:#fff;}.cls-5{fill:#292f33;}.cls-6{fill:none;}</style></defs><g id="Ebene_2" data-name="Ebene 2"><g id="Ebene_1-2" data-name="Ebene 1"><path class="cls-1" d="M1518.83,1677.38c48.34-43.45,77.85-47,83.9-30.17s46.85,70.84,41.46,82.23-70.29,68-92.8,71.29-65.62-30.89-92.46-33.06C1458.93,1767.67,1470.54,1720.83,1518.83,1677.38Z"/><path class="cls-2" d="M60.3,422.94C174.43,180.5,376.52,91.21,431.19,64.37,503.71,28.81,1138.43,115,1484.77,326.81c539.48,329.89,500.64,860.87,446.13,1028.84-40.17,123.92-133,254.49-245.32,299.17-85.12,33.89-158.75,91.85-248.6,167.31C1302.63,1935,929.12,1937.7,676.57,1789.9-80.45,1346.93-53.83,665.37,60.3,422.94Z"/><path class="cls-3" d="M327.29,1381.49c-279.44-346.61-277-741.91-197.87-854.93,12.58-18,49-9.14,49.07,34.15.46,326,308,315.8,577,581.1C1008.91,1362.12,936,1666.16,1331,1686.49c134.58,14.28-83.35,215.32-375,133C833.15,1784.73,606.73,1728.11,327.29,1381.49Z"/><circle class="cls-4" cx="874.74" cy="432.62" r="133.29"/><circle class="cls-5" cx="874.74" cy="432.62" r="56.2"/><circle class="cls-4" cx="1445.8" cy="992.43" r="133.29"/><circle class="cls-5" cx="1445.8" cy="992.43" r="56.2"/><circle class="cls-1" cx="935.98" cy="1158.98" r="37.61"/><circle class="cls-1" cx="717.91" cy="945.57" r="37.61"/><path class="cls-1" d="M1593.57,1586.86c-13.62-78-89.63-116.19-105.08-253.88-21.11-188.58,120.63-706.73,120.63-706.73s223.27,185.42,229.6,666.34c2.39,180.42-153.92,395.29-274.72,434C1564,1726.61,1606.29,1659.37,1593.57,1586.86Z"/><rect class="cls-6" width="1960.67" height="1960.67"/></g></g></svg>