<svg xmlns="http://www.w3.org/2000/svg" viewBox="0 0 36 36"><defs><style>.cls-1{fill:#c6e5b3;}.cls-2{fill:#5c913b;}.cls-3{fill:#77b255;}.cls-4{fill:#fff;}.cls-5{fill:#292f33;}.cls-6{fill:none;}</style></defs><g id="Ebene_2" data-name="Ebene 2"><g id="Ebene_1-2" data-name="Ebene 1"><path class="cls-1" d="M2.47,6.57A17.11,17.11,0,0,0,1,13.5,17.76,17.76,0,0,0,19,31,18,18,0,0,0,35.87,19.56Z"/><path class="cls-2" d="M4.33,7.29A15.2,15.2,0,0,0,3,13.5,15.78,15.78,0,0,0,19,29.06,16,16,0,0,0,34,18.84Z"/><path class="cls-3" d="M6.19,8A13.25,13.25,0,0,0,5,13.5,13.81,13.81,0,0,0,19,27.11a14,14,0,0,0,13.16-9Z"/><circle class="cls-3" cx="9.81" cy="9.41" r="3.88"/><circle class="cls-4" cx="9.65" cy="8.97" r="2.24"/><circle class="cls-5" cx="9.65" cy="8.97" r="0.96"/><circle class="cls-3" cx="28.54" cy="16.73" r="3.88"/><circle class="cls-4" cx="28.95" cy="16.51" r="2.24"/><circle class="cls-5" cx="28.95" cy="16.51" r="0.96"/><path class="cls-5" d="M9.92,14.28c-.31.46-.74.7-1,.55s-.17-.65.13-1.11.75-.71,1-.55S10.22,13.82,9.92,14.28Zm6,1c-.31.46-.74.7-1,.55s-.17-.65.13-1.11.75-.71,1-.55S16.22,14.82,15.92,15.28ZM21,20c.05.56-.13,1-.41,1.05s-.54-.4-.59-1,.14-1,.41-1S21,19.4,21,20Zm-9-2c.05.56-.13,1-.41,1.05s-.54-.4-.59-1,.14-1,.41-1S12,17.4,12,18Zm3.9,5.35c-.33.44-.78.66-1,.5s-.13-.66.2-1.1.79-.66,1-.5S16.23,22.86,15.9,23.3Zm8,.45c.27.49.29,1,.06,1.12s-.66-.14-.93-.62-.3-1-.06-1.12S23.66,23.27,23.94,23.75Zm-7-5c.3.46.36.95.13,1.11s-.66-.1-1-.57-.36-.95-.13-1.1S16.62,18.26,16.92,18.73Zm9,1.57c-.33.44-.78.66-1,.5s-.13-.66.2-1.1.78-.66,1-.5S26.23,19.86,25.9,20.3Z"/><rect class="cls-6" width="36" height="36"/></g></g></svg>