<?xml version="1.0" encoding="UTF-8" standalone="no"?>
<svg
   xmlns:dc="http://purl.org/dc/elements/1.1/"
   xmlns:cc="http://creativecommons.org/ns#"
   xmlns:rdf="http://www.w3.org/1999/02/22-rdf-syntax-ns#"
   xmlns:svg="http://www.w3.org/2000/svg"
   xmlns="http://www.w3.org/2000/svg"
   xmlns:sodipodi="http://sodipodi.sourceforge.net/DTD/sodipodi-0.dtd"
   xmlns:inkscape="http://www.inkscape.org/namespaces/inkscape"
   viewBox="0 0 45 45"
   style="enable-background:new 0 0 45 45;"
   xml:space="preserve"
   version="1.1"
   id="svg2"
   sodipodi:docname="winefrog.svg"
   inkscape:export-xdpi="273.06699"
   inkscape:export-ydpi="273.06699"
   inkscape:version="0.92.4 5da689c313, 2019-01-14"><sodipodi:namedview
     pagecolor="#ffffff"
     bordercolor="#666666"
     borderopacity="1"
     objecttolerance="10"
     gridtolerance="10"
     guidetolerance="10"
     inkscape:pageopacity="0"
     inkscape:pageshadow="2"
     inkscape:window-width="1920"
     inkscape:window-height="1030"
     id="namedview26"
     showgrid="false"
     inkscape:zoom="14.833529"
     inkscape:cx="21.016616"
     inkscape:cy="25.826402"
     inkscape:window-x="1600"
     inkscape:window-y="50"
     inkscape:window-maximized="0"
     inkscape:current-layer="svg2" /><metadata
     id="metadata8"><rdf:RDF><cc:Work
         rdf:about=""><dc:format>image/svg+xml</dc:format><dc:type
           rdf:resource="http://purl.org/dc/dcmitype/StillImage" /><dc:title></dc:title></cc:Work></rdf:RDF></metadata><defs
     id="defs6"><clipPath
       id="clipPath16"
       clipPathUnits="userSpaceOnUse"><path
         id="path18"
         d="M 0,36 36,36 36,0 0,0 0,36 Z" /></clipPath></defs><g
     transform="matrix(1.25,0,0,-1.25,0,45)"
     id="g10"><g
       id="g12"><g
         clip-path="url(#clipPath16)"
         id="g14"><g
           transform="translate(36,14)"
           id="g20"><path
             id="path22"
             style="fill:#c6e5b3;fill-opacity:1;fill-rule:nonzero;stroke:none"
             d="m 0,0 c 0,-7.456 -8.059,-12 -18,-12 -9.941,0 -18,4.544 -18,12 0,7.456 8.059,15 18,15 C -8.059,15 0,7.456 0,0" /></g><g
           transform="translate(31.7549,23.3242)"
           id="g24"><path
             id="path26"
             style="fill:#77b255;fill-opacity:1;fill-rule:nonzero;stroke:none"
             d="m 0,0 c 1.368,1.1 2.245,2.785 2.245,4.676 0,3.313 -2.686,6 -6,6 -2.861,0 -5.25,-2.005 -5.85,-4.685 -1.289,0.483 -2.684,0.758 -4.15,0.758 -1.465,0 -2.861,-0.275 -4.149,-0.758 -0.601,2.68 -2.99,4.685 -5.851,4.685 -3.313,0 -6,-2.687 -6,-6 0,-1.891 0.878,-3.576 2.245,-4.676 -2.645,-2.68 -4.245,-6.009 -4.245,-9.324 0,-7.456 8.059,-1 18,-1 9.942,0 18,-6.456 18,1 C 4.245,-6.009 2.646,-2.68 0,0" /></g><g
           transform="translate(11,28.5)"
           id="g28"><path
             id="path30"
             style="fill:#ffffff;fill-opacity:1;fill-rule:nonzero;stroke:none"
             d="M 0,0 C 0,-1.933 -1.567,-3.5 -3.5,-3.5 -5.433,-3.5 -7,-1.933 -7,0 -7,1.933 -5.433,3.5 -3.5,3.5 -1.567,3.5 0,1.933 0,0" /></g><g
           transform="translate(9,28.5)"
           id="g32"><path
             id="path34"
             style="fill:#292f33;fill-opacity:1;fill-rule:nonzero;stroke:none"
             d="M 0,0 C 0,-0.829 -0.671,-1.5 -1.5,-1.5 -2.329,-1.5 -3,-0.829 -3,0 -3,0.829 -2.329,1.5 -1.5,1.5 -0.671,1.5 0,0.829 0,0" /></g><g
           transform="translate(32,28.5)"
           id="g36"><path
             id="path38"
             style="fill:#ffffff;fill-opacity:1;fill-rule:nonzero;stroke:none"
             d="M 0,0 C 0,-1.933 -1.566,-3.5 -3.5,-3.5 -5.434,-3.5 -7,-1.933 -7,0 -7,1.933 -5.434,3.5 -3.5,3.5 -1.566,3.5 0,1.933 0,0" /></g><g
           transform="translate(30,28.5)"
           id="g40"><path
             id="path42"
             style="fill:#292f33;fill-opacity:1;fill-rule:nonzero;stroke:none"
             d="M 0,0 C 0,-0.829 -0.672,-1.5 -1.5,-1.5 -2.328,-1.5 -3,-0.829 -3,0 -3,0.829 -2.328,1.5 -1.5,1.5 -0.672,1.5 0,0.829 0,0" /></g><g
           transform="translate(15,16)"
           id="g44"><path
             id="path46"
             style="fill:#5c913b;fill-opacity:1;fill-rule:nonzero;stroke:none"
             d="m 0,0 c 0,-0.553 -0.448,-1 -1,-1 -0.552,0 -1,0.447 -1,1 0,0.553 0.448,1 1,1 0.552,0 1,-0.447 1,-1" /></g><g
           transform="translate(23,16)"
           id="g48"><path
             id="path50"
             style="fill:#5c913b;fill-opacity:1;fill-rule:nonzero;stroke:none"
             d="m 0,0 c 0,-0.553 -0.447,-1 -1,-1 -0.553,0 -1,0.447 -1,1 0,0.553 0.447,1 1,1 0.553,0 1,-0.447 1,-1" /></g></g></g></g><g
     id="g4558"
     transform="matrix(0.80755142,0,0,0.80755142,8.0179435,7.2191615)"><path
       id="path2"
       d="m 35.733356,30.994551 c 0,0 10.042,-2.213 10.042,-16.005 0,-1.481 -1.167,-2.25 -3.416,-2.25 h -16.497 c -1.125,0 -3.329,-0.262 -3.329,2.125 0,13.708 10.2,16.13 10.2,16.13 v 10.123 c 0,0 -4.584,2.34 -5.498,2.883 -0.984,0.562 -0.33,1.462 0.063,1.617 0.656,0.258 2.253,1.102 6.78,1.102 4.641,0 6.202,-0.914 6.765,-1.102 0.217,-0.072 1.347,-0.932 0.011,-1.723 -2.378,-1.408 -5.121,-2.777 -5.121,-2.777 z"
       style="fill:#8899a6"
       inkscape:connector-curvature="0" /><path
       id="path4"
       d="m 45.733356,14.181551 c 0,1.621 -3.547,2.935 -11.623,2.935 -8.076,0 -11.623,-1.314 -11.623,-2.935 0,-1.622 3.547,-2.935 11.623,-2.935 8.076,0 11.623,1.314 11.623,2.935 z"
       style="fill:#ccd6dd"
       inkscape:connector-curvature="0" /><path
       id="path6"
       d="m 24.191356,14.322551 c 2.042,9.5 5.458,12.792 8.699,13.835 1.11,0.358 2.026,0.428 2.801,0.123 3.5,-1.375 7.542,-5.667 8.167,-13.583 0.161,-2.037 -19.667,-0.375 -19.667,-0.375 z"
       style="fill:#ccd6dd"
       inkscape:connector-curvature="0" /><path
       id="path8"
       d="m 25.733356,20.239551 c 0,3.5 3.333,8.5 8.333,8.5 5,0 8.667,-5.458 8.667,-8.458 -6,0 -17,-0.042 -17,-0.042 z"
       style="fill:#a0041e"
       inkscape:connector-curvature="0" /><ellipse
       id="ellipse10"
       ry="1.5"
       rx="8.5"
       cy="20.239552"
       cx="34.233353"
       style="fill:#dd2e44" /><path
       id="path12"
       d="m 33.901356,17.398551 c -5.03,0 -8.783,-1.11 -9.801,-1.587 -0.5,-0.234 -0.715,-0.83 -0.481,-1.33 0.234,-0.501 0.831,-0.716 1.33,-0.481 1.239,0.582 9.455,2.894 18.596,-0.127 0.523,-0.174 1.088,0.112 1.262,0.636 0.174,0.524 -0.111,1.09 -0.636,1.264 -3.676,1.214 -7.209,1.625 -10.27,1.625 z"
       style="fill:#ffffff"
       inkscape:connector-curvature="0" /></g></svg>