<?xml version="1.0" encoding="utf-8"?>
<!-- Generator: Adobe Illustrator 25.0.0, SVG Export Plug-In . SVG Version: 6.00 Build 0)  -->
<svg version="1.1" id="Ebene_1" xmlns="http://www.w3.org/2000/svg" xmlns:xlink="http://www.w3.org/1999/xlink" x="0px" y="0px"
	 viewBox="0 0 291.8 291.8" style="enable-background:new 0 0 291.8 291.8;" xml:space="preserve">
<style type="text/css">
	.st0{fill:#77B255;}
	.st1{fill:#5C913B;}
	.st2{fill:#FFFFFF;}
	.st3{fill:#292F33;}
	.st4{fill:#C6E5B3;}
</style>
<g>
	<path class="st0" d="M193.1,71.4v220.4h36.3c14,0,35.7-20.7,35.7-39.1V111.5c0-20.9-22.7-40.1-40.4-40.1L193.1,71.4z"/>
	<path class="st0" d="M265.1,119.6c0,31.4-30.1,4.5-72,4.5V52c6,0,11.9,1.1,17.5,3.2c3.1-13.6,16.6-22.2,30.2-19.1
		c13.6,3.1,22.2,16.6,19.1,30.2c-1.3,5.6-4.4,10.6-8.9,14.2C262.3,91.8,265.1,105.6,265.1,119.6z"/>
	<circle class="st1" cx="210" cy="111.4" r="4.2"/>
	<circle class="st2" cx="237.4" cy="58.7" r="14.8"/>
	<circle class="st3" cx="237.4" cy="58.7" r="6.3"/>
</g>
<g>
	<polygon class="st4" points="142.3,174 140.6,181.6 108.6,181.6 110.9,174 	"/>
	<polygon class="st0" points="178.3,174 175.8,181.6 140.6,181.6 142.3,174 	"/>
	<polygon class="st4" points="148.4,147.9 146.6,155.5 113.1,155.5 115.4,147.9 	"/>
	<polygon class="st0" points="182.8,147.9 180.3,155.5 146.6,155.5 148.4,147.9 	"/>
	<polygon class="st4" points="122.2,204 140.8,123.8 147.8,123.8 129.2,204 	"/>
	<polygon class="st0" points="146.2,204 164.8,123.8 171.9,123.8 153.3,204 	"/>
</g>
<g>
	<path class="st4" d="M98.6,36v220.4H62.4c-14,0-35.7-20.7-35.7-39.1V76.1C26.6,55.2,49.4,36,67.1,36H98.6z"/>
	<path class="st4" d="M98.6,16.5v72c-41.9,0-72,27.1-72-4.4c0-14,2.9-27.9,14-39.2C29.7,36.3,28,20.4,36.7,9.5S61.4-3.2,72.3,5.6
		c4.5,3.6,7.6,8.6,8.9,14.2C86.7,17.6,92.7,16.6,98.6,16.5z"/>
	<circle class="st2" cx="54.3" cy="23.2" r="14.8"/>
	<circle class="st3" cx="54.3" cy="23.2" r="6.3"/>
	<circle class="st1" cx="81.8" cy="75.9" r="4.2"/>
</g>
</svg>
