<?xml version="1.0" encoding="utf-8"?>
<!-- Generator: Adobe Illustrator 25.0.0, SVG Export Plug-In . SVG Version: 6.00 Build 0)  -->
<svg version="1.1" id="Ebene_1" xmlns="http://www.w3.org/2000/svg" xmlns:xlink="http://www.w3.org/1999/xlink" x="0px" y="0px"
	 viewBox="0 0 497.5 497.5" style="enable-background:new 0 0 497.5 497.5;" xml:space="preserve">
<style type="text/css">
	.st0{fill:#C6E5B3;}
	.st1{fill:#77B255;}
	.st2{fill:#5C913B;}
	.st3{fill:#FFFFFF;}
	.st4{fill:#292F33;}
</style>
<g>
	<path class="st0" d="M447.6,365.4c0,0-43.3,132.1-116.1,132.1c-21.1,0-47.7-20-78.7-20s-52.8,20-82.2,20
		c-46.3,0-105-88.2-123.4-176.3c20.3,39.6,101.8-14.8,199.2-14.8c65.5,0,123.8,24.6,161.1,28.7C418.9,347.7,432.5,357.9,447.6,365.4
		z"/>
	<path class="st1" d="M406.5,194.2c-35.5,44.6-34,101.1,1.1,140.9c-37.3-4.1-95.6-28.7-161.1-28.7c-97.4,0-178.9,54.5-199.2,14.8
		c-2.2-10.3-3.8-20.7-4.7-31.2c-0.7-7.1-1-14.1-1-21.1c0-42.6,12.9-75.5,31.9-99.4c26.1-32.8,63.7-48.4,94.5-48.4
		c30.5,0,57.5,22.6,79.5,22.6s53.9-24,92.5-24c42.9,0,71.4,23,84.9,37.2c3.3,3.4,6.3,7,9,10.9C423.7,175.4,414.5,184.2,406.5,194.2z
		"/>
	<path class="st1" d="M343.8,0c-1.2,72.4-37.2,107.2-99.2,114C243.2,55,275,16.1,343.8,0z"/>
	<ellipse class="st2" cx="201.2" cy="272.5" rx="11.3" ry="11.3"/>
	<ellipse class="st2" cx="291.9" cy="272.5" rx="11.3" ry="11.3"/>
</g>
<g>
	<circle class="st1" cx="138.3" cy="119.9" r="62.9"/>
	<circle class="st3" cx="133.2" cy="114.8" r="36.8"/>
	<circle class="st4" cx="133.2" cy="114.8" r="15.8"/>
</g>
<g>
	<circle class="st1" cx="393" cy="120.1" r="62.9"/>
	<circle class="st3" cx="387.9" cy="115" r="36.8"/>
	<circle class="st4" cx="387.9" cy="115" r="15.8"/>
</g>
</svg>
