<svg xmlns="http://www.w3.org/2000/svg" xmlns:xlink="http://www.w3.org/1999/xlink" viewBox="0 0 249.15 293.78"><defs><style>.cls-1{fill:none;}.cls-2{fill:#77b255;}.cls-3{fill:#c6e5b3;}.cls-4,.cls-8{opacity:0.25;}.cls-13,.cls-25,.cls-26,.cls-4,.cls-5,.cls-6,.cls-7,.cls-8{isolation:isolate;}.cls-4{fill:url(#Unbenannter_Verlauf_3);}.cls-5{opacity:0.42;fill:url(#Unbenannter_Verlauf_3-2);}.cls-13,.cls-6{opacity:0.2;}.cls-6{fill:url(#Unbenannter_Verlauf_3-3);}.cls-7{opacity:0.11;}.cls-8{fill:#7c7c7c;}.cls-9{fill:#5c913b;}.cls-10{clip-path:url(#clip-path);}.cls-11{clip-path:url(#clip-path-2);}.cls-12{clip-path:url(#clip-path-3);}.cls-13{fill:url(#Unbenannter_Verlauf_4);}.cls-14{fill:url(#Unbenannter_Verlauf_5);}.cls-15{clip-path:url(#clip-path-4);}.cls-16{fill:#cd8907;}.cls-17{clip-path:url(#clip-path-5);}.cls-18{fill:#f5c021;}.cls-19{fill:url(#Unbenannter_Verlauf_6);}.cls-20{fill:url(#Unbenannter_Verlauf_7);}.cls-21{clip-path:url(#clip-path-7);}.cls-22{fill:#d99a03;}.cls-23{fill:#f5bd0c;}.cls-24{fill:url(#Unbenannter_Verlauf_8);}.cls-25,.cls-26{opacity:0.35;}.cls-25{fill:url(#Unbenannter_Verlauf_10);}.cls-26{fill:url(#Unbenannter_Verlauf_10-2);}.cls-27{clip-path:url(#clip-path-9);}.cls-28{fill:url(#Unbenannter_Verlauf_11);}.cls-29{fill:#fff;}.cls-30{fill:#292f33;}</style><radialGradient id="Unbenannter_Verlauf_3" cx="-325.69" cy="102.27" r="27.39" gradientTransform="translate(-192.33 215.41) rotate(180) scale(0.81 0.76)" gradientUnits="userSpaceOnUse"><stop offset="0"/><stop offset="1" stop-opacity="0.25"/></radialGradient><radialGradient id="Unbenannter_Verlauf_3-2" cx="287.16" cy="86.44" r="27.39" gradientTransform="matrix(1, 0, 0, -0.76, -142, 215.41)" xlink:href="#Unbenannter_Verlauf_3"/><radialGradient id="Unbenannter_Verlauf_3-3" cx="250.57" cy="177.43" r="10.85" gradientTransform="matrix(1, 0, 0, -1.07, -142, 334.35)" xlink:href="#Unbenannter_Verlauf_3"/><clipPath id="clip-path" transform="translate(0)"><path class="cls-1" d="M95.72,82.59a11.81,11.81,0,0,0-2.14,4.51,23.92,23.92,0,0,0-.63,5c-.13,3.35.08,6.77-.81,10-1,3.46-3.08,6.46-5.16,9.38-3.6,5.06-7.25,10.25-9,16.2a28.89,28.89,0,0,0-1,11.17,117.91,117.91,0,0,0-10.43,18.78A103,103,0,0,0,58,189a80,80,0,0,0,5.63,39.1A64,64,0,0,0,80.34,251.3a57.07,57.07,0,0,0,12.19,8.1c15.21,7.48,34,7.49,49-.48,7.82-4.17,14.42-10.26,20.79-16.42,3.83-3.71,7.64-7.51,10.56-12,5.63-8.59,7.59-19,8.81-29.23,2.13-17.84,2.2-36.67-5.62-52.84a58.42,58.42,0,0,0-10.58-15.14,82.94,82.94,0,0,0-6.7-22.54c-2.37-5.16-5.27-10.06-7.47-15.29-.9-2.15-1.69-4.35-2.69-6.45a19.22,19.22,0,0,0-3.93-5.74,16.16,16.16,0,0,0-6.13-3.56,26.64,26.64,0,0,0-7-1.21c-4.77-.24-9.54.38-14.31.2-3.79-.16-7.58-.82-11.37-.6a17.58,17.58,0,0,0-5.55,1.17,11.14,11.14,0,0,0-4.56,3.3"/></clipPath><clipPath id="clip-path-2" transform="translate(0)"><path class="cls-1" d="M188.11,144.22a32,32,0,0,1,11.14,20,48.2,48.2,0,0,1-1,18.13,145.9,145.9,0,0,1-5.53,17.4,34.37,34.37,0,0,0-2,7,11.58,11.58,0,0,0,1,7.09,10.75,10.75,0,0,0,6.48,4.92,15.54,15.54,0,0,0,8.15.11,20,20,0,0,0,7.33-3.65c5.51-4.29,8.84-10.95,10.13-17.82s.7-14-.5-20.83a139.77,139.77,0,0,0-7.88-27.4,95,95,0,0,0-9.79-18.52c-3.85-5.67-9.31-10.1-13.34-15.64-1.4-1.92-3.09-3.93-4.47-5.88-3-4.19-2.29-3.41-4.13-6.13-1.34-2-3.45-2.65-5.67-3.51a10.43,10.43,0,0,0-13.81,5.61,16,16,0,0,0-1,9.22,32.94,32.94,0,0,0,4.55,11.19,39.91,39.91,0,0,0,8.53,10.65c3.67,3.06,8.1,5.07,11.82,8.06"/></clipPath><clipPath id="clip-path-3" transform="translate(0)"><path class="cls-1" d="M73.48,113.81c-7.07,8-14.35,15.82-18.34,24.51-2,4.41-2.91,9.2-4.27,13.85a103.08,103.08,0,0,1-6,15.33c-2.16,4.59-4.55,9.06-6.94,13.54-1.73,3.25-3.5,6.58-4.1,10.22a21,21,0,0,0,.53,8.66A39.69,39.69,0,0,0,37.63,208,79.65,79.65,0,0,0,61.87,236a84.65,84.65,0,0,0,14.6,8.53,22.4,22.4,0,0,0,8.77,2.46,10.89,10.89,0,0,0,4.48-.84,8,8,0,0,0,3.48-2.89,8.38,8.38,0,0,0,1.17-5.41,13,13,0,0,0-1.92-5.26c-2.39-3.92-6.16-6.76-9.79-9.57C74.82,216.9,67.23,210.49,60,203.73a30,30,0,0,1-5.53-6.28,23.7,23.7,0,0,1-2.65-7.7,42.66,42.66,0,0,1,1.46-22.13c1-2.76,2.27-5.39,3.51-8,2.17-4.59,4.21-9.26,7.05-13.47,3.54-5.23,8.27-9.66,11.15-15.27,2.44-4.75,3.42-10.08,4.37-15.32.73-4.11,2.15-8.13,2.87-12.23-1.41,2.66-5.94,7-8.72,10.52Z"/></clipPath><linearGradient id="Unbenannter_Verlauf_4" x1="325.87" y1="67.56" x2="329.56" y2="39.98" gradientTransform="matrix(1.03, 0, 0, -1, -144.33, 307.56)" gradientUnits="userSpaceOnUse"><stop offset="0"/><stop offset="1" stop-opacity="0"/></linearGradient><linearGradient id="Unbenannter_Verlauf_5" x1="414.14" y1="19.03" x2="462.22" y2="96.99" gradientTransform="matrix(1, 0, 0, -1, -242, 307.56)" gradientUnits="userSpaceOnUse"><stop offset="0" stop-color="#3e2a06"/><stop offset="1" stop-color="#ad780a"/></linearGradient><clipPath id="clip-path-4" transform="translate(0)"><path class="cls-1" d="M246.2,255.39c-2.62,3.11-6.27,5.17-9.89,7-6.19,3.15-12.61,5.92-18.42,9.72A74.76,74.76,0,0,0,207,280.87a87,87,0,0,1-8.84,8,25.44,25.44,0,0,1-11,4.65,26.41,26.41,0,0,1-14.3-2.17c-3.13-1.37-6.15-3.32-8-6.23s-2.23-6.49-2.23-9.92c0-6.08,1.12-12.09,2.18-18.08.88-5,1.72-9.95,2.26-15a155.07,155.07,0,0,0,.32-27.51,20.9,20.9,0,0,1,0-4.61,5.84,5.84,0,0,1,6-5.45,20.87,20.87,0,0,1,4.24.35,89.28,89.28,0,0,1,9.89,1.72c2,.53,4,1.26,6.07,1.81a27.88,27.88,0,0,0,10.47,1c3.77-.44,7.43-1.86,11.22-1.77a17.07,17.07,0,0,1,4.59.8,9.88,9.88,0,0,1,4.12,2.3,9,9,0,0,1,1.88,3.07,18.85,18.85,0,0,1,1.17,5.25,44.5,44.5,0,0,0,.41,4.76,15.58,15.58,0,0,0,3.53,6.93,45.5,45.5,0,0,0,5.69,5.41c2,1.68,4,3.35,6.17,4.83,1,.69,2.06,1.34,3,2.1a9.55,9.55,0,0,1,2.44,2.71,6.14,6.14,0,0,1,.54,4.88,13.79,13.79,0,0,1-2.67,4.69Z"/></clipPath><clipPath id="clip-path-5" transform="translate(0)"><path class="cls-1" d="M246.2,255.39c-2.62,3.11-6.27,5.17-9.89,7-6.19,3.15-12.61,5.92-18.42,9.72A74.76,74.76,0,0,0,207,280.87a87,87,0,0,1-8.84,8,25.44,25.44,0,0,1-11,4.65,26.41,26.41,0,0,1-14.3-2.17c-3.13-1.37-6.15-3.32-8-6.23s-2.23-6.49-2.23-9.92c0-6.08,1.12-12.09,2.18-18.08.88-5,1.72-9.95,2.26-15a155.07,155.07,0,0,0,.32-27.51,20.9,20.9,0,0,1,0-4.61,5.84,5.84,0,0,1,6-5.45,20.87,20.87,0,0,1,4.24.35,89.28,89.28,0,0,1,9.89,1.72c2,.53,4,1.26,6.07,1.81a27.88,27.88,0,0,0,10.47,1c3.77-.44,7.43-1.86,11.22-1.77a17.07,17.07,0,0,1,4.59.8,9.88,9.88,0,0,1,4.12,2.3,9,9,0,0,1,1.88,3.07,18.85,18.85,0,0,1,1.17,5.25,44.5,44.5,0,0,0,.41,4.76,15.69,15.69,0,0,0,3.53,6.93,45.5,45.5,0,0,0,5.69,5.41c2,1.68,4,3.35,6.17,4.83,1,.69,2.06,1.34,3,2.1a9.55,9.55,0,0,1,2.44,2.71,6.14,6.14,0,0,1,.54,4.88,13.79,13.79,0,0,1-2.67,4.69Z"/></clipPath><linearGradient id="Unbenannter_Verlauf_6" x1="339.3" y1="98.18" x2="337.88" y2="85.45" gradientTransform="matrix(1, 0, 0, -1, -142, 305.56)" gradientUnits="userSpaceOnUse"><stop offset="0" stop-color="#f3cd0c"/><stop offset="1" stop-color="#f3cd0c" stop-opacity="0"/></linearGradient><linearGradient id="Unbenannter_Verlauf_7" x1="93.44" y1="84.44" x2="141.17" y2="4.36" gradientTransform="matrix(1, 0, 0, -1, -72, 307.56)" gradientUnits="userSpaceOnUse"><stop offset="0" stop-color="#b98309"/><stop offset="1" stop-color="#382605"/></linearGradient><clipPath id="clip-path-7" transform="translate(0)"><path class="cls-1" d="M40.59,199.79a9.15,9.15,0,0,1,5.1-.47,12.56,12.56,0,0,1,4.74,2c2.87,1.94,5,4.77,7,7.58,4.67,6.43,9.16,13,13.24,19.83C74,234.29,77,240,80.86,245.21c2.5,3.39,5.31,6.54,7.82,9.92a34.29,34.29,0,0,1,5.84,11.12,22.32,22.32,0,0,1-1.63,15.95,21.14,21.14,0,0,1-7.77,8.34,20.06,20.06,0,0,1-11,2.87c-6.11-.23-11.7-3.29-17.38-5.55-11.58-4.61-24.16-6.06-36.1-9.65-3.67-1.1-7.27-2.41-11-3.43a32.72,32.72,0,0,1-4.86-1.55A8.34,8.34,0,0,1,.93,270,7.22,7.22,0,0,1,0,266.23a12,12,0,0,1,.77-3.85c.9-2.48,2.35-4.72,3.32-7.16a29.92,29.92,0,0,0,1.67-12.68c-.21-4.29-.91-8.54-1.2-12.83A22.51,22.51,0,0,1,4.74,224a9.51,9.51,0,0,1,2.56-5.05A9.45,9.45,0,0,1,12,216.6a23.3,23.3,0,0,1,5.28-.34,49.31,49.31,0,0,0,5.3,0,12.17,12.17,0,0,0,5.07-1.41,12.1,12.1,0,0,0,3.65-3.44,41.77,41.77,0,0,0,2.6-4.31,27.37,27.37,0,0,1,2.75-4.23,10.55,10.55,0,0,1,3.94-3.07"/></clipPath><linearGradient id="Unbenannter_Verlauf_8" x1="146.88" y1="64.95" x2="161.9" y2="36.66" gradientTransform="matrix(1, 0, 0, -1, -72.53, 305.79)" gradientUnits="userSpaceOnUse"><stop offset="0" stop-color="#ebc40c"/><stop offset="1" stop-color="#ebc40c" stop-opacity="0"/></linearGradient><radialGradient id="Unbenannter_Verlauf_10" cx="297.49" cy="205.35" r="16.85" gradientTransform="matrix(1.31, 0.35, 0.37, -1.37, -268.55, 400.15)" gradientUnits="userSpaceOnUse"><stop offset="0" stop-color="#110800"/><stop offset="0.59" stop-color="#a65a00" stop-opacity="0.8"/><stop offset="1" stop-color="#ff921e" stop-opacity="0"/></radialGradient><radialGradient id="Unbenannter_Verlauf_10-2" cx="313.07" cy="149.93" r="16.85" gradientTransform="matrix(1.31, 0.25, 0.37, -0.99, -268.55, 286.57)" xlink:href="#Unbenannter_Verlauf_10"/><clipPath id="clip-path-9" transform="translate(0)"><path class="cls-1" d="M219.2,204.1a7.43,7.43,0,0,0-2-2.87,10.56,10.56,0,0,0-3-1.85,32.44,32.44,0,0,0-6.84-1.69c-2.17-.41-4.34-.91-6.52-1.28a17.86,17.86,0,0,0-6.87-.13,11.82,11.82,0,0,0-5.27,2.82,15.15,15.15,0,0,0-3.49,4.89,21.17,21.17,0,0,0-1.65,10.41,12.56,12.56,0,0,0,2.61,7.33,11.44,11.44,0,0,0,5.43,3.23,18.44,18.44,0,0,0,10.86-.16A28.52,28.52,0,0,0,216.82,214a15.79,15.79,0,0,0,2.56-5.4,8.08,8.08,0,0,0-.18-4.52"/></clipPath><radialGradient id="Unbenannter_Verlauf_11" cx="952.59" cy="-95.07" r="20.54" gradientTransform="matrix(0.36, 0.16, 0.07, -0.17, -122.84, 36.55)" gradientUnits="userSpaceOnUse"><stop offset="0" stop-color="#7c7c7c"/><stop offset="1" stop-color="#7c7c7c" stop-opacity="0.33"/></radialGradient></defs><g id="Ebene_2" data-name="Ebene 2"><g id="Ebene_1-2" data-name="Ebene 1"><g id="layer2"><g id="g463"><path id="path28712-2" class="cls-2" d="M123.82,22.72a42.78,42.78,0,0,0-20.73,4.77A37.45,37.45,0,0,0,87.5,43.71c-3.38,6.83-4.71,14.11-4.91,22.14-.38,15.24.34,5.23,1.49,19.72.31,4.42.86,7,.3,11.53-1.89,9.63-10.32,16.11-14.81,24.57-4.95,9.33-7,19.88-10.78,29.76-3.42,9-8.23,17.52-11.47,26.63-4.54,12.74-5.89,26.73-2.9,39.91a69.11,69.11,0,0,0,13.49,27.54c-.93,1.67-1.83,3.37-2.79,5-3,5.14-6.62,10-8.32,15.72a19,19,0,0,0-.64,8.82,12.64,12.64,0,0,0,4.36,7.57,13.16,13.16,0,0,0,5.25,2.43,23.55,23.55,0,0,0,5.8.51c7.4-.16,14.56-2.41,21.72-4.29,4.23-1.11,8.51-2.1,12.8-3,15.24-3.13,32.25-1.88,46.4.17,4.79.72,9.55,1.67,14.26,2.81,7.37,1.79,14.73,4.07,22.31,4.29a24.29,24.29,0,0,0,6-.47,13.29,13.29,0,0,0,5.41-2.47,12.63,12.63,0,0,0,4.35-7.59,18.91,18.91,0,0,0-.64-8.83c-1.72-5.7-5.39-10.57-8.44-15.69-1.2-2-2.32-4.09-3.51-6.12A100.49,100.49,0,0,0,203,209.14c4.66-14.28,5.52-29.65,3.56-44.53s-6.69-29.33-12.9-43c-7.28-16-13.48-22.46-18.14-35.5a20.1,20.1,0,0,1-1.13-5.74c-.58-10.68-.9-12-3.55-21.41-2.88-9.32-3.06-10.56-5.32-15.19-3.28-5.14-5.43-9.74-10.36-13.32-7.87-5.7-21.62-7.64-31.34-7.74Z" transform="translate(0)"/><path class="cls-3" d="M181.66,201.28c-1.22,10.2-3.18,20.65-8.8,29.24a72.81,72.81,0,0,1-10.57,12c-6.36,6.17-13,12.26-20.78,16.43-15,8-33.76,7.95-49,.48a57.19,57.19,0,0,1-12.19-8.1,64,64,0,0,1-16.69-23.25A80,80,0,0,1,58,189a102.77,102.77,0,0,1,8.46-31.35,118.73,118.73,0,0,1,10.42-18.78,28.64,28.64,0,0,1,1-11.16c1.78-6,5.42-11.14,9-16.2,2.08-2.92,4.21-5.92,5.15-9.38.89-3.24.69-6.65.82-10a24.63,24.63,0,0,1,.45-4.19c5.08,1,15.15-4.52,26.88-4.74s22.16,5,27.15,3.69c.42.7.81,1.44,1.16,2.18,1,2.11,1.79,4.31,2.7,6.45,2.2,5.23,5.1,10.14,7.47,15.29a83.38,83.38,0,0,1,6.69,22.54A58.4,58.4,0,0,1,176,148.45C183.86,164.61,183.79,183.45,181.66,201.28Z" transform="translate(0)"/></g><g id="g562"><path id="path4400-1" class="cls-4" d="M78.93,130.37c1,1.52-.63,6.78,23,3.41a81.62,81.62,0,0,0-8.25,1.41c-6.38,2.13-11.93,4.51-16.21,7.67s-7.35,7.2-11.24,10.7c0,0,6.3-11.52,7.87-15s-.26-3.31,1-8.41a40.33,40.33,0,0,1,4.29-10S76.93,127.36,78.93,130.37Z" transform="translate(0)"/><path id="path4400-2-8" class="cls-5" d="M155.06,129c-4.82,3.36-7.65,3-13.5,3.62s-21.7.42-21.7.42a41.92,41.92,0,0,1,7.37.91c5.09.94,15.46,1.85,21.3,4.07s8,2.86,11.51,5.1c5.05,3.2,8.76,8.2,13.59,11.7a17.29,17.29,0,0,0-1.72-8.11c-1.94-3.47-7.19-8.94-8.73-14s-2.27-15.13-2.27-15.13-1,8.1-5.85,11.46Z" transform="translate(0)"/><path id="path4491-9" class="cls-6" d="M109.68,121.82c-.18,1.45-.41,2.9-.7,4.34a12.36,12.36,0,0,1-.55,2.09,4.76,4.76,0,0,1-1.19,1.8,6.48,6.48,0,0,1-1.62,1,24.36,24.36,0,0,1-7.1,2c1,.07,2,.16,2.93.27a12.45,12.45,0,0,1,1.83.29,5,5,0,0,1,1.69.76,4.71,4.71,0,0,1,1.3,1.54,10.1,10.1,0,0,1,1,3.91,32.12,32.12,0,0,1,0,5.19,16.33,16.33,0,0,1,.72-3.4,14.8,14.8,0,0,1,3.12-5.39,11.15,11.15,0,0,1,1.86-1.64,10.29,10.29,0,0,1,7.24-1.77,11.23,11.23,0,0,1-7.2-2.23,9.31,9.31,0,0,1-2.58-2.9,8.13,8.13,0,0,1-.75-5.86" transform="translate(0)"/><path id="path4542-7" class="cls-7" d="M103.51,155.86A88.67,88.67,0,0,0,101,170.13c-.64,6.81-.49,13.68-.85,20.51-.31,5.79-1,11.65,0,17.37a29.92,29.92,0,0,0,2.56,7.88,27.75,27.75,0,0,0,.42-2.88c.43-4.64-.35-9.29-.62-13.94-.46-8.14.67-16.29,1.13-24.43a149,149,0,0,0-.13-18.78h0" transform="translate(0)"/><path id="path28767-9-3" class="cls-8" d="M81.59,109.78c-.12-1.44-2.17-1.65-3.09-.94-.77.61-1.49,2.68-.83,3.48C78.76,113.63,81.75,111.75,81.59,109.78Z" transform="translate(0)"/><path id="path15189-4" class="cls-9" d="M185,149c1.19-.19,8.52,6.05,7.51,8.36s-2.88.92-4.23.94-5,1.68-5.64.63,1.62-3.52,2.8-5.58c1-1.66-1.63-4.17-.44-4.35Z" transform="translate(0)"/><path id="path4596-3" class="cls-9" d="M159.7,85.64c-2.16,2,1,4.92,2.52,8.4.94,2.16,3.53,5.21,6,4.72,1.89-.37,3.06-3.08,2.88-5-.35-3.69-3.46-4.55-5.72-5.82C163.62,86.94,161.22,84.25,159.7,85.64Z" transform="translate(0)"/><g class="cls-10"><path class="cls-3" d="M153.11,95.46a2.59,2.59,0,0,1-2.3,2.81,5,5,0,0,1-1.8-.1,25.57,25.57,0,0,0-3.51-.84A7.1,7.1,0,0,0,141,98.82a40.47,40.47,0,0,0-3.61,3.2,44.12,44.12,0,0,1-8.66,6c-2.56,1.4-5.2,2.66-7.66,4.22-1.44.91-2.81,1.92-4.29,2.76a12,12,0,0,1-4.79,1.65,10.31,10.31,0,0,1-5.06-1,20.1,20.1,0,0,1-4.37-2.81,28.4,28.4,0,0,1-9.19-12.45c-1.24-3.61-1.54-7.5-2.93-11.05-.23-.58-.48-1.14-.7-1.71a3.21,3.21,0,0,0,.76.24l.15,0c5.34,1,15.92-4.68,28.25-4.91s23.28,5.17,28.52,3.82l.27-.08a3.72,3.72,0,0,0,2.3-1.87c0,.25,0,.5,0,.75a11.39,11.39,0,0,0,.3,3.91c.46,1.4,1.51,2.53,2.2,3.84A4.91,4.91,0,0,1,153.11,95.46Z" transform="translate(0)"/></g></g><g id="g481"><path id="path29705-5-0" class="cls-2" d="M188.11,144.22a32,32,0,0,1,11.14,20,48.2,48.2,0,0,1-1,18.13,145.9,145.9,0,0,1-5.53,17.4,34.37,34.37,0,0,0-2,7,11.58,11.58,0,0,0,1,7.09,10.75,10.75,0,0,0,6.48,4.92,15.54,15.54,0,0,0,8.15.11c2.67-.67,7.16-1.53,9.33-3.22,5.51-4.28,6.82-11.72,8.13-18.25,1.36-6.81.7-14-.5-20.83a139.77,139.77,0,0,0-7.88-27.4,95,95,0,0,0-9.79-18.52c-3.85-5.67-9.31-10.1-13.34-15.64-1.4-1.92-3.09-3.93-4.47-5.88-3-4.19-2.29-3.41-4.13-6.13-1.34-2-3.45-2.65-5.67-3.51a10.43,10.43,0,0,0-13.81,5.61,16,16,0,0,0-1,9.22,32.94,32.94,0,0,0,4.55,11.19,39.91,39.91,0,0,0,8.53,10.65c3.67,3.06,8.1,5.07,11.82,8.06" transform="translate(0)"/><path id="path14967-1-0" class="cls-2" d="M73.48,113.81c-7.07,8-14.35,15.82-18.34,24.51-2,4.41-2.91,9.2-4.27,13.85a103.08,103.08,0,0,1-6,15.33c-2.16,4.59-4.55,9.06-6.94,13.54-1.73,3.25-3.5,6.58-4.1,10.22a21,21,0,0,0,.53,8.66A39.69,39.69,0,0,0,37.63,208,79.65,79.65,0,0,0,61.87,236a84.65,84.65,0,0,0,14.6,8.53,22.4,22.4,0,0,0,8.77,2.46,10.89,10.89,0,0,0,4.48-.84,8,8,0,0,0,3.48-2.89,8.38,8.38,0,0,0,1.17-5.41,13,13,0,0,0-1.92-5.26c-2.39-3.92-6.16-6.76-9.79-9.57C74.82,216.9,67.23,210.49,60,203.73a30,30,0,0,1-5.53-6.28,23.7,23.7,0,0,1-2.65-7.7,42.66,42.66,0,0,1,1.46-22.13c1-2.76,2.27-5.39,3.51-8,2.17-4.59,4.21-9.26,7.05-13.47,3.54-5.23,8.27-9.66,11.15-15.27,2.44-4.75,3.42-10.08,4.37-15.32.73-4.11,2.15-8.13,2.87-12.23-1.41,2.66-5.94,7-8.72,10.52Z" transform="translate(0)"/></g><g id="g514"><g class="cls-11"><path id="path29705-9" class="cls-9" d="M173.79,134.79c.5.47,1,1,1.53,1.38,3.73,3.05,5.72,6.48,9.51,9.48,6.19,4.89,12.48,13.34,13.69,21.06.95,6-.3,9.29-1.83,16.38s-5.88,17.15-8.22,24c-.94,2.72,1.89,1.6,1.52,4.48a17.27,17.27,0,0,0,0,4.25c0-.27,0-.55.07-.82a52.17,52.17,0,0,1,3-11.39c2.52-7.12,5.41-14.1,7.4-21.41a40.14,40.14,0,0,0,.73-18.84,31.67,31.67,0,0,0-12.41-20c-4.6-3.41-10-5.59-14.92-8.57Z" transform="translate(0)"/></g><g class="cls-12"><path id="path15007-0" class="cls-9" d="M65.34,143a33.26,33.26,0,0,0-6,7.32c-2.67,4.46-4.24,9.47-6.18,14.29-1.44,3.59-3.12,7.19-3.33,11.06-.1,2,.19,4,.26,5.95a11,11,0,0,1-1.09,5.78,7,7,0,0,1-3.73,3.15,11,11,0,0,1,5.33,3.86c1.12,1.5,1.83,3.26,2.8,4.85a12.83,12.83,0,0,0,2.94,3.45,8.43,8.43,0,0,0,4.12,1.81,7.26,7.26,0,0,0,5.77-1.84,135,135,0,0,1,5.15-53.8,16.17,16.17,0,0,0,.77-3.34,4.79,4.79,0,0,0-.83-3.26A3.51,3.51,0,0,0,68.15,141a3.53,3.53,0,0,0-1.68.67A3.61,3.61,0,0,0,65.34,143h0" transform="translate(0)"/></g></g><g id="g457"><g id="g444"><path id="path14483-7-4" class="cls-13" d="M229.07,246.91a16.56,16.56,0,0,1-2.11,4.41c-2,3-5,5.28-7.93,7.37-5,3.56-10.27,6.84-15,10.89a76.33,76.33,0,0,0-8.65,9,85.08,85.08,0,0,1-7,8.06,24.37,24.37,0,0,1-9,5.53,21.77,21.77,0,0,1-12.15.26,12.59,12.59,0,0,1-7-4.1c-1.69-2.2-2.24-5.15-2.43-8.05a89.87,89.87,0,0,1,.82-15.58c.46-4.32.89-8.65,1.07-13a130.56,130.56,0,0,0-1.27-23.27,17.4,17.4,0,0,1-.26-3.89,6.31,6.31,0,0,1,1.47-3.7,6.23,6.23,0,0,1,3.24-1.77,18.09,18.09,0,0,1,3.59-.32,73.73,73.73,0,0,1,8.41,0c1.75.16,3.46.48,5.21.65a23.42,23.42,0,0,0,8.86-.73c3.15-.92,6.15-2.65,9.34-3.12a13.48,13.48,0,0,1,3.91,0,7.26,7.26,0,0,1,3.59,1.34,6.56,6.56,0,0,1,1.75,2.31,14.77,14.77,0,0,1,1.28,4.27,36.5,36.5,0,0,0,.61,3.95,11.59,11.59,0,0,0,3.36,5.34,32.2,32.2,0,0,0,5.09,3.74,59.21,59.21,0,0,0,5.46,3.17c.89.44,1.8.83,2.66,1.34a6.81,6.81,0,0,1,2.2,1.93,5.48,5.48,0,0,1,.85,4h0" transform="translate(0)"/><path id="path14296-0" class="cls-14" d="M246.2,255.39c-2.62,3.11-6.27,5.17-9.89,7-6.19,3.15-12.61,5.92-18.42,9.72A74.76,74.76,0,0,0,207,280.87a87,87,0,0,1-8.84,8,25.44,25.44,0,0,1-11,4.65,26.41,26.41,0,0,1-14.3-2.17c-3.13-1.37-6.15-3.32-8-6.23s-2.23-6.49-2.23-9.92c0-6.08,1.12-12.09,2.18-18.08.88-5,1.72-9.95,2.26-15a155.07,155.07,0,0,0,.32-27.51,20.9,20.9,0,0,1,0-4.61,5.84,5.84,0,0,1,6-5.45,20.87,20.87,0,0,1,4.24.35,89.28,89.28,0,0,1,9.89,1.72c2,.53,4,1.26,6.07,1.81a27.88,27.88,0,0,0,10.47,1c3.77-.44,7.43-1.86,11.22-1.77a17.07,17.07,0,0,1,4.59.8,9.88,9.88,0,0,1,4.12,2.3,9,9,0,0,1,1.88,3.07,18.85,18.85,0,0,1,1.17,5.25,44.5,44.5,0,0,0,.41,4.76,15.69,15.69,0,0,0,3.53,6.93,45.5,45.5,0,0,0,5.69,5.41c2,1.68,4,3.35,6.17,4.83,1,.69,2.06,1.34,3,2.1a9.55,9.55,0,0,1,2.44,2.71,6.14,6.14,0,0,1,.54,4.88,13.79,13.79,0,0,1-2.67,4.69Z" transform="translate(0)"/><g class="cls-15"><path id="path14296-3-7" class="cls-16" d="M245.9,247.5a15.18,15.18,0,0,1-2.57,4.26c-2.4,2.81-5.73,4.65-9,6.31-5.65,2.83-11.5,5.32-16.82,8.74a68.79,68.79,0,0,0-9.92,7.86,78.5,78.5,0,0,1-8.06,7.2,23.32,23.32,0,0,1-10,4.18,24.47,24.47,0,0,1-13.06-1.94,15.57,15.57,0,0,1-7.27-5.6c-1.64-2.62-2-5.83-2-8.92,0-5.47,1-10.87,2-16.25.81-4.47,1.58-9,2.07-13.46a142.94,142.94,0,0,0,.29-24.74,19.1,19.1,0,0,1,0-4.14,5.32,5.32,0,0,1,5.42-4.92,19.5,19.5,0,0,1,3.88.33,86,86,0,0,1,9,1.55c1.86.48,3.68,1.13,5.54,1.62a25.75,25.75,0,0,0,9.56.86c3.44-.4,6.79-1.67,10.25-1.59a15.73,15.73,0,0,1,4.19.72,8.85,8.85,0,0,1,3.76,2.07,8.39,8.39,0,0,1,1.72,2.76,13,13,0,0,1,1.07,4.71,43.17,43.17,0,0,0-.11,5.08,9.66,9.66,0,0,0,1.5,3.81,30.47,30.47,0,0,0,2.52,3.26,32.91,32.91,0,0,0,5.6,5.65c2.45,1.78,5.36,2.81,7.89,4.47a7.34,7.34,0,0,1,2,1.78,4.74,4.74,0,0,1,.62,4.34h0" transform="translate(0)"/></g><g class="cls-17"><path id="path14296-3-1-9" class="cls-18" d="M245.55,245.75a19,19,0,0,1-2.64,4.31,21.89,21.89,0,0,1-9.29,6.37c-5.76,2.18-12.05,2.47-17.71,4.95a61.43,61.43,0,0,0-9.69,5.94A48.89,48.89,0,0,1,198.3,272a40.81,40.81,0,0,1-9.86,2.68,30.48,30.48,0,0,1-6.46.48,13.94,13.94,0,0,1-6.23-1.73,8.67,8.67,0,0,1-3.52-3.6,12.69,12.69,0,0,1-1-5.72c.05-5.24,1.17-10.41,1.14-15.64,0-4.56-.94-9.06-1.19-13.6-.5-8.75,1.37-17.64-.28-26.22a20.78,20.78,0,0,1-.6-4.14,6,6,0,0,1,.36-2.06,3.78,3.78,0,0,1,1.17-1.65,3.51,3.51,0,0,1,1.51-.65,5.31,5.31,0,0,1,1.64,0,25.41,25.41,0,0,1,3.17.91c3,.9,6.21.88,9.28,1.56,1.93.43,3.79,1.12,5.7,1.64a25.89,25.89,0,0,0,9.82.87c3.53-.41,7-1.7,10.53-1.6a16.2,16.2,0,0,1,4.3.72,8.83,8.83,0,0,1,3.87,2.09,9.19,9.19,0,0,1,1.76,2.78,11.93,11.93,0,0,1,1.1,4.77c0,.86-.14,1.71-.22,2.56a7.57,7.57,0,0,0,.11,2.56,6.52,6.52,0,0,0,1.12,2.27c.49.68,1.05,1.31,1.55,2a42.35,42.35,0,0,1,3.54,6.15,19.28,19.28,0,0,0,4.09,5.69c2.38,2.06,5.47,2.88,8.12,4.51a7.12,7.12,0,0,1,2.07,1.8,4.78,4.78,0,0,1,.84,2.1,5,5,0,0,1-.2,2.28h0" transform="translate(0)"/></g><g class="cls-17"><path id="path16493" class="cls-19" d="M170.32,207.42c3.28-.88,6.07,1.6,8.44,3.48,1.54,1.31,3.76,1,5.64,1,3.12-.11,6.23.52,9.35.14,6.14-.52,12.17-2,18.34-2.29,2.95-.19,6.26-.36,8.81,1.36,1,.72,2.54,3.74,3.56,2.61a8.62,8.62,0,0,0-5.93-7.11c-2.48-.39-5,.29-7.49.07-7.43-.17-14.8-1.55-22.24-1.16-5.17.05-10.34-.19-15.51-.39-2-.42-2.75,1.39-3.85,2.08" transform="translate(0)"/></g></g><g id="g411"><path id="path4635-1" class="cls-20" d="M40.59,199.79a9.15,9.15,0,0,1,5.1-.47,12.56,12.56,0,0,1,4.74,2c2.87,1.94,5,4.77,7,7.58,4.67,6.43,9.16,13,13.24,19.83C74,234.29,77,240,80.86,245.21c2.5,3.39,5.31,6.54,7.82,9.92a34.29,34.29,0,0,1,5.84,11.12,22.32,22.32,0,0,1-1.63,15.95,21.14,21.14,0,0,1-7.77,8.34,20.06,20.06,0,0,1-11,2.87c-6.11-.23-11.7-3.29-17.38-5.55-11.58-4.61-24.16-6.06-36.1-9.65-3.67-1.1-7.27-2.41-11-3.43a32.72,32.72,0,0,1-4.86-1.55A8.34,8.34,0,0,1,.93,270,7.22,7.22,0,0,1,0,266.23a12,12,0,0,1,.77-3.85c.9-2.48,2.35-4.72,3.32-7.16a29.92,29.92,0,0,0,1.67-12.68c-.21-4.29-.91-8.54-1.2-12.83A22.51,22.51,0,0,1,4.74,224a9.51,9.51,0,0,1,2.56-5.05A9.45,9.45,0,0,1,12,216.6a23.3,23.3,0,0,1,5.28-.34,49.31,49.31,0,0,0,5.3,0,12.17,12.17,0,0,0,5.07-1.41,12.1,12.1,0,0,0,3.65-3.44,41.77,41.77,0,0,0,2.6-4.31,27.37,27.37,0,0,1,2.75-4.23,10.55,10.55,0,0,1,3.94-3.07" transform="translate(0)"/><g class="cls-21"><path id="path13596-6" class="cls-22" d="M43.12,202.55a7.84,7.84,0,0,1,4.62-.3,10.87,10.87,0,0,1,4.19,2.05c2.48,1.91,4.2,4.61,5.86,7.27,4,6.43,7.85,12.93,11.51,19.56,2.78,5,5.43,10.1,8.84,14.68,2.26,3,4.85,5.83,7.16,8.84a29.74,29.74,0,0,1,5.39,9.93,19.57,19.57,0,0,1-1.49,14.23A19.05,19.05,0,0,1,82,286.33a18.56,18.56,0,0,1-10.09,2.49c-5.6-.26-10.71-3.06-16-5-10.1-3.66-21-4.15-31.41-7-3.72-1-7.34-2.35-11.07-3.29a34.12,34.12,0,0,1-4.91-1.42A8,8,0,0,1,4.66,269a6.85,6.85,0,0,1-.85-3.66,11.47,11.47,0,0,1,.81-3.69c.9-2.37,2.32-4.51,3.23-6.88a26.41,26.41,0,0,0,1.29-11.32C8.89,239.6,8.22,235.81,8,232a19.45,19.45,0,0,1,.23-5.11,8.7,8.7,0,0,1,2.29-4.51,8.93,8.93,0,0,1,5-2.31,22.9,22.9,0,0,1,5.55,0,38.34,38.34,0,0,0,5.56.26,10.35,10.35,0,0,0,5.27-1.61,10.53,10.53,0,0,0,3.25-3.79,39.09,39.09,0,0,0,2-4.62,21.76,21.76,0,0,1,2.23-4.51,8.66,8.66,0,0,1,3.8-3.24" transform="translate(0)"/></g><g class="cls-21"><path id="path4635-2-4" class="cls-23" d="M41.77,198.92a7.23,7.23,0,0,1,4.61-.53,9.91,9.91,0,0,1,4.2,2.06c2.43,2,4,4.79,5.42,7.55,3.3,6.34,6.38,12.81,10.33,18.78,2.87,4.33,6.18,8.37,9.09,12.68,3.93,5.84,7.13,12.27,8.45,19.15.89,4.63.86,9.64-1.37,13.81a15.44,15.44,0,0,1-6.66,6.41,17.25,17.25,0,0,1-9.19,1.7c-5-.44-9.46-2.87-14.12-4.57-8.27-3-17.22-3.74-25.73-6-3.6-1-7.11-2.19-10.75-3a32,32,0,0,1-4.78-1.15,7,7,0,0,1-3.77-3,6,6,0,0,1-.66-3.3,10.76,10.76,0,0,1,.87-3.28c.89-2.09,2.2-4,2.89-6.18,1-3.18.6-6.64-.16-9.89s-1.86-6.44-2.2-9.76A13.43,13.43,0,0,1,8.43,226a7.84,7.84,0,0,1,2.11-3.88A8.73,8.73,0,0,1,15.82,220a24.69,24.69,0,0,1,5.82.34,30.77,30.77,0,0,0,5.82.49A9.45,9.45,0,0,0,32.91,219a9.27,9.27,0,0,0,3-4.75,31.84,31.84,0,0,0,.94-5.59,20.82,20.82,0,0,1,1.23-5.53,8.08,8.08,0,0,1,3.69-4.22" transform="translate(0)"/></g><path id="path4792-8" class="cls-24" d="M59.42,214.74c2.61,4.72,4.19,10.13,6.78,14.88,2.38,4.37,5.08,8.87,7.5,12.91,1.08,1.79,3.58,4.55,6.12,8.83,2.3,3.88,4.62,9.3,5.92,11.12-.75-2.13-2.28-7.85-4.11-11.92-1.71-3.81-3.7-6-4.93-8-2.42-4-5-7.66-7.5-11.5-3.42-5.31-6-11.24-9.78-16.29Z" transform="translate(0)"/></g></g><g id="g526"><path id="path29714-8-2" class="cls-25" d="M214.5,214.42a5.36,5.36,0,0,0-2.73-2.41,9.37,9.37,0,0,0-3.64-.62c-2.47,0-4.93.67-7.4.45a41.77,41.77,0,0,1-6.09-1.45,13,13,0,0,0-6.4-.15,9.44,9.44,0,0,0-5.42,4,12.6,12.6,0,0,0-1.76,5.78,33.55,33.55,0,0,0,.22,6.09,30.6,30.6,0,0,0,.66,4.36,11.74,11.74,0,0,0,1.77,4,10.84,10.84,0,0,0,5.07,3.68,14.1,14.1,0,0,0,10.13-.18,27.94,27.94,0,0,0,13.37-12.3,25.77,25.77,0,0,0,2.38-6.16A11.58,11.58,0,0,0,215,217a5.57,5.57,0,0,0-.54-2.55" transform="translate(0)"/><path id="path29714-8-3-0" class="cls-26" d="M214.5,211.26a5.21,5.21,0,0,0-2.73-1.74,12.89,12.89,0,0,0-3.64-.45c-2.47,0-4.93.48-7.4.33a56.55,56.55,0,0,1-6.09-1.05,17.66,17.66,0,0,0-6.4-.11,9.75,9.75,0,0,0-5.42,2.93,7.42,7.42,0,0,0-1.76,4.18,17.58,17.58,0,0,0,.22,4.4,16.35,16.35,0,0,0,.66,3.15,7.56,7.56,0,0,0,1.77,2.9,11.34,11.34,0,0,0,5.07,2.66,19.13,19.13,0,0,0,10.13-.13c5.66-1.78,10.45-5,13.37-8.89a16.06,16.06,0,0,0,2.38-4.46,6.11,6.11,0,0,0,.38-1.88,3.11,3.11,0,0,0-.54-1.84" transform="translate(0)"/></g><g id="g545"><path id="path29714-5-4" class="cls-2" d="M219.2,204.1a7.43,7.43,0,0,0-2-2.87,10.56,10.56,0,0,0-3-1.85,32.44,32.44,0,0,0-6.84-1.69c-2.17-.41-4.34-.91-6.52-1.28a17.86,17.86,0,0,0-6.87-.13,11.82,11.82,0,0,0-5.27,2.82,15.15,15.15,0,0,0-3.49,4.89,21.17,21.17,0,0,0-1.65,10.41,12.56,12.56,0,0,0,2.61,7.33,11.44,11.44,0,0,0,5.43,3.23,18.44,18.44,0,0,0,10.86-.16A28.52,28.52,0,0,0,216.82,214a15.79,15.79,0,0,0,2.56-5.4,8.08,8.08,0,0,0-.18-4.52" transform="translate(0)"/><g class="cls-27"><path id="path29714-3-9-9" class="cls-28" d="M195.23,195.23a12.49,12.49,0,0,0-10.06,6,12.37,12.37,0,0,0-1.66,7.16,11.22,11.22,0,0,1,1.38-5,10.2,10.2,0,0,1,6.93-5.06,18.05,18.05,0,0,1,5.44.09c1.73.22,3.48.44,5.19.81a20.64,20.64,0,0,1,7.47,3,7.24,7.24,0,0,1,1.4,1.25,3.66,3.66,0,0,1,.85,1.66,4,4,0,0,1-.53,2.66,10.16,10.16,0,0,1-1.72,2.15c-.53.53-1.1,1-1.66,1.53a18.66,18.66,0,0,0,7.28-2.68,7.21,7.21,0,0,0,2.25-2.35,4.41,4.41,0,0,0,.5-3.19,4.59,4.59,0,0,0-1.06-1.93,9.33,9.33,0,0,0-1.69-1.44,20,20,0,0,0-9.06-3.47c-2.08-.38-4.18-.7-6.28-1a28.53,28.53,0,0,0-5-.28Z" transform="translate(0)"/></g><g class="cls-27"><path id="path29714-3-9-3-8" class="cls-9" d="M195.23,195.23a12.49,12.49,0,0,0-10.06,6,12.37,12.37,0,0,0-1.66,7.16,11.22,11.22,0,0,1,1.38-5,10.2,10.2,0,0,1,6.93-5.06,18.05,18.05,0,0,1,5.44.09c1.73.22,3.48.44,5.19.81a20.64,20.64,0,0,1,7.47,3,7.24,7.24,0,0,1,1.4,1.25,3.66,3.66,0,0,1,.85,1.66,4,4,0,0,1-.53,2.66,10.16,10.16,0,0,1-1.72,2.15c-.53.53-1.1,1-1.66,1.53a18.66,18.66,0,0,0,7.28-2.68,7.21,7.21,0,0,0,2.25-2.35,4.41,4.41,0,0,0,.5-3.19,4.59,4.59,0,0,0-1.06-1.93,9.33,9.33,0,0,0-1.69-1.44,20,20,0,0,0-9.06-3.47c-2.08-.38-4.18-.7-6.28-1a28.53,28.53,0,0,0-5-.28Z" transform="translate(0)"/></g></g></g><circle class="cls-2" cx="89.57" cy="21.67" r="21.67"/><circle class="cls-29" cx="87.68" cy="19.94" r="12.69"/><circle class="cls-30" cx="87.68" cy="19.94" r="5.44"/><circle class="cls-2" cx="159.57" cy="21.67" r="21.67"/><circle class="cls-29" cx="161.47" cy="19.94" r="12.69"/><circle class="cls-30" cx="161.47" cy="19.94" r="5.44"/></g></g></svg>