<?xml version="1.0" encoding="utf-8"?>
<!-- Generator: Adobe Illustrator 25.0.0, SVG Export Plug-In . SVG Version: 6.00 Build 0)  -->
<svg version="1.1" id="Ebene_1" xmlns="http://www.w3.org/2000/svg" xmlns:xlink="http://www.w3.org/1999/xlink" x="0px" y="0px"
	 viewBox="0 0 246 246" style="enable-background:new 0 0 246 246;" xml:space="preserve">
<style type="text/css">
	.st0{fill:url(#SVGID_1_);}
	.st1{fill:url(#SVGID_2_);}
	.st2{fill:url(#SVGID_3_);}
	.st3{fill:#FFFFFF;}
</style>
<linearGradient id="SVGID_1_" gradientUnits="userSpaceOnUse" x1="123" y1="595.9998" x2="123" y2="841.9998" gradientTransform="matrix(1 0 0 1 0 -595.9998)">
	<stop  offset="0" style="stop-color:#011400"/>
	<stop  offset="6.000000e-02" style="stop-color:#022602"/>
	<stop  offset="0.19" style="stop-color:#094B07"/>
	<stop  offset="0.32" style="stop-color:#0F6A0B"/>
	<stop  offset="0.47" style="stop-color:#13810E"/>
	<stop  offset="0.62" style="stop-color:#179211"/>
	<stop  offset="0.79" style="stop-color:#1A9C13"/>
	<stop  offset="1" style="stop-color:#199F13"/>
</linearGradient>
<path class="st0" d="M19.8,0h206.3c11,0,19.8,8.9,19.8,19.8v206.3c0,11-8.9,19.8-19.8,19.8H19.8C8.9,246,0,237.1,0,226.2V19.8
	C0,8.9,8.9,0,19.8,0z"/>
<linearGradient id="SVGID_2_" gradientUnits="userSpaceOnUse" x1="122.75" y1="839.2598" x2="122.75" y2="760.2498" gradientTransform="matrix(1 0 0 1 0 -595.9998)">
	<stop  offset="0" style="stop-color:#5FC643"/>
	<stop  offset="1" style="stop-color:#A5A1AA;stop-opacity:0"/>
</linearGradient>
<path class="st1" d="M5.8,164.2h234v60.6c0,10.1-8.2,18.4-18.4,18.4H24.1c-10.2,0-18.4-8.2-18.4-18.4l0,0l0,0V164.2z"/>
<linearGradient id="SVGID_3_" gradientUnits="userSpaceOnUse" x1="122.755" y1="597.7498" x2="122.755" y2="676.7498" gradientTransform="matrix(1 0 0 1 0 -595.9998)">
	<stop  offset="0" style="stop-color:#FFFFFF"/>
	<stop  offset="1" style="stop-color:#CFCFCF;stop-opacity:0"/>
</linearGradient>
<path class="st2" d="M24.1,1.7h197.2c10.2,0,18.4,8.2,18.4,18.4c0,0,0,0,0,0l0,0v60.6H5.8V20.1C5.8,10,14,1.7,24.1,1.7z"/>
<path class="st3" d="M123,220c-29,0-55.6-6.6-75.1-18.4c-20.9-12.8-32.5-30.6-33.6-51.7v-5.7c0-0.5,0-1,0.1-1.5v-0.1
	c0-0.4,0-0.9,0.1-1.3c0-0.2,0-0.4,0.1-0.7c0-0.4,0.1-0.8,0.1-1.2c0-0.2,0-0.5,0.1-0.7c0.1-0.5,0.1-1.1,0.2-1.6V137
	c0.1-0.5,0.2-1.1,0.3-1.6v-0.2c0.1-0.6,0.2-1.2,0.4-1.8s0.3-1.2,0.4-1.9c0.4-1.8,1-3.7,1.5-5.6c3.8-12,11-23.8,20.6-34.1
	c-15.4-14.3-16.2-38.3-2-53.6s38.3-16.2,53.6-2c4.9,4.6,8.5,10.4,10.5,16.8C115,48,131,48,145.8,53c6.1-20.1,27.2-31.4,47.3-25.3
	s31.4,27.2,25.3,47.3c-2,6.4-5.6,12.3-10.5,16.8c9.7,10.3,16.8,22,20.6,34.1c0.6,1.9,1.1,3.8,1.6,5.6c0.1,0.6,0.3,1.2,0.4,1.9
	s0.2,1.2,0.4,1.8v0.2c0.1,0.6,0.2,1.1,0.3,1.7v0.2c0.1,0.5,0.1,1.1,0.2,1.6c0,0.2,0,0.4,0.1,0.6c0,0.4,0.1,0.8,0.1,1.2
	c0,0.2,0,0.4,0.1,0.7c0,0.4,0.1,0.9,0.1,1.3s0,1,0.1,1.6v5.7c-1.1,21-12.7,38.9-33.6,51.7C178.6,213.5,152,220,123,220z"/>
<path d="M182.1,28.5c19.6,0,35.4,15.9,35.4,35.5c0,10.7-4.9,20.8-13.2,27.5l0,0c10.2,10.4,17.9,22.4,21.9,35
	c0.6,1.8,1.1,3.6,1.5,5.4c0.1,0.6,0.3,1.2,0.4,1.8s0.2,1.2,0.3,1.8v0.1c0.1,0.6,0.2,1.1,0.3,1.7v0.2c0.1,0.5,0.1,1,0.2,1.5
	c0,0.2,0,0.4,0.1,0.6c0.1,0.4,0.1,0.8,0.1,1.2c0,0.2,0,0.4,0.1,0.6c0,0.4,0.1,0.9,0.1,1.3s0.1,1,0.1,1.6v5.4
	c-2.2,42.2-48.9,67.8-106.2,67.8S18.9,191.9,16.8,149.7v-5.4c0-0.5,0-1,0.1-1.6c0.1-0.6,0.1-0.8,0.1-1.3c0-0.2,0-0.4,0-0.6
	c0-0.4,0.1-0.8,0.1-1.2c0-0.2,0-0.4,0.1-0.6c0.1-0.5,0.1-1,0.2-1.5v-0.2c0.1-0.6,0.2-1.1,0.3-1.7v-0.1c0.1-0.6,0.2-1.2,0.3-1.8
	s0.2-1.2,0.4-1.8c0.4-1.8,0.9-3.6,1.5-5.4c4-12.6,11.6-24.6,21.9-35l0,0C26.5,79.3,24.1,57,36.3,41.8s34.6-17.6,49.8-5.4
	c6.2,5,10.6,12,12.3,19.7c15.8-6,33.2-6,49,0C151.1,40,165.5,28.5,182.1,28.5 M182.1,23.5c-16.9,0-32,10.5-37.9,26.3
	c-13.8-4.1-28.6-4.1-42.4,0C94,28.9,70.7,18.2,49.8,26S18.2,57,26,78c1.9,5.1,4.9,9.8,8.6,13.8c-8.8,9.6-15.4,20.9-19.5,33.2
	c-0.6,2-1.2,3.9-1.6,5.8c-0.1,0.6-0.3,1.3-0.4,1.9s-0.2,1.2-0.4,1.9v0.2c-0.1,0.5-0.2,1.1-0.3,1.7v0.2c-0.1,0.6-0.2,1.1-0.2,1.7
	c0,0.2-0.1,0.4-0.1,0.7c-0.1,0.4-0.1,0.8-0.1,1.3c0,0.2,0,0.5-0.1,0.7c0,0.4-0.1,0.9-0.1,1.3v0.1c0,0.5,0,1-0.1,1.5v6
	c1.1,22,13.2,40.5,34.8,53.7c19.9,12.1,47,18.8,76.4,18.8s56.6-6.7,76.4-18.8c21.6-13.2,33.7-31.8,34.8-53.7v-6c0-0.5,0-1-0.1-1.5
	v-0.1c0-0.4-0.1-0.9-0.1-1.3c0-0.2,0-0.5-0.1-0.7c0-0.4-0.1-0.8-0.1-1.3c0-0.2,0-0.5-0.1-0.7c-0.1-0.5-0.1-1.1-0.2-1.6v-0.2
	c-0.1-0.6-0.2-1.2-0.3-1.7v-0.2c-0.1-0.6-0.2-1.3-0.4-1.9s-0.3-1.3-0.4-1.9c-0.4-1.9-1-3.9-1.6-5.8c-4.1-12.3-10.8-23.7-19.5-33.2
	c15.4-16.2,14.8-41.8-1.4-57.2C202.5,27.5,192.5,23.5,182.1,23.5L182.1,23.5z"/>
</svg>
