<svg xmlns="http://www.w3.org/2000/svg" viewBox="0 0 595.02 595.02"><defs><style>.cls-1{fill:#78b355;}.cls-2{fill:#c7dfb3;}.cls-3{fill:#fff;}.cls-4{fill:#2a3034;}.cls-5{fill:#2b3034;}.cls-6{fill:#5d913b;}.cls-7{fill:none;}</style></defs><g id="Ebene_2" data-name="Ebene 2"><g id="Ebene_1-2" data-name="Ebene 1"><path class="cls-1" d="M344.67,203.66c40.07,1.22,96.58,9.6,108.63,54.85,6.51,29.53-10.69,57.39-31.6,76.79-16.91,16.05-36.34,29.1-55.84,41.75-6.93-.3-14-1.65-20.94-2.11-82.69-8.44-165.1,8.47-244.65,29.74C72.11,270.39,233.05,199.87,344.67,203.66Z"/><path class="cls-2" d="M100.27,404.68c86.12-23.38,175.9-40.28,265.19-27.51-29.31,22.38-128.14,63.37-102.15,109.75,17.25,30.9,71.88,54.83,86.6,9.32,5.06-11.62-3.08-26,6-35.88,18.26-18.26,46.65-22.59,71.49-22.37,18-.17,43.29,9.53,38.35,31.69-4.9,27-18.53,51.88-36.73,72.21C317.14,670.79,128.49,541.6,100.27,404.68Z"/><path class="cls-1" d="M303.85,25c39.21,9.44,24.82,69.87,13.46,96.7-23.56,56.47-57.18,38-67.76-12.93C240.47,69.88,255.88,19.25,303.85,25Z"/><path class="cls-1" d="M139.48,116c-1.6-22.15,16.08-43.66,38.74-44,32.89,3.62,33.33,51.91,30.44,77.1-1.76,19.35-14.59,50.64-37.81,32.41C151.28,166.11,140.22,140.61,139.48,116Z"/><path class="cls-3" d="M500.12,121.15C415.23,223.63,335,171.48,389,64.08a108.71,108.71,0,0,1,30.12-37C499.65-35.95,594.09,17.5,500.12,121.15Z"/><path class="cls-4" d="M486.29,90.59c0,39.82-61,40.32-61,0C425,51.33,485.86,50.09,486.29,90.59Z"/><path class="cls-3" d="M119.12,179.3c27.52,74.2-27.5,94.94-60.13,20.59-10.43-29.09,6.15-46.62,22.18-52.37S108.12,152.86,119.12,179.3Z"/><path class="cls-5" d="M93.53,179.33c23.51.33,21,34.54,0,34C71,213,71.24,179.17,93.53,179.33Z"/><path class="cls-6" d="M380,291.34c26.89.23,26.61,40.42-.06,40.68C353.28,331.5,353.26,291.54,380,291.34Z"/><path class="cls-6" d="M196.71,311.54c.34-26.73,40.33-26.49,40.67.2C237.05,338,196.92,338.75,196.71,311.54Z"/><rect class="cls-7" width="595.02" height="595.02"/></g></g></svg>