<?xml version="1.0" encoding="utf-8"?>
<!-- Generator: Adobe Illustrator 25.0.0, SVG Export Plug-In . SVG Version: 6.00 Build 0)  -->
<svg version="1.1" id="Ebene_1" xmlns="http://www.w3.org/2000/svg" xmlns:xlink="http://www.w3.org/1999/xlink" x="0px" y="0px"
	 viewBox="0 0 405.8 405.8" style="enable-background:new 0 0 405.8 405.8;" xml:space="preserve">
<style type="text/css">
	.st0{fill:#77B255;}
	.st1{fill:#FFFFFF;}
	.st2{fill:#292F33;}
</style>
<path class="st0" d="M328.3,175.3c0.4,10.9-3.2,16.1-6.4,25.5l-5.8,2.9c-4.8,9.2,0.5,5.9-2.9,13.2c-7.4,6.6-22.5,20.6-27.4,21.9
	c-3.5-0.1,2.4-4.2,3.2-5.8c-9.9,6.8-8,10.2-23.2,14.4l-0.5-1c-37.5,17.6-89.6-17.3-88.9-65c-0.4,3-1.1,2.3-2,3.5
	c-1.9-24.5,11.3-49.2,33.7-59.2c21.9-10.8,47.5-6.4,63.2,8.2c-8.6-11.3-25.7-23.2-46.1-22.1c-19.9,0.3-38.5,13-44.7,26.7
	c-10.2,6.4-11.4,24.7-15.8,28.1c-6,43.9,11.2,62.9,40.4,85.2c4.6,3.1,1.3,3.6,1.9,5.9c-9.9-4.7-18.7-11.4-25.8-19.7
	c3.9,5.7,8,11.2,13.4,15.5c-9.1-3.1-21.3-22.1-24.9-22.9c15.7,28.2,63.8,49.4,89,38.8c-11.6,0.4-26.4,0.2-39.5-4.6
	c-5.5-2.8-13-8.7-11.6-9.8c34.4,12.9,69.8,9.7,99.6-14.1c7.6-5.9,15.8-15.9,18.2-16c-3.6,5.4,0.6,2.6-2.1,7.4
	c7.5-12.1-3.3-4.9,7.8-21l4.1,5.6c-1.5-10.1,12.5-22.3,11.1-38.3c3.2-4.9,3.6,5.2,0.2,16.5c4.8-12.4,1.2-14.4,2.5-24.7
	c1.3,3.4,3,7.1,3.9,10.8c-3.1-12,3.2-20.3,4.7-27.2c-1.5-0.7-4.8,5.3-5.5-8.9c0.1-6.2,1.7-3.2,2.3-4.8c-1.2-0.7-4.4-5.4-6.3-14.5
	c1.4-2.1,3.8,5.5,5.7,5.8c-1.2-7.2-3.4-12.7-3.4-18.3c-5.6-11.7-2,1.6-6.5-5c-5.9-18.5,4.9-4.3,5.7-12.7c9,13,14.1,33.2,16.5,41.6
	c-1.9-10.1-4.6-20-8.2-29.6c2.7,1.2-4.4-21,3.5-6.3c-8.5-31.2-36.4-60.5-62-74.2c3.1,2.9,7.1,6.5,5.7,7
	c-12.7-7.6-10.5-8.2-12.3-11.4c-10.4-4.2-11.1,0.3-17.9,0c-19.6-10.4-23.3-9.3-41.3-15.8l0.8,3.8c-13-4.3-15.1,1.6-29.1,0
	c-0.9-0.7,4.5-2.4,8.9-3.1c-12.5,1.7-12-2.5-24.2,0.5c3-2.1,6.2-3.5,9.4-5.3c-10.2,0.6-24.4,5.9-20,1.1
	c-16.7,7.4-46.3,17.9-62.9,33.5l-0.5-3.5c-7.6,9.1-33.2,27.3-35.2,39.1l-2,0.5c-4,6.7-6.5,14.3-9.7,21.2c-5.2,8.8-7.6,3.4-6.8,4.8
	c-10.2,20.7-15.3,38-19.6,52.3c3.1,4.7,0.1,28,1.2,46.8c-5.2,92.4,64.8,182.2,141.3,202.9c11.2,4,27.9,3.9,42.1,4.3
	c-16.7-4.8-18.9-2.5-35.2-8.2c-11.7-5.6-14.3-11.9-22.7-19.1l3.3,5.8c-16.3-5.8-9.5-7.2-22.8-11.4l3.5-4.6
	c-5.3-0.4-14-8.9-16.4-13.6l-5.8,0.2c-7-8.6-10.7-14.8-10.4-19.6l-1.9,3.3c-2.1-3.6-25.6-32.2-13.4-25.6c-2.3-2.1-5.3-3.4-8.5-9.3
	l2.5-2.8c-5.9-7.5-10.8-17.2-10.4-20.4c3.1,4.2,5.3,5,7.4,5.7c-14.8-36.7-15.6-2-26.8-37.4l2.4-0.2c-1.8-2.7-2.9-5.7-4.4-8.6l1-10.3
	c-10.7-12.3-3-52.4-1.4-74.4c1.2-8.9,8.9-18.4,14.9-33.4l-3.6-0.6c6.9-12.1,39.6-48.6,54.8-46.7c7.3-9.2-1.5,0-2.9-2.4
	c16.1-16.7,21.2-11.8,32-14.8c11.7-7-10.1,2.7-4.5-2.7c20.3-5.2,14.4-11.8,40.8-14.4c2.8,1.6-6.5,2.5-8.8,4.5
	c16.9-8.3,53.4-6.4,77.1,4.6c27.5,12.9,58.5,50.9,59.7,86.7l1.4,0.4c-0.7,14.2,2.2,30.7-2.8,45.8L328.3,175.3"/>
<g>
	<path class="st0" d="M161.3,223.6l-1,4.7c4.4,6,7.9,12.5,13.6,17.2C169.8,237.6,166.8,234.3,161.3,223.6"/>
	<path class="st0" d="M171.8,223.2c-2.3-2.6-3.7-5.7-5.3-8.8c1.5,5.4,4.5,10.1,7.3,14.9L171.8,223.2"/>
	<path class="st0" d="M356.6,183l-1,2.5c-1.8,13-5.8,25.7-11.7,37.4C350.5,210.4,354.8,196.9,356.6,183"/>
	<path class="st0" d="M210.6,2c4.5-1.7,11.2-0.9,16-2c-6.3,0.5-12.5,0.8-18.7,1.6L210.6,2"/>
	<path class="st0" d="M51,86.9c1,9.7-7.3,13.5,1.8,7.1C57.8,82.9,50.9,90.9,51,86.9"/>
	<path class="st0" d="M40.2,131.8c2.1-6.5,2.5-10.4,3.3-14.1C37.7,125.1,40.8,126.7,40.2,131.8"/>
	<path class="st0" d="M216.4,7.2l-2.5,0.5l2.4-0.2L216.4,7.2"/>
	<path class="st0" d="M209.2,5.2c3.6,0.7,7.8,1.1,7.2,2C220.3,6.4,221.2,5.6,209.2,5.2"/>
	<path class="st0" d="M234.7,214.4c-6.7,0.1,1.3,3.5,10.1,4.8c2.4-1.9,4.6-3.8,6.6-5.7C245.9,214.7,240.3,215,234.7,214.4"/>
</g>
<g>
	<circle class="st0" cx="231.4" cy="167.7" r="52.4"/>
	<circle class="st1" cx="231.4" cy="167.7" r="44.2"/>
	<circle class="st2" cx="231.5" cy="167.8" r="19.6"/>
</g>
</svg>
