<?xml version="1.0" encoding="utf-8"?>
<!-- Generator: Adobe Illustrator 25.0.0, SVG Export Plug-In . SVG Version: 6.00 Build 0)  -->
<svg version="1.1" id="Ebene_1" xmlns="http://www.w3.org/2000/svg" xmlns:xlink="http://www.w3.org/1999/xlink" x="0px" y="0px"
	 viewBox="0 0 27.7 27.7" style="enable-background:new 0 0 27.7 27.7;" xml:space="preserve">
<style type="text/css">
	.st0{clip-path:url(#SVGID_2_);}
	.st1{fill:#4FBCFF;}
	.st2{fill:#03ACED;}
	.st3{fill:#FFFFFF;}
	.st4{fill:#292F33;}
	.st5{fill:#0366BB;}
</style>
<g>
	<defs>
		<path id="SVGID_1_" d="M10.4,3.1v10l-9.2,0.1V5L10.4,3.1z M11.7,2.9v10.3L26.5,13V0L11.7,2.9z M11.7,14.5v10.2l14.8,3v-13
			L11.7,14.5z M10.4,24.5v-10l-9.2-0.2v8.3L10.4,24.5z"/>
	</defs>
	<clipPath id="SVGID_2_">
		<use xlink:href="#SVGID_1_"  style="overflow:visible;"/>
	</clipPath>
	<g class="st0">
		<path class="st1" d="M26.5,17.3c0,6.5-7.8,8.8-15.4,7.3c-5.9-1.2-9.8-4.5-9.8-8.6s3.9-7.8,9.8-8.6C18.6,6.4,26.5,10.8,26.5,17.3z"
			/>
		<path class="st2" d="M22.1,9.5c1.3-0.9,2.2-2.4,2.2-4.1c0-2.8-2.7-4.5-5.7-3.9c-2.2,0.4-4.1,2-4.7,4.2c-1-0.2-1.9-0.2-2.9-0.1
			c-0.9,0.1-1.8,0.4-2.6,0.9C8.2,5,6.8,3.9,5.2,4.2c0,0-0.1,0-0.1,0c-1.8,0.5-3.1,2.1-3,4c0,1,0.4,1.9,1.1,2.6
			c-1.2,1.5-1.9,3.3-2,5.3c0,4.1,3.9,0.8,9.9,1.2c7.5,0.5,15.4,6.6,15.4,0.1C26.5,14.4,24.8,11.6,22.1,9.5z"/>
		<path class="st3" d="M4.9,5.4C5.8,5.3,6.6,6,6.8,6.9c0,0.1,0,0.3,0,0.4c0,1.1-0.8,2.1-1.9,2.3C3.9,9.7,3.1,8.9,3.1,8
			c0-0.1,0-0.1,0-0.2C3.1,6.7,3.8,5.7,4.9,5.4z"/>
		<path class="st4" d="M4.9,6.6c0.4,0,0.8,0.3,0.8,0.7c0,0,0,0.1,0,0.1c0,0.5-0.3,0.9-0.8,1c-0.4,0-0.8-0.3-0.8-0.7c0,0,0-0.1,0-0.1
			C4.1,7.1,4.4,6.7,4.9,6.6z"/>
		<path class="st3" d="M19.1,3c1.7-0.3,3.2,0.7,3.2,2.3c-0.1,1.7-1.5,3-3.2,3.1c-1.4,0.2-2.6-0.7-2.9-2c0-0.1,0-0.2,0-0.3
			C16.3,4.5,17.5,3.2,19.1,3z"/>
		<path class="st4" d="M19.1,4.5c0.6-0.1,1.2,0.2,1.3,0.8c0,0.1,0,0.2,0,0.2c-0.1,0.7-0.6,1.3-1.3,1.3C18.5,7,18,6.6,17.8,6
			c0-0.1,0-0.1,0-0.2C17.9,5.2,18.4,4.6,19.1,4.5z"/>
		<path class="st5" d="M8.5,14.4c0.4,0,0.6,0.3,0.6,0.7c0,0.3-0.3,0.6-0.6,0.6c0,0,0,0,0,0c-0.3,0-0.6-0.3-0.6-0.7
			C7.9,14.7,8.2,14.5,8.5,14.4z"/>
		<path class="st5" d="M13.9,14.5c0.4,0,0.7,0.3,0.7,0.7c0,0,0,0,0,0c0,0.4-0.3,0.7-0.7,0.7c0,0,0,0,0,0c-0.4,0-0.7-0.3-0.7-0.7
			C13.2,14.8,13.5,14.5,13.9,14.5C13.9,14.5,13.9,14.5,13.9,14.5z"/>
	</g>
</g>
</svg>
