<svg xmlns="http://www.w3.org/2000/svg" viewBox="0 0 497.48 497.48"><defs><style>.cls-1{fill:#c6e5b3;}.cls-2{fill:#77b255;}.cls-3{fill:#5c913b;}.cls-4{fill:#fff;}.cls-5{fill:#292f33;}.cls-6{fill:none;}</style></defs><g id="Ebene_2" data-name="Ebene 2"><g id="Ebene_1-2" data-name="Ebene 1"><path class="cls-1" d="M447.64,365.35s-43.3,132.13-116.08,132.13c-21.13,0-47.74-20-78.66-20s-52.82,20-82.17,20c-46.28,0-105-88.22-123.39-176.27,20.28,39.63,101.77-14.82,199.19-14.82,65.5,0,123.78,24.6,161.11,28.69A130.68,130.68,0,0,0,447.64,365.35Z"/><path class="cls-2" d="M406.54,194.16c-35.55,44.56-34,101.11,1.1,140.92C370.31,331,312,306.39,246.53,306.39c-97.42,0-178.91,54.45-199.19,14.82A278,278,0,0,1,42.6,290c-.66-7.11-1-14.15-1-21.07,0-42.64,12.94-75.53,31.91-99.35,26.12-32.81,63.65-48.37,94.48-48.37,30.52,0,57.52,22.63,79.51,22.63s53.93-24,92.53-24c42.88,0,71.4,23,84.88,37.15a89.68,89.68,0,0,1,9,10.85A148.07,148.07,0,0,0,406.54,194.16Z"/><path class="cls-2" d="M343.81,0c-1.21,72.37-37.25,107.16-99.19,114C243.25,55,275,16.13,343.81,0Z"/><ellipse class="cls-3" cx="201.19" cy="272.54" rx="11.34" ry="11.28"/><ellipse class="cls-3" cx="291.87" cy="272.54" rx="11.34" ry="11.28"/><circle class="cls-2" cx="138.32" cy="119.87" r="62.87"/><circle class="cls-4" cx="133.22" cy="114.78" r="36.77"/><circle class="cls-5" cx="133.22" cy="114.78" r="15.76"/><circle class="cls-2" cx="393.01" cy="120.13" r="62.87"/><circle class="cls-4" cx="387.91" cy="115.04" r="36.77"/><circle class="cls-5" cx="387.91" cy="115.04" r="15.76"/><rect class="cls-6" width="497.48" height="497.48"/></g></g></svg>