<svg xmlns="http://www.w3.org/2000/svg" xmlns:xlink="http://www.w3.org/1999/xlink" viewBox="0 0 27.68 27.68"><defs><style>.cls-1{fill:none;}.cls-2{clip-path:url(#clip-path);}.cls-3{fill:#4fbcff;}.cls-4{fill:#03aced;}.cls-5{fill:#fff;}.cls-6{fill:#292f33;}.cls-7{fill:#0366bb;}</style><clipPath id="clip-path" transform="translate(0 0)"><path class="cls-1" d="M10.4,3.14l0,10-9.22.1V5Zm1.31-.26V13.16L26.46,13V0Zm0,11.6V24.71l14.76,3v-13Zm-1.28,10v-10l-9.2-.16v8.34Z"/></clipPath></defs><g id="Ebene_2" data-name="Ebene 2"><g id="Ebene_1-2" data-name="Ebene 1"><g class="cls-2"><path class="cls-3" d="M26.47,17.3c0,6.45-7.84,8.82-15.39,7.32C5.16,23.44,1.23,20.14,1.23,16s3.93-7.83,9.84-8.62C18.62,6.38,26.46,10.85,26.47,17.3Z" transform="translate(0 0)"/><path class="cls-4" d="M22.1,9.51a5.16,5.16,0,0,0,2.23-4.06c0-2.78-2.66-4.51-5.66-3.92A5.93,5.93,0,0,0,14,5.77a8.15,8.15,0,0,0-2.92-.1,8.07,8.07,0,0,0-2.63.87A2.83,2.83,0,0,0,5.13,4.18a4,4,0,0,0-3,4,3.42,3.42,0,0,0,1.07,2.58,8.61,8.61,0,0,0-2,5.28c0,4.13,3.93.81,9.85,1.18,7.54.48,15.39,6.56,15.39.11C26.46,14.43,24.75,11.6,22.1,9.51Z" transform="translate(0 0)"/><path class="cls-5" d="M4.87,5.43a1.69,1.69,0,0,1,1.9,1.85,2.3,2.3,0,0,1-1.9,2.34A1.72,1.72,0,0,1,3.1,7.75,2.33,2.33,0,0,1,4.87,5.43Z" transform="translate(0 0)"/><path class="cls-6" d="M4.87,6.63a.73.73,0,0,1,.8.79,1,1,0,0,1-.8,1,.73.73,0,0,1-.78-.8A1,1,0,0,1,4.87,6.63Z" transform="translate(0 0)"/><path class="cls-5" d="M19.11,3c1.74-.3,3.22.72,3.23,2.29a3.43,3.43,0,0,1-3.23,3.13,2.49,2.49,0,0,1-2.93-2.34A3.39,3.39,0,0,1,19.11,3Z" transform="translate(0 0)"/><path class="cls-6" d="M19.11,4.54a1.07,1.07,0,0,1,1.34,1,1.46,1.46,0,0,1-1.34,1.33,1.07,1.07,0,0,1-1.29-1A1.45,1.45,0,0,1,19.11,4.54Z" transform="translate(0 0)"/><path class="cls-7" d="M8.53,14.45a.65.65,0,0,1,.62.66.61.61,0,0,1-.62.63.65.65,0,0,1-.6-.66A.62.62,0,0,1,8.53,14.45Z" transform="translate(0 0)"/><path class="cls-7" d="M13.88,14.53a.74.74,0,0,1,.75.73.71.71,0,0,1-.75.69.75.75,0,0,1-.73-.73A.7.7,0,0,1,13.88,14.53Z" transform="translate(0 0)"/></g><rect class="cls-1" width="27.68" height="27.68"/></g></g></svg>