<?xml version="1.0" encoding="utf-8"?>
<!-- Generator: Adobe Illustrator 25.0.0, SVG Export Plug-In . SVG Version: 6.00 Build 0)  -->
<svg version="1.1"
	 id="svg8" xmlns:cc="http://creativecommons.org/ns#" xmlns:dc="http://purl.org/dc/elements/1.1/" xmlns:inkscape="http://www.inkscape.org/namespaces/inkscape" xmlns:rdf="http://www.w3.org/1999/02/22-rdf-syntax-ns#" xmlns:sodipodi="http://sodipodi.sourceforge.net/DTD/sodipodi-0.dtd" xmlns:svg="http://www.w3.org/2000/svg"
	 xmlns="http://www.w3.org/2000/svg" xmlns:xlink="http://www.w3.org/1999/xlink" x="0px" y="0px" viewBox="0 0 42 42"
	 style="enable-background:new 0 0 42 42;" xml:space="preserve">
<style type="text/css">
	.st0{fill:#76B154;}
	.st1{fill:#C5E4B2;}
	.st2{fill:#FFFFFF;}
	.st3{fill:#282E31;}
</style>
<g id="buntu" transform="matrix(0.13427885,0,0,0.13427877,-1.141956,-2.1160175)">
	<path id="buntu1" class="st0" d="M118.3,274.7c-20.1-14.1-35.8-34-44.7-56.8c-1.7-4.4-4.5-12.9-4.5-13.7c0-0.2,0.7-0.9,1.4-1.6
		c1.7-1.5,4.6-4.7,6.2-6.9c3.5-4.8,5.8-10.5,7-16.8c0.4-2,0.4-2.9,0.4-6.8c0-3.9-0.1-4.9-0.4-6.9c-1.4-7.9-4.8-14.8-10.3-20.8
		c-1-1.1-2.4-2.4-3-3c-0.7-0.6-1.3-1.2-1.3-1.4c0-0.8,2.9-9.8,4.6-14.1c9.1-22.9,24.2-42,44.6-56.5c2.2-1.6,2.5-1.7,2.7-1.4
		c0.2,0.3,21.3,35.5,21.5,36c0,0.1-0.7,0.7-1.7,1.4c-14.8,11-25.5,26.6-30.5,44.1c-3.7,13.1-4.1,27.3-1.1,40.6
		c4.2,19,15,35.8,30.9,48.1l2,1.5l-0.1,0.8c-0.1,0.6-2.4,4.7-10.5,18.2c-5.7,9.6-10.5,17.5-10.7,17.5
		C120.8,276.4,119.6,275.7,118.3,274.7L118.3,274.7z"/>
	<path id="buntu2" class="st0" d="M273,163.7c-0.7-6.1-2.2-12.7-4.1-18.3c-9.1-26.7-31.3-47.1-58.6-53.9c-4.7-1.2-11.1-2.1-16.3-2.4
		c-5.3-0.3-10.9,0.1-17.4,1.2c-6.5,1.1-14.6,3.5-20.2,6l-1.1,0.5l-10.3-18.5c-5.7-10.2-10.3-18.6-10.2-18.6c0,0,1.5-0.7,3.3-1.5
		c11.2-5.1,22.4-8.3,34.2-10c7.1-1,10.5-1.3,18.5-1.2c6.4,0,7.8,0.1,11.9,0.5c6.7,0.7,15.4,2.2,20,3.5c0.5,0.2,0.6,0.3,1.1,2.5
		c2.2,9.5,6.7,16.9,13.9,22.9c3.7,3.1,7.3,5.2,11.9,6.9c4.5,1.7,8.9,2.5,13.8,2.5c4.9,0,8.6-0.5,13.1-2l2-0.7l2,2
		c2.3,2.3,5.3,5.8,7.6,8.6c15.3,19.1,24.7,42.2,26.9,66.4c0.1,1.2,0.2,2.6,0.3,3.1l0.1,1l-3.5,0c-1.9,0-10.9,0.1-20,0.3
		c-9.1,0.2-17,0.3-17.7,0.3l-1.2,0L273,163.7L273,163.7z"/>
	<path id="buntu3" class="st1" d="M184.2,297.3c-13.8-0.7-27.1-3.6-39.7-8.5c-4.9-1.9-9.9-4.2-9.7-4.5c0-0.1,4.6-8.3,10.2-18.4
		c5.6-10,10.2-18.3,10.3-18.4c0.1-0.1,0.6,0.1,1.1,0.3c2,1,7.8,3.1,11.8,4.2c4.8,1.3,11.6,2.5,16.4,2.9c5,0.4,12.2,0.1,17.2-0.6
		c15.4-2.2,30.1-8.7,41.5-18.2c16.9-14.2,27.3-33.5,29.9-55.6l0.1-1.1l1.5,0c2,0,40.8,0.6,40.9,0.7c0.1,0.1-0.6,6.4-0.9,9
		c-3.6,26.3-15.5,51-34,70.1l-1.9,1.9l-2-0.7c-2.6-0.9-6.8-1.7-9.8-2c-3.7-0.3-8.3,0-12.4,1c-15.4,3.6-27.3,15.8-30.7,31.5l-0.5,2.1
		l-1,0.3c-2,0.6-7.3,1.7-11.1,2.3C202.2,297.2,192.8,297.7,184.2,297.3L184.2,297.3z"/>
</g>
<ellipse id="beard_or_idfk" class="st1" cx="34.3" cy="38.1" rx="3.9" ry="3.9"/>
<g id="eyes" transform="matrix(0.13427885,0,0,0.13427877,-1.141956,-2.1160175)">
	<g id="left_eye">
		<circle id="left_eye_outer" class="st2" cx="43.5" cy="172.1" r="29.2"/>
		<circle id="left_eye_inner" class="st3" cx="43.2" cy="172.5" r="15.1"/>
	</g>
	<g id="right_eye">
		<circle id="right_eye_outer" class="st2" cx="263.8" cy="44.9" r="29.2"/>
		<circle id="right_eye_inner" class="st3" cx="264.4" cy="45" r="15.1"/>
	</g>
</g>
</svg>
