<?xml version="1.0" encoding="utf-8"?>
<!-- Generator: Adobe Illustrator 25.0.0, SVG Export Plug-In . SVG Version: 6.00 Build 0)  -->
<svg version="1.1" id="Ebene_1" xmlns="http://www.w3.org/2000/svg" xmlns:xlink="http://www.w3.org/1999/xlink" x="0px" y="0px"
	 viewBox="0 0 1498.4 1498.4" style="enable-background:new 0 0 1498.4 1498.4;" xml:space="preserve">
<style type="text/css">
	.st0{fill:#77B255;}
	.st1{fill:#C6E5B3;}
	.st2{fill:#FFFFFF;}
	.st3{fill:#292F33;}
</style>
<g id="Ebene_2_1_">
	<g id="Ebene_1-2">
		<path class="st0" d="M1135.7,1061.2c-29.3-6.9-57.8-13.2-85.7-18.9c13.1-17.6,24.7-36.3,34.7-55.9L1135.7,1061.2z"/>
		<path class="st1" d="M1276.6,1250.3l-97.8,97.8c-4.3,4.2-10.9,4.9-15.9,1.6l-182.4-119.6c-37.7,22.2-78.2,39.2-120.4,50.6
			l-50.9,208c-1.4,5.7-6.4,9.7-12.3,9.7H658.7c-6,0-11.2-4.2-12.4-10.1l-43.2-207.6c-40.9-11.1-80.3-27.4-117-48.7L301,1344.4
			c-5,3-11.4,2.2-15.5-1.9l-97.8-97.8c-4.3-4.2-5-10.9-1.6-15.9l97.1-148.1l135-31.8c72.5,93.5,185.9,153.7,313.4,153.7
			c130.5,0,246.1-63.1,318.3-160.3l0,0c27.9,5.7,56.4,11.9,85.7,18.9l0.2,0.3l46.1,67.4c1.9,2.7,5.3,3.9,8.4,2.9l21.5-6.8
			l66.6,109.7C1281.5,1239.7,1280.7,1246.1,1276.6,1250.3z"/>
		<path class="st0" d="M283.3,1080.7l20.9-31.9c-22.5-39.7-39.3-82.4-50-126.8l-204-49.9c-5.7-1.4-9.6-6.5-9.6-12.3V721.5
			c0-6,4.2-11.2,10.1-12.4l210.2-43.7c8-26.8,18.3-52.8,30.8-77.8c26.6,13.3,60.2,17.8,101.4,12.9
			c-85.3,140.3-75.3,318.6,25.1,448.5l0,0L283.3,1080.7L283.3,1080.7z"/>
		<path class="st2" d="M569.2,342.7v102.2c-73.1,33-134.5,87.2-176.2,155.6c-41.2,4.9-74.8,0.4-101.4-12.9
			c5.4-10.9,11.3-21.6,17.5-32L194.5,367c-3-5-2.3-11.4,1.9-15.5l97.8-97.8c2.1-2.1,4.7-3.4,7.6-3.7v0c2.9-0.3,5.8,0.4,8.2,2
			l186.7,122.5c0,0,0.1,0.1,0.1,0.1C520,362,544.2,351.3,569.2,342.7z"/>
		<circle class="st3" cx="363" cy="418.8" r="78.8"/>
		<path class="st0" d="M1115.9,511.7l339.4,466.7l-259.8,82.2L864,575.4v437.5l-12.3,1.8c-70.2-7.2-149.7-5.4-234.3,1.6V23.8
			L866.7,0L864,450.8l187.1-250.5c7.5,99.6,73.5,161.4,169.2,177L1115.9,511.7z"/>
		<path class="st0" d="M1349.5,46.7L1458,71.6l-48.2,62C1399.2,100,1378.1,71.2,1349.5,46.7z"/>
		<path class="st1" d="M851.8,1014.7L617.5,1050v-33.7C702.1,1009.4,781.6,1007.5,851.8,1014.7z"/>
		<path class="st2" d="M1409.8,133.6l-189.3,243.7c-95.7-15.6-161.7-77.4-169.2-177l141.7-189.7l156.7,36
			C1378.1,71.2,1399.2,100,1409.8,133.6z"/>
		<circle class="st3" cx="1235.6" cy="192" r="78.7"/>
	</g>
</g>
</svg>
