<?xml version="1.0" encoding="utf-8"?>
<!-- Generator: Adobe Illustrator 25.0.0, SVG Export Plug-In . SVG Version: 6.00 Build 0)  -->
<svg version="1.1" id="Ebene_1" xmlns="http://www.w3.org/2000/svg" xmlns:xlink="http://www.w3.org/1999/xlink" x="0px" y="0px"
	 viewBox="0 0 200 200" style="enable-background:new 0 0 200 200;" xml:space="preserve">
<style type="text/css">
	.st0{fill:#559438;}
	.st1{fill:#C5DEB1;}
	.st2{fill:#77B154;}
	.st3{fill:#FFFFFF;}
	.st4{fill:#2A2F33;}
	.st5{fill:#5C903A;}
</style>
<path class="st0" d="M167,0H33C21.7,0,12.5,9.3,12.5,20.6c0,0,0,0,0,0v135.2c0,11.3,9.2,20.6,20.5,20.6c0,0,0,0,0,0h113.4l-5.3-18.5
	l12.8,11.9L166,181l21.5,19V20.6C187.5,9.3,178.3,0,167,0C167,0,167,0,167,0z"/>
<g>
	<path class="st1" d="M159.4,114.1c0,0-8.5,14.5-30.6,15.2c0,0-3.6-4.3-6.6-8.1c13.1-3.7,18.1-11.9,18.1-11.9
		c-3.6,2.4-7.5,4.4-11.5,5.9c-4.7,2-9.5,3.4-14.5,4.3c-8.6,1.6-17.3,1.5-25.9-0.1c-5-1-9.9-2.4-14.7-4.3c-2.5-1-4.9-2.1-7.3-3.4
		c-0.3-0.2-0.6-0.3-0.9-0.5c-0.2-0.1-0.3-0.2-0.4-0.3c-1.7-0.9-2.7-1.6-2.8-1.7c0.1,0.2,5,8.1,17.5,11.8c-3,3.8-6.7,8.3-6.7,8.3
		c-22.1-0.7-30.5-15.2-30.5-15.2c0-4.4,0.3-8.8,0.8-13.1c8.3,7,31-7.2,57.6-7.2s49.3,14.2,57.6,7.2
		C159.1,105.3,159.4,109.7,159.4,114.1z"/>
	<path class="st2" d="M158.6,101c-8.3,7-31-7.2-57.6-7.2S51.7,108,43.3,101c1.1-8.8,3-17.5,5.7-26c2-6.1,5.7-11.4,10.7-15.4
		c0,0,2.2-1.2,5.9-2.9c7.2-3.3,14.8-5.4,22.7-6.3c0.6-0.1,1.1-0.2,1.7-0.2c6.7-0.9,13.5-0.9,20.2-0.2c10.6,1.2,20.8,4.5,30.1,9.6
		l0,0c6.1,3.7,10.6,9.5,12.8,16.3C155.7,84.1,157.6,92.5,158.6,101z"/>
	<g>
		<ellipse class="st2" cx="66.5" cy="51.9" rx="13.7" ry="14.2"/>
		<ellipse class="st3" cx="65.3" cy="50.8" rx="8" ry="8.3"/>
		<ellipse class="st4" cx="65.3" cy="50.8" rx="3.4" ry="3.6"/>
	</g>
	<g>
		<ellipse class="st2" cx="139.8" cy="51.9" rx="13.7" ry="14.2"/>
		<ellipse class="st3" cx="141.1" cy="50.8" rx="8" ry="8.3"/>
		<ellipse class="st4" cx="141.1" cy="50.8" rx="3.4" ry="3.6"/>
	</g>
	<ellipse class="st5" cx="87.4" cy="87.9" rx="4.2" ry="4.3"/>
	<ellipse class="st5" cx="113.2" cy="87.9" rx="4.2" ry="4.3"/>
</g>
</svg>
