<svg xmlns="http://www.w3.org/2000/svg" viewBox="0 0 821 821"><defs><style>.cls-1{fill:#5c903a;}.cls-2{fill:#c5deb1;}.cls-3{fill:#77b154;}</style></defs><g id="Ebene_2" data-name="Ebene 2"><g id="Ebene_1-2" data-name="Ebene 1"><rect class="cls-1" width="821" height="821"/><path class="cls-2" d="M637.43,432.3C626,548.47,528,639.21,408.8,639.21a228.7,228.7,0,0,1-122.59-35.4l-93.34,21.32,21.69-92.91a228.22,228.22,0,0,1-34-96.71,30.28,30.28,0,0,0,5.83,8.37C216.65,474.29,304.56,418,408.28,418,522.18,418,617,485.86,637.43,432.3Z"/><path class="cls-3" d="M638.56,409.46q0,11.57-1.13,22.84C617,485.86,522.18,418,408.28,418c-103.72,0-191.63,56.26-221.93,25.85a30.28,30.28,0,0,1-5.83-8.37,229.77,229.77,0,1,1,458-26.05Z"/><ellipse class="cls-1" cx="469.84" cy="388.99" rx="13.76" ry="14.28"/><ellipse class="cls-1" cx="349.84" cy="388.99" rx="13.76" ry="14.28"/><path class="cls-2" d="M222.8,669.05l-6.65-25.63-53.41,11.84,11.8-54.06L149,595.46l-13,55.78a25.47,25.47,0,0,0,30.44,30.62Z"/><path class="cls-2" d="M154.33,571.91l26.41,5.87,8.51-38c-12.36-20.16-21.45-43.62-28.27-69.36l-25.69,6.26c4.55,22.76,13.9,44.74,25.69,66.33Z"/><path class="cls-2" d="M129.8,451.46l26.35-3.53a283,283,0,0,1,0-76.69l-26.35-3.78C125.68,394.47,126.27,422.61,129.8,451.46Z"/><path class="cls-2" d="M160.72,348.15c7-25.54,16.41-49.24,29.48-70l-22.83-14.22c-14.32,22.7-24.91,49.16-32.74,78.39Z"/><path class="cls-2" d="M203.24,258.28a268.91,268.91,0,0,1,54-53.87l-15.91-21.65a276.61,276.61,0,0,0-59.61,59.61Z"/><path class="cls-2" d="M276.8,191.17c19.2-11.94,43-21.55,70.83-29.15L341,136c-30.69,7.84-56.61,18.8-78.07,32.67Z"/><path class="cls-2" d="M369.74,157.33c24.43-3.52,50.22-3.27,77.09,0l3.91-26.81a355.73,355.73,0,0,0-84.91,0Z"/><path class="cls-2" d="M469.72,161.63A240.49,240.49,0,0,1,540,191.37l14.47-22.5C531.75,154,505.3,143.2,475.78,135.8Z"/><path class="cls-2" d="M559.85,204.41a291.18,291.18,0,0,1,54.52,53.87l21.13-15.65c-15.23-22.38-35.85-41.95-59.87-59.74Z"/><path class="cls-2" d="M626.63,277.46a243,243,0,0,1,29.2,70.48l26.76-5.4c-6.17-26.55-17.54-52.75-33.39-78.65Z"/><path class="cls-2" d="M686.89,367.07l-26.35,4c4.56,24.3,4.14,50,0,76.82l26.35,3.79A276.16,276.16,0,0,0,686.89,367.07Z"/><path class="cls-2" d="M656.17,470.47l25.93,6.75c-7.92,30.06-18.27,56.69-32.28,78.16l-22.9-14.09C638.58,523.39,647.78,498.14,656.17,470.47Z"/><path class="cls-2" d="M559.85,615a275.28,275.28,0,0,0,53.74-54L635,576.61a285.79,285.79,0,0,1-59.47,60.16Z"/><path class="cls-2" d="M469.72,657.12l6.36,25.53q43.59-9.89,78-32.28l-13.69-22.7C518,641.94,494.52,652,469.72,657.12Z"/><path class="cls-2" d="M369.93,662.24l-3.65,26.09a290.67,290.67,0,0,0,85.05,0l-5-26.09A312.31,312.31,0,0,1,369.93,662.24Z"/><path class="cls-2" d="M246.48,663.87,274.07,657a232.74,232.74,0,0,0,66.71,25.49L347.24,657c-22.81-4.71-46-15-69.46-28.17l-37.95,8.61Z"/></g></g></svg>