<svg xmlns="http://www.w3.org/2000/svg" xmlns:xlink="http://www.w3.org/1999/xlink" viewBox="0 0 183.23 183.23"><defs><style>.cls-1{fill:#292f33;}.cls-2{fill:url(#Unbenannter_Verlauf_60);}.cls-3{fill:url(#Unbenannter_Verlauf_68);}.cls-4{fill:#fff;}.cls-5{fill:url(#Unbenannter_Verlauf_68-2);}.cls-6{fill:url(#Unbenannter_Verlauf_68-3);}</style><linearGradient id="Unbenannter_Verlauf_60" x1="91.62" y1="0.89" x2="91.62" y2="180.81" gradientUnits="userSpaceOnUse"><stop offset="0" stop-color="#77b255"/><stop offset="0.41" stop-color="#6fa84d"/><stop offset="1" stop-color="#5c913b"/></linearGradient><linearGradient id="Unbenannter_Verlauf_68" x1="47.85" y1="23.37" x2="72.67" y2="23.37" gradientUnits="userSpaceOnUse"><stop offset="0" stop-color="#c6e5b3"/><stop offset="1" stop-color="#c6e5b3"/></linearGradient><linearGradient id="Unbenannter_Verlauf_68-2" x1="104.54" y1="23.37" x2="129.37" y2="23.37" xlink:href="#Unbenannter_Verlauf_68"/><linearGradient id="Unbenannter_Verlauf_68-3" x1="88.61" y1="24.88" x2="88.61" y2="158.7" xlink:href="#Unbenannter_Verlauf_68"/></defs><g id="Ebene_2" data-name="Ebene 2"><g id="Ebene_1-2" data-name="Ebene 1"><rect class="cls-1" width="183.23" height="183.23" rx="46.32"/><rect class="cls-2" x="6.63" y="6.63" width="169.97" height="169.97" rx="42.97"/><ellipse class="cls-3" cx="60.26" cy="23.37" rx="12.41" ry="12.37"/><circle class="cls-4" cx="59.21" cy="22.37" r="7.24"/><circle class="cls-1" cx="59.21" cy="22.37" r="3.1"/><ellipse class="cls-5" cx="116.95" cy="23.37" rx="12.41" ry="12.37"/><circle class="cls-4" cx="118" cy="22.37" r="7.24"/><circle class="cls-1" cx="118" cy="22.37" r="3.1"/><path class="cls-1" d="M124.33,110.24,146,113.63s-4,47-52.36,47c-44.55,0-58.38-30.78-58.38-65.6S48.89,26.76,94,26.76s50.43,40.82,50.43,40.82l-21.65,3.27S118.8,45.54,94,45.54s-35.91,26.65-35.91,48,6.53,48.17,35.55,48.17S124.33,110.24,124.33,110.24Z"/><path class="cls-6" d="M122.33,108.36,144,111.75s-4,46.95-52.36,46.95c-44.55,0-58.38-30.78-58.38-65.61S46.89,24.88,92,24.88,142.41,65.7,142.41,65.7L120.76,69s-4-25.3-28.78-25.3-35.91,26.65-35.91,48,6.53,48.17,35.55,48.17S122.33,108.36,122.33,108.36Z"/></g></g></svg>