<?xml version="1.0" encoding="utf-8"?>
<!-- Generator: Adobe Illustrator 25.0.0, SVG Export Plug-In . SVG Version: 6.00 Build 0)  -->
<svg version="1.1" id="Ebene_1" xmlns="http://www.w3.org/2000/svg" xmlns:xlink="http://www.w3.org/1999/xlink" x="0px" y="0px"
	 viewBox="0 0 293.8 293.8" style="enable-background:new 0 0 293.8 293.8;" xml:space="preserve">
<style type="text/css">
	.st0{fill:#77B255;}
	.st1{fill:#C6E5B3;}
	.st2{opacity:0.25;fill:url(#path4400-1_1_);enable-background:new    ;}
	.st3{opacity:0.42;fill:url(#path4400-2-8_1_);enable-background:new    ;}
	.st4{opacity:0.2;fill:url(#path4491-9_1_);enable-background:new    ;}
	.st5{opacity:0.11;enable-background:new    ;}
	.st6{opacity:0.25;fill:#7C7C7C;enable-background:new    ;}
	.st7{fill:#5C913B;}
	.st8{clip-path:url(#SVGID_2_);}
	.st9{clip-path:url(#SVGID_4_);}
	.st10{clip-path:url(#SVGID_6_);}
	.st11{opacity:0.2;fill:url(#path14483-7-4_1_);enable-background:new    ;}
	.st12{fill:url(#path14296-0_1_);}
	.st13{clip-path:url(#SVGID_8_);}
	.st14{fill:#CD8907;}
	.st15{clip-path:url(#SVGID_10_);}
	.st16{fill:#F5C021;}
	.st17{clip-path:url(#SVGID_12_);}
	.st18{fill:url(#path16493_1_);}
	.st19{fill:url(#path4635-1_1_);}
	.st20{clip-path:url(#SVGID_14_);}
	.st21{fill:#D99A03;}
	.st22{clip-path:url(#SVGID_16_);}
	.st23{fill:#F5BD0C;}
	.st24{fill:url(#path4792-8_1_);}
	.st25{opacity:0.35;fill:url(#path29714-8-2_1_);enable-background:new    ;}
	.st26{opacity:0.35;fill:url(#path29714-8-3-0_1_);enable-background:new    ;}
	.st27{clip-path:url(#SVGID_18_);}
	.st28{fill:url(#path29714-3-9-9_1_);}
	.st29{clip-path:url(#SVGID_20_);}
	.st30{fill:#FFFFFF;}
	.st31{fill:#292F33;}
</style>
<g id="Ebene_2_1_">
	<g id="Ebene_1-2">
		<g id="layer2">
			<g id="g463">
				<path id="path28712-2" class="st0" d="M146.1,22.7c-7.2-0.2-14.3,1.5-20.7,4.8c-6.7,3.7-12.2,9.3-15.6,16.2
					c-3.4,6.8-4.7,14.1-4.9,22.1c-0.4,15.2,0.3,5.2,1.5,19.7c0.3,4.4,0.9,7,0.3,11.5c-1.9,9.6-10.3,16.1-14.8,24.6
					c-4.9,9.3-7,19.9-10.8,29.8c-3.4,9-8.2,17.5-11.5,26.6c-4.5,12.7-5.9,26.7-2.9,39.9c2.4,10.1,7,19.5,13.5,27.5
					c-0.9,1.7-1.8,3.4-2.8,5c-3,5.1-6.6,10-8.3,15.7c-0.9,2.8-1.1,5.9-0.6,8.8c0.5,3,2.1,5.6,4.4,7.6c1.5,1.2,3.3,2,5.2,2.4
					c1.9,0.4,3.9,0.6,5.8,0.5c7.4-0.2,14.6-2.4,21.7-4.3c4.2-1.1,8.5-2.1,12.8-3c15.2-3.1,32.2-1.9,46.4,0.2
					c4.8,0.7,9.6,1.7,14.3,2.8c7.4,1.8,14.7,4.1,22.3,4.3c2,0.1,4-0.1,6-0.5c2-0.4,3.8-1.2,5.4-2.5c2.3-1.9,3.9-4.6,4.4-7.6
					c0.5-3,0.3-6-0.6-8.8c-1.7-5.7-5.4-10.6-8.4-15.7c-1.2-2-2.3-4.1-3.5-6.1c9.3-10.2,16.3-22.2,20.8-35.2
					c4.7-14.3,5.5-29.6,3.6-44.5s-6.7-29.3-12.9-43c-7.3-16-13.5-22.5-18.1-35.5c-0.7-1.8-1-3.8-1.1-5.7c-0.6-10.7-0.9-12-3.6-21.4
					c-2.9-9.3-3.1-10.6-5.3-15.2c-3.3-5.1-5.4-9.7-10.4-13.3C169.6,24.7,155.9,22.8,146.1,22.7L146.1,22.7z"/>
				<path class="st1" d="M204,201.3c-1.2,10.2-3.2,20.6-8.8,29.2c-3.1,4.4-6.6,8.4-10.6,12c-6.4,6.2-13,12.3-20.8,16.4
					c-15,8-33.8,8-49,0.5c-4.4-2.2-8.5-4.9-12.2-8.1c-7.2-6.4-13-14.3-16.7-23.2c-5.1-12.4-7-25.8-5.6-39.1
					c1.1-10.8,4-21.4,8.5-31.4c2.9-6.6,6.4-12.8,10.4-18.8c-0.4-3.7-0.1-7.5,1-11.2c1.8-6,5.4-11.1,9-16.2c2.1-2.9,4.2-5.9,5.2-9.4
					c0.9-3.2,0.7-6.7,0.8-10c0-1.4,0.2-2.8,0.4-4.2c5.1,1,15.2-4.5,26.9-4.7s22.2,5,27.1,3.7c0.4,0.7,0.8,1.4,1.2,2.2
					c1,2.1,1.8,4.3,2.7,6.4c2.2,5.2,5.1,10.1,7.5,15.3c3.3,7.2,5.5,14.7,6.7,22.5c4.3,4.4,7.9,9.5,10.7,15.1
					C206.2,164.6,206.1,183.4,204,201.3z"/>
			</g>
			<g id="g562">
				
					<radialGradient id="path4400-1_1_" cx="-687.7208" cy="826.146" r="27.39" gradientTransform="matrix(-0.81 0 0 0.76 -463.26 -490.1862)" gradientUnits="userSpaceOnUse">
					<stop  offset="0" style="stop-color:#000000"/>
					<stop  offset="1" style="stop-color:#000000;stop-opacity:0.25"/>
				</radialGradient>
				<path id="path4400-1" class="st2" d="M101.2,130.4c1,1.5-0.6,6.8,23,3.4c-2.8,0.3-5.5,0.8-8.2,1.4c-6.4,2.1-11.9,4.5-16.2,7.7
					s-7.3,7.2-11.2,10.7c0,0,6.3-11.5,7.9-15s-0.3-3.3,1-8.4c1-3.5,2.4-6.9,4.3-10C101.7,120.1,99.2,127.4,101.2,130.4z"/>
				
					<radialGradient id="path4400-2-8_1_" cx="309.4749" cy="841.976" r="27.39" gradientTransform="matrix(1 0 0 0.76 -142 -490.1862)" gradientUnits="userSpaceOnUse">
					<stop  offset="0" style="stop-color:#000000"/>
					<stop  offset="1" style="stop-color:#000000;stop-opacity:0.25"/>
				</radialGradient>
				<path id="path4400-2-8" class="st3" d="M177.4,129c-4.8,3.4-7.6,3-13.5,3.6s-21.7,0.4-21.7,0.4c2.5,0.1,4.9,0.4,7.4,0.9
					c5.1,0.9,15.5,1.9,21.3,4.1s8,2.9,11.5,5.1c5.1,3.2,8.8,8.2,13.6,11.7c0.1-2.8-0.5-5.6-1.7-8.1c-1.9-3.5-7.2-8.9-8.7-14
					c-1.5-5.1-2.3-15.1-2.3-15.1S182.2,125.7,177.4,129L177.4,129z"/>
				
					<radialGradient id="path4491-9_1_" cx="272.8849" cy="646.5344" r="10.85" gradientTransform="matrix(1 0 0 1.07 -142 -547.2921)" gradientUnits="userSpaceOnUse">
					<stop  offset="0" style="stop-color:#000000"/>
					<stop  offset="1" style="stop-color:#000000;stop-opacity:0.25"/>
				</radialGradient>
				<path id="path4491-9" class="st4" d="M132,121.8c-0.2,1.4-0.4,2.9-0.7,4.3c-0.1,0.7-0.3,1.4-0.6,2.1c-0.3,0.7-0.7,1.3-1.2,1.8
					c-0.5,0.4-1,0.7-1.6,1c-2.3,1-4.6,1.7-7.1,2c1,0.1,2,0.2,2.9,0.3c0.6,0.1,1.2,0.1,1.8,0.3c0.6,0.1,1.2,0.4,1.7,0.8
					c0.5,0.4,1,0.9,1.3,1.5c0.6,1.2,0.9,2.6,1,3.9c0.1,1.7,0.1,3.5,0,5.2c0.1-1.2,0.4-2.3,0.7-3.4c0.6-2,1.7-3.8,3.1-5.4
					c0.6-0.6,1.2-1.2,1.9-1.6c2.1-1.5,4.7-2.1,7.2-1.8c-2.6,0.1-5.1-0.7-7.2-2.2c-1.1-0.8-1.9-1.8-2.6-2.9
					C131.8,125.9,131.5,123.8,132,121.8"/>
				<path id="path4542-7" class="st5" d="M125.8,155.9c-1.2,4.7-2.1,9.5-2.5,14.3c-0.6,6.8-0.5,13.7-0.8,20.5
					c-0.3,5.8-1,11.6,0,17.4c0.5,2.7,1.3,5.4,2.6,7.9c0.2-1,0.3-1.9,0.4-2.9c0.4-4.6-0.3-9.3-0.6-13.9c-0.5-8.1,0.7-16.3,1.1-24.4
					C126.3,168.4,126.3,162.1,125.8,155.9L125.8,155.9"/>
				<path id="path28767-9-3" class="st6" d="M103.9,109.8c-0.1-1.4-2.2-1.7-3.1-0.9c-0.8,0.6-1.5,2.7-0.8,3.5
					C101.1,113.6,104.1,111.7,103.9,109.8z"/>
				<path id="path15189-4" class="st7" d="M207.3,149c1.2-0.2,8.5,6.1,7.5,8.4s-2.9,0.9-4.2,0.9s-5,1.7-5.6,0.6s1.6-3.5,2.8-5.6
					C208.8,151.7,206.1,149.2,207.3,149z"/>
				<path id="path4596-3" class="st7" d="M182,85.6c-2.2,2,1,4.9,2.5,8.4c0.9,2.2,3.5,5.2,6,4.7c1.9-0.4,3.1-3.1,2.9-5
					c-0.4-3.7-3.5-4.6-5.7-5.8C185.9,86.9,183.5,84.2,182,85.6z"/>
				<g>
					<defs>
						<path id="SVGID_1_" d="M118,82.6c-1,1.3-1.8,2.9-2.1,4.5c-0.4,1.6-0.6,3.3-0.6,5c-0.1,3.3,0.1,6.8-0.8,10
							c-1,3.5-3.1,6.5-5.2,9.4c-3.6,5.1-7.2,10.2-9,16.2c-1.1,3.6-1.4,7.4-1,11.2c-4,5.9-7.5,12.2-10.4,18.8
							c-4.5,9.9-7.4,20.5-8.6,31.4c-1.4,13.3,0.5,26.7,5.6,39.1c3.7,8.9,9.5,16.8,16.7,23.2c3.7,3.2,7.8,5.9,12.2,8.1
							c15.2,7.5,34,7.5,49-0.5c7.8-4.2,14.4-10.3,20.8-16.4c3.8-3.7,7.6-7.5,10.6-12c5.6-8.6,7.6-19,8.8-29.2
							c2.1-17.8,2.2-36.7-5.6-52.8c-2.7-5.6-6.3-10.7-10.6-15.1c-1.2-7.8-3.4-15.4-6.7-22.5c-2.4-5.2-5.3-10.1-7.5-15.3
							c-0.9-2.2-1.7-4.3-2.7-6.4c-0.9-2.1-2.3-4.1-3.9-5.7c-1.8-1.6-3.8-2.8-6.1-3.6c-2.3-0.7-4.6-1.1-7-1.2
							c-4.8-0.2-9.5,0.4-14.3,0.2c-3.8-0.2-7.6-0.8-11.4-0.6c-1.9,0.1-3.8,0.5-5.5,1.2C120.9,80,119.3,81.1,118,82.6"/>
					</defs>
					<clipPath id="SVGID_2_">
						<use xlink:href="#SVGID_1_"  style="overflow:visible;"/>
					</clipPath>
					<g class="st8">
						<path class="st1" d="M175.4,95.5c0.1,1.4-0.9,2.7-2.3,2.8c-0.6,0.1-1.2,0-1.8-0.1c-1.1-0.4-2.3-0.6-3.5-0.8
							c-1.6,0-3.2,0.5-4.5,1.5c-1.3,1-2.5,2.1-3.6,3.2c-2.6,2.3-5.5,4.4-8.7,6c-2.6,1.4-5.2,2.7-7.7,4.2c-1.4,0.9-2.8,1.9-4.3,2.8
							c-1.5,0.9-3.1,1.4-4.8,1.7c-1.7,0.1-3.5-0.2-5.1-1c-1.6-0.7-3-1.7-4.4-2.8c-4.2-3.2-7.3-7.5-9.2-12.4
							c-1.2-3.6-1.5-7.5-2.9-11.1c-0.2-0.6-0.5-1.1-0.7-1.7c0.2,0.1,0.5,0.2,0.8,0.2h0.2c5.3,1,15.9-4.7,28.2-4.9s23.3,5.2,28.5,3.8
							l0.3-0.1c1-0.3,1.8-1,2.3-1.9c0,0.2,0,0.5,0,0.8c-0.1,1.3,0,2.6,0.3,3.9c0.5,1.4,1.5,2.5,2.2,3.8
							C175.2,94,175.4,94.7,175.4,95.5z"/>
					</g>
				</g>
			</g>
			<g id="g481">
				<path id="path29705-5-0" class="st0" d="M210.4,144.2c6.1,5.1,10,12.2,11.1,20c0.8,6.1,0.5,12.2-1,18.1
					c-1.5,5.9-3.3,11.7-5.5,17.4c-0.9,2.3-1.6,4.6-2,7c-0.4,2.4-0.1,4.9,1,7.1c1.4,2.4,3.8,4.2,6.5,4.9c2.7,0.8,5.5,0.8,8.1,0.1
					c2.7-0.7,7.2-1.5,9.3-3.2c5.5-4.3,6.8-11.7,8.1-18.2c1.4-6.8,0.7-14-0.5-20.8c-1.7-9.4-4.3-18.6-7.9-27.4
					c-2.6-6.5-5.9-12.7-9.8-18.5c-3.9-5.7-9.3-10.1-13.3-15.6c-1.4-1.9-3.1-3.9-4.5-5.9c-3-4.2-2.3-3.4-4.1-6.1
					c-1.3-2-3.4-2.7-5.7-3.5c-5.3-2.3-11.4,0.1-13.7,5.4c0,0.1-0.1,0.1-0.1,0.2c-1.2,2.9-1.6,6.1-1,9.2c0.8,4,2.4,7.8,4.6,11.2
					c2.2,4,5.1,7.6,8.5,10.6C202.3,139.2,206.7,141.2,210.4,144.2"/>
				<path id="path14967-1-0" class="st0" d="M95.8,113.8c-7.1,8-14.3,15.8-18.3,24.5c-2,4.4-2.9,9.2-4.3,13.9
					c-1.6,5.3-3.6,10.4-6,15.3c-2.2,4.6-4.5,9.1-6.9,13.5c-1.7,3.2-3.5,6.6-4.1,10.2c-0.4,2.9-0.2,5.8,0.5,8.7
					c0.8,2.8,1.9,5.5,3.3,8.1c5.8,11.1,14.1,20.7,24.2,28c4.6,3.3,9.5,6.2,14.6,8.5c2.7,1.4,5.7,2.2,8.8,2.5c1.5,0,3.1-0.2,4.5-0.8
					c1.4-0.6,2.6-1.6,3.5-2.9c1-1.6,1.4-3.5,1.2-5.4c-0.3-1.9-0.9-3.7-1.9-5.3c-2.4-3.9-6.2-6.8-9.8-9.6
					c-7.8-6.1-15.4-12.5-22.7-19.3c-2.1-1.8-4-3.9-5.5-6.3c-1.3-2.4-2.2-5-2.7-7.7c-1.5-7.4-1-15,1.5-22.1c1-2.8,2.3-5.4,3.5-8
					c2.2-4.6,4.2-9.3,7.1-13.5c3.5-5.2,8.3-9.7,11.2-15.3c2.4-4.7,3.4-10.1,4.4-15.3c0.7-4.1,2.2-8.1,2.9-12.2
					C103.1,106,98.6,110.3,95.8,113.8L95.8,113.8z"/>
			</g>
			<g id="g514">
				<g>
					<defs>
						<path id="SVGID_3_" d="M210.4,144.2c6.1,5.1,10,12.2,11.1,20c0.8,6.1,0.5,12.2-1,18.1c-1.5,5.9-3.3,11.7-5.5,17.4
							c-0.9,2.3-1.6,4.6-2,7c-0.4,2.4-0.1,4.9,1,7.1c1.4,2.4,3.8,4.2,6.5,4.9c2.7,0.8,5.5,0.8,8.1,0.1c2.7-0.7,5.2-1.9,7.3-3.6
							c5.5-4.3,8.8-10.9,10.1-17.8s0.7-14-0.5-20.8c-1.7-9.4-4.3-18.6-7.9-27.4c-2.6-6.5-5.9-12.7-9.8-18.5
							c-3.9-5.7-9.3-10.1-13.3-15.6c-1.4-1.9-3.1-3.9-4.5-5.9c-3-4.2-2.3-3.4-4.1-6.1c-1.3-2-3.4-2.7-5.7-3.5
							c-5.3-2.3-11.4,0.1-13.7,5.4c0,0.1-0.1,0.1-0.1,0.2c-1.2,2.9-1.6,6.1-1,9.2c0.8,4,2.4,7.8,4.6,11.2c2.2,4,5.1,7.6,8.5,10.6
							C202.3,139.2,206.7,141.2,210.4,144.2"/>
					</defs>
					<clipPath id="SVGID_4_">
						<use xlink:href="#SVGID_3_"  style="overflow:visible;"/>
					</clipPath>
					<g class="st9">
						<path id="path29705-9" class="st7" d="M196.1,134.8c0.5,0.5,1,1,1.5,1.4c3.7,3.1,5.7,6.5,9.5,9.5c6.2,4.9,12.5,13.3,13.7,21.1
							c0.9,6-0.3,9.3-1.8,16.4s-5.9,17.1-8.2,24c-0.9,2.7,1.9,1.6,1.5,4.5c-0.2,1.4-0.2,2.8,0,4.2c0-0.3,0-0.6,0.1-0.8
							c0.6-3.9,1.6-7.7,3-11.4c2.5-7.1,5.4-14.1,7.4-21.4c1.7-6.1,2-12.6,0.7-18.8c-1.4-8-5.9-15.2-12.4-20
							C206.5,139.9,201.1,137.8,196.1,134.8L196.1,134.8z"/>
					</g>
				</g>
				<g>
					<defs>
						<path id="SVGID_5_" d="M95.8,113.8c-7.1,8-14.3,15.8-18.3,24.5c-2,4.4-2.9,9.2-4.3,13.9c-1.6,5.3-3.6,10.4-6,15.3
							c-2.2,4.6-4.5,9.1-6.9,13.5c-1.7,3.2-3.5,6.6-4.1,10.2c-0.4,2.9-0.2,5.8,0.5,8.7c0.8,2.8,1.9,5.5,3.3,8.1
							c5.8,11.1,14.1,20.7,24.2,28c4.6,3.3,9.5,6.2,14.6,8.5c2.7,1.4,5.7,2.2,8.8,2.5c1.5,0,3.1-0.2,4.5-0.8
							c1.4-0.6,2.6-1.6,3.5-2.9c1-1.6,1.4-3.5,1.2-5.4c-0.3-1.9-0.9-3.7-1.9-5.3c-2.4-3.9-6.2-6.8-9.8-9.6
							c-7.8-6.1-15.4-12.5-22.7-19.3c-2.1-1.8-4-3.9-5.5-6.3c-1.3-2.4-2.2-5-2.7-7.7c-1.5-7.4-1-15,1.5-22.1c1-2.8,2.3-5.4,3.5-8
							c2.2-4.6,4.2-9.3,7.1-13.5c3.5-5.2,8.3-9.7,11.2-15.3c2.4-4.7,3.4-10.1,4.4-15.3c0.7-4.1,2.2-8.1,2.9-12.2
							C103.1,106,98.6,110.3,95.8,113.8L95.8,113.8z"/>
					</defs>
					<clipPath id="SVGID_6_">
						<use xlink:href="#SVGID_5_"  style="overflow:visible;"/>
					</clipPath>
					<g class="st10">
						<path id="path15007-0" class="st7" d="M87.7,143c-2.3,2.1-4.4,4.6-6,7.3c-2.7,4.5-4.2,9.5-6.2,14.3c-1.4,3.6-3.1,7.2-3.3,11.1
							c-0.1,2,0.2,4,0.3,5.9c0.2,2-0.2,4-1.1,5.8c-0.8,1.5-2.1,2.6-3.7,3.1c2.1,0.7,4,2.1,5.3,3.9c1.1,1.5,1.8,3.3,2.8,4.9
							c0.8,1.3,1.8,2.5,2.9,3.4c1.2,1,2.6,1.6,4.1,1.8c2.1,0.3,4.2-0.4,5.8-1.8c-1.9-18.1-0.2-36.4,5.2-53.8
							c0.4-1.1,0.6-2.2,0.8-3.3c0.1-1.2-0.2-2.3-0.8-3.3c-0.8-0.9-2-1.4-3.2-1.3c-0.6,0.1-1.2,0.3-1.7,0.7
							C88.3,142,87.9,142.5,87.7,143L87.7,143"/>
					</g>
				</g>
			</g>
			<g id="g457">
				<g id="g444">
					
						<linearGradient id="path14483-7-4_1_" gradientUnits="userSpaceOnUse" x1="342.1673" y1="774.4645" x2="345.8573" y2="802.0446" gradientTransform="matrix(1.03 0 0 1 -139.8394 -534.3298)">
						<stop  offset="0" style="stop-color:#000000"/>
						<stop  offset="1" style="stop-color:#000000;stop-opacity:0"/>
					</linearGradient>
					<path id="path14483-7-4" class="st11" d="M251.4,246.9c-0.5,1.6-1.2,3.1-2.1,4.4c-2,3-5,5.3-7.9,7.4c-5,3.6-10.3,6.8-15,10.9
						c-3.1,2.8-6,5.8-8.6,9c-2.2,2.8-4.5,5.5-7,8.1c-2.6,2.5-5.6,4.4-9,5.5c-3.9,1.2-8.2,1.3-12.1,0.3c-2.7-0.6-5.2-2-7-4.1
						c-1.7-2.2-2.2-5.1-2.4-8c-0.2-5.2,0.1-10.4,0.8-15.6c0.5-4.3,0.9-8.6,1.1-13c0.3-7.8-0.2-15.6-1.3-23.3
						c-0.2-1.3-0.3-2.6-0.3-3.9c0.1-1.4,0.6-2.7,1.5-3.7c0.9-0.9,2-1.5,3.2-1.8c1.2-0.2,2.4-0.3,3.6-0.3c2.8-0.2,5.6-0.2,8.4,0
						c1.8,0.2,3.5,0.5,5.2,0.6c3,0.3,6,0.1,8.9-0.7c3.1-0.9,6.1-2.6,9.3-3.1c1.3-0.2,2.6-0.2,3.9,0c1.3,0.1,2.5,0.6,3.6,1.3
						c0.7,0.6,1.3,1.4,1.8,2.3c0.6,1.4,1.1,2.8,1.3,4.3c0.1,1.3,0.3,2.6,0.6,3.9c0.6,2.1,1.8,3.9,3.4,5.3c1.6,1.4,3.3,2.7,5.1,3.7
						c1.8,1.2,3.6,2.2,5.5,3.2c0.9,0.4,1.8,0.8,2.7,1.3c0.9,0.5,1.6,1.1,2.2,1.9C251.3,244.1,251.6,245.5,251.4,246.9L251.4,246.9"
						/>
					
						<linearGradient id="path14296-0_1_" gradientUnits="userSpaceOnUse" x1="436.3845" y1="822.8162" x2="484.4645" y2="744.8563" gradientTransform="matrix(1 0 0 1 -242 -534.3298)">
						<stop  offset="0" style="stop-color:#3E2A06"/>
						<stop  offset="1" style="stop-color:#AD780A"/>
					</linearGradient>
					<path id="path14296-0" class="st12" d="M268.5,255.4c-2.6,3.1-6.3,5.2-9.9,7c-6.2,3.1-12.6,5.9-18.4,9.7
						c-3.9,2.6-7.5,5.5-10.9,8.8c-2.8,2.9-5.7,5.5-8.8,8c-3.2,2.4-7,4-11,4.6c-4.9,0.6-9.8-0.1-14.3-2.2c-3.1-1.4-6.1-3.3-8-6.2
						s-2.2-6.5-2.2-9.9c0-6.1,1.1-12.1,2.2-18.1c0.9-5,1.7-9.9,2.3-15c0.9-9.1,1-18.3,0.3-27.5c-0.2-1.5-0.2-3.1,0-4.6
						c0.2-3.1,2.9-5.5,6-5.4c1.4,0,2.8,0.1,4.2,0.4c3.3,0.4,6.6,1,9.9,1.7c2,0.5,4,1.3,6.1,1.8c3.4,1,6.9,1.3,10.5,1
						c3.8-0.4,7.4-1.9,11.2-1.8c1.6,0.1,3.1,0.3,4.6,0.8c1.5,0.4,3,1.2,4.1,2.3c0.8,0.9,1.5,1.9,1.9,3.1c0.6,1.7,1,3.5,1.2,5.2
						c0.1,1.6,0.2,3.2,0.4,4.8c0.6,2.6,1.8,5,3.5,6.9c1.7,2,3.6,3.8,5.7,5.4c2,1.7,4,3.4,6.2,4.8c1,0.7,2.1,1.3,3,2.1
						c1,0.7,1.8,1.7,2.4,2.7c0.9,1.5,1,3.2,0.5,4.9C270.6,252.4,269.7,254,268.5,255.4L268.5,255.4z"/>
					<g>
						<defs>
							<path id="SVGID_7_" d="M268.5,255.4c-2.6,3.1-6.3,5.2-9.9,7c-6.2,3.1-12.6,5.9-18.4,9.7c-3.9,2.6-7.5,5.5-10.9,8.8
								c-2.8,2.9-5.7,5.5-8.8,8c-3.2,2.4-7,4-11,4.6c-4.9,0.6-9.8-0.1-14.3-2.2c-3.1-1.4-6.1-3.3-8-6.2s-2.2-6.5-2.2-9.9
								c0-6.1,1.1-12.1,2.2-18.1c0.9-5,1.7-9.9,2.3-15c0.9-9.1,1-18.3,0.3-27.5c-0.2-1.5-0.2-3.1,0-4.6c0.2-3.1,2.9-5.5,6-5.4
								c1.4,0,2.8,0.1,4.2,0.4c3.3,0.4,6.6,1,9.9,1.7c2,0.5,4,1.3,6.1,1.8c3.4,1,6.9,1.3,10.5,1c3.8-0.4,7.4-1.9,11.2-1.8
								c1.6,0.1,3.1,0.3,4.6,0.8c1.5,0.4,3,1.2,4.1,2.3c0.8,0.9,1.5,1.9,1.9,3.1c0.6,1.7,1,3.5,1.2,5.2c0.1,1.6,0.2,3.2,0.4,4.8
								c0.6,2.6,1.8,5,3.5,6.9c1.7,2,3.6,3.8,5.7,5.4c2,1.7,4,3.4,6.2,4.8c1,0.7,2.1,1.3,3,2.1c1,0.7,1.8,1.7,2.4,2.7
								c0.9,1.5,1,3.2,0.5,4.9C270.6,252.4,269.7,254,268.5,255.4L268.5,255.4z"/>
						</defs>
						<clipPath id="SVGID_8_">
							<use xlink:href="#SVGID_7_"  style="overflow:visible;"/>
						</clipPath>
						<g class="st13">
							<path id="path14296-3-7" class="st14" d="M268.2,247.5c-0.6,1.6-1.5,3-2.6,4.3c-2.4,2.8-5.7,4.7-9,6.3
								c-5.6,2.8-11.5,5.3-16.8,8.7c-3.5,2.3-6.9,4.9-9.9,7.9c-2.5,2.6-5.2,5-8.1,7.2c-3,2.2-6.4,3.6-10,4.2
								c-4.4,0.6-9-0.1-13.1-1.9c-2.9-1.1-5.5-3-7.3-5.6c-1.6-2.6-2-5.8-2-8.9c0-5.5,1-10.9,2-16.2c0.8-4.5,1.6-9,2.1-13.5
								c0.8-8.2,0.9-16.5,0.3-24.7c-0.2-1.4-0.2-2.8,0-4.1c0.2-2.8,2.6-5,5.4-4.9c1.3,0,2.6,0.1,3.9,0.3c3,0.4,6,0.9,9,1.6
								c1.9,0.5,3.7,1.1,5.5,1.6c3.1,0.9,6.3,1.2,9.6,0.9c3.4-0.4,6.8-1.7,10.2-1.6c1.4,0,2.8,0.3,4.2,0.7c1.4,0.4,2.7,1.1,3.8,2.1
								c0.7,0.8,1.3,1.7,1.7,2.8c0.6,1.5,1,3.1,1.1,4.7c-0.1,1.7-0.2,3.4-0.1,5.1c0.2,1.4,0.7,2.7,1.5,3.8c0.8,1.1,1.6,2.2,2.5,3.3
								c1.6,2.1,3.5,4,5.6,5.6c2.5,1.8,5.4,2.8,7.9,4.5c0.8,0.5,1.4,1.1,2,1.8C268.6,244.4,268.8,246,268.2,247.5L268.2,247.5"/>
						</g>
					</g>
					<g>
						<defs>
							<path id="SVGID_9_" d="M268.5,255.4c-2.6,3.1-6.3,5.2-9.9,7c-6.2,3.1-12.6,5.9-18.4,9.7c-3.9,2.6-7.5,5.5-10.9,8.8
								c-2.8,2.9-5.7,5.5-8.8,8c-3.2,2.4-7,4-11,4.6c-4.9,0.6-9.8-0.1-14.3-2.2c-3.1-1.4-6.1-3.3-8-6.2s-2.2-6.5-2.2-9.9
								c0-6.1,1.1-12.1,2.2-18.1c0.9-5,1.7-9.9,2.3-15c0.9-9.1,1-18.3,0.3-27.5c-0.2-1.5-0.2-3.1,0-4.6c0.2-3.1,2.9-5.5,6-5.4
								c1.4,0,2.8,0.1,4.2,0.4c3.3,0.4,6.6,1,9.9,1.7c2,0.5,4,1.3,6.1,1.8c3.4,1,6.9,1.3,10.5,1c3.8-0.4,7.4-1.9,11.2-1.8
								c1.6,0.1,3.1,0.3,4.6,0.8c1.5,0.4,3,1.2,4.1,2.3c0.8,0.9,1.5,1.9,1.9,3.1c0.6,1.7,1,3.5,1.2,5.2c0.1,1.6,0.2,3.2,0.4,4.8
								c0.6,2.6,1.8,5,3.5,6.9c1.7,2,3.6,3.8,5.7,5.4c2,1.7,4,3.4,6.2,4.8c1,0.7,2.1,1.3,3,2.1c1,0.7,1.8,1.7,2.4,2.7
								c0.9,1.5,1,3.2,0.5,4.9C270.6,252.4,269.7,254,268.5,255.4L268.5,255.4z"/>
						</defs>
						<clipPath id="SVGID_10_">
							<use xlink:href="#SVGID_9_"  style="overflow:visible;"/>
						</clipPath>
						<g class="st15">
							<path id="path14296-3-1-9" class="st16" d="M267.9,245.7c-0.7,1.5-1.6,3-2.6,4.3c-2.5,2.9-5.7,5.1-9.3,6.4
								c-5.8,2.2-12.1,2.5-17.7,5c-3.4,1.7-6.7,3.7-9.7,5.9c-2.5,1.8-5.1,3.4-7.9,4.7c-3.2,1.3-6.5,2.2-9.9,2.7
								c-2.1,0.4-4.3,0.5-6.5,0.5c-2.2-0.1-4.3-0.7-6.2-1.7c-1.5-0.8-2.7-2.1-3.5-3.6c-0.8-1.8-1.1-3.8-1-5.7
								c0.1-5.2,1.2-10.4,1.1-15.6c0-4.6-0.9-9.1-1.2-13.6c-0.5-8.8,1.4-17.6-0.3-26.2c-0.3-1.4-0.5-2.7-0.6-4.1
								c0-0.7,0.1-1.4,0.4-2.1c0.2-0.6,0.6-1.2,1.2-1.6c0.4-0.3,1-0.6,1.5-0.6c0.5-0.1,1.1-0.1,1.6,0c1.1,0.2,2.1,0.5,3.2,0.9
								c3,0.9,6.2,0.9,9.3,1.6c1.9,0.4,3.8,1.1,5.7,1.6c3.2,0.9,6.5,1.2,9.8,0.9c3.5-0.4,7-1.7,10.5-1.6c1.5,0,2.9,0.3,4.3,0.7
								c1.4,0.4,2.8,1.1,3.9,2.1c0.7,0.8,1.3,1.8,1.8,2.8c0.7,1.5,1.1,3.1,1.1,4.8c0,0.9-0.1,1.7-0.2,2.6c-0.1,0.9-0.1,1.7,0.1,2.6
								c0.2,0.8,0.6,1.6,1.1,2.3c0.5,0.7,1.1,1.3,1.6,2c1.3,1.9,2.5,4,3.5,6.1c1,2.1,2.4,4.1,4.1,5.7c2.4,2.1,5.5,2.9,8.1,4.5
								c0.8,0.5,1.5,1.1,2.1,1.8c0.4,0.6,0.7,1.3,0.8,2.1C268.2,244.3,268.1,245.1,267.9,245.7L267.9,245.7"/>
						</g>
					</g>
					<g>
						<defs>
							<path id="SVGID_11_" d="M268.5,255.4c-2.6,3.1-6.3,5.2-9.9,7c-6.2,3.1-12.6,5.9-18.4,9.7c-3.9,2.6-7.5,5.5-10.9,8.8
								c-2.8,2.9-5.7,5.5-8.8,8c-3.2,2.4-7,4-11,4.6c-4.9,0.6-9.8-0.1-14.3-2.2c-3.1-1.4-6.1-3.3-8-6.2s-2.2-6.5-2.2-9.9
								c0-6.1,1.1-12.1,2.2-18.1c0.9-5,1.7-9.9,2.3-15c0.9-9.1,1-18.3,0.3-27.5c-0.2-1.5-0.2-3.1,0-4.6c0.2-3.1,2.9-5.5,6-5.4
								c1.4,0,2.8,0.1,4.2,0.4c3.3,0.4,6.6,1,9.9,1.7c2,0.5,4,1.3,6.1,1.8c3.4,1,6.9,1.3,10.5,1c3.8-0.4,7.4-1.9,11.2-1.8
								c1.6,0.1,3.1,0.3,4.6,0.8c1.5,0.4,3,1.2,4.1,2.3c0.8,0.9,1.5,1.9,1.9,3.1c0.6,1.7,1,3.5,1.2,5.2c0.1,1.6,0.2,3.2,0.4,4.8
								c0.6,2.6,1.8,5,3.5,6.9c1.7,2,3.6,3.8,5.7,5.4c2,1.7,4,3.4,6.2,4.8c1,0.7,2.1,1.3,3,2.1c1,0.7,1.8,1.7,2.4,2.7
								c0.9,1.5,1,3.2,0.5,4.9C270.6,252.4,269.7,254,268.5,255.4L268.5,255.4z"/>
						</defs>
						<clipPath id="SVGID_12_">
							<use xlink:href="#SVGID_11_"  style="overflow:visible;"/>
						</clipPath>
						<g class="st17">
							
								<linearGradient id="path16493_1_" gradientUnits="userSpaceOnUse" x1="361.6091" y1="743.709" x2="360.1891" y2="756.439" gradientTransform="matrix(1 0 0 1 -142 -536.3298)">
								<stop  offset="0" style="stop-color:#F3CD0C"/>
								<stop  offset="1" style="stop-color:#F3CD0C;stop-opacity:0"/>
							</linearGradient>
							<path id="path16493" class="st18" d="M192.6,207.4c3.3-0.9,6.1,1.6,8.4,3.5c1.5,1.3,3.8,1,5.6,1c3.1-0.1,6.2,0.5,9.4,0.1
								c6.1-0.5,12.2-2,18.3-2.3c2.9-0.2,6.3-0.4,8.8,1.4c1,0.7,2.5,3.7,3.6,2.6c-0.4-3.3-2.7-6.1-5.9-7.1c-2.5-0.4-5,0.3-7.5,0.1
								c-7.4-0.2-14.8-1.6-22.2-1.2c-5.2,0.1-10.3-0.2-15.5-0.4c-2-0.4-2.8,1.4-3.9,2.1"/>
						</g>
					</g>
				</g>
				<g id="g411">
					
						<linearGradient id="path4635-1_1_" gradientUnits="userSpaceOnUse" x1="115.7725" y1="757.4392" x2="163.5025" y2="837.5192" gradientTransform="matrix(1 0 0 1 -72 -534.3298)">
						<stop  offset="0" style="stop-color:#B98309"/>
						<stop  offset="1" style="stop-color:#382605"/>
					</linearGradient>
					<path id="path4635-1" class="st19" d="M62.9,199.8c1.6-0.6,3.4-0.8,5.1-0.5c1.7,0.3,3.3,1,4.7,2c2.9,1.9,5,4.8,7,7.6
						c4.7,6.4,9.2,13,13.2,19.8c3.3,5.6,6.3,11.3,10.2,16.5c2.5,3.4,5.3,6.5,7.8,9.9c2.6,3.3,4.6,7.1,5.8,11.1
						c1.5,5.3,0.9,11-1.6,16c-1.8,3.4-4.5,6.3-7.8,8.3c-3.3,2-7.1,3-11,2.9c-6.1-0.2-11.7-3.3-17.4-5.5c-11.6-4.6-24.2-6.1-36.1-9.6
						c-3.7-1.1-7.3-2.4-11-3.4c-1.7-0.4-3.3-0.9-4.9-1.5c-1.6-0.7-2.9-1.8-3.9-3.2c-0.6-1.1-1-2.5-0.9-3.8c0-1.3,0.3-2.6,0.8-3.9
						c0.9-2.5,2.4-4.7,3.3-7.2c1.5-4.1,2-8.4,1.7-12.7c-0.2-4.3-0.9-8.5-1.2-12.8c-0.2-1.9-0.1-3.8,0.2-5.7c0.3-1.9,1.2-3.7,2.6-5.1
						c1.3-1.2,2.9-2,4.7-2.3c1.7-0.3,3.5-0.4,5.3-0.3c1.8,0.1,3.5,0.1,5.3,0c1.8-0.1,3.5-0.6,5.1-1.4c1.4-0.9,2.7-2.1,3.6-3.4
						c1-1.4,1.8-2.8,2.6-4.3c0.8-1.5,1.7-2.9,2.8-4.2C60,201.5,61.4,200.5,62.9,199.8"/>
					<g>
						<defs>
							<path id="SVGID_13_" d="M62.9,199.8c1.6-0.6,3.4-0.8,5.1-0.5c1.7,0.3,3.3,1,4.7,2c2.9,1.9,5,4.8,7,7.6
								c4.7,6.4,9.2,13,13.2,19.8c3.3,5.6,6.3,11.3,10.2,16.5c2.5,3.4,5.3,6.5,7.8,9.9c2.6,3.3,4.6,7.1,5.8,11.1
								c1.5,5.3,0.9,11-1.6,16c-1.8,3.4-4.5,6.3-7.8,8.3c-3.3,2-7.1,3-11,2.9c-6.1-0.2-11.7-3.3-17.4-5.5
								c-11.6-4.6-24.2-6.1-36.1-9.6c-3.7-1.1-7.3-2.4-11-3.4c-1.7-0.4-3.3-0.9-4.9-1.5c-1.6-0.7-2.9-1.8-3.9-3.2
								c-0.6-1.1-1-2.5-0.9-3.8c0-1.3,0.3-2.6,0.8-3.9c0.9-2.5,2.4-4.7,3.3-7.2c1.5-4.1,2-8.4,1.7-12.7c-0.2-4.3-0.9-8.5-1.2-12.8
								c-0.2-1.9-0.1-3.8,0.2-5.7c0.3-1.9,1.2-3.7,2.6-5.1c1.3-1.2,2.9-2,4.7-2.3c1.7-0.3,3.5-0.4,5.3-0.3c1.8,0.1,3.5,0.1,5.3,0
								c1.8-0.1,3.5-0.6,5.1-1.4c1.4-0.9,2.7-2.1,3.6-3.4c1-1.4,1.8-2.8,2.6-4.3c0.8-1.5,1.7-2.9,2.8-4.2
								C60,201.5,61.4,200.5,62.9,199.8"/>
						</defs>
						<clipPath id="SVGID_14_">
							<use xlink:href="#SVGID_13_"  style="overflow:visible;"/>
						</clipPath>
						<g class="st20">
							<path id="path13596-6" class="st21" d="M65.4,202.5c1.5-0.6,3.1-0.7,4.6-0.3c1.5,0.4,3,1.1,4.2,2.1c2.5,1.9,4.2,4.6,5.9,7.3
								c4,6.4,7.9,12.9,11.5,19.6c2.8,5,5.4,10.1,8.8,14.7c2.3,3,4.8,5.8,7.2,8.8c2.4,2.9,4.2,6.3,5.4,9.9c1.3,4.8,0.8,9.8-1.5,14.2
								c-1.7,3.1-4.1,5.7-7.2,7.5c-3.1,1.8-6.6,2.6-10.1,2.5c-5.6-0.3-10.7-3.1-16-5c-10.1-3.7-21-4.1-31.4-7
								c-3.7-1-7.3-2.4-11.1-3.3c-1.7-0.3-3.3-0.8-4.9-1.4c-1.6-0.6-2.9-1.7-3.9-3.1c-0.6-1.1-0.9-2.4-0.9-3.7
								c0.1-1.3,0.3-2.5,0.8-3.7c0.9-2.4,2.3-4.5,3.2-6.9c1.2-3.6,1.7-7.5,1.3-11.3c-0.2-3.8-0.9-7.6-1.1-11.4
								c-0.1-1.7-0.1-3.4,0.2-5.1c0.3-1.7,1.1-3.3,2.3-4.5c1.4-1.3,3.1-2.1,5-2.3c1.8-0.2,3.7-0.2,5.6,0c1.8,0.2,3.7,0.3,5.6,0.3
								c1.9-0.1,3.7-0.6,5.3-1.6c1.4-1,2.5-2.3,3.3-3.8c0.8-1.5,1.4-3,2-4.6c0.6-1.6,1.3-3.1,2.2-4.5
								C62.6,204.4,63.9,203.2,65.4,202.5"/>
						</g>
					</g>
					<g>
						<defs>
							<path id="SVGID_15_" d="M62.9,199.8c1.6-0.6,3.4-0.8,5.1-0.5c1.7,0.3,3.3,1,4.7,2c2.9,1.9,5,4.8,7,7.6
								c4.7,6.4,9.2,13,13.2,19.8c3.3,5.6,6.3,11.3,10.2,16.5c2.5,3.4,5.3,6.5,7.8,9.9c2.6,3.3,4.6,7.1,5.8,11.1
								c1.5,5.3,0.9,11-1.6,16c-1.8,3.4-4.5,6.3-7.8,8.3c-3.3,2-7.1,3-11,2.9c-6.1-0.2-11.7-3.3-17.4-5.5
								c-11.6-4.6-24.2-6.1-36.1-9.6c-3.7-1.1-7.3-2.4-11-3.4c-1.7-0.4-3.3-0.9-4.9-1.5c-1.6-0.7-2.9-1.8-3.9-3.2
								c-0.6-1.1-1-2.5-0.9-3.8c0-1.3,0.3-2.6,0.8-3.9c0.9-2.5,2.4-4.7,3.3-7.2c1.5-4.1,2-8.4,1.7-12.7c-0.2-4.3-0.9-8.5-1.2-12.8
								c-0.2-1.9-0.1-3.8,0.2-5.7c0.3-1.9,1.2-3.7,2.6-5.1c1.3-1.2,2.9-2,4.7-2.3c1.7-0.3,3.5-0.4,5.3-0.3c1.8,0.1,3.5,0.1,5.3,0
								c1.8-0.1,3.5-0.6,5.1-1.4c1.4-0.9,2.7-2.1,3.6-3.4c1-1.4,1.8-2.8,2.6-4.3c0.8-1.5,1.7-2.9,2.8-4.2
								C60,201.5,61.4,200.5,62.9,199.8"/>
						</defs>
						<clipPath id="SVGID_16_">
							<use xlink:href="#SVGID_15_"  style="overflow:visible;"/>
						</clipPath>
						<g class="st22">
							<path id="path4635-2-4" class="st23" d="M64.1,198.9c1.4-0.7,3.1-0.9,4.6-0.5c1.5,0.3,3,1,4.2,2.1c2.4,2,4,4.8,5.4,7.6
								c3.3,6.3,6.4,12.8,10.3,18.8c2.9,4.3,6.2,8.4,9.1,12.7c3.9,5.8,7.1,12.3,8.4,19.1c0.9,4.6,0.9,9.6-1.4,13.8
								c-1.5,2.8-3.8,5-6.7,6.4c-2.8,1.4-6,2-9.2,1.7c-5-0.4-9.5-2.9-14.1-4.6c-8.3-3-17.2-3.7-25.7-6c-3.6-1-7.1-2.2-10.8-3
								c-1.6-0.3-3.2-0.6-4.8-1.1c-1.6-0.5-2.9-1.6-3.8-3c-0.5-1-0.8-2.2-0.7-3.3c0.1-1.1,0.4-2.2,0.9-3.3c0.9-2.1,2.2-4,2.9-6.2
								c1-3.2,0.6-6.6-0.2-9.9c-0.8-3.2-1.9-6.4-2.2-9.8c-0.2-1.5-0.1-3,0.2-4.4c0.3-1.5,1-2.8,2.1-3.9c1.5-1.3,3.3-2,5.3-2.1
								c1.9-0.1,3.9,0,5.8,0.3c1.9,0.3,3.9,0.5,5.8,0.5c2,0,3.9-0.7,5.5-1.8c1.5-1.2,2.5-2.9,3-4.8c0.5-1.8,0.8-3.7,0.9-5.6
								c0.2-1.9,0.6-3.8,1.2-5.5C61.1,201.3,62.4,199.8,64.1,198.9"/>
						</g>
					</g>
					
						<linearGradient id="path4792-8_1_" gradientUnits="userSpaceOnUse" x1="169.1925" y1="776.941" x2="184.2125" y2="805.231" gradientTransform="matrix(1 0 0 1 -72.53 -536.0997)">
						<stop  offset="0" style="stop-color:#EBC40C"/>
						<stop  offset="1" style="stop-color:#EBC40C;stop-opacity:0"/>
					</linearGradient>
					<path id="path4792-8" class="st24" d="M81.7,214.7c2.6,4.7,4.2,10.1,6.8,14.9c2.4,4.4,5.1,8.9,7.5,12.9
						c1.1,1.8,3.6,4.6,6.1,8.8c2.3,3.9,4.6,9.3,5.9,11.1c-0.8-2.1-2.3-7.9-4.1-11.9c-1.7-3.8-3.7-6-4.9-8c-2.4-4-5-7.7-7.5-11.5
						C88.1,225.7,85.5,219.8,81.7,214.7L81.7,214.7z"/>
				</g>
			</g>
			<g id="g526">
				
					<radialGradient id="path29714-8-2_1_" cx="322.953" cy="517.7938" r="16.85" gradientTransform="matrix(1.31 0.35 -0.37 1.37 -12.0284 -599.4692)" gradientUnits="userSpaceOnUse">
					<stop  offset="0" style="stop-color:#110800"/>
					<stop  offset="0.59" style="stop-color:#A65A00;stop-opacity:0.8"/>
					<stop  offset="1" style="stop-color:#FF921E;stop-opacity:0"/>
				</radialGradient>
				<path id="path29714-8-2" class="st25" d="M236.8,214.4c-0.6-1.1-1.6-1.9-2.7-2.4c-1.2-0.4-2.4-0.7-3.6-0.6
					c-2.5,0-4.9,0.7-7.4,0.4c-2.1-0.3-4.1-0.8-6.1-1.4c-2.1-0.6-4.3-0.6-6.4-0.1c-2.2,0.6-4.2,2-5.4,4c-1,1.8-1.7,3.7-1.8,5.8
					c-0.1,2,0,4.1,0.2,6.1c0.1,1.5,0.3,2.9,0.7,4.4c0.3,1.4,0.9,2.8,1.8,4c1.3,1.7,3.1,3,5.1,3.7c3.3,1.2,6.9,1.1,10.1-0.2
					c5.7-2.5,10.4-6.8,13.4-12.3c1.1-1.9,1.9-4,2.4-6.2c0.2-0.8,0.3-1.7,0.3-2.5C237.3,216.1,237.2,215.2,236.8,214.4"/>
				
					<radialGradient id="path29714-8-3-0_1_" cx="358.9082" cy="645.3528" r="16.85" gradientTransform="matrix(1.31 0.25 -0.37 0.99 -12.0284 -512.2196)" gradientUnits="userSpaceOnUse">
					<stop  offset="0" style="stop-color:#110800"/>
					<stop  offset="0.59" style="stop-color:#A65A00;stop-opacity:0.8"/>
					<stop  offset="1" style="stop-color:#FF921E;stop-opacity:0"/>
				</radialGradient>
				<path id="path29714-8-3-0" class="st26" d="M236.8,211.3c-0.7-0.9-1.7-1.5-2.7-1.7c-1.2-0.3-2.4-0.5-3.6-0.4
					c-2.5,0-4.9,0.5-7.4,0.3c-2-0.2-4.1-0.6-6.1-1.1c-2.1-0.4-4.3-0.5-6.4-0.1c-2.1,0.4-4,1.4-5.4,2.9c-1,1.2-1.6,2.6-1.8,4.2
					c-0.1,1.5,0,2.9,0.2,4.4c0.1,1.1,0.3,2.1,0.7,3.1c0.4,1.1,1,2.1,1.8,2.9c1.4,1.3,3.2,2.2,5.1,2.7c3.3,0.9,6.8,0.8,10.1-0.1
					c5.7-1.8,10.4-5,13.4-8.9c1-1.4,1.8-2.9,2.4-4.5c0.2-0.6,0.4-1.2,0.4-1.9C237.4,212.4,237.2,211.8,236.8,211.3"/>
			</g>
			<g id="g545">
				<path id="path29714-5-4" class="st0" d="M241.5,204.1c-0.4-1.1-1.1-2.1-2-2.9c-0.9-0.8-1.9-1.4-3-1.9c-2.2-0.8-4.5-1.4-6.8-1.7
					c-2.2-0.4-4.3-0.9-6.5-1.3c-2.3-0.5-4.6-0.5-6.9-0.1c-2,0.5-3.8,1.4-5.3,2.8c-1.5,1.4-2.7,3-3.5,4.9c-1.4,3.3-2,6.9-1.6,10.4
					c0.1,2.7,1,5.2,2.6,7.3c1.5,1.6,3.4,2.7,5.4,3.2c3.6,1,7.3,1,10.9-0.2c5.8-2,10.9-5.7,14.4-10.8c1.2-1.6,2.1-3.5,2.6-5.4
					C242.1,207.1,242,205.5,241.5,204.1"/>
				<g>
					<defs>
						<path id="SVGID_17_" d="M241.5,204.1c-0.4-1.1-1.1-2.1-2-2.9c-0.9-0.8-1.9-1.4-3-1.9c-2.2-0.8-4.5-1.4-6.8-1.7
							c-2.2-0.4-4.3-0.9-6.5-1.3c-2.3-0.5-4.6-0.5-6.9-0.1c-2,0.5-3.8,1.4-5.3,2.8c-1.5,1.4-2.7,3-3.5,4.9c-1.4,3.3-2,6.9-1.6,10.4
							c0.1,2.7,1,5.2,2.6,7.3c1.5,1.6,3.4,2.7,5.4,3.2c3.6,1,7.3,1,10.9-0.2c5.8-2,10.9-5.7,14.4-10.8c1.2-1.6,2.1-3.5,2.6-5.4
							C242.1,207.1,242,205.5,241.5,204.1"/>
					</defs>
					<clipPath id="SVGID_18_">
						<use xlink:href="#SVGID_17_"  style="overflow:visible;"/>
					</clipPath>
					<g class="st27">
						
							<radialGradient id="path29714-3-9-9_1_" cx="1471.6895" cy="1645.2802" r="20.54" gradientTransform="matrix(0.36 0.16 -7.000000e-02 0.17 -178.8862 -310.0417)" gradientUnits="userSpaceOnUse">
							<stop  offset="0" style="stop-color:#7C7C7C"/>
							<stop  offset="1" style="stop-color:#7C7C7C;stop-opacity:0.33"/>
						</radialGradient>
						<path id="path29714-3-9-9" class="st28" d="M217.5,195.2c-4.1,0.2-7.9,2.5-10.1,6c-1.3,2.2-1.8,4.7-1.7,7.2
							c0.1-1.8,0.5-3.5,1.4-5c1.5-2.6,4-4.5,6.9-5.1c1.8-0.2,3.6-0.2,5.4,0.1c1.7,0.2,3.5,0.4,5.2,0.8c2.7,0.5,5.2,1.5,7.5,3
							c0.5,0.4,1,0.8,1.4,1.2c0.4,0.5,0.7,1,0.9,1.7c0.1,0.9,0,1.9-0.5,2.7c-0.5,0.8-1.1,1.5-1.7,2.1c-0.5,0.5-1.1,1-1.7,1.5
							c2.6-0.4,5.1-1.3,7.3-2.7c0.9-0.6,1.7-1.4,2.2-2.4c0.6-1,0.7-2.1,0.5-3.2c-0.2-0.7-0.6-1.4-1.1-1.9c-0.5-0.5-1.1-1-1.7-1.4
							c-2.7-1.9-5.8-3.1-9.1-3.5c-2.1-0.4-4.2-0.7-6.3-1C220.9,195.2,219.2,195.1,217.5,195.2L217.5,195.2z"/>
					</g>
				</g>
				<g>
					<defs>
						<path id="SVGID_19_" d="M241.5,204.1c-0.4-1.1-1.1-2.1-2-2.9c-0.9-0.8-1.9-1.4-3-1.9c-2.2-0.8-4.5-1.4-6.8-1.7
							c-2.2-0.4-4.3-0.9-6.5-1.3c-2.3-0.5-4.6-0.5-6.9-0.1c-2,0.5-3.8,1.4-5.3,2.8c-1.5,1.4-2.7,3-3.5,4.9c-1.4,3.3-2,6.9-1.6,10.4
							c0.1,2.7,1,5.2,2.6,7.3c1.5,1.6,3.4,2.7,5.4,3.2c3.6,1,7.3,1,10.9-0.2c5.8-2,10.9-5.7,14.4-10.8c1.2-1.6,2.1-3.5,2.6-5.4
							C242.1,207.1,242,205.5,241.5,204.1"/>
					</defs>
					<clipPath id="SVGID_20_">
						<use xlink:href="#SVGID_19_"  style="overflow:visible;"/>
					</clipPath>
					<g class="st29">
						<path id="path29714-3-9-3-8" class="st7" d="M217.5,195.2c-4.1,0.2-7.9,2.5-10.1,6c-1.3,2.2-1.8,4.7-1.7,7.2
							c0.1-1.8,0.5-3.5,1.4-5c1.5-2.6,4-4.5,6.9-5.1c1.8-0.2,3.6-0.2,5.4,0.1c1.7,0.2,3.5,0.4,5.2,0.8c2.7,0.5,5.2,1.5,7.5,3
							c0.5,0.4,1,0.8,1.4,1.2c0.4,0.5,0.7,1,0.9,1.7c0.1,0.9,0,1.9-0.5,2.7c-0.5,0.8-1.1,1.5-1.7,2.1c-0.5,0.5-1.1,1-1.7,1.5
							c2.6-0.4,5.1-1.3,7.3-2.7c0.9-0.6,1.7-1.4,2.2-2.4c0.6-1,0.7-2.1,0.5-3.2c-0.2-0.7-0.6-1.4-1.1-1.9c-0.5-0.5-1.1-1-1.7-1.4
							c-2.7-1.9-5.8-3.1-9.1-3.5c-2.1-0.4-4.2-0.7-6.3-1C220.9,195.2,219.2,195.1,217.5,195.2L217.5,195.2z"/>
					</g>
				</g>
			</g>
		</g>
		<circle class="st0" cx="111.9" cy="21.7" r="21.7"/>
		<circle class="st30" cx="110" cy="19.9" r="12.7"/>
		<circle class="st31" cx="110" cy="19.9" r="5.4"/>
		<circle class="st0" cx="181.9" cy="21.7" r="21.7"/>
		<circle class="st30" cx="183.8" cy="19.9" r="12.7"/>
		<circle class="st31" cx="183.8" cy="19.9" r="5.4"/>
	</g>
</g>
</svg>
