<?xml version="1.0" encoding="UTF-8" standalone="no"?>
<svg
   xmlns:dc="http://purl.org/dc/elements/1.1/"
   xmlns:cc="http://creativecommons.org/ns#"
   xmlns:rdf="http://www.w3.org/1999/02/22-rdf-syntax-ns#"
   xmlns:svg="http://www.w3.org/2000/svg"
   xmlns="http://www.w3.org/2000/svg"
   xmlns:sodipodi="http://sodipodi.sourceforge.net/DTD/sodipodi-0.dtd"
   xmlns:inkscape="http://www.inkscape.org/namespaces/inkscape"
   sodipodi:docname="frogbuntu.svg"
   inkscape:version="1.0 (4035a4fb49, 2020-05-01)"
   id="svg8"
   version="1.1"
   viewBox="0 0 11.906249 11.906252"
   height="45"
   width="45">
  <defs
     id="defs2" />
  <sodipodi:namedview
     units="px"
     inkscape:pagecheckerboard="true"
     inkscape:window-maximized="0"
     inkscape:window-y="50"
     inkscape:window-x="1600"
     inkscape:window-height="1030"
     inkscape:window-width="1920"
     showgrid="false"
     inkscape:document-rotation="0"
     inkscape:current-layer="frogbuntu"
     inkscape:document-units="px"
     inkscape:cy="22.127493"
     inkscape:cx="20.259951"
     inkscape:zoom="15.839192"
     inkscape:pageshadow="2"
     inkscape:pageopacity="0"
     borderopacity="1"
     bordercolor="#010000"
     pagecolor="#ffffff"
     id="base"
     fit-margin-top="0.1"
     fit-margin-left="0.1"
     fit-margin-right="0.1"
     fit-margin-bottom="0.1"
     inkscape:snap-grids="true" />
  <metadata
     id="metadata5">
    <rdf:RDF>
      <cc:Work
         rdf:about="">
        <dc:format>image/svg+xml</dc:format>
        <dc:type
           rdf:resource="http://purl.org/dc/dcmitype/StillImage" />
        <dc:title></dc:title>
      </cc:Work>
    </rdf:RDF>
  </metadata>
  <g
     id="layer1"
     inkscape:groupmode="layer"
     inkscape:label="Layer 1">
    <g
       id="frogbuntu">
      <g
         transform="matrix(0.13427885,0,0,0.13427877,-1.141956,-2.1160175)"
         id="buntu">
        <path
           style="fill:#76b154;stroke-width:0.0508"
           d="m 40.517639,87.241037 c -5.31128,-3.72916 -9.4625,-9.00694 -11.82521,-15.03435 -0.45278,-1.15505 -1.18488,-3.40438 -1.18024,-3.62619 9.5e-4,-0.0452 0.17315,-0.23079 0.38267,-0.41241 0.4614,-0.39994 1.21071,-1.23996 1.63512,-1.83306 0.91495,-1.27863 1.53949,-2.7762 1.85195,-4.44073 0.0984,-0.52402 0.11432,-0.77721 0.11369,-1.80341 -6.3e-4,-1.02153 -0.0175,-1.28537 -0.11665,-1.82845 -0.38327,-2.09841 -1.27965,-3.90942 -2.72185,-5.499125 -0.25996,-0.286563 -0.623,-0.64675 -0.80673,-0.80042 -0.18374,-0.15367 -0.33539,-0.317205 -0.33699,-0.363413 -0.008,-0.224739 0.76659,-2.598467 1.21557,-3.725987 2.41212,-6.057482 6.40945,-11.119865 11.81135,-14.958373 0.59206,-0.420711 0.65511,-0.453652 0.71125,-0.371628 0.0489,0.07137 5.6322,9.402758 5.6955,9.518835 0.009,0.01696 -0.19397,0.188216 -0.45159,0.380573 -3.90805,2.917977 -6.74913,7.033304 -8.06108,11.676548 -0.9801,3.46875 -1.08547,7.21434 -0.30222,10.74305 1.11648,5.02996 3.97522,9.48226 8.16727,12.71995 l 0.52638,0.40655 -0.0239,0.20764 c -0.0185,0.1614 -0.63949,1.23661 -2.78723,4.8263 -1.51985,2.54026 -2.78827,4.62696 -2.81872,4.6371 -0.0304,0.0101 -0.33572,-0.1784 -0.67839,-0.419 z"
           id="buntu1" />
        <path
           style="fill:#76b154;stroke-width:0.0508"
           d="m 81.433249,57.868387 c -0.18732,-1.60316 -0.57904,-3.35044 -1.08476,-4.838695 -2.40102,-7.0658 -8.2697,-12.459884 -15.50718,-14.25313 -1.23532,-0.306076 -2.93391,-0.556804 -4.31084,-0.636319 -1.41416,-0.08167 -2.87259,0.01578 -4.60584,0.307729 -1.72751,0.290987 -3.87422,0.929782 -5.3559,1.593758 l -0.28435,0.127421 -2.73004,-4.902109 c -1.50152,-2.696159 -2.7205,-4.911654 -2.70883,-4.923321 0.0117,-0.01167 0.40802,-0.195402 0.88079,-0.4083 2.9696,-1.337285 5.92072,-2.204393 9.03837,-2.655685 1.86971,-0.270646 2.7876,-0.332158 4.9022,-0.328515 1.68203,0.0029 2.05092,0.01872 3.15162,0.135168 1.77159,0.187425 4.0695,0.594302 5.30364,0.939084 0.14301,0.03995 0.15563,0.06789 0.29284,0.648486 0.59194,2.504786 1.782,4.469224 3.6725,6.062229 0.96696,0.814787 1.92634,1.372322 3.15822,1.835351 1.19114,0.447721 2.34303,0.655425 3.66421,0.660716 1.28805,0.0052 2.27588,-0.144265 3.47282,-0.525315 l 0.54165,-0.172436 0.52952,0.538694 c 0.60401,0.614468 1.40695,1.523668 2.00109,2.265894 4.0454,5.053682 6.52404,11.165061 7.12875,17.576805 0.029,0.30733 0.0643,0.67881 0.0784,0.82549 l 0.0257,0.2667 -0.92755,10e-4 c -0.51014,6.6e-4 -2.8935,0.0344 -5.29634,0.075 -2.40284,0.0406 -4.51003,0.0743 -4.68264,0.075 l -0.31385,10e-4 -0.0341,-0.2921 z"
           id="buntu2" />
        <path
           style="fill:#c5e4b2;stroke-width:0.0508"
           d="m 57.939669,93.208967 c -3.64433,-0.19046 -7.18172,-0.94893 -10.5156,-2.25471 -1.30159,-0.5098 -2.61408,-1.11398 -2.57446,-1.18511 0.0112,-0.02 1.22729,-2.20816 2.70248,-4.86246 1.47519,-2.6543 2.69861,-4.84493 2.7187,-4.86808 0.0201,-0.0232 0.1479,0.0136 0.28401,0.0816 0.52326,0.26153 2.07187,0.8077 3.11767,1.09955 1.27142,0.35482 3.06761,0.67374 4.33857,0.77033 1.32773,0.10091 3.21869,0.0364 4.55143,-0.15525 4.06457,-0.5845 7.96126,-2.29611 10.9728,-4.81976 4.47107,-3.74672 7.21523,-8.85482 7.89801,-14.7017 l 0.0341,-0.2921 0.39005,-8.1e-4 c 0.53972,-10e-4 10.80176,0.16299 10.81371,0.17296 0.0227,0.0189 -0.14614,1.69393 -0.2412,2.39327 -0.94751,6.97065 -4.11282,13.49261 -9.00162,18.54736 l -0.49651,0.51337 -0.51997,-0.17286 c -0.68664,-0.22827 -1.78692,-0.451 -2.59393,-0.52507 -0.98073,-0.09 -2.19484,0.007 -3.28544,0.26191 -4.0768,0.95378 -7.21158,4.1688 -8.12844,8.33652 l -0.11995,0.54522 -0.25731,0.0743 c -0.53105,0.15327 -1.91828,0.4438 -2.9243,0.61244 -2.37809,0.39866 -4.87891,0.54848 -7.1628,0.42912 z"
           id="buntu3" />
      </g>
      <ellipse
         ry="1.0383443"
         rx="1.0383449"
         style="stroke-width:0.13428"
         id="beard_or_idfk"
         fill="#c5e4b2"
         cx="9.4661493"
         cy="10.471031" />
      <g
         transform="matrix(0.13427885,0,0,0.13427877,-1.141956,-2.1160175)"
         id="eyes">
        <g
           id="left_eye">
          <circle
             id="left_eye_outer"
             r="7.7265"
             fill="#ffffff"
             cx="20.715498"
             cy="60.095745" />
          <circle
             id="left_eye_inner"
             fill="#282e31"
             r="4"
             cx="20.641813"
             cy="60.189758" />
        </g>
        <g
           id="right_eye">
          <circle
             id="right_eye_outer"
             fill="#ffffff"
             r="7.7249999"
             cx="79.001251"
             cy="26.438997" />
          <circle
             id="right_eye_inner"
             fill="#282e31"
             r="4"
             cx="79.163406"
             cy="26.458559" />
        </g>
      </g>
    </g>
  </g>
</svg>
