<svg xmlns="http://www.w3.org/2000/svg" viewBox="0 0 200 200"><defs><style>.cls-1{fill:#559438;}.cls-2{fill:#c5deb1;}.cls-3{fill:#77b154;}.cls-4{fill:#fff;}.cls-5{fill:#2a2f33;}.cls-6{fill:#5c903a;}.cls-7{fill:none;}</style></defs><g id="Ebene_2" data-name="Ebene 2"><g id="Ebene_1-2" data-name="Ebene 1"><path class="cls-1" d="M167,0H33A20.55,20.55,0,0,0,12.5,20.6V155.8A20.55,20.55,0,0,0,33,176.4H146.4l-5.3-18.5,12.8,11.9L166,181l21.5,19V20.6A20.55,20.55,0,0,0,167,0Z"/><path class="cls-2" d="M159.36,114.1s-8.5,14.5-30.6,15.2c0,0-3.6-4.3-6.6-8.1,13.1-3.7,18.1-11.9,18.1-11.9a57.22,57.22,0,0,1-11.5,5.9,65.82,65.82,0,0,1-14.5,4.3,70.05,70.05,0,0,1-25.9-.1,83.94,83.94,0,0,1-14.7-4.3,58.6,58.6,0,0,1-7.3-3.4c-.3-.2-.6-.3-.9-.5a1.38,1.38,0,0,1-.4-.3c-1.69-.94-2.67-1.61-2.79-1.69.14.24,5,8.05,17.49,11.79-3,3.8-6.7,8.3-6.7,8.3-22.1-.7-30.5-15.2-30.5-15.2A113.82,113.82,0,0,1,43.33,101c8.33,7,31-7.19,57.63-7.19S150.26,108,158.59,101A114,114,0,0,1,159.36,114.1Z"/><path class="cls-3" d="M158.59,101c-8.33,7-31-7.18-57.63-7.18S51.66,108,43.33,101a135.47,135.47,0,0,1,5.73-26A32.2,32.2,0,0,1,59.76,59.6s2.2-1.2,5.9-2.9a75.1,75.1,0,0,1,22.7-6.3,9.85,9.85,0,0,1,1.7-.2,84.61,84.61,0,0,1,20.2-.2,81.52,81.52,0,0,1,30.1,9.6l0,0a29.8,29.8,0,0,1,12.77,16.3A134.68,134.68,0,0,1,158.59,101Z"/><ellipse class="cls-3" cx="66.53" cy="51.94" rx="13.66" ry="14.23"/><ellipse class="cls-4" cx="65.31" cy="50.76" rx="8.01" ry="8.31"/><ellipse class="cls-5" cx="65.31" cy="50.76" rx="3.43" ry="3.56"/><ellipse class="cls-3" cx="139.83" cy="51.94" rx="13.66" ry="14.23"/><ellipse class="cls-4" cx="141.05" cy="50.76" rx="8.01" ry="8.31"/><ellipse class="cls-5" cx="141.05" cy="50.76" rx="3.43" ry="3.56"/><ellipse class="cls-6" cx="87.38" cy="87.9" rx="4.16" ry="4.32"/><ellipse class="cls-6" cx="113.21" cy="87.9" rx="4.16" ry="4.32"/><rect class="cls-7" width="200" height="200"/></g></g></svg>