<?xml version="1.0" encoding="utf-8"?>
<!-- Generator: Adobe Illustrator 25.0.0, SVG Export Plug-In . SVG Version: 6.00 Build 0)  -->
<svg version="1.1" id="Ebene_1" xmlns="http://www.w3.org/2000/svg" xmlns:xlink="http://www.w3.org/1999/xlink" x="0px" y="0px"
	 viewBox="0 0 595 595" style="enable-background:new 0 0 595 595;" xml:space="preserve">
<style type="text/css">
	.st0{fill:#78B355;}
	.st1{fill:#C7DFB3;}
	.st2{fill:#FFFFFF;}
	.st3{fill:#2A3034;}
	.st4{fill:#2B3034;}
	.st5{fill:#5D913B;}
</style>
<path class="st0" d="M344.7,203.7c40.1,1.2,96.6,9.6,108.6,54.9c6.5,29.5-10.7,57.4-31.6,76.8c-16.9,16-36.3,29.1-55.8,41.8
	c-6.9-0.3-14-1.6-20.9-2.1c-82.7-8.4-165.1,8.5-244.6,29.7C72.1,270.4,233.1,199.9,344.7,203.7z"/>
<path class="st1" d="M100.3,404.7c86.1-23.4,175.9-40.3,265.2-27.5c-29.3,22.4-128.1,63.4-102.1,109.8c17.2,30.9,71.9,54.8,86.6,9.3
	c5.1-11.6-3.1-26,6-35.9c18.3-18.3,46.6-22.6,71.5-22.4c18-0.2,43.3,9.5,38.4,31.7c-4.9,27-18.5,51.9-36.7,72.2
	C317.1,670.8,128.5,541.6,100.3,404.7z"/>
<path class="st0" d="M303.9,25c39.2,9.4,24.8,69.9,13.5,96.7c-23.6,56.5-57.2,38-67.8-12.9C240.5,69.9,255.9,19.2,303.9,25z"/>
<path class="st0" d="M139.5,116c-1.6-22.2,16.1-43.7,38.7-44c32.9,3.6,33.3,51.9,30.4,77.1c-1.8,19.4-14.6,50.6-37.8,32.4
	C151.3,166.1,140.2,140.6,139.5,116z"/>
<path class="st2" d="M500.1,121.1C415.2,223.6,335,171.5,389,64.1c7.2-14.4,17.5-27,30.1-37C499.6-36,594.1,17.5,500.1,121.1z"/>
<path class="st3" d="M486.3,90.6c0,39.8-61,40.3-61,0C425,51.3,485.9,50.1,486.3,90.6z"/>
<path class="st2" d="M119.1,179.3c27.5,74.2-27.5,94.9-60.1,20.6c-10.4-29.1,6.1-46.6,22.2-52.4S108.1,152.9,119.1,179.3z"/>
<path class="st4" d="M93.5,179.3c23.5,0.3,21,34.5,0,34C71,213,71.2,179.2,93.5,179.3z"/>
<path class="st5" d="M380,291.3c26.9,0.2,26.6,40.4-0.1,40.7C353.3,331.5,353.3,291.5,380,291.3z"/>
<path class="st5" d="M196.7,311.5c0.3-26.7,40.3-26.5,40.7,0.2C237.1,338,196.9,338.8,196.7,311.5z"/>
</svg>
