<?xml version="1.0" encoding="utf-8"?>
<!-- Generator: Adobe Illustrator 25.0.0, SVG Export Plug-In . SVG Version: 6.00 Build 0)  -->
<svg version="1.1" id="Ebene_1" xmlns="http://www.w3.org/2000/svg" xmlns:xlink="http://www.w3.org/1999/xlink" x="0px" y="0px"
	 viewBox="0 0 248 248" style="enable-background:new 0 0 248 248;" xml:space="preserve">
<style type="text/css">
	.st0{fill:url(#SVGID_1_);}
	.st1{fill:url(#SVGID_2_);}
	.st2{fill:url(#SVGID_3_);}
	.st3{fill:url(#SVGID_4_);}
	.st4{fill:#FFFFFF;}
	.st5{fill:#2A3034;}
	.st6{fill:none;stroke:url(#SVGID_5_);stroke-width:5;stroke-linecap:round;stroke-linejoin:round;}
</style>
<linearGradient id="SVGID_1_" gradientUnits="userSpaceOnUse" x1="124" y1="338.9098" x2="124" y2="90.9098" gradientTransform="matrix(1 0 0 1 0 -90.9098)">
	<stop  offset="0" style="stop-color:#76B157"/>
	<stop  offset="0.11" style="stop-color:#76B157"/>
	<stop  offset="0.3" style="stop-color:#76B157"/>
	<stop  offset="0.65" style="stop-color:#4D833A"/>
	<stop  offset="0.83" style="stop-color:#3D712E"/>
	<stop  offset="1" style="stop-color:#3D712E"/>
</linearGradient>
<circle class="st0" cx="124" cy="124" r="124"/>
<g>
	
		<linearGradient id="SVGID_2_" gradientUnits="userSpaceOnUse" x1="67.636" y1="175.9993" x2="180.8139" y2="62.8214" gradientTransform="matrix(1 0 0 -1 0 247.8898)">
		<stop  offset="0" style="stop-color:#C7DFB3"/>
		<stop  offset="1" style="stop-color:#FFFFFF;stop-opacity:0"/>
	</linearGradient>
	<path class="st1" d="M199.2,95.6v68.1c0,4-3.2,7.2-7.2,7.2H56.4c-4,0-7.2-3.2-7.2-7.2V95.6c0-3.9,3.1-7.1,7.1-7.2l0,0
		c0.2-7.3,6.3-13.1,13.7-12.9c7.1,0.2,12.7,5.9,12.9,12.9h82.7c0.2-7.3,6.3-13.1,13.7-12.9c7.1,0.2,12.7,5.9,12.9,12.9l0,0
		C196.1,88.5,199.2,91.7,199.2,95.6z"/>
	
		<linearGradient id="SVGID_3_" gradientUnits="userSpaceOnUse" x1="224.6954" y1="241.3749" x2="272.6652" y2="289.3446" gradientTransform="matrix(1 0 0 1 -212.8 -145.1097)">
		<stop  offset="0" style="stop-color:#C7DFB3"/>
		<stop  offset="1" style="stop-color:#FFFFFF;stop-opacity:0"/>
	</linearGradient>
	<path class="st2" d="M41.7,78.1v84.3l0,0c-15.5,0-28.1-12.6-28.1-28.1l0,0l0,0v-28.1C13.6,90.7,26.2,78.1,41.7,78.1z"/>
	
		<linearGradient id="SVGID_4_" gradientUnits="userSpaceOnUse" x1="400.9349" y1="297.8446" x2="448.9046" y2="249.8749" gradientTransform="matrix(1 0 0 1 -212.8 -145.1097)">
		<stop  offset="0" style="stop-color:#3D712E"/>
		<stop  offset="1" style="stop-color:#FFFFFF;stop-opacity:0"/>
	</linearGradient>
	<path class="st3" d="M206.3,86.6v84.3l0,0c15.5,0,28.1-12.6,28.1-28.1c0,0,0,0,0,0l0,0v-28.1C234.4,99.2,221.8,86.6,206.3,86.6
		L206.3,86.6z"/>
	<g>
		<circle class="st4" cx="68.6" cy="87.4" r="7.7"/>
		<circle class="st5" cx="68.6" cy="87.4" r="3.3"/>
	</g>
	<g>
		<circle class="st4" cx="179.9" cy="87.4" r="7.6"/>
		<circle class="st5" cx="179.9" cy="87.4" r="3.3"/>
	</g>
	
		<linearGradient id="SVGID_5_" gradientUnits="userSpaceOnUse" x1="92.5" y1="136.9117" x2="214.5" y2="136.9117" gradientTransform="matrix(1 0 0 1 0 -90.9098)">
		<stop  offset="0" style="stop-color:#FFFFFF"/>
		<stop  offset="1" style="stop-color:#FFFFFF;stop-opacity:0"/>
	</linearGradient>
	<path class="st6" d="M95,59c44.7-31.9,88.7-38,107-20c3.7,3.7,8.7,10.6,10,24"/>
	<path class="st4" d="M93.9,68.1c0,0.1,0,0.3,0,0.4c-0.3,2.6-3.2,4.2-6.9,4.2s-6.6-1.6-6.9-4.2c0-0.1,0-0.3,0-0.4c0-0.2,0-0.3,0-0.5
		c0.1-0.5,0.2-0.9,0.4-1.3c0-0.1,0.1-0.1,0.1-0.2c0,0,0-0.1,0.1-0.1c0.1-0.1,0.2-0.3,0.2-0.4c0,0,0,0,0,0c0.1-0.2,0.2-0.3,0.3-0.5
		c0.1-0.1,0.1-0.2,0.2-0.2c0.1-0.1,0.2-0.2,0.2-0.2l0,0c-0.4-0.3-0.7-0.8-0.8-1.3c-0.3-1.2,0.5-2.5,1.7-2.8c1.2-0.3,2.5,0.5,2.8,1.7
		c1-0.4,2.2-0.4,3.2,0c0.2-1.1,1.2-1.8,2.3-1.8c1.3,0,2.3,1.1,2.3,2.3c0,0.7-0.3,1.4-0.9,1.8c0,0,0.1,0.1,0.1,0.2
		c0.4,0.4,0.7,0.8,0.9,1.3c0.1,0.1,0.1,0.2,0.2,0.3c0,0.1,0.1,0.2,0.1,0.3c0.1,0.3,0.2,0.6,0.2,1C93.9,67.8,93.9,67.9,93.9,68.1z"/>
</g>
</svg>
