<?xml version="1.0" encoding="utf-8"?>
<!-- Generator: Adobe Illustrator 25.0.0, SVG Export Plug-In . SVG Version: 6.00 Build 0)  -->
<svg version="1.1" id="Ebene_1" xmlns="http://www.w3.org/2000/svg" xmlns:xlink="http://www.w3.org/1999/xlink" x="0px" y="0px"
	 viewBox="0 0 247.5 247.5" style="enable-background:new 0 0 247.5 247.5;" xml:space="preserve">
<style type="text/css">
	.st0{fill:#C6E5B3;}
	.st1{fill:#FFFFFF;}
	.st2{fill:#292F33;}
	.st3{fill:#77B255;}
</style>
<g>
	<path class="st0" d="M86.1,22.1c0,1.1-0.1,2.3-0.3,3.4c-1.5,0.5-2.9,1-4.4,1.6l-0.3,0.1c-1.6,0.6-3.2,1.3-4.8,2
		c-1.7,0.8-3.4,1.6-5.1,2.5c-1.3,0.7-2.6,1.4-3.8,2.2c-0.9,0.6-1.9,1.2-2.9,1.9c-0.7,0.4-1.3,0.9-1.9,1.3c-2.5,1.8-4.8,3.6-7.1,5.7
		c-2.2-0.8-4.3-2-6.1-3.5c-5.1-4.2-8.1-10.5-8-17.2C41.4,10,51,0.1,63.1,0c0.1,0,0.3,0,0.4,0c11-0.1,20.4,7.7,22.3,18.5
		C86,19.7,86.1,20.9,86.1,22.1z"/>
	<path class="st1" d="M75,20.5c0,0.7-0.1,1.4-0.2,2.1c-1.6,0.7-3.2,1.5-4.8,2.3c-0.6,0.3-1.1,0.6-1.7,0.9c-0.9,0.5-1.9,1-2.8,1.6
		s-2.1,1.3-3.1,1.9c-0.6,0.4-1.2,0.8-1.8,1.2s-1.3,0.9-1.9,1.3c-0.4,0.3-0.9,0.6-1.3,0.9c-6.8-2.5-10.2-10-7.7-16.8
		c2.5-6.8,10-10.2,16.8-7.7C71.6,10.2,75,15.1,75,20.5z"/>
	<circle class="st2" cx="62" cy="20.5" r="5.6"/>
	<path class="st0" d="M112.5,12c-4.8,0-9.5,0.5-14.2,1.2c-0.9,0.2-1.8,0.3-2.8,0.5c-2.5,0.5-4.9,1-7.3,1.7l-0.6,0.2L86.5,16
		l-5.3,1.8c-2,0.7-4,1.6-6,2.4c-1.7,0.7-3.4,1.5-5,2.4c-0.6,0.3-1.2,0.6-1.7,0.9c-1,0.5-1.9,1-2.8,1.6c-1.1,0.6-2.2,1.3-3.2,2
		c-0.6,0.4-1.2,0.8-1.8,1.2c-0.6,0.4-1.3,0.9-2,1.4l-1.3,1c-2.5,1.8-4.9,3.7-7.2,5.8l-0.9,0.8c-1.9,1.8-3.8,3.7-5.5,5.6
		c-2.5,2.8-4.8,5.7-7,8.7l-3.7,5.6C5.6,101.8,19.6,160.1,64.2,187.4c14.9,9.1,31.9,13.9,49.4,13.9V11.9L112.5,12z M105.5,191.7
		c-47-3.7-82-44.7-78.4-91.7c1.1-13.7,5.4-26.9,12.7-38.6c1.2-1.9,2.5-3.8,3.9-5.6c3.5-4.7,7.5-9.1,11.9-13c2.3-2,4.6-3.9,7.1-5.7
		c0.6-0.4,1.3-0.9,1.9-1.3c1-0.7,2-1.3,2.9-1.9c1.2-0.8,2.5-1.5,3.8-2.2c1.6-0.9,3.3-1.8,5.1-2.5c1.6-0.7,3.1-1.4,4.8-2l0.3-0.1
		c1.4-0.6,2.9-1.1,4.4-1.6l0.7-0.2l1.4-0.4c5.7-1.7,11.6-2.8,17.5-3.2L105.5,191.7z"/>
</g>
<g>
	<path class="st3" d="M161.4,68.1c0,1.1,0.1,2.3,0.3,3.4c1.5,0.5,3,1,4.4,1.6l0.3,0.1c1.6,0.6,3.2,1.3,4.8,2
		c1.7,0.8,3.4,1.6,5.1,2.6c1.3,0.7,2.6,1.4,3.8,2.2c0.9,0.6,1.9,1.2,2.9,1.9c0.6,0.4,1.3,0.9,1.9,1.3c2.5,1.8,4.8,3.6,7.1,5.7
		c2.2-0.8,4.3-2,6.1-3.5c5.1-4.2,8.1-10.5,8-17.2c0.1-12.1-9.6-21.9-21.6-22.1c-0.1,0-0.2,0-0.4,0c-11-0.1-20.4,7.7-22.3,18.5
		C161.5,65.7,161.4,66.9,161.4,68.1z"/>
	<path class="st1" d="M198.6,66.5c0,5.5-3.4,10.4-8.6,12.3c-0.4-0.3-0.9-0.6-1.3-0.9c-0.6-0.5-1.3-0.9-1.9-1.3s-1.2-0.8-1.8-1.2
		c-1-0.7-2.1-1.3-3.1-1.9s-1.9-1.1-2.8-1.6c-0.6-0.3-1.1-0.6-1.7-0.9c-1.6-0.8-3.1-1.6-4.8-2.3c-1.2-7.1,3.7-13.8,10.8-15
		c7.1-1.2,13.8,3.7,15,10.8C198.5,65.1,198.6,65.8,198.6,66.5L198.6,66.5z"/>
	<circle class="st2" cx="185.5" cy="66.5" r="5.6"/>
	<path class="st3" d="M214.7,103.2L214.7,103.2l-3.8-5.7c-2.2-3-4.5-6-7.1-8.7c-2.1-2.2-4.2-4.4-6.4-6.4c-2.3-2.1-4.7-4.1-7.2-5.9
		c-0.4-0.3-0.9-0.6-1.3-1c-0.7-0.5-1.3-1-2-1.4c-0.7-0.4-1.2-0.8-1.9-1.2c-1-0.7-2.1-1.4-3.2-2c-1.1-0.7-1.9-1.1-2.9-1.6l-1.7-0.9
		c-1.6-0.8-3.2-1.6-4.9-2.4c-2-0.9-4-1.7-6.1-2.5l-6.5-2.1l-0.5-0.2c-2.4-0.7-4.8-1.3-7.3-1.7c-0.9-0.2-1.8-0.4-2.8-0.5
		c-4.7-0.8-9.5-1.2-14.3-1.2h-1.1v189.7c52.4,0,94.8-42.5,94.8-94.9C228.6,135.2,223.8,118.1,214.7,103.2z M180.5,224.9
		c-11.7,7.3-24.9,11.7-38.6,12.8v-170c5.9,0.5,11.8,1.5,17.5,3.2c0.5,0.1,1,0.3,1.4,0.4c1.7,0.5,3.4,1.1,5,1.8l0.3,0.1
		c1.6,0.7,3.2,1.3,4.8,2c1.7,0.8,3.4,1.6,5.1,2.5c1.3,0.7,2.5,1.4,3.8,2.2c1,0.6,2,1.2,2.9,1.9c0.6,0.4,1.3,0.9,1.9,1.3
		c7.3,5.2,13.7,11.5,19,18.6c1.4,1.8,2.7,3.7,3.9,5.7C232.5,147.3,220.4,199.9,180.5,224.9z"/>
</g>
</svg>
