<svg xmlns="http://www.w3.org/2000/svg" viewBox="0 0 291.76 291.76"><defs><style>.cls-1{fill:#77b255;}.cls-2{fill:#fff;}.cls-3{fill:#292f33;}.cls-4{fill:#c6e5b3;}.cls-5{fill:#5c913b;}.cls-6{fill:none;}</style></defs><g id="Ebene_2" data-name="Ebene 2"><g id="Ebene_1-2" data-name="Ebene 1"><path class="cls-1" d="M265.13,119.83c0,31.44-30.08,50.59-72,50.59V56.58C235.05,56.58,265.13,88.39,265.13,119.83Z"/><path class="cls-1" d="M265.13,119.59c0,31.44-30.08,4.46-72,4.46v-72a49.91,49.91,0,0,1,17.5,3.19,25.29,25.29,0,1,1,40.5,25.27C262.28,91.81,265.13,105.61,265.13,119.59Z"/><circle class="cls-2" cx="237.4" cy="58.69" r="14.76"/><circle class="cls-3" cx="237.4" cy="58.69" r="6.32"/><path class="cls-4" d="M98.63,36V256.39H62.37c-14,0-35.74-20.74-35.74-39.13V76.13C26.63,55.19,49.36,36,67.06,36Z"/><path class="cls-1" d="M193.13,71.37V291.76h36.26c14,0,35.74-20.74,35.74-39.13V111.5c0-20.94-22.73-40.13-40.43-40.13Z"/><polygon class="cls-4" points="142.34 173.96 140.58 181.57 108.64 181.57 110.89 173.96 142.34 173.96"/><polygon class="cls-1" points="178.29 173.96 175.84 181.57 140.58 181.57 142.34 173.96 178.29 173.96"/><polygon class="cls-4" points="148.39 147.86 146.62 155.47 113.14 155.47 115.39 147.86 148.39 147.86"/><polygon class="cls-1" points="182.79 147.86 180.34 155.47 146.62 155.47 148.39 147.86 182.79 147.86"/><polygon class="cls-4" points="122.24 203.99 140.83 123.77 147.78 123.77 129.19 203.99 122.24 203.99"/><polygon class="cls-1" points="146.18 203.99 164.77 123.77 171.89 123.77 153.3 203.99 146.18 203.99"/><circle class="cls-5" cx="209.99" cy="111.39" r="4.22"/><path class="cls-4" d="M98.63,21.08V134.93c-41.92,0-72-19.32-72-50.75S56.71,21.08,98.63,21.08Z"/><path class="cls-4" d="M98.63,16.55v72c-41.92,0-72,27.06-72-4.37,0-14,2.85-27.86,14-39.16a25.29,25.29,0,1,1,40.5-25.27A49.65,49.65,0,0,1,98.63,16.55Z"/><circle class="cls-2" cx="54.35" cy="23.19" r="14.76"/><circle class="cls-3" cx="54.35" cy="23.19" r="6.32"/><circle class="cls-5" cx="81.76" cy="75.9" r="4.22"/><rect class="cls-6" width="291.76" height="291.76"/></g></g></svg>