<?xml version="1.0" encoding="utf-8"?>
<!-- Generator: Adobe Illustrator 25.0.0, SVG Export Plug-In . SVG Version: 6.00 Build 0)  -->
<svg version="1.1" id="Ebene_1" xmlns="http://www.w3.org/2000/svg" xmlns:xlink="http://www.w3.org/1999/xlink" x="0px" y="0px"
	 viewBox="0 0 193.8 193.8" style="enable-background:new 0 0 193.8 193.8;" xml:space="preserve">
<style type="text/css">
	.st0{fill:#5D913B;}
	.st1{fill:#C7DFB3;}
	.st2{fill:#78B355;}
	.st3{fill:#FFFFFF;}
	.st4{fill:#2A3034;}
</style>
<g id="Ebene_2_1_">
	<g id="Ebene_1-2">
		<g id="g10">
			<rect x="27.8" y="74.8" class="st0" width="136.2" height="70.1"/>
			<path class="st1" d="M177.2,135.3l-13.6,23.5l-20.2,35H50.4l-20.2-35l-13.6-23.5c5.9,2.3,14.8,0.5,25.9-2.3h0.2
				c0.9,0,1.8-0.1,2.6-0.2c0.6-0.1,1.3-0.3,1.9-0.6c0.4-0.2,0.8-0.4,1.1-0.6l0.2-0.2c3.4-0.9,7-1.8,10.7-2.7c0.8,0.5,1.7,1,2.5,1.4
				c1.2,0.6,2.5,1.2,3.8,1.7c1.1,0.4,2.2,0.7,3.3,0.9c0.9,0.2,1.8,0.3,2.8,0.3v-6.9c8.4-1.6,16.9-2.5,25.5-2.5
				c2.9,0,5.8,0.1,8.7,0.3l7.3,7.5c0.1,0.1,0.3,0.2,0.4,0.3c0.4,0.2,0.7,0.4,1.1,0.6c0.6,0.2,1.2,0.4,1.8,0.6
				c0.9,0.2,1.7,0.3,2.6,0.2c0.9,0,1.9-0.1,2.8-0.2c1.1-0.2,2.2-0.5,3.3-0.9c1.3-0.5,2.6-1,3.8-1.7c1.2-0.6,2.4-1.3,3.5-2.1
				c3.8,0.9,7.4,1.8,10.9,2.7l0.5,0.5c0.1,0.1,0.3,0.2,0.4,0.3c0.4,0.2,0.7,0.4,1.1,0.6c0.6,0.3,1.2,0.4,1.9,0.6
				c0.9,0.2,1.7,0.3,2.6,0.2c0.5,0,1.1,0,1.6-0.1C162.4,135.8,171.3,137.5,177.2,135.3z"/>
			<path id="path58" class="st2" d="M180.6,97l-0.1-0.1l-8.8-15.2l-0.2-0.3l-5.6-9.8l-6.3-11l-5.1-8.9l-6.6-11.4l-4.4-7.7H50.4
				l-4.4,7.7l-6.6,11.4l-5.1,8.9l-6.3,11l-5.6,9.7l-0.2,0.3l-8.8,15.2L13.2,97l-9.4,16.2l5,8.6l0,0l7.8,13.4
				c5.9,2.3,14.8,0.5,25.9-2.3c-0.9,0-1.7-0.1-2.6-0.2c-1.1-0.2-2.2-0.5-3.3-0.9c-1.3-0.5-2.6-1-3.8-1.7c-1.5-0.8-3-1.7-4.4-2.7
				l52.7-52.1l21,21.7l15.6-15.6l35.5,35.6l10.8,10.5c-1.4,1-2.9,1.9-4.4,2.7c-1.2,0.6-2.5,1.2-3.8,1.7c-1.1,0.4-2.2,0.7-3.3,0.9
				c-0.4,0.1-0.8,0.1-1.2,0.2c11.1,2.8,20.1,4.6,26,2.3l7.7-13.4l0,0l5-8.6L180.6,97z M121.4,109.2l-3.7-3.7l-3.5,3.5l4.4,4.3
				l14.6,14.3c-0.3,0.2-0.6,0.4-0.9,0.6c3.8,0.9,7.4,1.8,10.9,2.7l-9-9L121.4,109.2z M81,99.3l-5.1,4.9l-3.3,3.1l-0.2,0.2
				l-23.8,23.8l-0.2,0.1c3.4-0.9,7-1.8,10.7-2.7c-0.6-0.4-1.2-0.8-1.8-1.2l14.1-14.1v12.7c8.4-1.6,16.9-2.5,25.5-2.5
				c2.9,0,5.8,0.1,8.7,0.3l-1-1L81,99.3z"/>
			<path id="path62" class="st2" d="M114.4,109.3L102,96.9l0.9-0.9l12.5,12.3L114.4,109.3z"/>
		</g>
		<circle class="st2" cx="139.4" cy="32.6" r="32.6"/>
		<circle class="st3" cx="142.1" cy="29.9" r="19"/>
		<circle class="st4" cx="142.1" cy="29.9" r="8.1"/>
		<circle class="st2" cx="54.4" cy="32.6" r="32.6"/>
		<circle class="st3" cx="51.7" cy="29.9" r="19"/>
		<circle class="st4" cx="51.7" cy="29.9" r="8.2"/>
	</g>
</g>
</svg>
