<?xml version="1.0" encoding="UTF-8" standalone="no"?>
<svg
   inkscape:version="1.1.2 (0a00cf5339, 2022-02-04, custom)"
   sodipodi:docname="frogMicrosoft.svg"
   id="svg2"
   version="1.1"
   xml:space="preserve"
   style="enable-background:new 0 0 45 45;"
   viewBox="0 0 45 45"
   xmlns:inkscape="http://www.inkscape.org/namespaces/inkscape"
   xmlns:sodipodi="http://sodipodi.sourceforge.net/DTD/sodipodi-0.dtd"
   xmlns="http://www.w3.org/2000/svg"
   xmlns:svg="http://www.w3.org/2000/svg"
   xmlns:rdf="http://www.w3.org/1999/02/22-rdf-syntax-ns#"
   xmlns:cc="http://creativecommons.org/ns#"
   xmlns:dc="http://purl.org/dc/elements/1.1/"><sodipodi:namedview
     inkscape:current-layer="svg2"
     inkscape:window-maximized="1"
     inkscape:window-y="54"
     inkscape:window-x="1920"
     inkscape:cy="32.6875"
     inkscape:cx="16.8125"
     inkscape:zoom="8"
     showgrid="false"
     id="namedview857"
     inkscape:window-height="1026"
     inkscape:window-width="1920"
     inkscape:pageshadow="2"
     inkscape:pageopacity="0"
     guidetolerance="10"
     gridtolerance="10"
     objecttolerance="10"
     borderopacity="1"
     bordercolor="#666666"
     pagecolor="#ffffff"
     inkscape:pagecheckerboard="1" /><metadata
     id="metadata8"><rdf:RDF><cc:Work
         rdf:about=""><dc:format>image/svg+xml</dc:format><dc:type
           rdf:resource="http://purl.org/dc/dcmitype/StillImage" /></cc:Work></rdf:RDF></metadata><defs
     id="defs6"><clipPath
       clipPathUnits="userSpaceOnUse"
       id="clipPath16"><path
         d="M 0,36 36,36 36,0 0,0 0,36 Z"
         id="path18" /></clipPath><clipPath
       id="clipPath1575"
       clipPathUnits="userSpaceOnUse"><path
         d="m 39.693625,15.84475 c 1.71,-1.375 2.80625,-3.48125 2.80625,-5.845 0,-4.14125 -3.3575,-7.5 -7.5,-7.5 -3.57625,0 -6.5625,2.50625 -7.3125,5.85625 -1.61125,-0.60375 -3.355,-0.9475 -5.1875,-0.9475 -1.83125,0 -3.57625,0.34375 -5.18625,0.9475 -0.75125,-3.35 -3.7375,-5.85625 -7.31375,-5.85625 -4.14125,0 -7.5,3.35875 -7.5,7.5 0,2.36375 1.0975,4.47 2.80625,5.845 -3.30625,3.35 -5.30625,7.51125 -5.30625,11.655 0,9.32 10.07375,1.25 22.5,1.25 12.4275,0 22.5,8.07 22.5,-1.25 0,-4.14375 -1.99875,-8.305 -5.30625,-11.655"
         style="fill:#77b255;fill-opacity:1;fill-rule:nonzero;stroke:none;stroke-width:1.25"
         id="path1577" /></clipPath><clipPath
       id="clipPath1579"
       clipPathUnits="userSpaceOnUse"><path
         d="m 39.693625,15.84475 c 1.71,-1.375 2.80625,-3.48125 2.80625,-5.845 0,-4.14125 -3.3575,-7.5 -7.5,-7.5 -3.57625,0 -6.5625,2.50625 -7.3125,5.85625 -1.61125,-0.60375 -3.355,-0.9475 -5.1875,-0.9475 -1.83125,0 -3.57625,0.34375 -5.18625,0.9475 -0.75125,-3.35 -3.7375,-5.85625 -7.31375,-5.85625 -4.14125,0 -7.5,3.35875 -7.5,7.5 0,2.36375 1.0975,4.47 2.80625,5.845 -3.30625,3.35 -5.30625,7.51125 -5.30625,11.655 0,9.32 10.07375,1.25 22.5,1.25 12.4275,0 22.5,8.07 22.5,-1.25 0,-4.14375 -1.99875,-8.305 -5.30625,-11.655"
         style="fill:#77b255;fill-opacity:1;fill-rule:nonzero;stroke:none;stroke-width:1.25"
         id="path1581" /></clipPath><clipPath
       id="clipPath1583"
       clipPathUnits="userSpaceOnUse"><path
         d="m 39.693625,15.84475 c 1.71,-1.375 2.80625,-3.48125 2.80625,-5.845 0,-4.14125 -3.3575,-7.5 -7.5,-7.5 -3.57625,0 -6.5625,2.50625 -7.3125,5.85625 -1.61125,-0.60375 -3.355,-0.9475 -5.1875,-0.9475 -1.83125,0 -3.57625,0.34375 -5.18625,0.9475 -0.75125,-3.35 -3.7375,-5.85625 -7.31375,-5.85625 -4.14125,0 -7.5,3.35875 -7.5,7.5 0,2.36375 1.0975,4.47 2.80625,5.845 -3.30625,3.35 -5.30625,7.51125 -5.30625,11.655 0,9.32 10.07375,1.25 22.5,1.25 12.4275,0 22.5,8.07 22.5,-1.25 0,-4.14375 -1.99875,-8.305 -5.30625,-11.655"
         style="fill:#77b255;fill-opacity:1;fill-rule:nonzero;stroke:none;stroke-width:1.25"
         id="path1585" /></clipPath><clipPath
       id="clipPath1587"
       clipPathUnits="userSpaceOnUse"><path
         d="m 39.693625,15.84475 c 1.71,-1.375 2.80625,-3.48125 2.80625,-5.845 0,-4.14125 -3.3575,-7.5 -7.5,-7.5 -3.57625,0 -6.5625,2.50625 -7.3125,5.85625 -1.61125,-0.60375 -3.355,-0.9475 -5.1875,-0.9475 -1.83125,0 -3.57625,0.34375 -5.18625,0.9475 -0.75125,-3.35 -3.7375,-5.85625 -7.31375,-5.85625 -4.14125,0 -7.5,3.35875 -7.5,7.5 0,2.36375 1.0975,4.47 2.80625,5.845 -3.30625,3.35 -5.30625,7.51125 -5.30625,11.655 0,9.32 10.07375,1.25 22.5,1.25 12.4275,0 22.5,8.07 22.5,-1.25 0,-4.14375 -1.99875,-8.305 -5.30625,-11.655"
         style="fill:#77b255;fill-opacity:1;fill-rule:nonzero;stroke:none;stroke-width:1.25"
         id="path1589" /></clipPath><clipPath
       id="clipPath1591"
       clipPathUnits="userSpaceOnUse"><path
         d="m 45,27.5 c 0,9.32 -10.07375,15 -22.5,15 C 10.07375,42.5 0,36.82 0,27.5 0,18.18 10.07375,8.75 22.5,8.75 34.92625,8.75 45,18.18 45,27.5"
         style="fill:#c6e5b3;fill-opacity:1;fill-rule:nonzero;stroke:none;stroke-width:1.25"
         id="path1593" /></clipPath><clipPath
       id="clipPath1595"
       clipPathUnits="userSpaceOnUse"><path
         d="m 45,27.5 c 0,9.32 -10.07375,15 -22.5,15 C 10.07375,42.5 0,36.82 0,27.5 0,18.18 10.07375,8.75 22.5,8.75 34.92625,8.75 45,18.18 45,27.5"
         style="fill:#c6e5b3;fill-opacity:1;fill-rule:nonzero;stroke:none;stroke-width:1.25"
         id="path1597" /></clipPath><clipPath
       id="clipPath16-3"
       clipPathUnits="userSpaceOnUse"><path
         id="path18-6"
         d="M 0,36 H 36 V 0 H 0 Z" /></clipPath><mask
       maskUnits="userSpaceOnUse"
       id="mask1139"><g
         id="g1143"
         transform="matrix(1.25,0,0,-1.25,45,27.500251)"
         style="stroke-width:1"><path
           d="m 0,0 c 0,-7.456 -8.059,-12 -18,-12 -9.941,0 -18,4.544 -18,12 0,7.456 8.059,15 18,15 C -8.059,15 0,7.456 0,0"
           style="fill:#ffffff;fill-opacity:1;fill-rule:nonzero;stroke:none;stroke-width:1"
           id="path1141" /></g></mask><mask
       maskUnits="userSpaceOnUse"
       id="mask2185"><path
         id="path2187"
         style="fill:#ffffff;fill-opacity:1;fill-rule:nonzero;stroke:none;stroke-width:1.25"
         d="m 39.693625,15.845 c 1.71,-1.375 2.80625,-3.48125 2.80625,-5.845 0,-4.14125 -3.3575,-7.5 -7.5,-7.5 -3.57625,0 -6.5625,2.50625 -7.3125,5.85625 -1.61125,-0.60375 -3.355,-0.9475 -5.1875,-0.9475 -1.83125,0 -3.57625,0.34375 -5.18625,0.9475 C 16.562375,5.00625 13.576125,2.5 9.999875,2.5 c -4.14125,0 -7.5,3.35875 -7.5,7.5 0,2.36375 1.0975,4.47 2.80625,5.845 -3.30625,3.35 -5.30625,7.51125 -5.30625,11.655 0,9.32 10.07375,1.25 22.5,1.25 12.4275,0 22.5,8.07 22.5,-1.25 0,-4.14375 -1.99875,-8.305 -5.30625,-11.655" /></mask><clipPath
       clipPathUnits="userSpaceOnUse"
       id="clipPath2455"><path
         d="m -15.845,39.693625 c 1.375,1.71 3.48125,2.80625 5.845,2.80625 4.14125,0 7.5,-3.3575 7.5,-7.5 0,-3.57625 -2.50625,-6.5625 -5.85625,-7.3125 0.60375,-1.61125 0.9475,-3.355 0.9475,-5.1875 0,-1.83125 -0.34375,-3.57625 -0.9475,-5.18625 3.35,-0.75125 5.85625,-3.7375 5.85625,-7.31375 0,-4.14125 -3.35875,-7.5 -7.5,-7.5 -2.36375,0 -4.47,1.0975 -5.845,2.80625 -3.35,-3.30625 -7.51125,-5.30625 -11.655,-5.30625 -9.32,0 -1.25,10.07375 -1.25,22.5 0,12.4275 -8.07,22.5 1.25,22.5 4.14375,0 8.305,-1.99875 11.655,-5.30625"
         style="fill:#ffffff;fill-opacity:1;fill-rule:nonzero;stroke:none;stroke-width:1.25"
         id="path2457" /></clipPath></defs><rect
     clip-path="url(#clipPath1595)"
     y="24.787163"
     x="-0.15694754"
     height="21.097658"
     width="22.584568"
     id="rect1473"
     style="fill:#44bcf3;fill-opacity:1;stroke-width:1.19943;stroke-linecap:square;stroke-linejoin:round;stroke-miterlimit:10;stroke-opacity:0.854902" /><rect
     clip-path="url(#clipPath1591)"
     style="fill:#ffcb44;fill-opacity:1;stroke-width:1.19943;stroke-linecap:square;stroke-linejoin:round;stroke-miterlimit:10;stroke-opacity:0.854902"
     id="rect1475"
     width="22.584568"
     height="21.097658"
     x="22.42762"
     y="24.787163" /><rect
     clip-path="url(#clipPath1587)"
     y="0.032442968"
     x="-0.030308021"
     height="21.955835"
     width="22.457928"
     id="rect1246"
     style="fill:#db6443;fill-opacity:1;stroke-width:1.063;stroke-linecap:square;stroke-linejoin:round;stroke-miterlimit:10;stroke-opacity:0.854902" /><rect
     clip-path="url(#clipPath1583)"
     style="fill:#87b22a;fill-opacity:1;stroke-width:1.063;stroke-linecap:square;stroke-linejoin:round;stroke-miterlimit:10;stroke-opacity:0.854902"
     id="rect1248"
     width="22.457928"
     height="21.955835"
     x="22.42762"
     y="0.032442968" /><rect
     clip-path="url(#clipPath1579)"
     y="22.774069"
     x="22.42762"
     height="21.955835"
     width="22.699562"
     id="rect1250"
     style="fill:#e5b12a;fill-opacity:1;stroke-width:1.0687;stroke-linecap:square;stroke-linejoin:round;stroke-miterlimit:10;stroke-opacity:0.854902" /><rect
     clip-path="url(#clipPath1575)"
     style="fill:#2aa2d9;fill-opacity:1;stroke-width:1.063;stroke-linecap:square;stroke-linejoin:round;stroke-miterlimit:10;stroke-opacity:0.854902"
     id="rect1252"
     width="22.457928"
     height="21.955835"
     x="-0.03030777"
     y="22.774069" /><rect
     transform="matrix(1,0,0,0.40874922,0,25.152447)"
     clip-path="none"
     y="0"
     x="21.61451"
     height="44.656105"
     width="1.7709811"
     id="rect1198"
     style="fill:#c2c2c2;fill-opacity:1;stroke-width:0.636056;stroke-linecap:square;stroke-linejoin:round;stroke-miterlimit:10;stroke-opacity:0.854902"
     mask="url(#mask1139)" /><path
     d="m 13.75,9.375 c 0,2.41625 -1.95875,4.375 -4.375,4.375 C 6.95875,13.75 5,11.79125 5,9.375 5,6.95875 6.95875,5 9.375,5 11.79125,5 13.75,6.95875 13.75,9.375"
     style="fill:#ffffff;fill-opacity:1;fill-rule:nonzero;stroke:none;stroke-width:1.25"
     id="path30" /><path
     d="m 11.25,9.375 c 0,1.03625 -0.83875,1.875 -1.875,1.875 C 8.33875,11.25 7.5,10.41125 7.5,9.375 7.5,8.33875 8.33875,7.5 9.375,7.5 c 1.03625,0 1.875,0.83875 1.875,1.875"
     style="fill:#292f33;fill-opacity:1;fill-rule:nonzero;stroke:none;stroke-width:1.25"
     id="path34" /><path
     d="m 40,9.375 c 0,2.41625 -1.9575,4.375 -4.375,4.375 -2.4175,0 -4.375,-1.95875 -4.375,-4.375 C 31.25,6.95875 33.2075,5 35.625,5 38.0425,5 40,6.95875 40,9.375"
     style="fill:#ffffff;fill-opacity:1;fill-rule:nonzero;stroke:none;stroke-width:1.25"
     id="path38" /><path
     d="m 37.5,9.375 c 0,1.03625 -0.84,1.875 -1.875,1.875 -1.035,0 -1.875,-0.83875 -1.875,-1.875 0,-1.03625 0.84,-1.875 1.875,-1.875 1.035,0 1.875,0.83875 1.875,1.875"
     style="fill:#292f33;fill-opacity:1;fill-rule:nonzero;stroke:none;stroke-width:1.25"
     id="path42" /><path
     d="m 18.75,25 c 0,0.69125 -0.56,1.25 -1.25,1.25 -0.69,0 -1.25,-0.55875 -1.25,-1.25 0,-0.69125 0.56,-1.25 1.25,-1.25 0.69,0 1.25,0.55875 1.25,1.25"
     style="fill:#0078af;fill-opacity:1;fill-rule:nonzero;stroke:none;stroke-width:1.25"
     id="path46" /><path
     d="m 28.75,25 c 0,0.69125 -0.55875,1.25 -1.25,1.25 -0.69125,0 -1.25,-0.55875 -1.25,-1.25 0,-0.69125 0.55875,-1.25 1.25,-1.25 0.69125,0 1.25,0.55875 1.25,1.25"
     style="fill:#bb8700;fill-opacity:1;fill-rule:nonzero;stroke:none;stroke-width:1.25"
     id="path50" /><rect
     clip-path="url(#clipPath2455)"
     transform="rotate(-90)"
     style="fill:#9e9e9e;fill-opacity:1;stroke-width:0.639648;stroke-linecap:square;stroke-linejoin:round;stroke-miterlimit:10;stroke-opacity:0.854902"
     id="rect1244"
     width="1.7809824"
     height="44.908291"
     x="-22.890491"
     y="0" /><rect
     clip-path="none"
     style="fill:#9e9e9e;fill-opacity:1;stroke-width:0.636056;stroke-linecap:square;stroke-linejoin:round;stroke-miterlimit:10;stroke-opacity:0.854902"
     id="rect1477"
     width="1.7709811"
     height="44.656105"
     x="21.61451"
     y="0"
     mask="url(#mask2185)" /></svg>
