<?xml version="1.0" encoding="utf-8"?>
<!-- Generator: Adobe Illustrator 25.0.0, SVG Export Plug-In . SVG Version: 6.00 Build 0)  -->
<svg version="1.1" id="Ebene_1" xmlns="http://www.w3.org/2000/svg" xmlns:xlink="http://www.w3.org/1999/xlink" x="0px" y="0px"
	 viewBox="0 0 183.2 183.2" style="enable-background:new 0 0 183.2 183.2;" xml:space="preserve">
<style type="text/css">
	.st0{fill:#292F33;}
	.st1{fill:url(#SVGID_1_);}
	.st2{fill:url(#SVGID_2_);}
	.st3{fill:url(#SVGID_3_);}
	.st4{fill:#FFFFFF;}
	.st5{fill:url(#SVGID_4_);}
</style>
<g>
	<path class="st0" d="M46.3,0h90.6c25.6,0,46.3,20.7,46.3,46.3v90.6c0,25.6-20.7,46.3-46.3,46.3H46.3C20.7,183.2,0,162.5,0,136.9
		V46.3C0,20.7,20.7,0,46.3,0z"/>
	
		<linearGradient id="SVGID_1_" gradientUnits="userSpaceOnUse" x1="91.615" y1="182.9998" x2="91.615" y2="3.0798" gradientTransform="matrix(1 0 0 -1 0 183.8898)">
		<stop  offset="0" style="stop-color:#77B255"/>
		<stop  offset="0.41" style="stop-color:#6FA84D"/>
		<stop  offset="1" style="stop-color:#5C913B"/>
	</linearGradient>
	<path class="st1" d="M49.6,6.6h84c23.7,0,43,19.2,43,43v84c0,23.7-19.2,43-43,43h-84c-23.7,0-43-19.2-43-43v-84
		C6.6,25.9,25.9,6.6,49.6,6.6z"/>
</g>
<g>
	<path class="st0" d="M124.3,110.2l21.7,3.4c0,0-4,47-52.4,47c-44.5,0-58.4-30.8-58.4-65.6S48.9,26.8,94,26.8s50.4,40.8,50.4,40.8
		l-21.7,3.3c0,0-4-25.3-28.8-25.3s-35.9,26.7-35.9,48s6.5,48.2,35.5,48.2S124.3,110.2,124.3,110.2z"/>
	
		<linearGradient id="SVGID_2_" gradientUnits="userSpaceOnUse" x1="88.63" y1="159.0098" x2="88.63" y2="25.1898" gradientTransform="matrix(1 0 0 -1 0 183.8898)">
		<stop  offset="0" style="stop-color:#C6E5B3"/>
		<stop  offset="1" style="stop-color:#C6E5B3"/>
	</linearGradient>
	<path class="st2" d="M122.3,108.4l21.7,3.4c0,0-4,47-52.4,47c-44.5,0-58.4-30.8-58.4-65.6S46.9,24.9,92,24.9s50.4,40.8,50.4,40.8
		L120.8,69c0,0-4-25.3-28.8-25.3s-35.9,26.6-35.9,48s6.5,48.2,35.5,48.2S122.3,108.4,122.3,108.4z"/>
</g>
<g>
	
		<linearGradient id="SVGID_3_" gradientUnits="userSpaceOnUse" x1="47.85" y1="160.5198" x2="72.67" y2="160.5198" gradientTransform="matrix(1 0 0 -1 0 183.8898)">
		<stop  offset="0" style="stop-color:#C6E5B3"/>
		<stop  offset="1" style="stop-color:#C6E5B3"/>
	</linearGradient>
	<ellipse class="st3" cx="60.3" cy="23.4" rx="12.4" ry="12.4"/>
	<circle class="st4" cx="59.2" cy="22.4" r="7.2"/>
	<circle class="st0" cx="59.2" cy="22.4" r="3.1"/>
</g>
<g>
	
		<linearGradient id="SVGID_4_" gradientUnits="userSpaceOnUse" x1="104.54" y1="160.5198" x2="129.36" y2="160.5198" gradientTransform="matrix(1 0 0 -1 0 183.8898)">
		<stop  offset="0" style="stop-color:#C6E5B3"/>
		<stop  offset="1" style="stop-color:#C6E5B3"/>
	</linearGradient>
	<ellipse class="st5" cx="116.9" cy="23.4" rx="12.4" ry="12.4"/>
	<circle class="st4" cx="118" cy="22.4" r="7.2"/>
	<circle class="st0" cx="118" cy="22.4" r="3.1"/>
</g>
</svg>
