<?xml version="1.0" encoding="utf-8"?>
<!-- Generator: Adobe Illustrator 25.0.0, SVG Export Plug-In . SVG Version: 6.00 Build 0)  -->
<svg version="1.1" id="Ebene_1" xmlns="http://www.w3.org/2000/svg" xmlns:xlink="http://www.w3.org/1999/xlink" x="0px" y="0px"
	 viewBox="0 0 727.9 727.9" style="enable-background:new 0 0 727.9 727.9;" xml:space="preserve">
<style type="text/css">
	.st0{fill:#5C913B;}
	.st1{fill:url(#SVGID_1_);}
	.st2{fill:#FFFFFF;}
	.st3{fill:#292F33;}
</style>
<circle class="st0" cx="49.2" cy="271.6" r="18.3"/>
<path class="st0" d="M727.4,546.7c-2.4-8.1-17.5-57-43-104c-33.5-61.7-62.3-106-110.3-150.9c-15.4-14.4-30.1-27.3-45.3-38.9l0,0
	l-0.3-0.2l-0.8-0.6c-5.7-4.4-29.6-24.6-21.1-46.8c2.9-7.5,9.7-13.7,17.9-18.7l44.1-0.4v-16.4l0,0c0,0-25.8-8.8-71-5.9
	c-42.4,2.7-80.5,27.5-87.6,31c-22.8-6.5-48.9-12.3-79.4-17.5C225.2,159.6,136,188.1,91.2,219.2c-58.7,40.7-57.1,78.7-61.9,97.7
	c-3,11.8-29.6,33.5-29.3,48.8v16l5.5,5.7l20.8-7.1l2.5-8.6c8.5-3.1,17.9-7.3,26.4-10.8c21.2-8.7,22.8-13.5,80.7-22.1
	c26.6-4,54.7-5.1,75.6-5.3c8.1,17.1,28.3,52.4,63.3,69.3c22.8,11,48.2,16.6,68.5,19.5l-2.7,13.4l40.4,6v-16.4l0,0l0,0
	c0,0-33.9-14.1-54.8-35c-14.2-14.2-17.6-35.8-18.3-48.1h0.1c34.2,6.5,64,11.2,135.5,38.5c13.2,5.1,25.5,10.6,36.8,16.2l-2.1,1.2
	l32.2,26l38.4,31.8v-16.4l-0.1-0.1c-0.6-0.7-44.4-55-117.9-91.2c-60.8-30-110.7-44.8-179.9-48.2c-75.6-3.7-131.3,6-131.3,6
	s1.6-33.6,58.6-60.4c49.6-23.3,127.7-27.2,217.4-4.3c126.6,32.3,169.8,87.3,224.2,144.1c34.6,36.1,66.3,86.8,86.3,121.9l-3.4-1.5
	l10.4,26.8l14.8,31.7V548L727.4,546.7L727.4,546.7z"/>
<linearGradient id="SVGID_1_" gradientUnits="userSpaceOnUse" x1="363.8933" y1="2146.0498" x2="363.8933" y2="2530.5679" gradientTransform="matrix(1 0 0 1 0 -2019.5498)">
	<stop  offset="0" style="stop-color:#C6E5B3"/>
	<stop  offset="2.000000e-02" style="stop-color:#BFE1AB"/>
	<stop  offset="9.000000e-02" style="stop-color:#A9D290"/>
	<stop  offset="0.17" style="stop-color:#96C67A"/>
	<stop  offset="0.26" style="stop-color:#88BD69"/>
	<stop  offset="0.38" style="stop-color:#7EB75E"/>
	<stop  offset="0.54" style="stop-color:#79B357"/>
	<stop  offset="1" style="stop-color:#77B255"/>
</linearGradient>
<path class="st1" d="M684.5,459.1c-33.5-61.8-62.3-106-110.3-150.9c-15.4-14.4-30.1-27.3-45.3-38.9l0,0l-0.3-0.2l-0.8-0.6
	c-5.7-4.4-29.6-24.6-21.1-46.8c9.3-24.5,62-35.4,62-35.4s-25.8-8.8-71-5.9c-42.4,2.7-80.5,27.5-87.6,31
	c-22.8-6.5-48.9-12.3-79.4-17.5C225.2,176,136,204.5,91.2,235.5c-58.7,40.7-57.1,78.7-61.9,97.7C25.9,346.8-9.5,374,2.5,388.8
	c7.5,9.2,32.5-3.3,52.6-11.6c21.2-8.7,22.8-13.5,80.7-22.1c26.6-4,54.7-5.1,75.6-5.3c8.1,17.2,28.3,52.4,63.3,69.3
	C322,441.9,381,441.6,381,441.6s-33.9-14.1-54.8-35c-14.2-14.2-17.6-35.8-18.3-48.1h0.1c34.2,6.5,64,11.2,135.5,38.5
	c62.5,23.9,105.2,58.7,105.2,58.7s-43.9-54.7-117.9-91.2c-60.8-30-110.7-44.8-179.9-48.2c-75.6-3.7-131.3,6-131.3,6
	s1.6-33.6,58.6-60.4c49.6-23.3,127.7-27.2,217.4-4.3c126.6,32.4,169.8,87.4,224.2,144.2c58,60.5,108.1,162.3,108.1,162.3
	S712.3,510.4,684.5,459.1L684.5,459.1z"/>
<circle class="st2" cx="51" cy="279.7" r="18.3"/>
<circle class="st3" cx="50.5" cy="279.7" r="7.8"/>
</svg>
