<?xml version="1.0" encoding="utf-8"?>
<!-- Generator: Adobe Illustrator 25.0.0, SVG Export Plug-In . SVG Version: 6.00 Build 0)  -->
<svg version="1.1" id="Ebene_1" xmlns="http://www.w3.org/2000/svg" xmlns:xlink="http://www.w3.org/1999/xlink" x="0px" y="0px"
	 viewBox="0 0 821 821" style="enable-background:new 0 0 821 821;" xml:space="preserve">
<style type="text/css">
	.st0{fill:#5C903A;}
	.st1{fill:#C5DEB1;}
	.st2{fill:#77B154;}
</style>
<rect y="0" class="st0" width="821" height="821"/>
<path class="st1" d="M637.4,432.3C626,548.5,528,639.2,408.8,639.2c-43.4,0.1-85.9-12.2-122.6-35.4l-93.3,21.3l21.7-92.9
	c-18.5-29.2-30.1-62.3-34-96.7c1.5,3.1,3.4,5.9,5.8,8.4c30.3,30.4,118.2-25.9,221.9-25.9C522.2,418,617,485.9,637.4,432.3z"/>
<path class="st2" d="M638.6,409.5c0,7.7-0.4,15.3-1.1,22.8C617,485.9,522.2,418,408.3,418c-103.7,0-191.6,56.3-221.9,25.9
	c-2.4-2.4-4.4-5.3-5.8-8.4c-14.7-126,75.6-240.1,201.7-254.8S622.3,256.3,637,382.4C638,391.4,638.5,400.4,638.6,409.5L638.6,409.5z
	"/>
<ellipse class="st0" cx="469.8" cy="389" rx="13.8" ry="14.3"/>
<ellipse class="st0" cx="349.8" cy="389" rx="13.8" ry="14.3"/>
<g>
	<path class="st1" d="M222.8,669l-6.6-25.6l-53.4,11.8l11.8-54.1l-25.5-5.7l-13,55.8c-3.2,13.7,5.3,27.4,19,30.6
		c3.8,0.9,7.7,0.9,11.4,0L222.8,669z"/>
	<path class="st1" d="M154.3,571.9l26.4,5.9l8.5-38c-12.4-20.2-21.4-43.6-28.3-69.4l-25.7,6.3c4.6,22.8,13.9,44.7,25.7,66.3
		L154.3,571.9z"/>
	<path class="st1" d="M129.8,451.5l26.4-3.5c-3.5-25.4-3.5-51.2,0-76.7l-26.4-3.8C125.7,394.5,126.3,422.6,129.8,451.5z"/>
	<path class="st1" d="M160.7,348.1c7-25.5,16.4-49.2,29.5-70l-22.8-14.2c-14.3,22.7-24.9,49.2-32.7,78.4L160.7,348.1z"/>
	<path class="st1" d="M203.2,258.3c15.3-20.4,33.5-38.6,54-53.9l-15.9-21.6c-22.8,16.7-42.9,36.8-59.6,59.6L203.2,258.3z"/>
	<path class="st1" d="M276.8,191.2c19.2-11.9,43-21.6,70.8-29.1l-6.6-26c-30.7,7.8-56.6,18.8-78.1,32.7L276.8,191.2z"/>
	<path class="st1" d="M369.7,157.3c24.4-3.5,50.2-3.3,77.1,0l3.9-26.8c-28.2-3.4-56.7-3.4-84.9,0L369.7,157.3z"/>
	<path class="st1" d="M469.7,161.6c24.9,6.1,48.6,16.1,70.3,29.7l14.5-22.5c-22.7-14.9-49.2-25.7-78.7-33.1L469.7,161.6z"/>
	<path class="st1" d="M559.8,204.4c20.5,15.5,38.8,33.6,54.5,53.9l21.1-15.6c-15.2-22.4-35.8-41.9-59.9-59.7L559.8,204.4z"/>
	<path class="st1" d="M626.6,277.5c13.4,21.8,23.2,45.6,29.2,70.5l26.8-5.4c-6.2-26.5-17.5-52.8-33.4-78.6L626.6,277.5z"/>
	<path class="st1" d="M686.9,367.1l-26.3,4c4.6,24.3,4.1,50,0,76.8l26.3,3.8C691.2,423.6,691.2,395.1,686.9,367.1z"/>
	<path class="st1" d="M656.2,470.5l25.9,6.8c-7.9,30.1-18.3,56.7-32.3,78.2l-22.9-14.1C638.6,523.4,647.8,498.1,656.2,470.5z"/>
	<path class="st1" d="M559.8,615c20.3-15.4,38.4-33.6,53.7-54l21.4,15.6c-16.7,22.9-36.8,43.2-59.5,60.2L559.8,615z"/>
	<path class="st1" d="M469.7,657.1l6.4,25.5c29.1-6.6,55.1-17.4,78-32.3l-13.7-22.7C518,641.9,494.5,652,469.7,657.1z"/>
	<path class="st1" d="M369.9,662.2l-3.6,26.1c28.2,4.2,56.9,4.2,85.1,0l-5-26.1C421,665.4,395.3,665.4,369.9,662.2z"/>
	<path class="st1" d="M246.5,663.9l27.6-6.9c20.8,11.9,43.3,20.5,66.7,25.5l6.5-25.5c-22.8-4.7-46-15-69.5-28.2l-37.9,8.6
		L246.5,663.9z"/>
</g>
</svg>
