<?xml version="1.0" encoding="UTF-8" standalone="no"?>
<svg
   xmlns:dc="http://purl.org/dc/elements/1.1/"
   xmlns:cc="http://creativecommons.org/ns#"
   xmlns:rdf="http://www.w3.org/1999/02/22-rdf-syntax-ns#"
   xmlns:svg="http://www.w3.org/2000/svg"
   xmlns="http://www.w3.org/2000/svg"
   xmlns:sodipodi="http://sodipodi.sourceforge.net/DTD/sodipodi-0.dtd"
   xmlns:inkscape="http://www.inkscape.org/namespaces/inkscape"
   inkscape:version="1.0 (4035a4fb49, 2020-05-01)"
   sodipodi:docname="frog.svg"
   id="svg2"
   version="1.1"
   xml:space="preserve"
   style="enable-background:new 0 0 45 45;"
   viewBox="0 0 45 45"><sodipodi:namedview
     inkscape:current-layer="g920"
     inkscape:window-maximized="1"
     inkscape:window-y="-9"
     inkscape:window-x="-9"
     inkscape:cy="17.08594"
     inkscape:cx="38.059846"
     inkscape:zoom="11.313709"
     showgrid="false"
     id="namedview26"
     inkscape:window-height="1001"
     inkscape:window-width="1920"
     inkscape:pageshadow="2"
     inkscape:pageopacity="0"
     guidetolerance="10"
     gridtolerance="10"
     objecttolerance="10"
     borderopacity="1"
     bordercolor="#666666"
     pagecolor="#ffffff" /><metadata
     id="metadata8"><rdf:RDF><cc:Work
         rdf:about=""><dc:format>image/svg+xml</dc:format><dc:type
           rdf:resource="http://purl.org/dc/dcmitype/StillImage" /></cc:Work></rdf:RDF></metadata><defs
     id="defs6"><clipPath
       clipPathUnits="userSpaceOnUse"
       id="clipPath16"><path
         d="M 0,36 36,36 36,0 0,0 0,36 Z"
         id="path18" /></clipPath></defs><g
     transform="translate(2.4472841,0.00390608)"
     id="g920"><path
       sodipodi:nodetypes="ccccssscccssccccsssssscssssccc"
       transform="translate(-2.4472841,-0.00390608)"
       d="M 22.398438,0.00390625 C 20.239199,5.297784 18.937233,8.7599748 16.533203,13.896484 c 1.473972,1.562409 3.282521,3.382542 6.220703,5.4375 C 19.595072,18.034141 17.440332,16.729211 15.830078,15.375 14.291728,18.585001 12.318264,22.475946 9.5058594,27.761719 8.8027582,29.083162 8.04658,30.491043 7.2324219,31.998047 6.418264,33.50505 3.2793468,38.253948 2.647,40.577 c -0.1142147,0.419591 -0.2681314,1.034741 -0.2641874,1.380031 3.728e-4,1.078282 0.5717626,2.075716 1.5019531,2.621094 0.0026,0.0013 0.00521,0.0026 0.00781,0.0039 0.027707,0.01632 0.071826,0.05835 0.095703,0.07031 0.049281,0.02469 0.1047669,0.04091 0.15625,0.0625 0.004,0.0017 0.00771,0.0042 0.011719,0.0059 0.073648,0.03292 0.1485769,0.06289 0.2246094,0.08984 0.3334964,0.122207 0.6858339,0.185006 1.0410156,0.185547 0.1655558,-1.9e-4 0.3308192,-0.01391 0.4941406,-0.04102 0.6823502,-0.03402 1.4473271,-0.161076 2.3007813,-0.355469 3.5960654,-0.819079 8.6270064,-2.710937 14.3750004,-2.710937 1.439193,0 2.831282,0.118982 4.164062,0.310547 1.33278,0.191566 2.60713,0.456243 3.8125,0.746093 1.205371,0.289851 2.341473,0.605535 3.398438,0.900391 1.056965,0.294855 2.034311,0.568811 2.921875,0.775391 0.887564,0.206581 1.685645,0.346068 2.382812,0.371094 0,0 0.100257,0.0039 0.150391,0.0039 1.678428,0 3.038764,-1.360635 3.039063,-3.039063 1.49e-4,-0.843724 -0.338855,-1.613637 -0.888672,-2.167969 -0.137454,-0.138582 -1.164674,-0.899865 -1.558594,-1.171874 -1.575682,-1.08804 -3.701879,-2.378267 -5.837891,-3.47461 2.936344,0.762987 5.038967,1.64301 6.677735,2.626953 C 27.893068,13.639513 26.84285,10.433675 22.398438,0.00390625 Z"
       style="fill:#77b255;fill-opacity:1;fill-rule:evenodd;stroke:none;stroke-width:0.291913"
       id="path2518" /><path
       sodipodi:nodetypes="csscscsscc"
       id="path26-4"
       style="fill:#77b255;fill-opacity:1;fill-rule:nonzero;stroke:none;stroke-width:1.01307"
       d="m 34.079241,30.323264 c 1.385873,-1.114372 2.274334,-2.821385 2.274334,-4.737089 0,-3.35628 -2.721096,-6.078383 -6.078388,-6.078383 -2.898376,0 -5.318589,2.031195 -5.926429,4.746205 -1.305838,-0.489309 -2.719062,-0.767904 -4.204214,-0.767904 -1.484139,0 -2.898376,0.278595 -4.203203,0.767904 -0.608848,-2.71501 -3.029061,-4.746205 -5.92744,-4.746205 -3.3562781,0 -6.0783827,2.722103 -6.0783827,6.078383 0,1.915704 0.8894705,3.622717 2.2743297,4.737089 h 27.869393" /><path
       id="path30-9"
       style="fill:#ffffff;fill-opacity:1;fill-rule:nonzero;stroke:none;stroke-width:1.01307"
       d="m 13.053196,25.079849 c 0,1.958255 -1.587476,3.545723 -3.5457249,3.545723 -1.9582527,0 -3.5457242,-1.587468 -3.5457242,-3.545723 0,-1.958252 1.5874715,-3.545724 3.5457242,-3.545724 1.9582489,0 3.5457249,1.587472 3.5457249,3.545724" /><path
       id="path34-8"
       style="fill:#292f33;fill-opacity:1;fill-rule:nonzero;stroke:none;stroke-width:1.01307"
       d="m 11.027067,25.079849 c 0,0.839832 -0.67976,1.519594 -1.5195926,1.519594 -0.8398291,0 -1.5195953,-0.679762 -1.5195953,-1.519594 0,-0.839831 0.6797662,-1.519595 1.5195953,-1.519595 0.8398326,0 1.5195926,0.679764 1.5195926,1.519595" /><path
       id="path38-0"
       style="fill:#ffffff;fill-opacity:1;fill-rule:nonzero;stroke:none;stroke-width:1.01307"
       d="m 34.327548,25.079849 c 0,1.958255 -1.586463,3.545723 -3.545727,3.545723 -1.959267,0 -3.545726,-1.587468 -3.545726,-3.545723 0,-1.958252 1.586459,-3.545724 3.545726,-3.545724 1.959263,0 3.545727,1.587472 3.545727,3.545724" /><path
       id="path42-3"
       style="fill:#292f33;fill-opacity:1;fill-rule:nonzero;stroke:none;stroke-width:1.01307"
       d="m 32.301418,25.079849 c 0,0.839832 -0.68078,1.519594 -1.519597,1.519594 -0.838821,0 -1.519596,-0.679762 -1.519596,-1.519594 0,-0.839831 0.680775,-1.519595 1.519596,-1.519595 0.838817,0 1.519597,0.679764 1.519597,1.519595" /><path
       id="path46-9"
       style="fill:#5c913b;fill-opacity:1;fill-rule:nonzero;stroke:none;stroke-width:1.15808"
       d="m 16.670446,36.076315 c 0,0.640415 -0.518816,1.158071 -1.158071,1.158071 -0.639256,0 -1.158073,-0.517656 -1.158073,-1.158071 0,-0.640416 0.518817,-1.158072 1.158073,-1.158072 0.639255,0 1.158071,0.517656 1.158071,1.158072" /><path
       id="path50-3"
       style="fill:#5c913b;fill-opacity:1;fill-rule:nonzero;stroke:none;stroke-width:1.15808"
       d="m 25.935018,36.076315 c 0,0.640415 -0.517657,1.158071 -1.158071,1.158071 -0.640413,0 -1.158072,-0.517656 -1.158072,-1.158071 0,-0.640416 0.517659,-1.158072 1.158072,-1.158072 0.640414,0 1.158071,0.517656 1.158071,1.158072" /></g></svg>
