<?xml version="1.0" encoding="utf-8"?>
<!-- Generator: Adobe Illustrator 25.0.0, SVG Export Plug-In . SVG Version: 6.00 Build 0)  -->
<svg version="1.1" id="Ebene_1" xmlns="http://www.w3.org/2000/svg" xmlns:xlink="http://www.w3.org/1999/xlink" x="0px" y="0px"
	 viewBox="0 0 660.5 660.5" style="enable-background:new 0 0 660.5 660.5;" xml:space="preserve">
<style type="text/css">
	.st0{fill-rule:evenodd;clip-rule:evenodd;fill:#C6E5B3;}
	.st1{fill-rule:evenodd;clip-rule:evenodd;fill:#77B255;}
	.st2{fill-rule:evenodd;clip-rule:evenodd;fill:#5C913B;}
	.st3{fill:#77B255;}
	.st4{fill:#FFFFFF;}
	.st5{fill:#292F33;}
</style>
<path class="st0" d="M541.8,450.6c-12,11-25,22.5-39,34c-93.5,77.3-224.5,160.2-322.4,174.2c-31.6,4.5-63.9-0.2-86.6-13
	c-35.5-20-47.2-46.7-51.4-54.7c-11-21.3-9.5-48.3-9.5-56.7c0.1-26.3,22.4-62.9,54.1-96.2c21.2-22.3,42.7-41.8,89.7-81.8
	c-32.5-17.8-83-39.3-108.3-67.5c-9.4-10.4-26.4-34-23.1-65.5C50,179.6,88.2,120.5,147.6,80.6c-0.3,0.8-0.5,1.7-0.8,2.5
	c-1.6,5.5-1.7,11.3-0.5,16.8c3.3,13.9,15.9,25.8,34.3,37.8c15,9.8,33.8,19.6,54.5,30.7c6.6,3.5,13.4,7.1,20.3,10.9
	c10.1,5.6,20.6,11.5,31.1,17.8c-21.7,46.9,54.7,61.2,66.9,52c0.8-0.6,1.5-1.2,2.3-1.8c1.4,1.2,2.7,2.4,4,3.6c3.3,3,6.4,6.1,9.6,9.2
	c5.7,5.6,11.1,11.3,16.3,17.2c14.4,16.3,27.7,33.4,40,51.2c21.9,31.4,39.4,61.6,55.8,84.3c7.8,10.8,15.4,19.9,23,26.6
	C516.4,449.9,528.4,454.5,541.8,450.6z"/>
<path class="st1" d="M618.6,364.1c-3.6,6.6-9.6,15.2-17.8,25.2c-14,17.1-34.2,38.4-59,61.2c-13.4,3.8-25.4-0.7-37.2-11.1
	c-7.6-6.7-15.2-15.8-23-26.6c-16.4-22.7-34-52.9-55.8-84.3c-12.3-17.9-25.6-35-40-51.2c-5.2-5.8-10.6-11.5-16.3-17.2
	c-3.1-3.1-6.3-6.1-9.6-9.1c-1.3-1.2-2.7-2.4-4-3.6l0,0c48.8-40.9-50.1-80.9-64.9-57.9c-1.5,2.6-2.9,5.2-4.1,7.9l-0.2-0.1
	c-10.3-6.1-21-12.2-31.1-17.8c-6.9-3.8-13.7-7.4-20.3-10.9c-20.7-11-39.6-20.9-54.5-30.7c-18.4-12-31-23.9-34.3-37.8
	c-1.3-5.6-1.1-11.3,0.5-16.8c0.2-0.8,0.5-1.7,0.8-2.5C175.6,62,208.1,47.6,244.1,41c37.5-6.9,80.6-1.9,116,14
	C471.3,105,607.3,229.2,624,289.8c0.3,1,0.5,2,0.8,3.1C629.8,314.3,628.3,346,618.6,364.1z"/>
<path id="path4976" class="st2" d="M316.5,288c52.2,7.2,97.1-13.6,104.1-65.1c5.4-39.2-54.7-82.1-90.8-92
	c-30.1-8.3-95.6,2.4-100,59.4C225.3,249.6,286.1,283.8,316.5,288z M291,189.4c-34.3,53.1,49.8,69.4,62.6,59.7
	C409.1,207.4,306.1,166.1,291,189.4z"/>
<g>
	
		<ellipse transform="matrix(0.9012 -0.4335 0.4335 0.9012 20.3769 185.0378)" class="st3" cx="415.9" cy="47.8" rx="47.7" ry="47.8"/>
	<circle class="st4" cx="417.6" cy="42.4" r="27.9"/>
	<circle class="st5" cx="417.6" cy="42.4" r="11.9"/>
</g>
<g>
	
		<ellipse transform="matrix(0.9012 -0.4335 0.4335 0.9012 -10.461 257.9453)" class="st3" cx="560.4" cy="151.9" rx="47.7" ry="47.8"/>
	<circle class="st4" cx="562.1" cy="146.5" r="27.9"/>
	<circle class="st5" cx="562.1" cy="146.5" r="11.9"/>
</g>
</svg>
