<?xml version="1.0" encoding="utf-8"?>
<!-- Generator: Adobe Illustrator 25.0.0, SVG Export Plug-In . SVG Version: 6.00 Build 0)  -->
<svg version="1.1" id="Ebene_1" xmlns="http://www.w3.org/2000/svg" xmlns:xlink="http://www.w3.org/1999/xlink" x="0px" y="0px"
	 viewBox="0 0 401.3 401.3" style="enable-background:new 0 0 401.3 401.3;" xml:space="preserve">
<style type="text/css">
	.st0{fill-rule:evenodd;clip-rule:evenodd;fill:#C7DFB3;}
	.st1{fill-rule:evenodd;clip-rule:evenodd;fill:#78B355;}
	.st2{fill-rule:evenodd;clip-rule:evenodd;fill:#FFFFFF;}
	.st3{fill:#2A3034;}
</style>
<path id="path3336-6-2" class="st0" d="M157.7,135.2L60,304.5l-22.8-38.7l26.4-45.4l-52.3-0.1L0,201l11.4-19.8l74.5,0.2l26.8-46.2
	L157.7,135.2z"/>
<path id="path4260-0" class="st1" d="M122.4,204.9l97.8,169.3l-44.9,0.4l-26.1-45.5l-26.3,45.2h-22.3l-11.4-19.8l37.4-64.4L100,244
	L122.4,204.9z"/>
<path id="path3336-6-3" class="st0" d="M165.2,270.5h195.5l-22.1,39.1l-52.5-0.1l26,45.4l-11.1,19.3h-22.8l-37-64.6l-53.4-0.1
	L165.2,270.5z"/>
<path id="path4260-0-2" class="st1" d="M243.5,266.1l97.8-169.3l22.8,38.7l-26.4,45.4l52.3,0.1l11.1,19.3L389.9,220l-74.5-0.2
	L288.6,266L243.5,266.1z"/>
<polygon class="st0" points="301.5,157.2 279,196.3 181.3,27 226.2,26.6 252.3,72.1 265.1,50 296.7,73.4 274.9,111 "/>
<polygon class="st2" points="312.4,46.6 296.7,73.4 265.1,50 278.6,26.8 300.9,26.8 "/>
<polygon class="st1" points="235.9,130.3 40.3,130.3 62.4,91.2 114.9,91.4 104.6,73.4 138.1,53.3 159.9,91.2 213.2,91.4 "/>
<polygon class="st2" points="138.1,53.3 104.6,73.4 88.8,46 100,26.6 122.8,26.6 "/>
<circle class="st3" cx="111.5" cy="46.2" r="11.3"/>
<circle class="st3" cx="291.2" cy="45.9" r="11.3"/>
</svg>
