<svg xmlns="http://www.w3.org/2000/svg" xmlns:xlink="http://www.w3.org/1999/xlink" viewBox="0 0 401.27 401.27"><defs><style>.cls-1,.cls-2,.cls-3,.cls-4{fill-rule:evenodd;}.cls-1{fill:url(#Unbenannter_Verlauf_5);}.cls-2{fill:#c7dfb3;}.cls-3{fill:#fff;}.cls-4{fill:#78b355;}.cls-5{fill:#2a3034;}.cls-6{fill:none;}</style><linearGradient id="Unbenannter_Verlauf_5" x1="198.94" y1="50.67" x2="288.44" y2="-104.11" gradientTransform="matrix(0.8, 0, 0, -0.8, -87, 262.15)" gradientUnits="userSpaceOnUse"><stop offset="0" stop-color="#6a9ad2"/><stop offset="0.24" stop-color="#7db1dd"/><stop offset="1" stop-color="#7fbae5"/></linearGradient></defs><g id="Ebene_2" data-name="Ebene 2"><g id="Ebene_1-2" data-name="Ebene 1"><g id="layer3"><path id="path3336-6" class="cls-1" d="M122.45,204.93l97.76,169.34-44.93.42L149.19,329.2,122.9,374.45H100.58L89.15,354.69l37.44-64.39L100,244Z"/><g id="use3439-6"><path id="path3336-6-2" data-name="path3336-6" class="cls-2" d="M157.74,135.18,60,304.51l-22.83-38.7,26.36-45.35-52.34-.13L0,201l11.39-19.78,74.49.24,26.77-46.15Z"/></g><g id="use3445-0"><path id="path3336-6-3" data-name="path3336-6" class="cls-2" d="M165.24,270.54H360.77l-22.1,39.12-52.45-.15,26,45.39L301.1,374.24l-22.82,0-37-64.63-53.36-.1Z"/></g><g id="use3449-5"><polygon class="cls-3" points="312.35 46.58 296.74 73.42 265.12 50.02 278.59 26.82 300.91 26.83 312.35 46.58"/><polygon class="cls-2" points="301.48 157.24 279.04 196.34 181.28 27 226.21 26.58 252.31 72.08 265.12 50.02 296.74 73.42 274.9 110.98 301.48 157.24"/></g><path id="path4260-0" class="cls-4" d="M122.45,204.93l97.76,169.34-44.93.42L149.19,329.2,122.9,374.45H100.58L89.15,354.69l37.44-64.39L100,244Z"/><g id="use4354-5"><polygon class="cls-3" points="138.08 53.27 104.57 73.42 88.82 45.97 99.99 26.65 122.81 26.62 138.08 53.27"/><polygon class="cls-4" points="235.85 130.34 40.32 130.34 62.42 91.22 114.87 91.36 104.57 73.42 138.08 53.27 159.85 91.25 213.21 91.36 235.85 130.34"/></g><g id="use4362-2"><path id="path4260-0-2" data-name="path4260-0" class="cls-4" d="M243.54,266.07,341.31,96.74l22.83,38.69-26.35,45.35,52.33.14,11.15,19.34L389.88,220l-74.48-.23L288.62,266Z"/></g><circle class="cls-5" cx="111.5" cy="46.19" r="11.34"/><circle class="cls-5" cx="291.23" cy="45.93" r="11.34"/></g><rect class="cls-6" width="401.27" height="401.27"/></g></g></svg>