<?xml version="1.0" encoding="utf-8"?>
<!-- Generator: Adobe Illustrator 25.0.0, SVG Export Plug-In . SVG Version: 6.00 Build 0)  -->
<svg version="1.1"
	 id="svg5" inkscape:export-xdpi="1322.301" inkscape:export-ydpi="1322.301" inkscape:version="1.1.1 (3bf5ae0d25, 2021-09-20)" sodipodi:docname="nvidifrog.svg" xmlns:inkscape="http://www.inkscape.org/namespaces/inkscape" xmlns:sodipodi="http://sodipodi.sourceforge.net/DTD/sodipodi-0.dtd" xmlns:svg="http://www.w3.org/2000/svg"
	 xmlns="http://www.w3.org/2000/svg" xmlns:xlink="http://www.w3.org/1999/xlink" x="0px" y="0px" viewBox="0 0 55.8 55.8"
	 style="enable-background:new 0 0 55.8 55.8;" xml:space="preserve">
<style type="text/css">
	.st0{fill:#FFFFFF;filter:url(#Adobe_OpacityMaskFilter);}
	.st1{mask:url(#mask-powermask-path-effect4089_1_);fill:#73B618;}
	.st2{fill:#FFFFFF;filter:url(#Adobe_OpacityMaskFilter_1_);}
	.st3{fill-opacity:1;}
	.st4{stroke:#000000;stroke-width:0.7512;stroke-miterlimit:11.3386;}
	.st5{mask:url(#mask-powermask-path-effect2149_1_);fill:#73B618;}
	.st6{fill:#73B618;}
	.st7{fill:#FFFFFF;filter:url(#Adobe_OpacityMaskFilter_2_);}
	.st8{mask:url(#mask-powermask-path-effect2144_1_);fill:#73B618;}
</style>
<defs>
	
		<inkscape:path-effect  background="true" background_color="#ffffffff" effect="powermask" hide_mask="false" id="path-effect4089" invert="false" is_visible="true" lpeversion="1" uri="#mask-powermask-path-effect4089">
		</inkscape:path-effect>
	
		<inkscape:path-effect  background="true" background_color="#ffffffff" effect="powermask" hide_mask="false" id="path-effect3278" invert="false" is_visible="true" lpeversion="1" uri="#mask-powermask-path-effect3278">
		</inkscape:path-effect>
	
		<inkscape:path-effect  background="true" background_color="#ffffffff" effect="powermask" hide_mask="false" id="path-effect2149" invert="false" is_visible="true" lpeversion="1" uri="#mask-powermask-path-effect2149">
		</inkscape:path-effect>
	
		<inkscape:path-effect  background="true" background_color="#ffffffff" effect="powermask" hide_mask="false" id="path-effect2144" invert="false" is_visible="true" lpeversion="1" uri="#mask-powermask-path-effect2144">
		</inkscape:path-effect>
</defs>
<g id="layer1" transform="translate(-140.75833,-79.73259)" inkscape:groupmode="layer" inkscape:label="Layer 1">
	<g id="g1287">
		<defs>
			<filter id="Adobe_OpacityMaskFilter" filterUnits="userSpaceOnUse" x="161.8" y="89.5" width="34.8" height="36.2">
				<feColorMatrix  type="matrix" values="1 0 0 0 0  0 1 0 0 0  0 0 1 0 0  0 0 0 1 0"/>
			</filter>
		</defs>
		<mask maskUnits="userSpaceOnUse" x="161.8" y="89.5" width="34.8" height="36.2" id="mask-powermask-path-effect4089_1_">
			<path id="mask-powermask-path-effect4089_box_1_" class="st0" d="M557.9,312.7h40.4v41.9h-40.4V312.7z"/>
			<g id="g4087_1_">
				<path id="path4079_1_" sodipodi:nodetypes="ccccccc" d="M560.8,318.2c0,0,12.6-1.4,21,10.5c-13.4,14.6-21,11.3-21,11.3l0-2.3
					c0,0,8.6,1.7,15.8-9c-6.5-8.2-15.8-8.2-15.8-8.2V318.2z"/>
				<path id="path4081_1_" sodipodi:nodetypes="ccccc" d="M560.8,327.2v-3c0,0,7-0.3,10.5,4.5l-4.1,3.4
					C564.5,327.1,560.8,327.2,560.8,327.2L560.8,327.2z"/>
				<path id="path4083_1_" sodipodi:nodetypes="ccssccc" d="M560.8,343v2.2c0,0,9.7-0.3,17.6-2c2.9-0.7,5.7-1.5,7.5-2.6
					c1.6-1,2.6-2.2,2.6-3.6l-6.8-2.2C573.8,343.6,560.8,343,560.8,343L560.8,343z"/>
				<path id="path4085_1_" sodipodi:nodetypes="cccccccc" d="M585.9,340.6c0,0,3.7,0.9,5.3,2.9c0,0,1.2,1.1,0.5,3.3
					c-0.6,1.8-2.1,3-4.3,1.4c-2,0.4-2.5-0.8-2.5-0.8c-0.2-0.6,1.5-1.5,1.5-1.5c-1.7-1.6-8.1-2.6-8.1-2.6L585.9,340.6z"/>
			</g>
		</mask>
		<path id="rect23920" inkscape:path-effect="#path-effect4089" sodipodi:type="rect" class="st1" d="M161.8,89.5h34.8v36.2h-34.8
			V89.5z"/>
	</g>
	<g id="g1279">
		<defs>
			<filter id="Adobe_OpacityMaskFilter_1_" filterUnits="userSpaceOnUse" x="140.8" y="92.2" width="21" height="27">
				<feColorMatrix  type="matrix" values="1 0 0 0 0  0 1 0 0 0  0 0 1 0 0  0 0 0 1 0"/>
			</filter>
		</defs>
		<mask maskUnits="userSpaceOnUse" x="140.8" y="92.2" width="21" height="27" id="mask-powermask-path-effect2149_1_">
			<path id="mask-powermask-path-effect2149_box_1_" class="st2" d="M536.9,315.4h26.7v32.7h-26.7V315.4z"/>
			<g id="g2142_1_">
				<circle id="circle2138_1_" class="st3" cx="551.1" cy="320.9" r="2.4"/>
				<path id="path2140_1_" sodipodi:nodetypes="ccccc" class="st4" d="M550.2,325.1c0.3-1.8-0.6-2.1-1-3.5l3.7-1.6
					c0,0.1,0.6,1.5,2.5,2.3L550.2,325.1z"/>
			</g>
		</mask>
		
			<path id="path3845" inkscape:original-d="m 148.16666,90.222916 c 0,0 -1.01059,0.11903 -2.38985,-0.445394 -0.57162,-0.233924 -1.20658,-0.585241 -1.85915,-1.11108 -1.07319,-0.864763 -2.19405,-2.201522 -3.15933,-4.264359 0.83785,-0.826058 1.68215,-1.468077 2.48561,-1.967021 0.53018,-0.329238 1.04258,-0.596176 1.52362,-0.812581 0.66061,-0.297191 1.26207,-0.49908 1.7692,-0.636147 0.99739,-0.269576 1.6299,-0.288418 1.6299,-0.288418 v 0.79375 c 0,0 -0.89199,0.171677 -1.95932,0.585442 -0.50044,0.194002 -1.03942,0.441222 -1.54309,0.748927 -0.0713,0.04356 -0.14191,0.08834 -0.21159,0.13435 -0.67612,0.446421 -1.26584,1.00891 -1.57766,1.706282 1.85208,4.233333 5.29166,4.762499 5.29166,4.762499 z" inkscape:path-effect="#path-effect2149" sodipodi:nodetypes="ccccsssccsssccc" class="st5" d="
			M161.8,119.2c0,0-2.9,0.3-6.8-1.3c-1.6-0.7-3.4-1.7-5.3-3.1c-3-2.5-6.2-6.2-9-12.1c2.4-2.3,4.8-4.2,7-5.6c1.5-0.9,3-1.7,4.3-2.3
			c1.9-0.8,3.6-1.4,5-1.8c2.8-0.8,4.6-0.8,4.6-0.8v2.2c0,0-2.5,0.5-5.6,1.7c-1.4,0.5-2.9,1.3-4.4,2.1c-0.2,0.1-0.4,0.3-0.6,0.4
			c-1.9,1.3-3.6,2.9-4.5,4.8c5.2,12,15,13.5,15,13.5L161.8,119.2z"/>
		<path id="path4610" sodipodi:nodetypes="ccccccc" class="st6" d="M161.8,98.2c0,0-5.6,0-11.2,5.2c3.4,9,11.3,10.5,11.3,10.5l0-2.3
			c0,0-3.7-0.7-6.7-7.5c2.9-3.1,6.7-3,6.7-3V98.2z"/>
		<path id="path10735" sodipodi:nodetypes="ccccccc" class="st6" d="M155,118c0,0,2.1,1.7,1.9,4.9c-0.1,2.3-2.5,4.2-3.7,1.5
			c-3.2,1.7-4.3-1.4-3-3.1c0,0,0.6-0.8,2.9-0.7l-3.4-5.8L155,118z"/>
		<defs>
			<filter id="Adobe_OpacityMaskFilter_2_" filterUnits="userSpaceOnUse" x="146.8" y="89.5" width="10.4" height="8">
				<feColorMatrix  type="matrix" values="1 0 0 0 0  0 1 0 0 0  0 0 1 0 0  0 0 0 1 0"/>
			</filter>
		</defs>
		<mask maskUnits="userSpaceOnUse" x="146.8" y="89.5" width="10.4" height="8" id="mask-powermask-path-effect2144_1_">
			<path id="mask-powermask-path-effect2144_box_1_" class="st7" d="M542.9,312.7H559v13.6h-16.1V312.7z"/>
			<g id="g2134_1_">
				<circle id="circle2130_1_" class="st3" cx="551.1" cy="320.9" r="2.4"/>
				<path id="path2132_1_" sodipodi:nodetypes="ccccc" class="st4" d="M550.2,325.1c0.3-1.8-0.6-2.1-1-3.5l3.7-1.6
					c0,0.1,0.6,1.5,2.5,2.3L550.2,325.1z"/>
			</g>
		</mask>
		
			<path id="path20846" inkscape:path-effect="#path-effect2144" sodipodi:arc-type="arc" sodipodi:cx="144.76755" sodipodi:cy="81.622482" sodipodi:end="5.9420835" sodipodi:open="true" sodipodi:rx="1.8898921" sodipodi:ry="1.8898921" sodipodi:start="2.6345808" sodipodi:type="arc" class="st8" d="
			M147.4,97.5c-1-1.8-0.9-3.9,0.2-5.6c1.1-1.7,3.1-2.6,5.1-2.3c2,0.3,3.7,1.6,4.4,3.5"/>
		<circle id="path20531" class="st6" cx="152.1" cy="94.8" r="1.5"/>
	</g>
</g>
</svg>
