<svg xmlns="http://www.w3.org/2000/svg" viewBox="0 0 91.86 64.07"><defs><style>.cls-1{fill:#78b355;fill-rule:evenodd;}.cls-2{fill:#c7dfb3;}.cls-3{fill:#fff;}.cls-4{fill:#2a3034;}.cls-5{fill:#5d913b;}</style></defs><g id="Ebene_2" data-name="Ebene 2"><g id="Ebene_1-2" data-name="Ebene 1"><path class="cls-1" d="M81.83,19.47l6.31,3.63a7.42,7.42,0,0,1,3.72,6.41v5.05A7.42,7.42,0,0,1,88.14,41L49.65,63.08a7.48,7.48,0,0,1-7.44,0L3.72,41A7.42,7.42,0,0,1,0,34.56V29.51A7.42,7.42,0,0,1,3.72,23.1L10,19.47a11.83,11.83,0,0,1-2.1-4.55A12,12,0,0,1,13.66,2,12.07,12.07,0,0,1,27.8,3.5a11.85,11.85,0,0,1,2.92,4.09L42.21,1a7.48,7.48,0,0,1,7.44,0l11.48,6.6a12,12,0,0,1,22.8,7.33A12,12,0,0,1,81.83,19.47Z"/><path class="cls-2" d="M90.83,38.3A7.33,7.33,0,0,1,88.14,41L49.65,63.08l-.12.06a7.21,7.21,0,0,1-3.46.92h-.28a7.29,7.29,0,0,1-3.58-1l-.27-.16h0l0,0L3.72,41A7.44,7.44,0,0,1,1,38.26l0-.08a.6.6,0,0,1,.32-.12l40.53-5.5a39.13,39.13,0,0,1,8.24,0l40.5,5.61A.56.56,0,0,1,90.83,38.3Z"/><path class="cls-3" d="M19.68,20.39a8.05,8.05,0,0,0,7.94-9.62,8,8,0,0,0-2.21-4.12,8.09,8.09,0,0,0-13.82,5.69A8,8,0,0,0,14,18a8.12,8.12,0,0,0,5.72,2.36Z"/><path class="cls-4" d="M15.53,12.34a4.13,4.13,0,0,1,2.56-3.82,4.2,4.2,0,0,1,2.4-.23A4.13,4.13,0,0,1,22,15.78a4.18,4.18,0,0,1-2.31.69,4.15,4.15,0,0,1-4.15-4.13Z"/><path class="cls-3" d="M72.11,20.39a8.05,8.05,0,0,0,7.94-9.62,8,8,0,0,0-2.22-4.12,8.07,8.07,0,1,0-5.72,13.74Z"/><path class="cls-4" d="M68,12.34a4.13,4.13,0,0,1,2.56-3.82,4.2,4.2,0,0,1,2.4-.23,4.11,4.11,0,0,1,3,5.63,4.15,4.15,0,0,1-1.53,1.86,4.2,4.2,0,0,1-2.31.69,4.15,4.15,0,0,1-2.94-1.21A4.09,4.09,0,0,1,68,12.34Z"/><circle class="cls-5" cx="39.55" cy="28.11" r="1.57"/><circle class="cls-5" cx="52.08" cy="28.11" r="1.57"/></g></g></svg>