<?xml version="1.0" encoding="utf-8"?>
<!-- Generator: Adobe Illustrator 25.0.0, SVG Export Plug-In . SVG Version: 6.00 Build 0)  -->
<svg version="1.1" id="Ebene_1" xmlns="http://www.w3.org/2000/svg" xmlns:xlink="http://www.w3.org/1999/xlink" x="0px" y="0px"
	 viewBox="0 0 91.9 91.9" style="enable-background:new 0 0 91.9 91.9;" xml:space="preserve">
<style type="text/css">
	.st0{fill-rule:evenodd;clip-rule:evenodd;fill:#78B355;}
	.st1{fill:#C7DFB3;}
	.st2{fill:#FFFFFF;}
	.st3{fill:#2A3034;}
	.st4{fill:#5D913B;}
</style>
<g id="Ebene_2_1_">
	<g id="Ebene_1-2">
		<path class="st0" d="M81.8,33.4l6.3,3.6c2.3,1.3,3.7,3.8,3.7,6.4v5c0,2.7-1.4,5.1-3.7,6.4L49.6,77c-2.3,1.3-5.1,1.3-7.4,0
			L3.7,54.9C1.4,53.6,0,51.1,0,48.5v-5c0-2.6,1.4-5.1,3.7-6.4l6.3-3.6c-1-1.3-1.7-2.9-2.1-4.6c-1.1-5.1,1.2-10.3,5.8-12.9
			c4.5-2.6,10.3-2,14.1,1.5c1.3,1.1,2.3,2.5,2.9,4.1l11.5-6.6c2.3-1.3,5.1-1.3,7.4,0l11.5,6.6c2.4-6.2,9.4-9.2,15.6-6.8
			c5.6,2.2,8.7,8.2,7.2,14.1C83.6,30.5,82.8,32,81.8,33.4z"/>
		<path class="st1" d="M90.8,52.2c-0.6,1.1-1.6,2.1-2.7,2.7L49.6,77L49.5,77c-1.1,0.6-2.2,0.9-3.5,0.9h-0.3c-1.3,0-2.5-0.4-3.6-1
			l-0.3-0.2l0,0l0,0L3.7,54.9c-1.1-0.7-2.1-1.6-2.7-2.7v-0.1C1.1,52,1.2,52,1.3,52l40.5-5.5c2.7-0.3,5.5-0.3,8.2,0l40.5,5.6
			C90.7,52.1,90.8,52.1,90.8,52.2z"/>
		<path class="st2" d="M19.7,34.3c4.4,0,8.1-3.6,8.1-8c0-0.5,0-1.1-0.2-1.6c-0.3-1.6-1.1-3-2.2-4.1c-3.2-3.2-8.3-3.2-11.4,0
			c-1.5,1.5-2.4,3.6-2.4,5.7c0,2.1,0.9,4.2,2.4,5.7C15.5,33.4,17.6,34.3,19.7,34.3L19.7,34.3z"/>
		<path class="st3" d="M15.5,26.2c0-1.7,1-3.2,2.6-3.8c0.8-0.3,1.6-0.4,2.4-0.2c2.2,0.4,3.7,2.6,3.3,4.8c-0.2,1.1-0.8,2-1.8,2.7
			c-0.7,0.5-1.5,0.7-2.3,0.7C17.4,30.4,15.6,28.5,15.5,26.2L15.5,26.2z"/>
		<path class="st2" d="M72.1,34.3c4.4,0,8.1-3.6,8.1-8c0-0.5,0-1.1-0.2-1.6c-0.3-1.6-1.1-3-2.2-4.1c-3.1-3.2-8.2-3.2-11.4-0.1
			c-3.2,3.1-3.2,8.2-0.1,11.4C67.9,33.4,69.9,34.3,72.1,34.3z"/>
		<path class="st3" d="M68,26.2c0-1.7,1-3.2,2.6-3.8c0.8-0.3,1.6-0.4,2.4-0.2c2.2,0.4,3.7,2.6,3.2,4.8c-0.1,0.3-0.1,0.5-0.2,0.8
			c-0.3,0.8-0.8,1.4-1.5,1.9c-0.7,0.5-1.5,0.7-2.3,0.7c-1.1,0-2.2-0.4-2.9-1.2C68.4,28.4,68,27.3,68,26.2z"/>
		<circle class="st4" cx="39.5" cy="42" r="1.6"/>
		<circle class="st4" cx="52.1" cy="42" r="1.6"/>
	</g>
</g>
</svg>
