<?xml version="1.0" encoding="UTF-8" standalone="no"?>
<!-- Generator: Adobe Illustrator 25.0.0, SVG Export Plug-In . SVG Version: 6.00 Build 0)  -->

<svg
   version="1.1"
   id="Ebene_1"
   x="0px"
   y="0px"
   viewBox="0 0 45 45"
   xml:space="preserve"
   sodipodi:docname="biFrog.svg"
   width="45"
   height="45"
   inkscape:version="1.1.2 (0a00cf5339, 2022-02-04, custom)"
   xmlns:inkscape="http://www.inkscape.org/namespaces/inkscape"
   xmlns:sodipodi="http://sodipodi.sourceforge.net/DTD/sodipodi-0.dtd"
   xmlns="http://www.w3.org/2000/svg"
   xmlns:svg="http://www.w3.org/2000/svg"><defs
   id="defs134">
	

		
		
		
		
		
		
		
		
		
		
		
		
		
		
		
	
			
		
				<defs
   id="defs31">
					<path
   id="SVGID_5_"
   d="M 39.6,15.8 C 42.8,13.2 43.3,8.5 40.7,5.3 38.2,2.1 33.5,1.6 30.3,4.2 29,5.3 28.1,6.7 27.7,8.4 24.4,7.1 20.7,7.1 17.3,8.4 16.4,4.4 12.4,1.8 8.4,2.7 4.4,3.6 1.8,7.6 2.7,11.6 3.1,13.3 4,14.7 5.3,15.8 2.1,18.8 0.2,23 0,27.5 c 0,9.3 10.1,1.2 22.5,1.2 12.4,0 22.5,8.1 22.5,-1.2 -0.2,-4.4 -2.1,-8.6 -5.4,-11.7" />
				</defs>
				
				
					
				
			<mask
   maskUnits="userSpaceOnUse"
   id="mask3938"><path
     id="path3940"
     style="fill:#ffffff;fill-opacity:1;fill-rule:nonzero;stroke:none;stroke-width:1.25"
     d="M 39.69375,15.845 C 41.40375,14.47 42.5,12.36375 42.5,10 42.5,5.85875 39.1425,2.5 35,2.5 31.42375,2.5 28.4375,5.00625 27.6875,8.35625 26.07625,7.7525 24.3325,7.40875 22.5,7.40875 c -1.83125,0 -3.57625,0.34375 -5.18625,0.9475 C 16.5625,5.00625 13.57625,2.5 10,2.5 5.85875,2.5 2.5,5.85875 2.5,10 c 0,2.36375 1.0975,4.47 2.80625,5.845 C 2,19.195 0,23.35625 0,27.5 c 0,9.32 10.07375,1.25 22.5,1.25 12.4275,0 22.5,8.07 22.5,-1.25 0,-4.14375 -1.99875,-8.305 -5.30625,-11.655" /></mask><clipPath
   clipPathUnits="userSpaceOnUse"
   id="clipPath3942"><rect
     style="fill:#993399;fill-opacity:1;stroke:none;stroke-width:1.7;paint-order:markers fill stroke"
     id="rect3944"
     width="45"
     height="18.572386"
     x="0"
     y="16.386301" /></clipPath></defs><sodipodi:namedview
   id="namedview132"
   pagecolor="#505050"
   bordercolor="#ffffff"
   borderopacity="1"
   inkscape:pageshadow="0"
   inkscape:pageopacity="0"
   inkscape:pagecheckerboard="1"
   showgrid="false"
   inkscape:zoom="9.9"
   inkscape:cx="20.353535"
   inkscape:cy="34.393939"
   inkscape:window-width="1920"
   inkscape:window-height="1026"
   inkscape:window-x="1920"
   inkscape:window-y="54"
   inkscape:window-maximized="1"
   inkscape:current-layer="Ebene_1" />
<style
   type="text/css"
   id="style2">
	.st0{clip-path:url(#SVGID_2_);}
	.st1{fill:#003399;}
	.st2{clip-path:url(#SVGID_4_);}
	.st3{fill:#993399;}
	.st4{clip-path:url(#SVGID_6_);}
	.st5{fill:#D00169;}
	.st6{clip-path:url(#SVGID_8_);}
	.st7{clip-path:url(#SVGID_10_);}
	.st8{fill:#FFFFFF;}
	.st9{fill:#292F33;}
	.st10{clip-path:url(#SVGID_12_);}
	.st11{fill:#8945BD;}
	.st12{fill:#612061;}
	.st13{clip-path:url(#SVGID_14_);}
	.st14{clip-path:url(#SVGID_16_);}
	.st15{clip-path:url(#SVGID_18_);}
</style>
<path
   id="path22"
   style="fill:#003399;fill-opacity:1;fill-rule:nonzero;stroke:none;stroke-width:1.25"
   d="m 45.000125,27.50025 c 0,9.32 -10.07375,15 -22.5,15 -12.42625,0 -22.5,-5.68 -22.5,-15 h 45"
   sodipodi:nodetypes="cscc" /><path
   id="path26"
   style="display:inline;fill:#993399;fill-opacity:1;fill-rule:nonzero;stroke:none;stroke-width:1.25"
   d="M 39.69375,15.845 C 41.40375,14.47 42.5,12.36375 42.5,10 42.5,5.85875 39.1425,2.5 35,2.5 31.42375,2.5 28.4375,5.00625 27.6875,8.35625 26.07625,7.7525 24.3325,7.40875 22.5,7.40875 c -1.83125,0 -3.57625,0.34375 -5.18625,0.9475 C 16.5625,5.00625 13.57625,2.5 10,2.5 5.85875,2.5 2.5,5.85875 2.5,10 c 0,2.36375 1.0975,4.47 2.80625,5.845 C 2,19.195 0,23.35625 0,27.5 c 0,9.32 10.07375,1.25 22.5,1.25 12.4275,0 22.5,8.07 22.5,-1.25 0,-4.14375 -1.99875,-8.305 -5.30625,-11.655"
   clip-path="url(#clipPath3942)" /><rect
   style="fill:#d00169;fill-opacity:1;stroke:none;stroke-width:1.7;paint-order:markers fill stroke"
   id="rect2626"
   width="45"
   height="13.908"
   x="0"
   y="2.478303"
   mask="url(#mask3938)" /><path
   id="path30"
   class="st8"
   d="m 13.7,9.3820456 c 0,2.4013014 -2,4.4023864 -4.4,4.4023864 -2.4,0 -4.4,-2.001085 -4.4,-4.4023864 0,-2.4013018 2,-4.4023866 4.4,-4.4023866 v 0 c 2.5,0 4.4,2.0010848 4.4,4.4023866"
   style="stroke-width:1" /><path
   id="path34"
   class="st9"
   d="m 11.2,9.3820456 c 0,1.0005424 -0.8,1.9010304 -1.9,1.9010304 -1.1,0 -1.9,-0.800434 -1.9,-1.9010304 C 7.4,8.2814489 8.3,7.481015 9.3,7.481015 v 0 c 1.1,0 1.9,0.8004339 1.9,1.9010306"
   style="stroke-width:1" /><path
   id="path38"
   class="st8"
   d="m 40,9.3820456 c 0,2.4013014 -2,4.4023864 -4.4,4.4023864 -2.4,0 -4.4,-2.001085 -4.4,-4.4023864 0,-2.4013018 2,-4.4023866 4.4,-4.4023866 v 0 c 2.4,0 4.4,2.0010848 4.4,4.4023866"
   style="stroke-width:1" /><path
   id="path42"
   class="st9"
   d="m 37.5,9.3820456 c 0,1.0005424 -0.8,1.9010304 -1.9,1.9010304 -1.1,0 -1.9,-0.800434 -1.9,-1.9010304 0,-1.1005967 0.8,-1.9010306 1.9,-1.9010306 v 0 c 1,0 1.9,0.8004339 1.9,1.9010306"
   style="stroke-width:1" />
<path
   id="path46"
   style="fill:#612061;fill-opacity:1;fill-rule:nonzero;stroke:none;stroke-width:1.25"
   d="m 18.75,25 c 0,0.69125 -0.56,1.25 -1.25,1.25 -0.69,0 -1.25,-0.55875 -1.25,-1.25 0,-0.69125 0.56,-1.25 1.25,-1.25 0.69,0 1.25,0.55875 1.25,1.25" /><path
   id="path50"
   style="fill:#612061;fill-opacity:1;fill-rule:nonzero;stroke:none;stroke-width:1.25"
   d="m 28.75,25 c 0,0.69125 -0.55875,1.25 -1.25,1.25 -0.69125,0 -1.25,-0.55875 -1.25,-1.25 0,-0.69125 0.55875,-1.25 1.25,-1.25 0.69125,0 1.25,0.55875 1.25,1.25" /></svg>
