<?xml version="1.0" encoding="UTF-8" standalone="no"?>
<svg
   viewBox="0 0 45 45"
   style="enable-background:new 0 0 45 45;"
   xml:space="preserve"
   version="1.1"
   id="svg2"
   xmlns="http://www.w3.org/2000/svg"
   xmlns:svg="http://www.w3.org/2000/svg"
   xmlns:rdf="http://www.w3.org/1999/02/22-rdf-syntax-ns#"
   xmlns:cc="http://creativecommons.org/ns#"
   xmlns:dc="http://purl.org/dc/elements/1.1/"><metadata
     id="metadata8"><rdf:RDF><cc:Work
         rdf:about=""><dc:format>image/svg+xml</dc:format><dc:type
           rdf:resource="http://purl.org/dc/dcmitype/StillImage" /></cc:Work></rdf:RDF></metadata><defs
     id="defs6"><clipPath
       id="clipPath16"
       clipPathUnits="userSpaceOnUse"><path
         id="path18"
         d="M 0,36 36,36 36,0 0,0 0,36 Z" /></clipPath><clipPath
       clipPathUnits="userSpaceOnUse"
       id="clipPath7050"><path
         fill="#bbddf5"
         d="M 0.59769168,35.181948 H 27.800769 V 4.9563068 H 0.59769168 Z"
         id="path7052"
         style="stroke-width:0.8" /></clipPath></defs><g
     id="g64696"><path
       id="path22"
       style="fill:#c6e5b3;fill-opacity:1;fill-rule:nonzero;stroke:none;stroke-width:1.25"
       d="m 45,27.5 c 0,9.32 -10.07375,15 -22.5,15 C 10.07375,42.5 0,36.82 0,27.5 h 45" /><path
       id="path26"
       style="fill:#77b255;fill-opacity:1;fill-rule:nonzero;stroke:none;stroke-width:1.25"
       d="m 39.693625,15.84475 c 1.71,-1.375 2.80625,-3.48125 2.80625,-5.845 0,-4.14125 -3.3575,-7.5 -7.5,-7.5 -3.57625,0 -6.5625,2.50625 -7.3125,5.85625 -1.61125,-0.60375 -3.355,-0.9475 -5.1875,-0.9475 -1.83125,0 -3.57625,0.34375 -5.18625,0.9475 -0.75125,-3.35 -3.7375,-5.85625 -7.31375,-5.85625 -4.14125,0 -7.5,3.35875 -7.5,7.5 0,2.36375 1.0975,4.47 2.80625,5.845 -3.30625,3.35 -5.30625,7.51125 -5.30625,11.655 0,9.32 10.07375,1.25 22.5,1.25 12.4275,0 22.5,8.07 22.5,-1.25 0,-4.14375 -1.99875,-8.305 -5.30625,-11.655" /><path
       id="path30"
       style="fill:#ffffff;fill-opacity:1;fill-rule:nonzero;stroke:none;stroke-width:1.25"
       d="m 13.75,9.375 c 0,2.41625 -1.95875,4.375 -4.375,4.375 C 6.95875,13.75 5,11.79125 5,9.375 5,6.95875 6.95875,5 9.375,5 11.79125,5 13.75,6.95875 13.75,9.375" /><path
       id="path34"
       style="fill:#292f33;fill-opacity:1;fill-rule:nonzero;stroke:none;stroke-width:1.25"
       d="m 11.25,9.375 c 0,1.03625 -0.83875,1.875 -1.875,1.875 C 8.33875,11.25 7.5,10.41125 7.5,9.375 7.5,8.33875 8.33875,7.5 9.375,7.5 c 1.03625,0 1.875,0.83875 1.875,1.875" /><path
       id="path38"
       style="fill:#ffffff;fill-opacity:1;fill-rule:nonzero;stroke:none;stroke-width:1.25"
       d="m 40,9.375 c 0,2.41625 -1.9575,4.375 -4.375,4.375 -2.4175,0 -4.375,-1.95875 -4.375,-4.375 C 31.25,6.95875 33.2075,5 35.625,5 38.0425,5 40,6.95875 40,9.375" /><path
       id="path42"
       style="fill:#292f33;fill-opacity:1;fill-rule:nonzero;stroke:none;stroke-width:1.25"
       d="m 37.5,9.375 c 0,1.03625 -0.84,1.875 -1.875,1.875 -1.035,0 -1.875,-0.83875 -1.875,-1.875 0,-1.03625 0.84,-1.875 1.875,-1.875 1.035,0 1.875,0.83875 1.875,1.875" /><path
       id="path46"
       style="fill:#5c913b;fill-opacity:1;fill-rule:nonzero;stroke:none;stroke-width:1.25"
       d="m 18.75,25 c 0,0.69125 -0.56,1.25 -1.25,1.25 -0.69,0 -1.25,-0.55875 -1.25,-1.25 0,-0.69125 0.56,-1.25 1.25,-1.25 0.69,0 1.25,0.55875 1.25,1.25" /><path
       id="path50"
       style="fill:#5c913b;fill-opacity:1;fill-rule:nonzero;stroke:none;stroke-width:1.25"
       d="m 28.75,25 c 0,0.69125 -0.55875,1.25 -1.25,1.25 -0.69125,0 -1.25,-0.55875 -1.25,-1.25 0,-0.69125 0.55875,-1.25 1.25,-1.25 0.69125,0 1.25,0.55875 1.25,1.25" /></g><g
     id="g56213"
     class="UnoptimicedTransforms"><path
       style="fill:#adab3d;fill-opacity:1;stroke:none;stroke-width:1px;stroke-linecap:butt;stroke-linejoin:miter;stroke-opacity:1"
       d="m 22.499875,41.443522 v 1.727307 C 13.049097,43.170829 0.077827,42.02969 0,27.322078 0,22.879017 1.9544034,18.448914 4.4737384,15.929579 L 6.7054276,18.8445 9.9476272,20.858643 11.455251,25.19606 8,31 10.456932,41.443522 Z m 0,0 v 1.727307 c 9.450778,0 22.422048,-1.141139 22.499875,-15.848751 0,-4.443061 -1.954403,-8.873164 -4.473738,-11.392499 L 38.294322,18.8445 35.052123,20.858643 33.544499,25.19606 36.99975,31 34.542818,41.443522 Z"
       id="path49777" /><path
       style="enable-background:new 0 0 45 45;fill:#8c8b83;fill-opacity:1;stroke:none;stroke-width:1px;stroke-linecap:butt;stroke-linejoin:miter;stroke-opacity:1"
       d="m 11.455251,24.179321 c 0,0 -3.9851559,3.187073 -3.9851559,5.273158 0,3.838751 2.9868369,10.974304 2.9868369,10.974304 L 22.499875,42.15409 V 25.968014 H 20.826343 L 18.506444,27.5 h -5.543568 z m 22.089248,0 c 0,0 3.985156,3.187073 3.985156,5.273158 0,3.838751 -2.986837,10.974304 -2.986837,10.974304 L 22.499875,42.15409 V 25.968014 h 1.673532 L 26.493306,27.5 h 5.543568 z"
       id="path20998"
       transform="translate(0,1.016739)" /><path
       style="fill:none;fill-opacity:1;stroke:#73726b;stroke-width:2.25;stroke-linecap:round;stroke-linejoin:round;stroke-opacity:1;stroke-dasharray:none"
       d="m 22.499875,42.045829 c -4.691429,0 -10.068244,-0.281869 -14.2788148,-2.298639 m 14.2788148,2.298639 c 4.691429,0 10.068244,-0.281869 14.278815,-2.298639"
       id="path7999" /><g
       id="g8311"
       transform="translate(0,1.016739)"><path
         style="fill:#1d1b17;fill-opacity:1;stroke:none;stroke-width:1px;stroke-linecap:butt;stroke-linejoin:miter;stroke-opacity:1"
         d="m 12.079195,28.767152 c 0,0 -2.9502354,-0.06199 -2.4589514,1.771503 l 1.7711344,7.162952 c 0.268344,1.001476 1.832682,0.244745 1.832682,0.244745 -1.984389,-7.408753 -1.144865,-9.1792 -1.144865,-9.1792 z m 20.84136,0 c 0,0 2.950235,-0.06199 2.458951,1.771503 l -1.771134,7.162952 c -0.268344,1.001476 -1.832682,0.244745 -1.832682,0.244745 1.984389,-7.408753 1.144865,-9.1792 1.144865,-9.1792 z"
         id="path27831" /><g
         id="g64686"><path
           style="fill:none;stroke:#271d09;stroke-width:0.5;stroke-linecap:round;stroke-linejoin:round;stroke-dasharray:none;stroke-opacity:1"
           d="m 22.499875,32.786511 h -1.971848 l -0.907967,1.02585 h -1.944301 l -0.752316,-1.02585 -2.303273,-0.714927 m 7.879705,0.714927 h 1.971848 l 0.907967,1.02585 h 1.944301 l 0.752316,-1.02585 2.303273,-0.714927"
           id="path35564" /><path
           style="fill:none;stroke:#271d09;stroke-width:0.5;stroke-linecap:round;stroke-linejoin:round;stroke-dasharray:none;stroke-opacity:1"
           d="m 22.499875,38.447972 h -2.196776 l -2.251611,-0.727959 m 4.448387,0.727959 h 2.196776 l 2.251611,-0.727959"
           id="path36298" /><path
           style="fill:none;stroke:#271d09;stroke-width:0.5;stroke-linecap:round;stroke-linejoin:round;stroke-dasharray:none;stroke-opacity:1"
           d="m 22.499875,30.793249 h -2.868128 l -5.846563,-1.721872 m 8.714691,1.721872 h 2.868128 l 5.846563,-1.721872"
           id="path37778" /><path
           style="fill:none;stroke:#271d09;stroke-width:0.5;stroke-linecap:round;stroke-linejoin:round;stroke-dasharray:none;stroke-opacity:1"
           d="m 22.499875,36.612506 h -2.346544 l -1.416817,-0.880344 -3.881395,-0.962069 m 7.644756,1.842413 h 2.346544 l 1.416817,-0.880344 3.881395,-0.962069"
           id="path38506" /><path
           style="fill:none;stroke:#271d09;stroke-width:0.5;stroke-linecap:round;stroke-linejoin:round;stroke-dasharray:none;stroke-opacity:1"
           d="m 14.326037,35.790829 1.800252,0.609814 m 14.547424,-0.609814 -1.800252,0.609814"
           id="path40729" /><path
           style="fill:none;stroke:#271d09;stroke-width:0.5;stroke-linecap:round;stroke-linejoin:round;stroke-dasharray:none;stroke-opacity:1"
           d="m 13.670806,33.101932 1.800252,0.609814 m 15.857886,-0.609814 -1.800252,0.609814"
           id="path41733" /><path
           style="fill:none;stroke:#271d09;stroke-width:0.5;stroke-linecap:round;stroke-linejoin:round;stroke-dasharray:none;stroke-opacity:1"
           d="M 12.953098,30.371396 14.75335,30.98121 M 32.046652,30.371396 30.2464,30.98121"
           id="path41735" /></g><path
         style="fill:none;stroke:#d29033;stroke-width:0.5;stroke-linecap:round;stroke-linejoin:miter;stroke-dasharray:none;stroke-opacity:1"
         d="m 12.079195,28.767152 c 0,0 -2.9502354,-0.06199 -2.4589514,1.771503 l 1.1997114,4.851959 m 22.1006,-6.623462 c 0,0 2.950235,-0.06199 2.458951,1.771503 l -1.199711,4.851959"
         id="path43738" /><path
         style="fill:none;stroke:#d29033;stroke-width:0.5;stroke-linecap:round;stroke-linejoin:round;stroke-dasharray:none;stroke-opacity:1"
         d="m 20.257869,28.032244 -1.159949,0.765993 h -1.584153 m 7.228114,-0.765993 1.159949,0.765993 h 1.584153"
         id="path46362" /></g><path
       style="display:none;fill:none;fill-opacity:1;stroke:#73726b;stroke-width:1.6;stroke-linecap:round;stroke-linejoin:miter;stroke-dasharray:none;stroke-opacity:1;paint-order:normal"
       d="m 22.499875,43.170829 c -2.222985,0 -4.463392,-0.07334 -6.621043,-0.270457 C 13.721182,42.703251 11.598738,42.537459 9.7543348,41.887194 7.920498,41.240654 6.1533629,40.066854 4.727464,39.172777 m 17.772411,3.998052 c 2.222985,0 4.463392,-0.07334 6.621043,-0.270457 2.15765,-0.197121 4.280094,-0.362913 6.124497,-1.013178 1.833837,-0.64654 3.600972,-1.82034 5.026871,-2.714417"
       id="path12865" /><path
       style="fill:#adab3d;fill-opacity:1;stroke:none;stroke-width:1px;stroke-linecap:butt;stroke-linejoin:miter;stroke-opacity:1"
       d="m 4.4055856,3.6293548 c 0,0 -1.1059442,-0.9953829 0.6967615,-1.478414 0.3851046,-0.103188 3.9582213,-0.5701897 7.1469329,-0.59976 3.188712,-0.02957 6.594214,1.0878864 10.250595,1.0878864 V 9.1437276 L 18.232086,8.9211495 12.167113,3.798723 Z m 36.1885784,0 c 0,0 1.105945,-0.9953829 -0.696761,-1.478414 -0.385105,-0.103188 -3.958221,-0.5701897 -7.146933,-0.59976 -3.188712,-0.02957 -6.594214,1.0878864 -10.250595,1.0878864 V 9.1437276 L 26.767664,8.9211495 32.832637,3.798723 Z"
       id="path56196" /><g
       id="g61686"
       style="enable-background:new 0 0 45 45"><path
         style="fill:none;stroke:#752f0e;stroke-width:0.5;stroke-linecap:round;stroke-linejoin:miter;stroke-dasharray:none;stroke-opacity:1"
         d="m 5.9574179,26.186647 -1.1914154,2.626705 m 34.2763295,-2.626705 1.191415,2.626705"
         id="path57669" /><path
         style="fill:none;stroke:#752f0e;stroke-width:0.5;stroke-linecap:round;stroke-linejoin:miter;stroke-dasharray:none;stroke-opacity:1"
         d="M 5.4754574,25.457459 4.284042,28.084164 m 35.240251,-2.626705 1.191415,2.626705"
         id="path61673" /><path
         style="fill:none;stroke:#752f0e;stroke-width:0.5;stroke-linecap:round;stroke-linejoin:miter;stroke-dasharray:none;stroke-opacity:1"
         d="m 4.9934969,24.728271 -1.1914154,2.626705 m 36.2041715,-2.626705 1.191415,2.626705"
         id="path61681" /></g><path
       style="display:inline;fill:#44775d;fill-opacity:0.839216;stroke:#73726b;stroke-width:2.25;stroke-linecap:round;stroke-linejoin:miter;stroke-dasharray:none;stroke-opacity:1;paint-order:normal"
       d="M 22.499875,9.1437276 18.232086,8.9211495 c 0,0 -3.589846,-4.1863085 -6.064973,-5.1224265 C 9.7466522,2.8832804 4.7153748,2.4732057 4.4055856,3.6293548 c 0,0 -2.5248573,8.1117962 -1.4357731,9.9981452 0,0 2.1744884,3.754967 3.7356148,5.217 0.928639,0.869693 2.4027417,1.058085 3.2421996,2.014143 C 11.551768,22.685599 12.962876,27.5 12.962876,27.5 h 5.543568 c 0,0 1.811555,-1.531986 2.319899,-1.531986 h 1.673532 m 0,-16.8242864 4.267789,-0.2225781 c 0,0 3.589846,-4.1863085 6.064973,-5.1224265 2.420461,-0.9154426 7.451738,-1.3255173 7.761527,-0.1693682 0,0 2.524858,8.1117962 1.435773,9.9981452 0,0 -2.174488,3.754967 -3.735614,5.217 -0.928639,0.869693 -2.402742,1.058085 -3.2422,2.014143 C 33.447982,22.685599 32.036874,27.5 32.036874,27.5 h -5.543568 c 0,0 -1.811555,-1.531986 -2.319899,-1.531986 h -1.673532"
       id="path69213" /><path
       style="display:none;fill:#44775d;fill-opacity:0.839216;stroke:#73726b;stroke-width:2.25;stroke-linecap:round;stroke-linejoin:round;stroke-dasharray:none;stroke-opacity:1;paint-order:normal"
       d="M 22.499875,9.1437276 18.232086,8.9211495 12.167113,3.798723 4.4055856,3.6293548 2.9698125,13.6275 6.7054273,18.8445 9.9476269,20.858643 12.962876,27.5 h 5.543568 l 2.319899,-1.531986 h 1.673532 m 0,-16.8242864 4.267789,-0.2225781 6.064973,-5.1224265 7.761527,-0.1693682 1.435773,9.9981452 -3.735614,5.217 -3.2422,2.014143 L 32.036874,27.5 h -5.543568 l -2.319899,-1.531986 h -1.673532"
       id="path5770" /></g></svg>
