<?xml version="1.0" encoding="UTF-8" standalone="no"?>
<svg
   viewBox="0 0 45 45"
   style="enable-background:new 0 0 45 45;"
   xml:space="preserve"
   version="1.1"
   id="svg2"
   sodipodi:docname="frog_dum.svg"
   inkscape:version="1.1.1 (3bf5ae0d25, 2021-09-20, custom)"
   xmlns:inkscape="http://www.inkscape.org/namespaces/inkscape"
   xmlns:sodipodi="http://sodipodi.sourceforge.net/DTD/sodipodi-0.dtd"
   xmlns="http://www.w3.org/2000/svg"
   xmlns:svg="http://www.w3.org/2000/svg"
   xmlns:rdf="http://www.w3.org/1999/02/22-rdf-syntax-ns#"
   xmlns:cc="http://creativecommons.org/ns#"
   xmlns:dc="http://purl.org/dc/elements/1.1/"><sodipodi:namedview
     id="namedview26"
     pagecolor="#ffffff"
     bordercolor="#666666"
     borderopacity="1.0"
     inkscape:pageshadow="2"
     inkscape:pageopacity="0.0"
     inkscape:pagecheckerboard="0"
     showgrid="false"
     inkscape:snap-grids="false"
     inkscape:snap-to-guides="false"
     inkscape:snap-global="false"
     inkscape:zoom="15.47848"
     inkscape:cx="20.770773"
     inkscape:cy="18.897204"
     inkscape:window-width="1916"
     inkscape:window-height="1032"
     inkscape:window-x="0"
     inkscape:window-y="0"
     inkscape:window-maximized="1"
     inkscape:current-layer="svg2" /><metadata
     id="metadata8"><rdf:RDF><cc:Work
         rdf:about=""><dc:format>image/svg+xml</dc:format><dc:type
           rdf:resource="http://purl.org/dc/dcmitype/StillImage" /></cc:Work></rdf:RDF></metadata><defs
     id="defs6"><clipPath
       id="clipPath16"
       clipPathUnits="userSpaceOnUse"><path
         id="path18"
         d="M 0,36 36,36 36,0 0,0 0,36 Z" /></clipPath></defs><g
     transform="matrix(1.25,0,0,-1.25,0,45)"
     id="g10"><g
       id="g12"><g
         clip-path="url(#clipPath16)"
         id="g14"><g
           transform="translate(36,14)"
           id="g20"><path
             id="path22"
             style="fill:#c6e5b3;fill-opacity:1;fill-rule:nonzero;stroke:none"
             d="m 0,0 c 0,-7.456 -8.059,-12 -18,-12 -9.941,0 -18,4.544 -18,12 0,7.456 8.059,15 18,15 C -8.059,15 0,7.456 0,0" /></g><g
           transform="translate(31.7549,23.3242)"
           id="g24"><path
             id="path26"
             style="fill:#77b255;fill-opacity:1;fill-rule:nonzero;stroke:none"
             d="m 0,0 c 1.368,1.1 2.245,2.785 2.245,4.676 0,3.313 -2.686,6 -6,6 -2.861,0 -5.25,-2.005 -5.85,-4.685 -1.289,0.483 -2.684,0.758 -4.15,0.758 -1.465,0 -2.861,-0.275 -4.149,-0.758 -0.601,2.68 -2.99,4.685 -5.851,4.685 -3.313,0 -6,-2.687 -6,-6 0,-1.891 0.878,-3.576 2.245,-4.676 -2.645,-2.68 -4.245,-6.009 -4.245,-9.324 0,-7.456 8.059,-1 18,-1 9.942,0 18,-6.456 18,1 C 4.245,-6.009 2.646,-2.68 0,0" /></g><g
           transform="translate(11,28.5)"
           id="g28"><path
             id="path30"
             style="fill:#ffffff;fill-opacity:1;fill-rule:nonzero;stroke:none"
             d="M 0,0 C 0,-1.933 -1.567,-3.5 -3.5,-3.5 -5.433,-3.5 -7,-1.933 -7,0 -7,1.933 -5.433,3.5 -3.5,3.5 -1.567,3.5 0,1.933 0,0" /></g><g
           transform="translate(9,28.5)"
           id="g32"><path
             id="path34"
             style="fill:#292f33;fill-opacity:1;fill-rule:nonzero;stroke:none"
             d="M 0,0 C 0,-0.829 -0.671,-1.5 -1.5,-1.5 -2.329,-1.5 -3,-0.829 -3,0 -3,0.829 -2.329,1.5 -1.5,1.5 -0.671,1.5 0,0.829 0,0" /></g><g
           transform="translate(32,28.5)"
           id="g36"><path
             id="path38"
             style="fill:#ffffff;fill-opacity:1;fill-rule:nonzero;stroke:none"
             d="M 0,0 C 0,-1.933 -1.566,-3.5 -3.5,-3.5 -5.434,-3.5 -7,-1.933 -7,0 -7,1.933 -5.434,3.5 -3.5,3.5 -1.566,3.5 0,1.933 0,0" /></g><g
           transform="translate(30,28.5)"
           id="g40"><path
             id="path42"
             style="fill:#292f33;fill-opacity:1;fill-rule:nonzero;stroke:none"
             d="M 0,0 C 0,-0.829 -0.672,-1.5 -1.5,-1.5 -2.328,-1.5 -3,-0.829 -3,0 -3,0.829 -2.328,1.5 -1.5,1.5 -0.672,1.5 0,0.829 0,0" /></g><g
           transform="translate(15,16)"
           id="g44"><path
             id="path46"
             style="fill:#5c913b;fill-opacity:1;fill-rule:nonzero;stroke:none"
             d="m 0,0 c 0,-0.553 -0.448,-1 -1,-1 -0.552,0 -1,0.447 -1,1 0,0.553 0.448,1 1,1 0.552,0 1,-0.447 1,-1" /></g><g
           transform="translate(23,16)"
           id="g48"><path
             id="path50"
             style="fill:#5c913b;fill-opacity:1;fill-rule:nonzero;stroke:none"
             d="m 0,0 c 0,-0.553 -0.447,-1 -1,-1 -0.553,0 -1,0.447 -1,1 0,0.553 0.447,1 1,1 0.553,0 1,-0.447 1,-1" /></g></g></g></g><g
     id="g192"
     transform="matrix(0.20302051,0,0,0.20302051,11.976273,5.6222158)"><path
       style="fill:#f3d868;stroke-width:1.33333"
       d="M 33.638357,70.76694 C 25.483912,66.706546 16.038807,46.446227 15.03365,37.264651 c -0.239362,-2.186439 3.653749,-4.152415 3.074257,-5.090053 -0.842714,-1.363538 -0.537992,-1.38278 1.52227,-0.09612 2.030836,1.268279 7.060549,-0.504602 23.823849,-2.220875 33.071309,-8.483591 33.926502,-2.824359 46.944198,11.776537 16.315636,13.66007 -15.276318,26.678952 -26.120788,30.395278 -13.091664,4.447445 -17.34691,5.356174 -22.425591,2.827315 z m 2.02831,-20.828108 C 29.703033,43.30298 29.468241,42.278636 34.333333,44.121819 38.727217,45.78648 44,50.49632 44,52.756435 c 0,3.647691 -3.624249,2.422287 -8.333333,-2.817603 z"
       id="path198"
       sodipodi:nodetypes="sssscccssssss" /><path
       style="fill:#e3b954;stroke-width:1.33333"
       d="m 18.499723,33.666668 c -3.674378,-0.228651 -3.025437,-0.03076 -3.674378,-0.228651 -3.562661,-1.086402 -4.800856,-1.397287 -4.800856,-1.397287 -0.5499997,-0.55 2.618671,-4.975925 2.618671,-7.053704 0,-3.474392 2.585355,-6.820367 7.183815,-6.831495 5.081027,-0.01227 35.268643,-4.504144 44.660624,-5.683844 8.322859,-1.045412 5.169462,4.402661 8.949133,9.646797 4.452765,6.178025 -0.38122,6.542948 -0.519197,6.606572 -0.780152,0.359738 -54.417812,4.941612 -54.417812,4.941612 z"
       id="path196"
       sodipodi:nodetypes="cssscsssc" /><path
       style="fill:#391e08;stroke-width:1.33333"
       d="M 34.666667,83.028968 C 30.875912,81.587517 26.078976,77.146216 20.863676,70.249304 14.817729,62.253913 5.3333333,43.416267 5.3333333,39.403367 c 0,-1.505732 -0.8313714,-6.711229 -1.8474922,-11.56777 C 1.6233673,18.933918 1.9154849,12.736111 4.3421865,9.666667 5.1887823,8.5958395 9.29569,7.9966294 15.829927,7.9905714 21.423467,7.9853856 31.7,7.0981905 38.666667,6.0190269 67.281381,1.5864968 75.794083,0.83591812 77.873953,2.5620569 c 1.088946,0.9037452 2.995038,4.7469965 4.235758,8.5405581 3.940209,12.047379 7.171777,16.963477 19.586559,29.796498 11.11926,11.493858 12.0167,12.812398 10.87807,15.982274 -1.04933,2.921296 -3.50627,4.230726 -15.907673,8.478035 -58.514488,20.040399 -56.942934,19.592517 -62,17.669546 z M 55.416549,66.647301 C 64.813504,63.477835 91.257532,53.598008 93.026119,52.595884 93.223816,52.483863 91.199397,50.053963 88.527409,47.196105 79.916716,37.986432 72.075167,26.564105 70.598467,21.080059 69.231021,16.001753 68.948143,15.774216 64.913044,16.506934 57.282371,17.892557 26.121156,21.308842 21,21.321234 c -6.046445,0.01463 -6.186429,0.967153 -2.282871,15.533743 3.117358,11.632781 5.338282,16.387842 11.044983,23.647613 3.538915,4.502027 10.752128,10.144236 12.987771,10.159095 0.412436,0.0028 6.112436,-1.803732 12.666666,-4.014384 z M 36.472413,57.000002 C 29.184619,49.059011 24,42.038697 24,40.111539 c 0,-1.210087 1.99854,-1.397518 7.666667,-0.719008 8.194908,0.98098 12.428972,3.74107 15.861533,10.339772 1.773239,3.408848 1.69506,4.131043 -0.902097,8.333333 -1.563978,2.530569 -3.318243,4.601033 -3.898368,4.601033 -0.580127,0 -3.395022,-2.55 -6.255322,-5.666667 z m 7.268191,-4.627664 c 0.427339,-2.887726 -4.424049,-7.199739 -10.073937,-8.953926 -4.125842,-1.280997 -3.782238,0.019 1.808294,6.841502 5.015934,6.121285 7.575588,6.775449 8.265643,2.112424 z m 7.284456,-1.626731 c -3.299519,-4.185223 -6.135357,-10.746419 -5.094585,-11.787191 0.990422,-0.990423 4.736192,2.435304 4.736192,4.331528 0,2.002661 4.304786,6.043391 6.438321,6.043391 2.131323,0 1.960911,-2.089003 -0.612867,-7.512838 -1.196001,-2.520384 -1.8105,-4.946561 -1.365554,-5.391507 1.510014,-1.510014 4.43552,2.184898 6.082581,7.682298 1.432572,4.781502 1.349151,5.798483 -0.657523,8.015834 -3.157074,3.488528 -6.01375,3.074261 -9.526565,-1.381515 z m 15.641607,0.652781 c 0,-0.330886 -0.8874,-4.008569 -1.971999,-8.172628 -2.243791,-8.614492 -1.571151,-11.098932 2.104368,-7.772632 2.413585,2.184264 2.534297,2.160396 2.534297,-0.50112 0,-5.057996 1.915927,-4.116307 8.515443,4.185388 5.124812,6.446631 6.042233,8.289389 4.298345,8.633776 -1.219404,0.24081 -3.38139,-0.959191 -4.804417,-2.666667 -2.182347,-2.618581 -2.594263,-2.739286 -2.631679,-0.77117 -0.0244,1.283333 -0.447114,2.333333 -0.93937,2.333333 -0.492258,0 -2.071998,-1.05 -3.510535,-2.333333 -2.535445,-2.261896 -2.584084,-2.23128 -1.588684,1 0.56476,1.833333 1.308695,4.083333 1.653185,5 0.344492,0.916667 -0.337844,1.666667 -1.516302,1.666667 -1.178459,0 -2.142652,-0.270726 -2.142652,-0.601614 z"
       id="path194" /></g></svg>
