<?xml version="1.0" encoding="UTF-8" standalone="no"?>
<svg
   viewBox="0 0 36 36"
   version="1.1"
   id="svg40"
   sodipodi:docname="frogFingering.svg"
   inkscape:version="1.1.1 (3bf5ae0d25, 2021-09-20, custom)"
   xmlns:inkscape="http://www.inkscape.org/namespaces/inkscape"
   xmlns:sodipodi="http://sodipodi.sourceforge.net/DTD/sodipodi-0.dtd"
   xmlns="http://www.w3.org/2000/svg"
   xmlns:svg="http://www.w3.org/2000/svg">
  <sodipodi:namedview
     id="namedview42"
     pagecolor="#505050"
     bordercolor="#ffffff"
     borderopacity="1"
     inkscape:pageshadow="0"
     inkscape:pageopacity="0"
     inkscape:pagecheckerboard="1"
     showgrid="false"
     inkscape:zoom="12.375"
     inkscape:cx="7.6363636"
     inkscape:cy="14.666667"
     inkscape:window-width="1920"
     inkscape:window-height="1026"
     inkscape:window-x="1920"
     inkscape:window-y="54"
     inkscape:window-maximized="1"
     inkscape:current-layer="svg40" />
  <defs
     id="defs4">
    <style
       id="style2">.cls-1{fill:#c6e5b3;}.cls-2,.cls-6{fill:#77b255;}.cls-3{fill:#fff;}.cls-4{fill:#292f33;}.cls-5{fill:#5c913b;}.cls-6{stroke:#3f6328;stroke-miterlimit:10;stroke-width:0.25px;}.cls-7{fill:#3f6328;}.cls-8{fill:none;}</style>
  </defs>
  <g
     id="g997"
     transform="matrix(0.79999777,0,0,0.79999777,2.2294198,4.1036605)"
     style="stroke-width:1.25">
    <path
       id="path22-3"
       style="fill:#c6e5b3;fill-opacity:1;fill-rule:nonzero;stroke:none;stroke-width:1.5625"
       d="m 42.213343,22.370667 c 0,9.32 -10.073751,15 -22.500001,15 -12.4262495,0 -22.4999995,-5.68 -22.4999995,-15 H 42.213343"
       sodipodi:nodetypes="cscc" />
    <path
       id="path26-6"
       style="fill:#77b255;fill-opacity:1;fill-rule:nonzero;stroke:none;stroke-width:1.5625"
       d="m 36.906967,10.715417 c 1.710001,-1.375 2.80625,-3.48125 2.80625,-5.845 0,-4.14125 -3.3575,-7.5 -7.5,-7.5 -3.57625,0 -6.5625,2.50625 -7.3125,5.85625 -1.61125,-0.60375 -3.355,-0.9475 -5.1875,-0.9475 -1.83125,0 -3.57625,0.34375 -5.18625,0.9475 -0.75125,-3.35 -3.7375,-5.85625 -7.3137495,-5.85625 -4.14125,0 -7.5,3.35875 -7.5,7.5 0,2.36375 1.0975,4.47 2.80625,5.845 -3.30625,3.35 -5.30625,7.51125 -5.30625,11.655 0,9.32 10.07375,1.25 22.4999995,1.25 12.4275,0 22.5,8.07 22.5,-1.25 0,-4.14375 -1.998749,-8.305 -5.30625,-11.655" />
    <path
       id="path30-3"
       style="fill:#ffffff;fill-opacity:1;fill-rule:nonzero;stroke:none;stroke-width:1.5625"
       d="m 10.963343,4.245667 c 0,2.41625 -1.9587505,4.375 -4.3750005,4.375 -2.41625,0 -4.375,-1.95875 -4.375,-4.375 0,-2.41625 1.95875,-4.375 4.375,-4.375 2.41625,0 4.3750005,1.95875 4.3750005,4.375" />
    <path
       id="path34"
       style="fill:#292f33;fill-opacity:1;fill-rule:nonzero;stroke:none;stroke-width:1.5625"
       d="m 8.4633425,4.245667 c 0,1.03625 -0.83875,1.875 -1.875,1.875 -1.03625,0 -1.875,-0.83875 -1.875,-1.875 0,-1.03625 0.83875,-1.875 1.875,-1.875 1.03625,0 1.875,0.83875 1.875,1.875" />
    <path
       id="path38"
       style="fill:#ffffff;fill-opacity:1;fill-rule:nonzero;stroke:none;stroke-width:1.5625"
       d="m 37.213343,4.245667 c 0,2.41625 -1.9575,4.375 -4.375,4.375 -2.417501,0 -4.375001,-1.95875 -4.375001,-4.375 0,-2.41625 1.9575,-4.375 4.375001,-4.375 2.4175,0 4.375,1.95875 4.375,4.375" />
    <path
       id="path42"
       style="fill:#292f33;fill-opacity:1;fill-rule:nonzero;stroke:none;stroke-width:1.5625"
       d="m 34.713343,4.245667 c 0,1.03625 -0.840001,1.875 -1.875,1.875 -1.035,0 -1.875001,-0.83875 -1.875001,-1.875 0,-1.03625 0.840001,-1.875 1.875001,-1.875 1.034999,0 1.875,0.83875 1.875,1.875" />
    <path
       id="path46"
       style="fill:#5c913b;fill-opacity:1;fill-rule:nonzero;stroke:none;stroke-width:1.5625"
       d="m 15.963343,19.870667 c 0,0.69125 -0.560001,1.25 -1.25,1.25 -0.69,0 -1.25,-0.55875 -1.25,-1.25 0,-0.69125 0.56,-1.25 1.25,-1.25 0.689999,0 1.25,0.55875 1.25,1.25" />
    <path
       id="path50"
       style="fill:#5c913b;fill-opacity:1;fill-rule:nonzero;stroke:none;stroke-width:1.5625"
       d="m 25.963342,19.870667 c 0,0.69125 -0.55875,1.25 -1.25,1.25 -0.69125,0 -1.25,-0.55875 -1.25,-1.25 0,-0.69125 0.55875,-1.25 1.25,-1.25 0.69125,0 1.25,0.55875 1.25,1.25" />
  </g>
  <g
     id="Ebene_2-2"
     data-name="Ebene 2">
    <g
       id="Ebene_1-2-2"
       data-name="Ebene 1-2">
      <path
         class="cls-6"
         d="m 8.05,34.78 c 0,0 1.06,-0.1 1.36,-0.8 a 0.75,0.75 0 0 0 -0.27,-1 v 0 a 1.23,1.23 0 0 0 1.16,-0.84 1,1 0 0 0 -0.44,-1.22 1.42,1.42 0 0 0 1.07,-1 1.34,1.34 0 0 0 -0.5,-1.32 h 5.43 A 1.08,1.08 0 0 0 17,27.6 V 27.49 A 1.06,1.06 0 0 0 16,26.4 H 6.74 c -0.44,0 -0.44,-0.44 0,-0.44 h 1.19 a 4.22,4.22 0 0 0 3,-1.23 1.38,1.38 0 0 0 0.33,-1.25 C 11.07,22.59 10.4,22.8 9.84,23.04 a 19,19 0 0 1 -4.24,1.14 5.36,5.36 0 0 0 0.7,10.6 z"
         id="path22" />
    </g>
  </g>
  <g
     id="Ebene_2-3"
     data-name="Ebene 2">
    <g
       id="Ebene_1-2-3"
       data-name="Ebene 1-2">
      <path
         class="cls-5"
         d="m 28.13,34.88 a 5,5 0 0 1 -3.35,-1.16 6.35,6.35 0 0 1 -2.13,-4.22 1.26,1.26 0 0 1 1,-1.16 h 0.2 a 1.23,1.23 0 0 1 1.23,1 5.3,5.3 0 0 0 0.43,1.66 0.34,0.34 0 0 0 0.2,0.19 l 2.34,1 h 0.11 l 1.19,-0.66 a 0.33,0.33 0 0 0 0.11,-0.1 l 1.29,-2.29 a 0.22,0.22 0 0 0 0,-0.26 15.63,15.63 0 0 0 -2.69,-2.62 5.18,5.18 0 0 0 -1.65,0.61 c -0.07,0.07 -0.76,1 -0.81,1.12 a 1.24,1.24 0 0 1 -0.93,0.42 1.21,1.21 0 0 1 -0.74,-0.24 1.28,1.28 0 0 1 -0.5,-0.84 1.25,1.25 0 0 1 0.25,-0.91 l 1,-1.37 a 0.54,0.54 0 0 1 0.23,-0.18 l 2.63,-1.14 a 0.88,0.88 0 0 1 0.49,-0.14 0.9,0.9 0 0 1 0.55,0.17 15,15 0 0 1 1.76,1.24 l -1.72,-3.83 a 1.26,1.26 0 0 1 0.7,-1.62 v 0 a 1.31,1.31 0 0 1 0.57,-0.66 1.26,1.26 0 0 1 1.69,0.49 L 34.19,24 a 22.92,22.92 0 0 1 0.9,2.93 7.46,7.46 0 0 1 -0.71,3.53 c -1.77,3.7 -3.07,4 -5.21,4.32 a 7.63,7.63 0 0 1 -1.04,0.1 z"
         id="path26" />
      <path
         class="cls-7"
         d="m 30.53,18.84 a 1.13,1.13 0 0 1 1,0.58 l 2.57,4.66 A 22.1,22.1 0 0 1 35,27 7.32,7.32 0 0 1 34.3,30.45 c -1.78,3.71 -3.07,4 -5.12,4.25 a 7.39,7.39 0 0 1 -1,0.07 4.91,4.91 0 0 1 -3.27,-1.13 6.25,6.25 0 0 1 -2.09,-4.13 1.14,1.14 0 0 1 0.94,-1 h 0.18 a 1.13,1.13 0 0 1 1.11,0.94 5.28,5.28 0 0 0 0.35,1.55 0.47,0.47 0 0 0 0.26,0.26 l 2.34,1 h 0.08 a 0.23,0.23 0 0 0 0.14,0 l 1.19,-0.66 a 0.4,0.4 0 0 0 0.15,-0.14 l 1.3,-2.3 a 0.34,0.34 0 0 0 0,-0.4 c 0,0 -2.39,-2.67 -2.79,-2.67 a 5.51,5.51 0 0 0 -1.71,0.63 c -0.07,0 -0.86,1.15 -0.86,1.17 a 1.12,1.12 0 0 1 -1.71,-1.43 l 1,-1.38 a 0.49,0.49 0 0 1 0.18,-0.14 L 27.6,23.8 a 0.78,0.78 0 0 1 0.44,-0.13 0.85,0.85 0 0 1 0.48,0.15 14.42,14.42 0 0 1 2.06,1.58 L 30.49,25 28.73,21.08 a 1.13,1.13 0 0 1 0.64,-1.45 h 0.09 A 1.11,1.11 0 0 1 30,19 1.17,1.17 0 0 1 30.54,18.86 m 0,-0.25 v 0 a 1.38,1.38 0 0 0 -0.66,0.17 1.4,1.4 0 0 0 -0.6,0.67 1.38,1.38 0 0 0 -0.77,1.77 L 30,24.55 c -0.41,-0.33 -0.85,-0.64 -1.34,-1 A 1.13,1.13 0 0 0 28,23.4 1.12,1.12 0 0 0 27.42,23.57 l -2.59,1.12 a 0.66,0.66 0 0 0 -0.27,0.21 l -1,1.39 a 1.32,1.32 0 0 0 -0.27,1 1.39,1.39 0 0 0 0.52,0.91 h -0.15 a 1.39,1.39 0 0 0 -1.15,1.26 6.52,6.52 0 0 0 2.17,4.34 5.18,5.18 0 0 0 3.45,1.2 7.71,7.71 0 0 0 1.05,-0.07 c 2.19,-0.29 3.51,-0.64 5.32,-4.39 a 7.57,7.57 0 0 0 0.72,-3.6 21.85,21.85 0 0 0 -0.91,-3 L 31.73,19.3 a 1.36,1.36 0 0 0 -1.2,-0.71 z m -4.8,9.35 c 0.15,-0.22 0.69,-1 0.77,-1.05 a 5.17,5.17 0 0 1 1.49,-0.58 18.69,18.69 0 0 1 2.61,2.58 0.09,0.09 0 0 1 0,0.1 l -1.31,2.31 v 0 L 28.1,32 25.76,31 a 0.27,0.27 0 0 1 -0.13,-0.13 5.12,5.12 0 0 1 -0.38,-1.54 1.35,1.35 0 0 0 -0.52,-0.88 1.39,1.39 0 0 0 0.93,-0.44 l 0.07,-0.07 v 0 z"
         id="path28" />
      <path
         class="cls-5"
         d="m 31.25,28.08 -0.76,-3 -1.76,-3.92 a 1.1207364,1.1207364 0 1 1 2.09,-0.81 l 2.76,7 z"
         id="path30" />
      <path
         class="cls-2"
         d="m 35,27 a 22.1,22.1 0 0 0 -0.89,-2.9 l -2.57,-4.66 a 1.12,1.12 0 0 0 -2,1 l 2.37,4.24 0.61,2.44 -1.78,-1.6 a 14.42,14.42 0 0 0 -2.19,-1.7 0.83,0.83 0 0 0 -0.92,0 L 25,24.92 a 0.49,0.49 0 0 0 -0.18,0.14 l -1,1.38 a 1.12,1.12 0 0 0 1.71,1.43 c 0,0 0.79,-1.13 0.86,-1.17 a 5.51,5.51 0 0 1 1.71,-0.63 c 0.4,0 2.79,2.67 2.79,2.67 a 0.34,0.34 0 0 1 0,0.4 l -1.3,2.3 a 0.4,0.4 0 0 1 -0.15,0.14 l -1.19,0.66 a 0.28,0.28 0 0 1 -0.22,0 l -2.34,-1 A 0.47,0.47 0 0 1 25.4,31 5.28,5.28 0 0 1 25,29.38 a 1.12,1.12 0 0 0 -1.29,-0.92 1.14,1.14 0 0 0 -0.94,1 6.25,6.25 0 0 0 2.09,4.13 5.23,5.23 0 0 0 4.29,1.06 c 2.05,-0.27 3.34,-0.54 5.12,-4.25 A 7.32,7.32 0 0 0 35,27 Z"
         id="path32" />
    </g>
  </g>
  <rect
     class="cls-8"
     width="36"
     height="36"
     id="rect36"
     x="0"
     y="0" />
</svg>
