<?xml version="1.0" encoding="utf-8"?>
<!-- Generator: Adobe Illustrator 25.0.0, SVG Export Plug-In . SVG Version: 6.00 Build 0)  -->
<svg version="1.1" id="Ebene_1" xmlns="http://www.w3.org/2000/svg" xmlns:xlink="http://www.w3.org/1999/xlink" x="0px" y="0px"
	 viewBox="0 0 1895.9 1895.9" style="enable-background:new 0 0 1895.9 1895.9;" xml:space="preserve">
<style type="text/css">
	.st0{fill:#C6E5B3;}
	.st1{fill:#77B255;}
	.st2{fill:#FFFFFF;}
	.st3{fill:#292F33;}
	.st4{fill:#5C913B;}
	.st5{fill:#66757F;}
	.st6{fill:#31373D;}
	.st7{fill:#55ACEE;}
	.st8{fill:none;}
</style>
<g id="Ebene_2_1_">
	<g id="Ebene_1-2">
		<path class="st0" d="M1649.5,1333.9c0,288.6-311.9,464.4-696.6,464.4s-696.6-175.8-696.6-464.4s311.9-580.5,696.6-580.5
			S1649.5,1045.4,1649.5,1333.9z"/>
		<path class="st1" d="M1485.2,973.1c55-44,86.9-110.6,86.9-181c0-128.2-104-232.2-232.2-232.2c-110.7,0-203.2,77.5-226.4,181.3
			c-103.5-39.1-217.7-39.1-321.1,0C769.1,637.5,676.6,560,565.9,560c-128.2,0-232.2,104-232.2,232.2c0,70.4,31.9,137,86.9,181
			c-102.4,103.7-164.3,232.5-164.3,360.8c0,288.6,311.9,38.7,696.6,38.7s696.6,249.8,696.6-38.7
			C1649.5,1205.7,1587.6,1076.8,1485.2,973.1z"/>
		<circle class="st2" cx="546.6" cy="772.8" r="135.5"/>
		<circle class="st3" cx="546.6" cy="772.8" r="58"/>
		<circle class="st2" cx="1359.2" cy="772.8" r="135.4"/>
		<circle class="st3" cx="1359.2" cy="772.8" r="58.1"/>
		<circle class="st4" cx="798.1" cy="1256.6" r="38.7"/>
		<circle class="st4" cx="1107.7" cy="1256.6" r="38.7"/>
		<path class="st5" d="M948,125.4c-436.3,0-790,353.7-790,790v474h158v-474c0-368.7,277.5-641.9,632-641.9s632,273.2,632,641.9V1442
			l158-52.7v-474C1737.9,479.1,1384.2,125.4,948,125.4z"/>
		<path class="st6" d="M316,1547.3c0,58.2-47.2,105.3-105.3,105.3H105.3C47.2,1652.6,0,1605.5,0,1547.3v-474
			C0,1015.1,47.2,968,105.3,968h105.3c58.2,0,105.3,47.2,105.3,105.3V1547.3z M1895.9,1547.3c0,58.2-47.2,105.3-105.3,105.3h-105.3
			c-58.2,0-105.3-47.2-105.3-105.3v-474c0-58.2,47.2-105.3,105.3-105.3h105.3c58.2,0,105.3,47.2,105.3,105.3L1895.9,1547.3z"/>
		<path class="st7" d="M1047.1,97.9l-132.7,27.4c-9.4,1.9-17,11.3-17,20.9v337.4c-14-5-28.7-7.5-43.5-7.5
			c-58.1,0-105.1,36.6-105.1,81.8s47.1,79.8,105.1,79.8c57,0,104.4-39.8,106-81.5V230.8l87.6-18.2c9.4-1.9,16.6-11.4,16.6-20.9
			v-79.9C1064.2,102.3,1056.5,96,1047.1,97.9z M1213.9,163.6l-89.6,18c-9.4,1.9-18.4,11.3-18.4,20.9v237.8c0-3.2-18.3-5-29.2-5
			c-42.2,0-75.8,26.6-75.8,59.5s34.6,59.4,76.8,59.4s76.7-26.6,76.7-59.4l-0.3-235.3l59.8-12.5c9.4-1.9,17-11.3,17-20.9v-48.6
			C1231,168,1223.3,161.7,1213.9,163.6z"/>
		<rect y="0" class="st8" width="1895.9" height="1895.9"/>
	</g>
</g>
</svg>
