<?xml version="1.0" encoding="utf-8"?>
<!-- Generator: Adobe Illustrator 25.0.0, SVG Export Plug-In . SVG Version: 6.00 Build 0)  -->
<svg version="1.1" id="Ebene_1" xmlns="http://www.w3.org/2000/svg" xmlns:xlink="http://www.w3.org/1999/xlink" x="0px" y="0px"
	 viewBox="0 0 224.6 224.6" style="enable-background:new 0 0 224.6 224.6;" xml:space="preserve">
<style type="text/css">
	.st0{fill:#C6E5B3;}
	.st1{fill:#875A39;}
	.st2{fill:#A87C4F;}
	.st3{fill:#292F33;}
	.st4{fill:#C31C2E;stroke:#292F33;stroke-width:1.5;stroke-linecap:round;stroke-linejoin:round;}
	.st5{fill:none;stroke:#292F33;stroke-linecap:round;stroke-linejoin:round;}
	.st6{fill:none;stroke:#292F33;stroke-width:1.5;stroke-linecap:round;stroke-linejoin:round;}
	.st7{fill:#77B255;}
	.st8{fill:#FFFFFF;}
	.st9{opacity:0.8;fill:#C31C2E;enable-background:new    ;}
	.st10{fill:#5C913B;}
	.st11{fill:#B3B3B3;}
	.st12{fill:none;}
</style>
<g id="Ebene_2_1_">
	<g id="Ebene_1-2">
		<g id="Ebene_2-2">
			<path class="st0" d="M202.9,114.2c10.1,40.1-27.1,75.5-80.6,88.9S19.3,203,9.2,162.9s23-91.6,76.5-105.1S192.8,74.1,202.9,114.2z
				"/>
			<path class="st1" d="M217.9,161.4c-0.1,0.4-0.2,0.8-0.3,1.1c0,0.2-0.1,0.4-0.2,0.5c-0.1,0.2-0.2,0.5-0.3,0.7
				c-0.1,0.1-0.1,0.3-0.2,0.4c-0.1,0.2-0.2,0.3-0.3,0.5l-0.3,0.4c-0.2,0.2-0.4,0.4-0.6,0.5c-0.2,0.1-0.4,0.3-0.6,0.4
				c-0.3,0.2-0.7,0.3-1,0.4l-0.5,0.1c-0.3,0.1-0.6,0.1-0.9,0.1c-0.9,0.1-1.9,0-2.8-0.1c-16,0-40.1-4.8-66.5-11
				c-4.5-1.1-9.1-2.1-13.7-3.2c-7.7-1.9-15.5-3.8-23.2-5.6h-0.2c-0.8-0.2-1.2-1-1.3-1.9l0,0l1.2-0.3L217.9,161.4z"/>
			<path class="st2" d="M219.5,158.9l-0.4,0.6c-0.1,0.2-0.3,0.4-0.4,0.7l-0.5,0.7l-0.3,0.4c0,0,0,0.1,0,0.1l0,0l-111.7-17.1l1.3-0.3
				c5.1-1.3,10.3-2.3,15.5-3l0,0l74.5,3.7c1.3-0.3,2.5-0.5,3.7-0.6c0.8-0.1,1.6-0.2,2.4-0.3c1.3-0.1,2.6-0.2,3.9-0.2l5,2.3l0.3,0.2
				l0.3,0.2l0,0c0.6,0.5,1.2,1,1.8,1.6c1.8,1.7,2.2,3.1,1.8,4.2l0,0l0.3,0.2c0.2,0.1,0.4,0.3,0.6,0.5
				C219.7,154.2,221.1,155.9,219.5,158.9z"/>
			<path class="st3" d="M123,141l74.5,3.7c1.3-0.3,2.5-0.5,3.7-0.6c0.8-0.1,1.6-0.2,2.4-0.3c1.2-0.1,2.4-0.2,3.6-0.2h0.3l5,2.3
				l0.3,0.2l0.3,0.2l0,0c0.6,0.5,1.2,1,1.8,1.6c1.8,1.7,2.2,3.1,1.8,4.2l0.3,0.2c0.2,0.1,0.4,0.3,0.6,0.5c2,1.4,3.4,3.1,1.8,6.2
				l-0.4,0.6c-0.1,0.2-0.3,0.4-0.4,0.7l-0.5,0.7c-0.1,0.1-0.2,0.2-0.3,0.4s0,0.1,0,0.1l0,0c-0.1,0.4-0.2,0.8-0.3,1.1
				c0,0.2-0.1,0.4-0.2,0.5c-0.1,0.2-0.2,0.5-0.3,0.7c-0.1,0.1-0.1,0.3-0.2,0.4c-0.1,0.2-0.2,0.3-0.3,0.5l-0.3,0.4
				c-0.2,0.2-0.4,0.4-0.6,0.5c-0.2,0.2-0.4,0.3-0.6,0.4c-0.3,0.2-0.7,0.3-1,0.4l-0.5,0.1c-0.3,0.1-0.6,0.1-0.9,0.1
				c-0.3,0-0.6,0-0.9,0.1c-0.6,0-1.3-0.1-1.9-0.2c-16,0-40.1-4.8-66.5-11c-4.5-1.1-9.1-2.1-13.7-3.2c-7.7-1.8-15.5-3.8-23.2-5.6
				h-0.2c-0.8-0.2-1.2-1-1.3-1.9l0,0l0,0l1.2-0.3l1.3-0.3C112.5,142.7,117.7,141.7,123,141L123,141 M122.9,139.5h-0.2
				c-5.3,0.7-10.5,1.7-15.7,3l-0.7,0.2l-0.6,0.2l-0.6,0.2l-0.6,0.1c-0.4,0.1-0.7,0.3-0.9,0.7c-0.2,0.3-0.3,0.7-0.2,1.1
				c0.1,1.4,1,2.7,2.4,3.1l0.3,0.1l4.6,1.1c6.1,1.5,12.4,3,18.6,4.5c4.1,1,8.6,2.1,13.7,3.2c23.3,5.4,49.4,10.9,66.8,11
				c0.7,0.1,1.3,0.2,2,0.2c0.4,0,0.7,0,1.1-0.1c0.3,0,0.7-0.1,1.1-0.2l0.5-0.1h0.1l0,0c0.4-0.1,0.8-0.3,1.2-0.5
				c0.3-0.2,0.6-0.3,0.8-0.6c0.3-0.2,0.5-0.4,0.7-0.6V166c0.1-0.1,0.2-0.2,0.3-0.4l0.1-0.1c0.1-0.2,0.3-0.4,0.4-0.6
				c0.1-0.1,0.2-0.3,0.3-0.4c0.2-0.3,0.3-0.6,0.4-0.9c0.1-0.2,0.2-0.4,0.3-0.6c0.1-0.3,0.2-0.7,0.3-1l0.1-0.1
				c0.2-0.2,0.4-0.5,0.6-0.7c0.2-0.3,0.4-0.5,0.5-0.8c0.1-0.2,0.3-0.4,0.4-0.6l0,0c2.4-4.7-0.9-7.1-2.2-8.1l-0.2-0.2
				c0.1-1.5-0.8-3-2.4-4.6c-0.6-0.6-1.2-1.1-1.9-1.6H214l-0.3-0.2l-0.3-0.2l-0.2-0.1l-5-2.3c-0.2-0.1-0.4-0.1-0.6-0.1h-0.3
				c-1.2,0-2.5,0.1-3.7,0.2c-0.9,0.1-1.7,0.2-2.5,0.3c-1.1,0.1-2.3,0.3-3.6,0.6L122.9,139.5L122.9,139.5z"/>
			<path class="st4" d="M217.9,161.3c-0.6,3.4-2.5,5.2-5.8,5.3c-2.3-0.5-2.4-2.8-4.5-3.7c-3.9-1.9-3.4-3.2-0.8-2.7
				c2.8,0.6,3.8-0.2,0.6-4c-1.2-1.3-0.2-2.3,2.4-2.4c0.9-0.7-0.1-2.5-1.5-2.2c-1.3,0.3-2.6,0.2-3.9-0.3c-3.2-2.7,0.2-2.6,3.3-2.7
				c-0.8-0.2-0.9-0.9-1-1.5c1.2-0.5,2.2-1.4,2.9-2.6l2.9,1.3c3.7,2.7,4.7,4.7,4.2,6.2C219.7,154,222.2,156.1,217.9,161.3z"/>
			<path class="st5" d="M212,162.7c2.1-0.6,2.3-1.2,0.6-2"/>
			<path class="st5" d="M212.1,156.8c1.1-1.3,2.3-0.4,1.7,1.6"/>
			<path class="st5" d="M215.4,154.4c1.3,0.3,1.8,0.9,0.8,1.9"/>
			<path class="st5" d="M212.4,151.5c0.9-1.1,1.5-0.7,1.6,1.1"/>
			<line class="st6" x1="129.3" y1="141.3" x2="120" y2="149.9"/>
			<line class="st6" x1="178.6" y1="143.7" x2="161.5" y2="159.6"/>
			<g id="Ebene_1-2-2">
				<path class="st7" d="M167.4,69.8c11.1-14.7,8.2-35.5-6.5-46.6c-14.7-11.1-35.5-8.2-46.6,6.5c-4.5,6-6.9,13.4-6.7,20.9
					C91.9,48.7,76,52.7,63,61.8C54.8,45.4,34.7,38.7,18.3,47S-4.7,75.2,3.5,91.7c3.4,6.8,9,12.2,15.9,15.3
					C8.8,125,4.7,145.1,9.2,162.9c10.1,40.1,44.7-5.5,98.2-19s105.6,10.4,95.5-29.8C198.4,96.4,185.3,80.6,167.4,69.8z"/>
				<circle class="st8" cx="29.9" cy="74.8" r="19.4"/>
				<circle class="st9" cx="29.9" cy="74.8" r="19.4"/>
				<circle class="st3" cx="29.9" cy="74.8" r="8.3"/>
				<circle class="st8" cx="142.9" cy="46.3" r="19.4"/>
				<circle class="st9" cx="142.9" cy="46.3" r="19.4"/>
				<circle class="st3" cx="142.9" cy="46.3" r="8.3"/>
				<circle class="st10" cx="81.8" cy="133.2" r="5.6"/>
				<circle class="st10" cx="124.9" cy="122.4" r="5.6"/>
			</g>
		</g>
		<path class="st11" d="M216.8,142.4c0.1-8.9-0.1-17.9-12.9-26.2c-9-6-9.2-11.9-5.9-17.9c5.3-8.5-6.4-16.8-14.7-27.5
			c8.9,6.9,16.9,15,21.1,27.9c0.1,11.5,4.9,14.4,12.1,13.2C229.6,114.3,224.6,129.1,216.8,142.4z"/>
		<path class="st11" d="M208.1,85.2c1.4-5.9,2.7-11.9-4.6-19.3c-5.1-5.4-4.3-9.3-1.2-12.8c4.8-4.8-1.7-12.2-5.6-20.5
			c4.9,5.9,9,12.5,9.8,21.7c-1.7,7.6,1.1,10.3,6,10.6C220.9,68.5,215.3,77.6,208.1,85.2z"/>
		<rect y="0" class="st12" width="224.6" height="224.6"/>
	</g>
</g>
</svg>
