<?xml version="1.0" encoding="utf-8"?>
<!-- Generator: Adobe Illustrator 25.0.0, SVG Export Plug-In . SVG Version: 6.00 Build 0)  -->
<svg version="1.1" id="Ebene_1" xmlns="http://www.w3.org/2000/svg" xmlns:xlink="http://www.w3.org/1999/xlink" x="0px" y="0px"
	 viewBox="0 0 387.1 387.1" style="enable-background:new 0 0 387.1 387.1;" xml:space="preserve">
<style type="text/css">
	.st0{fill:#C6E5B3;}
	.st1{fill:#77B255;}
	.st2{fill:#5C913B;}
	.st3{fill:#FFFFFF;}
	.st4{fill:#292F33;}
	.st5{fill:none;}
</style>
<g id="Ebene_2_1_">
	<g id="Ebene_1-2">
		<path class="st0" d="M164,99.6h87.1c48.2,90.5,50.8,186.5,12.5,287.5H116.5c-32.4-60.6-29.3-129.3,15.9-174.2
			c4.2-4.1,6.3-9.8,5.7-15.6C134.8,160.4,141.6,128.7,164,99.6z"/>
		<path class="st1" d="M109.2,37.6h15.9c20.6,0,38.9,20.9,38.9,62.1h87.1c-6.3-37,5.6-61.6,41.1-70.2L260.5,0H109.2V37.6z"/>
		<rect x="109.2" y="0" class="st2" width="15.7" height="37.6"/>
		<path class="st2" d="M159.9,69.4c-5.1,16.1-18.4,25-35.8,30.3L117,90c16.5-10.8,27.5-24.9,26-46.5C151,49.8,156.7,58.2,159.9,69.4
			z"/>
		<circle class="st3" cx="174.8" cy="30.4" r="22"/>
		<circle class="st4" cx="174.8" cy="30.4" r="9.4"/>
		<circle class="st3" cx="234.7" cy="30.4" r="22"/>
		<circle class="st4" cx="234.7" cy="30.4" r="9.4"/>
		<rect y="0" class="st5" width="387.1" height="387.1"/>
	</g>
</g>
</svg>
