<?xml version="1.0" encoding="utf-8"?>
<!-- Generator: Adobe Illustrator 25.0.0, SVG Export Plug-In . SVG Version: 6.00 Build 0)  -->
<svg version="1.1" id="Ebene_1" xmlns="http://www.w3.org/2000/svg" xmlns:xlink="http://www.w3.org/1999/xlink" x="0px" y="0px"
	 viewBox="0 0 36 36" style="enable-background:new 0 0 36 36;" xml:space="preserve">
<style type="text/css">
	.st0{fill:none;}
	.st1{fill:#F4900C;}
	.st2{fill:#FFCC4D;}
	.st3{fill:#FFE8B6;}
	.st4{fill:#FFAC33;}
	.st5{fill:#292F33;}
</style>
<g id="Ebene_2_1_">
	<g id="Ebene_1-2">
		<rect y="0" class="st0" width="36" height="36"/>
		<circle class="st1" cx="8.7" cy="10.2" r="8.4"/>
		<circle class="st2" cx="8.7" cy="9.2" r="8.4"/>
		<circle class="st3" cx="8.7" cy="9.7" r="6.9"/>
		<circle class="st4" cx="8.7" cy="9.2" r="6.9"/>
		<path class="st1" d="M14,10.8c0,2.2-2.4,3.5-5.3,3.5S3.4,13,3.4,10.8s2.4-4.4,5.3-4.4S14,8.6,14,10.8z"/>
		<path class="st1" d="M12.7,8c0.8-0.6,0.9-1.7,0.3-2.5c-0.3-0.4-0.8-0.7-1.4-0.7c-0.8,0-1.6,0.6-1.7,1.4C9.5,6.1,9.1,6,8.7,6
			C8.3,6,7.8,6.1,7.4,6.2C7.1,5.3,6.2,4.8,5.2,5.1C4.5,5.3,4,5.9,4,6.6c0,0.5,0.2,1,0.6,1.3c-0.8,0.7-1.2,1.7-1.2,2.8
			c0,2.2,2.4,0.3,5.3,0.3s5.3,2,5.3-0.3C14,9.7,13.5,8.7,12.7,8z"/>
		<path class="st3" d="M14,10.4c0,2.2-2.4,3.5-5.3,3.5s-5.3-1.3-5.3-3.5S5.7,6,8.7,6S14,8.2,14,10.4z"/>
		<path class="st2" d="M12.7,7.6C13.5,7,13.6,5.9,13,5.2c-0.3-0.4-0.8-0.7-1.4-0.7c-0.8,0-1.5,0.6-1.7,1.4C9.5,5.7,9.1,5.7,8.7,5.7
			c-0.4,0-0.8,0.1-1.2,0.2C7.2,4.9,6.2,4.4,5.2,4.7C4.5,4.9,4.1,5.6,4,6.3c0,0.5,0.2,1,0.7,1.4c-0.8,0.7-1.2,1.7-1.3,2.7
			c0,2.2,2.4,0.3,5.3,0.3s5.3,1.9,5.3-0.3C14,9.4,13.5,8.4,12.7,7.6z"/>
		<circle class="st3" cx="5.6" cy="6.1" r="1"/>
		<circle class="st5" cx="5.6" cy="6.1" r="0.4"/>
		<circle class="st3" cx="11.8" cy="6.1" r="1"/>
		<circle class="st5" cx="11.8" cy="6.1" r="0.4"/>
		<circle class="st4" cx="7.5" cy="9.8" r="0.3"/>
		<circle class="st4" cx="9.9" cy="9.8" r="0.3"/>
		<circle class="st1" cx="23.3" cy="13.8" r="12.3"/>
		<circle class="st2" cx="23.3" cy="12.4" r="12.3"/>
		<circle class="st3" cx="23.3" cy="13.1" r="10.1"/>
		<circle class="st4" cx="23.3" cy="12.4" r="10.1"/>
		<path class="st1" d="M31.1,14.6c0,3.2-3.5,5.2-7.8,5.2s-7.8-2-7.8-5.2s3.5-6.5,7.8-6.5S31.1,11.4,31.1,14.6z"/>
		<path class="st1" d="M29.3,10.6c1.1-0.9,1.3-2.5,0.4-3.7S27.2,5.7,26,6.6c-0.5,0.4-0.8,0.9-0.9,1.4c-1.2-0.4-2.4-0.4-3.6,0
			c-0.3-1.4-1.7-2.3-3.1-1.9c-1.2,0.3-2,1.3-2,2.5c0,0.8,0.4,1.5,1,2c-1.1,1-1.8,2.5-1.8,4c0,3.2,3.5,0.4,7.8,0.4s7.8,2.8,7.8-0.4
			C31.1,13.1,30.4,11.6,29.3,10.6z"/>
		<path class="st3" d="M31.1,14.1c0,3.2-3.5,5.2-7.8,5.2s-7.8-2-7.8-5.2s3.5-6.5,7.8-6.5S31.1,10.9,31.1,14.1z"/>
		<path class="st2" d="M29.3,10.1c1.1-0.9,1.3-2.5,0.4-3.7S27.2,5.1,26.1,6c-0.5,0.4-0.8,0.9-0.9,1.5C24,7,22.7,7,21.5,7.5
			c-0.3-1.4-1.7-2.3-3.1-2s-2.3,1.7-2,3.1c0.1,0.6,0.5,1.1,0.9,1.5c-1.1,1-1.8,2.5-1.8,4c0,3.2,3.5,0.4,7.8,0.4s7.8,2.8,7.8-0.4
			C31.1,12.5,30.4,11.1,29.3,10.1z"/>
		<circle class="st3" cx="18.8" cy="7.8" r="1.5"/>
		<circle class="st5" cx="18.8" cy="7.8" r="0.6"/>
		<circle class="st3" cx="27.9" cy="7.8" r="1.5"/>
		<circle class="st5" cx="27.9" cy="7.8" r="0.6"/>
		<circle class="st4" cx="21.6" cy="13.2" r="0.4"/>
		<circle class="st4" cx="25.1" cy="13.2" r="0.4"/>
		<circle class="st1" cx="27.2" cy="25.7" r="8.2"/>
		<circle class="st2" cx="27.2" cy="24.7" r="8.2"/>
		<circle class="st3" cx="27.2" cy="25.2" r="6.8"/>
		<circle class="st4" cx="27.2" cy="24.7" r="6.8"/>
		<path class="st1" d="M32.4,26.2c0,2.2-2.3,3.5-5.2,3.5S22,28.4,22,26.2s2.3-4.4,5.2-4.4S32.4,24.1,32.4,26.2z"/>
		<path class="st1" d="M31.2,23.5c0.8-0.6,0.9-1.7,0.3-2.5c-0.6-0.8-1.7-0.9-2.5-0.3c-0.3,0.3-0.5,0.6-0.6,1
			c-0.4-0.1-0.8-0.2-1.2-0.2c-0.4,0-0.8,0.1-1.2,0.2c-0.2-0.9-1.1-1.5-2.1-1.3c-0.9,0.2-1.5,1.1-1.3,2.1c0.1,0.4,0.3,0.7,0.6,1
			c-0.7,0.7-1.2,1.7-1.2,2.7c0,2.2,2.3,0.3,5.2,0.3s5.2,1.9,5.2-0.3C32.4,25.2,32,24.2,31.2,23.5z"/>
		<path class="st3" d="M32.4,25.9c0,2.2-2.3,3.5-5.2,3.5S22,28,22,25.9s2.3-4.4,5.2-4.4S32.4,23.7,32.4,25.9z"/>
		<path class="st2" d="M31.2,23.2c0.4-0.3,0.6-0.8,0.6-1.4c0-1-0.8-1.7-1.8-1.7c-0.8,0-1.5,0.6-1.7,1.3c-0.4-0.1-0.8-0.2-1.2-0.2
			c-0.4,0-0.8,0.1-1.2,0.2c-0.2-0.9-1.2-1.5-2.1-1.3c-0.9,0.2-1.5,1.2-1.3,2.1c0.1,0.4,0.3,0.7,0.6,1c-0.7,0.7-1.2,1.7-1.2,2.7
			c0,2.2,2.3,0.3,5.2,0.3s5.2,1.9,5.2-0.3C32.4,24.8,32,23.9,31.2,23.2z"/>
		<circle class="st3" cx="24.2" cy="21.7" r="1"/>
		<circle class="st5" cx="24.2" cy="21.7" r="0.4"/>
		<circle class="st3" cx="30.3" cy="21.7" r="1"/>
		<circle class="st5" cx="30.3" cy="21.7" r="0.4"/>
		<circle class="st4" cx="26" cy="25.3" r="0.3"/>
		<circle class="st4" cx="28.4" cy="25.3" r="0.3"/>
		<circle class="st1" cx="10.5" cy="25.9" r="10.1"/>
		<circle class="st2" cx="10.5" cy="24.7" r="10.1"/>
		<circle class="st3" cx="10.5" cy="25.3" r="8.4"/>
		<circle class="st4" cx="10.5" cy="24.7" r="8.4"/>
		<path class="st1" d="M16.9,26.6c0,2.7-2.9,4.3-6.4,4.3S4,29.2,4,26.6s2.9-5.4,6.4-5.4S16.9,23.9,16.9,26.6z"/>
		<path class="st1" d="M15.4,23.2c0.9-0.7,1.1-2.1,0.4-3c-0.4-0.5-1-0.8-1.7-0.8c-1,0-1.9,0.7-2.1,1.7c-0.5-0.2-1-0.3-1.5-0.3
			c-0.5,0-1,0.1-1.5,0.3c-0.3-1.2-1.4-1.9-2.6-1.6S4.5,20.9,4.8,22c0.1,0.5,0.4,0.9,0.8,1.2c-0.9,0.9-1.5,2.1-1.5,3.3
			c0,2.7,2.9,0.4,6.4,0.4s6.4,2.3,6.4-0.4C16.9,25.3,16.3,24.1,15.4,23.2z"/>
		<path class="st3" d="M16.9,26.1c0,2.7-2.9,4.3-6.4,4.3S4,28.8,4,26.1s2.9-5.4,6.4-5.4S16.9,23.4,16.9,26.1z"/>
		<path class="st2" d="M15.4,22.8c0.9-0.7,1.1-2.1,0.4-3c-0.7-0.9-2.1-1.1-3-0.4c-0.4,0.3-0.7,0.7-0.8,1.2c-0.5-0.2-1-0.3-1.5-0.3
			c-0.5,0-1,0.1-1.5,0.3c-0.3-1.2-1.4-1.9-2.6-1.6s-1.9,1.4-1.6,2.6c0.1,0.5,0.4,0.9,0.8,1.2c-0.9,0.9-1.5,2.1-1.5,3.3
			c0,2.7,2.9,0.4,6.4,0.4s6.4,2.3,6.4-0.4C16.9,24.8,16.3,23.6,15.4,22.8z"/>
		<circle class="st3" cx="6.7" cy="20.9" r="1.2"/>
		<circle class="st5" cx="6.7" cy="20.9" r="0.5"/>
		<circle class="st3" cx="14.2" cy="20.9" r="1.2"/>
		<circle class="st5" cx="14.2" cy="20.9" r="0.5"/>
		<circle class="st4" cx="9.1" cy="25.4" r="0.4"/>
		<circle class="st4" cx="11.9" cy="25.4" r="0.4"/>
	</g>
</g>
</svg>
