<?xml version="1.0" encoding="UTF-8" standalone="no"?>
<svg
   viewBox="0 0 45 45"
   style="enable-background:new 0 0 45 45;"
   xml:space="preserve"
   version="1.1"
   id="svg2"
   sodipodi:docname="frogGun.svg"
   inkscape:version="1.2.2 (b0a8486541, 2022-12-01)"
   xmlns:inkscape="http://www.inkscape.org/namespaces/inkscape"
   xmlns:sodipodi="http://sodipodi.sourceforge.net/DTD/sodipodi-0.dtd"
   xmlns:xlink="http://www.w3.org/1999/xlink"
   xmlns="http://www.w3.org/2000/svg"
   xmlns:svg="http://www.w3.org/2000/svg"
   xmlns:rdf="http://www.w3.org/1999/02/22-rdf-syntax-ns#"
   xmlns:cc="http://creativecommons.org/ns#"
   xmlns:dc="http://purl.org/dc/elements/1.1/"><sodipodi:namedview
     id="namedview46795"
     pagecolor="#505050"
     bordercolor="#ffffff"
     borderopacity="1"
     inkscape:pageshadow="0"
     inkscape:pageopacity="0"
     inkscape:pagecheckerboard="1"
     showgrid="false"
     inkscape:zoom="8"
     inkscape:cx="-5.0625"
     inkscape:cy="42.75"
     inkscape:window-width="1920"
     inkscape:window-height="1055"
     inkscape:window-x="1920"
     inkscape:window-y="25"
     inkscape:window-maximized="1"
     inkscape:current-layer="svg2"
     inkscape:showpageshadow="0"
     inkscape:deskcolor="#505050" /><metadata
     id="metadata8"><rdf:RDF><cc:Work
         rdf:about=""><dc:format>image/svg+xml</dc:format><dc:type
           rdf:resource="http://purl.org/dc/dcmitype/StillImage" /></cc:Work></rdf:RDF></metadata><defs
     id="defs6"><inkscape:path-effect
       effect="spiro"
       id="path-effect74976"
       is_visible="true"
       lpeversion="1" /><inkscape:path-effect
       effect="spiro"
       id="path-effect71330"
       is_visible="true"
       lpeversion="1" /><inkscape:path-effect
       effect="spiro"
       id="path-effect69142"
       is_visible="true"
       lpeversion="1" /><linearGradient
       id="linearGradient44721"
       inkscape:swatch="gradient"><stop
         style="stop-color:#000000;stop-opacity:1;"
         offset="0"
         id="stop44717" /><stop
         style="stop-color:#000000;stop-opacity:0;"
         offset="1"
         id="stop44719" /></linearGradient><linearGradient
       inkscape:collect="always"
       id="linearGradient3408"><stop
         style="stop-color:#141a1a;stop-opacity:1;"
         offset="0.47416002"
         id="stop3404" /><stop
         style="stop-color:#ffffff;stop-opacity:1;"
         offset="0.51077819"
         id="stop3412" /><stop
         style="stop-color:#141a1a;stop-opacity:1;"
         offset="0.55513686"
         id="stop3406" /></linearGradient><inkscape:path-effect
       effect="spiro"
       id="path-effect14170"
       is_visible="true"
       lpeversion="1" /><inkscape:path-effect
       effect="spiro"
       id="path-effect14164"
       is_visible="true"
       lpeversion="1" /><inkscape:path-effect
       effect="spiro"
       id="path-effect14158"
       is_visible="true"
       lpeversion="1" /><inkscape:path-effect
       effect="spiro"
       id="path-effect14148"
       is_visible="true"
       lpeversion="1" /><inkscape:path-effect
       effect="spiro"
       id="path-effect14144"
       is_visible="true"
       lpeversion="1" /><inkscape:path-effect
       effect="spiro"
       id="path-effect14042"
       is_visible="true"
       lpeversion="1" /><inkscape:path-effect
       effect="spiro"
       id="path-effect14036"
       is_visible="true"
       lpeversion="1" /><inkscape:path-effect
       effect="spiro"
       id="path-effect4098"
       is_visible="true"
       lpeversion="1" /><inkscape:path-effect
       effect="spiro"
       id="path-effect4045"
       is_visible="true"
       lpeversion="1" /><linearGradient
       inkscape:collect="always"
       id="linearGradient8530"><stop
         style="stop-color:#393b3a;stop-opacity:1;"
         offset="0.09097583"
         id="stop10069" /><stop
         style="stop-color:#b1b1b1;stop-opacity:1;"
         offset="0.53782517"
         id="stop8526" /><stop
         style="stop-color:#5b5a5d;stop-opacity:1;"
         offset="1"
         id="stop8528" /></linearGradient><inkscape:perspective
       sodipodi:type="inkscape:persp3d"
       inkscape:vp_x="0 : 22.5 : 1"
       inkscape:vp_y="0 : 1000 : 0"
       inkscape:vp_z="45 : 22.5 : 1"
       inkscape:persp3d-origin="22.5 : 15 : 1"
       id="perspective2352" /><clipPath
       id="clipPath16"
       clipPathUnits="userSpaceOnUse"><path
         id="path18"
         d="M 0,36 36,36 36,0 0,0 0,36 Z" /></clipPath><linearGradient
       inkscape:collect="always"
       xlink:href="#linearGradient8530"
       id="linearGradient8532"
       x1="8.9470139"
       y1="24.136837"
       x2="9.5486717"
       y2="23.2959"
       gradientUnits="userSpaceOnUse" /><linearGradient
       inkscape:collect="always"
       xlink:href="#linearGradient3408"
       id="linearGradient3410"
       x1="7.0328622"
       y1="22.474762"
       x2="7.9400601"
       y2="21.468416"
       gradientUnits="userSpaceOnUse" /></defs><g
     id="g9287"
     inkscape:label="frog"
     sodipodi:insensitive="true"
     style="enable-background:new 0 0 45 45"
     transform="matrix(1.25,0,0,-1.25,0,45)"><path
       id="path22"
       style="fill:#c6e5b3;fill-opacity:1;fill-rule:nonzero;stroke:none"
       d="M 36,14 C 36,6.544 27.941,2 18,2 8.059,2 0,6.544 0,14 h 36"
       sodipodi:nodetypes="cscc" /><path
       id="path26"
       style="fill:#77b255;fill-opacity:1;fill-rule:nonzero;stroke:none"
       d="m 31.7549,23.3242 c 1.368,1.1 2.245,2.785 2.245,4.676 0,3.313 -2.686,6 -6,6 -2.861,0 -5.25,-2.005 -5.85,-4.685 -1.289,0.483 -2.684,0.758 -4.15,0.758 -1.465,0 -2.861,-0.275 -4.149,-0.758 -0.601,2.68 -2.99,4.685 -5.851,4.685 -3.313,0 -6,-2.687 -6,-6 0,-1.891 0.878,-3.576 2.245,-4.676 -2.645,-2.68 -4.245,-6.009 -4.245,-9.324 0,-7.456 8.059,-1 18,-1 9.942,0 18,-6.456 18,1 0,3.315 -1.599,6.644 -4.245,9.324" /><path
       id="path30"
       style="fill:#ffffff;fill-opacity:1;fill-rule:nonzero;stroke:none"
       d="M 11,28.5 C 11,26.567 9.433,25 7.5,25 5.567,25 4,26.567 4,28.5 4,30.433 5.567,32 7.5,32 9.433,32 11,30.433 11,28.5" /><path
       id="path34"
       style="fill:#292f33;fill-opacity:1;fill-rule:nonzero;stroke:none"
       d="M 9,28.5 C 9,27.671 8.329,27 7.5,27 6.671,27 6,27.671 6,28.5 6,29.329 6.671,30 7.5,30 8.329,30 9,29.329 9,28.5" /><path
       id="path38"
       style="fill:#ffffff;fill-opacity:1;fill-rule:nonzero;stroke:none"
       d="M 32,28.5 C 32,26.567 30.434,25 28.5,25 26.566,25 25,26.567 25,28.5 c 0,1.933 1.566,3.5 3.5,3.5 1.934,0 3.5,-1.567 3.5,-3.5" /><path
       id="path42"
       style="fill:#292f33;fill-opacity:1;fill-rule:nonzero;stroke:none"
       d="M 30,28.5 C 30,27.671 29.328,27 28.5,27 27.672,27 27,27.671 27,28.5 c 0,0.829 0.672,1.5 1.5,1.5 0.828,0 1.5,-0.671 1.5,-1.5" /><path
       id="path46"
       style="fill:#5c913b;fill-opacity:1;fill-rule:nonzero;stroke:none"
       d="m 15,16 c 0,-0.553 -0.448,-1 -1,-1 -0.552,0 -1,0.447 -1,1 0,0.553 0.448,1 1,1 0.552,0 1,-0.447 1,-1" /><path
       id="path50"
       style="fill:#5c913b;fill-opacity:1;fill-rule:nonzero;stroke:none"
       d="m 23,16 c 0,-0.553 -0.447,-1 -1,-1 -0.553,0 -1,0.447 -1,1 0,0.553 0.447,1 1,1 0.553,0 1,-0.447 1,-1" /></g><g
     id="g49943"
     inkscape:label="pinky"
     style="enable-background:new 0 0 45 45"><path
       style="fill:#a4b569;fill-opacity:1;stroke:none;stroke-width:1px;stroke-linecap:butt;stroke-linejoin:miter;stroke-opacity:1"
       d="m 3.6633441,35.56517 c -0.2874226,1.072676 -0.1324787,1.762389 0.1938593,2.873833 0.1687312,0.623516 1.9678368,2.281628 2.370322,3.099842 0.4815975,1.358829 1.0142225,1.793032 2.2411712,3.002886 2.3749594,0.891191 6.0370564,0.180934 6.9421294,-0.641434 0,0 0.870842,-1.105148 1.185232,-2.045008 0,0 1.152991,-1.201828 1.031556,-2.240459 0,0 -13.6066866,-5.854012 -13.9642699,-4.04966 z"
       id="path45569"
       sodipodi:nodetypes="cccccscc"
       inkscape:label="finger" /><path
       id="path51405"
       style="fill:#dbe8aa;fill-opacity:1;stroke:none;stroke-width:1px;stroke-linecap:butt;stroke-linejoin:miter;stroke-opacity:1"
       inkscape:label="nail"
       d="M 17.626953,39.615234 C 16.847778,39.071458 16.378906,40.25 16.378906,40.25 c 0.02317,1.008972 0.216797,1.605469 0.216797,1.605469 0,0 1.152685,-1.201605 1.03125,-2.240235 z"
       sodipodi:nodetypes="cccc" /></g><g
     id="g45565"
     inkscape:label="ring_finger"
     style="enable-background:new 0 0 45 45"><path
       style="fill:#c1d47d;fill-opacity:1;stroke:none;stroke-width:1px;stroke-linecap:butt;stroke-linejoin:miter;stroke-opacity:1"
       d="m 3.2585778,31.594645 c -0.3020897,0.334231 -0.3468013,1.138962 -0.2523141,1.404969 0.2828751,0.79115 0.6792714,1.568522 0.6570804,2.565556 2.1661876,0.314712 3.01221,3.737545 5.8239186,5.393334 3.7855233,0.596941 5.4506863,0.03473 5.6437043,-0.0721 l 2.496647,-1.271574 c 1.033458,-1.025559 0.974385,-2.820235 1.072249,-3.00257 0.453341,-0.736043 0.949906,-2.0082 -0.169985,-2.639575 z"
       id="path44834"
       sodipodi:nodetypes="ccccccccc" /><path
       style="enable-background:new 0 0 45 45;fill:#dbe8aa;fill-opacity:1;stroke:none;stroke-width:1px;stroke-linecap:butt;stroke-linejoin:miter;stroke-opacity:1"
       d="m 18.703564,34.571134 c -0.164112,0.218235 -0.253785,0.685901 -0.253785,0.685901 0.145812,0.07541 0.396973,0.730291 0.408318,1.076752 0.691879,-1.834266 -0.154533,-1.762653 -0.154533,-1.762653 z"
       id="path46299"
       sodipodi:nodetypes="cccc"
       inkscape:label="nail" /></g><g
     id="g38554"
     inkscape:label="middle_finger"
     style="enable-background:new 0 0 45 45"><path
       style="fill:#a4b569;fill-opacity:1;stroke:none;stroke-width:1px;stroke-linecap:butt;stroke-linejoin:miter;stroke-opacity:1"
       d="m 6.8970297,34.148792 2.1998544,2.243892 c 0.6109607,0.539418 1.7976089,0.487421 1.7976089,0.487421 5.04769,0.828467 6.76379,-0.881065 6.76379,-0.881065 0.55018,-0.738086 0.890446,-2.454017 1.300263,-2.888861 0.004,-1.306396 -1.309629,-2.218348 -1.309629,-2.218348 -0.63201,-0.691826 -0.990354,0.150646 -0.990354,0.150646 l -4.368577,0.46779 -0.977962,2.030163 -2.3753127,-0.395552 z"
       id="path38551"
       sodipodi:nodetypes="ccccccccccc"
       inkscape:label="finger" /></g><g
     transform="matrix(1.25,0,0,-1.25,0,45)"
     id="g14140"
     inkscape:label="gun"><g
       id="g14054"
       inkscape:label="top"><path
         style="fill:#9fa8aa;fill-opacity:1;stroke:none;stroke-width:0.8px;stroke-linecap:butt;stroke-linejoin:miter;stroke-opacity:1"
         d="m 2.9346898,20.854746 6.6105558,3.830592 c 1.6728324,1.770959 2.9912594,-0.453041 2.9912594,-0.453041 0,0 0.252152,0.761796 0.477967,0.473657 l 0.03027,-0.159095 0.281176,-0.169185 0.02714,-0.279026 -0.1141,-0.398759 -0.671152,-0.872569 -3.4245312,-4.500661 z"
         id="path14046"
         sodipodi:nodetypes="ccccccccccc"
         inkscape:label="background" /><path
         id="path14050"
         style="fill:#4d4f50;fill-opacity:1;stroke:none;stroke-width:0.8px;stroke-linecap:butt;stroke-linejoin:miter;stroke-opacity:1"
         d="M 9.771875,24.334375 C 9.5200363,24.331075 9.2674313,24.303855 9.020312,24.254685 7.9020955,23.610096 8.9874,23.924591 8.9874,23.924591 c 0,0 2.066349,-0.205672 2.067288,-0.205841 l 0.279687,0.323437 c -0.09217,0.03685 -0.18665,0.06995 -0.28125,0.1 -0.26961,0.08564 -0.546666,0.143516 -0.828125,0.171875 -0.150451,0.01516 -0.3020218,0.0223 -0.453125,0.02031 z"
         sodipodi:nodetypes="sccccssss" /><path
         style="display:inline;fill:url(#linearGradient8532);fill-opacity:1;stroke:none;stroke-width:0.8px;stroke-linecap:butt;stroke-linejoin:miter;stroke-opacity:1"
         d="m 11.054167,23.719397 c -4.6e-5,0.0081 -0.962241,0.308656 -2.0678021,0.205097 0,0 -0.5022835,0.143599 -0.3433747,-0.190172 0.2048735,0.01087 0.4105392,0.0063 0.614791,-0.01426 0.2814595,-0.02836 0.5599629,-0.08597 0.8295738,-0.171613 0.206961,-0.06574 0.408676,-0.147977 0.60262,-0.245648 z"
         id="path14052"
         sodipodi:nodetypes="cccsscc" /><path
         style="fill:#434547;fill-opacity:0.996078;stroke:none;stroke-width:0.008;stroke-linecap:butt;stroke-linejoin:miter;stroke-dasharray:none;stroke-opacity:1"
         d="m 8.9874,23.924591 0.032912,0.330096 -1.1585859,-0.637401 c 0.2559913,0.06363 0.5179734,0.103068 0.7812643,0.117036 z"
         id="path6218"
         sodipodi:nodetypes="ccccc" /></g><g
       id="g14062"
       inkscape:label="finger_hole"><path
         style="fill:#313334;fill-opacity:1;stroke:none;stroke-width:0.8px;stroke-linecap:butt;stroke-linejoin:miter;stroke-opacity:1"
         d="M 9.8319888,10.791786 9.6296051,9.9969264 9.1227048,9.9156336 9.4198847,10.974797 Z"
         id="path14056"
         sodipodi:nodetypes="ccccc" /><path
         style="fill:#4f5354;fill-opacity:1;stroke:none;stroke-width:0.8px;stroke-linecap:butt;stroke-linejoin:miter;stroke-opacity:1"
         d="M 9.4838784,13.611975 7.149369,9.4840976 C 7.5255929,9.0172686 9.0496194,9.1676563 9.0496194,9.1676563 Z"
         id="path14058"
         sodipodi:nodetypes="cccc" /><path
         style="fill:#dfd8d5;fill-opacity:1;stroke:none;stroke-width:0.8px;stroke-linecap:butt;stroke-linejoin:miter;stroke-opacity:1"
         d="M 9.4838784,13.611975 9.8464552,14 c 0,0 -0.5786646,-3.931254 -0.5279688,-3.98195 0.1803988,-0.167366 0.5135022,0.773736 0.5135022,0.773736 C 9.7694208,9.8142973 9.0496192,9.167656 9.0496192,9.167656 Z"
         id="path14060"
         sodipodi:nodetypes="cccccc" /></g><g
       id="g14086"
       inkscape:label="side"><path
         style="fill:#5f6262;fill-opacity:1;stroke:none;stroke-width:0.8px;stroke-linecap:butt;stroke-linejoin:miter;stroke-opacity:1"
         d="m 13.746389,20.34388 0.920164,-0.401545 -0.01174,-0.261324 c -0.111272,-0.209103 -0.953278,-0.138882 -0.953278,-0.138882 l -0.164414,0.0068 -0.174127,0.153803 0.0013,0.209986 z"
         id="path14064"
         sodipodi:nodetypes="cccccccc"
         inkscape:label="back_nibble" /><path
         style="fill:#c0c8ca;fill-opacity:1;stroke:none;stroke-width:0.8px;stroke-linecap:butt;stroke-linejoin:miter;stroke-opacity:1"
         d="m 9.1432752,18.326659 3.4245308,4.500661 c 0,0 0.660282,0.866929 0.671152,0.872569 l -0.114099,-0.398759 0.115552,-0.729454 0.0042,-1.542871 -2.103276,-3.779227 -0.321321,0.120749 c 0,0 -0.8601302,-2.28995 -1.9517932,-2.473889 z"
         id="path14066"
         inkscape:label="side_top"
         sodipodi:nodetypes="cccccccccc" /><g
         id="g14080"
         inkscape:label="detail"
         style="display:inline"><path
           style="fill:#939a9a;fill-opacity:1;stroke:none;stroke-width:0.8px;stroke-linecap:butt;stroke-linejoin:miter;stroke-opacity:1"
           d="m 12.438372,19.580127 -0.293974,-0.52822 c 0.166077,-0.1935 0.777004,-0.005 0.777004,-0.005 0.184405,0.301487 -0.08681,0.494215 -0.08681,0.494215 -0.132608,0.197138 -0.39622,0.039 -0.39622,0.039 z"
           id="path14070"
           sodipodi:nodetypes="ccccc" /><path
           style="fill:#505757;fill-opacity:1;stroke:none;stroke-width:0.8px;stroke-linecap:butt;stroke-linejoin:miter;stroke-opacity:1"
           d="m 12.921402,19.046907 -0.304676,-0.334379 c -0.15164,-0.07131 -0.211611,0.05876 -0.211611,0.05876 0,0 -0.16605,-0.828823 -0.335735,-0.753352 0,0 -0.180273,-0.07426 -0.188134,0.018 -0.03117,-0.0747 -0.574667,-1.620774 -0.770088,-1.651886 0,0 -0.238382,0.411744 0.03018,0.865521 l 1.003063,1.802334 z"
           id="path14072"
           sodipodi:nodetypes="ccccccccc" /><path
           style="fill:#383c3c;fill-opacity:1;stroke:none;stroke-width:0.8px;stroke-linecap:butt;stroke-linejoin:miter;stroke-opacity:1"
           d="m 10.656857,14.886218 c 0,0 0.56696,-0.441201 0.942468,-0.345214 l 0.113809,1.902582 -0.473501,0.21605 -0.128475,-0.27559 c -0.457292,-0.253739 -0.454301,-1.497828 -0.454301,-1.497828 z"
           id="path14074"
           sodipodi:nodetypes="cccccc" /><path
           style="fill:#494d4e;fill-opacity:1;stroke:none;stroke-width:0.8px;stroke-linecap:butt;stroke-linejoin:miter;stroke-opacity:1"
           d="m 12.405115,18.771288 0.211611,-0.05876 0.469559,-0.739049 c 0,0 0.04877,-1.250272 -0.794938,-0.761612 -0.122313,0.176558 0.113768,1.559421 0.113768,1.559421 z"
           id="path14076"
           sodipodi:nodetypes="ccccc" /><path
           style="fill:#c0c3c2;fill-opacity:1;stroke:none;stroke-width:0.8px;stroke-linecap:butt;stroke-linejoin:miter;stroke-opacity:1"
           d="m 13.086234,17.97336 c 0,0 0.541188,0.188382 0.254981,0.825672 l -0.126835,0.110436 0.322741,0.639461 -0.174127,0.153803 -0.228525,-0.29787 -0.145989,0.121075 c -0.03867,0.122467 -0.153888,0.01518 -0.153888,0.01518 l 0.08681,-0.494215 -0.304676,-0.33438 -0.211611,0.05876 c 0,0 -1.5e-5,-2.9e-5 -0.335735,-0.753352 l -0.188134,0.018 -0.641613,-1.376294 0.473501,-0.216057 -0.113809,-1.902575 c 0,0 0.06221,-0.192286 0.249832,-0.0915 0.315379,0.343464 0.113563,2.016347 0.113563,2.016347 0.279879,0.162366 0.328627,0.746011 0.328627,0.746011 l 0.113768,1.559422 0.211611,-0.05876 z"
           id="path14078"
           sodipodi:nodetypes="cccccccccccccccccccccc" /><path
           style="enable-background:new 0 0 45 45;display:inline;fill:#3b4242;fill-opacity:1;stroke:none;stroke-width:1px;stroke-linecap:butt;stroke-linejoin:miter;stroke-opacity:1"
           d="m 16.312442,19.151203 0.121883,-0.219004 0.330934,0.11795 -0.03719,0.258314 c -0.117079,0.302368 -0.479705,-0.04627 -0.415627,-0.15726 z"
           id="path60112"
           sodipodi:nodetypes="ccccc"
           transform="matrix(0.8,0,0,-0.8,0,36)" /><path
           style="display:inline;fill:#2c3131;fill-opacity:1;stroke:none;stroke-width:0.8px;stroke-linecap:butt;stroke-linejoin:miter;stroke-opacity:1"
           d="m 13.467767,20.52095 -0.417813,0.158088 -0.611582,-1.098911 0.550108,-0.05419 z"
           id="path56054" /></g><path
         style="enable-background:new 0 0 45 45;display:inline;fill:#a5adaf;fill-opacity:1;stroke:none;stroke-width:0.8px;stroke-linecap:butt;stroke-linejoin:miter;stroke-opacity:1"
         d="M 7.149369,9.4840976 9.4838784,13.611975 9.8464552,14 c 0.5604548,0.799533 0.9508978,2.87501 0.6993388,3.022753 L 8.8682208,14.896438 C 6.6068731,13.441112 7.149369,9.4840976 7.149369,9.4840976 Z"
         id="path14082"
         sodipodi:nodetypes="cccccc"
         inkscape:label="front" /><path
         style="fill:#42484b;fill-opacity:1;stroke:none;stroke-width:0.8px;stroke-linecap:butt;stroke-linejoin:miter;stroke-opacity:1"
         d="m 10.820014,17.370327 0.321321,-0.120749 -0.03018,-0.865532 -0.454301,-1.497828 c 0,0 -0.281422,-0.478708 -0.810402,-0.886218 L 9.4838792,13.611975 c 0.5420158,0.856356 1.0619148,1.707419 1.0619148,3.410778 z"
         id="path14084"
         sodipodi:nodetypes="cccccccc"
         inkscape:label="front_round" /></g><g
       id="g14092"
       inkscape:label="handle"
       style="enable-background:new 0 0 45 45"><path
         style="fill:#571626;fill-opacity:1;stroke:none;stroke-width:0.8px;stroke-linecap:butt;stroke-linejoin:miter;stroke-opacity:1"
         d="m 11.849158,14.449494 0.113562,2.016362 0.328627,0.74599 c 0.914754,0.337001 1.049868,1.58719 1.049868,1.58719 l -0.126835,0.110436 0.322745,0.639418 0.365213,-0.545656 0.04182,-0.323201 c 0,0 0.1134,-5.983837 -0.429892,-6.072875 0,0 -1.669114,1.845513 -1.665108,1.842336 z"
         id="path14088"
         sodipodi:nodetypes="cccccccccc" /><path
         style="fill:#000101;fill-opacity:1;stroke:none;stroke-width:0.8px;stroke-linecap:butt;stroke-linejoin:miter;stroke-opacity:1"
         d="M 13.514266,12.607159 13.32685,11.166018 c 0.496796,0.270332 0.792277,0.120517 0.792277,0.120517 -0.129107,4.324885 0.696583,4.680136 0.696583,4.680136 -0.274332,1.558729 -0.871552,2.713362 -0.871552,2.713362 l -0.429892,-6.072874"
         id="path14090"
         sodipodi:nodetypes="cccccc" /></g><g
       id="g14116"
       inkscape:label="visor"
       style="enable-background:new 0 0 45 45"><path
         style="fill:url(#linearGradient3410);fill-opacity:1;stroke:none;stroke-width:0.08;stroke-linecap:butt;stroke-linejoin:miter;stroke-dasharray:none;stroke-opacity:1"
         d="m 7.0328623,22.474762 c 0.5033353,-0.05023 0.9968428,-0.195994 1.445812,-0.423584 L 8.027433,21.603411 c -0.4738163,0.253871 -0.9970934,0.414863 -1.5273874,0.466772 -0.2062485,0.305217 0.5328167,0.404579 0.5328167,0.404579 z"
         id="path2672"
         sodipodi:nodetypes="ccccc" /><g
         id="g14104"
         inkscape:label="front"><path
           style="fill:#060606;fill-opacity:1;stroke:none;stroke-width:0.8px;stroke-linecap:butt;stroke-linejoin:miter;stroke-opacity:1"
           d="m 5.1555714,21.835358 0.2160675,1.119729 c 0,0 0.7206829,0.217656 0.7767078,-0.139005 0.408577,-0.102083 -0.1019882,-1.098796 -0.1019882,-1.098796 z"
           id="path14094"
           sodipodi:nodetypes="ccccc" /><path
           style="fill:#292d2c;fill-opacity:1;stroke:none;stroke-width:0.8px;stroke-linecap:butt;stroke-linejoin:miter;stroke-opacity:1"
           d="m 5.3716389,22.955087 0.893418,0.782292 0.7767078,-0.139005 c 0,0 -0.5414962,-1.063727 -0.893418,-0.782292 z"
           id="path14096"
           sodipodi:nodetypes="ccccc" /><path
           style="fill:#303435;fill-opacity:1;stroke:none;stroke-width:0.8px;stroke-linecap:butt;stroke-linejoin:miter;stroke-opacity:1"
           d="m 6.0463585,21.717286 0.9865038,0.757476 0.0089,1.123612 -0.8934176,-0.782292 z"
           id="path14098"
           sodipodi:nodetypes="ccccc" /></g><g
         id="g14114"
         inkscape:label="back"><path
           style="display:inline;fill:#010202;fill-opacity:1;stroke:none;stroke-width:0.8px;stroke-linecap:butt;stroke-linejoin:miter;stroke-opacity:1"
           d="m 13.014472,24.705954 0.344874,0.0025 0.05874,1.075835 -0.311801,0.36905 -0.984422,0.128386 -0.03881,-0.280271 -0.602883,0.05166 -0.0156,0.359097 -1.066027,0.125415 L 10.0683,26.346938 9.9814752,25.83943 Z"
           id="path14106" /><path
           style="fill:#9fa1a3;fill-opacity:1;stroke:none;stroke-width:0.8px;stroke-linecap:butt;stroke-linejoin:miter;stroke-opacity:1"
           d="m 13.014472,24.705954 -0.477967,-0.473657 0.05,0.721758 0.422154,0.514227 z"
           id="path14108"
           sodipodi:nodetypes="ccccc" /><path
           style="fill:#07090b;fill-opacity:1;stroke:none;stroke-width:0.8px;stroke-linecap:butt;stroke-linejoin:miter;stroke-opacity:1"
           d="m 12.586505,24.954055 c 0.422154,0.514227 -2.561088,0.917419 -2.9652674,0.523636 l -0.075992,-0.792353 c 0,0 0.5486094,0.390918 1.5218964,0.309041 0.74034,-0.06397 1.469363,-0.762082 1.469363,-0.762082 z"
           id="path14110"
           sodipodi:nodetypes="cccccc" /><path
           style="fill:#373c3b;stroke:none;stroke-width:0.8px;stroke-linecap:butt;stroke-linejoin:miter;stroke-opacity:1;fill-opacity:1"
           d="m 9.6212376,25.477691 0.4041794,0.393783 2.983242,-0.403192 -0.422154,-0.514227 z"
           id="path14112" /></g></g><g
       id="g14138"
       inkscape:label="front"><path
         id="path14118"
         style="fill:#393b3a;fill-opacity:1;stroke:none;stroke-width:0.8px;stroke-linecap:butt;stroke-linejoin:miter;stroke-opacity:1"
         inkscape:label="background"
         d="M 5.1875 21.520312 C 4.4504182 21.523375 3.7127259 21.321566 3.0796875 20.94375 C 2.4044465 20.540746 1.8507383 19.938137 1.50625 19.23125 L 1.4296875 15.16875 C 1.4296875 15.16875 2.4077179 14.410935 2.453125 13.346875 L 2.565625 10.840625 C 3.4906171 8.1409833 5.6280867 8.2246225 7.15 9.484375 L 7.590625 12.81875 C 7.7396728 13.721307 8.86875 14.896875 8.86875 14.896875 L 9.14375 18.326562 C 8.9514494 19.196089 8.4639997 19.998553 7.78125 20.570312 C 7.0985004 21.142072 6.2241574 21.480538 5.334375 21.517187 C 5.2852691 21.51921 5.2366388 21.520108 5.1875 21.520312 z " /><path
         style="enable-background:new 0 0 45 45;fill:#2c3535;fill-opacity:1;stroke:none;stroke-width:0.8px;stroke-linecap:butt;stroke-linejoin:miter;stroke-opacity:1"
         d="m 4.9255621,9.2035944 c 2.7584515,0 2.0792227,2.8244356 2.0792227,2.8244356 l -4.2340815,0.334246 c 0,0 -0.1354313,-3.1586816 2.1548588,-3.1586816 z"
         id="path14120"
         sodipodi:nodetypes="cccc"
         inkscape:label="bottom_curve" /><path
         id="path14122"
         style="fill:#5b5a5d;fill-opacity:1;stroke:none;stroke-width:0.8px;stroke-linecap:butt;stroke-linejoin:miter;stroke-opacity:1"
         inkscape:label="upper_curve"
         d="M 4.984375,20.467188 C 3.9908556,20.455439 3.0097885,19.96903 2.40625,19.178125 1.7624756,18.334494 1.5665323,17.168389 1.9,16.160937 c 0.2429097,-0.946339 0.834375,-3.7 0.834375,-3.699999 0.045061,-0.209633 0.2496398,-0.690942 0.60625,-0.201563 0,0 0.4146062,0.725 1.5078125,0.725 1.198908,0 1.6203125,-0.9375 1.6203125,-0.9375 0.2978879,-0.515956 0.5359375,-0.01875 0.5359375,-0.01875 0,0 1.0357998,2.989198 1.1296875,3.657812 C 8.1821648,16.063393 8.2875,16.747003 8.2875,17.1625 8.29001,17.428808 8.259066,17.695689 8.196875,17.954687 8.0333099,18.635867 7.6448289,19.261389 7.10625,19.709375 6.5676711,20.15736 5.8823877,20.42573 5.1828125,20.4625 5.1165785,20.466 5.0506096,20.468 4.984375,20.4672 Z"
         sodipodi:nodetypes="cscccsccccssscc" /><ellipse
         style="enable-background:new 0 0 45 45;fill:#9b9e9e;fill-opacity:1;stroke-width:0.456564;stroke-linecap:round;stroke-linejoin:round;paint-order:stroke markers fill"
         id="ellipse14124"
         transform="scale(1,-1)"
         cx="4.8489947"
         cy="-11.278003"
         rx="1.7827121"
         ry="1.8419279" /><ellipse
         style="enable-background:new 0 0 45 45;fill:#b1b1b1;fill-opacity:1;stroke-width:0.456565;stroke-linecap:round;stroke-linejoin:round;paint-order:stroke markers fill"
         id="ellipse14126"
         transform="scale(1,-1)"
         cx="4.9309487"
         cy="-16.87501"
         rx="2.5754175"
         ry="2.660964" /><ellipse
         style="enable-background:new 0 0 45 45;fill:#000000;stroke-width:0.456565;stroke-linecap:round;stroke-linejoin:round;paint-order:stroke markers fill;fill-opacity:1"
         id="ellipse14128"
         transform="scale(1,-1)"
         cx="4.9309487"
         cy="-16.87501"
         rx="1.8039863"
         ry="1.8639086"
         inkscape:label="bottom_hole" /><ellipse
         style="enable-background:new 0 0 45 45;fill:#000000;fill-opacity:1;stroke-width:0.456565;stroke-linecap:round;stroke-linejoin:round;paint-order:stroke markers fill"
         id="ellipse14130"
         transform="scale(1,-1)"
         cx="4.8489947"
         cy="-11.278003"
         rx="1.1500795"
         ry="1.1882813"
         inkscape:label="barrel_hole" /></g></g><g
     id="g6462"
     inkscape:label="hand"><g
       id="g11277"
       inkscape:label="index_finger"><path
         style="enable-background:new 0 0 45 45;fill:#c1d47d;fill-opacity:1;stroke:none;stroke-width:0.8px;stroke-linecap:butt;stroke-linejoin:miter;stroke-opacity:1"
         d="m 9.8464552,14 -0.4265704,-3.025203 0.412104,-0.183011 c 4.5980762,-1.5983029 4.6036682,2.579357 2.0171692,3.657708 l -1.192301,0.436724 z"
         id="path5730"
         sodipodi:nodetypes="cccccc"
         transform="matrix(1.25,0,0,-1.25,0,45)"
         inkscape:label="finger" /><path
         style="enable-background:new 0 0 45 45;fill:#dbe8aa;fill-opacity:1;stroke:none;stroke-width:1px;stroke-linecap:butt;stroke-linejoin:miter;stroke-opacity:1"
         d="m 13.062614,30.568716 1.477908,0.996025 c 2.184618,-0.689097 1.39281,-2.969477 0.812776,-3.230854 l -1.326052,-0.231189 c -0.599751,0.427639 -0.935053,0.855275 -0.964632,2.466018 z"
         id="path8650"
         sodipodi:nodetypes="ccccc"
         inkscape:label="nail" /></g><g
       id="g11281"
       inkscape:label="thumb"
       style="enable-background:new 0 0 45 45"><path
         style="fill:#c1d47d;fill-opacity:1;stroke:none;stroke-width:1px;stroke-linecap:butt;stroke-linejoin:miter;stroke-opacity:1"
         d="m 17.49154,20.586476 c 2.490328,0 6.062946,4.021478 6.062946,4.924343 0.0038,0.167837 -0.0285,0.845413 -0.0285,0.845413 0,0.806776 -1.296587,2.081084 -2.007653,3.794687 -0.226527,0.545909 -0.388567,1.120381 -0.436797,1.757934 -0.0135,0.178422 -0.01799,0.365073 -0.01146,0.550663 -0.391151,1.166353 -2.199314,0.627489 -2.199314,0.627489 -0.337378,-1.430346 -1.221845,-2.195174 -1.221845,-2.195174 -0.201852,-5.714734 0.870729,-5.85017 0.870729,-5.85017 l -1.08944,-3.391702 -0.05228,-0.404001 -0.456516,-0.682071 z"
         id="path7192"
         sodipodi:nodetypes="cccsscccccccc"
         inkscape:label="finger" /><path
         id="path12013"
         style="fill:#dbe8aa;fill-opacity:1;stroke:none;stroke-width:1px;stroke-linecap:butt;stroke-linejoin:miter;stroke-opacity:1"
         inkscape:label="nail"
         d="M 19.841797 28.873047 C 19.808955 28.873107 19.775766 28.872738 19.742188 28.875 C 19.034592 29.20787 18.855469 30.435547 18.855469 30.435547 C 19.516107 31.244746 20.383776 32.483727 21.082031 31.908203 C 21.130261 31.270651 21.291051 30.696299 21.517578 30.150391 C 21.518303 29.897301 20.859909 28.871197 19.841797 28.873047 z " /></g></g></svg>
