<?xml version="1.0" encoding="UTF-8" standalone="no"?>
<svg
   viewBox="0 0 45 45"
   xml:space="preserve"
   version="1.1"
   id="svg2"
   sodipodi:docname="tkgfrog.svg"
   width="45"
   height="45"
   inkscape:version="1.1.1 (3bf5ae0d25, 2021-09-20, custom)"
   inkscape:export-xdpi="1919.99"
   inkscape:export-ydpi="1919.99"
   xmlns:inkscape="http://www.inkscape.org/namespaces/inkscape"
   xmlns:sodipodi="http://sodipodi.sourceforge.net/DTD/sodipodi-0.dtd"
   xmlns="http://www.w3.org/2000/svg"
   xmlns:svg="http://www.w3.org/2000/svg"
   xmlns:rdf="http://www.w3.org/1999/02/22-rdf-syntax-ns#"
   xmlns:cc="http://creativecommons.org/ns#"
   xmlns:dc="http://purl.org/dc/elements/1.1/"><sodipodi:namedview
     pagecolor="#ffffff"
     bordercolor="#666666"
     borderopacity="1"
     objecttolerance="10"
     gridtolerance="10"
     guidetolerance="10"
     inkscape:pageopacity="0"
     inkscape:pageshadow="2"
     inkscape:window-width="1920"
     inkscape:window-height="1026"
     id="namedview26"
     showgrid="false"
     fit-margin-top="0"
     fit-margin-left="0"
     fit-margin-right="0"
     fit-margin-bottom="0"
     inkscape:zoom="8"
     inkscape:cx="30.4375"
     inkscape:cy="45.5625"
     inkscape:window-x="0"
     inkscape:window-y="54"
     inkscape:window-maximized="0"
     inkscape:current-layer="g20"
     inkscape:pagecheckerboard="1"
     width="46.31445px" /><metadata
     id="metadata8"><rdf:RDF><cc:Work
         rdf:about=""><dc:format>image/svg+xml</dc:format><dc:type
           rdf:resource="http://purl.org/dc/dcmitype/StillImage" /></cc:Work></rdf:RDF></metadata><defs
     id="defs6"><clipPath
       id="clipPath16"
       clipPathUnits="userSpaceOnUse"><path
         id="path18"
         d="M 0,36 H 36 V 0 H 0 Z"
         inkscape:connector-curvature="0" /></clipPath><clipPath
       id="clipPath16-3"
       clipPathUnits="userSpaceOnUse"><path
         inkscape:connector-curvature="0"
         id="path18-6"
         d="M 0,36 H 36 V 0 H 0 Z" /></clipPath></defs><path
     id="path22"
     style="fill:#b3e3e5;fill-opacity:1;fill-rule:nonzero;stroke:none;stroke-width:1.25"
     d="m 45.000125,27.50025 c 0,9.32 -10.07375,15 -22.5,15 -12.42625,0 -22.5,-5.68 -22.5,-15 0,-9.32 10.07375,-18.75 22.5,-18.75 12.42625,0 22.5,9.43 22.5,18.75"
     inkscape:connector-curvature="0" /><path
     id="path26"
     style="fill:#55adb2;fill-opacity:1;fill-rule:nonzero;stroke:none;stroke-width:1.25"
     d="M 39.69375,15.845 C 41.40375,14.47 42.5,12.36375 42.5,10 42.5,5.85875 39.1425,2.5 35,2.5 31.42375,2.5 28.4375,5.00625 27.6875,8.35625 26.07625,7.7525 24.3325,7.40875 22.5,7.40875 c -1.83125,0 -3.57625,0.34375 -5.18625,0.9475 C 16.5625,5.00625 13.57625,2.5 10,2.5 5.8587499,2.5 2.4999999,5.85875 2.4999999,10 c 0,2.36375 1.0975,4.47 2.80625,5.845 C 1.9999999,19.195 0,23.35625 0,27.5 c 0,9.32 10.07375,1.25 22.5,1.25 12.4275,0 22.5,8.07 22.5,-1.25 0,-4.14375 -1.99875,-8.305 -5.30625,-11.655"
     inkscape:connector-curvature="0" /><path
     id="path30"
     style="fill:#ffffff;fill-opacity:1;fill-rule:nonzero;stroke:none;stroke-width:1.25"
     d="m 13.750125,9.37525 c 0,2.41625 -1.95875,4.375 -4.375,4.375 -2.4162501,0 -4.3750001,-1.95875 -4.3750001,-4.375 0,-2.41625 1.95875,-4.375 4.3750001,-4.375 2.41625,0 4.375,1.95875 4.375,4.375"
     inkscape:connector-curvature="0" /><path
     id="path34"
     style="fill:#292f33;fill-opacity:1;fill-rule:nonzero;stroke:none;stroke-width:1.25"
     d="m 11.250125,9.37525 c 0,1.03625 -0.83875,1.875 -1.8750001,1.875 -1.03625,0 -1.875,-0.83875 -1.875,-1.875 0,-1.03625 0.83875,-1.875 1.875,-1.875 1.0362501,0 1.8750001,0.83875 1.8750001,1.875"
     inkscape:connector-curvature="0" /><path
     id="path38"
     style="fill:#ffffff;fill-opacity:1;fill-rule:nonzero;stroke:none;stroke-width:1.25"
     d="m 40.000125,9.37525 c 0,2.41625 -1.9575,4.375 -4.375,4.375 -2.4175,0 -4.375,-1.95875 -4.375,-4.375 0,-2.41625 1.9575,-4.375 4.375,-4.375 2.4175,0 4.375,1.95875 4.375,4.375"
     inkscape:connector-curvature="0" /><path
     id="path42"
     style="fill:#292f33;fill-opacity:1;fill-rule:nonzero;stroke:none;stroke-width:1.25"
     d="m 37.500125,9.37525 c 0,1.03625 -0.84,1.875 -1.875,1.875 -1.035,0 -1.875,-0.83875 -1.875,-1.875 0,-1.03625 0.84,-1.875 1.875,-1.875 1.035,0 1.875,0.83875 1.875,1.875"
     inkscape:connector-curvature="0" /><path
     id="path46"
     style="fill:#3b8e91;fill-opacity:1;fill-rule:nonzero;stroke:none;stroke-width:1.25"
     d="m 18.750125,25.00025 c 0,0.69125 -0.56,1.25 -1.25,1.25 -0.69,0 -1.25,-0.55875 -1.25,-1.25 0,-0.69125 0.56,-1.25 1.25,-1.25 0.69,0 1.25,0.55875 1.25,1.25"
     inkscape:connector-curvature="0" /><path
     id="path50"
     style="fill:#3b8e91;fill-opacity:1;fill-rule:nonzero;stroke:none;stroke-width:1.25"
     d="m 28.750125,25.00025 c 0,0.69125 -0.55875,1.25 -1.25,1.25 -0.69125,0 -1.25,-0.55875 -1.25,-1.25 0,-0.69125 0.55875,-1.25 1.25,-1.25 0.69125,0 1.25,0.55875 1.25,1.25"
     inkscape:connector-curvature="0" /><g
     transform="matrix(1.3269248,0,0,-1.3269248,-1.4078009,34.42242)"
     id="g10"
     style="fill:#000000;stroke-width:1.02921"><g
       id="g12"
       style="fill:#000000;stroke-width:1.02921"><g
         clip-path="url(#clipPath16-3)"
         id="g14"
         style="fill:#000000;stroke-width:1.02921"><g
           transform="translate(1.2402,20.9824)"
           id="g20"
           style="fill:#000000;stroke-width:1.02921"><path
             inkscape:connector-curvature="0"
             id="path22-7"
             style="fill:#000000;fill-opacity:1;fill-rule:evenodd;stroke:none;stroke-width:1.02921"
             d="m 0.01443093,-0.04483785 c 0.2454,-0.24431111 1.08173297,-0.97928885 1.32703297,-1.71222215 0.2453,-0.7329334 0.736,-5.4249333 2.206,-6.6495554 1.5169,-1.2593778 7.2342001,-0.7901778 8.3300001,-0.2453334 2.4503,1.2215556 2.7508,5.1673332 3.1843,6.8948888 0.2443,0.97826661 1.7142,0.97826661 1.7142,0.97826661 0,0 1.471,0 1.7153,-0.97724441 0.4334,-1.7285778 0.736,-5.6855999 3.1842,-6.905111 1.0969,-0.5468889 6.8142,-1.0160888 8.3332,0.2432889 1.4669,1.2236 1.9576,5.9278665 2.2029,6.6618221 0.2433,0.7329333 1.081597,1.46688884 1.326997,1.71119995 0.2463,0.24431111 0.2463,1.22257775 0,1.46791105 -0.4897,0.4886222 -5.883097,0.9240889 -12.107397,0.2443111 -1.242,-0.1359555 -1.7142,-0.4896444 -4.6552,-0.4896444 -2.9389,0 -3.4132,0.3536889 -4.6541,0.4886222 -6.2223001,0.6808 -11.61773307,0.2453333 -12.10743307,-0.2432889 -0.2443,-0.2453333 -0.2443,-1.22359994 0,-1.46791105"
             sodipodi:nodetypes="cscccccccccccsccc" /></g></g></g></g></svg>
