<?xml version="1.0" encoding="UTF-8" standalone="no"?>
<!-- Generator: Adobe Illustrator 25.0.0, SVG Export Plug-In . SVG Version: 6.00 Build 0)  -->

<svg
   version="1.1"
   id="Ebene_1"
   x="0px"
   y="0px"
   viewBox="0 0 349.3 349.3"
   style="enable-background:new 0 0 349.3 349.3;"
   xml:space="preserve"
   sodipodi:docname="frogEmil.svg"
   inkscape:version="1.3.2 (091e20ef0f, 2023-11-25, custom)"
   xmlns:inkscape="http://www.inkscape.org/namespaces/inkscape"
   xmlns:sodipodi="http://sodipodi.sourceforge.net/DTD/sodipodi-0.dtd"
   xmlns:xlink="http://www.w3.org/1999/xlink"
   xmlns="http://www.w3.org/2000/svg"
   xmlns:svg="http://www.w3.org/2000/svg"><defs
   id="defs16">
				
				
				
				
				
				
				
			
	

		
	
			
		</defs><sodipodi:namedview
   id="namedview16"
   pagecolor="#505050"
   bordercolor="#ffffff"
   borderopacity="1"
   inkscape:showpageshadow="0"
   inkscape:pageopacity="0"
   inkscape:pagecheckerboard="1"
   inkscape:deskcolor="#d1d1d1"
   inkscape:zoom="1.5526794"
   inkscape:cx="158.11377"
   inkscape:cy="181.94355"
   inkscape:window-width="1920"
   inkscape:window-height="1031"
   inkscape:window-x="0"
   inkscape:window-y="49"
   inkscape:window-maximized="1"
   inkscape:current-layer="Ebene_1" />
<style
   type="text/css"
   id="style1">
	.st0{fill:#E6DED4;}
	.st1{fill:#625B51;}
	.st2{fill:#BBA989;}
	.st3{clip-path:url(#SVGID_2_);}
	.st4{fill:#CCC3B9;}
	.st5{fill:#EEE3CD;}
	.st6{fill:#635448;}
	.st7{fill:none;}
</style>
<g
   id="g16"><path
     class="st0"
     d="m 349.3,213.4 c 0,72.3 -78.2,116.4 -174.6,116.4 C 78.3,329.8 0,285.8 0,213.4 0,141 78.2,67.9 174.6,67.9 c 96.4,0 174.7,73.2 174.7,145.5 z"
     id="path1" /><g
     id="mouth">
					<path
   d="m 349.3,213.4 c 0,10.6 -1.8,21.1 -5.3,31.1 0,0 -57.7,65.6 -165.2,65.6 C 54,310.1 4.5,242.5 4.5,242.5 1.5,233.1 -0.1,223.3 0,213.4 c 0,-72.3 165.4,-48.6 165.4,-48.6 0,0 183.9,-23.7 183.9,48.6 z"
   id="path2" />
					<path
   class="st1"
   d="m 308.5,260.5 v 12.7 c -27.7,17.7 -71.4,37 -129.7,37 -67.2,0 -112.5,-19.6 -140.1,-37.7 v -12.3 z"
   id="path3" />
					<path
   class="st2"
   d="m 41.7,260.2 c 0,18.3 12.8,18.4 12.8,0 0,28.2 13.7,28.3 13.7,0 0,28.2 19,28.2 19,0 -0.1,36 25.3,37.8 20.9,0.1 1.3,43.1 29,42.7 26.4,0 -0.1,48.6 24.5,48.6 24.6,0 0,47.8 30.9,47.6 29.6,0 0,48.5 27.8,48 25,0 1,43.3 25.8,43.6 24.6,0 1.9,40.4 23.1,40.3 21,0 0.9,31.9 19.6,31.9 17.9,0 3.5,26.2 21,26.3 16.6,0 0,17.6 12,18 14.7,0"
   id="path4" />
					<path
   class="st1"
   d="m 313.6,238.2 c -1.7,4 -2.5,15.4 -6.8,15.7 -66.7,4.2 -133.6,4.2 -200.2,3.6 v 0 c -21,-0.8 -41.9,-2 -62.8,-3.6 -2.8,-4.4 -8.2,-13.1 -11,-17.5 63.3,-30.6 207.8,-42.6 280.8,1.8 z"
   id="path5" />
					<g
   id="g7">
						<defs
   id="defs5">
							<path
   id="SVGID_1_"
   d="m 313.6,238.2 c -1.7,4 -5.1,11.7 -6.8,15.7 -66.6,5.1 -143,3.7 -200.2,3.6 v 0 c -21,-0.8 -41.9,-2 -62.8,-3.6 -2.8,-4.4 -8.2,-13.1 -11,-17.5 63.3,-28.8 207.8,-40.4 280.8,1.8 z" />
						</defs>
						<clipPath
   id="SVGID_2_">
							<use
   xlink:href="#SVGID_1_"
   style="overflow:visible"
   id="use5" />
						</clipPath>
						<g
   class="st3"
   clip-path="url(#SVGID_2_)"
   id="g6">
							<path
   class="st2"
   d="m 105,245.8 c 0.7,3.9 1.2,7.8 1.5,11.7 C 92.6,257 78.7,256.3 64.8,255.4 57.7,255 50.7,254.5 43.6,254 l -5.1,-8.1 -0.2,-0.3 c 3.3,-7.6 6.9,-8.1 10.5,0.3 1.2,2.8 2.1,5.8 2.9,8.7 -0.3,-2.9 -0.4,-5.8 -0.3,-8.7 0.8,-15.6 9,-15.4 12.2,0 0.5,2.5 0.8,5 1,7.5 -0.1,-2.7 -0.2,-5.2 -0.1,-7.5 0.5,-18.3 7.4,-21 15.4,0 1.2,3 2.3,6.6 3.5,10.7 0,-3.9 0.1,-7.5 0.4,-10.7 2.7,-28.2 16.1,-27.4 21.2,-0.1 z m 135.8,0 c -2,-35.4 -16.2,-34.1 -23.3,0 -0.8,3.8 -1.5,8 -2.1,12.7 8.5,-0.2 17.1,-0.5 25.6,-0.8 0.2,-4.4 0.1,-8.4 -0.2,-11.9 z m -82.7,0 c -0.7,4 -1.3,8.3 -1.8,13 11.3,0.1 22.5,0.1 33.7,0.1 -0.3,-4.7 -0.8,-9.1 -1.3,-13.1 -5.7,-42.2 -23.3,-41.4 -30.6,0 z m -50.7,0 c -0.4,3.5 -0.7,7.4 -0.9,11.7 v 0 c 8.3,0.3 16.7,0.6 25,0.8 -0.1,-4.6 -0.4,-8.8 -0.8,-12.6 -3.6,-33.3 -19.1,-35.1 -23.3,0.1 z m 83.8,0 c -0.5,4 -0.9,8.3 -1.2,13.1 8.5,-0.1 17,-0.2 25.4,-0.4 -0.2,-4.6 -0.4,-8.8 -0.8,-12.7 -3.9,-40.4 -18.4,-40.7 -23.4,0 z m 52,0 c -1,3.9 -1.7,7.9 -2.2,11.9 7.1,-0.3 14.2,-0.6 21.2,-0.9 0.9,-3.6 1.5,-7.3 1.8,-11 2.3,-25.2 -14,-25.6 -20.8,0 z m -86.8,0 c -1,-39.6 -16,-39.3 -23,0 -0.7,3.8 -1.3,8 -1.8,12.6 8.2,0.2 16.4,0.4 24.7,0.5 0.2,-4.9 0.2,-9.2 0.1,-13.1 z m 128.3,0 c -1.2,3.2 -2.2,6.6 -3.1,9.9 5.2,-0.3 10.3,-0.7 15.5,-1 0.4,-2.9 0.6,-5.9 0.7,-8.9 0.4,-16.7 -6.8,-16.4 -13.1,0 z m -17.4,0 c -1.9,3.6 -3.6,7.2 -5,11 6.5,-0.3 12.9,-0.7 19.4,-1.1 0.9,-3.3 1.5,-6.6 1.9,-9.9 1.9,-16.9 -7.1,-16.9 -16.3,0 z m 32.3,0 c -1.1,2.9 -2,5.9 -2.5,8.9 3.2,-0.2 6.4,-0.5 9.6,-0.7 l 3.5,-8.2 0.1,-0.3 c -1.6,-9.1 -6.9,-9 -10.7,0.3 z"
   id="path6" />
						</g>
					</g>
				</g><path
     class="st4"
     d="m 349.3,213.4 c 0,36.4 -9.8,35.1 -35.7,24.8 -25.5,-10.1 -66.6,-29 -129.2,-29 C 107,209.2 60,228 32.8,236.4 8.5,243.9 0,243.2 0,213.4 0,181.3 15.5,149 41.2,123 16.1,102.9 12.1,66.3 32.2,41.2 52.3,16.1 88.9,12.1 114,32.2 c 10.3,8.3 17.5,19.8 20.4,32.6 25.9,-9.8 54.6,-9.8 80.5,0 7,-31.4 38.2,-51.1 69.5,-44.1 31.3,7 51.1,38.2 44.1,69.5 -2.9,12.9 -10.1,24.4 -20.4,32.7 25.7,26.1 41.2,58.4 41.2,90.5 z"
     id="path7" /><g
     id="eye">
					<path
   class="st1"
   d="m 72.6,26.6 c -27.7,0 -44.1,36.9 -44.1,51.9 0,15 10.8,40.2 34,40.2 23.2,0 51,-22.6 51,-42.9 0,-7.8 -9.7,-21.1 -9.7,-26.9 0.1,-9.8 -7,-22.3 -31.2,-22.3 z"
   id="path8" />
					<path
   class="st5"
   d="m 101.7,72.8 c 0,19.6 -17.8,35.5 -35.6,35.5 C 48.3,108.3 37.2,97.2 37.2,77.6 37.2,58 56,37.3 73.8,37.3 c 17.8,0 27.9,15.9 27.9,35.5 z"
   id="path9" />
					<path
   class="st4"
   d="m 94.6,67.5 c 0,15.6 -13.2,31.7 -26.6,31.7 -13.4,0 -22.1,-9.7 -22.1,-25.3 0,-15.6 14.4,-31.3 27.9,-31.3 13.5,0 20.8,9.2 20.8,24.9 z"
   id="path10" />
					<circle
   class="st0"
   cx="64.400002"
   cy="54"
   r="5.6999998"
   id="circle10" />
				</g><g
     id="eye-2">
					<path
   class="st1"
   d="m 273.6,26.6 c 27.6,0 44.1,36.9 44.1,51.9 0,15 -10.8,40.2 -34,40.2 -23.2,0 -51,-22.6 -51,-42.9 0,-7.8 9.6,-21.1 9.6,-26.9 0,-9.8 7,-22.3 31.3,-22.3 z"
   id="path11" />
					<path
   class="st5"
   d="m 306.8,78.9 c 0,18.6 -13.5,28.7 -30.2,28.7 -16.7,0 -30.2,-15.1 -30.2,-33.6 0,-18.5 13.5,-33.7 30.2,-33.7 16.7,0 30.2,20 30.2,38.6 z"
   id="path12" />
					<path
   class="st4"
   d="m 299.7,73.9 c 0,15.3 -6.8,27.7 -20.1,27.7 -13.3,0 -28,-12.4 -28,-27.7 0,-15.3 10.8,-27.7 24.1,-27.7 13.3,0 24,12.3 24,27.7 z"
   id="path13" />
					<circle
   class="st0"
   cx="266.89999"
   cy="61.799999"
   r="6"
   id="circle13" />
				</g><g
     id="deco">
					<circle
   class="st5"
   cx="135.8"
   cy="194.10001"
   r="9.6999998"
   id="circle14" />
					<circle
   class="st5"
   cx="213.39999"
   cy="194.10001"
   r="9.6999998"
   id="circle15" />
					
						<ellipse
   transform="matrix(0.264,-0.9645,0.9645,0.264,-97.7394,139.3876)"
   class="st6"
   cx="42.5"
   cy="133.7"
   rx="6.9000001"
   ry="5.0999999"
   id="ellipse15" />
					<ellipse
   class="st1"
   cx="307.10001"
   cy="134"
   rx="5"
   ry="6.5999999"
   id="ellipse16" />
				</g></g>
</svg>
