<?xml version="1.0" encoding="UTF-8" standalone="no"?>
<!-- Generator: Adobe Illustrator 25.0.0, SVG Export Plug-In . SVG Version: 6.00 Build 0)  -->

<svg
   version="1.1"
   id="svg2"
   inkscape:export-xdpi="834.66498"
   inkscape:export-ydpi="834.66498"
   inkscape:version="1.3.2 (091e20ef0f, 2023-11-25, custom)"
   sodipodi:docname="frogStalker.svg"
   x="0px"
   y="0px"
   viewBox="0 0 42.9 42.9"
   xml:space="preserve"
   width="42.900002"
   height="42.900002"
   xmlns:inkscape="http://www.inkscape.org/namespaces/inkscape"
   xmlns:sodipodi="http://sodipodi.sourceforge.net/DTD/sodipodi-0.dtd"
   xmlns="http://www.w3.org/2000/svg"
   xmlns:svg="http://www.w3.org/2000/svg"><defs
   id="defs6"><clipPath
     clipPathUnits="userSpaceOnUse"
     id="clipPath31"><rect
       style="opacity:0.42;fill:#000000;fill-opacity:1;fill-rule:evenodd;stroke:none;stroke-width:7.97136;stroke-linecap:round;paint-order:fill markers stroke"
       id="rect31"
       width="42.900002"
       height="42.900002"
       x="0"
       y="0" /></clipPath></defs><sodipodi:namedview
   id="namedview6"
   pagecolor="#505050"
   bordercolor="#ffffff"
   borderopacity="1"
   inkscape:showpageshadow="0"
   inkscape:pageopacity="0"
   inkscape:pagecheckerboard="1"
   inkscape:deskcolor="#d1d1d1"
   inkscape:zoom="8.9393936"
   inkscape:cx="15.269492"
   inkscape:cy="32.832205"
   inkscape:window-width="1920"
   inkscape:window-height="1031"
   inkscape:window-x="1920"
   inkscape:window-y="49"
   inkscape:window-maximized="1"
   inkscape:current-layer="svg2" />
<style
   type="text/css"
   id="style1">
	.st0{fill:#52ADFF;}
	.st1{fill:#FFFFFF;}
	.st2{fill:#009622;}
	.st3{fill:#E5DDB3;}
	.st4{fill:#0E7325;}
	.st5{fill:#196C2C;}
	.st6{fill:#D4B816;}
	.st7{fill:#292F33;}
	.st8{fill:#CD9002;}
	.st9{fill:#4D4D4D;}
	.st10{fill:#DEDEDE;}
</style>


<g
   id="g7"
   clip-path="url(#clipPath31)"
   inkscape:label="g7"><g
     id="g4">
	<rect
   id="rect981"
   x="-1"
   y="1.7"
   class="st0"
   width="45.200001"
   height="26" />
	<g
   id="g1">
		<ellipse
   id="path928-7"
   class="st1"
   cx="7.8000002"
   cy="4.9000001"
   rx="3.5999999"
   ry="1.4" />
		<ellipse
   id="path928-7-5"
   class="st1"
   cx="21.5"
   cy="7.1999998"
   rx="5.0999999"
   ry="2" />
		<ellipse
   id="path928-7-3"
   class="st1"
   cx="44"
   cy="2.5"
   rx="10.7"
   ry="4.6999998" />
	</g>
	<g
   id="g2">
		<ellipse
   id="path928"
   class="st2"
   cx="8.3000002"
   cy="21.6"
   rx="10"
   ry="5.5999999" />
		<ellipse
   id="path928-6"
   class="st2"
   cx="28.1"
   cy="21.6"
   rx="17.1"
   ry="7.9000001" />
	</g>
	
	<g
   id="g3">
		<ellipse
   id="path928-6-1"
   class="st4"
   cx="20.5"
   cy="40.400002"
   rx="27"
   ry="16.4" />
		<ellipse
   id="path928-6-2"
   class="st5"
   cx="4.6999998"
   cy="29.700001"
   rx="17.1"
   ry="7.9000001" />
		<ellipse
   id="path928-6-2-7"
   class="st5"
   cx="43.599998"
   cy="30.200001"
   rx="17.1"
   ry="7.9000001" />
	</g>
</g><g
     id="g5">
	<path
   id="path26"
   inkscape:connector-curvature="0"
   class="st6"
   d="m 38.8,38.6 c 1.7,-1.4 2.8,-3.5 2.8,-5.8 0,-4.1 -3.4,-7.5 -7.5,-7.5 -3.6,0 -6.6,2.5 -7.3,5.9 -1.6,-0.6 -3.4,-0.9 -5.2,-0.9 -1.8,0 -3.6,0.3 -5.2,0.9 -0.8,-3.4 -3.7,-5.9 -7.3,-5.9 -4.1,0 -7.5,3.4 -7.5,7.5 0,2.4 1.1,4.5 2.8,5.8 -3.3,3.4 -5.3,7.5 -5.3,11.7 0,9.3 10.1,1.2 22.5,1.2 12.4,0 22.5,8.1 22.5,-1.2 0,-4.2 -2,-8.3 -5.3,-11.7" />
	<path
   id="path30"
   inkscape:connector-curvature="0"
   class="st1"
   d="m 12.8,32.2 c 0,2.4 -2,4.4 -4.4,4.4 -2.4,0 -4.4,-2 -4.4,-4.4 0,-2.4 2,-4.4 4.4,-4.4 2.4,0 4.4,1.9 4.4,4.4" />
	<path
   id="path34"
   inkscape:connector-curvature="0"
   class="st7"
   d="m 10.3,32.2 c 0,1 -0.8,1.9 -1.9,1.9 -1.1,0 -1.9,-0.8 -1.9,-1.9 0,-1 0.8,-1.9 1.9,-1.9 1.1,0 1.9,0.8 1.9,1.9" />
	<path
   id="path38"
   inkscape:connector-curvature="0"
   class="st1"
   d="m 39.1,32.2 c 0,2.4 -2,4.4 -4.4,4.4 -2.4,0 -4.4,-2 -4.4,-4.4 0,-2.4 2,-4.4 4.4,-4.4 2.4,0 4.4,1.9 4.4,4.4" />
	<path
   id="path42"
   inkscape:connector-curvature="0"
   class="st7"
   d="m 36.6,32.2 c 0,1 -0.8,1.9 -1.9,1.9 -1.1,0 -1.9,-0.8 -1.9,-1.9 0,-1 0.8,-1.9 1.9,-1.9 1.1,0 1.9,0.8 1.9,1.9" />
	<path
   id="path46"
   inkscape:connector-curvature="0"
   class="st8"
   d="m 17.8,47.8 c 0,0.7 -0.6,1.2 -1.2,1.2 -0.7,0 -1.2,-0.6 -1.2,-1.2 0,-0.6 0.6,-1.2 1.2,-1.2 0.7,-0.1 1.2,0.5 1.2,1.2" />
	<path
   id="path50"
   inkscape:connector-curvature="0"
   class="st8"
   d="m 27.8,47.8 c 0,0.7 -0.6,1.2 -1.2,1.2 -0.6,0 -1.2,-0.6 -1.2,-1.2 0,-0.6 0.6,-1.2 1.2,-1.2 0.6,0 1.2,0.5 1.2,1.2" />
</g><g
     id="g6">
	<rect
   id="rect892"
   x="-1"
   y="16.4"
   class="st9"
   width="45.299999"
   height="1.3" />
	<rect
   id="rect892-3"
   x="21.200001"
   y="1.6"
   class="st9"
   width="1.3"
   height="66.199997" />
	<rect
   id="rect983"
   x="-14.4"
   y="-3.5"
   class="st10"
   width="74.800003"
   height="5.5999999" />
	<rect
   id="rect983-5"
   x="-14"
   y="41"
   class="st10"
   width="74.800003"
   height="6.9000001" />
	<rect
   id="rect983-6"
   x="40.700001"
   y="-18.4"
   class="st10"
   width="4.5999999"
   height="74.800003" />
	<rect
   id="rect983-6-9"
   x="-2.5"
   y="-16.700001"
   class="st10"
   width="4.5999999"
   height="74.800003" />
</g></g>
</svg>
