<?xml version="1.0" encoding="UTF-8" standalone="no"?>
<svg
   viewBox="0 0 528.48 528.48"
   version="1.1"
   id="svg27"
   sodipodi:docname="frogChronoTrigger.svg"
   inkscape:version="1.2.1 (9c6d41e410, 2022-07-14, custom)"
   xmlns:inkscape="http://www.inkscape.org/namespaces/inkscape"
   xmlns:sodipodi="http://sodipodi.sourceforge.net/DTD/sodipodi-0.dtd"
   xmlns="http://www.w3.org/2000/svg"
   xmlns:svg="http://www.w3.org/2000/svg">
  <sodipodi:namedview
     id="namedview29"
     pagecolor="#505050"
     bordercolor="#ffffff"
     borderopacity="1"
     inkscape:showpageshadow="0"
     inkscape:pageopacity="0"
     inkscape:pagecheckerboard="1"
     inkscape:deskcolor="#505050"
     showgrid="false"
     inkscape:zoom="1.200187"
     inkscape:cx="122.06432"
     inkscape:cy="252.04406"
     inkscape:window-width="1920"
     inkscape:window-height="1026"
     inkscape:window-x="1920"
     inkscape:window-y="54"
     inkscape:window-maximized="1"
     inkscape:current-layer="svg27" />
  <defs
     id="defs4">
    <style
       id="style2">.cls-1{fill:none;}.cls-2{fill:#fff;}.cls-3{fill:#77b255;}.cls-4{fill:#fdcc57;}.cls-5{fill:#292f33;}</style>
  </defs>
  <path
     id="base"
     class="cls-2"
     d="M 516.57,374.27 A 54.89,54.89 0 0 1 499,396.58 Q 381.63,484.89 264.26,484.87 146.89,484.85 29.49,396.58 A 55.05,55.05 0 0 1 11.9,374.27 C -6.36,331.4 -5.32,286.36 27.11,237.8 22.48,192.86 42.86,176 68.2,164.94 62.67,109.45 62.84,66.13 99,52.3 c 43.34,-16.59 46.22,-7.44 93.43,38.19 23.73,-21.34 47.64,-27 71.82,-9.09 24.18,-17.88 48.09,-12.25 71.82,9.09 47.2,-45.63 50.09,-54.78 93.43,-38.19 36.15,13.83 36.31,57.15 30.78,112.64 25.34,11.06 45.72,27.92 41.08,72.86 32.44,48.56 33.48,93.6 15.21,136.47 z"
     style="fill:#c6e5b3;fill-opacity:1" />
  <path
     id="face_top"
     data-name="face top"
     class="cls-3"
     d="m 504.26,272.22 c -14.81,0 -17.31,51.89 -23.5,51.89 -5.27,0 -13.43,-10.27 -25,-10.27 -14.48,0 -19.22,76.63 -117.7,76.63 -9.88,0 -19.47,5.92 -31,11.85 -11.53,5.93 -25.06,11.85 -42.82,11.85 -35.45,0 -54.05,-23.7 -73.8,-23.7 -98.48,0 -103.22,-76.63 -117.71,-76.63 -11.58,0 -19.75,10.27 -25,10.27 -6.19,0 -8.69,-51.89 -23.49,-51.89 2.18,-11.9 1.32,-21.8 -2.42,-26 1.66,-2.78 3.25,-5.58 5.12,-8.38 C 22.3,192.86 41.86,175 67.2,163.94 61.67,108.45 61.84,65.13 98,51.3 c 43.34,-16.59 47.22,-7.44 94.43,38.19 23.73,-21.34 47.64,-27 71.82,-9.09 24.18,-17.88 48.09,-12.25 71.82,9.09 47.2,-45.63 51.09,-54.78 94.43,-38.19 36.15,13.83 36.31,57.15 30.78,112.64 25.35,11.09 44.83,28.92 40.19,73.86 1.88,2.8 3.55,5.6 5.2,8.38 -3.75,4.24 -4.59,14.14 -2.41,26.04 z" />
  <path
     id="right_eye"
     data-name="right eye"
     class="cls-4"
     d="m 423.36,245.11 c 19.9,0 48.19,-40.31 48.19,-80.31 0,-35.29 -25.28,-76.37 -39.77,-76.37 -14.48,-1.31 -52.4,56.09 -53.71,84 -1.53,32.41 23.75,72.68 45.29,72.68 z" />
  <path
     id="left_eye"
     data-name="left eye"
     class="cls-4"
     d="m 105.13,245.11 c -19.91,0 -48.19,-40.31 -48.19,-80.31 0,-35.29 25.28,-76.37 39.76,-76.37 14.48,-1.31 52.4,56.09 53.71,84 1.53,32.41 -23.75,72.68 -45.28,72.68 z" />
  <path
     id="left_eye_black"
     data-name="left eye black"
     class="cls-5"
     d="m 134.08,178 c -1.86,9.35 -17.25,14.18 -34.37,10.77 -17.12,-3.41 -28.52,-10.06 -26.16,-22.94 2.36,-12.88 15.78,-14.36 32.9,-11 17.12,3.36 28.91,16.77 27.63,23.17 z" />
  <path
     id="right_eye_black"
     data-name="right eye black"
     class="cls-5"
     d="m 394.4,178 c 1.86,9.35 17.25,14.18 34.38,10.77 17.13,-3.41 28.51,-10.06 26.15,-22.94 -2.36,-12.88 -15.77,-14.36 -32.9,-11 -17.13,3.36 -28.9,16.77 -27.63,23.17 z" />
  <g
     id="right_deco"
     data-name="right deco">
    <path
       class="cls-3"
       d="m 376.75,377.43 c 59.25,11.46 63.72,71.89 69.52,71.89 6.32,0 5.53,-64.91 -54.12,-89.27"
       id="path14" />
    <path
       class="cls-5"
       d="m 297.63,356.69 a 3.82,3.82 0 0 1 -4.36,-4.4 15.94,15.94 0 0 1 30,-4.41 3.8,3.8 0 0 1 -2.9,5.38 z"
       id="path16" />
  </g>
  <g
     id="left_deco"
     data-name="left deco">
    <path
       class="cls-3"
       d="M 151.73,377.43 C 92.49,388.89 88,449.32 82.22,449.32 c -6.32,0 -5.53,-64.91 54.11,-89.27"
       id="path19" />
    <path
       class="cls-5"
       d="m 230.88,356.7 a 3.83,3.83 0 0 0 4.36,-4.4 16,16 0 0 0 -30,-4.42 3.81,3.81 0 0 0 2.91,5.39 z"
       id="path21"
       inkscape:label="path21" />
  </g>
</svg>
