<?xml version="1.0" encoding="utf-8"?>
<!-- Generator: Adobe Illustrator 26.0.1, SVG Export Plug-In . SVG Version: 6.00 Build 0)  -->
<svg version="1.1" id="Ebene_1" xmlns="http://www.w3.org/2000/svg" xmlns:xlink="http://www.w3.org/1999/xlink" x="0px" y="0px"
	 viewBox="0 0 1895.9 1895.9" style="enable-background:new 0 0 1895.9 1895.9;" xml:space="preserve">
<style type="text/css">
	.st0{fill:#C6E5B3;}
	.st1{fill:#77B255;}
	.st2{fill:#FFFFFF;}
	.st3{fill:#292F33;}
	.st4{fill:#5C913B;}
	.st5{fill:#66757F;}
	.st6{fill:#31373D;}
	.st7{fill:#55ACEE;}
</style>
<g>
	<path class="st0" d="M1771.9,1292.7c0,341.4-368.9,549.3-824,549.3s-824-207.9-824-549.3s368.9-686.6,824-686.6
		S1771.9,951.5,1771.9,1292.7z"/>
	<path class="st1" d="M1577.6,865.9c65.1-52,102.8-130.8,102.8-214.1c0-151.6-123-274.7-274.7-274.7
		c-130.9,0-240.4,91.7-267.8,214.4c-122.4-46.2-257.5-46.2-379.8,0c-27.6-122.7-137-214.3-267.9-214.3
		c-151.6,0-274.7,123-274.7,274.7c0,83.3,37.7,162,102.8,214.1C197.2,988.7,124,1141.1,124,1292.8c0,341.4,368.9,45.8,824,45.8
		s824,295.5,824-45.8C1771.9,1141.1,1698.7,988.6,1577.6,865.9z"/>
	<g>
		<circle class="st1" cx="489.9" cy="651.6" r="274.4"/>
		<circle class="st2" cx="467.4" cy="629" r="160.3"/>
		<circle class="st3" cx="467.4" cy="629" r="68.6"/>
		<circle class="st1" cx="1405.1" cy="653.2" r="274.4"/>
		<circle class="st2" cx="1428.5" cy="629" r="160.2"/>
		<circle class="st3" cx="1428.5" cy="629" r="68.7"/>
	</g>
	<circle class="st4" cx="764.8" cy="1201.3" r="45.8"/>
	<circle class="st4" cx="1131.1" cy="1201.3" r="45.8"/>
</g>
<path class="st5" d="M947.9,53.9c-438.2,0-873.6,373.8-873.6,812V1142H233V865.9c0-370.3,358.8-663.3,714.9-663.3
	s714.9,292.9,714.9,663.3v328.9h158.7v-329C1821.5,427.7,1386.1,53.9,947.9,53.9z"/>
<g>
	<path class="st6" d="M233.1,1365.8c0,42.9-34.8,77.7-77.7,77.7H77.7c-42.9,0-77.7-34.7-77.7-77.7v-349.6
		c0-42.9,34.8-77.7,77.7-77.7h77.7c42.9,0,77.7,34.8,77.7,77.7L233.1,1365.8L233.1,1365.8z"/>
	<path class="st6" d="M1895.9,1365.8c0,42.9-34.8,77.7-77.7,77.7h-77.7c-42.9,0-77.7-34.8-77.7-77.7v-349.6
		c0-42.9,34.8-77.7,77.7-77.7h77.7c42.9,0,77.7,34.8,77.7,77.7V1365.8z"/>
</g>
<path class="st7" d="M1000,162l-120.8,24.9c-8.6,1.7-15.5,10.3-15.5,19v307c-12.7-4.5-26.1-6.8-39.6-6.8
	c-52.9,0-95.6,33.3-95.6,74.4c0,41.1,42.9,72.6,95.6,72.6c51.9,0,95-36.2,96.5-74.2V282.9l79.7-16.6c8.6-1.7,15.1-10.4,15.1-19
	v-72.7C1015.6,166,1008.6,160.2,1000,162z M1151.8,221.7l-81.5,16.4c-8.6,1.7-16.7,10.3-16.7,19v216.4c0-2.9-16.7-4.5-26.6-4.5
	c-38.4,0-69,24.2-69,54.1c0,29.9,31.5,54.1,69.9,54.1c38.4,0,69.8-24.2,69.8-54.1l-0.3-214.1l54.4-11.4c8.6-1.7,15.5-10.3,15.5-19
	v-44.2C1167.4,225.7,1160.4,220,1151.8,221.7z"/>
</svg>
