<?xml version="1.0" encoding="utf-8"?>
<!-- Generator: Adobe Illustrator 25.0.0, SVG Export Plug-In . SVG Version: 6.00 Build 0)  -->
<svg version="1.1" id="Ebene_1" xmlns="http://www.w3.org/2000/svg" xmlns:xlink="http://www.w3.org/1999/xlink" x="0px" y="0px"
	 viewBox="0 0 349.3 349.3" style="enable-background:new 0 0 349.3 349.3;" xml:space="preserve">
<style type="text/css">
	.st0{fill:#E6DED4;}
	.st1{fill:#625B51;}
	.st2{fill:#BBA989;}
	.st3{clip-path:url(#SVGID_2_);}
	.st4{fill:#CCC3B9;}
	.st5{fill:#EEE3CD;}
	.st6{fill:#635448;}
	.st7{fill:none;}
</style>
<g id="Ebene_2_1_">
	<g id="Ebene_1-2">
		<g id="Ebene_2-2">
			<g id="Ebene_1-2-2">
				<path class="st0" d="M349.3,213.4c0,72.3-78.2,116.4-174.6,116.4S0,285.8,0,213.4S78.2,67.9,174.6,67.9S349.3,141.1,349.3,213.4
					z"/>
				<g id="mouth">
					<path d="M349.3,213.4c0,10.6-1.8,21.1-5.3,31.1c0,0-57.7,65.6-165.2,65.6C54,310.1,4.5,242.5,4.5,242.5
						c-3-9.4-4.6-19.2-4.5-29.1c0-72.3,165.4-48.6,165.4-48.6S349.3,141.1,349.3,213.4z"/>
					<path class="st1" d="M308.5,260.5v12.7c-27.7,17.7-71.4,37-129.7,37c-67.2,0-112.5-19.6-140.1-37.7v-12.3L308.5,260.5z"/>
					<path class="st2" d="M41.7,260.2c0,18.3,12.8,18.4,12.8,0c0,28.2,13.7,28.3,13.7,0c0,28.2,19,28.2,19,0
						c-0.1,36,25.3,37.8,20.9,0.1c1.3,43.1,29,42.7,26.4,0c-0.1,48.6,24.5,48.6,24.6,0c0,47.8,30.9,47.6,29.6,0c0,48.5,27.8,48,25,0
						c1,43.3,25.8,43.6,24.6,0c1.9,40.4,23.1,40.3,21,0c0.9,31.9,19.6,31.9,17.9,0c3.5,26.2,21,26.3,16.6,0c0,17.6,12,18,14.7,0"/>
					<path class="st1" d="M313.6,238.2c-1.7,4-2.5,15.4-6.8,15.7c-66.7,4.2-133.6,4.2-200.2,3.6l0,0c-21-0.8-41.9-2-62.8-3.6
						c-2.8-4.4-8.2-13.1-11-17.5C96.1,205.8,240.6,193.8,313.6,238.2z"/>
					<g>
						<defs>
							<path id="SVGID_1_" d="M313.6,238.2c-1.7,4-5.1,11.7-6.8,15.7c-66.6,5.1-143,3.7-200.2,3.6l0,0c-21-0.8-41.9-2-62.8-3.6
								c-2.8-4.4-8.2-13.1-11-17.5C96.1,207.6,240.6,196,313.6,238.2z"/>
						</defs>
						<clipPath id="SVGID_2_">
							<use xlink:href="#SVGID_1_"  style="overflow:visible;"/>
						</clipPath>
						<g class="st3">
							<path class="st2" d="M105,245.8c0.7,3.9,1.2,7.8,1.5,11.7c-13.9-0.5-27.8-1.2-41.7-2.1c-7.1-0.4-14.1-0.9-21.2-1.4l-5.1-8.1
								l-0.2-0.3c3.3-7.6,6.9-8.1,10.5,0.3c1.2,2.8,2.1,5.8,2.9,8.7c-0.3-2.9-0.4-5.8-0.3-8.7c0.8-15.6,9-15.4,12.2,0
								c0.5,2.5,0.8,5,1,7.5c-0.1-2.7-0.2-5.2-0.1-7.5c0.5-18.3,7.4-21,15.4,0c1.2,3,2.3,6.6,3.5,10.7c0-3.9,0.1-7.5,0.4-10.7
								C86.5,217.7,99.9,218.5,105,245.8z M240.8,245.8c-2-35.4-16.2-34.1-23.3,0c-0.8,3.8-1.5,8-2.1,12.7
								c8.5-0.2,17.1-0.5,25.6-0.8C241.2,253.3,241.1,249.3,240.8,245.8L240.8,245.8z M158.1,245.8c-0.7,4-1.3,8.3-1.8,13
								c11.3,0.1,22.5,0.1,33.7,0.1c-0.3-4.7-0.8-9.1-1.3-13.1C183,203.6,165.4,204.4,158.1,245.8L158.1,245.8z M107.4,245.8
								c-0.4,3.5-0.7,7.4-0.9,11.7l0,0c8.3,0.3,16.7,0.6,25,0.8c-0.1-4.6-0.4-8.8-0.8-12.6C127.1,212.4,111.6,210.6,107.4,245.8
								L107.4,245.8z M191.2,245.8c-0.5,4-0.9,8.3-1.2,13.1c8.5-0.1,17-0.2,25.4-0.4c-0.2-4.6-0.4-8.8-0.8-12.7
								C210.7,205.4,196.2,205.1,191.2,245.8L191.2,245.8z M243.2,245.8c-1,3.9-1.7,7.9-2.2,11.9c7.1-0.3,14.2-0.6,21.2-0.9
								c0.9-3.6,1.5-7.3,1.8-11C266.3,220.6,250,220.2,243.2,245.8L243.2,245.8z M156.4,245.8c-1-39.6-16-39.3-23,0
								c-0.7,3.8-1.3,8-1.8,12.6c8.2,0.2,16.4,0.4,24.7,0.5C156.5,254,156.5,249.7,156.4,245.8L156.4,245.8z M284.7,245.8
								c-1.2,3.2-2.2,6.6-3.1,9.9c5.2-0.3,10.3-0.7,15.5-1c0.4-2.9,0.6-5.9,0.7-8.9C298.2,229.1,291,229.4,284.7,245.8L284.7,245.8z
								 M267.3,245.8c-1.9,3.6-3.6,7.2-5,11c6.5-0.3,12.9-0.7,19.4-1.1c0.9-3.3,1.5-6.6,1.9-9.9
								C285.5,228.9,276.5,228.9,267.3,245.8L267.3,245.8z M299.6,245.8c-1.1,2.9-2,5.9-2.5,8.9c3.2-0.2,6.4-0.5,9.6-0.7l3.5-8.2
								l0.1-0.3C308.7,236.4,303.4,236.5,299.6,245.8L299.6,245.8z"/>
						</g>
					</g>
				</g>
				<path class="st4" d="M349.3,213.4c0,36.4-9.8,35.1-35.7,24.8c-25.5-10.1-66.6-29-129.2-29C107,209.2,60,228,32.8,236.4
					C8.5,243.9,0,243.2,0,213.4C0,181.3,15.5,149,41.2,123c-25.1-20.1-29.1-56.7-9-81.8s56.7-29.1,81.8-9
					c10.3,8.3,17.5,19.8,20.4,32.6c25.9-9.8,54.6-9.8,80.5,0c7-31.4,38.2-51.1,69.5-44.1s51.1,38.2,44.1,69.5
					c-2.9,12.9-10.1,24.4-20.4,32.7C333.8,149,349.3,181.3,349.3,213.4z"/>
				<g id="eye">
					<path class="st1" d="M72.6,26.6c-27.7,0-44.1,36.9-44.1,51.9s10.8,40.2,34,40.2s51-22.6,51-42.9c0-7.8-9.7-21.1-9.7-26.9
						C103.9,39.1,96.8,26.6,72.6,26.6z"/>
					<path class="st5" d="M101.7,72.8c0,19.6-17.8,35.5-35.6,35.5S37.2,97.2,37.2,77.6s18.8-40.3,36.6-40.3S101.7,53.2,101.7,72.8z"
						/>
					<path class="st4" d="M94.6,67.5c0,15.6-13.2,31.7-26.6,31.7s-22.1-9.7-22.1-25.3s14.4-31.3,27.9-31.3S94.6,51.8,94.6,67.5z"/>
					<circle class="st0" cx="64.4" cy="54" r="5.7"/>
				</g>
				<g id="eye-2">
					<path class="st1" d="M273.6,26.6c27.6,0,44.1,36.9,44.1,51.9s-10.8,40.2-34,40.2s-51-22.6-51-42.9c0-7.8,9.6-21.1,9.6-26.9
						C242.3,39.1,249.3,26.6,273.6,26.6z"/>
					<path class="st5" d="M306.8,78.9c0,18.6-13.5,28.7-30.2,28.7s-30.2-15.1-30.2-33.6s13.5-33.7,30.2-33.7S306.8,60.3,306.8,78.9z
						"/>
					<path class="st4" d="M299.7,73.9c0,15.3-6.8,27.7-20.1,27.7s-28-12.4-28-27.7s10.8-27.7,24.1-27.7S299.7,58.5,299.7,73.9z"/>
					<circle class="st0" cx="266.9" cy="61.8" r="6"/>
				</g>
				<g id="deco">
					<circle class="st5" cx="135.8" cy="194.1" r="9.7"/>
					<circle class="st5" cx="213.4" cy="194.1" r="9.7"/>
					
						<ellipse transform="matrix(0.264 -0.9645 0.9645 0.264 -97.7394 139.3876)" class="st6" cx="42.5" cy="133.7" rx="6.9" ry="5.1"/>
					<ellipse class="st1" cx="307.1" cy="134" rx="5" ry="6.6"/>
				</g>
				<rect y="0" class="st7" width="349.3" height="349.3"/>
			</g>
		</g>
	</g>
</g>
</svg>
