<?xml version="1.0" encoding="utf-8"?>
<!-- Generator: Adobe Illustrator 25.0.0, SVG Export Plug-In . SVG Version: 6.00 Build 0)  -->
<svg version="1.1" id="Ebene_1" xmlns="http://www.w3.org/2000/svg" xmlns:xlink="http://www.w3.org/1999/xlink" x="0px" y="0px"
	 viewBox="0 0 118.8 118.8" style="enable-background:new 0 0 118.8 118.8;" xml:space="preserve">
<style type="text/css">
	.st0{fill:#78B355;}
	.st1{fill:#5D913B;}
	.st2{fill:#2A3034;}
	.st3{fill:#C7DFB3;}
	.st4{fill:#FFFFFF;}
	.st5{fill:none;}
</style>
<g id="Ebene_2_1_">
	<g id="Ebene_1-2">
		<path class="st0" d="M112.4,62.5c0.2-0.2,0.4-0.4,0.5-0.6c1-1.2,1.9-2.6,2.6-4c0.9-1.7,1.9-3.3,2.7-5.1c0.4-0.8,0.6-1.7,0.6-2.7
			c0-1-0.8-1.8-1.8-1.8c-0.1,0-0.2,0-0.3,0c-0.6,0.1-1.3,0.3-1.8,0.6c-1.8,1-3.6,2-5.5,2.9L55.9,75.9c-0.1-1.8-0.3-3.7-0.5-5.5
			c-0.4-2.5-0.9-4.9-1.6-7.3c0-0.1,0-0.2-0.1-0.3c-0.3-0.7-0.4-1.3-0.6-2c-0.4-1.3-0.9-2.7-1.4-4c-0.7-1.7-1.4-3.5-2.2-5.1
			c-1.7-3.4-3.9-6.4-6.7-9c-1.4-1.3-2.9-2.4-4.5-3.3c-0.2-0.1-0.3-0.2-0.4-0.3c-0.6-0.3-1.2-0.6-1.8-0.9s-1.1-0.5-1.7-0.7
			c-0.1,0-0.1,0-0.2-0.1c-0.4-0.1-0.9-0.2-1.3-0.3c-1.2-0.3-2.5-0.5-3.7-0.6c-0.1,0-0.1,0-0.2,0c-1.3-0.1-2.6-0.1-3.9,0.1
			c-2.2,0.2-4.3,0.7-6.3,1.5c-4.2,1.4-7.7,4.5-9.6,8.5c-1.5,3.2-2.4,6.6-2.5,10.2c-0.1,2.5,0,5.1,0.6,7.6c0.8,4.1,2.8,8,5.8,11
			c1.8,1.9,4.4,2.2,6.8,3.4c0.2,0.1,0.2,0.2,0.2,0.4C18.7,82,17.8,85,17.2,88c-0.3,1.3-0.3,2.7-0.2,4.1c0.1,1.2,0.9,2.2,2.1,2.5
			c1.9,0.6,3.8,0.9,5.7,1.1c1.7,0.2,3.3,0.3,5,0.1c1.4-0.2,2.7-0.5,4-0.9c0.7-0.2,1.2-0.7,1.3-1.4c0.1-0.4,0.1-0.9,0.1-1.3
			c0-2.6-0.2-5.1-0.7-7.7c0-0.2,0-0.3,0.2-0.2c1.6,0.2,3.2,0.3,4.9,0.4c2.6,0.2,5.3,0.2,7.9,0.2c1.6,0,3.1,0,4.7,0s3,0,4.6-0.1
			c0.2,0,0.2,0.1,0.2,0.2l-0.1,1.3c-0.2,2.3-0.3,4.6-0.3,6.9c0,1.2,0.2,2.4,0.5,3.5c0.2,0.7,0.8,1.2,1.5,1.4
			c1.2,0.3,2.3,0.4,3.5,0.6c1.4,0.2,2.8,0.1,4.2,0.1c2.4,0.1,4.9-0.2,7.2-0.9c0.7-0.2,1.5-0.4,2.2-0.7c0.5-0.2,0.9-0.8,0.9-1.3
			c0-0.8,0-1.6-0.1-2.4c-0.1-1.3-0.2-2.6-0.4-3.9s-0.3-2.5-0.4-3.8c-0.1-0.8-0.2-1.7-0.3-2.5c0-0.1,0-0.2,0.2-0.2
			c1.1-0.1,2.2-0.3,3.3-0.5c3.1-0.5,6.1-1.2,9.1-2.1c1.9-0.6,3.9-1.2,5.7-2c0.3-0.1,0.3-0.1,0.3,0.2c0,0.6,0,1.3,0.1,1.9
			c0.1,1.2,0,2.5,0.1,3.7c0.1,1.2,0.7,2.2,1.8,2.8c1.4,0.7,2.9,1.1,4.4,1.1c1.9,0,3.7-0.1,5.5-0.5c1.6-0.3,3.2-0.7,4.8-1.2
			c0.9-0.3,1.6-1.1,1.8-2c0.2-0.9,0.1-1.7-0.1-2.6c-0.3-1.5-0.7-3-1.1-4.4c-0.7-2.8-1.4-5.7-2.2-8.5l-2.1-3.9L112.4,62.5z"/>
		<path class="st1" d="M112.5,63.6c0.1,1.9-0.7,3.6-2.2,4.7l-0.8,0.6c-0.1,0-0.2,0.1-0.2,0.2c-0.4,0.2-0.9,0.5-1.3,0.8
			c-2.4,1.5-4.8,2.8-7.3,4c-3.7,1.7-7.5,3-11.4,4.1c-2.2,0.6-4.4,1.2-6.6,1.7c-1.2,0.2-2.4,0.4-3.7,0.6c-1.7,0.2-3.3,0.4-5,0.4
			c-1.2,0.1-2.5,0.1-3.7,0.1c-0.1,0-0.2,0-0.3,0h-5.4c-0.1,0-0.2,0-0.3,0l-4.2-0.1c-0.5,0-1,0-1.5,0c-0.8,0-1.5-0.1-2.3-0.2
			c-0.2,0-0.2-0.1-0.2-0.2c0-1.5-0.1-3-0.2-4.5c-0.1-1.8-0.3-3.7-0.5-5.5c-0.4-2.5-0.9-4.9-1.6-7.3c0-0.1,0-0.2-0.1-0.3
			c-0.3-0.7-0.4-1.3-0.6-2c-0.4-1.3-0.9-2.7-1.4-4c-0.7-1.7-1.4-3.5-2.2-5.1c-1.7-3.4-3.9-6.4-6.7-9c-1.4-1.3-2.9-2.4-4.5-3.3
			c-0.2-0.1-0.3-0.2-0.4-0.3c-0.6-0.3-1.2-0.6-1.8-0.9s-1.1-0.5-1.7-0.7c-0.1,0-0.2,0-0.2-0.1c-0.5-0.1-0.9-0.2-1.3-0.3
			c-1.2-0.3-2.5-0.5-3.7-0.5c0.6-0.8,1.2-1.5,1.9-2.2c3-3.3,6.5-6.2,10.3-8.5c0.1-0.1,0.2-0.1,0.3-0.2c0.4-0.2,0.7-0.5,1.2-0.6
			c0.7-0.4,1.4-0.8,2.2-1.1c0.1,0,0.1,0,0.2-0.1c0.4-0.2,0.8-0.4,1.2-0.6c2.7-1.2,5.6-2,8.6-2.6c2.1-0.4,4.2-0.6,6.2-0.7
			c2.2-0.1,4.4,0,6.6,0.2c4.3,0.4,8.6,1.3,12.6,2.8c2.8,0.9,5.6,2,8.2,3.3c2.6,1.3,5,2.9,7.2,4.8c0.3,0.2,0.5,0.5,0.8,0.8
			c0.3,0.1,0.4,0.3,0.5,0.5c0.9,0.9,1.8,1.8,2.6,2.8c0.8,0.9,1.5,1.8,2.2,2.7c3.1,4.2,5.7,8.9,7.5,13.8c0,0.1,0,0.2,0.2,0.3
			c0.1,0.5,0.3,0.9,0.4,1.4l0.4,1.1c0.4,1.2,0.8,2.4,1.1,3.6c0.2,0.5,0.3,1,0.4,1.5c0.3,1,0.5,2,0.7,3L112.5,63.6z"/>
		<path class="st2" d="M45.1,23.8l0.6,3.9c0.1,0.6,0.2,1.3,0.3,1.9c0,0.2,0.2,0.4,0.4,0.4c3.6,1.4,7.2,2.9,10.7,4.5
			c3.5,1.6,6.9,3.3,10.2,5.3c0.6,0.4,1.3,0.8,1.9,1.2c0.1,0.1,0.2,0.1,0.4,0.1c1.1-0.2,2.2-0.3,3.4-0.4s2.1-0.2,3.2-0.3
			c2-0.2,4-0.3,6-0.3c2-0.1,3.9-0.1,5.9,0c1.7,0,3.3,0.1,5,0.2c0.1,0,0.2,0,0.3-0.2c1.3-2.4,2.4-5.1,3-7.8c0-0.2,0.1-0.3,0.1-0.5
			c0.3,0.1,0.4,0.4,0.5,0.5c0.9,0.9,1.8,1.8,2.6,2.8c-0.7,2.3-1.7,4.5-2.8,6.6c-0.2,0.3-0.2,0.5,0,0.7c0.1,0.1,0.2,0.3,0.3,0.4
			c3.3,4.8,5.9,10.1,7.8,15.7c0.2,0.5,0.2,0.5,0.5,0.2c1.6-1.4,3-3,4.2-4.9c0.1-0.2,0.2-0.4,0.3-0.5c0.1,0.4,0.3,0.7,0.4,1.1
			c0.4,1.2,0.8,2.4,1.1,3.6c-0.2-0.1-0.2,0.1-0.3,0.2c-0.4,0.5-0.8,1-1.3,1.5c-2.1,2.2-4.5,4-7.2,5.5c-4.1,2.2-8.4,4-12.8,5.2
			c-2.4,0.7-4.9,1.2-7.4,1.6c-3.1,0.7-6.3,1.1-9.5,1.3c-1.8,0.1-3.7,0-5.5-0.3c-3.6-0.5-6.7-2.4-8.9-5.3c-0.9-1.3-2-2.5-3.1-3.6
			c-0.5-0.5-1.1-1-1.7-1.4c-0.3-0.7-0.4-1.3-0.6-2c-0.4-1.3-0.9-2.7-1.4-4c0.2,0.1,0.3,0.1,0.4,0.2c2,1.2,3.9,2.6,5.6,4.1
			c1.4,1.3,2.7,2.7,3.8,4.2c1.2,1.7,2.9,2.9,4.9,3.6c0.4,0.1,0.4,0.1,0.4-0.3c0-1.3,0-2.6,0-3.8c0-3.9,0-7.9,0.1-11.8
			c0.1-2.9,0.1-5.7,0.1-8.6c0-0.2-0.1-0.4-0.2-0.5c-1.5-1-3-1.9-4.6-2.7c-5.7-2.9-11.5-5.6-17.5-7.8c-0.2-0.1-0.3-0.1-0.5,0L43.3,34
			c-1.6,1.2-3.1,2.6-4.5,4c-0.4,0.3-0.7,0.6-1,1c-0.6-0.3-1.2-0.6-1.8-0.9s-1.1-0.5-1.7-0.7c-0.1,0-0.2,0-0.2-0.1
			c0.1,0,0.1-0.1,0.2-0.2c1.1-1.1,2.1-2.1,3.2-3.1c1.5-1.4,3-2.7,4.7-3.8c0.1-0.1,0.2-0.2,0.2-0.3c-0.1-0.7-0.2-1.3-0.3-2
			s-0.2-1.6-0.4-2.4c0.4-0.2,0.7-0.4,1.1-0.6c0.7-0.4,1.4-0.8,2.2-1.1C44.9,23.8,45,23.8,45.1,23.8z M70.5,57.1L70.5,57.1v4.7
			c0,2.5,0,4.9,0,7.4c0,0.2,0.1,0.3,0.3,0.3c2,0,4-0.1,6-0.4c2.6-0.3,5.2-0.9,7.7-1.4c3-0.6,5.9-1.4,8.7-2.4c2.8-1,5.6-2.3,8.2-3.8
			c0.3-0.2,0.3-0.3,0.2-0.6c-0.6-1.9-1.2-3.8-2-5.6c-1.7-3.9-3.7-7.7-6.2-11.2c-0.1-0.1-0.2-0.2-0.4-0.2c-1.8-0.2-3.6-0.2-5.3-0.2
			c-2.2,0-4.3,0-6.5,0.1c-1.4,0.1-2.8,0.1-4.3,0.2c-2,0.2-4,0.4-5.9,0.6c-0.2,0-0.3,0.1-0.3,0.3c0,1.4-0.1,2.7-0.1,4.1
			C70.6,51.8,70.6,54.5,70.5,57.1z"/>
		<path class="st3" d="M55.3,61c0,11.4-12.4,18.4-27.6,18.4S0,72.4,0,61s12.4-23,27.6-23S55.3,49.5,55.3,61z"/>
		<path class="st0" d="M48.8,46.7c4-3.2,4.6-9,1.4-12.9s-9-4.6-12.9-1.4c-1.6,1.3-2.8,3.1-3.2,5.2c-4.1-1.5-8.6-1.5-12.7,0
			c-1.1-5-6-8.1-11-7s-8.1,6-7,11c0.5,2,1.6,3.9,3.2,5.2C2.5,50.8,0,55.9,0,61c0,11.4,12.4,1.5,27.6,1.5s27.6,9.9,27.6-1.5
			C55.3,55.9,52.8,50.8,48.8,46.7z"/>
		<circle class="st4" cx="11.5" cy="38.7" r="5.4"/>
		<circle class="st2" cx="11.5" cy="38.7" r="2.3"/>
		<circle class="st4" cx="43.8" cy="38.7" r="5.4"/>
		<circle class="st2" cx="43.8" cy="38.7" r="2.3"/>
		<circle class="st1" cx="21.5" cy="57.9" r="1.5"/>
		<circle class="st1" cx="33.8" cy="57.9" r="1.5"/>
		<rect y="0" class="st5" width="118.8" height="118.8"/>
	</g>
</g>
</svg>
