<?xml version="1.0" encoding="UTF-8" standalone="no"?>
<svg
   viewBox="0 0 45 45"
   xml:space="preserve"
   version="1.1"
   id="svg2"
   sodipodi:docname="froguwu.svg"
   inkscape:export-xdpi="106.66637"
   inkscape:export-ydpi="106.66637"
   inkscape:version="1.1.1 (3bf5ae0d25, 2021-09-20, custom)"
   width="45"
   height="45"
   inkscape:export-filename="/home/kassin/Ãrea de trabalho/sadfrog.png"
   xmlns:inkscape="http://www.inkscape.org/namespaces/inkscape"
   xmlns:sodipodi="http://sodipodi.sourceforge.net/DTD/sodipodi-0.dtd"
   xmlns="http://www.w3.org/2000/svg"
   xmlns:svg="http://www.w3.org/2000/svg"
   xmlns:rdf="http://www.w3.org/1999/02/22-rdf-syntax-ns#"
   xmlns:cc="http://creativecommons.org/ns#"
   xmlns:dc="http://purl.org/dc/elements/1.1/"><sodipodi:namedview
     pagecolor="#ffffff"
     bordercolor="#666666"
     borderopacity="1"
     objecttolerance="10"
     gridtolerance="10"
     guidetolerance="10"
     inkscape:pageopacity="0"
     inkscape:pageshadow="2"
     inkscape:window-width="1920"
     inkscape:window-height="1026"
     id="namedview26"
     showgrid="false"
     inkscape:zoom="11.015152"
     inkscape:cx="19.019256"
     inkscape:cy="20.653369"
     inkscape:window-x="0"
     inkscape:window-y="54"
     inkscape:window-maximized="1"
     inkscape:current-layer="svg2"
     fit-margin-top="0"
     fit-margin-left="0"
     fit-margin-right="0"
     fit-margin-bottom="0"
     inkscape:pagecheckerboard="0"
     width="45px" /><metadata
     id="metadata8"><rdf:RDF><cc:Work
         rdf:about=""><dc:format>image/svg+xml</dc:format><dc:type
           rdf:resource="http://purl.org/dc/dcmitype/StillImage" /></cc:Work></rdf:RDF></metadata><defs
     id="defs6"><clipPath
       id="clipPath16"
       clipPathUnits="userSpaceOnUse"><path
         id="path18"
         d="M 0,36 H 36 V 0 H 0 Z"
         inkscape:connector-curvature="0" /></clipPath><clipPath
       id="clipPath16-3"
       clipPathUnits="userSpaceOnUse"><path
         inkscape:connector-curvature="0"
         id="path18-6"
         d="M 0,36 H 36 V 0 H 0 Z" /></clipPath></defs><g
     id="g878"
     transform="translate(-46.858944,1.438228)"><path
       id="path22-3"
       style="fill:#c6e5b3;fill-opacity:1;fill-rule:nonzero;stroke:none;stroke-width:1.25"
       d="m 91.859069,26.062022 c 0,9.32 -10.07375,15 -22.5,15 -12.42625,0 -22.5,-5.68 -22.5,-15 h 45"
       sodipodi:nodetypes="cscc" /><path
       id="path26-6"
       style="fill:#77b255;fill-opacity:1;fill-rule:nonzero;stroke:none;stroke-width:1.25"
       d="m 86.552694,14.406772 c 1.71,-1.375 2.80625,-3.48125 2.80625,-5.845 0,-4.14125 -3.3575,-7.5 -7.5,-7.5 -3.57625,0 -6.5625,2.50625 -7.3125,5.85625 -1.61125,-0.60375 -3.355,-0.9475 -5.1875,-0.9475 -1.83125,0 -3.57625,0.34375 -5.18625,0.9475 -0.75125,-3.35 -3.7375,-5.85625 -7.31375,-5.85625 -4.14125,0 -7.5,3.35875 -7.5,7.5 0,2.36375 1.0975,4.47 2.80625,5.845 -3.30625,3.35 -5.30625,7.51125 -5.30625,11.655 0,9.32 10.07375,1.25 22.5,1.25 12.4275,0 22.5,8.07 22.5,-1.25 0,-4.14375 -1.99875,-8.305 -5.30625,-11.655" /><path
       id="path30"
       style="fill:#ffffff;fill-opacity:1;fill-rule:nonzero;stroke:none;stroke-width:1.25"
       d="m 60.609069,7.937022 c 0,2.41625 -1.95875,4.375 -4.375,4.375 -2.41625,0 -4.375,-1.95875 -4.375,-4.375 0,-2.41625 1.95875,-4.375 4.375,-4.375 2.41625,0 4.375,1.95875 4.375,4.375" /><path
       id="path34"
       style="fill:#292f33;fill-opacity:1;fill-rule:nonzero;stroke:none;stroke-width:1.25"
       d="m 58.109069,7.937022 c 0,1.03625 -0.83875,1.875 -1.875,1.875 -1.03625,0 -1.875,-0.83875 -1.875,-1.875 0,-1.03625 0.83875,-1.875 1.875,-1.875 1.03625,0 1.875,0.83875 1.875,1.875" /><path
       id="path38"
       style="fill:#ffffff;fill-opacity:1;fill-rule:nonzero;stroke:none;stroke-width:1.25"
       d="m 86.859069,7.937022 c 0,2.41625 -1.9575,4.375 -4.375,4.375 -2.4175,0 -4.375,-1.95875 -4.375,-4.375 0,-2.41625 1.9575,-4.375 4.375,-4.375 2.4175,0 4.375,1.95875 4.375,4.375" /><path
       id="path42"
       style="fill:#292f33;fill-opacity:1;fill-rule:nonzero;stroke:none;stroke-width:1.25"
       d="m 84.359069,7.937022 c 0,1.03625 -0.84,1.875 -1.875,1.875 -1.035,0 -1.875,-0.83875 -1.875,-1.875 0,-1.03625 0.84,-1.875 1.875,-1.875 1.035,0 1.875,0.83875 1.875,1.875" /><path
       id="path46-7"
       style="fill:#5c913b;fill-opacity:1;fill-rule:nonzero;stroke:none;stroke-width:1.25"
       d="m 65.609069,23.562022 c 0,0.69125 -0.56,1.25 -1.25,1.25 -0.69,0 -1.25,-0.55875 -1.25,-1.25 0,-0.69125 0.56,-1.25 1.25,-1.25 0.69,0 1.25,0.55875 1.25,1.25" /><path
       id="path50-5"
       style="fill:#5c913b;fill-opacity:1;fill-rule:nonzero;stroke:none;stroke-width:1.25"
       d="m 75.609069,23.562022 c 0,0.69125 -0.55875,1.25 -1.25,1.25 -0.69125,0 -1.25,-0.55875 -1.25,-1.25 0,-0.69125 0.55875,-1.25 1.25,-1.25 0.69125,0 1.25,0.55875 1.25,1.25" /></g><ellipse
     style="fill:#ff7892;fill-opacity:1;stroke:none;stroke-width:2.70288;stroke-linecap:round;stroke-linejoin:bevel;stroke-miterlimit:4;stroke-dasharray:none;stroke-opacity:1;paint-order:normal"
     id="path94659-0-0-6-3"
     cx="7.8418636"
     cy="22.860893"
     rx="5.5894599"
     ry="5.2934585" /><ellipse
     style="fill:#ff7892;fill-opacity:1;stroke:none;stroke-width:2.70288;stroke-linecap:round;stroke-linejoin:bevel;stroke-miterlimit:4;stroke-dasharray:none;stroke-opacity:1;paint-order:normal"
     id="path94659-0-0-6"
     cx="37.091629"
     cy="22.768835"
     rx="5.5894599"
     ry="5.2934585" /><g
     id="g888"
     transform="translate(0,2.046)"><path
       id="path48067"
       style="opacity:1;fill:#292f33;stroke-width:1.22729;stroke-linejoin:bevel"
       d="m 16.310543,7.9575892 c 0,3.3375828 -2.697219,6.0432288 -6.024405,6.0432288 -3.3271876,0 -6.0244055,-2.705646 -6.0244057,-6.0432288 0,-3.3375833 2.7281708,-6.3477422 6.0553587,-6.3477422 3.327186,-2e-7 5.993452,3.0101587 5.993452,6.3477422 z"
       sodipodi:nodetypes="sssss" /><ellipse
       style="fill:#ffffff;fill-opacity:0.827586;stroke:none;stroke-width:3.02797;stroke-linejoin:bevel;stroke-miterlimit:4;stroke-dasharray:none;stroke-opacity:0.53202;paint-order:normal"
       id="path11744-3-7"
       cx="7.0516443"
       cy="7.4638457"
       rx="2.6100986"
       ry="3.1212702" /><ellipse
       style="fill:#ffffff;fill-opacity:0.827586;stroke:none;stroke-width:1.76574;stroke-linejoin:bevel;stroke-miterlimit:4;stroke-dasharray:none;stroke-opacity:0.53202;paint-order:normal"
       id="path11744-1-7-3"
       cx="11.320922"
       cy="11.63988"
       rx="1.6414486"
       ry="1.687784" /></g><g
     id="g883"
     transform="translate(0,2.046)"><path
       id="path48067-3"
       style="fill:#292f33;stroke-width:1.22729;stroke-linejoin:bevel"
       d="m 40.672617,7.8094791 c 0,3.3375819 -2.697219,6.0432289 -6.024406,6.0432289 -3.327187,0 -6.024404,-2.705647 -6.024405,-6.0432289 0,-3.3375833 2.728171,-6.3477422 6.055358,-6.3477422 3.327187,-2e-7 5.993453,3.0101587 5.993453,6.3477422 z"
       sodipodi:nodetypes="sssss" /><ellipse
       style="fill:#ffffff;fill-opacity:0.827586;stroke:none;stroke-width:3.02797;stroke-linejoin:bevel;stroke-miterlimit:4;stroke-dasharray:none;stroke-opacity:0.53202;paint-order:normal"
       id="path11744-3-7-6"
       cx="31.413719"
       cy="7.3157358"
       rx="2.6100986"
       ry="3.1212702" /><ellipse
       style="fill:#ffffff;fill-opacity:0.827586;stroke:none;stroke-width:1.76574;stroke-linejoin:bevel;stroke-miterlimit:4;stroke-dasharray:none;stroke-opacity:0.53202;paint-order:normal"
       id="path11744-1-7-3-1"
       cx="35.682995"
       cy="11.491771"
       rx="1.6414486"
       ry="1.687784" /></g></svg>
