<?xml version="1.0" encoding="utf-8"?>
<!-- Generator: Adobe Illustrator 26.0.1, SVG Export Plug-In . SVG Version: 6.00 Build 0)  -->
<svg version="1.1"
	 id="Ebene_1" inkscape:version="1.1.1 (3bf5ae0d25, 2021-09-20, custom)" xmlns:inkscape="http://www.inkscape.org/namespaces/inkscape" xmlns:sodipodi="http://sodipodi.sourceforge.net/DTD/sodipodi-0.dtd" xmlns:svg="http://www.w3.org/2000/svg"
	 xmlns="http://www.w3.org/2000/svg" xmlns:xlink="http://www.w3.org/1999/xlink" x="0px" y="0px" viewBox="0 0 36 36"
	 style="enable-background:new 0 0 36 36;" xml:space="preserve">
<style type="text/css">
	.st0{fill:#C6E5B3;}
	.st1{fill:#77B255;}
	.st2{fill:#FFFFFF;}
	.st3{fill:#292F33;}
	.st4{fill:#5C913B;}
	.st5{fill:#F4F7F9;}
	.st6{fill:#BDDDF4;}
	.st7{fill:#67757F;}
	.st8{fill:#546170;}
	.st9{fill:#66757F;}
	.st10{fill:#DFE7EC;}
</style>
<g id="g907" transform="matrix(0.59333169,0,0,0.59333169,-9.1401565,-9.0276016)">
	<path id="path22-3" sodipodi:nodetypes="cscc" class="st0" d="M68.3,46c0,9.3-10.1,15-22.5,15s-22.5-5.7-22.5-15H68.3"/>
	<path id="path26" class="st1" d="M63,34.4c1.7-1.4,2.8-3.5,2.8-5.8c0-4.1-3.4-7.5-7.5-7.5c-3.6,0-6.6,2.5-7.3,5.9
		c-1.6-0.6-3.4-0.9-5.2-0.9c-1.8,0-3.6,0.3-5.2,0.9c-0.8-3.4-3.7-5.9-7.3-5.9c-4.1,0-7.5,3.4-7.5,7.5c0,2.4,1.1,4.5,2.8,5.8
		c-3.3,3.3-5.3,7.5-5.3,11.7c0,9.3,10.1,1.2,22.5,1.2c12.4,0,22.5,8.1,22.5-1.2C68.3,41.9,66.3,37.7,63,34.4"/>
	<path id="path30" class="st2" d="M37.1,27.9c0,2.4-2,4.4-4.4,4.4c-2.4,0-4.4-2-4.4-4.4s2-4.4,4.4-4.4
		C35.1,23.5,37.1,25.5,37.1,27.9"/>
	<path id="path34" class="st3" d="M34.6,27.9c0,1-0.8,1.9-1.9,1.9c-1,0-1.9-0.8-1.9-1.9c0-1,0.8-1.9,1.9-1.9
		C33.7,26,34.6,26.9,34.6,27.9"/>
	<path id="path38-6" class="st2" d="M63.3,27.9c0,2.4-2,4.4-4.4,4.4s-4.4-2-4.4-4.4s2-4.4,4.4-4.4S63.3,25.5,63.3,27.9"/>
	<path id="path42-7" class="st3" d="M60.8,27.9c0,1-0.8,1.9-1.9,1.9s-1.9-0.8-1.9-1.9c0-1,0.8-1.9,1.9-1.9S60.8,26.9,60.8,27.9"/>
	<path id="path46" class="st4" d="M42.1,43.5c0,0.7-0.6,1.2-1.2,1.2s-1.2-0.6-1.2-1.2s0.6-1.2,1.2-1.2S42.1,42.8,42.1,43.5"/>
	<path id="path50-3" class="st4" d="M52.1,43.5c0,0.7-0.6,1.2-1.2,1.2s-1.2-0.6-1.2-1.2s0.6-1.2,1.2-1.2S52.1,42.8,52.1,43.5"/>
	<path id="path56" class="st3" d="M57.9,46.7l-5.4-1.5c-4.4-0.7-8.8-0.7-13.1,0l-5.4,1.7c-0.8,0.3-1.3,1.2-1.2,2c0,0,0,0,0,0.2
		c0.2,0.7,0.8,1.2,1.5,1.2c0.2,0,0.3,0,0.5,0l3.2-0.8c-0.3,0.5-0.3,1.2-0.2,1.7c0.3,0.8,1.3,1.2,2.2,0.8l2.5-1.3
		c0,0.7,0.3,1.2,0.8,1.5c0.2,0.2,0.5,0.2,0.7,0.2c0.7,0,1.2-0.5,1.5-1l0.2-0.3l0.2,0.3c0.2,0.7,0.8,1,1.5,1c0.3,0,0.5,0,0.7-0.2
		c0.5-0.3,0.8-0.8,0.8-1.5l2.5,1.3c0.2,0.2,0.5,0.2,0.7,0.2c0.7,0,1.2-0.3,1.5-1c0.2-0.5,0.2-1.2-0.2-1.7l3.2,0.8c0.2,0,0.3,0,0.5,0
		c0.7,0,1.3-0.5,1.5-1.2C59.4,48.1,58.9,47.1,57.9,46.7C57.9,46.7,57.9,46.7,57.9,46.7z"/>
</g>
<g>
	<circle id="circle48" class="st5" cx="25.7" cy="7.3" r="3"/>
	<path class="st6" d="M28.7,7.3c0,1.7-1.3,3-3,3c-0.5,0-1-0.1-1.4-0.4l4-4.1C28.5,6.2,28.7,6.8,28.7,7.3z M25.7,4.3
		c-1.7,0-3,1.3-3,3c0,0.6,0.2,1.2,0.5,1.7l4.2-4.2C26.9,4.5,26.3,4.3,25.7,4.3z"/>
	<path id="path50" class="st3" d="M29.2,16.8c-0.3,0-0.5-0.2-0.5-0.5V7.5c0-0.3,0.2-0.5,0.5-0.5s0.5,0.2,0.5,0.5l0,0v8.9
		C29.7,16.6,29.4,16.8,29.2,16.8z"/>
	<path id="path52" class="st7" d="M29.2,6.6L29.2,6.6c-0.5-1.9-2.3-3.1-4.2-2.7S21.9,6.1,22.2,8c0.3,1.9,2.2,3.1,4.1,2.7
		c1.2-0.2,2.2-1.1,2.6-2.3C30.3,8.8,30.6,6.6,29.2,6.6z M25.7,9.8c-1.4,0-2.6-1.2-2.6-2.6s1.2-2.6,2.6-2.6s2.6,1.2,2.6,2.6l0,0
		C28.3,8.7,27.1,9.8,25.7,9.8z"/>
</g>
<g>
	<path id="path4" class="st3" d="M32,36v-3c-0.1-3.8-3.2-6.9-7-7H11c-3.8,0.1-6.9,3.2-7,7v3H32z"/>
	<path id="path6" class="st8" d="M22.5,30l4.3-0.9L24.9,26h-2.4V30z"/>
	<path id="path8" class="st9" d="M20.6,36h2.8l4.4-7.7l-2.9,0.9L23.1,27L20.6,36z"/>
	<path id="path10" class="st8" d="M13.5,30l-4.3-0.9l1.9-3.1h2.4V30z"/>
	<path id="path12" class="st9" d="M15.4,36h-2.8l-4.4-7.7l2.9,0.9l1.7-2.2L15.4,36z"/>
	<path id="path16" class="st10" d="M20.8,36l2.9-10H12.3l2.9,10H20.8z"/>
	<path id="path38" class="st0" d="M14,26.3l4,1.9l4-1.9v-4h-8V26.3z"/>
	<path id="path42" class="st5" d="M13.9,24.7l4.1,2.9l-2.7,2.8l-3-4.5L13.9,24.7z M22.1,24.7L18,27.6l2.7,2.8l3-4.5L22.1,24.7z"/>
	<circle id="circle18" class="st3" cx="18" cy="31.8" r="0.7"/>
	<circle id="circle20" class="st3" cx="18" cy="34.7" r="0.7"/>
	<path class="st3" d="M21.1,26.9v3.2c0,0.1,0,0.2-0.1,0.2h-0.2L18,28.8l-2.8,1.5H15c-0.1,0-0.1-0.1-0.1-0.2v-3.2
		c0-0.1,0-0.2,0.1-0.2c0,0,0.1,0,0.2,0l2.8,1.5l2.8-1.5c0.1,0,0.2,0,0.2,0C21.1,26.7,21.1,26.8,21.1,26.9z"/>
</g>
</svg>
