<?xml version="1.0" encoding="utf-8"?>
<!-- Generator: Adobe Illustrator 26.0.1, SVG Export Plug-In . SVG Version: 6.00 Build 0)  -->
<svg version="1.1" id="Ebene_1" xmlns="http://www.w3.org/2000/svg" xmlns:xlink="http://www.w3.org/1999/xlink" x="0px" y="0px"
	 viewBox="0 0 373.4 373.4" style="enable-background:new 0 0 373.4 373.4;" xml:space="preserve">
<style type="text/css">
	.st0{fill:#C6E5B3;}
	.st1{fill:#77B255;}
	.st2{fill:#FFFFFF;}
	.st3{fill:#292F33;}
	.st4{fill:none;stroke:#C6E5B3;stroke-width:7;stroke-linecap:round;stroke-miterlimit:10;}
	.st5{fill:#5C913B;}
	.st6{fill:none;stroke:#5C913B;stroke-width:8;stroke-linecap:round;stroke-miterlimit:10;}
	.st7{fill:#292F33;stroke:#5C913B;stroke-width:7;stroke-linecap:round;stroke-linejoin:round;}
	.st8{fill:none;stroke:#5C913B;stroke-width:7;stroke-linecap:round;stroke-linejoin:round;}
</style>
<path class="st0" d="M373.4,228.2c0,77.3-83.6,124.5-186.7,124.5S0,305.5,0,228.2H373.4z"/>
<path class="st1" d="M329.4,131.5C356.2,110,360.5,70.8,339,44s-60.7-31.1-87.5-9.6c-11,8.8-18.7,21.1-21.8,34.9
	c-27.7-10.5-58.3-10.5-86.1,0c-7.5-33.5-40.8-54.6-74.4-47.1S14.7,63.1,22.3,96.6c3.1,13.7,10.8,26,21.7,34.8
	c-27.4,27.8-44,62.3-44,96.7C0,299.8,60.1,243,186.7,243c124.2,0,186.7,59.1,186.7-14.9C373.4,193.8,356.8,159.3,329.4,131.5z"/>
<g>
	<path class="st2" d="M297.8,41.5c20,0,36.3,16.3,36.3,36.3s-7.6,22.3-27.6,22.3s-45-2.3-45-22.3C261.4,57.7,277.7,41.5,297.8,41.5
		L297.8,41.5z"/>
	<circle class="st3" cx="314.8" cy="77.8" r="15.6"/>
	<path class="st4" d="M309.2,32.7c-30.5-5.2-48.9,7.9-58.1,39"/>
	<path class="st2" d="M79.8,41.5c20.1,0,36.3,16.3,36.3,36.3s-7.6,22.3-27.7,22.3s-45-2.3-45-22.3C43.5,57.7,59.7,41.5,79.8,41.5
		L79.8,41.5z"/>
	<circle class="st3" cx="96.8" cy="77.8" r="15.6"/>
	<path class="st4" d="M94.7,33.2c-32.3-5-65.8,10.6-58.7,55.2"/>
</g>
<g>
	<circle class="st5" cx="191" cy="207.5" r="10.4"/>
	<circle class="st5" cx="230.9" cy="207.5" r="10.4"/>
	<path class="st6" d="M211.1,119.5c-0.7,27.2,5.1,49.9,25.4,62.6"/>
	<line class="st6" x1="163" y1="192.6" x2="138" y2="222"/>
	<path class="st7" d="M150.5,244.6c54.5,28.6,63.2,74.1,107.6,73.7c31.7-0.3,61.2-33.9,29.3-52C336.4,200.3,194.6,244.7,150.5,244.6
		z"/>
	<line class="st8" x1="264.4" y1="214.9" x2="294.2" y2="236.2"/>
</g>
</svg>
