<?xml version="1.0" encoding="utf-8"?>
<!-- Generator: Adobe Illustrator 25.0.0, SVG Export Plug-In . SVG Version: 6.00 Build 0)  -->
<svg version="1.1" id="Ebene_1" xmlns="http://www.w3.org/2000/svg" xmlns:xlink="http://www.w3.org/1999/xlink" x="0px" y="0px"
	 viewBox="0 0 415.6 415.6" style="enable-background:new 0 0 415.6 415.6;" xml:space="preserve">
<style type="text/css">
	.st0{fill:#C7DFB3;}
	.st1{fill:#78B355;}
	.st2{fill:#FFFFFF;}
	.st3{fill:#2A3034;}
	.st4{fill:#5D913B;}
	.st5{fill:#7EA046;}
	.st6{fill:#98C154;}
	.st7{fill:#88AD4C;}
</style>
<g>
	<g>
		<path class="st0" d="M415.1,261.5c-8.2,85.8-106,129.3-220.5,118.3S-7.7,307.6,0.5,221.8S109.9,58,224.3,68.9
			S423.2,175.7,415.1,261.5z"/>
		<path class="st1" d="M376.4,149.5c32-21,40.9-64,19.9-96.1s-64-40.9-96.1-19.9c-13.1,8.6-23,21.5-27.9,36.4
			c-29.7-14.6-63.6-17.8-95.5-9.2c-4.8-38-39.5-65-77.5-60.2S34.4,40,39.2,78c2,15.6,9.2,30.1,20.5,41.1
			C26.3,147,4.2,183.6,0.5,221.8c-8.2,85.8,91.7,20.4,206.1,31.4c114.5,11,200.1,94.2,208.4,8.3
			C418.7,223.3,403.9,183.2,376.4,149.5z"/>
		<circle class="st2" cx="102.9" cy="63.1" r="40.5"/>
		<circle class="st3" cx="98.4" cy="62.1" r="17.4"/>
		<circle class="st2" cx="344.6" cy="86.3" r="40.5"/>
		<circle class="st3" cx="340.3" cy="84.3" r="17.4"/>
	</g>
	<g>
		<circle class="st4" cx="148.3" cy="207.8" r="11.6"/>
		<circle class="st4" cx="245" cy="222.5" r="11.6"/>
		<path class="st5" d="M78.6,349.1c-41.3,65.4,93.8,109.4,121.5,71.4C212.3,359.5,128.3,300.9,78.6,349.1z"/>
		<path class="st6" d="M132.1,244.8L78.6,349.1c38.1-16.4,128.3,20.9,121.5,71.4l61.9-122.6C252.6,223.7,159.6,210.2,132.1,244.8z"
			/>
		<path class="st6" d="M246.8,289.9l3.1,21.5c93.8,0-2.1,84.6-37.2,61.2l-2.9,23.8C321.7,420.5,362.8,271.8,246.8,289.9z"/>
		<path class="st7" d="M213.2,380.5l2.1-6.5c36.9,18.1,126.3-62.6,34.7-62.6l-1.6-6.5C342.6,302.6,278.5,393.4,213.2,380.5z"/>
		<polygon class="st7" points="248.3,304.9 212.3,380.3 213.2,380.5 222.5,376.2 255.2,311.5 257.1,306.1 		"/>
		<path class="st7" d="M199.7,406.9l6.1-12.8c2.2,1.4,4.4,2.7,6.4,2.7l-12.5,28.4C200.1,421.2,201.3,414.7,199.7,406.9z"/>
		<polygon class="st7" points="258.8,283 256,288.8 260.3,288.5 		"/>
	</g>
</g>
</svg>
