<?xml version="1.0" encoding="UTF-8" standalone="no"?>
<svg
   viewBox="0 0 36 36"
   version="1.1"
   id="svg34"
   sodipodi:docname="frogFinger.svg"
   inkscape:version="1.1.1 (3bf5ae0d25, 2021-09-20, custom)"
   xmlns:inkscape="http://www.inkscape.org/namespaces/inkscape"
   xmlns:sodipodi="http://sodipodi.sourceforge.net/DTD/sodipodi-0.dtd"
   xmlns="http://www.w3.org/2000/svg"
   xmlns:svg="http://www.w3.org/2000/svg">
  <sodipodi:namedview
     id="namedview36"
     pagecolor="#505050"
     bordercolor="#ffffff"
     borderopacity="1"
     inkscape:pageshadow="0"
     inkscape:pageopacity="0"
     inkscape:pagecheckerboard="1"
     showgrid="false"
     inkscape:zoom="17.500893"
     inkscape:cx="19.170451"
     inkscape:cy="21.170348"
     inkscape:window-width="1920"
     inkscape:window-height="1026"
     inkscape:window-x="1920"
     inkscape:window-y="54"
     inkscape:window-maximized="1"
     inkscape:current-layer="svg34" />
  <defs
     id="defs4">
    <style
       id="style2">.cls-1{fill:#c6e5b3;}.cls-2{fill:#77b255;}.cls-3{fill:#fff;}.cls-4{fill:#292f33;}.cls-5{fill:#5c913b;}.cls-6{fill:#3b642e;}.cls-7{fill:none;}</style>
  </defs>
  <g
     id="g997"
     transform="matrix(0.79999777,0,0,0.79999777,2.2294198,4.1036605)"
     style="stroke-width:1.25">
    <path
       id="path22-3"
       style="fill:#c6e5b3;fill-opacity:1;fill-rule:nonzero;stroke:none;stroke-width:1.5625"
       d="m 42.213343,22.370667 c 0,9.32 -10.073751,15 -22.500001,15 -12.4262495,0 -22.4999995,-5.68 -22.4999995,-15 H 42.213343"
       sodipodi:nodetypes="cscc" />
    <path
       id="path26-6"
       style="fill:#77b255;fill-opacity:1;fill-rule:nonzero;stroke:none;stroke-width:1.5625"
       d="m 36.906967,10.715417 c 1.710001,-1.375 2.80625,-3.48125 2.80625,-5.845 0,-4.14125 -3.3575,-7.5 -7.5,-7.5 -3.57625,0 -6.5625,2.50625 -7.3125,5.85625 -1.61125,-0.60375 -3.355,-0.9475 -5.1875,-0.9475 -1.83125,0 -3.57625,0.34375 -5.18625,0.9475 -0.75125,-3.35 -3.7375,-5.85625 -7.3137495,-5.85625 -4.14125,0 -7.5,3.35875 -7.5,7.5 0,2.36375 1.0975,4.47 2.80625,5.845 -3.30625,3.35 -5.30625,7.51125 -5.30625,11.655 0,9.32 10.07375,1.25 22.4999995,1.25 12.4275,0 22.5,8.07 22.5,-1.25 0,-4.14375 -1.998749,-8.305 -5.30625,-11.655" />
    <path
       id="path30"
       style="fill:#ffffff;fill-opacity:1;fill-rule:nonzero;stroke:none;stroke-width:1.5625"
       d="m 10.963343,4.245667 c 0,2.41625 -1.9587505,4.375 -4.3750005,4.375 -2.41625,0 -4.375,-1.95875 -4.375,-4.375 0,-2.41625 1.95875,-4.375 4.375,-4.375 2.41625,0 4.3750005,1.95875 4.3750005,4.375" />
    <path
       id="path34"
       style="fill:#292f33;fill-opacity:1;fill-rule:nonzero;stroke:none;stroke-width:1.5625"
       d="m 8.4633425,4.245667 c 0,1.03625 -0.83875,1.875 -1.875,1.875 -1.03625,0 -1.875,-0.83875 -1.875,-1.875 0,-1.03625 0.83875,-1.875 1.875,-1.875 1.03625,0 1.875,0.83875 1.875,1.875" />
    <path
       id="path38"
       style="fill:#ffffff;fill-opacity:1;fill-rule:nonzero;stroke:none;stroke-width:1.5625"
       d="m 37.213343,4.245667 c 0,2.41625 -1.9575,4.375 -4.375,4.375 -2.417501,0 -4.375001,-1.95875 -4.375001,-4.375 0,-2.41625 1.9575,-4.375 4.375001,-4.375 2.4175,0 4.375,1.95875 4.375,4.375" />
    <path
       id="path42"
       style="fill:#292f33;fill-opacity:1;fill-rule:nonzero;stroke:none;stroke-width:1.5625"
       d="m 34.713343,4.245667 c 0,1.03625 -0.840001,1.875 -1.875,1.875 -1.035,0 -1.875001,-0.83875 -1.875001,-1.875 0,-1.03625 0.840001,-1.875 1.875001,-1.875 1.034999,0 1.875,0.83875 1.875,1.875" />
    <path
       id="path46"
       style="fill:#5c913b;fill-opacity:1;fill-rule:nonzero;stroke:none;stroke-width:1.5625"
       d="m 15.963343,19.870667 c 0,0.69125 -0.560001,1.25 -1.25,1.25 -0.69,0 -1.25,-0.55875 -1.25,-1.25 0,-0.69125 0.56,-1.25 1.25,-1.25 0.689999,0 1.25,0.55875 1.25,1.25" />
    <path
       id="path50"
       style="fill:#5c913b;fill-opacity:1;fill-rule:nonzero;stroke:none;stroke-width:1.5625"
       d="m 25.963342,19.870667 c 0,0.69125 -0.55875,1.25 -1.25,1.25 -0.69125,0 -1.25,-0.55875 -1.25,-1.25 0,-0.69125 0.55875,-1.25 1.25,-1.25 0.69125,0 1.25,0.55875 1.25,1.25" />
  </g>
  <path
     class="cls-6"
     d="m 28,13.33 a 1.51,1.51 0 0 1 1.51,1.5 v 8 a 1.58,1.58 0 0 1 1.19,-0.56 2,2 0 0 1 0.59,0.11 1.66,1.66 0 0 1 1.17,1.62 1,1 0 0 1 0.87,-0.48 1.43,1.43 0 0 1 0.53,0.11 2,2 0 0 1 1.07,1.85 v 2.37 c 0,4 -2.4,7.17 -7.29,7.17 a 5.1,5.1 0 0 1 -4.3,-2.12 10.17,10.17 0 0 1 -2.77,-5.42 9.07,9.07 0 0 1 0.6,-2.63 c 0.4,-1.61 0.71,-1.89 1.69,-1.89 h 0.62 a 0.71,0.71 0 0 0 0,-0.23 v -1 A 1.43,1.43 0 0 1 25,20.2 a 1.48,1.48 0 0 1 1.53,1.55 v -6.92 a 1.5,1.5 0 0 1 1.5,-1.5 m 0,-0.7 a 2.2,2.2 0 0 0 -2.2,2.2 v 4.81 A 2.45,2.45 0 0 0 25,19.5 2.12,2.12 0 0 0 22.83,21.75 v 0.5 c -1.47,0 -1.92,0.8 -2.32,2.42 -0.08,0.31 -0.17,0.57 -0.25,0.82 a 5.63,5.63 0 0 0 -0.37,2 c 0,1.34 1.18,4 2.94,5.88 a 5.8,5.8 0 0 0 4.83,2.36 c 4.85,0 8,-3.09 8,-7.87 V 25.47 A 2.56,2.56 0 0 0 34.11,23 2.24,2.24 0 0 0 33.33,22.85 1.63,1.63 0 0 0 32.88,22.91 2.58,2.58 0 0 0 30.71,21.65 1.93,1.93 0 0 0 30.22,21.71 V 14.83 A 2.21,2.21 0 0 0 28,12.63 Z"
     id="path22" />
  <path
     class="cls-2"
     d="M 34.93,25.47 A 2,2 0 0 0 33.86,23.62 1,1 0 0 0 32.47,24 1.69,1.69 0 0 0 31.3,22.42 a 1.61,1.61 0 0 0 -1.8,0.46 1.55,1.55 0 0 0 -1.23,-1.34 1.83,1.83 0 0 0 -1.76,0.7 V 21.75 A 1.47,1.47 0 0 0 25,20.2 1.44,1.44 0 0 0 23.52,21.75 v 1 c 0,0.8 -0.57,0.12 -1,0.49 -0.95,0.86 -1.37,3.87 -0.72,6.32 0.79,3 2.45,5.48 5.84,5.48 4.89,0 7.29,-3.19 7.29,-7.18 z"
     id="path24" />
  <path
     class="cls-2"
     d="m 29.51,24.45 a 1.51,1.51 0 1 1 -3,0 v -9.62 a 1.51,1.51 0 1 1 3,0 z M 24.25,23 h -1.39 c -1,0 -1.29,0.28 -1.69,1.88 a 8.82,8.82 0 0 0 -0.6,2.64 c 0,1.75 2.77,7.43 6.84,7.46 z"
     id="path26" />
  <path
     class="cls-5"
     d="m 22.89,28.68 a 0.3,0.3 0 0 0 0.28,0.29 v 0 a 0.29,0.29 0 0 0 0.28,-0.28 V 23 h -0.59 z"
     id="path28" />
  <rect
     class="cls-7"
     width="36"
     height="36"
     id="rect30"
     x="0"
     y="0" />
</svg>
