<?xml version="1.0" encoding="UTF-8" standalone="no"?>
<svg
   viewBox="0 0 45 45"
   style="enable-background:new 0 0 45 45;"
   xml:space="preserve"
   version="1.1"
   id="svg2"
   sodipodi:docname="missingfrog.svg"
   inkscape:version="1.1.1 (3bf5ae0d25, 2021-09-20)"
   inkscape:export-xdpi="68.26667"
   inkscape:export-ydpi="68.26667"
   xmlns:inkscape="http://www.inkscape.org/namespaces/inkscape"
   xmlns:sodipodi="http://sodipodi.sourceforge.net/DTD/sodipodi-0.dtd"
   xmlns:xlink="http://www.w3.org/1999/xlink"
   xmlns="http://www.w3.org/2000/svg"
   xmlns:svg="http://www.w3.org/2000/svg"
   xmlns:rdf="http://www.w3.org/1999/02/22-rdf-syntax-ns#"
   xmlns:cc="http://creativecommons.org/ns#"
   xmlns:dc="http://purl.org/dc/elements/1.1/"><sodipodi:namedview
     id="namedview906"
     pagecolor="#505050"
     bordercolor="#ffffff"
     borderopacity="1"
     inkscape:pageshadow="0"
     inkscape:pageopacity="0"
     inkscape:pagecheckerboard="1"
     showgrid="false"
     inkscape:zoom="8"
     inkscape:cx="30.5625"
     inkscape:cy="11.5"
     inkscape:window-width="1920"
     inkscape:window-height="1027"
     inkscape:window-x="1920"
     inkscape:window-y="53"
     inkscape:window-maximized="1"
     inkscape:current-layer="svg2" /><metadata
     id="metadata8"><rdf:RDF><cc:Work
         rdf:about=""><dc:format>image/svg+xml</dc:format><dc:type
           rdf:resource="http://purl.org/dc/dcmitype/StillImage" /></cc:Work></rdf:RDF></metadata><defs
     id="defs6"><clipPath
       id="clipPath16"
       clipPathUnits="userSpaceOnUse"><path
         id="path18"
         d="M 0,36 36,36 36,0 0,0 0,36 Z" /></clipPath><mask
       maskUnits="userSpaceOnUse"
       id="mask45539"><path
         id="path45541"
         style="fill:#ffffff;fill-opacity:1;fill-rule:nonzero;stroke:none;stroke-width:1.25"
         d="m 143.80416,25.760779 c 1.70999,-1.375 2.80624,-3.48125 2.80624,-5.845 0,-4.14125 -3.35749,-7.5 -7.5,-7.5 -3.57625,0 -6.5625,2.50625 -7.3125,5.85625 -1.61125,-0.60375 -3.355,-0.9475 -5.18749,-0.9475 -1.83126,0 -3.57625,0.34375 -5.18626,0.9475 -0.75125,-3.35 -3.73749,-5.85625 -7.31374,-5.85625 -4.14126,0 -7.5,3.35875 -7.5,7.5 0,2.36375 1.09749,4.47 2.80624,5.845 -3.30625,3.35 -5.30625,7.511249 -5.30625,11.655 0,9.32 10.07375,1.25 22.5,1.25 12.4275,0 22.5,8.07 22.5,-1.25 0,-4.143751 -1.99874,-8.305 -5.30624,-11.655" /></mask><mask
       maskUnits="userSpaceOnUse"
       id="mask45543"><path
         id="path45545"
         style="fill:#ffffff;fill-opacity:1;fill-rule:nonzero;stroke:none;stroke-width:1.25"
         d="m 143.48658,37.416029 c 0,9.32 -10.07375,14.999999 -22.49999,14.999999 -12.42625,0 -22.5,-5.679999 -22.5,-14.999999 0,-9.32 10.07375,-18.75 22.5,-18.75 12.42624,0 22.49999,9.43 22.49999,18.75" /></mask></defs><path
     id="path4513"
     style="fill:#ffffff;fill-opacity:1;fill-rule:nonzero;stroke:none;stroke-width:1.25"
     d="m 45,27.5 c 0,9.32 -10.07375,15 -22.5,15 C 10.07375,42.5 0,36.82 0,27.5 l 22.416044,-0.268375"
     sodipodi:nodetypes="cscc" /><use
     x="0"
     y="0"
     xlink:href="#g3495"
     id="use25796"
     transform="translate(-104.11053,-9.916029)"
     width="100%"
     height="100%"
     mask="url(#mask45539)" /><path
     id="path30"
     style="fill:#ffffff;fill-opacity:1;fill-rule:nonzero;stroke:none;stroke-width:1.25"
     d="m 13.75,9.375 c 0,2.41625 -1.95875,4.375 -4.375,4.375 C 6.95875,13.75 5,11.79125 5,9.375 5,6.95875 6.95875,5 9.375,5 11.79125,5 13.75,6.95875 13.75,9.375" /><path
     id="path34"
     style="fill:#000000;fill-opacity:1;fill-rule:nonzero;stroke:none;stroke-width:1.25"
     d="m 11.25,9.375 c 0,1.03625 -0.83875,1.875 -1.875,1.875 C 8.33875,11.25 7.5,10.41125 7.5,9.375 7.5,8.33875 8.33875,7.5 9.375,7.5 c 1.03625,0 1.875,0.83875 1.875,1.875" /><path
     id="path38"
     style="fill:#ffffff;fill-opacity:1;fill-rule:nonzero;stroke:none;stroke-width:1.25"
     d="m 40,9.375 c 0,2.41625 -1.9575,4.375 -4.375,4.375 -2.4175,0 -4.375,-1.95875 -4.375,-4.375 C 31.25,6.95875 33.2075,5 35.625,5 38.0425,5 40,6.95875 40,9.375" /><path
     id="path42"
     style="fill:#ff00dc;fill-opacity:1;fill-rule:nonzero;stroke:none;stroke-width:1.25"
     d="m 37.5,9.375 c 0,1.03625 -0.84,1.875 -1.875,1.875 -1.035,0 -1.875,-0.83875 -1.875,-1.875 0,-1.03625 0.84,-1.875 1.875,-1.875 1.035,0 1.875,0.83875 1.875,1.875" /><path
     id="path46"
     style="fill:#ff00dc;fill-opacity:1;fill-rule:nonzero;stroke:none;stroke-width:1.25"
     d="m 18.75,25 c 0,0.69125 -0.56,1.25 -1.25,1.25 -0.69,0 -1.25,-0.55875 -1.25,-1.25 0,-0.69125 0.56,-1.25 1.25,-1.25 0.69,0 1.25,0.55875 1.25,1.25" /><path
     id="path50"
     style="fill:#000000;fill-opacity:1;fill-rule:nonzero;stroke:none;stroke-width:1.25"
     d="m 28.75,25 c 0,0.69125 -0.55875,1.25 -1.25,1.25 -0.69125,0 -1.25,-0.55875 -1.25,-1.25 0,-0.69125 0.55875,-1.25 1.25,-1.25 0.69125,0 1.25,0.55875 1.25,1.25" /><g
     id="g3495"
     transform="matrix(1.4882491,0,0,1.4882499,-66.278015,0.81313098)"
     style="stroke-width:0.67193"><rect
       style="fill:#ff00dc;fill-opacity:1;stroke-width:0.672985;paint-order:markers fill stroke"
       id="rect3369"
       width="7.5577898"
       height="7.557786"
       x="114.49809"
       y="6.1165128" /><rect
       style="fill:#000000;stroke-width:0.672985;paint-order:markers fill stroke"
       id="rect3371"
       width="7.5577898"
       height="7.557786"
       x="122.05589"
       y="6.1165128" /><rect
       style="fill:#ff00dc;fill-opacity:1;stroke-width:0.672985;paint-order:markers fill stroke"
       id="rect33392"
       width="7.5577898"
       height="7.557786"
       x="129.61748"
       y="6.1177831" /><rect
       style="fill:#000000;stroke-width:0.672985;paint-order:markers fill stroke"
       id="rect33394"
       width="7.5577898"
       height="7.557786"
       x="137.17526"
       y="6.1177831" /><rect
       style="fill:#000000;stroke-width:0.672985;paint-order:markers fill stroke"
       id="rect33480"
       width="7.5577898"
       height="7.557786"
       x="114.4943"
       y="13.673031" /><rect
       style="fill:#ff00dc;fill-opacity:1;stroke-width:0.672985;paint-order:markers fill stroke"
       id="rect33482"
       width="7.5577898"
       height="7.557786"
       x="122.05589"
       y="13.674297" /><rect
       style="fill:#000000;stroke-width:0.672985;paint-order:markers fill stroke"
       id="rect33484"
       width="7.5577898"
       height="7.557786"
       x="129.61368"
       y="13.674297" /><rect
       style="fill:#ff00dc;fill-opacity:1;stroke-width:0.672985;paint-order:markers fill stroke"
       id="rect33486"
       width="7.5577898"
       height="7.557786"
       x="137.17273"
       y="13.674297" /><rect
       style="fill:#ff00dc;fill-opacity:1;stroke-width:0.672985;paint-order:markers fill stroke"
       id="rect34122"
       width="7.5577898"
       height="7.557786"
       x="114.4943"
       y="21.230816" /><rect
       style="fill:#000000;stroke-width:0.672985;paint-order:markers fill stroke"
       id="rect34124"
       width="7.5577898"
       height="7.557786"
       x="122.05209"
       y="21.230816" /><rect
       style="fill:#ff00dc;fill-opacity:1;stroke-width:0.672985;paint-order:markers fill stroke"
       id="rect34126"
       width="7.5577898"
       height="7.557786"
       x="129.61368"
       y="21.232084" /><rect
       style="fill:#000000;stroke-width:0.672985;paint-order:markers fill stroke"
       id="rect34128"
       width="7.5577898"
       height="7.557786"
       x="137.17148"
       y="21.232084" /><rect
       style="fill:#000000;stroke-width:0.672985;paint-order:markers fill stroke"
       id="rect34130"
       width="7.5577898"
       height="7.557786"
       x="114.49051"
       y="28.787333" /><rect
       style="fill:#ff00dc;fill-opacity:1;stroke-width:0.672985;paint-order:markers fill stroke"
       id="rect34132"
       width="7.5577898"
       height="7.557786"
       x="122.05209"
       y="28.788601" /><rect
       style="fill:#000000;stroke-width:0.672985;paint-order:markers fill stroke"
       id="rect34134"
       width="7.5577898"
       height="7.557786"
       x="129.60988"
       y="28.788601" /><rect
       style="fill:#ff00dc;fill-opacity:1;stroke-width:0.672985;paint-order:markers fill stroke"
       id="rect34136"
       width="7.5577898"
       height="7.557786"
       x="137.16893"
       y="28.788601" /><rect
       style="fill:#000000;stroke-width:0.672985;paint-order:markers fill stroke"
       id="rect45428"
       width="7.5577898"
       height="7.557786"
       x="144.73305"
       y="13.675568" /><rect
       style="fill:#ff00dc;fill-opacity:1;stroke-width:0.672985;paint-order:markers fill stroke"
       id="rect45430"
       width="7.5577898"
       height="7.557786"
       x="144.73051"
       y="21.232084" /><rect
       style="fill:#000000;stroke-width:0.672985;paint-order:markers fill stroke"
       id="rect45432"
       width="7.5577898"
       height="7.557786"
       x="144.72925"
       y="28.789871" /><rect
       style="fill:#ff00dc;fill-opacity:1;stroke-width:0.672985;paint-order:markers fill stroke"
       id="rect45434"
       width="7.5577898"
       height="7.557786"
       x="144.73305"
       y="6.1177831" /><rect
       style="fill:#000000;stroke-width:0.672985;paint-order:markers fill stroke"
       id="rect45444"
       width="7.5577898"
       height="7.557786"
       x="144.73305"
       y="13.675568" /><rect
       style="fill:#ff00dc;fill-opacity:1;stroke-width:0.672985;paint-order:markers fill stroke"
       id="rect45446"
       width="7.5577898"
       height="7.557786"
       x="144.73051"
       y="21.232084" /><rect
       style="fill:#000000;stroke-width:0.672985;paint-order:markers fill stroke"
       id="rect45448"
       width="7.5577898"
       height="7.557786"
       x="144.72925"
       y="28.789871" /><rect
       style="fill:#ff00dc;fill-opacity:1;stroke-width:0.672985;paint-order:markers fill stroke"
       id="rect45450"
       width="7.5577898"
       height="7.557786"
       x="144.73305"
       y="6.1177831" /><rect
       style="fill:#000000;stroke-width:0.672985;paint-order:markers fill stroke"
       id="rect45464"
       width="7.5577898"
       height="7.557786"
       x="137.17526"
       y="6.1177831" /><rect
       style="fill:#ff00dc;fill-opacity:1;stroke-width:0.672985;paint-order:markers fill stroke"
       id="rect45466"
       width="7.5577898"
       height="7.557786"
       x="137.17273"
       y="13.674297" /><rect
       style="fill:#000000;stroke-width:0.672985;paint-order:markers fill stroke"
       id="rect45468"
       width="7.5577898"
       height="7.557786"
       x="137.17148"
       y="21.232084" /><rect
       style="fill:#ff00dc;fill-opacity:1;stroke-width:0.672985;paint-order:markers fill stroke"
       id="rect45470"
       width="7.5577898"
       height="7.557786"
       x="137.16893"
       y="28.788601" /><rect
       style="fill:#000000;stroke-width:0.672985;paint-order:markers fill stroke"
       id="rect45486"
       width="7.5577898"
       height="7.557786"
       x="106.93904"
       y="6.1165137" /><rect
       style="fill:#ff00dc;fill-opacity:1;stroke-width:0.672985;paint-order:markers fill stroke"
       id="rect45488"
       width="7.5577898"
       height="7.557786"
       x="106.93652"
       y="13.673029" /><rect
       style="fill:#000000;stroke-width:0.672985;paint-order:markers fill stroke"
       id="rect45490"
       width="7.5577898"
       height="7.557786"
       x="106.93526"
       y="21.230816" /><rect
       style="fill:#ff00dc;fill-opacity:1;stroke-width:0.672985;paint-order:markers fill stroke"
       id="rect45492"
       width="7.5577898"
       height="7.557786"
       x="106.93272"
       y="28.787333" /><rect
       style="fill:#000000;stroke-width:0.672985;paint-order:markers fill stroke"
       id="rect45494"
       width="7.5577898"
       height="7.557786"
       x="106.93904"
       y="6.1165137" /><rect
       style="fill:#ff00dc;fill-opacity:1;stroke-width:0.672985;paint-order:markers fill stroke"
       id="rect45496"
       width="7.5577898"
       height="7.557786"
       x="106.93652"
       y="13.673029" /><rect
       style="fill:#000000;stroke-width:0.672985;paint-order:markers fill stroke"
       id="rect45498"
       width="7.5577898"
       height="7.557786"
       x="106.93526"
       y="21.230816" /><rect
       style="fill:#ff00dc;fill-opacity:1;stroke-width:0.672985;paint-order:markers fill stroke"
       id="rect45500"
       width="7.5577898"
       height="7.557786"
       x="106.93272"
       y="28.787333" /><rect
       style="fill:#ff00dc;fill-opacity:1;stroke-width:0.672985;paint-order:markers fill stroke"
       id="rect45502"
       width="7.5577898"
       height="7.557786"
       x="114.49051"
       y="36.345119" /><rect
       style="fill:#000000;stroke-width:0.672985;paint-order:markers fill stroke"
       id="rect45504"
       width="7.5577898"
       height="7.557786"
       x="122.04829"
       y="36.345119" /><rect
       style="fill:#ff00dc;fill-opacity:1;stroke-width:0.672985;paint-order:markers fill stroke"
       id="rect45506"
       width="7.5577898"
       height="7.557786"
       x="129.60988"
       y="36.34639" /><rect
       style="fill:#000000;stroke-width:0.672985;paint-order:markers fill stroke"
       id="rect45508"
       width="7.5577898"
       height="7.557786"
       x="137.16768"
       y="36.34639" /><rect
       style="fill:#ff00dc;fill-opacity:1;stroke-width:0.672985;paint-order:markers fill stroke"
       id="rect45510"
       width="7.5577898"
       height="7.557786"
       x="144.72673"
       y="36.34639" /><rect
       style="fill:#ff00dc;fill-opacity:1;stroke-width:0.672985;paint-order:markers fill stroke"
       id="rect45512"
       width="7.5577898"
       height="7.557786"
       x="144.72673"
       y="36.34639" /><rect
       style="fill:#000000;stroke-width:0.672985;paint-order:markers fill stroke"
       id="rect45514"
       width="7.5577898"
       height="7.557786"
       x="137.16768"
       y="36.34639" /><rect
       style="fill:#000000;stroke-width:0.672985;paint-order:markers fill stroke"
       id="rect45516"
       width="7.5577898"
       height="7.557786"
       x="106.93147"
       y="36.345119" /><rect
       style="fill:#000000;stroke-width:0.672985;paint-order:markers fill stroke"
       id="rect45518"
       width="7.5577898"
       height="7.557786"
       x="106.93147"
       y="36.345119" /><rect
       style="fill:#000000;stroke-width:0.672985;paint-order:markers fill stroke"
       id="rect45520"
       width="7.5577898"
       height="7.557786"
       x="114.49809"
       y="-1.441274" /><rect
       style="fill:#ff00dc;fill-opacity:1;stroke-width:0.672985;paint-order:markers fill stroke"
       id="rect45522"
       width="7.5577898"
       height="7.557786"
       x="122.05967"
       y="-1.4400057" /><rect
       style="fill:#000000;stroke-width:0.672985;paint-order:markers fill stroke"
       id="rect45524"
       width="7.5577898"
       height="7.557786"
       x="129.61748"
       y="-1.4400057" /><rect
       style="fill:#ff00dc;fill-opacity:1;stroke-width:0.672985;paint-order:markers fill stroke"
       id="rect45526"
       width="7.5577898"
       height="7.557786"
       x="137.17651"
       y="-1.4400057" /><rect
       style="fill:#000000;stroke-width:0.672985;paint-order:markers fill stroke"
       id="rect45528"
       width="7.5577898"
       height="7.557786"
       x="144.73683"
       y="-1.4387354" /><rect
       style="fill:#000000;stroke-width:0.672985;paint-order:markers fill stroke"
       id="rect45530"
       width="7.5577898"
       height="7.557786"
       x="144.73683"
       y="-1.4387354" /><rect
       style="fill:#ff00dc;fill-opacity:1;stroke-width:0.672985;paint-order:markers fill stroke"
       id="rect45532"
       width="7.5577898"
       height="7.557786"
       x="137.17651"
       y="-1.4400057" /><rect
       style="fill:#ff00dc;fill-opacity:1;stroke-width:0.672985;paint-order:markers fill stroke"
       id="rect45534"
       width="7.5577898"
       height="7.557786"
       x="106.9403"
       y="-1.441274" /><rect
       style="fill:#ff00dc;fill-opacity:1;stroke-width:0.672985;paint-order:markers fill stroke"
       id="rect45536"
       width="7.5577898"
       height="7.557786"
       x="106.9403"
       y="-1.441274" /></g><text
     xml:space="preserve"
     style="font-size:6.66667px;line-height:1.25;font-family:sans-serif;letter-spacing:0px;word-spacing:0px"
     x="98.598816"
     y="-7.2938232"
     id="text12196"><tspan
       sodipodi:role="line"
       id="tspan12194"
       x="98.598816"
       y="-7.2938232"
       style="font-size:6.66667px">template texture</tspan></text></svg>
