<?xml version="1.0" encoding="utf-8"?>
<!-- Generator: Adobe Illustrator 25.0.0, SVG Export Plug-In . SVG Version: 6.00 Build 0)  -->
<svg version="1.1" id="Ebene_1" xmlns="http://www.w3.org/2000/svg" xmlns:xlink="http://www.w3.org/1999/xlink" x="0px" y="0px"
	 viewBox="0 0 45 45" style="enable-background:new 0 0 45 45;" xml:space="preserve">
<style type="text/css">
	.st0{clip-path:url(#SVGID_2_);}
	.st1{fill:#C6E5B3;}
	.st2{fill:#77B255;}
	.st3{fill:#FFFFFF;}
	.st4{fill:#292F33;}
	.st5{fill:#5C913B;}
	.st6{fill:none;stroke:#3F6328;stroke-miterlimit:10;}
	.st7{fill:none;}
</style>
<g id="Ebene_2_1_">
	<g id="Ebene_1-2">
		<g id="Ebene_2-2">
			<g id="svg2">
				<g id="g10">
					<g id="g12">
						<g>
							<defs>
								<rect id="SVGID_1_" y="0" width="45" height="45"/>
							</defs>
							<clipPath id="SVGID_2_">
								<use xlink:href="#SVGID_1_"  style="overflow:visible;"/>
							</clipPath>
							<g class="st0">
								<g id="g14">
									<g id="g20">
										<path id="path22" class="st1" d="M45,27.5c0,9.3-10.1,15-22.5,15S0,36.8,0,27.5S10.1,8.7,22.5,8.7S45,18.2,45,27.5"/>
									</g>
									<g id="g24">
										<path id="path26" class="st2" d="M39.7,15.8c3.2-2.6,3.7-7.3,1.1-10.5c-2.6-3.2-7.3-3.7-10.5-1.1
											c-1.3,1.1-2.2,2.5-2.6,4.2c-3.3-1.3-7-1.3-10.4,0c-0.9-4-4.9-6.6-8.9-5.7s-6.6,4.9-5.7,8.9c0.4,1.7,1.3,3.1,2.6,4.2
											c-3.2,3-5.1,7.2-5.3,11.7c0,9.3,10.1,1.2,22.5,1.2S45,36.8,45,27.5C44.8,23.1,42.9,18.9,39.7,15.8"/>
									</g>
									<g id="g28">
										<path id="path30" class="st3" d="M13.8,9.4c0,2.4-2,4.4-4.4,4.4S5,11.8,5,9.4S7,5,9.4,5l0,0C11.8,5,13.7,7,13.8,9.4
											L13.8,9.4"/>
									</g>
									<g id="g32">
										<path id="path34" class="st4" d="M11.2,9.4c0,1-0.8,1.9-1.9,1.9s-1.9-0.8-1.9-1.9c0-1,0.8-1.9,1.9-1.9l0,0
											C10.4,7.5,11.2,8.3,11.2,9.4L11.2,9.4"/>
									</g>
									<g id="g36">
										<path id="path38" class="st3" d="M40,9.4c0,2.4-2,4.4-4.4,4.4s-4.4-2-4.4-4.4s2-4.4,4.4-4.4C38,5,40,7,40,9.4L40,9.4
											L40,9.4"/>
									</g>
									<g id="g40">
										<path id="path42" class="st4" d="M37.5,9.4c0,1-0.8,1.9-1.9,1.9s-1.9-0.8-1.9-1.9s0.8-1.9,1.9-1.9S37.5,8.3,37.5,9.4
											L37.5,9.4L37.5,9.4"/>
									</g>
									<g id="g44">
										<path id="path46" class="st5" d="M18.8,25c0,0.7-0.6,1.2-1.2,1.2s-1.2-0.6-1.2-1.2s0.6-1.2,1.2-1.2S18.8,24.3,18.8,25"/>
									</g>
									<g id="g48">
										<path id="path50" class="st5" d="M28.8,25c0,0.7-0.6,1.2-1.2,1.2s-1.2-0.6-1.2-1.2s0.6-1.2,1.2-1.2S28.8,24.3,28.8,25"/>
									</g>
								</g>
							</g>
						</g>
					</g>
				</g>
				<path class="st6" d="M39.6,19.4c-0.9,0-1.7,0.6-1.9,1.4v-1.3c0.1-0.9-0.6-1.6-1.4-1.7c-0.1,0-0.2,0-0.3,0c-1,0-2.1,2.6-2.1,2.6
					c0.1-1-0.6-1.8-1.6-1.9c0,0-0.1,0-0.1,0c-1,0-1.9,0.8-1.9,1.8L30,33.9l6.2,7.5l5.2-7.1V21.3C41.4,20.3,40.6,19.5,39.6,19.4z"/>
				<path class="st6" d="M44.4,23.6c0-0.8-0.7-1.5-1.5-1.5s-1.5,0.7-1.5,1.5l-0.1,7c-0.2-0.1-0.5-0.2-0.7-0.3l0.1-9.6
					c0-0.8-0.7-1.5-1.5-1.5s-1.5,0.7-1.5,1.5l-0.1,9.1c-0.2,0-0.5,0-0.8-0.1L36.9,19c0-0.8-0.7-1.5-1.5-1.5s-1.5,0.7-1.5,1.5
					l-0.1,10.5c-0.3,0-0.5,0-0.8,0.1l0.1-9.8c0-0.8-0.7-1.5-1.5-1.5s-1.5,0.7-1.5,1.5l-0.1,10.4v1.6c4.1,0.1,7.4,3.4,7.4,7.6
					c0,0.4-0.3,0.7-0.7,0.7c0,0,0,0-0.1,0c0.3-3.9-2.7-7.3-6.6-7.6c-0.3,0-0.6,0-0.8,0l-2.1-5.1c-0.3-0.8-1.1-1.2-1.9-1
					s-1.2,1.1-1,1.9l1,3.8c0.4,1.5,0.8,3,1,4.6c0.7,4.9,5.3,8.3,10.2,7.6c4.3-0.6,7.5-4.3,7.7-8.6L44.4,23.6z"/>
				<path class="st5" d="M39.6,19.4c-0.9,0-1.7,0.6-1.9,1.4v-1.3c0.1-0.9-0.6-1.6-1.4-1.7c-0.1,0-0.2,0-0.3,0c-1,0-2.1,2.6-2.1,2.6
					c0.1-1-0.6-1.8-1.6-1.9c0,0-0.1,0-0.1,0c-1,0-1.9,0.8-1.9,1.8L30,33.9l6.2,7.5l5.2-7.1V21.3C41.4,20.3,40.6,19.5,39.6,19.4z"/>
				<path class="st2" d="M44.4,23.6c0-0.8-0.7-1.5-1.5-1.5s-1.5,0.7-1.5,1.5l-0.1,7c-0.2-0.1-0.5-0.2-0.7-0.3l0.1-9.6
					c0-0.8-0.7-1.5-1.5-1.5s-1.5,0.7-1.5,1.5l-0.1,9.1c-0.2,0-0.5,0-0.8-0.1L36.9,19c0-0.8-0.7-1.5-1.5-1.5s-1.5,0.7-1.5,1.5
					l-0.1,10.5c-0.3,0-0.5,0-0.8,0.1l0.1-9.8c0-0.8-0.7-1.5-1.5-1.5s-1.5,0.7-1.5,1.5l-0.1,10.4v1.6c4.1,0.1,7.4,3.4,7.4,7.6
					c0,0.4-0.3,0.7-0.7,0.7c0,0,0,0-0.1,0c0.3-3.9-2.7-7.3-6.6-7.6c-0.3,0-0.6,0-0.8,0l-2.1-5.1c-0.3-0.8-1.1-1.2-1.9-1
					s-1.2,1.1-1,1.9l1,3.8c0.4,1.5,0.8,3,1,4.6c0.7,4.9,5.3,8.3,10.2,7.6c4.3-0.6,7.5-4.3,7.7-8.6L44.4,23.6z"/>
				<path id="path932" class="st4" d="M40.6,7c0.2-0.1,0.4-0.3,0.5-0.5c0.3-0.5,0.1-1.1-0.4-1.4c0,0-0.1,0-0.1-0.1
					c-3.1-1.5-6.7-1.6-9.9-0.2c-0.5,0.3-0.8,0.9-0.5,1.4c0.3,0.5,0.9,0.7,1.5,0.4c2.6-1,5.5-0.9,7.9,0.3C39.9,7.2,40.2,7.2,40.6,7z"
					/>
				<path id="path932-2" class="st4" d="M4.4,7C4.2,6.9,4,6.8,3.9,6.6C3.6,6.1,3.8,5.5,4.3,5.2c0,0,0.1,0,0.1-0.1
					c3.1-1.5,6.7-1.6,9.9-0.2c0.5,0.3,0.8,0.9,0.5,1.4c-0.3,0.5-0.9,0.7-1.5,0.4c-2.6-1-5.5-0.9-7.9,0.3C5.1,7.2,4.7,7.2,4.4,7z"/>
			</g>
		</g>
		<rect y="0" class="st7" width="45" height="45"/>
	</g>
</g>
</svg>
