<?xml version="1.0" encoding="utf-8"?>
<!-- Generator: Adobe Illustrator 25.0.0, SVG Export Plug-In . SVG Version: 6.00 Build 0)  -->
<svg version="1.1"
	 id="svg2" inkscape:export-xdpi="1919.99" inkscape:export-ydpi="1919.99" inkscape:version="0.92.4 5da689c313, 2019-01-14" sodipodi:docname="frogfamily2.svg" xmlns:cc="http://creativecommons.org/ns#" xmlns:dc="http://purl.org/dc/elements/1.1/" xmlns:inkscape="http://www.inkscape.org/namespaces/inkscape" xmlns:rdf="http://www.w3.org/1999/02/22-rdf-syntax-ns#" xmlns:sodipodi="http://sodipodi.sourceforge.net/DTD/sodipodi-0.dtd" xmlns:svg="http://www.w3.org/2000/svg"
	 xmlns="http://www.w3.org/2000/svg" xmlns:xlink="http://www.w3.org/1999/xlink" x="0px" y="0px" viewBox="0 0 46.3 46.3"
	 style="enable-background:new 0 0 46.3 46.3;" xml:space="preserve">
<style type="text/css">
	.st0{fill:#B3E3E5;}
	.st1{fill:#55ADB2;}
	.st2{fill:#FFFFFF;}
	.st3{fill:#292F33;}
	.st4{fill:#3B8E91;}
	.st5{fill-rule:evenodd;clip-rule:evenodd;}
	.st6{fill:#E5C2B3;}
	.st7{fill:#B27256;}
	.st8{fill:#91553B;}
	.st9{fill:#C6E5B3;}
	.st10{fill:#77B255;}
	.st11{fill:#5C913B;}
</style>
<g id="g1082" transform="matrix(0.8507692,0,0,0.8507692,3.7823603,0.17159318)">
	<path id="path22" inkscape:connector-curvature="0" class="st0" d="M45.4,28.7c0,9.3-10.1,15-22.5,15S0.4,38,0.4,28.7
		S10.5,10,22.9,10S45.4,19.4,45.4,28.7"/>
	<path id="path26" inkscape:connector-curvature="0" class="st1" d="M40.1,17.1c1.7-1.4,2.8-3.5,2.8-5.8c0-4.1-3.4-7.5-7.5-7.5
		c-3.6,0-6.6,2.5-7.3,5.9c-1.6-0.6-3.4-0.9-5.2-0.9c-1.8,0-3.6,0.3-5.2,0.9C17,6.2,14,3.7,10.4,3.7c-4.1,0-7.5,3.4-7.5,7.5
		c0,2.4,1.1,4.5,2.8,5.8c-3.3,3.4-5.3,7.5-5.3,11.7C0.4,38,10.5,30,22.9,30c12.4,0,22.5,8.1,22.5-1.2C45.4,24.6,43.4,20.4,40.1,17.1
		"/>
	<path id="path30" inkscape:connector-curvature="0" class="st2" d="M14.2,10.6c0,2.4-2,4.4-4.4,4.4s-4.4-2-4.4-4.4s2-4.4,4.4-4.4
		S14.2,8.2,14.2,10.6"/>
	<path id="path34" inkscape:connector-curvature="0" class="st3" d="M11.7,10.6c0,1-0.8,1.9-1.9,1.9s-1.9-0.8-1.9-1.9
		s0.8-1.9,1.9-1.9S11.7,9.6,11.7,10.6"/>
	<path id="path38" inkscape:connector-curvature="0" class="st2" d="M40.4,10.6c0,2.4-2,4.4-4.4,4.4s-4.4-2-4.4-4.4s2-4.4,4.4-4.4
		S40.4,8.2,40.4,10.6"/>
	<path id="path42" inkscape:connector-curvature="0" class="st3" d="M37.9,10.6c0,1-0.8,1.9-1.9,1.9s-1.9-0.8-1.9-1.9S35,8.7,36,8.7
		S37.9,9.6,37.9,10.6"/>
	<path id="path46" inkscape:connector-curvature="0" class="st4" d="M19.2,26.2c0,0.7-0.6,1.2-1.2,1.2s-1.2-0.6-1.2-1.2
		s0.6-1.2,1.2-1.2S19.2,25.5,19.2,26.2"/>
	<path id="path50" inkscape:connector-curvature="0" class="st4" d="M29.2,26.2c0,0.7-0.6,1.2-1.2,1.2s-1.3-0.6-1.3-1.2
		s0.6-1.2,1.3-1.2S29.2,25.5,29.2,26.2"/>
	<path id="path22-7" inkscape:connector-curvature="0" class="st5" d="M0.2,7.9c0.3,0.3,2,1.3,2.3,2.3s1,7.2,2.9,8.9
		c2,1.7,9.7,1.1,11.1,0.3c3.3-1.6,3.7-6.9,4.3-9.2c0.3-1.3,2.3-1.3,2.3-1.3s2,0,2.3,1.3c0.6,2.3,1,7.6,4.3,9.2
		c1.5,0.7,9.1,1.4,11.1-0.3c2-1.6,2.6-7.9,2.9-8.9c0.3-1,2-2,2.3-2.3c0.3-0.3,0.3-1.6,0-2c-0.7-0.7-8.4-1.2-16.7-0.3
		c-1.7,0.2-2.3,0.7-6.2,0.7c-3.9,0-4.6-0.5-6.2-0.7C8.6,4.7,0.9,5.3,0.2,5.9C-0.1,6.2-0.1,7.5,0.2,7.9"/>
</g>
<g id="g1067" transform="translate(-2.2921046,-18.288876)">
	<g id="g1011" transform="matrix(0.48952148,0,0,0.48952148,18.536935,22.03311)">
		<path id="path22-2" inkscape:connector-curvature="0" class="st6" d="M58.9,65.5c0,9.3-10.1,15-22.5,15s-22.5-5.7-22.5-15
			S24,46.8,36.4,46.8S58.9,56.2,58.9,65.5"/>
		<path id="path26-9" inkscape:connector-curvature="0" class="st7" d="M53.6,53.9c1.7-1.4,2.8-3.5,2.8-5.8c0-4.1-3.4-7.5-7.5-7.5
			c-3.6,0-6.6,2.5-7.3,5.9c-1.6-0.6-3.4-0.9-5.2-0.9c-1.8,0-3.6,0.3-5.2,0.9c-0.8-3.4-3.7-5.9-7.3-5.9c-4.1,0-7.5,3.4-7.5,7.5
			c0,2.4,1.1,4.5,2.8,5.8c-3.3,3.3-5.3,7.5-5.3,11.7c0,9.3,10.1,1.2,22.5,1.2c12.4,0,22.5,8.1,22.5-1.2
			C58.9,61.4,56.9,57.2,53.6,53.9"/>
		<path id="path30-1" inkscape:connector-curvature="0" class="st2" d="M27.6,47.4c0,2.4-2,4.4-4.4,4.4s-4.4-2-4.4-4.4
			s2-4.4,4.4-4.4S27.6,45,27.6,47.4"/>
		<path id="path34-2" inkscape:connector-curvature="0" class="st3" d="M25.1,47.4c0,1-0.8,1.9-1.9,1.9c-1,0-1.9-0.8-1.9-1.9
			s0.8-1.9,1.9-1.9C24.3,45.5,25.1,46.4,25.1,47.4"/>
		<path id="path38-7" inkscape:connector-curvature="0" class="st2" d="M53.9,47.4c0,2.4-2,4.4-4.4,4.4c-2.4,0-4.4-2-4.4-4.4
			s2-4.4,4.4-4.4C51.9,43,53.9,45,53.9,47.4"/>
		<path id="path42-0" inkscape:connector-curvature="0" class="st3" d="M51.4,47.4c0,1-0.8,1.9-1.9,1.9c-1,0-1.9-0.8-1.9-1.9
			s0.8-1.9,1.9-1.9C50.6,45.5,51.4,46.4,51.4,47.4"/>
		<path id="path46-9" inkscape:connector-curvature="0" class="st8" d="M32.6,63c0,0.7-0.6,1.2-1.2,1.2c-0.7,0-1.3-0.6-1.3-1.2
			s0.6-1.2,1.3-1.2C32.1,61.8,32.6,62.3,32.6,63"/>
		<path id="path50-3" inkscape:connector-curvature="0" class="st8" d="M42.6,63c0,0.7-0.6,1.2-1.3,1.2c-0.7,0-1.2-0.6-1.2-1.2
			s0.6-1.2,1.2-1.2C42.1,61.8,42.6,62.3,42.6,63"/>
	</g>
	<g id="g1047" transform="translate(-9.8425672,-13.617797)">
		<path id="path1013" inkscape:connector-curvature="0" class="st9" d="M35.4,67.7c0,4.6-4.9,7.3-11,7.3s-11-2.8-11-7.3
			s4.9-9.2,11-9.2S35.4,63.2,35.4,67.7"/>
		<path id="path1015" inkscape:connector-curvature="0" class="st10" d="M32.8,62c0.8-0.7,1.4-1.7,1.4-2.9c0-2-1.6-3.7-3.7-3.7
			c-1.8,0-3.2,1.2-3.6,2.9c-0.8-0.3-1.6-0.5-2.5-0.5c-0.9,0-1.8,0.2-2.5,0.5c-0.4-1.6-1.8-2.9-3.6-2.9c-2,0-3.7,1.6-3.7,3.7
			c0,1.2,0.5,2.2,1.4,2.9c-1.6,1.6-2.6,3.7-2.6,5.7c0,4.6,4.9,0.6,11,0.6c6.1,0,11,4,11-0.6C35.4,65.7,34.4,63.7,32.8,62"/>
		<path id="path1017" inkscape:connector-curvature="0" class="st2" d="M20.1,58.8c0,1.2-1,2.1-2.1,2.1s-2.1-1-2.1-2.1
			c0-1.2,1-2.1,2.1-2.1C19.1,56.7,20.1,57.7,20.1,58.8"/>
		<path id="path1019" inkscape:connector-curvature="0" class="st3" d="M18.8,58.8c0,0.5-0.4,0.9-0.9,0.9c-0.5,0-0.9-0.4-0.9-0.9
			s0.4-0.9,0.9-0.9S18.8,58.3,18.8,58.8"/>
		<path id="path1021" inkscape:connector-curvature="0" class="st2" d="M32.9,58.8c0,1.2-1,2.1-2.1,2.1s-2.1-1-2.1-2.1
			c0-1.2,1-2.1,2.1-2.1C32,56.7,32.9,57.7,32.9,58.8"/>
		<path id="path1023" inkscape:connector-curvature="0" class="st3" d="M31.7,58.8c0,0.5-0.4,0.9-0.9,0.9s-0.9-0.4-0.9-0.9
			s0.4-0.9,0.9-0.9S31.7,58.3,31.7,58.8"/>
		<path id="path1025" inkscape:connector-curvature="0" class="st11" d="M22.5,66.5c0,0.3-0.3,0.6-0.6,0.6c-0.3,0-0.6-0.3-0.6-0.6
			s0.3-0.6,0.6-0.6C22.2,65.9,22.5,66.2,22.5,66.5"/>
		<path id="path1027" inkscape:connector-curvature="0" class="st11" d="M27.4,66.5c0,0.3-0.3,0.6-0.6,0.6s-0.6-0.3-0.6-0.6
			s0.3-0.6,0.6-0.6S27.4,66.2,27.4,66.5"/>
	</g>
</g>
</svg>
