<?xml version="1.0" encoding="utf-8"?>
<!-- Generator: Adobe Illustrator 26.0.1, SVG Export Plug-In . SVG Version: 6.00 Build 0)  -->
<svg version="1.1"
	 id="svg2" xmlns:cc="http://creativecommons.org/ns#" xmlns:dc="http://purl.org/dc/elements/1.1/" xmlns:inkscape="http://www.inkscape.org/namespaces/inkscape" xmlns:rdf="http://www.w3.org/1999/02/22-rdf-syntax-ns#" xmlns:sodipodi="http://sodipodi.sourceforge.net/DTD/sodipodi-0.dtd" xmlns:svg="http://www.w3.org/2000/svg"
	 xmlns="http://www.w3.org/2000/svg" xmlns:xlink="http://www.w3.org/1999/xlink" x="0px" y="0px" viewBox="0 0 45 45"
	 style="enable-background:new 0 0 45 45;" xml:space="preserve">
<style type="text/css">
	.st0{fill:#001B35;}
	.st1{fill:#FFFFDB;fill-opacity:0.6039;}
	.st2{fill:url(#SVGID_1_);}
	.st3{fill:#001B35;fill-opacity:0.819;}
	.st4{fill:#485359;}
	.st5{fill:#292F33;}
	.st6{fill:#FFCC4D;}
</style>
<path class="st0" d="M45,5v35c0,2.8-2.2,5-5,5H5c-2.8,0-5-2.2-5-5V5c0-2.8,2.2-5,5-5h35C42.8,0,45,2.2,45,5z"/>
<g id="g1429" transform="matrix(0.88889608,0,0,0.88889608,0.55665455,3.4606763)">
	<g id="g917" transform="matrix(0.96698491,0.17834051,-0.15988982,0.81402648,3.9949117,4.3232784)">
		<path class="st1" d="M22.9,12.6C18.7,17.9,11,20.8,4,17.3h0.1H4c-2.7-1.5-4.9-4-6-7.3C-4.8,2.2-0.7-6.9,7-10.4
			c6.3-2.9,13.1-1.1,16.9,3.9l0,0C27.8-0.8,27.1,7.3,22.9,12.6z"/>
		
			<linearGradient id="SVGID_1_" gradientUnits="userSpaceOnUse" x1="297.259" y1="34.6773" x2="306.8595" y2="43.1111" gradientTransform="matrix(0.8595 -0.1585 -0.1421 -0.7236 -224.901 96.6529)">
			<stop  offset="0" style="stop-color:#9AA599"/>
			<stop  offset="0.4171" style="stop-color:#54666C"/>
			<stop  offset="1" style="stop-color:#9AA599"/>
		</linearGradient>
		<path class="st2" d="M53,32.6l-6.5,6L4,17.3c7.1,3.5,14.6,0.4,18.7-4.8c4.2-5.3,5.2-13.3,1.2-19L53,32.6z"/>
		<g id="g20" transform="matrix(0.52432227,0,0,0.52432227,21.238129,22.076127)">
			<path id="path22" inkscape:connector-curvature="0" class="st3" d="M-36.5-48.7c-3.9,1.8-5.9,6.3-4.6,10.1
				c0.8,2.2,2.4,3.7,4.5,4.2c-7.6,18.4,8,25.5,24.5,17.6c16.9-7.3,23.8-24.7,7.5-32.1c1.2-2,1.5-4.4,0.7-6.6
				c-1.3-3.9-5.5-5.6-9.4-3.8c-3.3,1.5-5.3,5.1-4.9,8.5c-1.7,0.1-3.4,0.5-5.1,1.3c-1.7,0.8-3.2,1.8-4.5,3.1
				C-29.6-49.2-33.2-50.2-36.5-48.7z"/>
		</g>
	</g>
</g>
<path id="path4" inkscape:connector-curvature="0" class="st4" d="M12.5,45V33.8l5-5H20l5,5V45H12.5z M41.2,38.8
	c0-1.2-1.2-1.2-1.2-1.2h-8.8c0,0-1.2,0-1.2,1.2V45h11.2V38.8z"/>
<path id="path6" inkscape:connector-curvature="0" sodipodi:nodetypes="scscccssccscssccssccsscs" class="st5" d="M35,26
	c0-1.2-1.2-1.2-1.2-1.2h-10c-1.2,0-1.2,1.2-1.2,1.2v19H35V26z M13.8,28.5H7.5v-6.2c0,0,0-1.2-1.2-1.2H0v19c0,2.8,2.2,5,5,5h10V29.8
	C15,29.8,15,28.5,13.8,28.5z M40,36c-1.2,0-1.2,1.2-1.2,1.2V45H40c2.8,0,5-2.2,5-5v-4H40z"/>
<path class="st6" d="M20,36.2h2.5v2.5H20V36.2z M20,41.2h2.5v2.5H20V41.2z M36.2,40h2.5v2.5h-2.5V40z M10,40.3h2.5v2.5H10V40.3z
	 M10,30.3h2.5v2.5H10V30.3z M7.5,35.3H10v2.5H7.5V35.3z M30,26.5h2.5V29H30V26.5z M27.5,31.5H30V34h-2.5V31.5z M25,39h2.5v2.5H25V39
	z M3.4,22.8h2.5v2.5H3.4V22.8z M0.9,27.8h2.5v2.5H0.9V27.8z"/>
</svg>
