<?xml version="1.0" encoding="utf-8"?>
<!-- Generator: Adobe Illustrator 26.0.1, SVG Export Plug-In . SVG Version: 6.00 Build 0)  -->
<svg version="1.1" id="Ebene_1" xmlns="http://www.w3.org/2000/svg" xmlns:xlink="http://www.w3.org/1999/xlink" x="0px" y="0px"
	 viewBox="0 0 36 36" style="enable-background:new 0 0 36 36;" xml:space="preserve">
<style type="text/css">
	.st0{fill:#F4900C;}
	.st1{fill:#FFAC33;}
	.st2{fill:#FFCC4D;}
	.st3{fill:#5C913B;}
	.st4{fill:#77B255;}
	.st5{fill:#F5F8FA;}
	.st6{fill:#CCD6DD;}
	.st7{fill:#FFFFFF;}
	.st8{fill:#292F33;}
</style>
<g>
	<ellipse class="st0" cx="33.5" cy="14.5" rx="2.5" ry="3.5"/>
	<ellipse class="st0" cx="2.5" cy="14.5" rx="2.5" ry="3.5"/>
	<path class="st1" d="M34,19c0,0.6-0.4,1-1,1h-3c-0.6,0-1-0.4-1-1v-9c0-0.6,0.4-1,1-1h3c0.6,0,1,0.4,1,1V19z M7,19c0,0.6-0.4,1-1,1
		H3c-0.6,0-1-0.4-1-1v-9c0-0.6,0.4-1,1-1h3c0.6,0,1,0.4,1,1V19z"/>
	<path class="st2" d="M28,5c0,2.8-4.5,4-10,4S8,7.8,8,5s4.5-5,10-5S28,2.2,28,5z"/>
	<path class="st0" d="M25,4.1C25,5.7,21.9,7,18,7s-7-1.3-7-2.9s3.1-2.9,7-2.9S25,2.5,25,4.1z"/>
</g>
<g>
	<path class="st3" d="M30,5.5C30,6.9,28.9,7,27.5,7h-19C7.1,7,6,6.9,6,5.5S7.1,3,8.5,3h19C28.9,3,30,4.1,30,5.5z"/>
	<path class="st4" d="M30,6H6C4.9,6,4,6.9,4,8v26h28V8C32,6.9,31.1,6,30,6z"/>
	<path class="st3" d="M35,33v-1c0-1.1-0.9-2-2-2H22.1l-3.4,3.4c-0.4,0.4-1,0.4-1.4,0l0,0L13.9,30H3c-1.1,0-2,0.9-2,2v1
		c0,1.1-0.1,2,1,2h32C35.1,35,35,34.1,35,33z"/>
</g>
<g>
	<path class="st5" d="M29,25.5c0,1.4-1.1,2.5-2.5,2.5h-17C8.1,28,7,26.9,7,25.5S8.1,23,9.5,23h17C27.9,23,29,24.1,29,25.5z"/>
	<path class="st6" d="M29,25.5c0,1.2-0.8,2.2-2,2.5V23C28.2,23.3,29,24.3,29,25.5z M7,25.5c0,1.2,0.8,2.2,2,2.5V23
		C7.8,23.3,7,24.3,7,25.5z M17,28h2v-5h-2V28z M12,28h2v-5h-2V28z M22,28h2v-5h-2V28z"/>
</g>
<g>
	<circle class="st7" cx="11.5" cy="14.4" r="3.5"/>
	<circle class="st8" cx="11.5" cy="14.4" r="1.5"/>
	<circle class="st7" cx="24.5" cy="14.6" r="3.5"/>
	<circle class="st8" cx="24.5" cy="14.6" r="1.5"/>
</g>
</svg>
