<?xml version="1.0" encoding="utf-8"?>
<!-- Generator: Adobe Illustrator 25.0.0, SVG Export Plug-In . SVG Version: 6.00 Build 0)  -->
<svg version="1.1" id="Ebene_1" xmlns="http://www.w3.org/2000/svg" xmlns:xlink="http://www.w3.org/1999/xlink" x="0px" y="0px"
	 viewBox="0 0 415.6 415.6" style="enable-background:new 0 0 415.6 415.6;" xml:space="preserve">
<style type="text/css">
	.st0{fill:#C7DFB3;}
	.st1{fill:#78B355;}
	.st2{fill:#FFFFFF;}
	.st3{fill:#2A3034;}
	.st4{fill:#5D913B;}
	.st5{fill:#7EA046;}
	.st6{fill:#98C154;}
	.st7{fill:#88AD4C;}
</style>
<g>
	<path class="st0" d="M415.1,261.5c-8.2,85.8-106,129.3-220.5,118.3S-7.7,307.6,0.5,221.8S109.9,58,224.3,68.9
		S423.2,175.7,415.1,261.5z"/>
	<path class="st1" d="M376.4,149.5c32-21,40.9-64,19.9-96.1s-64-40.9-96.1-19.9c-13.1,8.6-23,21.5-27.9,36.4
		c-29.7-14.6-63.6-17.8-95.5-9.2c-4.8-38-39.5-65-77.5-60.2S34.4,40,39.2,78c2,15.6,9.2,30.1,20.5,41.1
		C26.3,147,4.2,183.6,0.5,221.8c-8.2,85.8,91.7,20.4,206.1,31.4c114.4,11,200.1,94.2,208.4,8.3C418.7,223.3,403.9,183.2,376.4,149.5
		z"/>
	<circle class="st2" cx="102.9" cy="63.1" r="40.5"/>
	<circle class="st3" cx="98.4" cy="62.1" r="17.4"/>
	<circle class="st2" cx="344.6" cy="86.3" r="40.5"/>
	<circle class="st3" cx="340.3" cy="84.3" r="17.4"/>
	<circle class="st4" cx="148.3" cy="207.8" r="11.6"/>
	<circle class="st4" cx="245" cy="222.5" r="11.6"/>
</g>
<g>
	<path class="st5" d="M78.6,349.1c-41.3,65.4,93.8,109.4,121.5,71.4C212.3,359.5,128.3,300.9,78.6,349.1z"/>
	<path class="st6" d="M132.1,244.8L78.6,349.1c38.1-16.4,128.3,20.9,121.5,71.4l61.9-122.6C252.6,223.7,159.6,210.2,132.1,244.8z"/>
	<path class="st6" d="M246.8,289.9l3.1,21.5c93.8,0-2.1,84.6-37.2,61.2l-2.9,23.8C321.7,420.5,362.8,271.8,246.8,289.9z"/>
	<path class="st7" d="M213.2,380.5l2.1-6.5c36.9,18.1,126.3-62.6,34.7-62.6l-1.6-6.5C342.6,302.6,278.5,393.4,213.2,380.5z"/>
	<polygon class="st7" points="248.3,304.9 212.3,380.3 213.2,380.5 222.5,376.2 255.2,311.5 257.1,306.1 	"/>
	<path class="st7" d="M199.7,406.9l6.1-12.8c2.2,1.4,4.4,2.7,6.4,2.7l-12.5,28.4C200.1,421.2,201.3,414.7,199.7,406.9z"/>
	<polygon class="st7" points="258.8,283 256,288.8 260.3,288.5 	"/>
</g>
<g>
	<path class="st1" d="M309.1,283.8c-2.4-1.8-5.5-2.5-8.5-1.9l-21.8,5.1c-2.7,0.6-5.1,2.2-6.5,4.6l-12.9,23.2
		c-2.8,5-1.3,13.7,3.7,16.8l0.2,0.1c2,1.3,4.7,1,6.8,0.8l-6.8,11.2c-0.4,0.7-1.6,2.6-2.8,4.8c-3.7,7.3-1.9,16.2,4.3,21.5l31.8,27.9
		c6,3.4,13.5,1.7,17.5-3.9l44.6-47.1c4.3-6,3.2-14.7-2.4-20l-5.8-5.3c-0.8-2.2-2.1-4.1-4-5.5L309.1,283.8z"/>
	<path class="st4" d="M265.9,344.4c1-1.6,3.2-2,4.8-1c0.1,0.1,0.2,0.1,0.2,0.2l0,0l40.2,30.1c1.6,1.2,2.1,3.5,1,5.3
		c-1.1,1.6-3.2,2-4.8,0.9c-0.1,0-0.1-0.1-0.2-0.2l0,0l-40.2-30.1c-1.5-1.2-2-3.3-1.1-5C265.8,344.6,265.8,344.6,265.9,344.4
		L265.9,344.4z M277.3,317.9c1-0.2,2,0,2.8,0.5c0.3,0.2,0.6,0.5,0.9,0.8c5.4,4.2,41,30.4,45.8,33.5c1.7,1.1,2.3,3.4,1.4,5.2
		c-0.9,1.7-3,2.3-4.7,1.4c-0.1,0-0.2-0.1-0.3-0.2c-2.9-1.9-15.2-10.8-25.8-18.6c-11.3-8.3-17.4-12.8-20.4-15.5
		c-0.2-0.1-0.4-0.2-0.5-0.3l0.1-0.1c-3-2.8-2.5-3.5-1.6-5.2C275.5,318.7,276.3,318.1,277.3,317.9L277.3,317.9z"/>
	<path class="st4" d="M301.1,300.7l40.3,25.8c1.8,1.1,2.4,3.3,1.6,5.1c-0.8,1.7-2.9,2.4-4.6,1.5c-0.1,0-0.2-0.1-0.3-0.1l-0.2-0.1
		L297.5,307c-4.1-2.8-9.7-1.7-12.5,2.4c-0.2,0.2-0.3,0.5-0.4,0.7l0,0l-11.7,21.2c-1,1.6-3.1,2.2-4.7,1.2c-0.1-0.1-0.2-0.1-0.3-0.2
		c-1.6-1.1-2.2-3.2-1.3-5l11.7-21.2c4.2-7.7,13.8-10.5,21.5-6.3c0.4,0.2,0.8,0.5,1.2,0.7L301.1,300.7z"/>
</g>
</svg>
