<?xml version="1.0" encoding="UTF-8" standalone="no"?>
<!-- Generator: Adobe Illustrator 25.0.0, SVG Export Plug-In . SVG Version: 6.00 Build 0)  -->

<svg
   version="1.1"
   id="Ebene_1"
   x="0px"
   y="0px"
   viewBox="0 0 36 36"
   style="enable-background:new 0 0 36 36;"
   xml:space="preserve"
   sodipodi:docname="frogWithTuxFancy.svg"
   inkscape:version="1.1.1 (3bf5ae0d25, 2021-09-20, custom)"
   xmlns:inkscape="http://www.inkscape.org/namespaces/inkscape"
   xmlns:sodipodi="http://sodipodi.sourceforge.net/DTD/sodipodi-0.dtd"
   xmlns="http://www.w3.org/2000/svg"
   xmlns:svg="http://www.w3.org/2000/svg"><defs
   id="defs63">
			
			
			
			
			
			
			
			
			
		</defs><sodipodi:namedview
   id="namedview61"
   pagecolor="#505050"
   bordercolor="#ffffff"
   borderopacity="1"
   inkscape:pageshadow="0"
   inkscape:pageopacity="0"
   inkscape:pagecheckerboard="1"
   showgrid="false"
   inkscape:zoom="12.375"
   inkscape:cx="14.50505"
   inkscape:cy="22.424242"
   inkscape:window-width="1920"
   inkscape:window-height="1026"
   inkscape:window-x="1920"
   inkscape:window-y="54"
   inkscape:window-maximized="1"
   inkscape:current-layer="Ebene_1-2" />
<style
   type="text/css"
   id="style2">
	.st0{fill:#292F33;}
	.st1{fill:#546170;}
	.st2{fill:#66757F;}
	.st3{fill:#C6E5B3;}
	.st4{fill:#DFE7EC;}
	.st5{fill:#77B255;}
	.st6{fill:#FFFFFF;}
	.st7{fill:#5C913B;}
	.st8{fill:#F4F7F9;}
	.st9{fill:none;}
	.st10{fill:#67757F;}
	.st11{fill:#BDDDF4;}
</style>
<g
   id="Ebene_2_1_">
	<g
   id="Ebene_1-2">
		<g
   id="g907"
   transform="matrix(0.59333169,0,0,0.59333169,-9.1401565,-9.0276016)"
   style="stroke-width:1.6854"><path
     id="path22-3"
     style="fill:#c6e5b3;fill-opacity:1;fill-rule:nonzero;stroke:none;stroke-width:2.10675"
     d="m 68.326296,46.026603 c 0,9.32 -10.07375,15 -22.5,15 -12.42625,0 -22.5,-5.68 -22.5,-15 h 45"
     sodipodi:nodetypes="cscc" /><path
     id="path26"
     style="fill:#77b255;fill-opacity:1;fill-rule:nonzero;stroke:none;stroke-width:2.10675"
     d="m 63.019921,34.371353 c 1.71,-1.375 2.80625,-3.48125 2.80625,-5.845 0,-4.14125 -3.3575,-7.5 -7.5,-7.5 -3.57625,0 -6.5625,2.50625 -7.3125,5.85625 -1.61125,-0.60375 -3.355,-0.9475 -5.1875,-0.9475 -1.83125,0 -3.57625,0.34375 -5.18625,0.9475 -0.75125,-3.35 -3.7375,-5.85625 -7.31375,-5.85625 -4.14125,0 -7.5,3.35875 -7.5,7.5 0,2.36375 1.0975,4.47 2.80625,5.845 -3.30625,3.35 -5.30625,7.51125 -5.30625,11.655 0,9.32 10.07375,1.25 22.5,1.25 12.4275,0 22.5,8.07 22.5,-1.25 0,-4.14375 -1.99875,-8.305 -5.30625,-11.655" /><path
     id="path30"
     style="fill:#ffffff;fill-opacity:1;fill-rule:nonzero;stroke:none;stroke-width:2.10675"
     d="m 37.076296,27.901603 c 0,2.41625 -1.95875,4.375 -4.375,4.375 -2.41625,0 -4.375,-1.95875 -4.375,-4.375 0,-2.41625 1.95875,-4.375 4.375,-4.375 2.41625,0 4.375,1.95875 4.375,4.375" /><path
     id="path34"
     style="fill:#292f33;fill-opacity:1;fill-rule:nonzero;stroke:none;stroke-width:2.10675"
     d="m 34.576296,27.901603 c 0,1.03625 -0.83875,1.875 -1.875,1.875 -1.03625,0 -1.875,-0.83875 -1.875,-1.875 0,-1.03625 0.83875,-1.875 1.875,-1.875 1.03625,0 1.875,0.83875 1.875,1.875" /><path
     id="path38-6"
     style="fill:#ffffff;fill-opacity:1;fill-rule:nonzero;stroke:none;stroke-width:2.10675"
     d="m 63.326296,27.901603 c 0,2.41625 -1.9575,4.375 -4.375,4.375 -2.4175,0 -4.375,-1.95875 -4.375,-4.375 0,-2.41625 1.9575,-4.375 4.375,-4.375 2.4175,0 4.375,1.95875 4.375,4.375" /><path
     id="path42-7"
     style="fill:#292f33;fill-opacity:1;fill-rule:nonzero;stroke:none;stroke-width:2.10675"
     d="m 60.826296,27.901603 c 0,1.03625 -0.84,1.875 -1.875,1.875 -1.035,0 -1.875,-0.83875 -1.875,-1.875 0,-1.03625 0.84,-1.875 1.875,-1.875 1.035,0 1.875,0.83875 1.875,1.875" /><path
     id="path46"
     style="fill:#5c913b;fill-opacity:1;fill-rule:nonzero;stroke:none;stroke-width:2.10675"
     d="m 42.076296,43.526603 c 0,0.69125 -0.56,1.25 -1.25,1.25 -0.69,0 -1.25,-0.55875 -1.25,-1.25 0,-0.69125 0.56,-1.25 1.25,-1.25 0.69,0 1.25,0.55875 1.25,1.25" /><path
     id="path50-3"
     style="fill:#5c913b;fill-opacity:1;fill-rule:nonzero;stroke:none;stroke-width:2.10675"
     d="m 52.076296,43.526603 c 0,0.69125 -0.55875,1.25 -1.25,1.25 -0.69125,0 -1.25,-0.55875 -1.25,-1.25 0,-0.69125 0.55875,-1.25 1.25,-1.25 0.69125,0 1.25,0.55875 1.25,1.25" /></g><path
   class="st0"
   d="M 32,36 V 33 C 31.9,29.2 28.8,26.1 25,26 H 11 c -3.8,0.1 -6.9,3.2 -7,7 v 3 z"
   id="path4" />
		<path
   class="st1"
   d="M 22.5,30 26.8,29.1 24.9,26 h -2.4 z"
   id="path6" />
		<path
   class="st2"
   d="m 20.6,36 h 2.8 l 4.4,-7.7 -2.9,0.9 -1.8,-2.2 z"
   id="path8" />
		<path
   class="st1"
   d="M 13.5,30 9.2,29.1 11.1,26 h 2.4 z"
   id="path10" />
		<path
   class="st2"
   d="M 15.4,36 H 12.6 L 8.2,28.3 11.1,29.2 12.8,27 Z"
   id="path12" />
		
		<path
   class="st4"
   d="M 20.8,36 23.7,26 H 12.3 l 2.9,10 z"
   id="path16" />
		<circle
   class="st0"
   cx="18"
   cy="31.799999"
   r="0.69999999"
   id="circle18" />
		<circle
   class="st0"
   cx="18"
   cy="34.700001"
   r="0.69999999"
   id="circle20" />
		<path
   class="st3"
   d="m 14,26.3 4,1.8 4,-1.8 v -4 h -8 z"
   id="path38" />
		<path
   class="st8"
   d="m 13.9,24.7 4.1,2.9 -2.7,2.8 -3,-4.5 z m 8.2,0 -4.1,2.9 2.7,2.8 3,-4.5 z"
   id="path42" />
		<path
   class="st0"
   d="m 21,26.6 c -0.1,0 -0.2,0 -0.2,0 L 18,28.2 15.2,26.7 c -0.1,0 -0.2,0 -0.2,0 -0.1,0 -0.1,0.1 -0.1,0.2 v 3.2 c 0,0.1 0,0.2 0.1,0.2 0,0 0.1,0 0.1,0 h 0.1 l 2.8,-1.5 2.8,1.5 c 0,0 0.1,0 0.1,0 0,0 0.1,0 0.1,0 0.1,0 0.1,-0.1 0.1,-0.2 v -3.2 c 0.1,-0.1 0,-0.2 -0.1,-0.3 z"
   id="path44" />
		<rect
   y="0"
   class="st9"
   width="36"
   height="36"
   id="rect46"
   x="0" />
		<circle
   class="st8"
   cx="25.700001"
   cy="7.3000002"
   r="3"
   id="circle48" />
		<path
   class="st0"
   d="m 29.2,16.8 c -0.3,0 -0.5,-0.2 -0.5,-0.5 V 7.5 c 0,-0.3 0.2,-0.5 0.5,-0.5 0.3,0 0.5,0.2 0.5,0.5 v 0 8.9 c 0,0.2 -0.3,0.4 -0.5,0.4 z"
   id="path50" />
		<path
   class="st10"
   d="m 29.2,6.6 v 0 C 28.7,4.7 26.9,3.5 25,3.9 23.1,4.3 21.9,6.1 22.2,8 c 0.3,1.9 2.2,3.1 4.1,2.7 1.2,-0.2 2.2,-1.1 2.6,-2.3 h 0.2 c 0.5,0.1 1,-0.3 1,-0.8 0.1,-0.5 -0.3,-1 -0.8,-1 0,-0.1 0,-0.1 -0.1,0 z m -3.5,3.2 c -1.4,0 -2.6,-1.2 -2.6,-2.6 0,-1.4 1.2,-2.6 2.6,-2.6 1.4,0 2.6,1.2 2.6,2.6 v 0 c 0,1.5 -1.2,2.6 -2.6,2.6 z"
   id="path52" />
		<path
   class="st11"
   d="M 27.1,5.1 C 25.9,4.3 24.3,4.6 23.6,5.8 23,6.7 23,7.8 23.6,8.6 Z m -2.5,4.5 c 1.3,0.6 2.8,0.1 3.4,-1.2 0.2,-0.3 0.2,-0.7 0.2,-1.1 0,-0.4 -0.1,-0.8 -0.3,-1.1 z"
   id="path54" />
		<path
   class="st0"
   d="M 25.2,18.7 22,17.8 c -2.6,-0.4 -5.2,-0.4 -7.8,0 l -3.2,1 c -0.5,0.2 -0.8,0.7 -0.7,1.2 0,0 0,0 0,0.1 0.1,0.4 0.5,0.7 0.9,0.7 0.1,0 0.2,0 0.3,0 l 1.9,-0.5 c -0.2,0.3 -0.2,0.7 -0.1,1 0.2,0.5 0.8,0.7 1.3,0.5 L 16.1,21 c 0,0.4 0.2,0.7 0.5,0.9 0.1,0.1 0.3,0.1 0.4,0.1 0.4,0 0.7,-0.3 0.9,-0.6 l 0.1,-0.2 0.1,0.2 c 0.1,0.4 0.5,0.6 0.9,0.6 0.2,0 0.3,0 0.4,-0.1 0.3,-0.2 0.5,-0.5 0.5,-0.9 l 1.5,0.8 c 0.1,0.1 0.3,0.1 0.4,0.1 0.4,0 0.7,-0.2 0.9,-0.6 0.1,-0.3 0.1,-0.7 -0.1,-1 l 1.9,0.5 c 0.1,0 0.2,0 0.3,0 0.4,0 0.8,-0.3 0.9,-0.7 0.4,-0.6 0.1,-1.2 -0.5,-1.4 0,0 0,0 0,0 z"
   id="path56" />
	</g>
</g>
</svg>
