<?xml version="1.0" encoding="utf-8"?>
<!-- Generator: Adobe Illustrator 25.0.0, SVG Export Plug-In . SVG Version: 6.00 Build 0)  -->
<svg version="1.1" id="Ebene_1" xmlns="http://www.w3.org/2000/svg" xmlns:xlink="http://www.w3.org/1999/xlink" x="0px" y="0px"
	 viewBox="0 0 36 36" style="enable-background:new 0 0 36 36;" xml:space="preserve">
<style type="text/css">
	.st0{fill:#5C913B;}
	.st1{fill:#77B255;}
	.st2{fill:none;}
</style>
<g id="Ebene_2_1_">
	<g id="Ebene_1-2">
		<path class="st0" d="M20,9.4h-3.8c-0.1-0.2-0.1-0.5,0-0.7L20,4V9.4z"/>
		<path class="st1" d="M23.2,22.3c0-0.3,0.1-0.7,0.2-1c0.6-2.2,1.1-3.2,0.9-5.5c-0.3-1.6-0.3-4.8-4.5-4.3c-1.1,0.1-2.9,0.9-3.8,0.9
			c-0.6,0-1-1.2-1-1.5s0.9-1.4,1.2-1.6c0.4-0.1,2-0.6,2.7-0.8c1-0.3,1-1.7,1-2.2c0-0.2-0.1-0.5-0.3-0.6c-0.2-0.1-0.4,0-0.6,0.1
			l-0.9,0.7c-0.5,0.4,0.9,1.2,0.5,1.4c-0.8,0.3-1.7,0.6-2.5,0.8c-0.4,0.1-1.8-1.5-1.9-2.5c-0.1-0.7,3.4-4.1,5.9-5.4
			c0.6-0.4,1.3-0.6,2-0.7c0.7,0,0.9,0.3,1.8,1c3.9,3.3,7.6,10.4,8.1,12c2.2,6.5,2.6,9.9,2.7,11.8c0,0.6,0.1,1.2,0.1,1.8
			c-0.1,0,1,5,0,6c-1,1-5.3,1-5.3,1c-10,4-28.6,3-28.6-7.2C0.8,14.3,19.6,15.9,23.2,22.3z"/>
		<path class="st0" d="M15.4,32.1c2-0.3,4-0.9,5.8-2c0.5-0.3,0.6-0.9,0.3-1.4s-0.9-0.6-1.4-0.3l0,0c0,0-4,2.5-7.8,1.5
			C9.9,29.2,8,27.5,7,25.3c-0.3-0.5-0.9-0.7-1.4-0.4c-0.5,0.3-0.6,0.8-0.4,1.3c1.2,2.7,3.6,4.8,6.5,5.6
			C12.9,32.1,14.1,32.2,15.4,32.1z"/>
		<rect y="0" class="st2" width="36" height="36"/>
	</g>
</g>
</svg>
