<?xml version="1.0" encoding="UTF-8" standalone="no"?>
<svg
   viewBox="0 0 51.5 51.5"
   xml:space="preserve"
   version="1.1"
   id="svg2"
   sodipodi:docname="frogru.svg"
   width="51.5"
   height="51.5"
   inkscape:version="1.1.1 (3bf5ae0d25, 2021-09-20, custom)"
   xmlns:inkscape="http://www.inkscape.org/namespaces/inkscape"
   xmlns:sodipodi="http://sodipodi.sourceforge.net/DTD/sodipodi-0.dtd"
   xmlns="http://www.w3.org/2000/svg"
   xmlns:svg="http://www.w3.org/2000/svg"
   xmlns:rdf="http://www.w3.org/1999/02/22-rdf-syntax-ns#"
   xmlns:cc="http://creativecommons.org/ns#"
   xmlns:dc="http://purl.org/dc/elements/1.1/"><sodipodi:namedview
     pagecolor="#ffffff"
     bordercolor="#666666"
     borderopacity="1"
     objecttolerance="10"
     gridtolerance="10"
     guidetolerance="10"
     inkscape:pageopacity="0"
     inkscape:pageshadow="2"
     inkscape:window-width="1920"
     inkscape:window-height="1026"
     id="namedview26"
     showgrid="false"
     inkscape:zoom="5.6568545"
     inkscape:cx="12.109203"
     inkscape:cy="33.852736"
     inkscape:window-x="1920"
     inkscape:window-y="54"
     inkscape:window-maximized="0"
     inkscape:current-layer="svg2"
     fit-margin-top="0"
     fit-margin-left="0"
     fit-margin-right="0"
     fit-margin-bottom="0"
     inkscape:pagecheckerboard="1"
     height="51.5px" /><metadata
     id="metadata8"><rdf:RDF><cc:Work
         rdf:about=""><dc:format>image/svg+xml</dc:format><dc:type
           rdf:resource="http://purl.org/dc/dcmitype/StillImage" /></cc:Work></rdf:RDF></metadata><defs
     id="defs6"><clipPath
       id="clipPath16"
       clipPathUnits="userSpaceOnUse"><path
         id="path18"
         d="M 0,36 H 36 V 0 H 0 Z"
         inkscape:connector-curvature="0" /></clipPath></defs><path
     id="path22"
     style="fill:#ff5555;fill-opacity:1;fill-rule:nonzero;stroke:none;stroke-width:1.25"
     d="m 48.250125,36.469933 c 0,9.32 -10.07375,15 -22.5,15 -12.42625,0 -22.5,-5.68 -22.5,-15 0,-9.32 10.07375,-18.75 22.5,-18.75 12.42625,0 22.5,9.43 22.5,18.75"
     inkscape:connector-curvature="0"
     inkscape:export-xdpi="1919.99"
     inkscape:export-ydpi="1919.99" /><path
     id="path26"
     style="fill:#800000;fill-opacity:1;fill-rule:nonzero;stroke:none;stroke-width:1.25"
     d="m 42.94375,24.814683 c 1.71,-1.375 2.80625,-3.48125 2.80625,-5.845 0,-4.14125 -3.3575,-7.5 -7.5,-7.5 -3.57625,0 -6.5625,2.50625 -7.3125,5.85625 -1.61125,-0.60375 -3.355,-0.9475 -5.1875,-0.9475 -1.83125,0 -3.57625,0.34375 -5.18625,0.9475 -0.75125,-3.35 -3.7375,-5.85625 -7.31375,-5.85625 -4.14125,0 -7.5,3.35875 -7.5,7.5 0,2.36375 1.0975,4.47 2.80625,5.845 -3.30625,3.35 -5.30625,7.51125 -5.30625,11.655 0,9.32 10.07375,1.25 22.5,1.25 12.4275,0 22.5,8.07 22.5,-1.25 0,-4.14375 -1.99875,-8.305 -5.30625,-11.655"
     inkscape:connector-curvature="0"
     inkscape:export-xdpi="1919.99"
     inkscape:export-ydpi="1919.99" /><path
     id="path30"
     style="fill:#ffffff;fill-opacity:1;fill-rule:nonzero;stroke:none;stroke-width:1.25"
     d="m 17.000125,18.344933 c 0,2.41625 -1.95875,4.375 -4.375,4.375 -2.41625,0 -4.375,-1.95875 -4.375,-4.375 0,-2.41625 1.95875,-4.375 4.375,-4.375 2.41625,0 4.375,1.95875 4.375,4.375"
     inkscape:connector-curvature="0"
     inkscape:export-xdpi="1919.99"
     inkscape:export-ydpi="1919.99" /><path
     id="path34"
     style="fill:#000000;fill-opacity:1;fill-rule:nonzero;stroke:none;stroke-width:1.25"
     d="m 14.500125,18.344933 c 0,1.03625 -0.83875,1.875 -1.875,1.875 -1.03625,0 -1.875,-0.83875 -1.875,-1.875 0,-1.03625 0.83875,-1.875 1.875,-1.875 1.03625,0 1.875,0.83875 1.875,1.875"
     inkscape:connector-curvature="0"
     inkscape:export-xdpi="1919.99"
     inkscape:export-ydpi="1919.99" /><path
     id="path38"
     style="fill:#ffffff;fill-opacity:1;fill-rule:nonzero;stroke:none;stroke-width:1.25"
     d="m 43.250125,18.344933 c 0,2.41625 -1.9575,4.375 -4.375,4.375 -2.4175,0 -4.375,-1.95875 -4.375,-4.375 0,-2.41625 1.9575,-4.375 4.375,-4.375 2.4175,0 4.375,1.95875 4.375,4.375"
     inkscape:connector-curvature="0"
     inkscape:export-xdpi="1919.99"
     inkscape:export-ydpi="1919.99" /><path
     id="path42"
     style="fill:#000000;fill-opacity:1;fill-rule:nonzero;stroke:none;stroke-width:1.25"
     d="m 40.750125,18.344933 c 0,1.03625 -0.84,1.875 -1.875,1.875 -1.035,0 -1.875,-0.83875 -1.875,-1.875 0,-1.03625 0.84,-1.875 1.875,-1.875 1.035,0 1.875,0.83875 1.875,1.875"
     inkscape:connector-curvature="0"
     inkscape:export-xdpi="1919.99"
     inkscape:export-ydpi="1919.99" /><path
     id="path46"
     style="fill:#550000;fill-opacity:1;fill-rule:nonzero;stroke:none;stroke-width:1.25"
     d="m 22.000125,33.969933 c 0,0.69125 -0.56,1.25 -1.25,1.25 -0.69,0 -1.25,-0.55875 -1.25,-1.25 0,-0.69125 0.56,-1.25 1.25,-1.25 0.69,0 1.25,0.55875 1.25,1.25"
     inkscape:connector-curvature="0"
     inkscape:export-xdpi="1919.99"
     inkscape:export-ydpi="1919.99" /><path
     id="path50"
     style="fill:#550000;fill-opacity:1;fill-rule:nonzero;stroke:none;stroke-width:1.25"
     d="m 32.000125,33.969933 c 0,0.69125 -0.55875,1.25 -1.25,1.25 -0.69125,0 -1.25,-0.55875 -1.25,-1.25 0,-0.69125 0.55875,-1.25 1.25,-1.25 0.69125,0 1.25,0.55875 1.25,1.25"
     inkscape:connector-curvature="0"
     inkscape:export-xdpi="1919.99"
     inkscape:export-ydpi="1919.99" /><rect
     style="fill:#4d4d4d;fill-opacity:1;fill-rule:nonzero;stroke:#000000;stroke-width:0.723;stroke-miterlimit:4;stroke-dasharray:none;stroke-opacity:1"
     id="rect833"
     width="40.519066"
     height="17.011822"
     x="5.2801676"
     y="0.36149999"
     rx="4.9745545"
     inkscape:export-xdpi="1919.99"
     inkscape:export-ydpi="1919.99"
     ry="4.9745545" /><path
     sodipodi:type="star"
     style="fill:#ef0000;fill-opacity:1;fill-rule:nonzero;stroke:none;stroke-width:0.299;stroke-miterlimit:4;stroke-dasharray:none;stroke-opacity:1"
     id="path838"
     sodipodi:sides="5"
     sodipodi:cx="22.356993"
     sodipodi:cy="25.619705"
     sodipodi:r1="4.2812405"
     sodipodi:r2="2.1406202"
     sodipodi:arg1="0.91170628"
     sodipodi:arg2="1.5400248"
     inkscape:flatsided="false"
     inkscape:rounded="0"
     inkscape:randomized="0"
     d="m 24.978815,29.004239 -2.555963,-1.244927 -2.474555,1.399773 0.39416,-2.815569 -2.095942,-1.920888 2.799567,-0.49519 1.179191,-2.586946 1.336067,2.509524 2.824723,0.322067 -1.973831,2.046161 z"
     inkscape:transform-center-x="-0.023051818"
     inkscape:transform-center-y="-0.75141396"
     transform="matrix(1.8901907,0.07561681,-0.07561681,1.8901907,-14.851509,-41.036808)"
     inkscape:export-xdpi="1919.99"
     inkscape:export-ydpi="1919.99" /><g
     id="g961"
     transform="matrix(0.51951588,-0.52054474,0.52054474,0.51951588,53.557702,-28.192891)"
     style="fill:#ffff00"
     inkscape:export-xdpi="1919.99"
     inkscape:export-ydpi="1919.99"><g
       id="g945"
       style="fill:#ffff00"><path
         style="fill:#ffff00;fill-opacity:1;stroke:none;stroke-width:1px;stroke-linecap:butt;stroke-linejoin:miter;stroke-opacity:1"
         d="M -65.063751,7.0935259 V 5.4418621 h 3.235912 l 1.301952,1.643237 z"
         id="path939"
         inkscape:connector-curvature="0" /><path
         style="fill:#ffff00;fill-opacity:1;stroke:none;stroke-width:1px;stroke-linecap:butt;stroke-linejoin:miter;stroke-opacity:1"
         d="m -63.496354,7.0387514 -0.210671,7.6642246 0.212871,0.317515 0.419143,0.196523 0.424771,-0.145244 0.237044,-0.334867 -0.194125,-7.6981516 z"
         id="path941"
         inkscape:connector-curvature="0"
         sodipodi:nodetypes="cccccccc" /></g><g
       id="g953"
       style="fill:#ffff00"><path
         style="fill:#ffff00;fill-opacity:1;stroke:none;stroke-width:1px;stroke-linecap:butt;stroke-linejoin:miter;stroke-opacity:1"
         d="m -59.640037,5.4875548 c 0.707104,5.3695922 -2.872621,5.7894362 -2.872621,5.7894362 0,0 -0.939315,0.0022 -1.701476,-0.475087 -1.093806,-0.68501 -1.104854,-2.2097084 -1.104854,-2.2097084 l -0.68501,-0.055243 -0.06629,0.5966214 c 0,0 0,3.380854 2.872621,3.646019 2.872621,0.265165 3.86699,-2.673747 3.86699,-2.673747 0,0 1.038563,-2.231806 -0.309359,-4.6182914 z"
         id="path947"
         inkscape:connector-curvature="0"
         sodipodi:nodetypes="ccscccsccc" /><path
         style="fill:#ffff00;fill-opacity:1;stroke:none;stroke-width:1px;stroke-linecap:butt;stroke-linejoin:miter;stroke-opacity:1"
         d="m -65.639397,8.6198168 -0.243068,-0.2430679 -0.182301,-0.016573 -0.270689,-0.1160097 -0.834165,0.1602038 -1.353446,-0.3148834 -0.707107,0.1988737 -0.392224,0.4308932 0.458515,0.5192816 0.624243,0.1602039 1.303728,-0.3314563 0.856262,0.1325825 0.502709,-0.1104855 z"
         id="path949"
         inkscape:connector-curvature="0" /></g></g></svg>
