<svg xmlns="http://www.w3.org/2000/svg" viewBox="0 0 528.48 528.48"><defs><style>.cls-1{fill:none;}.cls-2{fill:#fff;}.cls-3{fill:#77b255;}.cls-4{fill:#fdcc57;}.cls-5{fill:#292f33;}</style></defs><g id="Ebene_2" data-name="Ebene 2"><g id="Ebene_1-2" data-name="Ebene 1"><rect class="cls-1" width="528.48" height="528.48"/><g id="no_outline" data-name="no outline"><path id="base" class="cls-2" d="M516.57,374.27A54.89,54.89,0,0,1,499,396.58q-117.37,88.31-234.74,88.29T29.49,396.58A55.05,55.05,0,0,1,11.9,374.27C-6.36,331.4-5.32,286.36,27.11,237.8,22.48,192.86,42.86,176,68.2,164.94,62.67,109.45,62.84,66.13,99,52.3c43.34-16.59,46.22-7.44,93.43,38.19,23.73-21.34,47.64-27,71.82-9.09,24.18-17.88,48.09-12.25,71.82,9.09,47.2-45.63,50.09-54.78,93.43-38.19,36.15,13.83,36.31,57.15,30.78,112.64C485.62,176,506,192.86,501.36,237.8,533.8,286.36,534.84,331.4,516.57,374.27Z"/><path id="face_top" data-name="face top" class="cls-3" d="M504.26,272.22c-14.81,0-17.31,51.89-23.5,51.89-5.27,0-13.43-10.27-25-10.27-14.48,0-19.22,76.63-117.7,76.63-9.88,0-19.47,5.92-31,11.85S282,414.17,264.24,414.17c-35.45,0-54.05-23.7-73.8-23.7-98.48,0-103.22-76.63-117.71-76.63-11.58,0-19.75,10.27-25,10.27-6.19,0-8.69-51.89-23.49-51.89,2.18-11.9,1.32-21.8-2.42-26,1.66-2.78,3.25-5.58,5.12-8.38C22.3,192.86,41.86,175,67.2,163.94,61.67,108.45,61.84,65.13,98,51.3c43.34-16.59,47.22-7.44,94.43,38.19,23.73-21.34,47.64-27,71.82-9.09,24.18-17.88,48.09-12.25,71.82,9.09,47.2-45.63,51.09-54.78,94.43-38.19,36.15,13.83,36.31,57.15,30.78,112.64,25.35,11.09,44.83,28.92,40.19,73.86,1.88,2.8,3.55,5.6,5.2,8.38C502.92,250.42,502.08,260.32,504.26,272.22Z"/><path id="right_eye" data-name="right eye" class="cls-4" d="M423.36,245.11c19.9,0,48.19-40.31,48.19-80.31,0-35.29-25.28-76.37-39.77-76.37-14.48-1.31-52.4,56.09-53.71,84C376.54,204.84,401.82,245.11,423.36,245.11Z"/><path id="left_eye" data-name="left eye" class="cls-4" d="M105.13,245.11c-19.91,0-48.19-40.31-48.19-80.31,0-35.29,25.28-76.37,39.76-76.37,14.48-1.31,52.4,56.09,53.71,84C151.94,204.84,126.66,245.11,105.13,245.11Z"/><path id="left_eye_black" data-name="left eye black" class="cls-5" d="M134.08,178c-1.86,9.35-17.25,14.18-34.37,10.77s-28.52-10.06-26.16-22.94,15.78-14.36,32.9-11S135.36,171.6,134.08,178Z"/><path id="right_eye_black" data-name="right eye black" class="cls-5" d="M394.4,178c1.86,9.35,17.25,14.18,34.38,10.77s28.51-10.06,26.15-22.94-15.77-14.36-32.9-11S393.13,171.6,394.4,178Z"/><g id="right_deco" data-name="right deco"><path class="cls-3" d="M376.75,377.43c59.25,11.46,63.72,71.89,69.52,71.89,6.32,0,5.53-64.91-54.12-89.27"/><path class="cls-5" d="M297.63,356.69a3.82,3.82,0,0,1-4.36-4.4,15.94,15.94,0,0,1,30-4.41,3.8,3.8,0,0,1-2.9,5.38Z"/></g><g id="left_deco" data-name="left deco"><path class="cls-3" d="M151.73,377.43C92.49,388.89,88,449.32,82.22,449.32c-6.32,0-5.53-64.91,54.11-89.27"/><path class="cls-5" d="M230.88,356.7a3.83,3.83,0,0,0,4.36-4.4,16,16,0,0,0-30-4.42,3.81,3.81,0,0,0,2.91,5.39Z"/></g></g></g></g></svg>