<?xml version="1.0" encoding="UTF-8" standalone="no"?>
<svg
   viewBox="0 0 91.55 91.55"
   version="1.1"
   id="svg26"
   sodipodi:docname="frogpyramid.svg"
   inkscape:version="1.1.1 (3bf5ae0d25, 2021-09-20, custom)"
   xmlns:inkscape="http://www.inkscape.org/namespaces/inkscape"
   xmlns:sodipodi="http://sodipodi.sourceforge.net/DTD/sodipodi-0.dtd"
   xmlns="http://www.w3.org/2000/svg"
   xmlns:svg="http://www.w3.org/2000/svg">
  <sodipodi:namedview
     id="namedview28"
     pagecolor="#505050"
     bordercolor="#ffffff"
     borderopacity="1"
     inkscape:pageshadow="0"
     inkscape:pageopacity="0"
     inkscape:pagecheckerboard="1"
     showgrid="false"
     inkscape:zoom="8"
     inkscape:cx="56.1875"
     inkscape:cy="59.0625"
     inkscape:window-width="1920"
     inkscape:window-height="1026"
     inkscape:window-x="1920"
     inkscape:window-y="54"
     inkscape:window-maximized="1"
     inkscape:current-layer="Ebene_1-2" />
  <defs
     id="defs4">
    <style
       id="style2">.cls-1{fill:#77b255;}.cls-2{fill:#c6e5b3;}.cls-3{fill:#fff;}.cls-4{fill:#292f33;}.cls-5{fill:#5c913b;}.cls-6{fill:none;}</style>
  </defs>
  <g
     id="Ebene_2"
     data-name="Ebene 2">
    <g
       id="Ebene_1-2"
       data-name="Ebene 1">
      <path
         class="cls-1"
         d="m 75.86,42.84 c 0,0 -18.23,29.875498 -22.86,29.875498 -4.63,0 -12.59,-3.147606 -18.33,-3.147606 -5.74,0 -13.73,2.455278 -17,2.455278 -3.27,0 -7.46,-9.70317 -7.46,-9.70317 l 30.5,-50.43 c 0.23891,-0.388172 0.771188,-0.464897 1.11,-0.16 z"
         id="path6"
         sodipodi:nodetypes="cssscccc" />
      <path
         class="cls-2"
         d="M 91.28,58.05 64.05,79.87 c -0.129477,0.09802 -0.287604,0.150732 -0.45,0.15 H 0.73 c -0.56047132,0.0018 -0.90802449,-0.609195 -0.62,-1.09 l 10.1,-16.61 c 0,0 4.08,7.99 7.41,7.99 3.33,0 11.31,-3.19 17.05,-3.19 5.74,0 13.7,3.07 18.33,3.07 4.63,0 22.86,-27.35 22.86,-27.35 L 91.32,57 c 0.286419,0.298174 0.268274,0.774481 -0.04,1.05 z"
         id="path8"
         sodipodi:nodetypes="ccccccsssccc" />
      <circle
         class="cls-3"
         cx="47.23"
         cy="49.439999"
         r="3.9100001"
         id="circle10" />
      <circle
         class="cls-4"
         cx="47.23"
         cy="49.439999"
         r="1.67"
         id="circle12" />
      <circle
         class="cls-3"
         cx="23.07"
         cy="49.439999"
         r="3.9100001"
         id="circle14" />
      <circle
         class="cls-4"
         cx="23.07"
         cy="49.439999"
         r="1.67"
         id="circle16" />
      <circle
         class="cls-5"
         cx="30.530001"
         cy="63.84"
         r="1"
         id="circle18" />
      <circle
         class="cls-5"
         cx="39.73"
         cy="63.84"
         r="1"
         id="circle20" />
      <rect
         class="cls-6"
         width="91.550003"
         height="91.550003"
         id="rect22"
         x="0"
         y="0" />
    </g>
  </g>
</svg>
