<?xml version="1.0" encoding="UTF-8" standalone="no"?>
<svg
   viewBox="0 0 45 45"
   style="enable-background:new 0 0 45 45;"
   xml:space="preserve"
   version="1.1"
   id="svg2"
   sodipodi:docname="frogTestPattern.svg"
   inkscape:version="1.1.2 (0a00cf5339, 2022-02-04, custom)"
   inkscape:export-xdpi="68.266701"
   inkscape:export-ydpi="68.266701"
   xmlns:inkscape="http://www.inkscape.org/namespaces/inkscape"
   xmlns:sodipodi="http://sodipodi.sourceforge.net/DTD/sodipodi-0.dtd"
   xmlns="http://www.w3.org/2000/svg"
   xmlns:svg="http://www.w3.org/2000/svg"
   xmlns:rdf="http://www.w3.org/1999/02/22-rdf-syntax-ns#"
   xmlns:cc="http://creativecommons.org/ns#"
   xmlns:dc="http://purl.org/dc/elements/1.1/"><sodipodi:namedview
     id="namedview46795"
     pagecolor="#505050"
     bordercolor="#ffffff"
     borderopacity="1"
     inkscape:pageshadow="0"
     inkscape:pageopacity="0"
     inkscape:pagecheckerboard="1"
     showgrid="false"
     inkscape:zoom="5.6568543"
     inkscape:cx="13.34664"
     inkscape:cy="20.417708"
     inkscape:window-width="1920"
     inkscape:window-height="1026"
     inkscape:window-x="1920"
     inkscape:window-y="54"
     inkscape:window-maximized="1"
     inkscape:current-layer="g10" /><metadata
     id="metadata8"><rdf:RDF><cc:Work
         rdf:about=""><dc:format>image/svg+xml</dc:format><dc:type
           rdf:resource="http://purl.org/dc/dcmitype/StillImage" /></cc:Work></rdf:RDF></metadata><defs
     id="defs6"><clipPath
       id="clipPath16"
       clipPathUnits="userSpaceOnUse"><path
         id="path18"
         d="M 0,36 36,36 36,0 0,0 0,36 Z" /></clipPath><filter
       style="color-interpolation-filters:sRGB;"
       inkscape:label="Noise Fill"
       id="filter98576"
       x="0"
       y="0"
       width="1"
       height="1"><feTurbulence
         type="fractalNoise"
         baseFrequency="5.40723 5.36708"
         numOctaves="5"
         seed="1"
         result="turbulence"
         id="feTurbulence98560" /><feComposite
         in="SourceGraphic"
         in2="turbulence"
         operator="in"
         result="composite1"
         id="feComposite98562" /><feColorMatrix
         values="1 0 0 0 0 0 1 0 0 0 0 0 1 0 0 0 0 0 2.52113 -1.15726 "
         result="color"
         id="feColorMatrix98564" /><feFlood
         flood-opacity="1"
         flood-color="rgb(0,0,0)"
         result="flood"
         id="feFlood98566" /><feMerge
         result="merge"
         id="feMerge98572"><feMergeNode
           in="flood"
           id="feMergeNode98568" /><feMergeNode
           in="color"
           id="feMergeNode98570" /></feMerge><feComposite
         in2="SourceGraphic"
         operator="in"
         result="composite2"
         id="feComposite98574" /></filter><filter
       style="color-interpolation-filters:sRGB;"
       inkscape:label="Noise Fill"
       id="filter2893"
       x="0"
       y="0"
       width="1"
       height="1"><feTurbulence
         type="fractalNoise"
         baseFrequency="5.80246 5.85779"
         numOctaves="5"
         seed="1"
         result="turbulence"
         id="feTurbulence2877" /><feComposite
         in="SourceGraphic"
         in2="turbulence"
         operator="in"
         result="composite1"
         id="feComposite2879" /><feColorMatrix
         values="1 0 0 0 0 0 1 0 0 0 0 0 1 0 0 0 0 0 2.52113 -0.82292 "
         result="color"
         id="feColorMatrix2881" /><feFlood
         flood-opacity="1"
         flood-color="rgb(255,255,255)"
         result="flood"
         id="feFlood2883" /><feMerge
         result="merge"
         id="feMerge2889"><feMergeNode
           in="flood"
           id="feMergeNode2885" /><feMergeNode
           in="color"
           id="feMergeNode2887" /></feMerge><feComposite
         in2="SourceGraphic"
         operator="in"
         result="composite2"
         id="feComposite2891" /></filter><clipPath
       clipPathUnits="userSpaceOnUse"
       id="clipPath1417"><path
         id="path1419"
         style="fill:#ffffff;fill-opacity:1;fill-rule:nonzero;stroke:none;stroke-width:1"
         d="m 119.88292,12.543719 c 0,-5.8953492 -12.83003,-9.4882231 -28.656219,-9.4882231 -15.826194,0 -28.65622,3.5928739 -28.65622,9.4882231 h 57.312439"
         sodipodi:nodetypes="cscc" /></clipPath><clipPath
       clipPathUnits="userSpaceOnUse"
       id="clipPath1421"><path
         id="path1423"
         style="fill:#ffffff;fill-opacity:1;fill-rule:nonzero;stroke:none;stroke-width:0.999996"
         d="m 113.12467,28.354515 c 2.17787,1.1 3.57406,2.785 3.57406,4.676 0,3.313 -4.27614,6 -9.55206,6 -4.55475,0 -8.35807,-2.005 -9.313278,-4.685 -2.052103,0.483 -4.27296,0.758 -6.60685,0.758 -2.332298,0 -4.554747,-0.275 -6.605259,-0.758 -0.956799,2.68 -4.760117,4.685 -9.314863,4.685 -5.274338,0 -9.552074,-2.687 -9.552074,-6 0,-1.891 1.397787,-3.576 3.574067,-4.676 -4.210871,-2.68 -6.758092,-6.009 -6.758092,-9.324 0,-7.456 12.830027,-1 28.656221,-1 15.827788,0 28.656218,-6.456 28.656218,1 0,3.315 -2.54563,6.644 -6.75809,9.324" /></clipPath></defs><g
     transform="matrix(1.25,0,0,-1.25,0,45)"
     id="g10"><g
       id="g3207"
       transform="matrix(0.62813588,0,0,1.2647257,-39.302764,-1.8643642)"
       style="stroke-width:1.12195"
       clip-path="url(#clipPath1417)"><rect
         style="fill:#000000;fill-opacity:1;stroke-width:0.898973;paint-order:markers fill stroke;filter:url(#filter2893)"
         id="rect1427"
         width="14.812721"
         height="10.651625"
         x="105.06902"
         y="-9.0262632"
         transform="scale(1,-1)" /><rect
         style="fill:#0000fd;fill-opacity:1;stroke-width:0.898974;paint-order:markers fill stroke"
         id="rect47382"
         width="8.1874933"
         height="3.5174572"
         x="62.57048"
         y="-12.543719"
         transform="scale(1,-1)" /><rect
         style="fill:#00388b;fill-opacity:1;stroke-width:0.898973;paint-order:markers fill stroke"
         id="rect47406"
         width="9.3714314"
         height="10.651624"
         x="62.57048"
         y="-9.0262632"
         transform="scale(1,-1)" /><rect
         style="fill:#000000;fill-opacity:1;stroke-width:0.898974;paint-order:markers fill stroke"
         id="rect47504"
         width="8.1874933"
         height="3.5174572"
         x="70.757973"
         y="-12.543719"
         transform="scale(1,-1)" /><rect
         style="fill:#fd00fc;fill-opacity:1;stroke-width:0.898974;paint-order:markers fill stroke"
         id="rect47508"
         width="8.1874933"
         height="3.5174572"
         x="78.945465"
         y="-12.543719"
         transform="scale(1,-1)" /><rect
         style="fill:#000000;fill-opacity:1;stroke-width:0.898974;paint-order:markers fill stroke"
         id="rect47512"
         width="8.1874933"
         height="3.5174572"
         x="87.132957"
         y="-12.543719"
         transform="scale(1,-1)" /><rect
         style="fill:#00fcfd;fill-opacity:1;stroke-width:0.898974;paint-order:markers fill stroke"
         id="rect47516"
         width="8.1874933"
         height="3.5174572"
         x="95.32045"
         y="-12.543719"
         transform="scale(1,-1)" /><rect
         style="fill:#000000;fill-opacity:1;stroke-width:0.898974;paint-order:markers fill stroke"
         id="rect47520"
         width="8.1874933"
         height="3.5174572"
         x="103.50793"
         y="-12.543719"
         transform="scale(1,-1)" /><rect
         style="fill:#fdfdfd;fill-opacity:1;stroke-width:0.898974;paint-order:markers fill stroke"
         id="rect47524"
         width="8.1874933"
         height="3.5174572"
         x="111.69543"
         y="-12.543719"
         transform="scale(1,-1)" /><rect
         style="fill:#fdfdfd;fill-opacity:1;stroke-width:0.898973;paint-order:markers fill stroke"
         id="rect47526"
         width="9.3714314"
         height="10.651624"
         x="71.94191"
         y="-9.0262632"
         transform="scale(1,-1)" /><rect
         style="fill:#6e00d6;fill-opacity:1;stroke-width:0.898973;paint-order:markers fill stroke"
         id="rect47528"
         width="9.3714314"
         height="10.651624"
         x="81.313339"
         y="-9.0262632"
         transform="scale(1,-1)" /><rect
         style="fill:#000000;fill-opacity:1;stroke-width:0.898973;paint-order:markers fill stroke"
         id="rect47530"
         width="9.3714314"
         height="10.651624"
         x="90.684769"
         y="-9.0262632"
         transform="scale(1,-1)" /><rect
         style="fill:#101010;fill-opacity:1;stroke-width:0.898973;paint-order:markers fill stroke"
         id="rect47763"
         width="5.012825"
         height="10.651625"
         x="100.05619"
         y="-9.0262632"
         transform="scale(1,-1)" /></g><g
       id="g3216"
       transform="matrix(0.62813588,0,0,1,-39.302764,-5.0303154)"
       style="stroke-width:1.26175"
       clip-path="url(#clipPath1421)"><rect
         style="fill:#fdfdfd;fill-opacity:1;stroke-width:1.01098;paint-order:markers fill stroke"
         id="rect47074"
         width="8.1874933"
         height="28.486593"
         x="62.57048"
         y="-41.030315"
         transform="scale(1,-1)" /><rect
         style="fill:#fbfb00;fill-opacity:1;stroke-width:1.01098;paint-order:markers fill stroke"
         id="rect47502"
         width="8.1874933"
         height="28.486593"
         x="70.757973"
         y="-41.030315"
         transform="scale(1,-1)" /><rect
         style="fill:#00fcfd;fill-opacity:1;stroke-width:1.01098;paint-order:markers fill stroke"
         id="rect47506"
         width="8.1874933"
         height="28.486593"
         x="78.945465"
         y="-41.030315"
         transform="scale(1,-1)" /><rect
         style="fill:#00fa00;fill-opacity:1;stroke-width:1.01098;paint-order:markers fill stroke"
         id="rect47510"
         width="8.1874933"
         height="28.486593"
         x="87.132957"
         y="-41.030315"
         transform="scale(1,-1)" /><rect
         style="fill:#fd00fc;fill-opacity:1;stroke-width:1.01098;paint-order:markers fill stroke"
         id="rect47514"
         width="8.1874933"
         height="28.486593"
         x="95.32045"
         y="-41.030315"
         transform="scale(1,-1)" /><rect
         style="fill:#fd0000;fill-opacity:1;stroke-width:1.01098;paint-order:markers fill stroke"
         id="rect47518"
         width="8.1874933"
         height="28.486593"
         x="103.50793"
         y="-41.030315"
         transform="scale(1,-1)" /><rect
         style="fill:#0000fd;fill-opacity:1;stroke-width:1.01098;paint-order:markers fill stroke"
         id="rect47522"
         width="8.1874933"
         height="28.486593"
         x="111.69543"
         y="-41.030315"
         transform="scale(1,-1)" /></g><path
       id="path30"
       style="fill:#000000;fill-opacity:1;fill-rule:nonzero;stroke:none"
       d="M 11,28.5 C 11,26.567 9.433,25 7.5,25 5.567,25 4,26.567 4,28.5 4,30.433 5.567,32 7.5,32 9.433,32 11,30.433 11,28.5" /><path
       id="path34"
       style="fill:#fdfdfd;fill-opacity:1;fill-rule:nonzero;stroke:none"
       d="M 9,28.5 C 9,27.671 8.329,27 7.5,27 6.671,27 6,27.671 6,28.5 6,29.329 6.671,30 7.5,30 8.329,30 9,29.329 9,28.5" /><path
       id="path38"
       style="fill:#ffffff;fill-opacity:1;fill-rule:nonzero;stroke:none"
       d="M 32,28.5 C 32,26.567 30.434,25 28.5,25 26.566,25 25,26.567 25,28.5 c 0,1.933 1.566,3.5 3.5,3.5 1.934,0 3.5,-1.567 3.5,-3.5" /><path
       id="path42"
       style="fill:#000000;fill-opacity:1;fill-rule:nonzero;stroke:none"
       d="M 30,28.5 C 30,27.671 29.328,27 28.5,27 27.672,27 27,27.671 27,28.5 c 0,0.829 0.672,1.5 1.5,1.5 0.828,0 1.5,-0.671 1.5,-1.5" /><path
       id="path46"
       style="fill:#fd00fc;fill-opacity:1;fill-rule:nonzero;stroke:none"
       d="m 15,16 c 0,-0.553 -0.448,-1 -1,-1 -0.552,0 -1,0.447 -1,1 0,0.553 0.448,1 1,1 0.552,0 1,-0.447 1,-1" /><path
       id="path50"
       style="fill:#00fcfd;fill-opacity:1;fill-rule:nonzero;stroke:none"
       d="m 23,16 c 0,-0.553 -0.447,-1 -1,-1 -0.553,0 -1,0.447 -1,1 0,0.553 0.447,1 1,1 0.553,0 1,-0.447 1,-1" /></g></svg>
