<?xml version="1.0" encoding="utf-8"?>
<!-- Generator: Adobe Illustrator 26.0.1, SVG Export Plug-In . SVG Version: 6.00 Build 0)  -->
<svg version="1.1"
	 id="svg34" inkscape:version="1.1.1 (3bf5ae0d25, 2021-09-20, custom)" xmlns:inkscape="http://www.inkscape.org/namespaces/inkscape" xmlns:sodipodi="http://sodipodi.sourceforge.net/DTD/sodipodi-0.dtd" xmlns:svg="http://www.w3.org/2000/svg"
	 xmlns="http://www.w3.org/2000/svg" xmlns:xlink="http://www.w3.org/1999/xlink" x="0px" y="0px" viewBox="0 0 36 36"
	 style="enable-background:new 0 0 36 36;" xml:space="preserve">
<style type="text/css">
	.st0{fill:#C6E5B3;}
	.st1{fill:#77B255;}
	.st2{fill:#FFFFFF;}
	.st3{fill:#292F33;}
	.st4{fill:#5C913B;}
	.st5{fill:none;stroke:#3B642E;stroke-miterlimit:10;}
</style>
<g id="g997" transform="matrix(0.79999777,0,0,0.79999777,2.2294198,4.1036605)">
	<path id="path22-3" sodipodi:nodetypes="cscc" class="st0" d="M42.2,22.4c0,9.3-10.1,15-22.5,15s-22.5-5.7-22.5-15H42.2"/>
	<path id="path26-6" class="st1" d="M36.9,10.7c1.7-1.4,2.8-3.5,2.8-5.8c0-4.1-3.4-7.5-7.5-7.5c-3.6,0-6.6,2.5-7.3,5.9
		c-1.6-0.6-3.4-0.9-5.2-0.9c-1.8,0-3.6,0.3-5.2,0.9c-0.8-3.3-3.7-5.9-7.3-5.9c-4.1,0-7.5,3.4-7.5,7.5c0,2.4,1.1,4.5,2.8,5.8
		c-3.3,3.3-5.3,7.5-5.3,11.7c0,9.3,10.1,1.2,22.5,1.2c12.4,0,22.5,8.1,22.5-1.2C42.2,18.2,40.2,14.1,36.9,10.7"/>
	<path id="path30" class="st2" d="M11,4.2c0,2.4-2,4.4-4.4,4.4s-4.4-2-4.4-4.4s2-4.4,4.4-4.4S11,1.8,11,4.2"/>
	<path id="path34" class="st3" d="M8.5,4.2c0,1-0.8,1.9-1.9,1.9S4.7,5.3,4.7,4.2s0.8-1.9,1.9-1.9S8.5,3.2,8.5,4.2"/>
	<path id="path38" class="st2" d="M37.2,4.2c0,2.4-2,4.4-4.4,4.4s-4.4-2-4.4-4.4s2-4.4,4.4-4.4S37.2,1.8,37.2,4.2"/>
	<path id="path42" class="st3" d="M34.7,4.2c0,1-0.8,1.9-1.9,1.9c-1,0-1.9-0.8-1.9-1.9s0.8-1.9,1.9-1.9C33.9,2.4,34.7,3.2,34.7,4.2"
		/>
	<path id="path46" class="st4" d="M16,19.9c0,0.7-0.6,1.2-1.2,1.2c-0.7,0-1.2-0.6-1.2-1.2c0-0.7,0.6-1.2,1.2-1.2
		C15.4,18.6,16,19.2,16,19.9"/>
	<path id="path50" class="st4" d="M26,19.9c0,0.7-0.6,1.2-1.2,1.2s-1.2-0.6-1.2-1.2c0-0.7,0.6-1.2,1.2-1.2S26,19.2,26,19.9"/>
</g>
<path class="st5" d="M34.9,25.5v2.4c0,4-2.4,7.2-7.3,7.2c-1.9,0-3.2-0.8-4.2-2c0,0,0,0,0,0c-1.8-1.8-2.8-4.4-2.8-5.5
	c0.1-0.9,0.3-1.8,0.6-2.6c0.4-1.6,0.7-1.9,1.7-1.9h0.6c0-0.1,0-0.1,0-0.2v-1c0,0,0-0.1,0-0.2c0-0.8,0.7-1.4,1.5-1.4h0.1
	c0.8,0,1.4,0.7,1.4,1.5v-6.8c-0.1-0.8,0.5-1.6,1.3-1.7c0.8-0.1,1.6,0.5,1.7,1.3c0,0.1,0,0.2,0,0.4v8c0.4-0.5,1.1-0.7,1.8-0.5
	c0.7,0.2,1.2,0.9,1.2,1.6c0,0,0,0,0,0c0.3-0.5,0.9-0.6,1.4-0.3C34.5,24,35,24.7,34.9,25.5z"/>
<path id="path24" class="st1" d="M34.9,25.5c0-0.8-0.4-1.5-1.1-1.8c-0.5-0.3-1.1-0.1-1.4,0.3c0,0,0,0,0,0c0-0.7-0.5-1.4-1.2-1.6
	c-0.6-0.2-1.4-0.1-1.8,0.5c-0.1-0.7-0.6-1.2-1.2-1.3c-0.7-0.1-1.3,0.2-1.8,0.7v-0.5c0-0.8-0.6-1.5-1.4-1.5c0,0-0.1,0-0.1,0
	c-0.8,0-1.5,0.6-1.5,1.4c0,0.1,0,0.1,0,0.2v1c0,0.8-0.6,0.1-1,0.5c-1,0.9-1.4,3.9-0.7,6.3c0.8,3,2.5,5.5,5.8,5.5
	c4.9,0,7.3-3.2,7.3-7.2V25.5z"/>
<path id="path26" class="st1" d="M29.5,24.5c0.1,0.8-0.5,1.6-1.3,1.7c-0.8,0.1-1.6-0.5-1.7-1.3c0-0.1,0-0.2,0-0.3v-9.6
	c-0.1-0.8,0.5-1.6,1.3-1.7c0.8-0.1,1.6,0.5,1.7,1.3c0,0.1,0,0.2,0,0.3V24.5z M24.2,23h-1.4c-1,0-1.3,0.3-1.7,1.9
	c-0.3,0.8-0.5,1.7-0.6,2.6c0,1.8,2.8,7.4,6.8,7.5L24.2,23z"/>
<path id="path28" class="st4" d="M22.9,28.7c0,0.2,0.1,0.3,0.3,0.3l0,0c0.2,0,0.3-0.1,0.3-0.3V23h-0.6L22.9,28.7z"/>
</svg>
