<?xml version="1.0" encoding="UTF-8" standalone="no"?>
<svg
   xmlns:dc="http://purl.org/dc/elements/1.1/"
   xmlns:cc="http://creativecommons.org/ns#"
   xmlns:rdf="http://www.w3.org/1999/02/22-rdf-syntax-ns#"
   xmlns:svg="http://www.w3.org/2000/svg"
   xmlns="http://www.w3.org/2000/svg"
   xmlns:sodipodi="http://sodipodi.sourceforge.net/DTD/sodipodi-0.dtd"
   xmlns:inkscape="http://www.inkscape.org/namespaces/inkscape"
   viewBox="0 0 45 45"
   style="enable-background:new 0 0 45 45;"
   xml:space="preserve"
   version="1.1"
   id="svg2"
   sodipodi:docname="svg_pregnantfrogsun.svg"
   inkscape:export-xdpi="1919.99"
   inkscape:export-ydpi="1919.99"
   inkscape:version="0.92.4 5da689c313, 2019-01-14"><sodipodi:namedview
     pagecolor="#ffffff"
     bordercolor="#666666"
     borderopacity="1"
     objecttolerance="10"
     gridtolerance="10"
     guidetolerance="10"
     inkscape:pageopacity="0"
     inkscape:pageshadow="2"
     inkscape:window-width="1920"
     inkscape:window-height="1016"
     id="namedview48"
     showgrid="false"
     inkscape:zoom="14.833529"
     inkscape:cx="29.388729"
     inkscape:cy="23.121898"
     inkscape:window-x="0"
     inkscape:window-y="27"
     inkscape:window-maximized="1"
     inkscape:current-layer="svg2" /><metadata
     id="metadata8"><rdf:RDF><cc:Work
         rdf:about=""><dc:format>image/svg+xml</dc:format><dc:type
           rdf:resource="http://purl.org/dc/dcmitype/StillImage" /><dc:title></dc:title></cc:Work></rdf:RDF></metadata><defs
     id="defs6"><clipPath
       id="clipPath16"
       clipPathUnits="userSpaceOnUse"><path
         id="path18"
         d="M 0,36 36,36 36,0 0,0 0,36 Z" /></clipPath><clipPath
       id="clipPath16-3"
       clipPathUnits="userSpaceOnUse"><path
         inkscape:connector-curvature="0"
         id="path18-6"
         d="M 0,36 H 36 V 0 H 0 Z" /></clipPath></defs><g
     id="g20"
     transform="matrix(1.25,0,0,-1.25,27.65375,17.22225)"
     style="fill:#ffcc4d;fill-opacity:1"><path
       inkscape:connector-curvature="0"
       d="M 0,0 H -4.444 C -6.237,0 -7.777,-1.541 -7.777,-3.333 V -22.222 H 2.877 v 8.956 l 0.457,1.752 v 8.181 C 3.334,-1.541 1.793,0 0,0"
       style="fill:#ffcc4d;fill-opacity:1;fill-rule:nonzero;stroke:none"
       id="path22" /></g><g
     id="g24"
     transform="matrix(1.25,0,0,-1.25,22.5,20.625)"
     style="fill:#f4900c;fill-opacity:1"><path
       inkscape:connector-curvature="0"
       d="M 0,0 C -2.485,0 -4.5,-2.015 -4.5,-4.5 -4.5,-6.985 -2.485,-9 0,-9 Z"
       style="fill:#f4900c;fill-opacity:1;fill-rule:nonzero;stroke:none"
       id="path26" /></g><g
     id="g28"
     transform="matrix(1.25,0,0,-1.25,22.5,21.875)"
     style="fill:#ffcc4d;fill-opacity:1"><path
       inkscape:connector-curvature="0"
       d="M 0,0 C -1.933,0 -3.5,-1.567 -3.5,-3.5 -3.5,-5.433 -1.933,-7 0,-7 Z"
       style="fill:#ffcc4d;fill-opacity:1;fill-rule:nonzero;stroke:none"
       id="path30" /></g><g
     id="g32"
     transform="matrix(1.25,0,0,-1.25,25,20.625)"
     style="fill:#f4900c;fill-opacity:1"><path
       inkscape:connector-curvature="0"
       d="M 0,0 C -2.485,0 -4.5,-2.015 -4.5,-4.5 -4.5,-6.985 -2.485,-9 0,-9 Z"
       style="fill:#f4900c;fill-opacity:1;fill-rule:nonzero;stroke:none"
       id="path34" /></g><g
     id="g36"
     transform="matrix(1.25,0,0,-1.25,25,21.875)"
     style="fill:#ffcc4d;fill-opacity:1"><path
       inkscape:connector-curvature="0"
       d="M 0,0 C -1.933,0 -3.5,-1.567 -3.5,-3.5 -3.5,-5.433 -1.933,-7 0,-7 Z"
       style="fill:#ffcc4d;fill-opacity:1;fill-rule:nonzero;stroke:none"
       id="path38" /></g><g
     id="g40"
     transform="matrix(1.25,0,0,-1.25,14.766875,45)"
     style="fill:#f4900c;fill-opacity:1"><path
       inkscape:connector-curvature="0"
       d="m 0,0 h 7.154 v 14.25 c -0.453,0.076 -0.916,0.125 -1.391,0.125 -4.61,0 -8.347,-3.737 -8.347,-8.347 C -2.584,3.656 -1.589,1.52 0,0"
       style="fill:#f4900c;fill-opacity:1;fill-rule:nonzero;stroke:none"
       id="path42" /></g><g
     id="g44"
     transform="matrix(1.25,0,0,-1.25,23.4875,22.71325)"
     style="fill:#ffcc4d;fill-opacity:1"><path
       inkscape:connector-curvature="0"
       d="m 0,0 v -4.491 c -0.396,0.066 -0.799,0.109 -1.213,0.109 -4.098,0 -7.42,-3.321 -7.42,-7.419 0,-2.486 1.228,-4.682 3.106,-6.028 H 5.169 V 2.838 Z"
       style="fill:#ffcc4d;fill-opacity:1;fill-rule:nonzero;stroke:none"
       id="path46" /></g><g
     id="g48"
     transform="matrix(1.25,0,0,-1.25,30.546875,20)"
     style="fill:#f4900c;fill-opacity:1"><path
       inkscape:connector-curvature="0"
       d="m 0,0 4.851,-5.114 -4.289,-4.511 -0.001,-3.046 -3.941,-2.674 -2.641,4.139 5.646,5.81 -1.939,1.923 z"
       style="fill:#f4900c;fill-opacity:1;fill-rule:nonzero;stroke:none"
       id="path50" /></g><path
     id="path54"
     style="fill:#ffcc4d;fill-opacity:1;fill-rule:nonzero;stroke:none;stroke-width:1.25"
     d="m 30.546875,18.4375 6.83,7.1175 c 0,0 2.37125,1.91125 0,4.16625 -1.42375,1.35375 -10.34625,7.3625 -10.34625,7.3625 l -2.77625,-2.7775 7.5675,-7.36125 -4.1675,-4.1675 z"
     inkscape:connector-curvature="0" /><g
     id="g56"
     transform="matrix(1.25,0,0,-1.25,25.413875,34.41525)"
     style="fill:#ffe680;fill-opacity:1"><path
       inkscape:connector-curvature="0"
       d="M 0,0 C -1.124,0.535 -2.19,0.461 -3.221,-0.142 -3.713,-0.431 -3.915,-0.971 -3.16,-1.149 -2.402,-1.327 0,0 0,0"
       style="fill:#ffe680;fill-opacity:1;fill-rule:nonzero;stroke:none"
       id="path58" /></g><g
     id="g60"
     transform="matrix(1.25,0,0,-1.25,27.305875,36.8115)"
     style="fill:#ffeb99;fill-opacity:1"><path
       inkscape:connector-curvature="0"
       d="m 0,0 c 0.139,-1.765 -2.227,-3.414 -4.02,-3.199 -1.282,0.154 -2.397,3.608 -0.877,4.053 1.357,0.396 1.731,1.627 3.34,1.167 C -0.278,1.656 -0.051,0.678 0,0"
       style="fill:#ffeb99;fill-opacity:1;fill-rule:nonzero;stroke:none"
       id="path62" /></g><g
     id="g64"
     transform="matrix(1.25,0,0,-1.25,25.824,37.66475)"
     style="fill:#794d0b;fill-opacity:1"><path
       inkscape:connector-curvature="0"
       d="m 0,0 -0.212,0.441 c 0,0 -0.77,-1.147 -1.843,-1.589 -0.813,-0.332 -1.498,-0.366 -1.857,-0.306 0.154,-0.293 0.157,-0.343 0.359,-0.53 C -2.436,-2.024 -0.651,-1.425 0,0"
       style="fill:#794d0b;fill-opacity:1;fill-rule:nonzero;stroke:none"
       id="path66" /></g><g
     id="g68"
     transform="matrix(1.25,0,0,-1.25,23.052375,37.616)"
     style="fill:#7e4a06;fill-opacity:1"><path
       inkscape:connector-curvature="0"
       d="M 0,0 C 0.99,0.678 1.279,1.326 1.279,1.326 L 0.956,1.735 c 0,0 -1.145,-1.776 -3.177,-1.684 0.015,-0.248 -0.006,-0.296 0.068,-0.55 C -1.88,-0.509 -0.804,-0.55 0,0"
       style="fill:#7e4a06;fill-opacity:1;fill-rule:nonzero;stroke:none"
       id="path70" /></g><g
     inkscape:groupmode="layer"
     id="layer2"
     inkscape:label="Layer 1" /><g
     inkscape:groupmode="layer"
     id="layer3"
     inkscape:label="Layer 2"
     style="display:inline"><g
       style="enable-background:new"
       id="g100"
       transform="matrix(0.59293037,0,0,0.59293037,12.3852,-0.32671019)"><g
         style="display:inline"
         inkscape:label="Layer 1"
         id="layer1"><path
           sodipodi:nodetypes="ccccccccccccccccccccccccccccccccccccccccccccccccccccccc"
           id="path2"
           d="m 18,35.8 c -0.39,0 -0.745,-0.218 -0.921,-0.565 l -1.8,-3.554 -3.024,2.596 c -0.296394,0.249887 -0.70685,0.314959 -1.066,0.169 -0.359331,-0.147804 -0.604627,-0.48557 -0.634,-0.873 L 10.251,29.597 6.463,30.838 C 5.6597459,31.098772 4.8999939,30.337853 5.162,29.535 L 6.402,25.747 2.43,25.446 C 1.5891308,25.37884 1.1781774,24.387306 1.725,23.745 l 2.594,-3.024 -3.554,-1.8 c -0.75358409,-0.382775 -0.75358409,-1.459225 0,-1.842 l 3.554,-1.8 -2.594,-3.024 C 0.92338807,11.547801 1.3547461,10.520652 2.43,10.555 L 6.402,10.251 5.162,6.4629997 c -0.1208571,-0.3694744 -0.024273,-0.7755146 0.25,-1.051 0.2756017,-0.2740641 0.6815157,-0.3706183 1.051,-0.25 l 3.788,1.24 0.304,-3.972 c 0.0647,-0.842098 -1.8000512,-1.63168994 0.729227,-0.705 l 3.994773,2.594 1.8,-3.55400005 c 0.381135,-0.75550486 1.459865,-0.75550486 1.841,0 l 1.802,3.55400005 4.264433,-2.6479319 c 0.294914,-0.2538548 1.570709,0.2736127 1.92991,0.4232506 0.358,0.149 -1.500343,-0.052319 -1.469343,0.3356813 l 0.303,3.972 3.785,-1.24 c 0.369117,-0.121889 0.775417,-0.025151 1.05,0.25 0.276,0.276 0.373,0.682 0.252,1.051 L 29.596,10.251 l 3.976,0.304 c 0.840546,0.06696 1.251116,1.058389 0.704,1.7 l -2.596,3.024 3.554,1.8 c 0.753792,0.382366 0.754377,1.458816 10e-4,1.842 l -3.554,1.8 2.596,3.024 c 0.549063,0.642704 0.135865,1.636834 -0.707,1.701 l -3.973,0.301 1.241,3.788 c 0.121312,0.369807 0.02382,0.776414 -0.252,1.051 -0.274033,0.276069 -0.68052,0.373626 -1.05,0.252 l -3.785,-1.241 -0.303,3.973 c -0.06569,0.84176 -1.058003,1.254203 -1.701,0.707 l -3.024,-2.596 -1.802,3.554 C 18.74482,35.581677 18.388875,35.800036 18,35.8 Z"
           style="fill:#f4900c"
           inkscape:connector-curvature="0" /></g><g
         style="display:inline;opacity:1"
         inkscape:label="Layer 2"
         id="layer3-6"><path
           id="path4"
           d="M 31,18 C 31,25.179 25.179,31 18,31 10.821,31 5,25.18 5,18 5,10.82 10.821,5 18,5 c 7.179,0 13,5.821 13,13"
           style="fill:#ffcc4d"
           inkscape:connector-curvature="0" /></g><g
         style="display:inline;opacity:1"
         inkscape:label="Layer 5"
         id="layer6"><path
           id="path4-5"
           d="M 18,5 C 10.821,5 5,10.82 5,18 c 7.47e-4,0.0086 0.0012,0.01872 0.00195,0.02734 0.03696,0.423375 0.069387,0.793269 0.1132813,1.341797 0.032876,0.410842 0.086155,0.767339 0.1328125,1.142578 0.2397136,1.223245 0.6541906,2.382817 1.2109375,3.457031 0.018467,-3.27e-4 0.036008,0.01556 0.054687,0.01172 3.1631149,-0.650377 7.2003677,-2.048828 11.6386717,-2.048828 4.268061,0 8.190009,1.190832 11.27539,1.958984 0.05511,0.01372 0.110856,-0.0054 0.167969,-0.03516 C 30.487304,22.094008 31,20.109019 31,18 31,10.821 25.179,5 18,5 Z"
           style="fill:#ffe680"
           inkscape:connector-curvature="0" /></g><g
         style="display:inline"
         inkscape:label="Layer 8"
         id="layer9"><ellipse
           cx="28.422098"
           cy="6.5531969"
           rx="5.9325061"
           ry="6.04037"
           id="path3882-5"
           style="display:inline;opacity:1;fill:#f4900c;fill-opacity:1" /><ellipse
           cx="8.143713"
           cy="6.8767891"
           rx="5.9325061"
           ry="6.04037"
           id="path3882"
           style="display:inline;opacity:1;fill:#f4900c;fill-opacity:1" /></g><g
         style="display:none"
         inkscape:label="Layer 3"
         id="layer4"><path
           id="path6"
           d="m 18,23.471 c -6.222,0 -8,-2.328 -8,-1.228 0,1.102 3.556,3.98 8,3.98 4.444,0 8,-2.879 8,-3.98 0,-1.1 -1.777,1.228 -8,1.228 m 8,-8.804 a 2.667,2.667 0 1 1 -5.334,0 2.667,2.667 0 0 1 5.334,0 m -10.667,0 a 2.668,2.668 0 1 1 -5.335,-10e-4 2.668,2.668 0 0 1 5.335,10e-4"
           style="fill:#f4900c"
           inkscape:connector-curvature="0" /></g><g
         style="display:none"
         inkscape:label="Layer 4"
         id="layer5"><path
           id="path2-7"
           d="M 36,22 C 36,29.456 27.941,34 18,34 8.059,34 0,29.456 0,22 0,14.544 8.059,7 18,7 c 9.941,0 18,7.544 18,15 z"
           style="fill:#c6e5b3"
           inkscape:connector-curvature="0" /></g><g
         style="display:inline"
         inkscape:label="Layer 7"
         id="layer8"><circle
           id="circle10"
           r="3.5"
           cy="6.4322033"
           cx="28.652542"
           style="fill:#ffffff" /><circle
           id="circle6"
           r="3.5"
           cy="6.4322033"
           cx="7.6525426"
           style="fill:#ffffff" /></g><g
         style="display:inline"
         inkscape:label="Layer 6"
         id="layer7"><circle
           id="circle14"
           r="1"
           cy="18.932203"
           cx="14.152542"
           style="fill:#ffcc4d;fill-opacity:1" /><circle
           id="circle16"
           r="1"
           cy="18.932203"
           cx="22.152542"
           style="fill:#ffcc4d;fill-opacity:1" /><circle
           id="circle8"
           r="1.5"
           cy="6.4322033"
           cx="7.6525426"
           style="fill:#292f33" /><circle
           id="circle12"
           r="1.5"
           cy="6.4322033"
           cx="28.652542"
           style="fill:#292f33" /></g></g></g></svg>