<?xml version="1.0" encoding="UTF-8" standalone="no"?>
<svg
   xmlns:dc="http://purl.org/dc/elements/1.1/"
   xmlns:cc="http://creativecommons.org/ns#"
   xmlns:rdf="http://www.w3.org/1999/02/22-rdf-syntax-ns#"
   xmlns:svg="http://www.w3.org/2000/svg"
   xmlns="http://www.w3.org/2000/svg"
   xmlns:sodipodi="http://sodipodi.sourceforge.net/DTD/sodipodi-0.dtd"
   xmlns:inkscape="http://www.inkscape.org/namespaces/inkscape"
   viewBox="0 0 45 45"
   style="enable-background:new 0 0 45 45;"
   xml:space="preserve"
   version="1.1"
   id="svg2"
   sodipodi:docname="svg_pregnantfrog.svg"
   inkscape:export-xdpi="1919.99"
   inkscape:export-ydpi="1919.99"
   inkscape:version="0.92.4 5da689c313, 2019-01-14"><sodipodi:namedview
     pagecolor="#ffffff"
     bordercolor="#666666"
     borderopacity="1"
     objecttolerance="10"
     gridtolerance="10"
     guidetolerance="10"
     inkscape:pageopacity="0"
     inkscape:pageshadow="2"
     inkscape:window-width="1358"
     inkscape:window-height="705"
     id="namedview48"
     showgrid="false"
     inkscape:zoom="7.4167645"
     inkscape:cx="15.449087"
     inkscape:cy="30.227542"
     inkscape:window-x="0"
     inkscape:window-y="0"
     inkscape:window-maximized="0"
     inkscape:current-layer="svg2" /><metadata
     id="metadata8"><rdf:RDF><cc:Work
         rdf:about=""><dc:format>image/svg+xml</dc:format><dc:type
           rdf:resource="http://purl.org/dc/dcmitype/StillImage" /><dc:title /></cc:Work></rdf:RDF></metadata><defs
     id="defs6"><clipPath
       id="clipPath16"
       clipPathUnits="userSpaceOnUse"><path
         id="path18"
         d="M 0,36 36,36 36,0 0,0 0,36 Z" /></clipPath><clipPath
       id="clipPath16-3"
       clipPathUnits="userSpaceOnUse"><path
         inkscape:connector-curvature="0"
         id="path18-6"
         d="M 0,36 H 36 V 0 H 0 Z" /></clipPath></defs><g
     id="g20"
     transform="matrix(1.25,0,0,-1.25,27.65375,17.22225)"
     style="fill:#ffcb4e;fill-opacity:1"><path
       inkscape:connector-curvature="0"
       d="M 0,0 H -4.444 C -6.237,0 -7.777,-1.541 -7.777,-3.333 V -22.222 H 2.877 v 8.956 l 0.457,1.752 v 8.181 C 3.334,-1.541 1.793,0 0,0"
       style="fill:#ffcb4e;fill-opacity:1;fill-rule:nonzero;stroke:none"
       id="path22" /></g><g
     id="g24"
     transform="matrix(1.25,0,0,-1.25,22.5,20.625)"
     style="fill:#5c913b;fill-opacity:1"><path
       inkscape:connector-curvature="0"
       d="M 0,0 C -2.485,0 -4.5,-2.015 -4.5,-4.5 -4.5,-6.985 -2.485,-9 0,-9 Z"
       style="fill:#f39120;fill-opacity:1;fill-rule:nonzero;stroke:none"
       id="path26" /></g><g
     id="g28"
     transform="matrix(1.25,0,0,-1.25,22.5,21.875)"
     style="fill:#ffcb4e;fill-opacity:1"><path
       inkscape:connector-curvature="0"
       d="M 0,0 C -1.933,0 -3.5,-1.567 -3.5,-3.5 -3.5,-5.433 -1.933,-7 0,-7 Z"
       style="fill:#ffcb4e;fill-opacity:1;fill-rule:nonzero;stroke:none"
       id="path30" /></g><g
     id="g32"
     transform="matrix(1.25,0,0,-1.25,25,20.625)"
     style="fill:#f39120;fill-opacity:1"><path
       inkscape:connector-curvature="0"
       d="M 0,0 C -2.485,0 -4.5,-2.015 -4.5,-4.5 -4.5,-6.985 -2.485,-9 0,-9 Z"
       style="fill:#f39120;fill-opacity:1;fill-rule:nonzero;stroke:none"
       id="path34" /></g><g
     id="g36"
     transform="matrix(1.25,0,0,-1.25,25,21.875)"
     style="fill:#ffcb4e;fill-opacity:1"><path
       inkscape:connector-curvature="0"
       d="M 0,0 C -1.933,0 -3.5,-1.567 -3.5,-3.5 -3.5,-5.433 -1.933,-7 0,-7 Z"
       style="fill:#ffcb4e;fill-opacity:1;fill-rule:nonzero;stroke:none"
       id="path38" /></g><g
     id="g40"
     transform="matrix(1.25,0,0,-1.25,14.766875,45)"
     style="fill:#f39120;fill-opacity:1"><path
       inkscape:connector-curvature="0"
       d="m 0,0 h 7.154 v 14.25 c -0.453,0.076 -0.916,0.125 -1.391,0.125 -4.61,0 -8.347,-3.737 -8.347,-8.347 C -2.584,3.656 -1.589,1.52 0,0"
       style="fill:#f39120;fill-opacity:1;fill-rule:nonzero;stroke:none"
       id="path42" /></g><g
     id="g44"
     transform="matrix(1.25,0,0,-1.25,23.4875,22.71325)"
     style="fill:#ffcb4e;fill-opacity:1"><path
       inkscape:connector-curvature="0"
       d="m 0,0 v -4.491 c -0.396,0.066 -0.799,0.109 -1.213,0.109 -4.098,0 -7.42,-3.321 -7.42,-7.419 0,-2.486 1.228,-4.682 3.106,-6.028 H 5.169 V 2.838 Z"
       style="fill:#ffcb4e;fill-opacity:1;fill-rule:nonzero;stroke:none"
       id="path46" /></g><g
     id="g48"
     transform="matrix(1.25,0,0,-1.25,30.546875,20)"
     style="fill:#f39120;fill-opacity:1"><path
       inkscape:connector-curvature="0"
       d="m 0,0 4.851,-5.114 -4.289,-4.511 -0.001,-3.046 -3.941,-2.674 -2.641,4.139 5.646,5.81 -1.939,1.923 z"
       style="fill:#f39120;fill-opacity:1;fill-rule:nonzero;stroke:none"
       id="path50" /></g><path
     id="path54"
     style="fill:#ffcb4e;fill-opacity:1;fill-rule:nonzero;stroke:none;stroke-width:1.25"
     d="m 30.546875,18.4375 6.83,7.1175 c 0,0 2.37125,1.91125 0,4.16625 -1.42375,1.35375 -10.34625,7.3625 -10.34625,7.3625 l -2.77625,-2.7775 7.5675,-7.36125 -4.1675,-4.1675 z"
     inkscape:connector-curvature="0" /><g
     id="g56"
     transform="matrix(1.25,0,0,-1.25,25.413875,34.41525)"
     style="fill:#ffd8b7;fill-opacity:1"><path
       inkscape:connector-curvature="0"
       d="M 0,0 C -1.124,0.535 -2.19,0.461 -3.221,-0.142 -3.713,-0.431 -3.915,-0.971 -3.16,-1.149 -2.402,-1.327 0,0 0,0"
       style="fill:#ffd8b7;fill-opacity:1;fill-rule:nonzero;stroke:none"
       id="path58" /></g><g
     id="g60"
     transform="matrix(1.25,0,0,-1.25,27.305875,36.8115)"
     style="fill:#ffd882;fill-opacity:1"><path
       inkscape:connector-curvature="0"
       d="m 0,0 c 0.139,-1.765 -2.227,-3.414 -4.02,-3.199 -1.282,0.154 -2.397,3.608 -0.877,4.053 1.357,0.396 1.731,1.627 3.34,1.167 C -0.278,1.656 -0.051,0.678 0,0"
       style="fill:#ffd882;fill-opacity:1;fill-rule:nonzero;stroke:none"
       id="path62" /></g><g
     id="g64"
     transform="matrix(1.25,0,0,-1.25,25.824,37.66475)"
     style="fill:#3b5d26;fill-opacity:1"><path
       inkscape:connector-curvature="0"
       d="m 0,0 -0.212,0.441 c 0,0 -0.77,-1.147 -1.843,-1.589 -0.813,-0.332 -1.498,-0.366 -1.857,-0.306 0.154,-0.293 0.157,-0.343 0.359,-0.53 C -2.436,-2.024 -0.651,-1.425 0,0"
       style="fill:#f39120;fill-opacity:1;fill-rule:nonzero;stroke:none"
       id="path66" /></g><g
     id="g68"
     transform="matrix(1.25,0,0,-1.25,23.052375,37.616)"
     style="fill:#f39120;fill-opacity:1"><path
       inkscape:connector-curvature="0"
       d="M 0,0 C 0.99,0.678 1.279,1.326 1.279,1.326 L 0.956,1.735 c 0,0 -1.145,-1.776 -3.177,-1.684 0.015,-0.248 -0.006,-0.296 0.068,-0.55 C -1.88,-0.509 -0.804,-0.55 0,0"
       style="fill:#f39120;fill-opacity:1;fill-rule:nonzero;stroke:none"
       id="path70" /></g><path
     id="path22-3"
     style="fill:#ffd882;fill-opacity:1;fill-rule:nonzero;stroke:none;stroke-width:0.49882802"
     d="m 31.516366,14.290222 c 0,3.795546 -3.939259,6.108711 -8.798444,6.108711 -4.859185,0 -8.798444,-2.313165 -8.798444,-6.108711 0,-3.795545 3.939259,-7.6358893 8.798444,-7.6358893 4.859185,0 8.798444,3.8403443 8.798444,7.6358893"
     inkscape:connector-curvature="0" /><g
     id="g1080"
     transform="matrix(0.27344685,0.09654051,-0.07841113,0.33667027,27.167984,12.882054)"><path
       sodipodi:nodetypes="cccc"
       d="m -26.91831,-11.255726 c -5.30366,-7.465217 -20.091252,-13.568661 -21.885405,-12.549911 -1.795576,1.02 -1.756014,15.0607328 3.214377,21.111633 z"
       style="fill:#ffcb4e;fill-opacity:1;fill-rule:nonzero;stroke:none;stroke-width:1.33360505"
       id="path22-6"
       inkscape:connector-curvature="0" /><path
       d="m -36.306341,-16.574224 c -3.084634,-2.97875 -9.504315,-5.215 -10.821829,-4.93125 -1.07137,0.22625 -0.904902,7.9825 -0.04411,12.4212493 3.646641,-5.3124993 10.865936,-7.4899993 10.865936,-7.4899993"
       style="fill:#f28f20;fill-opacity:1;fill-rule:nonzero;stroke:none;stroke-width:1.33360505"
       id="path34-0"
       inkscape:connector-curvature="0" /></g><g
     transform="matrix(-0.27344685,0.09654051,0.07841113,0.33667027,18.262708,12.882054)"
     id="g1107"><path
       inkscape:connector-curvature="0"
       id="path1103"
       style="fill:#ffcb4e;fill-opacity:1;fill-rule:nonzero;stroke:none;stroke-width:1.33360505"
       d="m -26.91831,-11.255726 c -5.30366,-7.465217 -20.091252,-13.568661 -21.885405,-12.549911 -1.795576,1.02 -1.756014,15.0607328 3.214377,21.111633 z"
       sodipodi:nodetypes="cccc" /><path
       inkscape:connector-curvature="0"
       id="path1105"
       style="fill:#f28f20;fill-opacity:1;fill-rule:nonzero;stroke:none;stroke-width:1.33360505"
       d="m -36.306341,-16.574224 c -3.084634,-2.97875 -9.504315,-5.215 -10.821829,-4.93125 -1.07137,0.22625 -0.904902,7.9825 -0.04411,12.4212493 3.646641,-5.3124993 10.865936,-7.4899993 10.865936,-7.4899993" /></g><path
     id="path26-6"
     style="fill:#ffcb4e;fill-opacity:1;fill-rule:nonzero;stroke:none;stroke-width:0.49882802"
     d="m 29.44135,9.5436513 c 0.668682,-0.5599642 1.097362,-1.41773 1.097362,-2.3803612 0,-1.686513 -1.312923,-3.0543552 -2.932814,-3.0543552 -1.398464,0 -2.566213,1.0206638 -2.859495,2.3849423 -0.630066,-0.2458753 -1.311945,-0.3858666 -2.02853,-0.3858666 -0.716095,0 -1.398464,0.1399908 -2.028041,0.3858666 -0.293771,-1.3642785 -1.461519,-2.3849423 -2.859983,-2.3849423 -1.619403,0 -2.932815,1.3678422 -2.932815,3.0543552 0,0.9626312 0.429168,1.820397 1.097361,2.3803612 -1.292883,1.3642787 -2.074966,3.0589377 -2.074966,4.7464697 0,3.795545 3.939259,0.509059 8.798444,0.509059 4.859675,0 8.798444,3.286486 8.798444,-0.509059 0,-1.687532 -0.781595,-3.382191 -2.074967,-4.7464697"
     inkscape:connector-curvature="0" /><path
     id="path30-7"
     style="fill:#ffffff;fill-opacity:1;fill-rule:nonzero;stroke:none;stroke-width:0.49882802"
     d="m 19.296305,6.9088629 c 0,0.9840119 -0.765954,1.7817076 -1.710809,1.7817076 -0.944855,0 -1.710808,-0.7976957 -1.710808,-1.7817076 0,-0.9840118 0.765953,-1.7817077 1.710808,-1.7817077 0.944855,0 1.710809,0.7976959 1.710809,1.7817077"
     inkscape:connector-curvature="0" /><path
     id="path34-5"
     style="fill:#292f33;fill-opacity:1;fill-rule:nonzero;stroke:none;stroke-width:0.49882802"
     d="m 18.3187,6.9088629 c 0,0.4220105 -0.327987,0.763588 -0.733204,0.763588 -0.405217,0 -0.733203,-0.3415775 -0.733203,-0.763588 0,-0.4220105 0.327986,-0.7635891 0.733203,-0.7635891 0.405217,0 0.733204,0.3415786 0.733204,0.7635891"
     inkscape:connector-curvature="0" /><path
     id="path38-35"
     style="fill:#ffffff;fill-opacity:1;fill-rule:nonzero;stroke:none;stroke-width:0.49882802"
     d="m 29.561156,6.9088629 c 0,0.9840119 -0.765464,1.7817076 -1.710809,1.7817076 -0.945343,0 -1.710808,-0.7976957 -1.710808,-1.7817076 0,-0.9840118 0.765465,-1.7817077 1.710808,-1.7817077 0.945345,0 1.710809,0.7976959 1.710809,1.7817077"
     inkscape:connector-curvature="0" /><path
     id="path42-6"
     style="fill:#292f33;fill-opacity:1;fill-rule:nonzero;stroke:none;stroke-width:0.49882802"
     d="m 28.583551,6.9088629 c 0,0.4220105 -0.328475,0.763588 -0.733204,0.763588 -0.404727,0 -0.733203,-0.3415775 -0.733203,-0.763588 0,-0.4220105 0.328476,-0.7635891 0.733203,-0.7635891 0.404729,0 0.733204,0.3415786 0.733204,0.7635891"
     inkscape:connector-curvature="0" /><path
     inkscape:connector-curvature="0"
     id="path38-3"
     style="fill:#faaa35;fill-opacity:1;fill-rule:nonzero;stroke:none;stroke-width:0.49882802"
     d="m 24.608269,12.70548 c 0,-2.389015 -0.884243,-6.6177702 -1.974761,-6.6177702 -1.09052,0 -1.974763,4.2287552 -1.974763,6.6177702 0,2.390034 0.884243,1.018119 1.974763,1.018119 1.090518,0 1.974761,1.371915 1.974761,-1.018119" /><path
     inkscape:connector-curvature="0"
     id="path50-1"
     style="fill:#f28f20;fill-opacity:1;fill-rule:nonzero;stroke:none;stroke-width:0.49882802"
     d="m 22.725058,16.879983 c -0.270308,0 -0.488803,-0.227551 -0.488803,-0.50906 v -1.463546 c 0,-0.28151 0.218495,-0.509059 0.488803,-0.509059 0.270308,0 0.488802,0.227549 0.488802,0.509059 v 1.463546 c 0,0.281509 -0.218494,0.50906 -0.488802,0.50906" /><path
     inkscape:connector-curvature="0"
     id="path54-2"
     style="fill:#f28f20;fill-opacity:1;fill-rule:nonzero;stroke:none;stroke-width:0.49882802"
     d="m 24.705099,18.003476 c -1.956187,0 -2.422994,-1.405513 -2.444501,-1.474236 -0.08407,-0.267256 0.05572,-0.554875 0.312833,-0.641923 0.255644,-0.08755 0.52693,0.05549 0.613937,0.317653 0.02151,0.05906 0.428191,1.08786 2.364825,0.684684 0.267376,-0.05701 0.523019,0.124207 0.575321,0.399611 0.05328,0.275911 -0.118779,0.543676 -0.383221,0.598655 -0.385665,0.08094 -0.730759,0.115548 -1.039194,0.115548" /><path
     inkscape:connector-curvature="0"
     id="path58-9"
     style="fill:#f28f20;fill-opacity:1;fill-rule:nonzero;stroke:none;stroke-width:0.49882802"
     d="m 20.726442,18.003476 c -0.308923,0 -0.653528,-0.03461 -1.039682,-0.115549 -0.264442,-0.05497 -0.436501,-0.322743 -0.383222,-0.598654 0.0523,-0.275401 0.307457,-0.457135 0.575321,-0.399613 1.956187,0.406231 2.369714,-0.646504 2.386333,-0.691809 0.09581,-0.258604 0.374912,-0.39554 0.62469,-0.300855 0.249779,0.09468 0.38371,0.375686 0.298169,0.637343 -0.02248,0.06923 -0.505421,1.469143 -2.461609,1.469143" /><path
     inkscape:connector-curvature="0"
     id="path62-1"
     style="fill:#292f33;fill-opacity:1;fill-rule:nonzero;stroke:none;stroke-width:0.62293011"
     d="m 25.169071,13.556035 c 0,1.117571 -1.96308,2.529475 -2.453849,2.529475 -0.48955,0 -2.45324,-1.411904 -2.45324,-2.529475 0,-1.118845 1.369761,-1.012047 2.45324,-1.012047 1.084087,0 2.453849,-0.106804 2.453849,1.012047" /><path
     inkscape:connector-curvature="0"
     id="path66-2"
     style="fill:#f39120;fill-opacity:1;fill-rule:nonzero;stroke:none;stroke-width:0.49882802"
     d="m 30.546875,18.4375 c -0.135399,0 -0.270308,-0.05854 -0.367091,-0.172571 -0.01466,-0.01782 -1.55488,-1.782725 -5.088433,-2.35389 -0.266887,-0.04327 -0.449699,-0.3034 -0.40815,-0.580837 0.04155,-0.277946 0.291814,-0.466298 0.558212,-0.425065 0.178901,0.02851 0.353404,0.06057 0.523996,0.09468 3.539908,0.71472 5.083057,2.514754 5.150023,2.594166 0.176947,0.211769 0.155928,0.533494 -0.04742,0.718283 -0.09238,0.084 -0.207252,0.125225 -0.321143,0.125225" /><path
     inkscape:connector-curvature="0"
     id="path70-7"
     style="fill:#f39120;fill-opacity:1;fill-rule:nonzero;stroke:none;stroke-width:0.49882802"
     d="m 25.166235,15.917046 c -0.198454,0 -0.385665,-0.127271 -0.458985,-0.332417 -0.09336,-0.264202 0.03666,-0.55691 0.28937,-0.654141 2.677172,-1.030334 5.944327,-0.09621 6.08608,-0.05549 0.260043,0.07585 0.411572,0.355833 0.339718,0.626652 -0.07185,0.270819 -0.340696,0.428628 -0.601227,0.354815 -0.03129,-0.0091 -3.107807,-0.885254 -5.485341,0.02953 -0.05621,0.02086 -0.113402,0.03104 -0.169615,0.03104" /><path
     inkscape:connector-curvature="0"
     id="path74"
     style="fill:#f39120;fill-opacity:1;fill-rule:nonzero;stroke:none;stroke-width:0.49882802"
     d="m 14.888968,18.4375 c 0.135399,0 0.270308,-0.05854 0.367091,-0.172571 0.01466,-0.01782 1.55488,-1.782725 5.088434,-2.35389 0.266886,-0.04327 0.449698,-0.3034 0.408149,-0.580837 -0.04155,-0.277946 -0.291815,-0.466298 -0.557723,-0.425065 -0.17939,0.02851 -0.353893,0.06057 -0.524485,0.09468 -3.539908,0.71472 -5.083057,2.514754 -5.150023,2.594166 -0.176946,0.211769 -0.155928,0.533494 0.04742,0.718283 0.09238,0.084 0.207252,0.125225 0.321144,0.125225" /><path
     inkscape:connector-curvature="0"
     id="path78"
     style="fill:#f39120;fill-opacity:1;fill-rule:nonzero;stroke:none;stroke-width:0.49882802"
     d="m 20.269607,15.917046 c 0.198454,0 0.385665,-0.127271 0.458986,-0.332417 0.09336,-0.264202 -0.03665,-0.55691 -0.289371,-0.654141 -2.677171,-1.030334 -5.944326,-0.09621 -6.086079,-0.05549 -0.260043,0.07585 -0.411572,0.355833 -0.339717,0.626652 0.07185,0.270819 0.340695,0.428628 0.601226,0.354815 0.03129,-0.0091 3.107807,-0.885254 5.485341,0.02953 0.05621,0.02086 0.113402,0.03104 0.169614,0.03104" /></svg>