<?xml version="1.0" encoding="utf-8"?>
<!-- Generator: Adobe Illustrator 26.0.1, SVG Export Plug-In . SVG Version: 6.00 Build 0)  -->
<svg version="1.1"
	 id="svg2" inkscape:version="1.1.1 (3bf5ae0d25, 2021-09-20, custom)" xmlns:inkscape="http://www.inkscape.org/namespaces/inkscape" xmlns:sodipodi="http://sodipodi.sourceforge.net/DTD/sodipodi-0.dtd" xmlns:svg="http://www.w3.org/2000/svg"
	 xmlns="http://www.w3.org/2000/svg" xmlns:xlink="http://www.w3.org/1999/xlink" x="0px" y="0px" viewBox="0 0 45 45"
	 style="enable-background:new 0 0 45 45;" xml:space="preserve">
<style type="text/css">
	.st0{fill:#C6E5B3;}
	.st1{fill:#77B255;}
	.st2{fill:#FFFFFF;}
	.st3{fill:#292F33;}
	.st4{fill:#5C913B;}
	.st5{fill:none;stroke:#000000;stroke-width:2;}
</style>
<path id="path22" sodipodi:nodetypes="cscc" class="st0" d="M45,27.5c0,9.3-10.1,15-22.5,15S0,36.8,0,27.5L45,27.5"/>
<path id="path26" class="st1" d="M39.7,15.8c1.7-1.4,2.8-3.5,2.8-5.8c0-4.1-3.4-7.5-7.5-7.5c-3.6,0-6.6,2.5-7.3,5.9
	c-1.6-0.6-3.4-0.9-5.2-0.9c-1.8,0-3.6,0.3-5.2,0.9C16.6,5,13.6,2.5,10,2.5c-4.1,0-7.5,3.4-7.5,7.5c0,2.4,1.1,4.5,2.8,5.8
	C2,19.2,0,23.4,0,27.5c0,9.3,10.1,1.2,22.5,1.2c12.4,0,22.5,8.1,22.5-1.2C45,23.4,43,19.2,39.7,15.8"/>
<path id="path30" class="st2" d="M13.8,9.4c0,2.4-2,4.4-4.4,4.4S5,11.8,5,9.4S7,5,9.4,5S13.8,7,13.8,9.4"/>
<path id="path34" class="st3" d="M11.3,9.4c0,1-0.8,1.9-1.9,1.9s-1.9-0.8-1.9-1.9s0.8-1.9,1.9-1.9S11.3,8.3,11.3,9.4"/>
<path id="path38" class="st2" d="M40,9.4c0,2.4-2,4.4-4.4,4.4s-4.4-2-4.4-4.4s2-4.4,4.4-4.4S40,7,40,9.4"/>
<path id="path42" class="st3" d="M37.5,9.4c0,1-0.8,1.9-1.9,1.9s-1.9-0.8-1.9-1.9s0.8-1.9,1.9-1.9S37.5,8.3,37.5,9.4"/>
<path id="path46" class="st4" d="M18.8,25c0,0.7-0.6,1.2-1.2,1.2s-1.2-0.6-1.2-1.2s0.6-1.2,1.2-1.2S18.8,24.3,18.8,25"/>
<path id="path50" class="st4" d="M28.8,25c0,0.7-0.6,1.2-1.2,1.2s-1.2-0.6-1.2-1.2s0.6-1.2,1.2-1.2S28.8,24.3,28.8,25"/>
<path id="path56" inkscape:connector-curvature="0" class="st5" d="M36.9,1.6l-11.5,9"/>
<path id="path887" inkscape:connector-curvature="0" class="st5" d="M8.2,1.6l11.5,9"/>
<path d="M15.2,26.9h-1.3c0,0-4.6-2.8-5.8-2.8s-3,1.3-3,3c0,1.6,1.4,3.4,2.5,3.4s3.4-1.4,3.4-2.7c0-1.4-1.1-1.7-2.1-1.7
	s-2.2,1.4-1.7,2s1.2-0.2,1.2-0.2l0.9,0.5c0,0-0.9,0.5-1.5,0.5s-1.5-0.5-1.5-1.1c0-1.2,1.8-2.4,3-2.4s2.7,0.9,2.7,2.4
	s-2.5,3.4-4.5,3.4s-3.3-2.8-3.3-4.1s1.2-3.8,3.7-3.8S15.2,26.9,15.2,26.9z"/>
<path d="M29.5,26.9h1.3c0,0,4.6-2.8,5.8-2.8c1.2,0,3,1.3,3,3s-1.4,3.4-2.5,3.4s-3.4-1.4-3.4-2.7c0-1.4,1.1-1.7,2.1-1.7
	c1,0,2.2,1.4,1.7,2c-0.5,0.5-1.2-0.2-1.2-0.2l-0.9,0.5c0,0,0.9,0.5,1.5,0.5c0.6,0,1.5-0.5,1.5-1.1c0-1.2-1.8-2.4-3-2.4
	c-1.1,0-2.7,0.9-2.7,2.4c0,1.6,2.5,3.4,4.5,3.4c2,0,3.3-2.8,3.3-4.1c0-1.3-1.2-3.8-3.7-3.8S29.5,26.9,29.5,26.9z"/>
</svg>
