<?xml version="1.0" encoding="utf-8"?>
<!-- Generator: Adobe Illustrator 26.0.1, SVG Export Plug-In . SVG Version: 6.00 Build 0)  -->
<svg version="1.1"
	 id="svg2" inkscape:export-xdpi="1919.99" inkscape:export-ydpi="1919.99" inkscape:version="0.92.4 5da689c313, 2019-01-14" xmlns:cc="http://creativecommons.org/ns#" xmlns:dc="http://purl.org/dc/elements/1.1/" xmlns:inkscape="http://www.inkscape.org/namespaces/inkscape" xmlns:rdf="http://www.w3.org/1999/02/22-rdf-syntax-ns#" xmlns:sodipodi="http://sodipodi.sourceforge.net/DTD/sodipodi-0.dtd" xmlns:svg="http://www.w3.org/2000/svg"
	 xmlns="http://www.w3.org/2000/svg" xmlns:xlink="http://www.w3.org/1999/xlink" x="0px" y="0px" viewBox="0 0 45 45"
	 style="enable-background:new 0 0 45 45;" xml:space="preserve">
<style type="text/css">
	.st0{fill:#C6E5B3;}
	.st1{fill:#77B255;}
	.st2{fill:#292F33;}
	.st3{fill:#5C913B;}
</style>
<g id="g20" transform="matrix(1.25,0,0,-1.25,45,27.5)">
	<path id="path22_00000113319122506849358890000008254200180597133491_" inkscape:connector-curvature="0" class="st0" d="M0,0"/>
	<path id="path22_00000183933922432145435880000008953072091278624944_" inkscape:connector-curvature="0" class="st0" d="M0,0
		c0-7.5-8.1-12-18-12S-36-7.5-36,0H0z"/>
</g>
<g id="g24" transform="matrix(1.25,0,0,-1.25,39.693625,15.84475)">
	<path id="path26" inkscape:connector-curvature="0" class="st1" d="M0,0c1.4,1.1,2.2,2.8,2.2,4.7c0,3.3-2.7,6-6,6
		c-2.9,0-5.2-2-5.8-4.7c-1.3,0.5-2.7,0.8-4.1,0.8c-1.5,0-2.9-0.3-4.1-0.8c-0.6,2.7-3,4.7-5.9,4.7c-3.3,0-6-2.7-6-6
		c0-1.9,0.9-3.6,2.2-4.7c-2.6-2.7-4.2-6-4.2-9.3c0-7.5,8.1-1,18-1c9.9,0,18-6.5,18,1C4.2-6,2.6-2.7,0,0"/>
</g>
<g id="g32" transform="matrix(1.25,0,0,-1.25,11.25,9.375)">
	<path id="path34" inkscape:connector-curvature="0" class="st2" d="M0,0c0-0.8-0.7-1.5-1.5-1.5S-3-0.8-3,0s0.7,1.5,1.5,1.5
		S0,0.8,0,0"/>
</g>
<g id="g40" transform="matrix(1.25,0,0,-1.25,37.5,9.375)">
	<path id="path42" inkscape:connector-curvature="0" class="st2" d="M0,0c0-0.8-0.7-1.5-1.5-1.5S-3-0.8-3,0s0.7,1.5,1.5,1.5
		S0,0.8,0,0"/>
</g>
<g id="g44" transform="matrix(1.25,0,0,-1.25,18.75,25)">
	<path id="path46" inkscape:connector-curvature="0" class="st3" d="M0,0c0-0.6-0.4-1-1-1s-1,0.4-1,1s0.4,1,1,1S0,0.6,0,0"/>
</g>
<g id="g48" transform="matrix(1.25,0,0,-1.25,28.75,25)">
	<path id="path50" inkscape:connector-curvature="0" class="st3" d="M0,0c0-0.6-0.4-1-1-1s-1,0.4-1,1s0.4,1,1,1S0,0.6,0,0"/>
</g>
</svg>
