<?xml version="1.0" encoding="utf-8"?>
<!-- Generator: Adobe Illustrator 25.0.0, SVG Export Plug-In . SVG Version: 6.00 Build 0)  -->
<svg version="1.1" id="Ebene_1" xmlns="http://www.w3.org/2000/svg" xmlns:xlink="http://www.w3.org/1999/xlink" x="0px" y="0px"
	 viewBox="0 0 438.2 438.2" style="enable-background:new 0 0 438.2 438.2;" xml:space="preserve">
<style type="text/css">
	.st0{fill:#78B254;}
	.st1{fill:#C6DFB2;}
	.st2{fill:#ED6B35;}
	.st3{fill:#FFFFFF;}
	.st4{fill:#2B3135;}
	.st5{fill:#5C913B;}
	.st6{fill:none;}
</style>
<g id="Ebene_2_1_">
	<g id="Ebene_1-2">
		<path class="st0" d="M33.2,198.5c11.4-34.4,29.5-66.1,53.3-93.5c-14.4-25.8-10.2-60,9.2-82.3c20.2-26.9,64.8-32.5,85-2.6
			c15.5,24.7-0.2,16.2,35,10.8c31.4-5.6,64.2-3.1,94,8.2c19-8,41.9-9.5,58.3,5.6c13.4,11.3,19.8,29.2,18.4,46.5
			c2.5,6,8.1,10.7,11,16.7c4.2,8.8,11.1,15.9,14.7,25c5.8,14.1,8.4,29.4,10,44.5c3,33.5,0.9,68.1-11.6,99.6
			c-31.2,12.5-68.6,12.7-99.9,0.3C318.5,218,274,182,218,204.8c-15,4.1-33.5,14-48,4.3c-15.2-11.4-26.9-33.9-48.5-31.8
			c-18.6,2.1-31.8,18-35.9,35.5C67.9,218.9,43.3,216.1,33.2,198.5z"/>
		<path class="st1" d="M310.6,277.3c31.3,12.4,68.7,12.2,99.9-0.3c-14.7,52.3,31,51.6,7.4,97.5c-2.4,2.7-4.6,5.6-6.6,8.7
			c-63.8,69.7-265.2,67.2-345.3,26c-44-21.9-53.9-46.5-52.7-94.2c1.1-39.4,5.5-79.5,19.8-116.4c10,17.6,34.6,20.4,52.4,14.3
			c-4.1,16.5-4.3,37.4,9.2,49.8c14.5,9.5,33.4,3.5,49.4,8.6c11.9,2.7,21.5,10.8,28.8,20.4C209.9,356.8,294.6,356.8,310.6,277.3z"/>
		<path class="st2" d="M310.6,277.3c-9,52.9-59.4,78.4-105.9,49.5c-19.1-11.3-26.8-33.8-43.7-47.5c-25.6-22-72.4,5.6-77.4-39.9
			c-3.4-25.7,9-58.7,37.8-62.1c21.6-2.1,33.3,20.4,48.5,31.8c22.6,14.1,56.1-15.7,88.4-12C298.6,201.7,316.9,242.6,310.6,277.3z"/>
		<path class="st3" d="M93.7,71.6c-1.3-50.6,67.6-84.3,82.2-23.2c5.9,31-19.5,71.2-53.9,64.7C103.4,109.1,93.3,89.5,93.7,71.6z"/>
		<path class="st3" d="M370.8,86.3c-0.7,49.9-72.3,56.8-73.8,3.5C297.7,39.6,369.4,32.9,370.8,86.3z"/>
		<path class="st4" d="M117.4,66.3c-0.1-10.3,9.9-24.4,22.5-22.5c17.9,3.5,15.9,29.7,3.1,38.3C131.1,91.6,116,81.3,117.4,66.3z"/>
		<path class="st4" d="M332.9,104.9c-17.2-0.2-19.7-25.6-5-32.1C353,62.6,357.9,104,332.9,104.9z"/>
		<path class="st5" d="M165.9,185.3c-13.2,0.5-13.6-20.9,0.2-20.7C179.5,164.6,179.6,185.7,165.9,185.3z"/>
		<path class="st5" d="M209.2,191.1c-13.2,0.5-13.6-21,0.2-20.7C222.8,170.5,222.9,191.6,209.2,191.1z"/>
		<rect y="0" class="st6" width="438.2" height="438.2"/>
	</g>
</g>
</svg>
