<?xml version="1.0" encoding="UTF-8" standalone="no"?>
<svg
   xmlns:dc="http://purl.org/dc/elements/1.1/"
   xmlns:cc="http://creativecommons.org/ns#"
   xmlns:rdf="http://www.w3.org/1999/02/22-rdf-syntax-ns#"
   xmlns:svg="http://www.w3.org/2000/svg"
   xmlns="http://www.w3.org/2000/svg"
   xmlns:sodipodi="http://sodipodi.sourceforge.net/DTD/sodipodi-0.dtd"
   xmlns:inkscape="http://www.inkscape.org/namespaces/inkscape"
   viewBox="0 0 36 36"
   version="1.1"
   id="svg18"
   sodipodi:docname="frogdetective.svg"
   inkscape:export-xdpi="85.333336"
   inkscape:export-ydpi="85.333336"
   inkscape:version="0.92.4 5da689c313, 2019-01-14">
  <metadata
     id="metadata24">
    <rdf:RDF>
      <cc:Work
         rdf:about="">
        <dc:format>image/svg+xml</dc:format>
        <dc:type
           rdf:resource="http://purl.org/dc/dcmitype/StillImage" />
        <dc:title />
      </cc:Work>
    </rdf:RDF>
  </metadata>
  <defs
     id="defs22" />
  <sodipodi:namedview
     pagecolor="#ffffff"
     bordercolor="#666666"
     borderopacity="1"
     objecttolerance="10"
     gridtolerance="10"
     guidetolerance="10"
     inkscape:pageopacity="0"
     inkscape:pageshadow="2"
     inkscape:window-width="1366"
     inkscape:window-height="709"
     id="namedview20"
     showgrid="false"
     inkscape:zoom="8.08"
     inkscape:cx="-0.26232692"
     inkscape:cy="15.551414"
     inkscape:window-x="0"
     inkscape:window-y="0"
     inkscape:window-maximized="1"
     inkscape:current-layer="svg18" />
  <g
     id="g4599"
     transform="matrix(1.1610567,0,0,1.1290665,-4.5626626,-1.6971013)">
    <g
       transform="matrix(0.6790683,0,0,0.69237771,8.0775892,9.7053333)"
       id="g4545">
      <path
         style="fill:#c6e5b3"
         inkscape:connector-curvature="0"
         d="M 36,22 C 36,29.456 27.941,34 18,34 8.059,34 0,29.456 0,22 0,14.544 8.059,7 18,7 c 9.941,0 18,7.544 18,15 z"
         id="path2" />
      <path
         style="fill:#77b255"
         inkscape:connector-curvature="0"
         d="M 31.755,12.676 C 33.123,11.576 34,9.891 34,8 34,4.687 31.313,2 28,2 25.139,2 22.75,4.004 22.149,6.685 20.861,6.202 19.466,5.927 18,5.927 16.535,5.927 15.139,6.202 13.851,6.685 13.25,4.004 10.861,2 8,2 4.687,2 2,4.687 2,8 2,9.891 2.877,11.576 4.245,12.676 1.6,15.356 0,18.685 0,22 c 0,7.456 8.059,1 18,1 9.941,0 18,6.456 18,-1 0,-3.315 -1.6,-6.644 -4.245,-9.324 z"
         id="path4" />
      <circle
         style="fill:#ffffff"
         cx="7.5"
         cy="7.5"
         r="3.5"
         id="circle6" />
      <circle
         style="fill:#292f33"
         cx="7.5"
         cy="7.5"
         r="1.5"
         id="circle8" />
      <circle
         style="fill:#ffffff"
         cx="28.5"
         cy="7.5"
         r="3.5"
         id="circle10" />
      <circle
         style="fill:#292f33"
         cx="28.5"
         cy="7.5"
         r="1.5"
         id="circle12" />
      <circle
         style="fill:#5c913b"
         cx="14"
         cy="20"
         r="1"
         id="circle14" />
      <circle
         style="fill:#5c913b"
         cx="22"
         cy="20"
         r="1"
         id="circle16" />
    </g>
    <path
       id="path2-3"
       d="m 8.6072173,13.471219 c 0.1672879,0.156073 1.0023335,0.624945 1.1689245,1.093817 0.1672879,0.46822 0.5018632,3.465605 1.5041972,4.247277 1.0337,0.804527 4.932903,0.504788 5.679427,0.156726 1.670787,-0.780366 1.875716,-3.301043 2.171258,-4.404656 0.16659,-0.624945 1.168923,-0.624945 1.168923,-0.624945 0,0 1.002335,0 1.169622,0.624292 0.295541,1.104266 0.501863,3.632126 2.171258,4.411186 0.74722,0.349369 4.646422,0.649107 5.681516,-0.155421 1.000941,-0.781671 1.334819,-3.786893 1.502106,-4.255765 0.165893,-0.468219 1.002334,-0.937092 1.168925,-1.093164 0.167985,-0.156073 0.167985,-0.781018 0,-0.937745 -0.333879,-0.312147 -4.2756,-0.590335 -8.519835,-0.156073 -0.846896,0.08685 -1.168925,0.312146 -3.174289,0.312146 -2.003971,0 -2.327393,-0.225947 -3.17359,-0.312146 -4.241447,-0.433609 -8.1838669,-0.15542 -8.5184427,0.156726 -0.1665909,0.156074 -0.1665909,0.781672 0,0.937745 z"
       style="clip-rule:evenodd;fill:#31373d;fill-rule:evenodd;stroke-width:0.67467046"
       inkscape:connector-curvature="0" />
    <path
       id="path4-6"
       d="m 27.518789,13.416062 c 0,0 2.409598,0.868486 3.546343,0.05518 0.0855,-0.733666 -2.264598,-1.276077 -2.264598,-1.276077 z M 12.263706,12.042163 c 0,0 -3.5949028,4.90741 -4.6215295,4.064635 0,0 -0.2906838,-0.87601 0.841273,-2.644959 1.1326408,-1.769578 3.7802565,-1.419676 3.7802565,-1.419676 z"
       style="fill:#292f33;stroke-width:0.65489572"
       inkscape:connector-curvature="0" />
    <path
       id="path6"
       d="m 20.634714,1.6270766 c 0,0 -5.838982,0.2213595 -9.394214,8.4157804 5.125609,0 11.480297,0.285708 11.480297,0.285708 0,0 5.334218,2.049893 6.079737,2.300595 0.744834,0.250703 2.264598,0.842711 2.264598,0.842711 0,0 0.744834,-2.847301 0.208608,-4.9883112 C 30.737513,6.3425496 28.174709,1.7181943 20.634714,1.6270766 Z"
       style="fill:#1a1a1a;stroke-width:0.59337717"
       inkscape:connector-curvature="0" />
    <path
       id="path8"
       d="m 9.4095339,11.802625 c -1.2537021,1.907531 -2.1996212,3.650144 -1.7673574,4.304173 0,0 -0.1388442,-0.477197 0.5300704,-1.023997 0.610094,-0.498517 1.9185131,-0.954393 4.4190771,-0.954393 3.785044,0 8.895606,2.820538 11.024779,3.487735 1.624409,0.509176 1.96639,0.117888 2.864432,-0.783832 0.957547,-0.961917 2.541602,-4.329255 2.541602,-4.329255 0,0 -5.109195,-2.5753547 -8.11931,-3.5905727 C 17.892711,7.8972654 17.23816,8.0176618 16.284717,8.0339655 14.19453,8.0697075 12.650145,8.4547263 11.2405,9.2949923 c 0,0 -1.021839,1.2767047 -1.8309661,2.5076327 z"
       style="fill:#1a1a1a;stroke-width:0.65489572"
       inkscape:connector-curvature="0" />
    <path
       id="path10"
       d="M 28.036539,4.6836394 C 27.619305,3.0681643 25.293058,2.3019515 25.293058,2.3019515 23.996899,1.887643 22.449031,1.6225417 20.598156,1.6023658 c 0,0 -8.339195,-0.049267 -9.357656,7.6926265 0,0 1.738017,-0.523164 5.417195,-0.37208 4.992437,0.205512 9.85902,1.9317197 10.934251,2.2578187 0.567711,-1.3039227 0.935013,-4.5972778 0.444593,-6.4970916 z"
       style="fill:#4d4d4d;stroke-width:0.56650829"
       inkscape:connector-curvature="0" />
  </g>
  <g
     id="g4583"
     transform="matrix(-0.48385752,0,0,0.49790851,36.352175,20.848546)">
    <path
       id="path2-7"
       d="m 51.621774,13.477896 2.828,2.828 -4.95,4.95 -2.828,-2.829 z"
       style="fill:#9aaab4"
       inkscape:connector-curvature="0" />
    <path
       id="path4-5"
       d="m 39.375774,22.894896 5.88,-5.879 c 0.781,-0.781 2.047,-0.781 2.828,0 l 2.828,2.828 c 0.781,0.781 0.781,2.047 0,2.828 l -5.879,5.879 c -1.562,1.563 -4.096,1.563 -5.658,0 -1.561,-1.561 -1.56,-4.094 10e-4,-5.656 z"
       style="fill:#66757f"
       inkscape:connector-curvature="0" />
    <circle
       id="circle6-3"
       r="13.5"
       cy="7.453896"
       cx="60.473774"
       style="fill:#8899a6" />
    <circle
       id="circle8-5"
       r="9.5"
       cy="7.453896"
       cx="60.473774"
       style="fill:#bbddf5" />
  </g>
</svg>
